<?xml version="1.0"?>
<svg xmlns="http://www.w3.org/2000/svg" width="1000" height="1000" viewBox="-500 -500 1000 1000">
    <path d="M0,-21L0,-7M0,-2L-1,-1L0,0L1,-1L0,-2" stroke-width="0.10" fill="none" stroke="#000000"/>
    <path d="M-4,-21L-4,-14M4,-21L4,-14" stroke-width="0.10" fill="none" stroke="#000000"/>
    <path d="M0.50,-25L-6.50,7M6.50,-25L-0.50,7M-6.50,-12L7.50,-12M-7.50,-6L6.50,-6" stroke-width="0.10" fill="none" stroke="#000000"/>
    <path d="M-2,-25L-2,4M2,-25L2,4M7,-18L5,-20L2,-21L-2,-21L-5,-20L-7,-18L-7,-16L-6,-14L-5,-13L-3,-12L3,-10L5,-9L6,-8L7,-6L7,-3L5,-1L2,0L-2,0L-5,-1L-7,-3" stroke-width="0.10" fill="none" stroke="#000000"/>
    <path d="M9,-21L-9,0M-4,-21L-2,-19L-2,-17L-3,-15L-5,-14L-7,-14L-9,-16L-9,-18L-8,-20L-6,-21L-4,-21L-2,-20L1,-19L4,-19L7,-20L9,-21M5,-7L3,-6L2,-4L2,-2L4,0L6,0L8,-1L9,-3L9,-5L7,-7L5,-7" stroke-width="0.10" fill="none" stroke="#000000"/>
    <path d="M10,-12L10,-13L9,-14L8,-14L7,-13L6,-11L4,-6L2,-3L0,-1L-2,0L-6,0L-8,-1L-9,-2L-10,-4L-10,-6L-9,-8L-8,-9L-1,-13L0,-14L1,-16L1,-18L0,-20L-2,-21L-4,-20L-5,-18L-5,-16L-4,-13L-2,-10L3,-3L5,-1L7,0L9,0L10,-1L10,-2" stroke-width="0.10" fill="none" stroke="#000000"/>
    <path d="M0,-19L-1,-20L0,-21L1,-20L1,-18L0,-16L-1,-15" stroke-width="0.10" fill="none" stroke="#000000"/>
    <path d="M3.50,-25L1.50,-23L-0.50,-20L-2.50,-16L-3.50,-11L-3.50,-7L-2.50,-2L-0.50,2L1.50,5L3.50,7" stroke-width="0.10" fill="none" stroke="#000000"/>
    <path d="M-3.50,-25L-1.50,-23L0.50,-20L2.50,-16L3.50,-11L3.50,-7L2.50,-2L0.50,2L-1.50,5L-3.50,7" stroke-width="0.10" fill="none" stroke="#000000"/>
    <path d="M0,-21L0,-9M-5,-18L5,-12M5,-18L-5,-12" stroke-width="0.10" fill="none" stroke="#000000"/>
    <path d="M0,-18L0,0M-9,-9L9,-9" stroke-width="0.10" fill="none" stroke="#000000"/>
    <path d="M1,-1L0,0L-1,-1L0,-2L1,-1L1,1L0,3L-1,4" stroke-width="0.10" fill="none" stroke="#000000"/>
    <path d="M-9,-9L9,-9" stroke-width="0.10" fill="none" stroke="#000000"/>
    <path d="M0,-2L-1,-1L0,0L1,-1L0,-2" stroke-width="0.10" fill="none" stroke="#000000"/>
    <path d="M9,-25L-9,7" stroke-width="0.10" fill="none" stroke="#000000"/>
    <path d="M-1,-21L-4,-20L-6,-17L-7,-12L-7,-9L-6,-4L-4,-1L-1,0L1,0L4,-1L6,-4L7,-9L7,-12L6,-17L4,-20L1,-21L-1,-21" stroke-width="0.10" fill="none" stroke="#000000"/>
    <path d="M-2.50,-17L-0.50,-18L2.50,-21L2.50,0" stroke-width="0.10" fill="none" stroke="#000000"/>
    <path d="M-6,-16L-6,-17L-5,-19L-4,-20L-2,-21L2,-21L4,-20L5,-19L6,-17L6,-15L5,-13L3,-10L-7,0L7,0" stroke-width="0.10" fill="none" stroke="#000000"/>
    <path d="M-5,-21L6,-21L0,-13L3,-13L5,-12L6,-11L7,-8L7,-6L6,-3L4,-1L1,0L-2,0L-5,-1L-6,-2L-7,-4" stroke-width="0.10" fill="none" stroke="#000000"/>
    <path d="M2.50,-21L-7.50,-7L7.50,-7M2.50,-21L2.50,0" stroke-width="0.10" fill="none" stroke="#000000"/>
    <path d="M5,-21L-5,-21L-6,-12L-5,-13L-2,-14L1,-14L4,-13L6,-11L7,-8L7,-6L6,-3L4,-1L1,0L-2,0L-5,-1L-6,-2L-7,-4" stroke-width="0.10" fill="none" stroke="#000000"/>
    <path d="M5.50,-18L4.50,-20L1.50,-21L-0.50,-21L-3.50,-20L-5.50,-17L-6.50,-12L-6.50,-7L-5.50,-3L-3.50,-1L-0.50,0L0.50,0L3.50,-1L5.50,-3L6.50,-6L6.50,-7L5.50,-10L3.50,-12L0.50,-13L-0.50,-13L-3.50,-12L-5.50,-10L-6.50,-7" stroke-width="0.10" fill="none" stroke="#000000"/>
    <path d="M7,-21L-3,0M-7,-21L7,-21" stroke-width="0.10" fill="none" stroke="#000000"/>
    <path d="M-2,-21L-5,-20L-6,-18L-6,-16L-5,-14L-3,-13L1,-12L4,-11L6,-9L7,-7L7,-4L6,-2L5,-1L2,0L-2,0L-5,-1L-6,-2L-7,-4L-7,-7L-6,-9L-4,-11L-1,-12L3,-13L5,-14L6,-16L6,-18L5,-20L2,-21L-2,-21" stroke-width="0.10" fill="none" stroke="#000000"/>
    <path d="M6.50,-14L5.50,-11L3.50,-9L0.50,-8L-0.50,-8L-3.50,-9L-5.50,-11L-6.50,-14L-6.50,-15L-5.50,-18L-3.50,-20L-0.50,-21L0.50,-21L3.50,-20L5.50,-18L6.50,-14L6.50,-9L5.50,-4L3.50,-1L0.50,0L-1.50,0L-4.50,-1L-5.50,-3" stroke-width="0.10" fill="none" stroke="#000000"/>
    <path d="M0,-14L-1,-13L0,-12L1,-13L0,-14M0,-2L-1,-1L0,0L1,-1L0,-2" stroke-width="0.10" fill="none" stroke="#000000"/>
    <path d="M0,-14L-1,-13L0,-12L1,-13L0,-14M1,-1L0,0L-1,-1L0,-2L1,-1L1,1L0,3L-1,4" stroke-width="0.10" fill="none" stroke="#000000"/>
    <path d="M8,-18L-8,-9L8,0" stroke-width="0.10" fill="none" stroke="#000000"/>
    <path d="M-9,-12L9,-12M-9,-6L9,-6" stroke-width="0.10" fill="none" stroke="#000000"/>
    <path d="M-8,-18L8,-9L-8,0" stroke-width="0.10" fill="none" stroke="#000000"/>
    <path d="M-6,-16L-6,-17L-5,-19L-4,-20L-2,-21L2,-21L4,-20L5,-19L6,-17L6,-15L5,-13L4,-12L0,-10L0,-7M0,-2L-1,-1L0,0L1,-1L0,-2" stroke-width="0.10" fill="none" stroke="#000000"/>
    <path d="M4.50,-13L3.50,-15L1.50,-16L-1.50,-16L-3.50,-15L-4.50,-14L-5.50,-11L-5.50,-8L-4.50,-6L-2.50,-5L0.50,-5L2.50,-6L3.50,-8M-1.50,-16L-3.50,-14L-4.50,-11L-4.50,-8L-3.50,-6L-2.50,-5M4.50,-16L3.50,-8L3.50,-6L5.50,-5L7.50,-5L9.50,-7L10.50,-10L10.50,-12L9.50,-15L8.50,-17L6.50,-19L4.50,-20L1.50,-21L-1.50,-21L-4.50,-20L-6.50,-19L-8.50,-17L-9.50,-15L-10.50,-12L-10.50,-9L-9.50,-6L-8.50,-4L-6.50,-2L-4.50,-1L-1.50,0L1.50,0L4.50,-1L6.50,-2L7.50,-3M5.50,-16L4.50,-8L4.50,-6L5.50,-5" stroke-width="0.10" fill="none" stroke="#000000"/>
    <path d="M0,-21L-8,0M0,-21L8,0M-5,-7L5,-7" stroke-width="0.10" fill="none" stroke="#000000"/>
    <path d="M-7,-21L-7,0M-7,-21L2,-21L5,-20L6,-19L7,-17L7,-15L6,-13L5,-12L2,-11M-7,-11L2,-11L5,-10L6,-9L7,-7L7,-4L6,-2L5,-1L2,0L-7,0" stroke-width="0.10" fill="none" stroke="#000000"/>
    <path d="M7.50,-16L6.50,-18L4.50,-20L2.50,-21L-1.50,-21L-3.50,-20L-5.50,-18L-6.50,-16L-7.50,-13L-7.50,-8L-6.50,-5L-5.50,-3L-3.50,-1L-1.50,0L2.50,0L4.50,-1L6.50,-3L7.50,-5" stroke-width="0.10" fill="none" stroke="#000000"/>
    <path d="M-7,-21L-7,0M-7,-21L0,-21L3,-20L5,-18L6,-16L7,-13L7,-8L6,-5L5,-3L3,-1L0,0L-7,0" stroke-width="0.10" fill="none" stroke="#000000"/>
    <path d="M-6.50,-21L-6.50,0M-6.50,-21L6.50,-21M-6.50,-11L1.50,-11M-6.50,0L6.50,0" stroke-width="0.10" fill="none" stroke="#000000"/>
    <path d="M-6.50,-21L-6.50,0M-6.50,-21L6.50,-21M-6.50,-11L1.50,-11" stroke-width="0.10" fill="none" stroke="#000000"/>
    <path d="M7.50,-16L6.50,-18L4.50,-20L2.50,-21L-1.50,-21L-3.50,-20L-5.50,-18L-6.50,-16L-7.50,-13L-7.50,-8L-6.50,-5L-5.50,-3L-3.50,-1L-1.50,0L2.50,0L4.50,-1L6.50,-3L7.50,-5L7.50,-8M2.50,-8L7.50,-8" stroke-width="0.10" fill="none" stroke="#000000"/>
    <path d="M-7,-21L-7,0M7,-21L7,0M-7,-11L7,-11" stroke-width="0.10" fill="none" stroke="#000000"/>
    <path d="M0,-21L0,0" stroke-width="0.10" fill="none" stroke="#000000"/>
    <path d="M5,-21L5,-5L4,-2L3,-1L1,0L-1,0L-3,-1L-4,-2L-5,-5L-5,-7" stroke-width="0.10" fill="none" stroke="#000000"/>
    <path d="M-7,-21L-7,0M7,-21L-7,-7M-2,-12L7,0" stroke-width="0.10" fill="none" stroke="#000000"/>
    <path d="M-6,-21L-6,0M-6,0L6,0" stroke-width="0.10" fill="none" stroke="#000000"/>
    <path d="M-8,-21L-8,0M-8,-21L0,0M8,-21L0,0M8,-21L8,0" stroke-width="0.10" fill="none" stroke="#000000"/>
    <path d="M-7,-21L-7,0M-7,-21L7,0M7,-21L7,0" stroke-width="0.10" fill="none" stroke="#000000"/>
    <path d="M-2,-21L-4,-20L-6,-18L-7,-16L-8,-13L-8,-8L-7,-5L-6,-3L-4,-1L-2,0L2,0L4,-1L6,-3L7,-5L8,-8L8,-13L7,-16L6,-18L4,-20L2,-21L-2,-21" stroke-width="0.10" fill="none" stroke="#000000"/>
    <path d="M-7,-21L-7,0M-7,-21L2,-21L5,-20L6,-19L7,-17L7,-14L6,-12L5,-11L2,-10L-7,-10" stroke-width="0.10" fill="none" stroke="#000000"/>
    <path d="M-2,-21L-4,-20L-6,-18L-7,-16L-8,-13L-8,-8L-7,-5L-6,-3L-4,-1L-2,0L2,0L4,-1L6,-3L7,-5L8,-8L8,-13L7,-16L6,-18L4,-20L2,-21L-2,-21M1,-4L7,2" stroke-width="0.10" fill="none" stroke="#000000"/>
    <path d="M-7,-21L-7,0M-7,-21L2,-21L5,-20L6,-19L7,-17L7,-15L6,-13L5,-12L2,-11L-7,-11M0,-11L7,0" stroke-width="0.10" fill="none" stroke="#000000"/>
    <path d="M7,-18L5,-20L2,-21L-2,-21L-5,-20L-7,-18L-7,-16L-6,-14L-5,-13L-3,-12L3,-10L5,-9L6,-8L7,-6L7,-3L5,-1L2,0L-2,0L-5,-1L-7,-3" stroke-width="0.10" fill="none" stroke="#000000"/>
    <path d="M0,-21L0,0M-7,-21L7,-21" stroke-width="0.10" fill="none" stroke="#000000"/>
    <path d="M-7,-21L-7,-6L-6,-3L-4,-1L-1,0L1,0L4,-1L6,-3L7,-6L7,-21" stroke-width="0.10" fill="none" stroke="#000000"/>
    <path d="M-8,-21L0,0M8,-21L0,0" stroke-width="0.10" fill="none" stroke="#000000"/>
    <path d="M-10,-21L-5,0M0,-21L-5,0M0,-21L5,0M10,-21L5,0" stroke-width="0.10" fill="none" stroke="#000000"/>
    <path d="M-7,-21L7,0M7,-21L-7,0" stroke-width="0.10" fill="none" stroke="#000000"/>
    <path d="M-8,-21L0,-11L0,0M8,-21L0,-11" stroke-width="0.10" fill="none" stroke="#000000"/>
    <path d="M7,-21L-7,0M-7,-21L7,-21M-7,0L7,0" stroke-width="0.10" fill="none" stroke="#000000"/>
    <path d="M-3.50,-25L-3.50,7M-2.50,-25L-2.50,7M-3.50,-25L3.50,-25M-3.50,7L3.50,7" stroke-width="0.10" fill="none" stroke="#000000"/>
    <path d="M-7,-21L7,3" stroke-width="0.10" fill="none" stroke="#000000"/>
    <path d="M2.50,-25L2.50,7M3.50,-25L3.50,7M-3.50,-25L3.50,-25M-3.50,7L3.50,7" stroke-width="0.10" fill="none" stroke="#000000"/>
    <path d="M-2,-15L0,-18L2,-15M-5,-12L0,-17L5,-12M0,-17L0,0" stroke-width="0.10" fill="none" stroke="#000000"/>
    <path d="M-8,2L8,2" stroke-width="0.10" fill="none" stroke="#000000"/>
    <path d="M1,-21L0,-20L-1,-18L-1,-16L0,-15L1,-16L0,-17" stroke-width="0.10" fill="none" stroke="#000000"/>
    <path d="M6,-14L6,0M6,-11L4,-13L2,-14L-1,-14L-3,-13L-5,-11L-6,-8L-6,-6L-5,-3L-3,-1L-1,0L2,0L4,-1L6,-3" stroke-width="0.10" fill="none" stroke="#000000"/>
    <path d="M-6,-21L-6,0M-6,-11L-4,-13L-2,-14L1,-14L3,-13L5,-11L6,-8L6,-6L5,-3L3,-1L1,0L-2,0L-4,-1L-6,-3" stroke-width="0.10" fill="none" stroke="#000000"/>
    <path d="M6,-11L4,-13L2,-14L-1,-14L-3,-13L-5,-11L-6,-8L-6,-6L-5,-3L-3,-1L-1,0L2,0L4,-1L6,-3" stroke-width="0.10" fill="none" stroke="#000000"/>
    <path d="M6,-21L6,0M6,-11L4,-13L2,-14L-1,-14L-3,-13L-5,-11L-6,-8L-6,-6L-5,-3L-3,-1L-1,0L2,0L4,-1L6,-3" stroke-width="0.10" fill="none" stroke="#000000"/>
    <path d="M-6,-8L6,-8L6,-10L5,-12L4,-13L2,-14L-1,-14L-3,-13L-5,-11L-6,-8L-6,-6L-5,-3L-3,-1L-1,0L2,0L4,-1L6,-3" stroke-width="0.10" fill="none" stroke="#000000"/>
    <path d="M4,-21L2,-21L0,-20L-1,-17L-1,0M-4,-14L3,-14" stroke-width="0.10" fill="none" stroke="#000000"/>
    <path d="M6,-14L6,2L5,5L4,6L2,7L-1,7L-3,6M6,-11L4,-13L2,-14L-1,-14L-3,-13L-5,-11L-6,-8L-6,-6L-5,-3L-3,-1L-1,0L2,0L4,-1L6,-3" stroke-width="0.10" fill="none" stroke="#000000"/>
    <path d="M-5.50,-21L-5.50,0M-5.50,-10L-2.50,-13L-0.50,-14L2.50,-14L4.50,-13L5.50,-10L5.50,0" stroke-width="0.10" fill="none" stroke="#000000"/>
    <path d="M-1,-21L0,-20L1,-21L0,-22L-1,-21M0,-14L0,0" stroke-width="0.10" fill="none" stroke="#000000"/>
    <path d="M1,-21L2,-20L3,-21L2,-22L1,-21M2,-14L2,3L1,6L-1,7L-3,7" stroke-width="0.10" fill="none" stroke="#000000"/>
    <path d="M-5.50,-21L-5.50,0M4.50,-14L-5.50,-4M-1.50,-8L5.50,0" stroke-width="0.10" fill="none" stroke="#000000"/>
    <path d="M0,-21L0,0" stroke-width="0.10" fill="none" stroke="#000000"/>
    <path d="M-11,-14L-11,0M-11,-10L-8,-13L-6,-14L-3,-14L-1,-13L0,-10L0,0M0,-10L3,-13L5,-14L8,-14L10,-13L11,-10L11,0" stroke-width="0.10" fill="none" stroke="#000000"/>
    <path d="M-5.50,-14L-5.50,0M-5.50,-10L-2.50,-13L-0.50,-14L2.50,-14L4.50,-13L5.50,-10L5.50,0" stroke-width="0.10" fill="none" stroke="#000000"/>
    <path d="M-1.50,-14L-3.50,-13L-5.50,-11L-6.50,-8L-6.50,-6L-5.50,-3L-3.50,-1L-1.50,0L1.50,0L3.50,-1L5.50,-3L6.50,-6L6.50,-8L5.50,-11L3.50,-13L1.50,-14L-1.50,-14" stroke-width="0.10" fill="none" stroke="#000000"/>
    <path d="M-6,-14L-6,7M-6,-11L-4,-13L-2,-14L1,-14L3,-13L5,-11L6,-8L6,-6L5,-3L3,-1L1,0L-2,0L-4,-1L-6,-3" stroke-width="0.10" fill="none" stroke="#000000"/>
    <path d="M6,-14L6,7M6,-11L4,-13L2,-14L-1,-14L-3,-13L-5,-11L-6,-8L-6,-6L-5,-3L-3,-1L-1,0L2,0L4,-1L6,-3" stroke-width="0.10" fill="none" stroke="#000000"/>
    <path d="M-4,-14L-4,0M-4,-8L-3,-11L-1,-13L1,-14L4,-14" stroke-width="0.10" fill="none" stroke="#000000"/>
    <path d="M5.50,-11L4.50,-13L1.50,-14L-1.50,-14L-4.50,-13L-5.50,-11L-4.50,-9L-2.50,-8L2.50,-7L4.50,-6L5.50,-4L5.50,-3L4.50,-1L1.50,0L-1.50,0L-4.50,-1L-5.50,-3" stroke-width="0.10" fill="none" stroke="#000000"/>
    <path d="M-1,-21L-1,-4L0,-1L2,0L4,0M-4,-14L3,-14" stroke-width="0.10" fill="none" stroke="#000000"/>
    <path d="M-5.50,-14L-5.50,-4L-4.50,-1L-2.50,0L0.50,0L2.50,-1L5.50,-4M5.50,-14L5.50,0" stroke-width="0.10" fill="none" stroke="#000000"/>
    <path d="M-6,-14L0,0M6,-14L0,0" stroke-width="0.10" fill="none" stroke="#000000"/>
    <path d="M-8,-14L-4,0M0,-14L-4,0M0,-14L4,0M8,-14L4,0" stroke-width="0.10" fill="none" stroke="#000000"/>
    <path d="M-5.50,-14L5.50,0M5.50,-14L-5.50,0" stroke-width="0.10" fill="none" stroke="#000000"/>
    <path d="M-5.50,-14L0.50,0M6.50,-14L0.50,0L-1.50,4L-3.50,6L-5.50,7L-6.50,7" stroke-width="0.10" fill="none" stroke="#000000"/>
    <path d="M5.50,-14L-5.50,0M-5.50,-14L5.50,-14M-5.50,0L5.50,0" stroke-width="0.10" fill="none" stroke="#000000"/>
    <path d="M2.50,-25L0.50,-24L-0.50,-23L-1.50,-21L-1.50,-19L-0.50,-17L0.50,-16L1.50,-14L1.50,-12L-0.50,-10M0.50,-24L-0.50,-22L-0.50,-20L0.50,-18L1.50,-17L2.50,-15L2.50,-13L1.50,-11L-2.50,-9L1.50,-7L2.50,-5L2.50,-3L1.50,-1L0.50,0L-0.50,2L-0.50,4L0.50,6M-0.50,-8L1.50,-6L1.50,-4L0.50,-2L-0.50,-1L-1.50,1L-1.50,3L-0.50,5L0.50,6L2.50,7" stroke-width="0.10" fill="none" stroke="#000000"/>
    <path d="M0,-25L0,7" stroke-width="0.10" fill="none" stroke="#000000"/>
    <path d="M-2.50,-25L-0.50,-24L0.50,-23L1.50,-21L1.50,-19L0.50,-17L-0.50,-16L-1.50,-14L-1.50,-12L0.50,-10M-0.50,-24L0.50,-22L0.50,-20L-0.50,-18L-1.50,-17L-2.50,-15L-2.50,-13L-1.50,-11L2.50,-9L-1.50,-7L-2.50,-5L-2.50,-3L-1.50,-1L-0.50,0L0.50,2L0.50,4L-0.50,6M0.50,-8L-1.50,-6L-1.50,-4L-0.50,-2L0.50,-1L1.50,1L1.50,3L0.50,5L-0.50,6L-2.50,7" stroke-width="0.10" fill="none" stroke="#000000"/>
    <path d="M-9,-6L-9,-8L-8,-11L-6,-12L-4,-12L-2,-11L2,-8L4,-7L6,-7L8,-8L9,-10M-9,-8L-8,-10L-6,-11L-4,-11L-2,-10L2,-7L4,-6L6,-6L8,-7L9,-10L9,-12" stroke-width="0.10" fill="none" stroke="#000000"/>
    <path d="M-1,-21L-3,-20L-4,-18L-4,-16L-3,-14L-1,-13L1,-13L3,-14L4,-16L4,-18L3,-20L1,-21L-1,-21" stroke-width="0.10" fill="none" stroke="#000000"/>
</svg>