<?xml version="1.0"?>
<svg xmlns="http://www.w3.org/2000/svg" width="1000" height="1000" viewBox="-500 -500 1000 1000">
    <path d="M2.64,-5.56L2.64,-19.66M2.64,-2.66L2.64,0.54" fill="none" stroke="rgba(0,0,0,0.47)"/>
    <path d="M-1.02,-13.56L1.18,-18.06L1.18,-19.66L-0.42,-19.66M4.08,-13.56L6.28,-18.06L6.28,-19.66L4.68,-19.66" fill="none" stroke="rgba(0,0,0,0.47)"/>
    <path d="M-4.48,-6.56L8.82,-6.56M-1.58,0.24L1.12,-19.36M4.02,0.24L6.72,-19.36M-3.58,-12.66L9.72,-12.66" fill="none" stroke="rgba(0,0,0,0.47)"/>
    <path d="M2.86,4.24L2.86,0.24M2.86,-19.36L2.86,-23.36M-2.84,-2.86C-2.04,-0.96 -0.04,0.24 2.66,0.24C6.06,0.24 8.16,-1.86 8.16,-4.46C8.16,-10.26 -2.44,-9.36 -2.44,-14.96C-2.44,-17.26 -0.64,-19.36 2.86,-19.36C5.36,-19.36 6.86,-18.26 7.56,-16.76" fill="none" stroke="rgba(0,0,0,0.47)"/>
    <path d="M-2.60,0.24L7.70,-19.36M-2.50,-19.36C-4.60,-19.36 -5.70,-17.16 -5.70,-14.46C-5.70,-11.66 -4.70,-9.56 -2.50,-9.56C-0.30,-9.56 0.70,-11.66 0.70,-14.46C0.70,-17.16 -0.30,-19.36 -2.50,-19.36M7.70,-9.56C5.60,-9.56 4.50,-7.36 4.50,-4.66C4.50,-1.86 5.50,0.24 7.70,0.24C9.90,0.24 10.90,-1.86 10.90,-4.66C10.90,-7.36 9.90,-9.56 7.70,-9.56" fill="none" stroke="rgba(0,0,0,0.47)"/>
    <path d="M9.94,0.24L0.94,-9.66C-0.06,-10.76 -2.76,-13.16 -2.76,-15.56C-2.76,-17.56 -0.96,-19.36 1.54,-19.36C4.04,-19.36 5.64,-17.46 5.64,-15.46C5.64,-10.16 -4.46,-10.46 -4.46,-4.56C-4.46,-1.76 -2.26,0.14 1.04,0.14C6.34,0.14 9.64,-4.96 9.64,-10.26" fill="none" stroke="rgba(0,0,0,0.47)"/>
    <path d="M1.48,-13.56L3.68,-18.06L3.68,-19.66L2.08,-19.66" fill="none" stroke="rgba(0,0,0,0.47)"/>
    <path d="M4.52,2.64C2.52,-0.66 0.82,-4.66 0.82,-9.56C0.82,-14.36 2.12,-18.16 4.52,-21.76" fill="none" stroke="rgba(0,0,0,0.47)"/>
    <path d="M0.76,-21.76C3.26,-18.16 4.46,-14.36 4.46,-9.56C4.46,-4.76 2.76,-0.66 0.76,2.64" fill="none" stroke="rgba(0,0,0,0.47)"/>
    <path d="M5.40,-5.26L2.60,-9.16L-0.20,-5.26M-1.90,-10.46L2.60,-9.16L7.10,-10.46M2.60,-9.16L2.60,-13.76" fill="none" stroke="rgba(0,0,0,0.47)"/>
    <path d="M2.64,-2.86L2.64,-16.26M-4.06,-9.66L9.34,-9.66" fill="none" stroke="rgba(0,0,0,0.47)"/>
    <path d="M1.48,3.44L3.68,-1.06L3.68,-2.66L2.08,-2.66" fill="none" stroke="rgba(0,0,0,0.47)"/>
    <path d="M-0.48,2.44L5.72,2.44" fill="none" stroke="rgba(0,0,0,0.47)"/>
    <path d="M2.66,-3.16L2.66,0.04" fill="none" stroke="rgba(0,0,0,0.47)"/>
    <path d="M-1.80,0.54L7,-19.66" fill="none" stroke="rgba(0,0,0,0.47)"/>
    <path d="M2.64,-19.36C-1.66,-19.36 -3.66,-14.96 -3.66,-9.46C-3.66,-3.96 -1.56,0.24 2.74,0.24C7.04,0.24 9.14,-3.96 9.14,-9.46C9.04,-14.96 6.94,-19.36 2.64,-19.36" fill="none" stroke="rgba(0,0,0,0.47)"/>
    <path d="M5.78,0.14L5.78,-19.16L5.68,-19.16L-0.52,-14.86" fill="none" stroke="rgba(0,0,0,0.47)"/>
    <path d="M8.42,0.24L-3.08,0.24L-3.08,0.14L3.32,-6.96C5.52,-9.36 7.72,-11.66 7.72,-14.76C7.72,-17.86 5.42,-19.36 2.92,-19.36C0.42,-19.36 -1.68,-17.86 -2.58,-15.36" fill="none" stroke="rgba(0,0,0,0.47)"/>
    <path d="M-2.84,-3.36C-2.34,-1.26 -0.24,0.24 2.56,0.24C5.96,0.24 8.16,-1.86 8.16,-4.86C8.16,-7.46 6.56,-10.16 2.16,-10.16L1.26,-10.16M2.16,-10.16C6.06,-10.16 7.86,-12.36 7.86,-14.96C7.86,-17.36 6.26,-19.36 2.86,-19.36C0.06,-19.36 -1.54,-17.96 -2.44,-16.46" fill="none" stroke="rgba(0,0,0,0.47)"/>
    <path d="M5.50,0.14L5.50,-19.16L5.20,-19.16L-3.70,-4.56L-3.70,-4.46L9.10,-4.46" fill="none" stroke="rgba(0,0,0,0.47)"/>
    <path d="M-2.76,-3.92C-1.86,-1.32 0.04,0.08 2.44,0.08C5.54,0.08 7.94,-2.32 7.94,-5.92C7.94,-9.32 5.84,-11.92 2.34,-11.92C1.04,-11.92 -0.66,-11.52 -1.86,-10.82L-1.56,-19.32L7.44,-19.32" fill="none" stroke="rgba(0,0,0,0.47)"/>
    <path d="M4.58,-19.32L-0.02,-13.22C-2.42,-10.12 -3.22,-7.92 -3.22,-5.62C-3.22,-2.72 -1.62,0.28 2.58,0.28C6.28,0.28 8.38,-2.12 8.38,-5.42C8.38,-9.02 5.78,-11.22 2.78,-11.22C0.78,-11.22 -1.42,-10.22 -2.82,-8.22" fill="none" stroke="rgba(0,0,0,0.47)"/>
    <path d="M-0.68,0.08L8.52,-19.12L8.52,-19.22L-3.18,-19.22" fill="none" stroke="rgba(0,0,0,0.47)"/>
    <path d="M2.56,-19.32C5.46,-19.32 7.36,-17.52 7.36,-15.22C7.36,-9.92 -2.94,-10.42 -2.94,-4.42C-2.94,-1.42 -0.34,0.28 2.46,0.28C5.26,0.28 7.96,-1.32 7.96,-4.42C7.96,-10.32 -2.34,-9.82 -2.34,-15.22C-2.14,-17.32 -0.64,-19.32 2.56,-19.32" fill="none" stroke="rgba(0,0,0,0.47)"/>
    <path d="M0.70,0.28L5.30,-5.82C7.70,-8.92 8.50,-11.12 8.50,-13.42C8.50,-16.32 6.90,-19.32 2.70,-19.32C-1,-19.32 -3.10,-16.92 -3.10,-13.62C-3.10,-10.02 -0.50,-7.82 2.50,-7.82C4.50,-7.82 6.70,-8.82 8.10,-10.82" fill="none" stroke="rgba(0,0,0,0.47)"/>
    <path d="M2.64,-3.62L2.64,-0.42M2.64,-16.72L2.64,-13.52" fill="none" stroke="rgba(0,0,0,0.47)"/>
    <path d="M3.38,-16.42L3.38,-13.22M1.48,3.38L3.68,-1.12L3.68,-2.72L2.08,-2.72" fill="none" stroke="rgba(0,0,0,0.47)"/>
    <path d="M9.12,-16.32L-3.88,-9.62L-3.88,-9.52L9.12,-2.82" fill="none" stroke="rgba(0,0,0,0.47)"/>
    <path d="M7.76,-6.72L-2.44,-6.72M7.76,-12.42L-2.44,-12.42" fill="none" stroke="rgba(0,0,0,0.47)"/>
    <path d="M-3.90,-2.72L9.10,-9.42L9.10,-9.52L-3.90,-16.22" fill="none" stroke="rgba(0,0,0,0.47)"/>
    <path d="M2.64,-5.52L2.64,-7.02C2.64,-8.52 3.14,-9.42 4.84,-10.92C6.04,-11.92 7.14,-13.42 7.14,-15.42C7.14,-17.82 5.54,-19.62 2.74,-19.62C0.84,-19.62 -1.16,-18.72 -1.86,-16.62M2.64,-2.62L2.64,0.58" fill="none" stroke="rgba(0,0,0,0.47)"/>
    <path d="M5.68,-6.62C4.58,-5.22 3.28,-4.02 1.48,-4.02C-0.42,-4.02 -1.32,-5.32 -1.32,-6.92C-1.32,-9.12 0.48,-10.22 4.38,-10.22L5.58,-10.22M-0.72,-12.82C-0.02,-14.32 0.98,-15.12 2.58,-15.12C4.98,-15.12 5.78,-13.52 5.78,-11.62L5.78,-6.52C5.78,-5.52 6.28,-4.12 7.98,-4.12C10.38,-4.12 12.38,-6.72 12.38,-10.62C12.38,-16.02 8.38,-19.92 3.18,-19.92C-2.32,-19.92 -6.92,-15.92 -6.92,-9.52C-6.92,-3.32 -2.72,0.78 3.48,0.78C5.58,0.78 7.18,0.28 8.58,-0.52" fill="none" stroke="rgba(0,0,0,0.47)"/>
    <path d="M-2.68,-5.92L7.92,-5.92M10.32,0.18L2.72,-19.22L2.62,-19.22L-5.08,0.18" fill="none" stroke="rgba(0,0,0,0.47)"/>
    <path d="M-3.04,-0.02L1.66,-0.02C6.66,-0.02 8.36,-2.22 8.36,-5.02C8.36,-8.02 6.46,-10.02 1.86,-10.02L-3.04,-10.02M2.46,-10.02C5.26,-10.02 7.76,-11.42 7.76,-14.62C7.76,-16.82 6.56,-19.12 1.66,-19.12L-2.94,-19.12L-2.94,-0.12" fill="none" stroke="rgba(0,0,0,0.47)"/>
    <path d="M9.20,-15.22C8.10,-17.92 6.10,-19.32 3.20,-19.32C-1.70,-19.32 -4.40,-15.42 -4.40,-9.52C-4.40,-3.02 -1.10,0.28 3.20,0.28C6.60,0.28 8.80,-1.72 9.60,-4.12" fill="none" stroke="rgba(0,0,0,0.47)"/>
    <path d="M-4.06,-0.02L-4.06,-19.02M-4.06,-0.02L-0.56,-0.02C4.64,-0.02 9.44,-2.72 9.44,-9.52C9.44,-15.42 5.84,-19.02 0.24,-19.02L-3.96,-19.02" fill="none" stroke="rgba(0,0,0,0.47)"/>
    <path d="M7.88,-0.02L-2.52,-0.02L-2.52,-19.02L7.88,-19.02M-2.52,-10.02L7.38,-10.02" fill="none" stroke="rgba(0,0,0,0.47)"/>
    <path d="M-2.28,0.08L-2.28,-19.22L7.52,-19.22M-2.28,-9.92L7.02,-9.92" fill="none" stroke="rgba(0,0,0,0.47)"/>
    <path d="M9.46,-15.22C8.36,-17.92 6.36,-19.32 3.46,-19.32C-1.24,-19.32 -4.14,-15.72 -4.14,-9.52C-4.14,-4.12 -2.04,0.28 3.56,0.28C5.86,0.28 7.76,-0.42 9.26,-1.32L9.26,-9.32L4.16,-9.32" fill="none" stroke="rgba(0,0,0,0.47)"/>
    <path d="M-3.50,0.28L-3.50,-19.32M-3.50,-10.32L8.80,-10.32M8.80,0.28L8.80,-19.32" fill="none" stroke="rgba(0,0,0,0.47)"/>
    <path d="M2.64,0.22L2.64,-19.38" fill="none" stroke="rgba(0,0,0,0.47)"/>
    <path d="M0.08,-0.58C0.78,0.02 1.58,0.22 2.28,0.22C3.88,0.22 5.28,-0.78 5.28,-3.78L5.28,-19.38" fill="none" stroke="rgba(0,0,0,0.47)"/>
    <path d="M-2.98,0.22L-2.98,-19.38M8.22,0.22L-1.48,-10.08L7.52,-19.28" fill="none" stroke="rgba(0,0,0,0.47)"/>
    <path d="M7.26,0.12L-1.94,0.12L-1.94,-19.18" fill="none" stroke="rgba(0,0,0,0.47)"/>
    <path d="M11,0.12L11,-19.28L10.90,-19.28L2.70,-0.68L2.60,-0.68L-5.60,-19.28L-5.70,-19.28L-5.70,0.12" fill="none" stroke="rgba(0,0,0,0.47)"/>
    <path d="M-3.96,0.22L-3.96,-19.18L-3.86,-19.18L9.14,0.12L9.24,0.12L9.24,-19.28" fill="none" stroke="rgba(0,0,0,0.47)"/>
    <path d="M2.58,-19.38C-2.82,-19.38 -4.92,-14.18 -4.92,-9.58C-4.92,-5.68 -3.42,0.22 2.68,0.22C8.78,0.22 10.28,-5.78 10.28,-9.58C10.18,-14.18 8.08,-19.38 2.58,-19.38" fill="none" stroke="rgba(0,0,0,0.47)"/>
    <path d="M-2.88,0.12L-2.88,-19.18M-2.88,-8.98L2.12,-8.98C6.12,-8.98 8.22,-10.78 8.22,-13.98C8.22,-17.08 6.32,-19.18 2.22,-19.18L-2.88,-19.18" fill="none" stroke="rgba(0,0,0,0.47)"/>
    <path d="M9.56,4.22L4.66,0.02M2.56,-19.38C-2.84,-19.38 -4.94,-14.18 -4.94,-9.58C-4.94,-5.68 -3.44,0.22 2.66,0.22C8.76,0.22 10.26,-5.78 10.26,-9.58C10.26,-14.18 8.06,-19.38 2.56,-19.38" fill="none" stroke="rgba(0,0,0,0.47)"/>
    <path d="M-2.80,0.12L-2.80,-19.18M8.10,0.12L3,-9.78M-2.80,-9.78L2.50,-9.78C5.30,-9.78 7.70,-11.48 7.70,-14.48C7.70,-16.98 6,-19.18 2.10,-19.18L-2.90,-19.18" fill="none" stroke="rgba(0,0,0,0.47)"/>
    <path d="M-2.86,-2.88C-2.06,-0.98 -0.06,0.22 2.64,0.22C6.04,0.22 8.14,-1.88 8.14,-4.48C8.14,-10.28 -2.46,-9.38 -2.46,-14.98C-2.46,-17.28 -0.66,-19.38 2.84,-19.38C5.34,-19.38 6.84,-18.28 7.54,-16.78" fill="none" stroke="rgba(0,0,0,0.47)"/>
    <path d="M2.68,0.12L2.68,-19.18M-3.72,-19.18L8.98,-19.18" fill="none" stroke="rgba(0,0,0,0.47)"/>
    <path d="M-3.58,-19.38L-3.58,-6.78C-3.58,-2.18 -1.08,0.32 2.62,0.32C6.52,0.32 8.82,-2.18 8.82,-6.78L8.82,-19.28" fill="none" stroke="rgba(0,0,0,0.47)"/>
    <path d="M-4.54,-19.28L2.66,0.12L2.76,0.12L9.86,-19.28" fill="none" stroke="rgba(0,0,0,0.47)"/>
    <path d="M-8.20,-19.28L-3.20,0.12L-3.10,0.12L2.40,-19.08L2.60,-19.08L8.10,0.12L8.20,0.12L13.40,-19.28" fill="none" stroke="rgba(0,0,0,0.47)"/>
    <path d="M-4.06,0.22L8.74,-19.38M9.34,0.22L-3.46,-19.38" fill="none" stroke="rgba(0,0,0,0.47)"/>
    <path d="M2.58,0.22L2.58,-8.28M-4.22,-19.38L2.58,-8.28L9.48,-19.38" fill="none" stroke="rgba(0,0,0,0.47)"/>
    <path d="M8.42,-0.08L-3.08,-0.08L-3.08,-0.18L8.02,-18.98L8.02,-19.08L-3.08,-19.08" fill="none" stroke="rgba(0,0,0,0.47)"/>
    <path d="M4.46,2.62L0.86,2.62L0.86,-21.78L4.46,-21.78" fill="none" stroke="rgba(0,0,0,0.47)"/>
    <path d="M-1.80,-19.68L7,0.52" fill="none" stroke="rgba(0,0,0,0.47)"/>
    <path d="M0.84,-21.74L4.44,-21.74L4.44,2.66L0.84,2.66" fill="none" stroke="rgba(0,0,0,0.47)"/>
    <path d="M7.18,-11.94L2.68,-21.14L2.58,-21.14L-1.92,-11.94" fill="none" stroke="rgba(0,0,0,0.47)"/>
    <path d="M8.22,-9.54L-2.98,-9.54" fill="none" stroke="rgba(0,0,0,0.47)"/>
    <path d="M0.66,-20.44L4.56,-16.64" fill="none" stroke="rgba(0,0,0,0.47)"/>
    <path d="M7.60,-8.94L5.80,-8.94C0,-8.94 -2.40,-7.44 -2.40,-4.14C-2.40,-2.04 -1.10,-0.04 1.60,-0.04C4.10,-0.04 6,-1.64 7.60,-3.74M7.70,-0.04C7.60,-1.14 7.60,-2.84 7.60,-4.04L7.60,-10.94C7.60,-13.74 6.50,-16.04 3.10,-16.04C0.70,-16.04 -0.80,-14.94 -1.70,-12.74" fill="none" stroke="rgba(0,0,0,0.47)"/>
    <path d="M-2.86,-21.74L-2.86,-0.24M-2.86,-4.24C-1.66,-1.84 0.24,-0.34 2.74,-0.34C6.64,-0.34 8.24,-4.14 8.24,-8.34C8.24,-13.14 6.34,-16.24 2.84,-16.24C0.74,-16.24 -1.16,-15.14 -2.76,-12.34" fill="none" stroke="rgba(0,0,0,0.47)"/>
    <path d="M7.78,-13.04C7.18,-14.64 5.68,-16.04 3.28,-16.04C-0.32,-16.04 -2.42,-12.74 -2.42,-7.84C-2.42,-3.14 -0.42,-0.04 3.38,-0.04C5.58,-0.04 6.88,-1.14 7.88,-2.84" fill="none" stroke="rgba(0,0,0,0.47)"/>
    <path d="M8.12,-21.74L8.12,-0.24M8.12,-12.44C6.52,-15.24 4.62,-16.34 2.52,-16.34C-0.98,-16.34 -2.88,-13.24 -2.88,-8.44C-2.88,-4.24 -1.28,-0.44 2.62,-0.44C5.02,-0.44 6.92,-1.94 8.22,-4.34" fill="none" stroke="rgba(0,0,0,0.47)"/>
    <path d="M-2.84,-8.84L8.16,-8.84C8.16,-12.04 7.06,-16.04 2.96,-16.04C-0.64,-16.04 -2.94,-13.04 -2.94,-7.94C-2.94,-3.34 -1.14,-0.04 3.06,-0.04C5.76,-0.04 7.26,-1.54 7.96,-3.24" fill="none" stroke="rgba(0,0,0,0.47)"/>
    <path d="M1.50,-0.34L1.50,-18.14C1.50,-20.34 2.60,-21.74 4.60,-21.74C5.40,-21.74 6.10,-21.54 6.60,-21.14M-1.40,-14.74L5.70,-14.74" fill="none" stroke="rgba(0,0,0,0.47)"/>
    <path d="M8.14,-11.94C6.54,-14.74 4.64,-15.84 2.54,-15.84C-0.96,-15.84 -2.96,-12.74 -2.96,-8.14C-2.96,-4.04 -1.36,-0.44 2.54,-0.44C4.94,-0.44 6.84,-1.84 8.14,-4.14M-1.86,3.26C-0.86,4.86 0.74,5.66 2.94,5.66C6.24,5.66 8.14,3.86 8.14,0.26L8.14,-15.74" fill="none" stroke="rgba(0,0,0,0.47)"/>
    <path d="M-2.12,-21.74L-2.12,-0.24M7.48,-0.34L7.48,-12.34C7.48,-14.84 6.28,-16.34 4.08,-16.34C1.48,-16.34 -0.42,-14.34 -2.12,-12.34" fill="none" stroke="rgba(0,0,0,0.47)"/>
    <path d="M2.62,0.26L2.62,-15.74M2.62,-19.24L2.62,-22.34" fill="none" stroke="rgba(0,0,0,0.47)"/>
    <path d="M4.86,-19.04L4.86,-22.14M0.36,5.26C0.76,5.66 1.46,5.96 2.46,5.96C4.26,5.96 4.96,4.86 4.96,2.86L4.96,-15.54" fill="none" stroke="rgba(0,0,0,0.47)"/>
    <path d="M-2.20,-21.74L-2.20,-0.24M7.50,-0.34L-0.50,-9.04L6.90,-16.34" fill="none" stroke="rgba(0,0,0,0.47)"/>
    <path d="M4.34,-0.44C4.14,-0.34 3.84,-0.34 3.44,-0.34C1.84,-0.34 0.94,-1.34 0.94,-3.44L0.94,-21.84" fill="none" stroke="rgba(0,0,0,0.47)"/>
    <path d="M-6.92,-16.04L-6.92,-0.04M2.68,-0.04L2.68,-12.04C2.68,-14.54 1.48,-16.04 -0.72,-16.04C-3.32,-16.04 -5.22,-14.04 -6.92,-12.04M12.18,-0.04L12.18,-12.04C12.18,-14.54 10.98,-16.04 8.78,-16.04C6.18,-16.04 4.28,-14.04 2.58,-12.04" fill="none" stroke="rgba(0,0,0,0.47)"/>
    <path d="M-2.18,-16.04L-2.18,-0.04M7.42,-0.04L7.42,-12.04C7.42,-14.54 6.22,-16.04 4.02,-16.04C1.42,-16.04 -0.48,-14.04 -2.18,-12.04" fill="none" stroke="rgba(0,0,0,0.47)"/>
    <path d="M2.56,-16.04C-2.14,-16.04 -3.34,-11.14 -3.34,-7.94C-3.34,-4.04 -1.54,-0.04 2.56,-0.04C6.66,-0.04 8.46,-4.04 8.46,-7.94C8.56,-11.14 7.36,-16.04 2.56,-16.04" fill="none" stroke="rgba(0,0,0,0.47)"/>
    <path d="M-2.90,-15.74L-2.90,5.76M-2.90,-3.74C-1.70,-1.34 0.20,0.16 2.70,0.16C6.60,0.16 8.20,-3.64 8.20,-7.84C8.20,-12.64 6.30,-15.74 2.80,-15.74C0.70,-15.74 -1.20,-14.64 -2.80,-11.84" fill="none" stroke="rgba(0,0,0,0.47)"/>
    <path d="M8.14,-15.80L8.14,5.70M8.14,-11.90C6.54,-14.70 4.64,-15.80 2.54,-15.80C-0.96,-15.80 -2.86,-12.70 -2.86,-7.90C-2.86,-3.70 -1.26,0.10 2.64,0.10C5.04,0.10 6.94,-1.40 8.24,-3.80" fill="none" stroke="rgba(0,0,0,0.47)"/>
    <path d="M-0.22,-16L-0.22,0M-0.22,-12C1.78,-14.40 3.68,-16 5.48,-16" fill="none" stroke="rgba(0,0,0,0.47)"/>
    <path d="M-2.38,-3.50C-1.68,-1.40 0.32,-0.10 2.82,-0.10C5.12,-0.10 7.62,-1.30 7.62,-4C7.62,-9.30 -1.78,-7.50 -1.78,-12.50C-1.78,-15 0.62,-16.10 2.72,-16.10C4.72,-16.10 6.32,-15.10 7.02,-13.40" fill="none" stroke="rgba(0,0,0,0.47)"/>
    <path d="M6.66,-0.80C6.16,-0.30 5.36,0 4.36,0C2.56,0 1.56,-1 1.56,-3.40L1.56,-19M-1.34,-14.50L6.26,-14.50" fill="none" stroke="rgba(0,0,0,0.47)"/>
    <path d="M7.40,-4.10C6.20,-2.10 4.20,-0.10 1.60,-0.10C-0.60,-0.10 -2.10,-1.60 -2.10,-4.40L-2.10,-16.10M7.40,-16L7.40,0" fill="none" stroke="rgba(0,0,0,0.47)"/>
    <path d="M-3.36,-16L2.64,0L2.84,0L8.74,-16" fill="none" stroke="rgba(0,0,0,0.47)"/>
    <path d="M-7.12,-16L-2.32,0L-2.22,0L2.58,-15.70L2.68,-15.70L7.68,0L7.78,0L12.38,-16" fill="none" stroke="rgba(0,0,0,0.47)"/>
    <path d="M-3.08,-0.10L8.12,-16.10M8.42,-0.10L-2.38,-16.10" fill="none" stroke="rgba(0,0,0,0.47)"/>
    <path d="M2.66,0.70L-3.24,-15.70M-2.24,5.20C-1.74,5.50 -1.24,5.60 -0.74,5.60C0.86,5.60 1.76,4.10 2.76,0.60L8.56,-15.80" fill="none" stroke="rgba(0,0,0,0.47)"/>
    <path d="M7.80,-0.40L-2.60,-0.40L-2.60,-0.50L7.30,-15.70L7.30,-15.80L-2.50,-15.80" fill="none" stroke="rgba(0,0,0,0.47)"/>
    <path d="M5.94,2.50L5.04,2.50C3.44,2.50 2.34,1.80 2.44,-0.40L2.74,-5.20C2.94,-7.90 1.64,-8.40 -0.26,-8.40L-0.76,-8.40L-0.76,-10.80L-0.26,-10.80C1.64,-10.80 2.84,-11.30 2.74,-14.00L2.44,-18.80C2.34,-20.90 3.44,-21.70 5.04,-21.70L5.94,-21.70" fill="none" stroke="rgba(0,0,0,0.47)"/>
    <path d="M2.68,3.90L2.68,-23" fill="none" stroke="rgba(0,0,0,0.47)"/>
    <path d="M-0.68,-21.60L0.22,-21.60C1.82,-21.60 2.92,-20.90 2.82,-18.70L2.52,-13.90C2.32,-11.20 3.62,-10.70 5.52,-10.70L6.02,-10.70L6.02,-8.30L5.52,-8.30C3.62,-8.30 2.42,-7.80 2.52,-5.10L2.82,-0.30C2.92,1.80 1.82,2.60 0.22,2.60L-0.68,2.60" fill="none" stroke="rgba(0,0,0,0.47)"/>
    <path d="M-3.74,-8.50C-2.74,-10.10 -1.44,-10.60 -0.34,-10.60C1.86,-10.60 3.16,-8.50 5.66,-8.50C6.86,-8.50 8.06,-8.90 9.06,-10.50" fill="none" stroke="rgba(0,0,0,0.47)"/>
    <path d="M2.60,-13.60L2.60,0.50M2.60,-16.50L2.60,-19.70" fill="none" stroke="rgba(0,0,0,0.47)"/>
    <path d="M3.34,2.40L3.34,-1.60M3.34,-17.50L3.34,-21.50M7.74,-14.50C7.14,-16.10 5.64,-17.50 3.24,-17.50C-0.36,-17.50 -2.46,-14.20 -2.46,-9.30C-2.46,-4.60 -0.46,-1.50 3.34,-1.50C5.54,-1.50 6.84,-2.60 7.84,-4.30" fill="none" stroke="rgba(0,0,0,0.47)"/>
    <path d="M-3.02,0.20L8.28,0.20M-2.72,-9.80L5.08,-9.80M-0.02,0.20L-0.02,-14.50C-0.02,-17.40 1.58,-19.40 4.48,-19.40C6.28,-19.40 7.48,-18.70 8.18,-17.30" fill="none" stroke="rgba(0,0,0,0.47)"/>
    <path d="M-3.88,-3L-1.38,-5.50M-1.48,-13.60L-3.98,-16.10M9.22,-3L6.62,-5.50M2.62,-15.30C-0.58,-15.30 -3.08,-12.70 -3.08,-9.50C-3.08,-6.30 -0.48,-3.70 2.72,-3.70C5.92,-3.70 8.52,-6.30 8.52,-9.50C8.42,-12.80 5.82,-15.30 2.62,-15.30M6.72,-13.60L9.32,-16.10" fill="none" stroke="rgba(0,0,0,0.47)"/>
    <path d="M2.66,0.20L2.66,-8.80M-2.14,-4.50L7.46,-4.50M-2.14,-8.80L7.46,-8.80M-3.44,-19.30L2.66,-8.80L8.76,-19.30" fill="none" stroke="rgba(0,0,0,0.47)"/>
    <path d="M2.60,3.90L2.60,-5.30M2.60,-13.90L2.60,-23.10" fill="none" stroke="rgba(0,0,0,0.47)"/>
    <path d="M-2.16,-1.46C-1.56,0.34 0.24,2.04 2.84,2.04C5.34,2.04 7.34,0.34 7.34,-1.86C7.34,-6.66 -1.66,-5.86 -1.66,-10.06C-1.66,-11.86 0.14,-13.26 2.54,-13.76M4.04,-5.66C5.54,-6.26 7.44,-7.36 7.44,-9.36C7.44,-13.56 -1.36,-13.36 -1.36,-17.66C-1.36,-19.36 0.04,-21.16 2.94,-21.16C4.84,-21.16 6.24,-20.36 7.14,-18.76" fill="none" stroke="rgba(0,0,0,0.47)"/>
    <path d="M0.58,-7.66L0.58,-11.36L0.48,-11.36M4.68,-7.66L4.68,-11.36L4.58,-11.36" fill="none" stroke="rgba(0,0,0,0.47)"/>
    <path d="M2.62,-19.36C-2.78,-19.36 -6.98,-14.96 -6.98,-9.56C-6.98,-4.16 -2.68,0.24 2.72,0.24C8.12,0.24 12.42,-4.16 12.42,-9.56C12.32,-14.96 8.02,-19.36 2.62,-19.36M6.42,-12.76C5.72,-14.26 4.52,-15.06 2.72,-15.06C-0.38,-15.06 -1.98,-12.86 -1.98,-9.46C-1.98,-5.76 0.02,-3.86 2.72,-3.86C4.82,-3.86 6.22,-5.06 6.72,-6.36" fill="none" stroke="rgba(0,0,0,0.47)"/>
    <path d="M5.56,-10.06L4.56,-10.06C1.06,-10.06 -0.44,-9.16 -0.44,-7.16C-0.44,-5.86 0.26,-4.76 1.96,-4.76C3.46,-4.76 4.56,-5.76 5.56,-6.96M5.66,-4.76C5.56,-5.36 5.56,-6.46 5.56,-7.16L5.56,-11.26C5.56,-12.96 4.86,-14.36 2.86,-14.36C1.36,-14.36 0.56,-13.66 -0.04,-12.36" fill="none" stroke="rgba(0,0,0,0.47)"/>
    <path d="M8.10,-3.66L3.50,-9.36L3.50,-9.66L8.10,-15.36M1.80,-3.66L-2.80,-9.36L-2.80,-9.66L1.80,-15.36" fill="none" stroke="rgba(0,0,0,0.47)"/>
    <path d="M9.34,-6.36L9.34,-12.86L-4.06,-12.86" fill="none" stroke="rgba(0,0,0,0.47)"/>
    <path d="M-0.52,-9.56L5.68,-9.56" fill="none" stroke="rgba(0,0,0,0.47)"/>
    <path d="M2.62,-19.36C-2.78,-19.36 -7.08,-14.96 -7.08,-9.56C-7.08,-4.16 -2.78,0.24 2.62,0.24C8.02,0.24 12.32,-4.16 12.32,-9.56C12.32,-14.96 8.02,-19.36 2.62,-19.36M-0.18,-3.96L-0.18,-14.96M6.62,-3.96L3.52,-9.56M-0.18,-9.66L3.12,-9.66C4.82,-9.66 6.32,-10.66 6.32,-12.36C6.32,-13.76 5.22,-15.06 2.92,-15.06L-0.18,-15.06" fill="none" stroke="rgba(0,0,0,0.47)"/>
    <path d="M5.86,-9.56L-0.54,-9.56L-0.54,-9.56" fill="none" stroke="rgba(0,0,0,0.47)"/>
    <path d="M2.60,-12.86C0.80,-12.86 -0.70,-11.36 -0.70,-9.56C-0.70,-7.76 0.80,-6.26 2.60,-6.26C4.40,-6.26 5.90,-7.76 5.90,-9.56C5.90,-11.36 4.50,-12.86 2.60,-12.86" fill="none" stroke="rgba(0,0,0,0.47)"/>
    <path d="M-4.06,-1.96L9.34,-1.96M2.64,-6.36L2.64,-17.06M-4.06,-11.86L9.34,-11.86" fill="none" stroke="rgba(0,0,0,0.47)"/>
    <path d="M5.48,-4.66L-0.32,-4.66L-0.32,-4.76L2.88,-8.26C3.98,-9.46 5.08,-10.56 5.08,-12.16C5.08,-13.76 3.98,-14.46 2.68,-14.46C1.38,-14.46 0.38,-13.76 -0.02,-12.46" fill="none" stroke="rgba(0,0,0,0.47)"/>
    <path d="M-0.08,-6.46C0.22,-5.36 1.22,-4.66 2.62,-4.66C4.32,-4.66 5.42,-5.76 5.42,-7.16C5.42,-8.46 4.62,-9.76 2.42,-9.76L2.02,-9.76M2.42,-9.86C4.32,-9.86 5.22,-10.96 5.22,-12.26C5.22,-13.46 4.42,-14.46 2.72,-14.46C1.32,-14.46 0.52,-13.76 0.12,-12.96" fill="none" stroke="rgba(0,0,0,0.47)"/>
    <path d="M0.76,-7.76L4.46,-11.36" fill="none" stroke="rgba(0,0,0,0.47)"/>
    <path d="M-2.10,1.14L-2.10,-8.16M7.40,-8.26C6.20,-6.26 4.20,-4.26 1.60,-4.26C-0.60,-4.26 -2.10,-5.76 -2.10,-8.56L-2.10,-20.26M7.40,-20.26L7.40,-4.26" fill="none" stroke="rgba(0,0,0,0.47)"/>
    <path d="M8.14,1.84L8.14,-20.86L3.54,-20.86C-0.66,-20.86 -2.86,-18.66 -2.86,-15.46C-2.86,-11.96 -0.26,-9.76 3.14,-9.76M4.64,1.84L4.64,-19.56" fill="none" stroke="rgba(0,0,0,0.47)"/>
    <path d="M2.68,-11.16L2.68,-7.96" fill="none" stroke="rgba(0,0,0,0.47)"/>
    <path d="M0.52,-7.16C0.92,-6.96 1.42,-6.76 2.32,-6.76C3.82,-6.76 4.72,-7.46 4.72,-8.46C4.72,-9.56 3.82,-10.06 2.32,-10.06L1.62,-10.06L2.92,-12.26" fill="none" stroke="rgba(0,0,0,0.47)"/>
    <path d="M4.16,-4.76L4.16,-14.36L4.16,-14.36L1.06,-12.16" fill="none" stroke="rgba(0,0,0,0.47)"/>
    <path d="M2.60,-14.36C-0.20,-14.36 -0.90,-11.36 -0.90,-9.56C-0.90,-7.26 0.20,-4.76 2.70,-4.76C5.20,-4.76 6.20,-7.16 6.20,-9.56C6.20,-11.36 5.50,-14.36 2.60,-14.36" fill="none" stroke="rgba(0,0,0,0.47)"/>
    <path d="M-2.76,-15.42L1.84,-9.72L1.84,-9.42L-2.76,-3.72M3.54,-15.42L8.14,-9.72L8.14,-9.42L3.54,-3.72" fill="none" stroke="rgba(0,0,0,0.47)"/>
    <path d="M8.48,0.28L8.48,-9.32L8.38,-9.32L3.88,-2.02L3.88,-1.92L10.28,-1.92M-2.72,0.28L7.58,-19.32M-1.92,-9.52L-1.92,-19.12L-2.02,-19.12L-5.12,-16.92" fill="none" stroke="rgba(0,0,0,0.47)"/>
    <path d="M-3.08,0.28L7.22,-19.32M-2.18,-9.52L-2.18,-19.12L-2.28,-19.12L-5.38,-16.92M10.62,0.28L4.82,0.28L4.82,0.18L8.02,-3.32C9.12,-4.52 10.22,-5.62 10.22,-7.22C10.22,-8.82 9.12,-9.52 7.82,-9.52C6.52,-9.52 5.52,-8.82 5.12,-7.52" fill="none" stroke="rgba(0,0,0,0.47)"/>
    <path d="M8.86,0.28L8.86,-9.32L8.76,-9.32L4.26,-2.02L4.26,-1.92L10.66,-1.92M-2.34,0.28L7.96,-19.32M-5.34,-11.32C-5.04,-10.22 -4.04,-9.52 -2.64,-9.52C-0.94,-9.52 0.16,-10.62 0.16,-12.02C0.16,-13.32 -0.64,-14.62 -2.84,-14.62L-3.24,-14.62M-2.84,-14.72C-0.94,-14.72 -0.04,-15.82 -0.04,-17.12C-0.04,-18.32 -0.84,-19.32 -2.54,-19.32C-3.94,-19.32 -4.74,-18.62 -5.14,-17.82" fill="none" stroke="rgba(0,0,0,0.47)"/>
    <path d="M2.70,-13.62L2.70,-12.12C2.70,-10.62 2.20,-9.72 0.50,-8.22C-0.70,-7.22 -1.80,-5.72 -1.80,-3.72C-1.80,-1.32 -0.20,0.48 2.60,0.48C4.50,0.48 6.50,-0.42 7.20,-2.52M2.70,-16.42L2.70,-19.62" fill="none" stroke="rgba(0,0,0,0.47)"/>
    <path d="M-2.66,-2.52L7.94,-2.52M10.34,3.68L2.74,-15.72L2.64,-15.72L-5.06,3.68M0.74,-22.72L4.64,-18.92" fill="none" stroke="rgba(0,0,0,0.47)"/>
    <path d="M-2.62,-2.52L7.98,-2.52M10.38,3.58L2.78,-15.82L2.68,-15.82L-5.02,3.58M0.78,-18.92L4.68,-22.72" fill="none" stroke="rgba(0,0,0,0.47)"/>
    <path d="M-2.68,-2.72L7.92,-2.72M10.32,3.38L2.72,-16.02L2.62,-16.02L-5.08,3.38M5.92,-18.92L2.82,-22.52L2.72,-22.52L-0.38,-18.92" fill="none" stroke="rgba(0,0,0,0.47)"/>
    <path d="M-2.64,-3.32L7.96,-3.32M10.36,2.78L2.76,-16.62L2.66,-16.62L-5.04,2.78M-1.34,-20.52C-0.74,-21.62 0.06,-21.92 0.76,-21.92C2.16,-21.92 2.96,-20.52 4.46,-20.52C5.16,-20.52 5.96,-20.82 6.56,-21.92" fill="none" stroke="rgba(0,0,0,0.47)"/>
    <path d="M-2.60,-2.62L8,-2.62M10.40,3.58L2.80,-15.82L2.70,-15.82L-5,3.58M0.70,-19.02L0.70,-22.62M4.70,-19.02L4.70,-22.62" fill="none" stroke="rgba(0,0,0,0.47)"/>
    <path d="M-2.66,-2.52L7.94,-2.52M10.34,3.68L2.74,-15.72L2.64,-15.72L-5.06,3.68M2.64,-22.72C1.44,-22.72 0.54,-21.72 0.54,-20.62C0.54,-19.52 1.54,-18.52 2.64,-18.52C3.84,-18.52 4.74,-19.52 4.74,-20.62C4.74,-21.72 3.84,-22.72 2.64,-22.72" fill="none" stroke="rgba(0,0,0,0.47)"/>
    <path d="M-4.72,-6.02L4.08,-6.02M-8.62,0.08L3.78,-19.22L4.18,-19.22M13.88,-0.22L4.08,-0.22L4.08,-19.22L13.88,-19.22M4.08,-10.12L13.38,-10.12" fill="none" stroke="rgba(0,0,0,0.47)"/>
    <path d="M9.22,-18.02C8.12,-20.72 6.12,-22.12 3.22,-22.12C-1.68,-22.12 -4.38,-18.22 -4.38,-12.32C-4.38,-5.82 -1.08,-2.52 3.22,-2.52C6.62,-2.52 8.82,-4.52 9.62,-6.92M0.72,2.58C1.12,2.78 1.62,2.98 2.52,2.98C4.02,2.98 4.92,2.28 4.92,1.28C4.92,0.18 4.02,-0.32 2.52,-0.32L1.82,-0.32L3.12,-2.52" fill="none" stroke="rgba(0,0,0,0.47)"/>
    <path d="M7.86,3.48L-2.54,3.48L-2.54,-15.52L7.86,-15.52M-2.54,-6.52L7.36,-6.52M0.56,-22.62L4.46,-18.82" fill="none" stroke="rgba(0,0,0,0.47)"/>
    <path d="M7.80,3.48L-2.60,3.48L-2.60,-15.52L7.80,-15.52M-2.60,-6.52L7.30,-6.52M0.50,-18.72L4.40,-22.52" fill="none" stroke="rgba(0,0,0,0.47)"/>
    <path d="M7.84,3.28L-2.56,3.28L-2.56,-15.72L7.84,-15.72M-2.56,-6.72L7.34,-6.72M5.74,-18.72L2.64,-22.32L2.54,-22.32L-0.56,-18.72" fill="none" stroke="rgba(0,0,0,0.47)"/>
    <path d="M7.88,3.38L-2.52,3.38L-2.52,-15.62L7.88,-15.62M-2.52,-6.52L7.38,-6.52M0.48,-18.92L0.48,-22.52M4.58,-18.92L4.58,-22.52" fill="none" stroke="rgba(0,0,0,0.47)"/>
    <path d="M2.62,3.68L2.62,-15.92M0.72,-22.72L4.62,-18.92" fill="none" stroke="rgba(0,0,0,0.47)"/>
    <path d="M2.66,3.58L2.66,-16.02M0.66,-18.92L4.56,-22.72" fill="none" stroke="rgba(0,0,0,0.47)"/>
    <path d="M2.60,3.38L2.60,-16.22M5.80,-18.92L2.70,-22.52L2.60,-22.52L-0.50,-18.92" fill="none" stroke="rgba(0,0,0,0.47)"/>
    <path d="M2.64,3.52L2.64,-16.08M0.64,-19.08L0.64,-22.68M4.64,-19.08L4.64,-22.68" fill="none" stroke="rgba(0,0,0,0.47)"/>
    <path d="M-5.72,-10.08L4.08,-10.08M-2.42,-0.08L-2.42,-19.08M-2.42,-0.08L1.08,-0.08C6.28,-0.08 11.08,-2.78 11.08,-9.58C11.08,-15.48 7.48,-19.08 1.88,-19.08L-2.32,-19.08" fill="none" stroke="rgba(0,0,0,0.47)"/>
    <path d="M-3.98,2.82L-3.98,-16.58L-3.88,-16.58L9.12,2.72L9.22,2.72L9.22,-16.68M-1.38,-20.58C-0.78,-21.68 0.02,-21.98 0.72,-21.98C2.12,-21.98 2.92,-20.58 4.42,-20.58C5.12,-20.58 5.92,-20.88 6.52,-21.98" fill="none" stroke="rgba(0,0,0,0.47)"/>
    <path d="M2.56,-15.98C-2.84,-15.98 -4.94,-10.78 -4.94,-6.18C-4.94,-2.28 -3.44,3.62 2.66,3.62C8.76,3.62 10.26,-2.38 10.26,-6.18C10.26,-10.78 8.06,-15.98 2.56,-15.98M0.66,-22.78L4.56,-18.98" fill="none" stroke="rgba(0,0,0,0.47)"/>
    <path d="M2.60,-15.98C-2.80,-15.98 -4.90,-10.78 -4.90,-6.18C-4.90,-2.28 -3.40,3.62 2.70,3.62C8.80,3.62 10.30,-2.38 10.30,-6.18C10.20,-10.78 8.10,-15.98 2.60,-15.98M0.70,-18.88L4.60,-22.68" fill="none" stroke="rgba(0,0,0,0.47)"/>
    <path d="M2.64,-16.18C-2.76,-16.18 -4.86,-10.98 -4.86,-6.38C-4.86,-2.48 -3.36,3.42 2.74,3.42C8.84,3.42 10.34,-2.58 10.34,-6.38C10.24,-11.08 8.14,-16.18 2.64,-16.18M5.84,-18.88L2.74,-22.48L2.64,-22.48L-0.46,-18.88" fill="none" stroke="rgba(0,0,0,0.47)"/>
    <path d="M2.58,-16.78C-2.82,-16.78 -4.92,-11.58 -4.92,-6.98C-4.92,-3.08 -3.42,2.82 2.68,2.82C8.78,2.82 10.28,-3.18 10.28,-6.98C10.18,-11.58 8.08,-16.78 2.58,-16.78M-1.32,-20.58C-0.72,-21.68 0.08,-21.98 0.78,-21.98C2.18,-21.98 2.98,-20.58 4.48,-20.58C5.18,-20.58 5.98,-20.88 6.58,-21.98" fill="none" stroke="rgba(0,0,0,0.47)"/>
    <path d="M2.62,-16.08C-2.78,-16.08 -4.88,-10.88 -4.88,-6.28C-4.88,-2.38 -3.38,3.52 2.72,3.52C8.82,3.52 10.32,-2.48 10.32,-6.28C10.22,-10.88 8.12,-16.08 2.62,-16.08M0.62,-19.08L0.62,-22.68M4.72,-19.08L4.72,-22.68" fill="none" stroke="rgba(0,0,0,0.47)"/>
    <path d="M8.06,-3.78L-2.84,-15.28M-2.84,-3.78L8.06,-15.28" fill="none" stroke="rgba(0,0,0,0.47)"/>
    <path d="M-4.10,0.82L9.70,-19.88M2.60,-19.38C-2.80,-19.38 -4.90,-14.18 -4.90,-9.58C-4.90,-5.68 -3.40,0.22 2.70,0.22C8.80,0.22 10.30,-5.78 10.30,-9.58C10.20,-14.18 8.10,-19.38 2.60,-19.38" fill="none" stroke="rgba(0,0,0,0.47)"/>
    <path d="M-3.66,-15.98L-3.66,-3.48C-3.66,1.12 -1.16,3.62 2.54,3.62C6.44,3.62 8.74,1.12 8.74,-3.48L8.74,-15.98M0.64,-22.78L4.54,-18.98" fill="none" stroke="rgba(0,0,0,0.47)"/>
    <path d="M-3.62,-15.98L-3.62,-3.48C-3.62,1.12 -1.12,3.62 2.58,3.62C6.48,3.62 8.78,1.12 8.78,-3.48L8.78,-15.98M0.68,-18.88L4.58,-22.68" fill="none" stroke="rgba(0,0,0,0.47)"/>
    <path d="M-3.58,-16.18L-3.58,-3.68C-3.58,0.92 -1.08,3.42 2.62,3.42C6.52,3.42 8.82,0.92 8.82,-3.68L8.82,-16.18M5.82,-18.88L2.72,-22.48L2.62,-22.48L-0.48,-18.88" fill="none" stroke="rgba(0,0,0,0.47)"/>
    <path d="M-3.64,-16.08L-3.64,-3.58C-3.64,1.02 -1.14,3.52 2.56,3.52C6.46,3.52 8.76,1.02 8.76,-3.58L8.76,-16.08M0.56,-19.08L0.56,-22.68M4.66,-19.08L4.66,-22.68" fill="none" stroke="rgba(0,0,0,0.47)"/>
    <path d="M2.60,3.62L2.60,-4.88M-4.20,-15.98L2.60,-4.88L9.50,-15.98M0.80,-18.88L4.70,-22.68" fill="none" stroke="rgba(0,0,0,0.47)"/>
    <path d="M-2.86,0.22L-2.86,-19.38M-2.86,-4.88L1.84,-4.88C6.64,-4.88 8.24,-6.98 8.24,-9.78C8.24,-12.68 6.44,-14.58 2.34,-14.58L-2.86,-14.58" fill="none" stroke="rgba(0,0,0,0.47)"/>
    <path d="M0.48,0.52C1.18,0.92 2.08,1.22 3.08,1.22C6.08,1.22 7.88,-1.18 7.88,-4.38C7.88,-7.88 5.48,-10.48 1.88,-10.48M0.78,-10.48L1.98,-10.48C5.28,-10.48 6.78,-12.98 6.78,-15.58C6.78,-18.08 5.28,-20.28 2.18,-20.28C-0.92,-20.28 -2.72,-18.08 -2.72,-14.08L-2.72,1.12" fill="none" stroke="rgba(0,0,0,0.47)"/>
    <path d="M7.62,-7.08L5.82,-7.08C0.02,-7.08 -2.38,-5.58 -2.38,-2.28C-2.38,-0.18 -1.08,1.82 1.62,1.82C4.12,1.82 6.02,0.22 7.62,-1.88M7.72,1.82C7.62,0.72 7.62,-0.98 7.62,-2.18L7.62,-9.08C7.62,-11.88 6.52,-14.18 3.12,-14.18C0.72,-14.18 -0.78,-13.08 -1.68,-10.88M1.12,-20.98L5.02,-17.18" fill="none" stroke="rgba(0,0,0,0.47)"/>
    <path d="M7.56,-7.08L5.76,-7.08C-0.04,-7.08 -2.44,-5.58 -2.44,-2.28C-2.44,-0.18 -1.14,1.82 1.56,1.82C4.06,1.82 5.96,0.22 7.56,-1.88M7.66,1.82C7.56,0.72 7.56,-0.98 7.56,-2.18L7.56,-9.08C7.56,-11.88 6.46,-14.18 3.06,-14.18C0.66,-14.18 -0.84,-13.08 -1.74,-10.88M1.16,-17.08L5.06,-20.88" fill="none" stroke="rgba(0,0,0,0.47)"/>
    <path d="M7.60,-7.28L5.80,-7.28C0,-7.28 -2.40,-5.78 -2.40,-2.48C-2.40,-0.38 -1.10,1.62 1.60,1.62C4.10,1.62 6,0.02 7.60,-2.08M7.70,1.62C7.60,0.52 7.60,-1.18 7.60,-2.38L7.60,-9.28C7.60,-12.08 6.50,-14.38 3.10,-14.38C0.70,-14.38 -0.80,-13.28 -1.70,-11.08M6.30,-17.08L3.20,-20.68L3.10,-20.68L0,-17.08" fill="none" stroke="rgba(0,0,0,0.47)"/>
    <path d="M7.54,-7.84L5.74,-7.84C-0.06,-7.84 -2.46,-6.34 -2.46,-3.04C-2.46,-0.94 -1.16,1.06 1.54,1.06C4.04,1.06 5.94,-0.54 7.54,-2.64M7.74,1.06C7.64,-0.04 7.64,-1.74 7.64,-2.94L7.64,-9.84C7.64,-12.64 6.54,-14.94 3.14,-14.94C0.74,-14.94 -0.76,-13.84 -1.66,-11.64M-0.96,-18.74C-0.36,-19.84 0.44,-20.14 1.14,-20.14C2.54,-20.14 3.34,-18.74 4.84,-18.74C5.54,-18.74 6.34,-19.04 6.94,-20.14" fill="none" stroke="rgba(0,0,0,0.47)"/>
    <path d="M7.58,-7.14L5.78,-7.14C-0.02,-7.14 -2.42,-5.64 -2.42,-2.34C-2.42,-0.24 -1.12,1.76 1.58,1.76C4.08,1.76 5.98,0.16 7.58,-1.94M7.68,1.76C7.58,0.66 7.58,-1.04 7.58,-2.24L7.58,-9.14C7.58,-11.94 6.48,-14.24 3.08,-14.24C0.68,-14.24 -0.82,-13.14 -1.72,-10.94M1.08,-17.24L1.08,-20.84M5.08,-17.24L5.08,-20.84" fill="none" stroke="rgba(0,0,0,0.47)"/>
    <path d="M7.62,-7.04L5.82,-7.04C0.02,-7.04 -2.38,-5.54 -2.38,-2.24C-2.38,-0.14 -1.08,1.86 1.62,1.86C4.12,1.86 6.02,0.26 7.62,-1.84M7.72,1.86C7.62,0.76 7.62,-0.94 7.62,-2.14L7.62,-9.04C7.62,-11.84 6.52,-14.14 3.12,-14.14C0.72,-14.14 -0.78,-13.04 -1.68,-10.84M3.02,-20.94C1.82,-20.94 0.92,-19.94 0.92,-18.84C0.92,-17.74 1.92,-16.74 3.02,-16.74C4.22,-16.74 5.12,-17.74 5.12,-18.84C5.12,-19.94 4.22,-20.94 3.02,-20.94" fill="none" stroke="rgba(0,0,0,0.47)"/>
    <path d="M2.46,-5.54C0.66,-2.94 -1.24,-1.54 -3.74,-1.54C-6.54,-1.54 -7.84,-3.54 -7.84,-5.54C-7.84,-8.74 -5.64,-10.44 0.36,-10.44L2.16,-10.44L2.16,-12.44C2.16,-15.24 1.16,-17.54 -2.24,-17.54C-4.74,-17.54 -6.24,-16.44 -7.04,-14.24M2.16,-10.44L13.26,-10.44C13.26,-13.64 12.16,-17.64 8.06,-17.64C4.46,-17.64 2.16,-14.64 2.16,-9.54C2.16,-4.94 3.96,-1.64 8.16,-1.64C10.86,-1.64 12.36,-3.14 13.06,-4.84" fill="none" stroke="rgba(0,0,0,0.47)"/>
    <path d="M7.70,-17.24C7.10,-18.84 5.60,-20.24 3.20,-20.24C-0.40,-20.24 -2.50,-16.94 -2.50,-12.04C-2.50,-7.34 -0.50,-4.24 3.30,-4.24C5.50,-4.24 6.80,-5.34 7.80,-7.04M0.70,0.76C1.10,0.96 1.60,1.16 2.50,1.16C4,1.16 4.90,0.46 4.90,-0.54C4.90,-1.64 4,-2.14 2.50,-2.14L1.80,-2.14L3.10,-4.34" fill="none" stroke="rgba(0,0,0,0.47)"/>
    <path d="M-2.86,-6.94L8.24,-6.94C8.24,-10.14 7.14,-14.14 3.04,-14.14C-0.56,-14.14 -2.86,-11.14 -2.86,-6.04C-2.86,-1.44 -1.06,1.86 3.14,1.86C5.84,1.86 7.34,0.36 8.04,-1.34M1.04,-20.94L4.94,-17.14" fill="none" stroke="rgba(0,0,0,0.47)"/>
    <path d="M-2.82,-6.94L8.28,-6.94C8.28,-10.14 7.18,-14.14 3.08,-14.14C-0.52,-14.14 -2.82,-11.14 -2.82,-6.04C-2.82,-1.44 -1.02,1.86 3.18,1.86C5.88,1.86 7.38,0.36 8.08,-1.34M0.98,-17.14L4.88,-20.94" fill="none" stroke="rgba(0,0,0,0.47)"/>
    <path d="M-2.88,-7.24L8.22,-7.24C8.22,-10.44 7.12,-14.44 3.02,-14.44C-0.58,-14.44 -2.88,-11.44 -2.88,-6.34C-2.88,-1.74 -1.08,1.56 3.12,1.56C5.82,1.56 7.32,0.06 8.02,-1.64M6.22,-17.04L3.12,-20.64L2.92,-20.64L-0.18,-17.04" fill="none" stroke="rgba(0,0,0,0.47)"/>
    <path d="M-2.84,-7.04L8.16,-7.04C8.16,-10.24 7.06,-14.24 2.96,-14.24C-0.64,-14.24 -2.94,-11.24 -2.94,-6.14C-2.94,-1.54 -1.14,1.76 3.06,1.76C5.76,1.76 7.26,0.26 7.96,-1.44M0.96,-17.24L0.96,-20.84M5.06,-17.24L5.06,-20.84" fill="none" stroke="rgba(0,0,0,0.47)"/>
    <path d="M2.70,1.86L2.70,-14.14M0.70,-20.94L4.60,-17.14" fill="none" stroke="rgba(0,0,0,0.47)"/>
    <path d="M2.64,1.86L2.64,-14.14M0.74,-17.14L4.64,-20.94" fill="none" stroke="rgba(0,0,0,0.47)"/>
    <path d="M2.68,1.56L2.68,-14.44M5.88,-17.04L2.78,-20.64L2.68,-20.64L-0.42,-17.04" fill="none" stroke="rgba(0,0,0,0.47)"/>
    <path d="M2.62,1.76L2.62,-14.24M0.62,-17.24L0.62,-20.84M4.72,-17.24L4.72,-20.84" fill="none" stroke="rgba(0,0,0,0.47)"/>
    <path d="M0.06,-14.24L6.56,-17.34M7.96,-8.34C6.66,-10.34 4.36,-11.34 2.36,-11.34C-0.64,-11.34 -3.24,-9.14 -3.24,-5.54C-3.24,-2.24 -1.14,0.16 2.56,0.16C6.86,0.16 8.36,-2.84 8.36,-5.74C8.36,-8.04 7.56,-10.14 5.16,-13.34L0.56,-19.44" fill="none" stroke="rgba(0,0,0,0.47)"/>
    <path d="M-2.20,-14.94L-2.20,1.06M7.40,1.06L7.40,-10.94C7.40,-13.44 6.20,-14.94 4,-14.94C1.40,-14.94 -0.50,-12.94 -2.20,-10.94M-1.10,-18.74C-0.50,-19.84 0.30,-20.14 1,-20.14C2.40,-20.14 3.20,-18.74 4.70,-18.74C5.40,-18.74 6.20,-19.04 6.80,-20.14" fill="none" stroke="rgba(0,0,0,0.47)"/>
    <path d="M2.64,-14.14C-2.06,-14.14 -3.26,-9.24 -3.26,-6.04C-3.26,-2.14 -1.46,1.86 2.64,1.86C6.74,1.86 8.54,-2.14 8.54,-6.04C8.54,-9.24 7.34,-14.14 2.64,-14.14M0.64,-20.94L4.54,-17.14" fill="none" stroke="rgba(0,0,0,0.47)"/>
    <path d="M2.58,-14.14C-2.12,-14.14 -3.32,-9.24 -3.32,-6.04C-3.32,-2.14 -1.52,1.86 2.58,1.86C6.68,1.86 8.48,-2.14 8.48,-6.04C8.58,-9.24 7.38,-14.14 2.58,-14.14M0.68,-17.14L4.58,-20.94" fill="none" stroke="rgba(0,0,0,0.47)"/>
    <path d="M2.62,-14.44C-2.08,-14.44 -3.28,-9.54 -3.28,-6.34C-3.28,-2.44 -1.48,1.56 2.62,1.56C6.72,1.56 8.52,-2.44 8.52,-6.34C8.62,-9.44 7.42,-14.44 2.62,-14.44M5.82,-17.04L2.72,-20.64L2.62,-20.64L-0.48,-17.04" fill="none" stroke="rgba(0,0,0,0.47)"/>
    <path d="M2.56,-14.94C-2.14,-14.94 -3.34,-10.04 -3.34,-6.84C-3.34,-2.94 -1.54,1.06 2.56,1.06C6.66,1.06 8.46,-2.94 8.46,-6.84C8.56,-10.04 7.36,-14.94 2.56,-14.94M-1.44,-18.74C-0.84,-19.84 -0.04,-20.14 0.66,-20.14C2.06,-20.14 2.86,-18.74 4.36,-18.74C5.06,-18.74 5.86,-19.04 6.46,-20.14" fill="none" stroke="rgba(0,0,0,0.47)"/>
    <path d="M2.60,-14.24C-2.10,-14.24 -3.30,-9.34 -3.30,-6.14C-3.30,-2.24 -1.50,1.76 2.60,1.76C6.70,1.76 8.50,-2.24 8.50,-6.14C8.60,-9.34 7.40,-14.24 2.60,-14.24M0.60,-17.24L0.60,-20.84M4.70,-17.24L4.70,-20.84" fill="none" stroke="rgba(0,0,0,0.47)"/>
    <path d="M2.64,-16.80L2.64,-13.60M2.64,-5.40L2.64,-2.20M-4.06,-9.40L9.34,-9.40" fill="none" stroke="rgba(0,0,0,0.47)"/>
    <path d="M-2.62,-1L7.98,-18.10M2.58,-17.50C-2.12,-17.50 -3.32,-12.60 -3.32,-9.40C-3.32,-5.50 -1.52,-1.50 2.58,-1.50C6.68,-1.50 8.48,-5.50 8.48,-9.40C8.58,-12.60 7.38,-17.50 2.58,-17.50" fill="none" stroke="rgba(0,0,0,0.47)"/>
    <path d="M7.32,-2.20C6.12,-0.20 4.12,1.80 1.52,1.80C-0.68,1.80 -2.18,0.30 -2.18,-2.50L-2.18,-14.10M7.32,-14.10L7.32,1.90M0.72,-20.90L4.62,-17.10" fill="none" stroke="rgba(0,0,0,0.47)"/>
    <path d="M7.36,-2.20C6.16,-0.20 4.16,1.80 1.56,1.80C-0.64,1.80 -2.14,0.30 -2.14,-2.50L-2.14,-14.20M7.36,-14.20L7.36,1.80M0.76,-17.10L4.66,-20.90" fill="none" stroke="rgba(0,0,0,0.47)"/>
    <path d="M7.40,-2.40C6.20,-0.40 4.20,1.60 1.60,1.60C-0.60,1.60 -2.10,0.10 -2.10,-2.70L-2.10,-14.40M7.40,-14.40L7.40,1.60M5.90,-17.10L2.80,-20.70L2.70,-20.70L-0.40,-17.10" fill="none" stroke="rgba(0,0,0,0.47)"/>
    <path d="M7.34,-2.30C6.14,-0.30 4.14,1.70 1.54,1.70C-0.66,1.70 -2.16,0.20 -2.16,-2.60L-2.16,-14.30M7.34,-14.20L7.34,1.80M0.64,-17.30L0.64,-20.90M4.74,-17.30L4.74,-20.90" fill="none" stroke="rgba(0,0,0,0.47)"/>
    <path d="M2.68,-0.50L-3.22,-16.90M-2.32,4.10C-1.82,4.40 -1.32,4.50 -0.82,4.50C0.78,4.50 1.68,3 2.68,-0.50L8.48,-16.90M0.58,-19.80L4.48,-23.60" fill="none" stroke="rgba(0,0,0,0.47)"/>
    <path d="M-2.88,3.90L-2.88,-23M-2.88,-5.50C-1.68,-3.10 0.22,-1.60 2.72,-1.60C6.62,-1.60 8.22,-5.40 8.22,-9.60C8.22,-14.40 6.32,-17.50 2.82,-17.50C0.72,-17.50 -1.18,-16.40 -2.78,-13.60" fill="none" stroke="rgba(0,0,0,0.47)"/>
    <path d="M2.66,-0.50L-3.24,-16.90M-2.24,4.10C-1.74,4.40 -1.24,4.50 -0.74,4.50C0.86,4.50 1.76,3 2.76,-0.50L8.56,-16.90M0.46,-20L0.46,-23.60M4.56,-20L4.56,-23.60" fill="none" stroke="rgba(0,0,0,0.47)"/>
    <path d="M-2.60,-3.80L8,-3.80M10.40,2.40L2.80,-17L2.70,-17L-5,2.40M5.90,-21.50L-0.50,-21.50" fill="none" stroke="rgba(0,0,0,0.47)"/>
    <path d="M7.54,-8.30L5.74,-8.30C-0.06,-8.30 -2.46,-6.80 -2.46,-3.50C-2.46,-1.40 -1.16,0.60 1.54,0.60C4.04,0.60 5.94,-1 7.54,-3.10M7.74,0.60C7.64,-0.50 7.64,-2.20 7.64,-3.40L7.64,-10.30C7.64,-13.10 6.54,-15.40 3.14,-15.40C0.74,-15.40 -0.76,-14.30 -1.66,-12.10M6.24,-19.70L-0.16,-19.70" fill="none" stroke="rgba(0,0,0,0.47)"/>
    <path d="M-2.62,-2.90L7.98,-2.90M10.38,3.20L2.78,-16.20L2.68,-16.20L-5.02,3.20M-0.72,-22.30C-0.72,-20.70 0.78,-19.90 2.68,-19.90C4.58,-19.90 6.18,-20.60 6.18,-22.20" fill="none" stroke="rgba(0,0,0,0.47)"/>
    <path d="M7.62,-7.50L5.82,-7.50C0.02,-7.50 -2.38,-6 -2.38,-2.70C-2.38,-0.60 -1.08,1.40 1.62,1.40C4.12,1.40 6.02,-0.20 7.62,-2.30M7.72,1.40C7.62,0.30 7.62,-1.40 7.62,-2.60L7.62,-9.50C7.62,-12.30 6.52,-14.60 3.12,-14.60C0.72,-14.60 -0.78,-13.50 -1.68,-11.30M-0.38,-20.50C-0.38,-18.90 1.12,-18.10 3.02,-18.10C4.92,-18.10 6.52,-18.80 6.52,-20.40" fill="none" stroke="rgba(0,0,0,0.47)"/>
    <path d="M-3.24,-8.80L7.36,-8.80M9.76,-2.70L2.16,-22.10L2.06,-22.10L-5.64,-2.70M10.96,2.60C10.56,2.80 9.86,3.10 9.16,3.10C7.76,3.10 6.96,2.40 6.96,1.10C6.96,-0.10 8.46,-1.50 9.76,-2.60" fill="none" stroke="rgba(0,0,0,0.47)"/>
    <path d="M7,-13.30L5.20,-13.30C-0.60,-13.30 -3,-11.80 -3,-8.50C-3,-6.40 -1.70,-4.40 1,-4.40C3.50,-4.40 5.40,-6 7,-8.10M7.10,-4.40C7,-5.50 7,-7.20 7,-8.40L7,-15.30C7,-18.10 5.90,-20.40 2.50,-20.40C0.10,-20.40 -1.40,-19.30 -2.30,-17.10M8.30,0.90C7.90,1.10 7.20,1.40 6.50,1.40C5.10,1.40 4.30,0.70 4.30,-0.60C4.30,-1.80 5.80,-3.20 7.10,-4.30" fill="none" stroke="rgba(0,0,0,0.47)"/>
    <path d="M9.24,-11.80C8.14,-14.50 6.14,-15.90 3.24,-15.90C-1.66,-15.90 -4.36,-12 -4.36,-6.10C-4.36,0.40 -1.06,3.70 3.24,3.70C6.64,3.70 8.84,1.70 9.64,-0.70M1.24,-18.90L5.14,-22.70" fill="none" stroke="rgba(0,0,0,0.47)"/>
    <path d="M7.78,-11.10C7.18,-12.70 5.68,-14.10 3.28,-14.10C-0.32,-14.10 -2.42,-10.80 -2.42,-5.90C-2.42,-1.20 -0.42,1.90 3.38,1.90C5.58,1.90 6.88,0.80 7.88,-0.90M1.28,-17.10L5.18,-20.90" fill="none" stroke="rgba(0,0,0,0.47)"/>
    <path d="M9.22,-12.10C8.12,-14.80 6.12,-16.20 3.22,-16.20C-1.68,-16.20 -4.38,-12.30 -4.38,-6.40C-4.38,0.10 -1.08,3.40 3.22,3.40C6.62,3.40 8.82,1.40 9.62,-1M6.42,-18.90L3.32,-22.50L3.22,-22.50L0.12,-18.90" fill="none" stroke="rgba(0,0,0,0.47)"/>
    <path d="M7.76,-11.40C7.16,-13 5.66,-14.40 3.26,-14.40C-0.34,-14.40 -2.44,-11.10 -2.44,-6.20C-2.44,-1.50 -0.44,1.60 3.36,1.60C5.56,1.60 6.86,0.50 7.86,-1.20M6.46,-17.10L3.36,-20.70L3.26,-20.70L0.06,-17.10" fill="none" stroke="rgba(0,0,0,0.47)"/>
    <path d="M9.20,-11.90C8.10,-14.60 6.10,-16 3.20,-16C-1.70,-16 -4.40,-12.10 -4.40,-6.20C-4.40,0.30 -1.10,3.60 3.20,3.60C6.60,3.60 8.80,1.60 9.60,-0.80M3.20,-19.60L3.20,-22.70" fill="none" stroke="rgba(0,0,0,0.47)"/>
    <path d="M7.74,-11.26C7.14,-12.86 5.64,-14.26 3.24,-14.26C-0.36,-14.26 -2.46,-10.96 -2.46,-6.06C-2.46,-1.36 -0.46,1.74 3.34,1.74C5.54,1.74 6.84,0.64 7.84,-1.06M3.24,-17.76L3.24,-20.86" fill="none" stroke="rgba(0,0,0,0.47)"/>
    <path d="M9.18,-12.06C8.08,-14.76 6.08,-16.16 3.18,-16.16C-1.72,-16.16 -4.42,-12.26 -4.42,-6.36C-4.42,0.14 -1.12,3.44 3.18,3.44C6.58,3.44 8.78,1.44 9.58,-0.96M-0.02,-22.56L3.08,-18.96L3.18,-18.96L6.28,-22.56" fill="none" stroke="rgba(0,0,0,0.47)"/>
    <path d="M7.72,-11.36C7.12,-12.96 5.62,-14.36 3.22,-14.36C-0.38,-14.36 -2.48,-11.06 -2.48,-6.16C-2.48,-1.46 -0.48,1.64 3.32,1.64C5.52,1.64 6.82,0.54 7.82,-1.16M0.12,-20.76L3.22,-17.16L3.32,-17.16L6.42,-20.76" fill="none" stroke="rgba(0,0,0,0.47)"/>
    <path d="M-4.14,3.24L-4.14,-15.76M-4.14,3.24L-0.64,3.24C4.56,3.24 9.36,0.54 9.36,-6.26C9.36,-12.16 5.76,-15.76 0.16,-15.76L-4.04,-15.76M-1.14,-22.36L1.96,-18.76L2.06,-18.76L5.16,-22.36" fill="none" stroke="rgba(0,0,0,0.47)"/>
    <path d="M6,-20.26L6,1.14M6,-10.96C4.40,-13.76 2.50,-14.86 0.40,-14.86C-3.10,-14.86 -5,-11.76 -5,-6.96C-5,-2.76 -3.40,1.04 0.50,1.04C2.90,1.04 4.80,-0.46 6.10,-2.86M8.70,-15.46L10.30,-17.86L10.30,-20.26" fill="none" stroke="rgba(0,0,0,0.47)"/>
    <path d="M-5.76,-10.06L4.04,-10.06M-2.46,-0.06L-2.46,-19.06M-2.46,-0.06L1.04,-0.06C6.24,-0.06 11.04,-2.76 11.04,-9.56C11.04,-15.46 7.44,-19.06 1.84,-19.06L-2.36,-19.06" fill="none" stroke="rgba(0,0,0,0.47)"/>
    <path d="M9.48,-17.36L2.88,-17.36M6.78,-20.26L6.78,1.14M6.78,-10.96C5.18,-13.76 3.28,-14.86 1.18,-14.86C-2.32,-14.86 -4.22,-11.76 -4.22,-6.96C-4.22,-2.76 -2.62,1.04 1.28,1.04C3.68,1.04 5.58,-0.46 6.88,-2.86" fill="none" stroke="rgba(0,0,0,0.47)"/>
    <path d="M7.82,2.24L-2.58,2.24L-2.58,-16.76L7.82,-16.76M-2.58,-7.76L7.32,-7.76M5.72,-21.36L-0.68,-21.36" fill="none" stroke="rgba(0,0,0,0.47)"/>
    <path d="M-2.84,-8.26L8.16,-8.26C8.16,-11.46 7.06,-15.46 2.96,-15.46C-0.64,-15.46 -2.94,-12.46 -2.94,-7.36C-2.94,-2.76 -1.14,0.54 3.06,0.54C5.76,0.54 7.26,-0.96 7.96,-2.66M6.16,-19.66L-0.24,-19.66" fill="none" stroke="rgba(0,0,0,0.47)"/>
    <path d="M7.80,3.04L-2.60,3.04L-2.60,-15.96L7.80,-15.96M-2.60,-6.86L7.30,-6.86M-0.90,-22.16C-0.90,-20.56 0.60,-19.76 2.50,-19.76C4.40,-19.76 6,-20.46 6,-22.06" fill="none" stroke="rgba(0,0,0,0.47)"/>
    <path d="M-2.86,-7.36L8.24,-7.36C8.24,-10.56 7.14,-14.56 3.04,-14.56C-0.56,-14.56 -2.86,-11.56 -2.86,-6.46C-2.86,-1.86 -1.06,1.44 3.14,1.44C5.84,1.44 7.34,-0.06 8.04,-1.76M-0.46,-20.56C-0.46,-18.96 1.04,-18.16 2.94,-18.16C4.84,-18.16 6.44,-18.86 6.44,-20.46" fill="none" stroke="rgba(0,0,0,0.47)"/>
    <path d="M7.88,3.44L-2.52,3.44L-2.52,-15.56L7.88,-15.56M-2.52,-6.56L7.38,-6.56M2.48,-19.46L2.48,-22.56" fill="none" stroke="rgba(0,0,0,0.47)"/>
    <path d="M-2.88,-7.06L8.22,-7.06C8.22,-10.26 7.12,-14.26 3.02,-14.26C-0.58,-14.26 -2.88,-11.26 -2.88,-6.16C-2.88,-1.56 -1.08,1.74 3.12,1.74C5.82,1.74 7.32,0.24 8.02,-1.46M3.02,-17.76L3.02,-20.86" fill="none" stroke="rgba(0,0,0,0.47)"/>
    <path d="M7.86,-2.96L-2.54,-2.96L-2.54,-21.96L7.86,-21.96M-2.54,-12.86L7.36,-12.86M7.26,2.34C6.86,2.54 6.16,2.84 5.46,2.84C4.06,2.84 3.26,2.14 3.26,0.84C3.26,-0.36 4.76,-1.76 6.06,-2.86" fill="none" stroke="rgba(0,0,0,0.47)"/>
    <path d="M-2.90,-12.76L8.20,-12.76C8.20,-15.96 7.10,-19.96 3,-19.96C-0.60,-19.96 -2.90,-16.96 -2.90,-11.86C-2.90,-7.26 -1.10,-3.96 3.10,-3.96C5.80,-3.96 7.30,-5.46 8,-7.16M7.50,0.34C7.10,0.54 6.40,0.84 5.70,0.84C4.30,0.84 3.50,0.14 3.50,-1.16C3.50,-2.36 5,-3.76 6.30,-4.86" fill="none" stroke="rgba(0,0,0,0.47)"/>
    <path d="M7.84,3.24L-2.56,3.24L-2.56,-15.76L7.84,-15.76M-2.56,-6.66L7.34,-6.66M-0.66,-22.36L2.44,-18.76L2.54,-18.76L5.64,-22.36" fill="none" stroke="rgba(0,0,0,0.47)"/>
    <path d="M-2.82,-7.16L8.28,-7.16C8.28,-10.36 7.18,-14.36 3.08,-14.36C-0.52,-14.36 -2.82,-11.36 -2.82,-6.26C-2.82,-1.66 -1.02,1.64 3.18,1.64C5.88,1.64 7.38,0.14 8.08,-1.56M-0.22,-20.76L2.88,-17.16L3.08,-17.16L6.18,-20.76" fill="none" stroke="rgba(0,0,0,0.47)"/>
    <path d="M9.42,-12.06C8.32,-14.76 6.32,-16.16 3.42,-16.16C-1.28,-16.16 -4.18,-12.56 -4.18,-6.36C-4.18,-0.96 -2.08,3.44 3.52,3.44C5.82,3.44 7.72,2.74 9.22,1.84L9.22,-6.16L4.12,-6.16M6.52,-18.86L3.42,-22.46L3.32,-22.46L0.22,-18.86" fill="none" stroke="rgba(0,0,0,0.47)"/>
    <path d="M8.16,-13.26C6.56,-16.06 4.66,-17.16 2.56,-17.16C-0.94,-17.16 -2.94,-14.06 -2.94,-9.46C-2.94,-5.36 -1.34,-1.76 2.56,-1.76C4.96,-1.76 6.86,-3.16 8.16,-5.46M-1.84,1.94C-0.84,3.54 0.76,4.34 2.96,4.34C6.26,4.34 8.16,2.54 8.16,-1.06L8.16,-17.06M6.56,-19.76L3.46,-23.36L3.36,-23.36L0.26,-19.76" fill="none" stroke="rgba(0,0,0,0.47)"/>
    <path d="M9.40,-12.26C8.30,-14.96 6.30,-16.36 3.40,-16.36C-1.30,-16.36 -4.20,-12.76 -4.20,-6.56C-4.20,-1.16 -2.10,3.24 3.50,3.24C5.80,3.24 7.70,2.54 9.20,1.64L9.20,-6.36L4.10,-6.36M-0.10,-22.36C-0.10,-20.76 1.40,-19.96 3.30,-19.96C5.20,-19.96 6.80,-20.66 6.80,-22.26" fill="none" stroke="rgba(0,0,0,0.47)"/>
    <path d="M8.14,-13.42C6.54,-16.22 4.64,-17.32 2.54,-17.32C-0.96,-17.32 -2.96,-14.22 -2.96,-9.62C-2.96,-5.52 -1.36,-1.92 2.54,-1.92C4.94,-1.92 6.84,-3.32 8.14,-5.62M-1.86,1.78C-0.86,3.38 0.74,4.18 2.94,4.18C6.24,4.18 8.14,2.38 8.14,-1.22L8.14,-17.22M-0.06,-23.22C-0.06,-21.62 1.44,-20.82 3.34,-20.82C5.24,-20.82 6.84,-21.52 6.84,-23.12" fill="none" stroke="rgba(0,0,0,0.47)"/>
    <path d="M9.38,-11.92C8.28,-14.62 6.28,-16.02 3.38,-16.02C-1.32,-16.02 -4.22,-12.42 -4.22,-6.22C-4.22,-0.82 -2.12,3.58 3.48,3.58C5.78,3.58 7.68,2.88 9.18,1.98L9.18,-6.02L4.08,-6.02M3.38,-19.62L3.38,-22.62" fill="none" stroke="rgba(0,0,0,0.47)"/>
    <path d="M8.12,-13.12C6.52,-15.92 4.62,-17.02 2.52,-17.02C-0.98,-17.02 -2.98,-13.92 -2.98,-9.32C-2.98,-5.22 -1.38,-1.62 2.52,-1.62C4.92,-1.62 6.82,-3.02 8.12,-5.32M-1.78,2.08C-0.78,3.68 0.82,4.48 3.02,4.48C6.32,4.48 8.22,2.68 8.22,-0.92L8.22,-16.92M3.42,-20.52L3.42,-23.62" fill="none" stroke="rgba(0,0,0,0.47)"/>
    <path d="M9.46,-18.72C8.36,-21.42 6.36,-22.82 3.46,-22.82C-1.24,-22.82 -4.14,-19.22 -4.14,-13.02C-4.14,-7.62 -2.04,-3.22 3.56,-3.22C5.86,-3.22 7.76,-3.92 9.26,-4.82L9.26,-12.82L4.16,-12.82M1.36,3.68L3.56,-0.82" fill="none" stroke="rgba(0,0,0,0.47)"/>
    <path d="M8.20,-12.82C6.60,-15.62 4.70,-16.72 2.60,-16.72C-0.90,-16.72 -2.90,-13.62 -2.90,-9.02C-2.90,-4.92 -1.30,-1.32 2.60,-1.32C5,-1.32 6.90,-2.72 8.20,-5.02M-1.80,2.38C-0.80,3.98 0.80,4.78 3,4.78C6.30,4.78 8.20,2.98 8.20,-0.62L8.20,-16.62M4.50,-23.82L2.30,-19.32" fill="none" stroke="rgba(0,0,0,0.47)"/>
    <path d="M-3.46,3.38L-3.46,-16.22M-3.46,-7.12L8.84,-7.12M8.74,3.38L8.74,-16.22M5.84,-18.92L2.74,-22.52L2.64,-22.52L-0.46,-18.92" fill="none" stroke="rgba(0,0,0,0.47)"/>
    <path d="M-2.12,-17.12L-2.12,4.38M7.48,4.28L7.48,-7.72C7.48,-10.22 6.28,-11.72 4.08,-11.72C1.48,-11.72 -0.42,-9.72 -2.12,-7.72M5.78,-19.82L2.68,-23.42L2.58,-23.42L-0.52,-19.82" fill="none" stroke="rgba(0,0,0,0.47)"/>
    <path d="M-6.38,-14.92L11.62,-14.92M-3.48,0.28L-3.48,-19.32M-3.48,-10.32L8.82,-10.32M8.82,0.28L8.82,-19.32" fill="none" stroke="rgba(0,0,0,0.47)"/>
    <path d="M-3.44,-17.42L3.16,-17.42M-0.84,-20.32L-0.84,1.18M8.76,1.18L8.76,-10.82C8.76,-13.32 7.56,-14.82 5.36,-14.82C2.76,-14.82 0.86,-12.82 -0.84,-10.82" fill="none" stroke="rgba(0,0,0,0.47)"/>
    <path d="M2.60,2.78L2.60,-16.82M-1.40,-20.52C-0.80,-21.62 0,-21.92 0.70,-21.92C2.10,-21.92 2.90,-20.52 4.40,-20.52C5.10,-20.52 5.90,-20.82 6.50,-21.92" fill="none" stroke="rgba(0,0,0,0.47)"/>
    <path d="M2.64,0.98L2.64,-15.02M-1.36,-18.72C-0.76,-19.82 0.04,-20.12 0.74,-20.12C2.14,-20.12 2.94,-18.72 4.44,-18.72C5.14,-18.72 5.94,-19.02 6.54,-20.12" fill="none" stroke="rgba(0,0,0,0.47)"/>
    <path d="M2.68,2.38L2.68,-17.22M5.78,-21.52L-0.62,-21.52" fill="none" stroke="rgba(0,0,0,0.47)"/>
    <path d="M2.62,0.58L2.62,-15.42M5.82,-19.72L-0.58,-19.72" fill="none" stroke="rgba(0,0,0,0.47)"/>
    <path d="M2.66,3.18L2.66,-16.42M-0.84,-22.32C-0.84,-20.72 0.66,-19.92 2.56,-19.92C4.46,-19.92 6.06,-20.62 6.06,-22.22" fill="none" stroke="rgba(0,0,0,0.47)"/>
    <path d="M2.60,1.38L2.60,-14.62M-0.80,-20.52C-0.80,-18.92 0.70,-18.12 2.60,-18.12C4.50,-18.12 6.10,-18.82 6.10,-20.42" fill="none" stroke="rgba(0,0,0,0.47)"/>
    <path d="M3.44,-2.62L3.44,-22.22M4.64,2.68C4.24,2.88 3.54,3.18 2.84,3.18C1.44,3.18 0.64,2.48 0.64,1.18C0.64,-0.02 2.14,-1.42 3.44,-2.52" fill="none" stroke="rgba(0,0,0,0.47)"/>
    <path d="M3.48,-1.12L3.48,-17.12M3.48,-20.62L3.48,-23.72M4.68,4.18C4.28,4.38 3.58,4.68 2.88,4.68C1.48,4.68 0.68,3.98 0.68,2.68C0.68,1.48 2.18,0.08 3.48,-1.02" fill="none" stroke="rgba(0,0,0,0.47)"/>
    <path d="M2.62,3.58L2.62,-16.02M2.62,-19.62L2.62,-22.62" fill="none" stroke="rgba(0,0,0,0.47)"/>
    <path d="M2.66,-1.52L2.66,-17.52" fill="none" stroke="rgba(0,0,0,0.47)"/>
    <path d="M-1.60,2.58C-0.90,3.18 -0.10,3.38 0.60,3.38C2.20,3.38 3.60,2.38 3.60,-0.62L3.60,-16.22M6.80,-18.92L3.70,-22.52L3.60,-22.52L0.50,-18.92" fill="none" stroke="rgba(0,0,0,0.47)"/>
    <path d="M-1.26,3.62C-0.86,4.02 -0.16,4.32 0.84,4.32C2.64,4.32 3.34,3.22 3.34,1.22L3.34,-17.18M6.54,-19.78L3.44,-23.38L3.24,-23.38L0.14,-19.78" fill="none" stroke="rgba(0,0,0,0.47)"/>
    <path d="M-2.92,-3.18L-2.92,-22.78M8.18,-3.18L-1.52,-13.48L7.48,-22.68M0.18,3.72L2.38,-0.78" fill="none" stroke="rgba(0,0,0,0.47)"/>
    <path d="M-2.18,-23.78L-2.18,-2.28M7.52,-2.28L-0.48,-10.98L6.92,-18.28M0.62,4.62L2.82,0.12" fill="none" stroke="rgba(0,0,0,0.47)"/>
    <path d="M7.26,3.52L-1.94,3.52L-1.94,-15.78M-1.94,-18.78L1.96,-22.58" fill="none" stroke="rgba(0,0,0,0.47)"/>
    <path d="M4.10,4.42C3.90,4.52 3.60,4.52 3.20,4.52C1.60,4.52 0.70,3.52 0.70,1.42L0.70,-16.98M0.70,-19.88L4.60,-23.68" fill="none" stroke="rgba(0,0,0,0.47)"/>
    <path d="M7.24,-3.48L-1.96,-3.48L-1.96,-22.78M-0.06,3.72L2.14,-0.78" fill="none" stroke="rgba(0,0,0,0.47)"/>
    <path d="M4.28,-2.38C4.08,-2.28 3.78,-2.28 3.38,-2.28C1.78,-2.28 0.88,-3.28 0.88,-5.38L0.88,-23.78M1.28,4.62L3.48,0.12" fill="none" stroke="rgba(0,0,0,0.47)"/>
    <path d="M7.22,0.92L-1.98,0.92L-1.98,-18.38M2.02,-15.18L3.62,-17.58L3.62,-19.98" fill="none" stroke="rgba(0,0,0,0.47)"/>
    <path d="M3.86,1.02C3.66,1.12 3.36,1.12 2.96,1.12C1.36,1.12 0.46,0.12 0.46,-1.98L0.46,-20.38M3.16,-15.48L4.76,-17.88L4.76,-20.28" fill="none" stroke="rgba(0,0,0,0.47)"/>
    <path d="M7.20,0.12L-2,0.12L-2,-19.18M5.50,-10.88L5.50,-7.68" fill="none" stroke="rgba(0,0,0,0.47)"/>
    <path d="M3.34,1.02C3.14,1.12 2.84,1.12 2.44,1.12C0.84,1.12 -0.06,0.12 -0.06,-1.98L-0.06,-20.38M5.24,-9.58L5.24,-6.38" fill="none" stroke="rgba(0,0,0,0.47)"/>
    <path d="M-3.42,-8.18L5.28,-11.08M8.68,0.12L-0.52,0.12L-0.52,-19.18" fill="none" stroke="rgba(0,0,0,0.47)"/>
    <path d="M-0.58,-8.28L5.82,-10.58M5.72,1.02C5.52,1.12 5.22,1.12 4.82,1.12C3.22,1.12 2.32,0.12 2.32,-1.98L2.32,-20.38" fill="none" stroke="rgba(0,0,0,0.47)"/>
    <path d="M-3.94,3.62L-3.94,-15.78L-3.84,-15.78L9.16,3.52L9.26,3.52L9.26,-15.88M0.66,-18.88L4.56,-22.68" fill="none" stroke="rgba(0,0,0,0.47)"/>
    <path d="M-2.20,-14.18L-2.20,1.82M7.40,1.82L7.40,-10.18C7.40,-12.68 6.20,-14.18 4,-14.18C1.40,-14.18 -0.50,-12.18 -2.20,-10.18M0.90,-17.08L4.80,-20.88" fill="none" stroke="rgba(0,0,0,0.47)"/>
    <path d="M-3.96,-3.18L-3.96,-22.58L-3.86,-22.58L9.14,-3.28L9.24,-3.28L9.24,-22.68M1.24,3.72L3.44,-0.78" fill="none" stroke="rgba(0,0,0,0.47)"/>
    <path d="M-2.12,-20.98L-2.12,-4.98M7.48,-4.98L7.48,-16.98C7.48,-19.48 6.28,-20.98 4.08,-20.98C1.48,-20.98 -0.42,-18.98 -2.12,-16.98M1.48,1.92L3.68,-2.58" fill="none" stroke="rgba(0,0,0,0.47)"/>
    <path d="M-3.98,3.42L-3.98,-15.98L-3.88,-15.98L9.12,3.32L9.22,3.32L9.22,-16.08M-0.58,-22.48L2.52,-18.88L2.62,-18.88L5.72,-22.48" fill="none" stroke="rgba(0,0,0,0.47)"/>
    <path d="M-2.14,-14.38L-2.14,1.62M7.46,1.62L7.46,-10.38C7.46,-12.88 6.26,-14.38 4.06,-14.38C1.46,-14.38 -0.44,-12.38 -2.14,-10.38M-0.34,-20.68L2.76,-17.08L2.86,-17.08L5.96,-20.68" fill="none" stroke="rgba(0,0,0,0.47)"/>
    <path d="M4.70,2.22C5.10,2.62 5.80,2.92 6.80,2.92C8.60,2.92 9.30,1.82 9.30,-0.18L9.30,-2.48M-4,-2.48L-4,-21.88L-3.90,-21.88L9.10,-2.58L9.20,-2.58L9.20,-21.98" fill="none" stroke="rgba(0,0,0,0.47)"/>
    <path d="M2.84,0.46C3.24,0.86 3.94,1.16 4.94,1.16C6.74,1.16 7.44,0.06 7.44,-1.94L7.44,-4.24M-2.16,-20.24L-2.16,-4.24M7.44,-4.24L7.44,-16.24C7.44,-18.74 6.24,-20.24 4.04,-20.24C1.44,-20.24 -0.46,-18.24 -2.16,-16.24" fill="none" stroke="rgba(0,0,0,0.47)"/>
    <path d="M2.58,-17.24C-2.82,-17.24 -4.92,-12.04 -4.92,-7.44C-4.92,-3.54 -3.42,2.36 2.68,2.36C8.78,2.36 10.28,-3.64 10.28,-7.44C10.18,-12.04 8.08,-17.24 2.58,-17.24M5.78,-21.44L-0.52,-21.44" fill="none" stroke="rgba(0,0,0,0.47)"/>
    <path d="M2.62,-15.44C-2.08,-15.44 -3.28,-10.54 -3.28,-7.34C-3.28,-3.44 -1.48,0.56 2.62,0.56C6.72,0.56 8.52,-3.44 8.52,-7.34C8.62,-10.54 7.42,-15.44 2.62,-15.44M5.82,-19.64L-0.58,-19.64" fill="none" stroke="rgba(0,0,0,0.47)"/>
    <path d="M2.56,-16.34C-2.84,-16.34 -4.94,-11.14 -4.94,-6.54C-4.94,-2.64 -3.44,3.26 2.66,3.26C8.76,3.26 10.26,-2.74 10.26,-6.54C10.26,-11.24 8.06,-16.34 2.56,-16.34M-0.84,-22.34C-0.84,-20.74 0.66,-19.94 2.56,-19.94C4.46,-19.94 6.06,-20.64 6.06,-22.24" fill="none" stroke="rgba(0,0,0,0.47)"/>
    <path d="M2.60,-14.54C-2.10,-14.54 -3.30,-9.64 -3.30,-6.44C-3.30,-2.54 -1.50,1.46 2.60,1.46C6.70,1.46 8.50,-2.54 8.50,-6.44C8.60,-9.64 7.40,-14.54 2.60,-14.54M-0.80,-20.54C-0.80,-18.94 0.70,-18.14 2.60,-18.14C4.50,-18.14 6.10,-18.84 6.10,-20.44" fill="none" stroke="rgba(0,0,0,0.47)"/>
    <path d="M2.64,-16.04C-2.76,-16.04 -4.86,-10.84 -4.86,-6.24C-4.86,-2.34 -3.36,3.56 2.74,3.56C8.84,3.56 10.34,-2.44 10.34,-6.24C10.24,-10.94 8.14,-16.04 2.64,-16.04M-1.06,-19.04L2.64,-22.64M3.24,-19.04L6.94,-22.64" fill="none" stroke="rgba(0,0,0,0.47)"/>
    <path d="M2.58,-14.24C-2.12,-14.24 -3.32,-9.34 -3.32,-6.14C-3.32,-2.24 -1.52,1.76 2.58,1.76C6.68,1.76 8.48,-2.24 8.48,-6.14C8.58,-9.34 7.38,-14.24 2.58,-14.24M-1.02,-17.24L2.68,-20.84M3.18,-17.24L6.88,-20.84" fill="none" stroke="rgba(0,0,0,0.47)"/>
    <path d="M3.22,-0.04C2.12,0.16 0.92,0.26 -0.28,0.26C-6.48,0.26 -7.68,-5.74 -7.68,-9.54C-7.68,-14.14 -5.88,-19.34 -0.28,-19.34M13.02,-0.04L3.22,-0.04L3.22,-19.04L13.02,-19.04M3.22,-10.04L12.52,-10.04M3.22,-19.04C2.12,-19.24 1.02,-19.34 -0.28,-19.34" fill="none" stroke="rgba(0,0,0,0.47)"/>
    <path d="M-2.94,-17.54C-7.64,-17.54 -8.84,-12.64 -8.84,-9.44C-8.84,-5.54 -7.04,-1.54 -2.94,-1.54C1.16,-1.54 2.96,-5.54 2.96,-9.44C3.06,-12.64 1.86,-17.54 -2.94,-17.54M3.06,-10.34L14.16,-10.34C14.16,-13.54 13.06,-17.54 8.96,-17.54C5.36,-17.54 3.06,-14.54 3.06,-9.44C3.06,-4.84 4.86,-1.54 9.06,-1.54C11.76,-1.54 13.26,-3.04 13.96,-4.74" fill="none" stroke="rgba(0,0,0,0.47)"/>
    <path d="M-2.80,3.66L-2.80,-15.64M8.10,3.66L3,-6.24M-2.80,-6.24L2.50,-6.24C5.30,-6.24 7.70,-7.94 7.70,-10.94C7.70,-13.44 6,-15.64 2.10,-15.64L-2.90,-15.64M-0.20,-18.94L3.70,-22.74" fill="none" stroke="rgba(0,0,0,0.47)"/>
    <path d="M-0.26,-14.14L-0.26,1.86M-0.26,-10.14C1.74,-12.54 3.64,-14.14 5.44,-14.14M0.54,-17.14L4.44,-20.94" fill="none" stroke="rgba(0,0,0,0.47)"/>
    <path d="M-2.82,-3.34L-2.82,-22.64M8.08,-3.34L2.98,-13.24M-2.82,-13.24L2.48,-13.24C5.28,-13.24 7.68,-14.94 7.68,-17.94C7.68,-20.44 5.98,-22.64 2.08,-22.64L-2.92,-22.64M0.48,3.56L2.68,-0.94" fill="none" stroke="rgba(0,0,0,0.47)"/>
    <path d="M0.92,-21.04L0.92,-5.04M0.92,-16.94C2.92,-19.34 4.82,-20.94 6.62,-20.94M-1.38,1.86L0.82,-2.64" fill="none" stroke="rgba(0,0,0,0.47)"/>
    <path d="M-2.84,3.46L-2.84,-15.84M8.06,3.46L2.96,-6.44M-2.84,-6.44L2.46,-6.44C5.26,-6.44 7.66,-8.14 7.66,-11.14C7.66,-13.64 5.96,-15.84 2.06,-15.84L-2.94,-15.84M-1.44,-22.54L1.66,-18.94L1.76,-18.94L4.86,-22.54" fill="none" stroke="rgba(0,0,0,0.47)"/>
    <path d="M-0.10,-14.34L-0.10,1.66M-0.10,-10.34C1.90,-12.74 3.80,-14.34 5.60,-14.34M-0.60,-20.74L2.60,-17.14L2.70,-17.14L5.80,-20.74" fill="none" stroke="rgba(0,0,0,0.47)"/>
    <path d="M-2.86,0.46C-2.06,2.36 -0.06,3.56 2.64,3.56C6.04,3.56 8.14,1.46 8.14,-1.14C8.14,-6.94 -2.46,-6.04 -2.46,-11.64C-2.46,-13.94 -0.66,-16.04 2.84,-16.04C5.34,-16.04 6.84,-14.94 7.54,-13.44M1.04,-18.94L4.94,-22.74" fill="none" stroke="rgba(0,0,0,0.47)"/>
    <path d="M-2.32,-1.54C-1.62,0.56 0.38,1.86 2.88,1.86C5.18,1.86 7.68,0.66 7.68,-2.04C7.68,-7.34 -1.72,-5.54 -1.72,-10.54C-1.72,-13.04 0.68,-14.14 2.78,-14.14C4.78,-14.14 6.38,-13.14 7.08,-11.44M0.78,-17.14L4.68,-20.94" fill="none" stroke="rgba(0,0,0,0.47)"/>
    <path d="M-2.88,0.26C-2.08,2.16 -0.08,3.36 2.62,3.36C6.02,3.36 8.12,1.26 8.12,-1.34C8.12,-7.14 -2.48,-6.24 -2.48,-11.84C-2.48,-14.14 -0.68,-16.24 2.82,-16.24C5.32,-16.24 6.82,-15.14 7.52,-13.64M6.22,-18.84L3.12,-22.44L3.02,-22.44L-0.08,-18.84" fill="none" stroke="rgba(0,0,0,0.47)"/>
    <path d="M-2.34,-1.84C-1.64,0.26 0.36,1.56 2.86,1.56C5.16,1.56 7.66,0.36 7.66,-2.34C7.66,-7.64 -1.74,-5.84 -1.74,-10.84C-1.74,-13.34 0.66,-14.44 2.76,-14.44C4.76,-14.44 6.36,-13.44 7.06,-11.74M5.96,-17.04L2.86,-20.64L2.66,-20.64L-0.44,-17.04" fill="none" stroke="rgba(0,0,0,0.47)"/>
    <path d="M-2.80,-5.64C-2,-3.74 0,-2.54 2.70,-2.54C6.10,-2.54 8.20,-4.64 8.20,-7.24C8.20,-13.04 -2.40,-12.14 -2.40,-17.74C-2.40,-20.04 -0.60,-22.14 2.90,-22.14C5.40,-22.14 6.90,-21.04 7.60,-19.54M0.50,2.56C0.90,2.76 1.40,2.96 2.30,2.96C3.80,2.96 4.70,2.26 4.70,1.26C4.70,0.16 3.80,-0.34 2.30,-0.34L1.60,-0.34L2.90,-2.54" fill="none" stroke="rgba(0,0,0,0.47)"/>
    <path d="M-2.36,-7.70C-1.66,-5.60 0.34,-4.30 2.84,-4.30C5.14,-4.30 7.64,-5.50 7.64,-8.20C7.64,-13.50 -1.76,-11.70 -1.76,-16.70C-1.76,-19.20 0.64,-20.30 2.74,-20.30C4.74,-20.30 6.34,-19.30 7.04,-17.60M0.44,0.80C0.84,1 1.34,1.20 2.24,1.20C3.74,1.20 4.64,0.50 4.64,-0.50C4.64,-1.60 3.74,-2.10 2.24,-2.10L1.54,-2.10L2.84,-4.30" fill="none" stroke="rgba(0,0,0,0.47)"/>
    <path d="M-2.82,0.30C-2.02,2.20 -0.02,3.40 2.68,3.40C6.08,3.40 8.18,1.30 8.18,-1.30C8.18,-7.10 -2.42,-6.20 -2.42,-11.80C-2.42,-14.10 -0.62,-16.20 2.88,-16.20C5.38,-16.20 6.88,-15.10 7.58,-13.60M-0.22,-22.50L2.88,-18.90L2.98,-18.90L6.08,-22.50" fill="none" stroke="rgba(0,0,0,0.47)"/>
    <path d="M-2.38,-1.80C-1.68,0.30 0.32,1.60 2.82,1.60C5.12,1.60 7.62,0.40 7.62,-2.30C7.62,-7.60 -1.78,-5.80 -1.78,-10.80C-1.78,-13.30 0.62,-14.40 2.72,-14.40C4.72,-14.40 6.32,-13.40 7.02,-11.70M-0.48,-20.70L2.62,-17.10L2.72,-17.10L5.82,-20.70" fill="none" stroke="rgba(0,0,0,0.47)"/>
    <path d="M2.66,-2.70L2.66,-22M-3.74,-22L8.96,-22M0.36,2.40C0.76,2.60 1.26,2.80 2.16,2.80C3.66,2.80 4.56,2.10 4.56,1.10C4.56,0 3.66,-0.50 2.16,-0.50L1.46,-0.50L2.76,-2.70" fill="none" stroke="rgba(0,0,0,0.47)"/>
    <path d="M6.60,-3.60C6.10,-3.10 5.30,-2.80 4.30,-2.80C2.50,-2.80 1.50,-3.80 1.50,-6.20L1.50,-21.80M-1.40,-17.20L6.20,-17.20M1.90,2.30C2.30,2.50 2.80,2.70 3.70,2.70C5.20,2.70 6.10,2 6.10,1C6.10,-0.10 5.20,-0.60 3.70,-0.60L3,-0.60L4.30,-2.80" fill="none" stroke="rgba(0,0,0,0.47)"/>
    <path d="M2.64,3.40L2.64,-15.90M-3.66,-15.90L9.04,-15.90M-0.56,-22.50L2.54,-18.90L2.64,-18.90L5.74,-22.50" fill="none" stroke="rgba(0,0,0,0.47)"/>
    <path d="M6.58,0.40C6.08,0.90 5.28,1.20 4.28,1.20C2.48,1.20 1.48,0.20 1.48,-2.20L1.48,-17.80M-1.32,-13.30L6.28,-13.30M3.88,-15.50L5.48,-17.90L5.48,-20.30" fill="none" stroke="rgba(0,0,0,0.47)"/>
    <path d="M-1.38,-11.40L6.72,-11.40M2.62,0.10L2.62,-19.20M-3.68,-19.20L9.02,-19.20" fill="none" stroke="rgba(0,0,0,0.47)"/>
    <path d="M-1.34,-9L6.26,-9M6.66,-0.80C6.16,-0.30 5.36,0 4.36,0C2.56,0 1.56,-1 1.56,-3.40L1.56,-19M-1.34,-14.50L6.26,-14.50" fill="none" stroke="rgba(0,0,0,0.47)"/>
    <path d="M-3.60,-16.80L-3.60,-4.30C-3.60,0.30 -1.10,2.80 2.60,2.80C6.50,2.80 8.80,0.30 8.80,-4.30L8.80,-16.80M-1.40,-20.60C-0.80,-21.70 0,-22 0.70,-22C2.10,-22 2.90,-20.60 4.40,-20.60C5.10,-20.60 5.90,-20.90 6.50,-22" fill="none" stroke="rgba(0,0,0,0.47)"/>
    <path d="M7.34,-3C6.14,-1 4.14,1 1.54,1C-0.66,1 -2.16,-0.50 -2.16,-3.30L-2.16,-15M7.34,-15L7.34,1M-1.26,-18.80C-0.66,-19.90 0.14,-20.20 0.84,-20.20C2.24,-20.20 3.04,-18.80 4.54,-18.80C5.24,-18.80 6.04,-19.10 6.64,-20.20" fill="none" stroke="rgba(0,0,0,0.47)"/>
    <path d="M-3.62,-17.20L-3.62,-4.70C-3.62,-0.10 -1.12,2.40 2.58,2.40C6.48,2.40 8.78,-0.10 8.78,-4.70L8.78,-17.20M5.78,-21.50L-0.62,-21.50" fill="none" stroke="rgba(0,0,0,0.47)"/>
    <path d="M7.32,-3.50C6.12,-1.50 4.12,0.50 1.52,0.50C-0.68,0.50 -2.18,-1 -2.18,-3.80L-2.18,-15.50M7.32,-15.40L7.32,0.60M5.92,-19.70L-0.48,-19.70" fill="none" stroke="rgba(0,0,0,0.47)"/>
    <path d="M-3.64,-16.40L-3.64,-3.90C-3.64,0.70 -1.14,3.20 2.56,3.20C6.46,3.20 8.76,0.70 8.76,-3.90L8.76,-16.40M-0.84,-22.30C-0.84,-20.70 0.66,-19.90 2.56,-19.90C4.46,-19.90 6.06,-20.60 6.06,-22.20" fill="none" stroke="rgba(0,0,0,0.47)"/>
    <path d="M7.40,-2.60C6.20,-0.60 4.20,1.40 1.60,1.40C-0.60,1.40 -2.10,-0.10 -2.10,-2.90L-2.10,-14.60M7.40,-14.60L7.40,1.40M-0.70,-20.50C-0.70,-18.90 0.80,-18.10 2.70,-18.10C4.60,-18.10 6.20,-18.80 6.20,-20.40" fill="none" stroke="rgba(0,0,0,0.47)"/>
    <path d="M-3.66,-15.90L-3.66,-3.40C-3.66,1.20 -1.16,3.70 2.54,3.70C6.44,3.70 8.74,1.20 8.74,-3.40L8.74,-15.90M2.54,-22.70C1.34,-22.70 0.44,-21.70 0.44,-20.60C0.44,-19.40 1.44,-18.50 2.54,-18.50C3.74,-18.50 4.64,-19.50 4.64,-20.60C4.74,-21.80 3.74,-22.70 2.54,-22.70" fill="none" stroke="rgba(0,0,0,0.47)"/>
    <path d="M7.38,-2.20C6.18,-0.20 4.18,1.80 1.58,1.80C-0.62,1.80 -2.12,0.30 -2.12,-2.50L-2.12,-14.20M7.38,-14.10L7.38,1.90M2.68,-20.90C1.48,-20.90 0.58,-19.90 0.58,-18.80C0.58,-17.60 1.58,-16.70 2.68,-16.70C3.88,-16.70 4.78,-17.70 4.78,-18.80C4.78,-20 3.88,-20.90 2.68,-20.90" fill="none" stroke="rgba(0,0,0,0.47)"/>
    <path d="M-3.58,-16.10L-3.58,-3.60C-3.58,1 -1.08,3.50 2.62,3.50C6.52,3.50 8.82,1 8.82,-3.60L8.82,-16.10M-1.08,-19L2.62,-22.60M3.22,-19L6.92,-22.60" fill="none" stroke="rgba(0,0,0,0.47)"/>
    <path d="M7.36,-2.30C6.16,-0.30 4.16,1.70 1.56,1.70C-0.64,1.70 -2.14,0.20 -2.14,-2.60L-2.14,-14.30M7.36,-14.30L7.36,1.70M-0.94,-17.20L2.76,-20.80M3.26,-17.20L6.96,-20.80" fill="none" stroke="rgba(0,0,0,0.47)"/>
    <path d="M-3.60,-22.20L-3.60,-9.70C-3.60,-5.10 -1.10,-2.60 2.60,-2.60C6.50,-2.60 8.80,-5.10 8.80,-9.70L8.80,-22.20M4.30,2.70C3.90,2.90 3.20,3.20 2.50,3.20C1.10,3.20 0.30,2.50 0.30,1.20C0.30,0 1.80,-1.40 3.10,-2.50" fill="none" stroke="rgba(0,0,0,0.47)"/>
    <path d="M6.74,-8.46C5.54,-6.46 3.54,-4.46 0.94,-4.46C-1.26,-4.46 -2.76,-5.96 -2.76,-8.76L-2.76,-20.46M6.74,-20.46L6.74,-4.46M7.94,0.84C7.54,1.04 6.84,1.34 6.14,1.34C4.74,1.34 3.94,0.64 3.94,-0.66C3.94,-1.86 5.44,-3.26 6.74,-4.36" fill="none" stroke="rgba(0,0,0,0.47)"/>
    <path d="M-8.12,-16.16L-3.12,3.24L-3.02,3.24L2.48,-15.96L2.58,-15.96L8.08,3.24L8.18,3.24L13.38,-16.16M5.78,-18.76L2.68,-22.36L2.48,-22.36L-0.62,-18.76" fill="none" stroke="rgba(0,0,0,0.47)"/>
    <path d="M-7.08,-14.36L-2.28,1.64L-2.18,1.64L2.62,-14.06L2.72,-14.06L7.72,1.64L7.82,1.64L12.42,-14.36M5.82,-17.06L2.72,-20.66L2.62,-20.66L-0.48,-17.06" fill="none" stroke="rgba(0,0,0,0.47)"/>
    <path d="M2.56,3.44L2.56,-5.06M-4.24,-16.16L2.56,-5.06L9.46,-16.16M5.96,-18.86L2.86,-22.46L2.76,-22.46L-0.34,-18.86" fill="none" stroke="rgba(0,0,0,0.47)"/>
    <path d="M2.70,-0.66L-3.20,-17.06M-2.30,3.94C-1.80,4.24 -1.30,4.34 -0.80,4.34C0.80,4.34 1.70,2.84 2.70,-0.66L8.50,-17.06M5.70,-19.76L2.60,-23.36L2.50,-23.36L-0.60,-19.76" fill="none" stroke="rgba(0,0,0,0.47)"/>
    <path d="M2.54,3.54L2.54,-4.96M-4.16,-16.06L2.64,-4.96L9.54,-16.06M0.74,-19.06L0.74,-22.66M4.74,-19.06L4.74,-22.66" fill="none" stroke="rgba(0,0,0,0.47)"/>
    <path d="M8.38,3.44L-3.12,3.44L-3.12,3.34L7.98,-15.46L7.98,-15.56L-3.22,-15.56M0.38,-18.76L4.28,-22.56" fill="none" stroke="rgba(0,0,0,0.47)"/>
    <path d="M7.82,1.64L-2.58,1.64L-2.58,1.54L7.32,-13.66L7.32,-13.76L-2.48,-13.76M0.32,-16.96L4.22,-20.76" fill="none" stroke="rgba(0,0,0,0.47)"/>
    <path d="M8.36,3.44L-3.14,3.44L-3.14,3.34L7.96,-15.46L7.96,-15.56L-3.24,-15.56M2.36,-19.46L2.36,-22.56" fill="none" stroke="rgba(0,0,0,0.47)"/>
    <path d="M7.80,1.64L-2.60,1.64L-2.60,1.54L7.40,-13.66L7.40,-13.76L-2.40,-13.76M2.30,-17.66L2.30,-20.76" fill="none" stroke="rgba(0,0,0,0.47)"/>
    <path d="M8.34,3.24L-3.16,3.24L-3.16,3.14L7.94,-15.66L7.94,-15.76L-3.26,-15.76M-0.86,-22.36L2.24,-18.76L2.34,-18.76L5.44,-22.36" fill="none" stroke="rgba(0,0,0,0.47)"/>
    <path d="M7.78,1.44L-2.62,1.44L-2.62,1.34L7.28,-13.86L7.28,-13.96L-2.52,-13.96M-0.92,-20.56L2.18,-16.96L2.28,-16.96L5.38,-20.56" fill="none" stroke="rgba(0,0,0,0.47)"/>
    <path d="M-4.38,1.54C-3.98,1.84 -3.38,2.04 -2.58,2.04C-1.28,2.04 0.02,1.44 0.52,-0.96L4.32,-18.06C4.82,-20.46 6.22,-21.06 7.82,-21.06C8.62,-21.06 9.22,-20.86 9.72,-20.46M-0.58,-12.56L6.72,-12.56" fill="none" stroke="rgba(0,0,0,0.47)"/>
    <path d="M-2.84,-6.36C-2.04,-4.46 -0.04,-3.26 2.66,-3.26C6.06,-3.26 8.16,-5.36 8.16,-7.96C8.16,-13.76 -2.44,-12.86 -2.44,-18.46C-2.44,-20.76 -0.64,-22.86 2.86,-22.86C5.36,-22.86 6.86,-21.76 7.56,-20.26M1.46,3.74L3.66,-0.76" fill="none" stroke="rgba(0,0,0,0.47)"/>
    <path d="M-2.30,-8.46C-1.60,-6.36 0.40,-5.06 2.90,-5.06C5.20,-5.06 7.70,-6.26 7.70,-8.96C7.70,-14.26 -1.70,-12.46 -1.70,-17.46C-1.70,-19.96 0.70,-21.06 2.80,-21.06C4.80,-21.06 6.40,-20.06 7.10,-18.36M1.30,1.94L3.50,-2.56" fill="none" stroke="rgba(0,0,0,0.47)"/>
    <path d="M0.34,3.24L2.54,-1.26M2.64,-3.06L2.64,-22.36M-3.66,-22.36L9.04,-22.36" fill="none" stroke="rgba(0,0,0,0.47)"/>
    <path d="M6.58,-4.26C6.08,-3.76 5.28,-3.46 4.28,-3.46C2.48,-3.46 1.48,-4.46 1.48,-6.86L1.48,-22.46M-1.32,-17.96L6.28,-17.96M2.78,3.44L4.98,-1.06" fill="none" stroke="rgba(0,0,0,0.47)"/>
    <path d="M0.32,0.44C0.72,0.84 1.42,1.14 2.42,1.14C4.22,1.14 4.92,0.04 4.92,-1.96L4.92,-20.36" fill="none" stroke="rgba(0,0,0,0.47)"/>
    <path d="M5.86,-7.76L2.76,-11.36L2.56,-11.36L-0.54,-7.76" fill="none" stroke="rgba(0,0,0,0.47)"/>
    <path d="M-0.60,-11.36L2.50,-7.76L2.60,-7.76L5.70,-11.36" fill="none" stroke="rgba(0,0,0,0.47)"/>
    <path d="M-0.86,-10.72C-0.86,-9.12 0.64,-8.32 2.54,-8.32C4.44,-8.32 6.04,-9.02 6.04,-10.62" fill="none" stroke="rgba(0,0,0,0.47)"/>
    <path d="M2.68,-7.72L2.68,-11.42L2.58,-11.42" fill="none" stroke="rgba(0,0,0,0.47)"/>
    <path d="M2.62,-11.62C1.42,-11.62 0.52,-10.62 0.52,-9.52C0.52,-8.42 1.52,-7.42 2.62,-7.42C3.82,-7.42 4.72,-8.42 4.72,-9.52C4.72,-10.62 3.82,-11.62 2.62,-11.62" fill="none" stroke="rgba(0,0,0,0.47)"/>
    <path d="M4.66,-7.12C4.26,-6.92 3.56,-6.62 2.86,-6.62C1.46,-6.62 0.66,-7.32 0.66,-8.62C0.66,-9.82 2.16,-11.22 3.46,-12.32" fill="none" stroke="rgba(0,0,0,0.47)"/>
    <path d="M-1.40,-8.82C-0.80,-9.92 0,-10.22 0.70,-10.22C2.10,-10.22 2.90,-8.82 4.40,-8.82C5.10,-8.82 5.90,-9.12 6.50,-10.22" fill="none" stroke="rgba(0,0,0,0.47)"/>
    <path d="M-1.26,-7.72L2.44,-11.32M2.94,-7.72L6.64,-11.32" fill="none" stroke="rgba(0,0,0,0.47)"/>
    <path d="M0.68,-11.52L4.58,-7.72" fill="none" stroke="rgba(0,0,0,0.47)"/>
    <path d="M0.72,-7.62L4.62,-11.42" fill="none" stroke="rgba(0,0,0,0.47)"/>
    <path d="M5.86,-7.72L2.76,-11.32L2.66,-11.32L-0.44,-7.72" fill="none" stroke="rgba(0,0,0,0.47)"/>
    <path d="M-1.40,-8.82C-0.80,-9.92 0,-10.22 0.70,-10.22C2.10,-10.22 2.90,-8.82 4.40,-8.82C5.10,-8.82 5.90,-9.12 6.50,-10.22" fill="none" stroke="rgba(0,0,0,0.47)"/>
    <path d="M5.84,-9.52L-0.56,-9.52" fill="none" stroke="rgba(0,0,0,0.47)"/>
    <path d="M-0.82,-10.72C-0.82,-9.12 0.68,-8.32 2.58,-8.32C4.48,-8.32 6.08,-9.02 6.08,-10.62" fill="none" stroke="rgba(0,0,0,0.47)"/>
    <path d="M2.62,-8.02L2.62,-11.12" fill="none" stroke="rgba(0,0,0,0.47)"/>
    <path d="M0.56,-7.72L0.56,-11.32M4.66,-7.72L4.66,-11.32" fill="none" stroke="rgba(0,0,0,0.47)"/>
    <path d="M2.60,-11.62C1.40,-11.62 0.50,-10.62 0.50,-9.52C0.50,-8.42 1.50,-7.42 2.60,-7.42C3.80,-7.42 4.70,-8.42 4.70,-9.52C4.70,-10.62 3.80,-11.62 2.60,-11.62" fill="none" stroke="rgba(0,0,0,0.47)"/>
    <path d="M-1.26,-7.72L2.44,-11.32M2.94,-7.72L6.64,-11.32" fill="none" stroke="rgba(0,0,0,0.47)"/>
    <path d="M-0.52,-11.32L2.58,-7.72L2.68,-7.72L5.78,-11.32" fill="none" stroke="rgba(0,0,0,0.47)"/>
    <path d="M3.72,-11.82L1.52,-7.32" fill="none" stroke="rgba(0,0,0,0.47)"/>
    <path d="M1.56,-7.32L3.76,-11.82" fill="none" stroke="rgba(0,0,0,0.47)"/>
    <path d="M0.50,-7.22C0.90,-7.02 1.40,-6.82 2.30,-6.82C3.80,-6.82 4.70,-7.52 4.70,-8.52C4.70,-9.62 3.80,-10.12 2.30,-10.12L1.60,-10.12L2.90,-12.32" fill="none" stroke="rgba(0,0,0,0.47)"/>
    <path d="M4.64,-7.18C4.24,-6.98 3.54,-6.68 2.84,-6.68C1.44,-6.68 0.64,-7.38 0.64,-8.68C0.64,-9.88 2.14,-11.28 3.44,-12.38" fill="none" stroke="rgba(0,0,0,0.47)"/>
    <path d="M-4.52,-0.18L-4.52,0.02L9.88,0.02L9.88,-0.28L2.78,-19.18L2.48,-19.18L-4.52,-0.18" fill="none" stroke="rgba(0,0,0,0.47)"/>
    <path d="M-1.28,-1.68L-1.28,-17.38M9.62,-1.78C9.42,-1.68 9.12,-1.68 8.72,-1.68C7.12,-1.68 6.22,-2.68 6.22,-4.78L6.22,-17.38M9.72,-17.38L-4.48,-17.38" fill="none" stroke="rgba(0,0,0,0.47)"/>
    <path d="M10.46,0.12L5.46,0.12L5.46,-0.48C7.66,-2.48 9.86,-5.68 9.86,-10.08C9.86,-15.28 6.96,-19.08 2.76,-19.08C-1.54,-19.08 -4.34,-15.28 -4.34,-10.08C-4.34,-5.58 -2.24,-2.48 -0.04,-0.48L-0.04,0.12L-5.04,0.12" fill="none" stroke="rgba(0,0,0,0.47)"/>
    <path d="M-8.20,-15.88L-3.20,3.52L-3.10,3.52L2.40,-15.68L2.50,-15.68L8,3.52L8.10,3.52L13.30,-15.88M0.60,-22.68L4.50,-18.88" fill="none" stroke="rgba(0,0,0,0.47)"/>
    <path d="M-7.16,-14.18L-2.36,1.82L-2.26,1.82L2.54,-13.88L2.64,-13.88L7.64,1.82L7.74,1.82L12.34,-14.18M0.74,-20.98L4.64,-17.18" fill="none" stroke="rgba(0,0,0,0.47)"/>
    <path d="M-8.12,-15.88L-3.12,3.52L-3.02,3.52L2.48,-15.68L2.58,-15.68L8.08,3.52L8.18,3.52L13.38,-15.88M0.58,-18.78L4.48,-22.58" fill="none" stroke="rgba(0,0,0,0.47)"/>
    <path d="M-7.08,-14.18L-2.28,1.82L-2.18,1.82L2.62,-13.88L2.72,-13.88L7.72,1.82L7.82,1.82L12.42,-14.18M0.72,-17.08L4.62,-20.88" fill="none" stroke="rgba(0,0,0,0.47)"/>
    <path d="M-8.14,-15.98L-3.14,3.42L-3.04,3.42L2.46,-15.78L2.56,-15.78L8.06,3.42L8.16,3.42L13.36,-15.98M0.56,-18.98L0.56,-22.58M4.66,-18.98L4.66,-22.58" fill="none" stroke="rgba(0,0,0,0.47)"/>
    <path d="M-7.10,-14.28L-2.30,1.72L-2.20,1.72L2.60,-13.98L2.70,-13.98L7.70,1.72L7.80,1.72L12.40,-14.28M0.60,-17.28L0.60,-20.88M4.70,-17.28L4.70,-20.88" fill="none" stroke="rgba(0,0,0,0.47)"/>
    <path d="M0.14,-0.58C0.84,-0.18 1.84,0.12 3.04,0.12C6.24,0.12 8.64,-1.98 8.64,-5.28C8.64,-8.88 5.74,-11.08 2.64,-11.48L7.34,-19.08L7.34,-19.18L-3.36,-19.18L-3.36,0.12" fill="none" stroke="rgba(0,0,0,0.47)"/>
    <path d="M2.58,3.62L2.58,-4.88M-4.22,-15.98L2.58,-4.88L9.48,-15.98M0.78,-22.78L4.68,-18.98" fill="none" stroke="rgba(0,0,0,0.47)"/>
    <path d="M2.72,-0.48L-3.18,-16.88M-2.28,4.12C-1.78,4.42 -1.28,4.52 -0.78,4.52C0.82,4.52 1.72,3.02 2.72,-0.48L8.52,-16.88M0.52,-23.68L4.42,-19.88" fill="none" stroke="rgba(0,0,0,0.47)"/>
    <path d="M-4.44,-9.58L9.76,-9.58" fill="none" stroke="rgba(0,0,0,0.47)"/>
    <path d="M-8.40,-9.58L13.70,-9.58" fill="none" stroke="rgba(0,0,0,0.47)"/>
    <path d="M3.74,-12.58L1.54,-8.08L1.54,-6.48L3.14,-6.48" fill="none" stroke="rgba(0,0,0,0.47)"/>
    <path d="M1.48,-6.58L3.68,-11.08L3.68,-12.68L2.08,-12.68" fill="none" stroke="rgba(0,0,0,0.47)"/>
    <path d="M1.52,-6.58L3.72,-11.08L3.72,-12.68L2.12,-12.68" fill="none" stroke="rgba(0,0,0,0.47)"/>
    <path d="M6.26,-12.58L4.06,-8.08L4.06,-6.48L5.56,-6.48M1.26,-12.58L-0.94,-8.08L-0.94,-6.48L0.56,-6.48" fill="none" stroke="rgba(0,0,0,0.47)"/>
    <path d="M-1,-6.58L1.20,-11.08L1.20,-12.68L-0.40,-12.68M4,-6.58L6.20,-11.08L6.20,-12.68L4.60,-12.68" fill="none" stroke="rgba(0,0,0,0.47)"/>
    <path d="M-0.96,-6.54L1.24,-11.04L1.24,-12.64L-0.36,-12.64M4.04,-6.54L6.24,-11.04L6.24,-12.64L4.64,-12.64" fill="none" stroke="rgba(0,0,0,0.47)"/>
    <path d="M2.68,2.06L2.68,-21.14M-3.62,-14.84L8.98,-14.84" fill="none" stroke="rgba(0,0,0,0.47)"/>
    <path d="M-3.38,-4.84L8.72,-4.84M2.62,2.06L2.62,-21.14M-3.38,-14.24L8.72,-14.24" fill="none" stroke="rgba(0,0,0,0.47)"/>
    <path d="M2.56,-12.54C0.86,-12.54 -0.44,-11.14 -0.44,-9.54C-0.44,-7.94 0.96,-6.54 2.56,-6.54C4.26,-6.54 5.56,-7.94 5.56,-9.54C5.66,-11.24 4.26,-12.54 2.56,-12.54" fill="none" stroke="rgba(0,0,0,0.47)"/>
    <path d="M-6.40,-11.14L-6.40,-7.94M2.60,-11.14L2.60,-7.94M11.70,-11.14L11.70,-7.94" fill="none" stroke="rgba(0,0,0,0.47)"/>
    <path d="M-6.86,0.26L3.44,-19.34M-6.86,-19.34C-8.96,-19.34 -10.06,-17.14 -10.06,-14.44C-10.06,-11.64 -9.06,-9.54 -6.86,-9.54C-4.66,-9.54 -3.66,-11.64 -3.66,-14.44C-3.66,-17.14 -4.66,-19.34 -6.86,-19.34M3.44,-9.54C1.34,-9.54 0.24,-7.34 0.24,-4.64C0.24,-1.84 1.24,0.26 3.44,0.26C5.64,0.26 6.64,-1.84 6.64,-4.64C6.64,-7.34 5.54,-9.54 3.44,-9.54L3.44,-9.54ZM12.04,-9.54C9.94,-9.54 8.84,-7.34 8.84,-4.64C8.84,-1.84 9.84,0.26 12.04,0.26C14.24,0.26 15.24,-1.84 15.24,-4.64C15.24,-7.34 14.24,-9.54 12.04,-9.54" fill="none" stroke="rgba(0,0,0,0.47)"/>
    <path d="M2.68,-6.64L2.68,-12.54L2.68,-12.54" fill="none" stroke="rgba(0,0,0,0.47)"/>
    <path d="M0.52,-6.64L0.52,-12.54L0.52,-12.54M4.82,-6.64L4.82,-12.54L4.82,-12.54" fill="none" stroke="rgba(0,0,0,0.47)"/>
    <path d="M4.96,-3.64L0.36,-9.34L0.36,-9.64L4.96,-15.34" fill="none" stroke="rgba(0,0,0,0.47)"/>
    <path d="M0.40,-15.44L5,-9.74L5,-9.44L0.40,-3.74" fill="none" stroke="rgba(0,0,0,0.47)"/>
    <path d="M-1.46,0.06L-4.26,-3.84L-7.06,0.06M-8.76,-5.14L-4.26,-3.84L0.24,-5.14M-4.26,-3.74L-4.26,-8.34M12.34,0.06L9.54,-3.84L6.74,0.06M5.04,-5.14L9.54,-3.84L14.04,-5.14M5.44,-10.74L2.64,-14.64L-0.16,-10.74M9.54,-3.74L9.54,-8.34M-1.86,-15.94L2.64,-14.64L7.14,-15.94M2.64,-14.54L2.64,-19.14" fill="none" stroke="rgba(0,0,0,0.47)"/>
    <path d="M-2.52,0.26L7.78,-19.34" fill="none" stroke="rgba(0,0,0,0.47)"/>
    <path d="M2.62,-14.44C0.52,-14.44 -0.58,-12.24 -0.58,-9.54C-0.58,-6.74 0.42,-4.64 2.62,-4.64C4.82,-4.64 5.82,-6.74 5.82,-9.54C5.82,-12.24 4.82,-14.44 2.62,-14.44" fill="none" stroke="rgba(0,0,0,0.47)"/>
    <path d="M4.06,-4.74L4.06,-14.34L3.96,-14.34L-0.54,-7.04L-0.54,-6.94L5.86,-6.94" fill="none" stroke="rgba(0,0,0,0.47)"/>
    <path d="M0,-6.74C0.50,-5.44 1.40,-4.74 2.60,-4.74C4.20,-4.74 5.40,-5.94 5.40,-7.74C5.40,-9.44 4.30,-10.74 2.60,-10.74C1.90,-10.74 1.10,-10.54 0.50,-10.14L0.60,-14.34L5.10,-14.34" fill="none" stroke="rgba(0,0,0,0.47)"/>
    <path d="M3.64,-14.44L1.34,-11.34C0.14,-9.74 -0.26,-8.74 -0.26,-7.54C-0.26,-6.14 0.54,-4.54 2.64,-4.54C4.44,-4.54 5.54,-5.74 5.54,-7.44C5.54,-9.24 4.24,-10.34 2.74,-10.34C1.74,-10.34 0.64,-9.84 -0.06,-8.84" fill="none" stroke="rgba(0,0,0,0.47)"/>
    <path d="M0.98,-4.74L5.58,-14.34L5.58,-14.44L-0.22,-14.44" fill="none" stroke="rgba(0,0,0,0.47)"/>
    <path d="M2.62,-14.44C4.02,-14.44 5.02,-13.54 5.02,-12.34C5.02,-9.74 -0.08,-9.94 -0.08,-6.94C-0.08,-5.44 1.22,-4.64 2.62,-4.64C4.02,-4.64 5.42,-5.44 5.42,-6.94C5.42,-9.94 0.32,-9.64 0.32,-12.34C0.22,-13.44 1.02,-14.44 2.62,-14.44" fill="none" stroke="rgba(0,0,0,0.47)"/>
    <path d="M1.66,-4.64L3.96,-7.74C5.16,-9.34 5.56,-10.34 5.56,-11.54C5.56,-12.94 4.76,-14.54 2.66,-14.54C0.86,-14.54 -0.24,-13.34 -0.24,-11.64C-0.24,-9.84 1.06,-8.74 2.56,-8.74C3.56,-8.74 4.66,-9.24 5.36,-10.24" fill="none" stroke="rgba(0,0,0,0.47)"/>
    <path d="M-4.90,-8.04L7.50,-8.04M-4.90,-12.04L7.40,-12.04M10.20,-0.94C8.80,-0.04 7.40,0.26 5.90,0.26C0.40,0.26 -1.70,-3.84 -1.70,-9.54C-1.70,-16.14 1.20,-19.34 5.80,-19.34C7.50,-19.34 9,-18.94 10.10,-17.94" fill="none" stroke="rgba(0,0,0,0.47)"/>
    <path d="M-1.96,-3.90C2.34,-7.20 5.94,-11.30 5.94,-15.70C5.94,-17.80 5.14,-19.30 3.34,-19.30C1.74,-19.30 0.44,-18 0.44,-13.70L0.44,-4.90C0.44,-1.50 1.54,0.30 3.84,0.30C5.84,0.30 6.84,-1.20 7.14,-2.10" fill="none" stroke="rgba(0,0,0,0.47)"/>
    <path d="M-4.02,-4.30L-4.02,-14.50M-7.92,-14.60L-0.02,-14.60M13.18,-4.30L13.18,-14.80L13.08,-14.80L8.08,-4.80L7.98,-4.80L2.98,-14.80L2.88,-14.80L2.88,-4.30" fill="none" stroke="rgba(0,0,0,0.47)"/>
    <path d="M-3.48,-2.20L-3.48,-16.60M-2.18,-10L13.92,-10C13.92,-14.60 10.62,-19.30 2.92,-19.30C-4.78,-19.30 -8.48,-14.10 -8.48,-9.20C-8.48,-4.60 -4.78,0.30 2.92,0.30C7.02,0.30 10.12,-1.30 11.72,-3.10M9.12,-10.80L9.12,-16.70" fill="none" stroke="rgba(0,0,0,0.47)"/>
    <path d="M5.06,-1.50C5.36,-0.40 6.36,0.30 7.76,0.30C9.46,0.30 10.56,-0.80 10.56,-2.20C10.56,-3.50 9.76,-4.80 7.56,-4.80L7.16,-4.80M7.56,-4.90C9.46,-4.90 10.36,-6 10.36,-7.30C10.36,-8.50 9.56,-9.50 7.86,-9.50C6.46,-9.50 5.66,-8.80 5.26,-8M-3.04,0.20L7.26,-19.40M-2.14,-9.60L-2.14,-19.20L-2.24,-19.20L-5.34,-17" fill="none" stroke="rgba(0,0,0,0.47)"/>
    <path d="M-0.10,-9.60L-5.90,-9.60L-5.90,-9.70L-2.70,-13.20C-1.60,-14.40 -0.50,-15.50 -0.50,-17.10C-0.50,-18.70 -1.60,-19.40 -2.90,-19.40C-4.20,-19.40 -5.20,-18.70 -5.60,-17.40M5.70,-1.50C6,-0.40 7,0.30 8.40,0.30C10.10,0.30 11.20,-0.80 11.20,-2.20C11.20,-3.50 10.40,-4.80 8.20,-4.80L7.80,-4.80M8.20,-4.90C10.10,-4.90 11,-6 11,-7.30C11,-8.50 10.20,-9.50 8.50,-9.50C7.10,-9.50 6.30,-8.80 5.90,-8M-2.40,0.20L7.90,-19.40" fill="none" stroke="rgba(0,0,0,0.47)"/>
    <path d="M-7.36,-9.60L12.74,-9.60M0.74,-18.40L-7.46,-9.60L0.74,-0.80" fill="none" stroke="rgba(0,0,0,0.47)"/>
    <path d="M2.68,-19.60L2.68,0.50M11.48,-11.40L2.68,-19.60L-6.12,-11.40" fill="none" stroke="rgba(0,0,0,0.47)"/>
    <path d="M12.62,-9.60L-7.48,-9.60M4.52,-0.70L12.72,-9.50L4.52,-18.30" fill="none" stroke="rgba(0,0,0,0.47)"/>
    <path d="M2.66,0.50L2.66,-19.60M-6.14,-7.70L2.66,0.50L11.46,-7.70" fill="none" stroke="rgba(0,0,0,0.47)"/>
    <path d="M-4.10,-0.70L-11.10,-9.50L-4.10,-18.30M16.40,-9.60L-11.20,-9.60M9.40,-0.70L16.40,-9.50L9.40,-18.30" fill="none" stroke="rgba(0,0,0,0.47)"/>
    <path d="M-6.16,-2.80L2.64,4.20L11.44,-2.80M2.64,4.20L2.64,-23.40M11.44,-16.30L2.64,-23.30L-6.16,-16.30" fill="none" stroke="rgba(0,0,0,0.47)"/>
    <path d="M9.88,-2.20L-3.72,-16.90M8.28,-16.90L-3.72,-16.90L-4.62,-4.90" fill="none" stroke="rgba(0,0,0,0.47)"/>
    <path d="M8.92,-16.90L-4.68,-2.20M9.92,-5L9.02,-17L-2.98,-17" fill="none" stroke="rgba(0,0,0,0.47)"/>
    <path d="M-4.64,-16.90L8.96,-2.20M-3.04,-2.20L8.96,-2.20L9.86,-14.20" fill="none" stroke="rgba(0,0,0,0.47)"/>
    <path d="M-3.70,-2.20L9.90,-16.90M-4.60,-14.10L-3.70,-2.10L8.30,-2.10" fill="none" stroke="rgba(0,0,0,0.47)"/>
    <path d="M7.44,-7.30C6.74,-9.50 4.94,-11.40 2.54,-11.40C-0.76,-11.40 -2.46,-7.80 -2.46,-4.40C-2.46,-1.50 -1.16,1.20 1.74,1.20C6.94,1.20 7.74,-7.20 7.74,-10.20C7.74,-13.10 7.04,-20.30 1.94,-20.30C0.64,-20.30 -0.66,-19.80 -1.56,-19.20" fill="none" stroke="rgba(0,0,0,0.47)"/>
    <path d="M-1.72,1.50L-1.72,-20.60M6.98,1.50L6.98,-20.60M-5.82,-20.60L11.08,-20.60" fill="none" stroke="rgba(0,0,0,0.47)"/>
    <path d="M8.82,1.40L-3.58,1.40L-3.58,1.30L4.22,-9.60L-3.08,-20.40L-3.08,-20.50L8.32,-20.50" fill="none" stroke="rgba(0,0,0,0.47)"/>
    <path d="M-4.04,-9.60L9.36,-9.60" fill="none" stroke="rgba(0,0,0,0.47)"/>
    <path d="M2.60,-11C1.80,-11 1.20,-10.40 1.20,-9.60C1.20,-8.80 1.80,-8.20 2.60,-8.20C3.40,-8.20 4,-8.80 4,-9.60C4,-10.40 3.40,-11 2.60,-11" fill="none" stroke="rgba(0,0,0,0.47)"/>
    <path d="M-5.66,-10.86L-0.96,2.34L-0.86,2.34L5.64,-21.46L10.94,-21.46" fill="none" stroke="rgba(0,0,0,0.47)"/>
    <path d="M12.28,-9.56C12.28,-7.46 10.98,-5.56 8.38,-5.56C3.78,-5.56 1.38,-13.66 -3.22,-13.66C-5.72,-13.66 -7.02,-11.76 -7.02,-9.66C-7.02,-7.56 -5.72,-5.56 -3.22,-5.56C1.38,-5.56 3.88,-13.66 8.38,-13.66C10.98,-13.56 12.28,-11.66 12.28,-9.56" fill="none" stroke="rgba(0,0,0,0.47)"/>
    <path d="M-1.68,2.24C-1.38,2.54 -0.78,2.64 -0.18,2.64C1.72,2.64 2.72,1.34 2.72,-1.76L2.72,-17.36C2.72,-20.56 3.72,-21.76 5.62,-21.86C6.22,-21.86 6.82,-21.66 7.12,-21.46" fill="none" stroke="rgba(0,0,0,0.47)"/>
    <path d="M-3.24,-11.06C-2.24,-12.66 -1.14,-13.16 -0.04,-13.16C1.96,-13.16 3.26,-11.06 5.46,-11.06C6.56,-11.06 7.66,-11.46 8.56,-13.06M-3.24,-5.96C-2.24,-7.56 -1.14,-8.06 -0.04,-8.06C1.96,-8.06 3.26,-5.96 5.46,-5.96C6.56,-5.96 7.66,-6.36 8.56,-7.96" fill="none" stroke="rgba(0,0,0,0.47)"/>
    <path d="M8,-6.66L-2.80,-6.66M-0.20,-3.26L5.40,-15.76M8,-12.46L-2.80,-12.46" fill="none" stroke="rgba(0,0,0,0.47)"/>
    <path d="M-3.06,-2.06L8.34,-2.06M8.34,-17.06L-3.16,-11.66L-3.16,-11.56L8.34,-6.16" fill="none" stroke="rgba(0,0,0,0.47)"/>
    <path d="M-3.02,-2.06L8.38,-2.06M-3.12,-6.16L8.38,-11.56L8.38,-11.66L-3.12,-17.06" fill="none" stroke="rgba(0,0,0,0.47)"/>
    <path d="M-6.88,-18.96L-6.88,0.04L12.12,0.04L12.12,-18.96L-6.88,-18.96" fill="none" stroke="rgba(0,0,0,0.47)"/>
    <path d="M-8.34,-0.06L13.56,-0.06L2.66,-19.06L-8.34,-0.06" fill="none" stroke="rgba(0,0,0,0.47)"/>
    <path d="M-6.40,-1.86L11.60,-1.86L2.60,-17.26L-6.40,-1.86" fill="none" stroke="rgba(0,0,0,0.47)"/>
    <path d="M-7.16,-9.56L2.64,0.24L12.44,-9.56L2.64,-19.36L-7.16,-9.56" fill="none" stroke="rgba(0,0,0,0.47)"/>
    <path d="M-2.82,-9.56L-2.82,-9.36L2.48,0.64L2.78,0.64L8.08,-9.36L8.08,-9.66L2.78,-19.86L2.48,-19.86L-2.82,-9.56" fill="none" stroke="rgba(0,0,0,0.47)"/>
    <path d="M2.62,-19.36C-2.78,-19.36 -7.18,-14.96 -7.18,-9.56C-7.18,-4.16 -2.78,0.24 2.62,0.24C8.02,0.24 12.42,-4.16 12.42,-9.56C12.42,-14.96 8.02,-19.36 2.62,-19.36" fill="none" stroke="rgba(0,0,0,0.47)"/>
    <path d="M-5.24,-9.56L2.66,-1.56L10.56,-9.56L2.66,-17.56L-5.24,-9.56" fill="none" stroke="rgba(0,0,0,0.47)"/>
    <path d="M-5.10,-17.16L-5.10,-1.76L10.30,-1.76L10.30,-17.26L-5.10,-17.16" fill="none" stroke="rgba(0,0,0,0.47)"/>
    <path d="M2.64,-17.56C-1.76,-17.56 -5.26,-13.96 -5.26,-9.56C-5.26,-5.16 -1.66,-1.56 2.74,-1.56C7.14,-1.56 10.74,-5.16 10.74,-9.56C10.64,-13.96 7.04,-17.56 2.64,-17.56" fill="none" stroke="rgba(0,0,0,0.47)"/>
    <path d="M-6.42,-4.06C-4.82,-0.96 -1.52,1.14 2.28,1.14C7.68,1.14 12.08,-3.26 12.08,-8.66C12.08,-14.06 7.68,-18.46 2.28,-18.46C-1.52,-18.46 -4.72,-16.36 -6.42,-13.26M-6.72,-20.26L-6.42,-13.16L0.68,-12.86" fill="none" stroke="rgba(0,0,0,0.47)"/>
    <path d="M11.72,-13.16C10.12,-16.26 6.82,-18.36 3.02,-18.36C-2.38,-18.36 -6.78,-13.96 -6.78,-8.56C-6.78,-3.16 -2.38,1.24 3.02,1.24C6.82,1.24 10.12,-0.86 11.72,-3.96M4.62,-12.96L11.72,-13.26L12.02,-20.36" fill="none" stroke="rgba(0,0,0,0.47)"/>
    <path d="M-0.54,1.74L-0.54,-16.06C-0.54,-18.26 0.56,-19.66 2.56,-19.66C3.36,-19.66 4.06,-19.46 4.56,-19.06M-3.44,-12.66L3.66,-12.66M8.76,1.74L8.76,-14.26M8.76,-17.76L8.76,-20.86" fill="none" stroke="rgba(0,0,0,0.47)"/>
    <path d="M-2.30,1.14L-2.30,-16.66C-2.30,-18.86 -1.20,-20.26 0.80,-20.26C1.60,-20.26 2.30,-20.06 2.80,-19.66M-5.10,-13.26L2,-13.26M10.40,1.04C10.20,1.14 9.90,1.14 9.50,1.14C7.90,1.14 7,0.14 7,-1.96L7,-20.26" fill="none" stroke="rgba(0,0,0,0.47)"/>
</svg>