<svg xmlns="http://www.w3.org/2000/svg" viewBox="-265.54 -138.1 546.7 437.46">
<path d="M-31.175,-56.016 C-17.321,-19.924 -48.096,25.46 -99.914,45.351 C-151.732,65.242 -204.97,52.108 -218.825,16.016 C-232.679,-20.076 -201.904,-65.46 -150.086,-85.351 C-98.268,-105.242 -45.03,-92.108 -31.175,-56.016 Z" fill="rgba(0,0,122,0.12941176470588237)" stroke="rgba(34,0,216,1)" stroke-width="3"/>
<path d="M-65.423,-27.784 L-67.228,-2.85 L-44.731,-13.753 L-65.423,-27.784 Z" fill="rgba(34,0,216,1)" stroke="rgba(34,0,216,1)" stroke-width="3"/>
<path d="M-138.268,23.014 L-162.282,29.965 L-144.256,47.287 L-138.268,23.014 Z" fill="rgba(34,0,216,1)" stroke="rgba(34,0,216,1)" stroke-width="3"/>
<path d="M-184.577,-12.216 L-182.772,-37.15 L-205.269,-26.247 L-184.577,-12.216 Z" fill="rgba(34,0,216,1)" stroke="rgba(34,0,216,1)" stroke-width="3"/>
<path d="M-111.732,-63.014 L-87.718,-69.965 L-105.744,-87.287 L-111.732,-63.014 Z" fill="rgba(34,0,216,1)" stroke="rgba(34,0,216,1)" stroke-width="3"/>
<text x="53.69999999999999" y="200" text-anchor="start" font-family="Verdana, Helvetica, Arial, sans-serif" font-size="350" fill="rgba(0,0,0,0)">a</text>
<path d="M-125,-20 C-95.264,62.746 -38.597,117.746 45,145" fill="rgba(0,0,0,0)" stroke="rgba(251,95,31,1)" stroke-width="7"/>
<path d="M22.102,152.809 L51.599,147.335 L32.111,124.527 Z" fill="rgba(251,95,31,1)" stroke="rgba(251,95,31,1)" stroke-width="7"/>
<path d="M-65,122.5 L-65,157.5 L-215,157.5 L-215,122.5" fill="none" stroke="rgba(0,0,0,1)" stroke-width="1"/>
<path d="M-209.87,135.595 L-215,121.5 L-220.13,135.595 Z" fill="rgba(0,0,0,1)" stroke="rgba(0,0,0,1)" stroke-width="1"/>
<path d="M-59.87,135.595 L-65,121.5 L-70.13,135.595 Z" fill="rgba(0,0,0,1)" stroke="rgba(0,0,0,1)" stroke-width="1"/>
</svg>