<svg xmlns="http://www.w3.org/2000/svg" viewBox="-298.54 -219.01 597.09 518.01">
<path d="M-189.003,34.465 L-254.003,-65.535 L-122.827,-105.897 L-59.003,-125.535 L-119.003,54.465" fill="rgba(0,0,0,0)" stroke="rgba(0,0,255,1)" stroke-width="4"/>
<path d="M-197.597,25.871 L-180.409,25.871 L-180.409,43.059 L-197.597,43.059 Z" fill="rgba(0,0,0,0)" stroke="rgba(0,0,255,1)" stroke-width="2.1484375"/>
<path d="M-262.597,-74.129 L-245.409,-74.129 L-245.409,-56.941 L-262.597,-56.941 Z" fill="rgba(0,0,0,0)" stroke="rgba(0,0,255,1)" stroke-width="2.1484375"/>
<path d="M-131.421,-114.49 L-114.233,-114.49 L-114.233,-97.303 L-131.421,-97.303 Z" fill="rgba(0,0,0,0)" stroke="rgba(0,0,255,1)" stroke-width="2.1484375"/>
<path d="M-67.597,-134.129 L-50.409,-134.129 L-50.409,-116.941 L-67.597,-116.941 Z" fill="rgba(0,0,0,0)" stroke="rgba(0,0,255,1)" stroke-width="2.1484375"/>
<path d="M-127.597,45.871 L-110.409,45.871 L-110.409,63.059 L-127.597,63.059 Z" fill="rgba(0,0,0,0)" stroke="rgba(0,0,255,1)" stroke-width="2.1484375"/>
<text x="-74" y="88.54166666666667" text-anchor="start" font-family="Verdana, Helvetica, Arial, sans-serif" font-size="17.1875" fill="rgba(0,0,255,1)" transform="matrix(1 0 0 1 -115.00306666666668 -65.5347777777778)">0</text>
<text x="-139" y="-11.458333333333334" text-anchor="start" font-family="Verdana, Helvetica, Arial, sans-serif" font-size="17.1875" fill="rgba(0,0,255,1)" transform="matrix(1 0 0 1 -115.00306666666668 -65.5347777777778)">1</text>
<text x="-7.8240560313300875" y="-51.82016224677023" text-anchor="start" font-family="Verdana, Helvetica, Arial, sans-serif" font-size="17.1875" fill="rgba(0,0,255,1)" transform="matrix(1 0 0 1 -115.00306666666668 -65.5347777777778)">2</text>
<text x="56" y="-71.45833333333333" text-anchor="start" font-family="Verdana, Helvetica, Arial, sans-serif" font-size="17.1875" fill="rgba(0,0,255,1)" transform="matrix(1 0 0 1 -115.00306666666668 -65.5347777777778)">3</text>
<text x="-4.000000000000028" y="108.54166666666667" text-anchor="start" font-family="Verdana, Helvetica, Arial, sans-serif" font-size="17.1875" fill="rgba(0,0,255,1)" transform="matrix(1 0 0 1 -115.00306666666668 -65.5347777777778)">4</text>
<path d="M-201.973,42.896 L-207.971,5.283 L-176.033,26.035 Z" fill="rgba(255,255,127,0.8705882352941177)" stroke="rgba(114,147,224,0.9098039215686274)" stroke-width="2.1484375"/>
<path d="M-25.003,34.465 L-90.003,-65.535 L41.173,-105.897 L88.997,-158.535 L44.997,54.465" fill="rgba(0,0,0,0)" stroke="rgba(0,0,255,1)" stroke-width="4"/>
<path d="M-33.986,25.482 L-16.02,25.482 L-16.02,43.449 L-33.986,43.449 Z" fill="rgba(0,0,0,0)" stroke="rgba(0,0,255,1)" stroke-width="2.245833333333333"/>
<path d="M-98.986,-74.518 L-81.02,-74.518 L-81.02,-56.551 L-98.986,-56.551 Z" fill="rgba(0,0,0,0)" stroke="rgba(0,0,255,1)" stroke-width="2.245833333333333"/>
<path d="M32.19,-114.88 L50.156,-114.88 L50.156,-96.913 L32.19,-96.913 Z" fill="rgba(0,0,0,0)" stroke="rgba(0,0,255,1)" stroke-width="2.245833333333333"/>
<path d="M80.014,-167.518 L97.98,-167.518 L97.98,-149.551 L80.014,-149.551 Z" fill="rgba(0,0,0,0)" stroke="rgba(0,0,255,1)" stroke-width="2.245833333333333"/>
<path d="M36.014,45.482 L53.98,45.482 L53.98,63.449 L36.014,63.449 Z" fill="rgba(0,0,0,0)" stroke="rgba(0,0,255,1)" stroke-width="2.245833333333333"/>
<text x="90" y="88.02222222222223" text-anchor="start" font-family="Verdana, Helvetica, Arial, sans-serif" font-size="17.966666666666665" fill="rgba(0,0,255,1)" transform="matrix(1 0 0 1 -115.00306666666668 -65.5347777777778)">0</text>
<text x="25" y="-11.977777777777776" text-anchor="start" font-family="Verdana, Helvetica, Arial, sans-serif" font-size="17.966666666666665" fill="rgba(0,0,255,1)" transform="matrix(1 0 0 1 -115.00306666666668 -65.5347777777778)">1</text>
<text x="156.17594396866994" y="-52.3396066912147" text-anchor="start" font-family="Verdana, Helvetica, Arial, sans-serif" font-size="17.966666666666665" fill="rgba(0,0,255,1)" transform="matrix(1 0 0 1 -115.00306666666668 -65.5347777777778)">2</text>
<text x="204" y="-104.97777777777777" text-anchor="start" font-family="Verdana, Helvetica, Arial, sans-serif" font-size="17.966666666666665" fill="rgba(0,0,255,1)" transform="matrix(1 0 0 1 -115.00306666666668 -65.5347777777778)">3</text>
<text x="160" y="108.02222222222224" text-anchor="start" font-family="Verdana, Helvetica, Arial, sans-serif" font-size="17.966666666666665" fill="rgba(0,0,255,1)" transform="matrix(1 0 0 1 -115.00306666666668 -65.5347777777778)">4</text>
<path d="M-38.561,43.278 L-44.831,3.961 L-11.445,25.653 Z" fill="rgba(255,255,127,0.8705882352941177)" stroke="rgba(114,147,224,0.9098039215686274)" stroke-width="2.245833333333333"/>
<path d="M138.997,34.465 L73.997,-65.535 L205.173,-105.897 L252.997,-158.535 L208.997,54.465" fill="rgba(0,0,0,0)" stroke="rgba(0,0,255,1)" stroke-width="4"/>
<path d="M130.014,25.482 L147.98,25.482 L147.98,43.449 L130.014,43.449 Z" fill="rgba(0,0,0,0)" stroke="rgba(0,0,255,1)" stroke-width="2.245833333333333"/>
<path d="M65.014,-74.518 L82.98,-74.518 L82.98,-56.551 L65.014,-56.551 Z" fill="rgba(0,0,0,0)" stroke="rgba(0,0,255,1)" stroke-width="2.245833333333333"/>
<path d="M196.19,-114.88 L214.156,-114.88 L214.156,-96.913 L196.19,-96.913 Z" fill="rgba(0,0,0,0)" stroke="rgba(0,0,255,1)" stroke-width="2.245833333333333"/>
<path d="M244.014,-167.518 L261.98,-167.518 L261.98,-149.551 L244.014,-149.551 Z" fill="rgba(0,0,0,0)" stroke="rgba(0,0,255,1)" stroke-width="2.245833333333333"/>
<path d="M200.014,45.482 L217.98,45.482 L217.98,63.449 L200.014,63.449 Z" fill="rgba(0,0,0,0)" stroke="rgba(0,0,255,1)" stroke-width="2.245833333333333"/>
<text x="254" y="88.02222222222223" text-anchor="start" font-family="Verdana, Helvetica, Arial, sans-serif" font-size="17.966666666666665" fill="rgba(0,0,255,1)" transform="matrix(1 0 0 1 -115.00306666666668 -65.5347777777778)">0</text>
<text x="189" y="-11.977777777777776" text-anchor="start" font-family="Verdana, Helvetica, Arial, sans-serif" font-size="17.966666666666665" fill="rgba(0,0,255,1)" transform="matrix(1 0 0 1 -115.00306666666668 -65.5347777777778)">1</text>
<text x="320.1759439686699" y="-52.3396066912147" text-anchor="start" font-family="Verdana, Helvetica, Arial, sans-serif" font-size="17.966666666666665" fill="rgba(0,0,255,1)" transform="matrix(1 0 0 1 -115.00306666666668 -65.5347777777778)">2</text>
<text x="368" y="-104.97777777777777" text-anchor="start" font-family="Verdana, Helvetica, Arial, sans-serif" font-size="17.966666666666665" fill="rgba(0,0,255,1)" transform="matrix(1 0 0 1 -115.00306666666668 -65.5347777777778)">3</text>
<text x="324" y="108.02222222222224" text-anchor="start" font-family="Verdana, Helvetica, Arial, sans-serif" font-size="17.966666666666665" fill="rgba(0,0,255,1)" transform="matrix(1 0 0 1 -115.00306666666668 -65.5347777777778)">4</text>
<path d="M125.439,43.278 L119.169,3.961 L152.555,25.653 Z" fill="rgba(255,255,127,0.8705882352941177)" stroke="rgba(114,147,224,0.9098039215686274)" stroke-width="2.245833333333333"/>
<path d="M-189.003,234.465 L-254.003,134.465 L-122.827,94.103 L-75.003,41.465 L-119.003,254.465" fill="rgba(0,0,0,0)" stroke="rgba(0,0,255,1)" stroke-width="4"/>
<path d="M-197.986,225.482 L-180.02,225.482 L-180.02,243.449 L-197.986,243.449 Z" fill="rgba(0,0,0,0)" stroke="rgba(0,0,255,1)" stroke-width="2.245833333333333"/>
<path d="M-262.986,125.482 L-245.02,125.482 L-245.02,143.449 L-262.986,143.449 Z" fill="rgba(0,0,0,0)" stroke="rgba(0,0,255,1)" stroke-width="2.245833333333333"/>
<path d="M-131.81,85.12 L-113.844,85.12 L-113.844,103.087 L-131.81,103.087 Z" fill="rgba(0,0,0,0)" stroke="rgba(0,0,255,1)" stroke-width="2.245833333333333"/>
<path d="M-83.986,32.482 L-66.02,32.482 L-66.02,50.449 L-83.986,50.449 Z" fill="rgba(0,0,0,0)" stroke="rgba(0,0,255,1)" stroke-width="2.245833333333333"/>
<path d="M-127.986,245.482 L-110.02,245.482 L-110.02,263.449 L-127.986,263.449 Z" fill="rgba(0,0,0,0)" stroke="rgba(0,0,255,1)" stroke-width="2.245833333333333"/>
<text x="-74" y="288.0222222222222" text-anchor="start" font-family="Verdana, Helvetica, Arial, sans-serif" font-size="17.966666666666665" fill="rgba(0,0,255,1)" transform="matrix(1 0 0 1 -115.00306666666668 -65.5347777777778)">0</text>
<text x="-139" y="188.02222222222224" text-anchor="start" font-family="Verdana, Helvetica, Arial, sans-serif" font-size="17.966666666666665" fill="rgba(0,0,255,1)" transform="matrix(1 0 0 1 -115.00306666666668 -65.5347777777778)">1</text>
<text x="-7.824056031330059" y="147.66039330878533" text-anchor="start" font-family="Verdana, Helvetica, Arial, sans-serif" font-size="17.966666666666665" fill="rgba(0,0,255,1)" transform="matrix(1 0 0 1 -115.00306666666668 -65.5347777777778)">2</text>
<text x="40" y="95.02222222222223" text-anchor="start" font-family="Verdana, Helvetica, Arial, sans-serif" font-size="17.966666666666665" fill="rgba(0,0,255,1)" transform="matrix(1 0 0 1 -115.00306666666668 -65.5347777777778)">3</text>
<text x="-4" y="308.0222222222222" text-anchor="start" font-family="Verdana, Helvetica, Arial, sans-serif" font-size="17.966666666666665" fill="rgba(0,0,255,1)" transform="matrix(1 0 0 1 -115.00306666666668 -65.5347777777778)">4</text>
<path d="M-202.561,243.278 L-208.831,203.961 L-175.445,225.653 Z" fill="rgba(255,255,127,0.8705882352941177)" stroke="rgba(114,147,224,0.9098039215686274)" stroke-width="2.245833333333333"/>
<path d="M-25.003,234.465 L-90.003,134.465 L10.913,127.41 L88.997,41.465 L44.997,254.465" fill="rgba(0,0,0,0)" stroke="rgba(0,0,255,1)" stroke-width="4"/>
<path d="M-33.986,225.482 L-16.02,225.482 L-16.02,243.449 L-33.986,243.449 Z" fill="rgba(0,0,0,0)" stroke="rgba(0,0,255,1)" stroke-width="2.245833333333333"/>
<path d="M-98.986,125.482 L-81.02,125.482 L-81.02,143.449 L-98.986,143.449 Z" fill="rgba(0,0,0,0)" stroke="rgba(0,0,255,1)" stroke-width="2.245833333333333"/>
<path d="M1.929,118.426 L19.896,118.426 L19.896,136.393 L1.929,136.393 Z" fill="rgba(0,0,0,0)" stroke="rgba(0,0,255,1)" stroke-width="2.245833333333333"/>
<path d="M80.014,32.482 L97.98,32.482 L97.98,50.449 L80.014,50.449 Z" fill="rgba(0,0,0,0)" stroke="rgba(0,0,255,1)" stroke-width="2.245833333333333"/>
<path d="M36.014,245.482 L53.98,245.482 L53.98,263.449 L36.014,263.449 Z" fill="rgba(0,0,0,0)" stroke="rgba(0,0,255,1)" stroke-width="2.245833333333333"/>
<text x="90" y="288.0222222222222" text-anchor="start" font-family="Verdana, Helvetica, Arial, sans-serif" font-size="17.966666666666665" fill="rgba(0,0,255,1)" transform="matrix(1 0 0 1 -115.00306666666668 -65.5347777777778)">0</text>
<text x="25" y="188.02222222222224" text-anchor="start" font-family="Verdana, Helvetica, Arial, sans-serif" font-size="17.966666666666665" fill="rgba(0,0,255,1)" transform="matrix(1 0 0 1 -115.00306666666668 -65.5347777777778)">1</text>
<text x="125.9156561575601" y="180.96677380245046" text-anchor="start" font-family="Verdana, Helvetica, Arial, sans-serif" font-size="17.966666666666665" fill="rgba(0,0,255,1)" transform="matrix(1 0 0 1 -115.00306666666668 -65.5347777777778)">2</text>
<text x="204" y="95.02222222222223" text-anchor="start" font-family="Verdana, Helvetica, Arial, sans-serif" font-size="17.966666666666665" fill="rgba(0,0,255,1)" transform="matrix(1 0 0 1 -115.00306666666668 -65.5347777777778)">3</text>
<text x="160" y="308.0222222222222" text-anchor="start" font-family="Verdana, Helvetica, Arial, sans-serif" font-size="17.966666666666665" fill="rgba(0,0,255,1)" transform="matrix(1 0 0 1 -115.00306666666668 -65.5347777777778)">4</text>
<path d="M-38.561,243.278 L-44.831,203.961 L-11.445,225.653 Z" fill="rgba(255,255,127,0.8705882352941177)" stroke="rgba(114,147,224,0.9098039215686274)" stroke-width="2.245833333333333"/>
<path d="M138.997,234.465 L73.997,134.465 L174.913,127.41 L252.997,41.465 L212.841,235.858" fill="rgba(0,0,0,0)" stroke="rgba(0,0,255,1)" stroke-width="4"/>
<path d="M130.44,225.908 L147.554,225.908 L147.554,243.022 L130.44,243.022 Z" fill="rgba(0,0,0,0)" stroke="rgba(0,0,255,1)" stroke-width="2.1392299134083212"/>
<path d="M65.44,125.908 L82.554,125.908 L82.554,143.022 L65.44,143.022 Z" fill="rgba(0,0,0,0)" stroke="rgba(0,0,255,1)" stroke-width="2.1392299134083212"/>
<path d="M166.356,118.853 L183.47,118.853 L183.47,135.967 L166.356,135.967 Z" fill="rgba(0,0,0,0)" stroke="rgba(0,0,255,1)" stroke-width="2.1392299134083212"/>
<path d="M244.44,32.908 L261.554,32.908 L261.554,50.022 L244.44,50.022 Z" fill="rgba(0,0,0,0)" stroke="rgba(0,0,255,1)" stroke-width="2.1392299134083212"/>
<path d="M204.284,227.301 L221.398,227.301 L221.398,244.415 L204.284,244.415 Z" fill="rgba(0,0,0,0)" stroke="rgba(0,0,255,1)" stroke-width="2.1392299134083212"/>
<text x="254" y="288.59077379515566" text-anchor="start" font-family="Verdana, Helvetica, Arial, sans-serif" font-size="17.11383930726657" fill="rgba(0,0,255,1)" transform="matrix(1 0 0 1 -115.00306666666668 -65.5347777777778)">0</text>
<text x="189" y="188.59077379515563" text-anchor="start" font-family="Verdana, Helvetica, Arial, sans-serif" font-size="17.11383930726657" fill="rgba(0,0,255,1)" transform="matrix(1 0 0 1 -115.00306666666668 -65.5347777777778)">1</text>
<text x="289.9156561575601" y="181.53532537538385" text-anchor="start" font-family="Verdana, Helvetica, Arial, sans-serif" font-size="17.11383930726657" fill="rgba(0,0,255,1)" transform="matrix(1 0 0 1 -115.00306666666668 -65.5347777777778)">2</text>
<text x="368" y="95.59077379515561" text-anchor="start" font-family="Verdana, Helvetica, Arial, sans-serif" font-size="17.11383930726657" fill="rgba(0,0,255,1)" transform="matrix(1 0 0 1 -115.00306666666668 -65.5347777777778)">3</text>
<text x="327.8437289437751" y="289.9836314082445" text-anchor="start" font-family="Verdana, Helvetica, Arial, sans-serif" font-size="17.11383930726657" fill="rgba(0,0,255,1)" transform="matrix(1 0 0 1 -115.00306666666668 -65.5347777777778)">4</text>
<path d="M126.083,242.859 L120.11,205.409 L151.911,226.071 Z" fill="rgba(255,255,127,0.8705882352941177)" stroke="rgba(114,147,224,0.9098039215686274)" stroke-width="2.1392299134083212"/>
<text x="-183.338" y="-100" text-anchor="start" font-family="Verdana, Helvetica, Arial, sans-serif" font-size="12" fill="rgba(0,0,0,1)" transform="matrix(1 0 0 1 2 59)">original</text>
<text x="-26.009999999999998" y="-100" text-anchor="start" font-family="Verdana, Helvetica, Arial, sans-serif" font-size="12" fill="rgba(0,0,0,1)" transform="matrix(1 0 0 1 2 59)">reposition</text>
<text x="126.656" y="-100" text-anchor="start" font-family="Verdana, Helvetica, Arial, sans-serif" font-size="12" fill="rgba(0,0,0,1)" transform="matrix(1 0 0 1 2 59)">repos adj ctrls</text>
<text x="-201.68" y="100" text-anchor="start" font-family="Verdana, Helvetica, Arial, sans-serif" font-size="12" fill="rgba(0,0,0,1)" transform="matrix(1 0 0 1 2 59)">rotate adj ctrls</text>
<text x="-31.349999999999998" y="100" text-anchor="start" font-family="Verdana, Helvetica, Arial, sans-serif" font-size="12" fill="rgba(0,0,0,1)" transform="matrix(1 0 0 1 2 59)">extend prev</text>
<text x="133.988" y="100" text-anchor="start" font-family="Verdana, Helvetica, Arial, sans-serif" font-size="12" fill="rgba(0,0,0,1)" transform="matrix(1 0 0 1 2 59)">retract next</text>
</svg>