<svg xmlns="http://www.w3.org/2000/svg" viewBox="-251.97 -138.09 503.95 364.18">
<text x="-114.928" y="0" text-anchor="start" font-family="Verdana-Italic, Helvetica, Arial, sans-serif" font-size="44" fill="rgba(81,81,81,1)" transform="matrix(1 0 0 1 221.406 -75.84)">%,(.2f</text>
<text x="-114.928" y="0" text-anchor="start" font-family="Verdana-Italic, Helvetica, Arial, sans-serif" font-size="44" fill="rgba(81,81,81,1)" transform="matrix(1 0 0 1 221.406 -13.840000000000003)">%,(.2f</text>
<text x="-114.928" y="0" text-anchor="start" font-family="Verdana-Italic, Helvetica, Arial, sans-serif" font-size="44" fill="rgba(81,81,81,1)" transform="matrix(1 0 0 1 221.406 48.16)">%,(.2f</text>
<text x="-114.928" y="0" text-anchor="start" font-family="Verdana-Italic, Helvetica, Arial, sans-serif" font-size="44" fill="rgba(81,81,81,1)" transform="matrix(1 0 0 1 221.406 110.16)">%,(.2f</text>
<text x="-114.928" y="0" text-anchor="start" font-family="Verdana-Italic, Helvetica, Arial, sans-serif" font-size="44" fill="rgba(81,81,81,1)" transform="matrix(1 0 0 1 221.406 187.16)">%,(.2f</text>
<path d="M106.478,129.48 L221.406,129.48" fill="rgba(0,0,0,0)" stroke="rgba(0,0,0,1)" stroke-width="4"/>
<text x="-29.348000000000003" y="0" text-anchor="start" font-family="Verdana, Helvetica, Arial, sans-serif" font-size="44" fill="rgba(81,81,81,1)" transform="matrix(1 0 0 1 -192.058 -75.84)">Q1</text>
<text x="-29.348000000000003" y="0" text-anchor="start" font-family="Verdana, Helvetica, Arial, sans-serif" font-size="44" fill="rgba(81,81,81,1)" transform="matrix(1 0 0 1 -192.058 -13.840000000000018)">Q2</text>
<text x="-29.348000000000003" y="0" text-anchor="start" font-family="Verdana, Helvetica, Arial, sans-serif" font-size="44" fill="rgba(81,81,81,1)" transform="matrix(1 0 0 1 -192.058 48.15999999999998)">Q3</text>
<text x="-29.348000000000003" y="0" text-anchor="start" font-family="Verdana, Helvetica, Arial, sans-serif" font-size="44" fill="rgba(81,81,81,1)" transform="matrix(1 0 0 1 -192.058 110.16)">Q4</text>
<text x="-48.906" y="0" text-anchor="start" font-family="Verdana, Helvetica, Arial, sans-serif" font-size="44" fill="rgba(81,81,81,1)" transform="matrix(1 0 0 1 -172.5 187.16)">Total</text>
</svg>