<svg xmlns="http://www.w3.org/2000/svg" viewBox="-241.44 -96.44 482.88 328.88">
<path d="M-184,-53 C-184,-45.268 -190.268,-39 -198,-39 C-205.732,-39 -212,-45.268 -212,-53 C-212,-60.732 -205.732,-67 -198,-67 C-190.268,-67 -184,-60.732 -184,-53 Z" fill="rgba(255,127,127,1)" stroke="rgba(0,0,0,1)" stroke-width="1"/>
<path d="M-140,-31 C-140,-23.268 -146.268,-17 -154,-17 C-161.732,-17 -168,-23.268 -168,-31 C-168,-38.732 -161.732,-45 -154,-45 C-146.268,-45 -140,-38.732 -140,-31 Z" fill="rgba(255,136,127,1)" stroke="rgba(0,0,0,1)" stroke-width="1"/>
<path d="M-96,-53 C-96,-45.268 -102.268,-39 -110,-39 C-117.732,-39 -124,-45.268 -124,-53 C-124,-60.732 -117.732,-67 -110,-67 C-102.268,-67 -96,-60.732 -96,-53 Z" fill="rgba(255,144,127,1)" stroke="rgba(0,0,0,1)" stroke-width="1"/>
<path d="M-52,-31 C-52,-23.268 -58.268,-17 -66,-17 C-73.732,-17 -80,-23.268 -80,-31 C-80,-38.732 -73.732,-45 -66,-45 C-58.268,-45 -52,-38.732 -52,-31 Z" fill="rgba(255,153,127,1)" stroke="rgba(0,0,0,1)" stroke-width="1"/>
<path d="M-8,-53 C-8,-45.268 -14.268,-39 -22,-39 C-29.732,-39 -36,-45.268 -36,-53 C-36,-60.732 -29.732,-67 -22,-67 C-14.268,-67 -8,-60.732 -8,-53 Z" fill="rgba(255,162,127,1)" stroke="rgba(0,0,0,1)" stroke-width="1"/>
<path d="M36,-31 C36,-23.268 29.732,-17 22,-17 C14.268,-17 8,-23.268 8,-31 C8,-38.732 14.268,-45 22,-45 C29.732,-45 36,-38.732 36,-31 Z" fill="rgba(255,170,127,1)" stroke="rgba(0,0,0,1)" stroke-width="1"/>
<path d="M80,-53 C80,-45.268 73.732,-39 66,-39 C58.268,-39 52,-45.268 52,-53 C52,-60.732 58.268,-67 66,-67 C73.732,-67 80,-60.732 80,-53 Z" fill="rgba(255,179,127,1)" stroke="rgba(0,0,0,1)" stroke-width="1"/>
<path d="M124,-31 C124,-23.268 117.732,-17 110,-17 C102.268,-17 96,-23.268 96,-31 C96,-38.732 102.268,-45 110,-45 C117.732,-45 124,-38.732 124,-31 Z" fill="rgba(255,187,127,1)" stroke="rgba(0,0,0,1)" stroke-width="1"/>
<path d="M168,-53 C168,-45.268 161.732,-39 154,-39 C146.268,-39 140,-45.268 140,-53 C140,-60.732 146.268,-67 154,-67 C161.732,-67 168,-60.732 168,-53 Z" fill="rgba(255,196,127,1)" stroke="rgba(0,0,0,1)" stroke-width="1"/>
<path d="M212,-31 C212,-23.268 205.732,-17 198,-17 C190.268,-17 184,-23.268 184,-31 C184,-38.732 190.268,-45 198,-45 C205.732,-45 212,-38.732 212,-31 Z" fill="rgba(255,205,127,1)" stroke="rgba(0,0,0,1)" stroke-width="1"/>
<path d="M212,13 C212,20.732 205.732,27 198,27 C190.268,27 184,20.732 184,13 C184,5.268 190.268,-1 198,-1 C205.732,-1 212,5.268 212,13 Z" fill="rgba(255,213,127,1)" stroke="rgba(0,0,0,1)" stroke-width="1"/>
<path d="M168,-9 C168,-1.268 161.732,5 154,5 C146.268,5 140,-1.268 140,-9 C140,-16.732 146.268,-23 154,-23 C161.732,-23 168,-16.732 168,-9 Z" fill="rgba(255,222,127,1)" stroke="rgba(0,0,0,1)" stroke-width="1"/>
<path d="M124,13 C124,20.732 117.732,27 110,27 C102.268,27 96,20.732 96,13 C96,5.268 102.268,-1 110,-1 C117.732,-1 124,5.268 124,13 Z" fill="rgba(255,231,127,1)" stroke="rgba(0,0,0,1)" stroke-width="1"/>
<path d="M80,-9 C80,-1.268 73.732,5 66,5 C58.268,5 52,-1.268 52,-9 C52,-16.732 58.268,-23 66,-23 C73.732,-23 80,-16.732 80,-9 Z" fill="rgba(255,239,127,1)" stroke="rgba(0,0,0,1)" stroke-width="1"/>
<path d="M36,13 C36,20.732 29.732,27 22,27 C14.268,27 8,20.732 8,13 C8,5.268 14.268,-1 22,-1 C29.732,-1 36,5.268 36,13 Z" fill="rgba(255,248,127,1)" stroke="rgba(0,0,0,1)" stroke-width="1"/>
<path d="M-8,-9 C-8,-1.268 -14.268,5 -22,5 C-29.732,5 -36,-1.268 -36,-9 C-36,-16.732 -29.732,-23 -22,-23 C-14.268,-23 -8,-16.732 -8,-9 Z" fill="rgba(254,255,127,1)" stroke="rgba(0,0,0,1)" stroke-width="1"/>
<path d="M-52,13 C-52,20.732 -58.268,27 -66,27 C-73.732,27 -80,20.732 -80,13 C-80,5.268 -73.732,-1 -66,-1 C-58.268,-1 -52,5.268 -52,13 Z" fill="rgba(245,255,127,1)" stroke="rgba(0,0,0,1)" stroke-width="1"/>
<path d="M-96,-9 C-96,-1.268 -102.268,5 -110,5 C-117.732,5 -124,-1.268 -124,-9 C-124,-16.732 -117.732,-23 -110,-23 C-102.268,-23 -96,-16.732 -96,-9 Z" fill="rgba(236,255,127,1)" stroke="rgba(0,0,0,1)" stroke-width="1"/>
<path d="M-140,13 C-140,20.732 -146.268,27 -154,27 C-161.732,27 -168,20.732 -168,13 C-168,5.268 -161.732,-1 -154,-1 C-146.268,-1 -140,5.268 -140,13 Z" fill="rgba(228,255,127,1)" stroke="rgba(0,0,0,1)" stroke-width="1"/>
<path d="M-184,-9 C-184,-1.268 -190.268,5 -198,5 C-205.732,5 -212,-1.268 -212,-9 C-212,-16.732 -205.732,-23 -198,-23 C-190.268,-23 -184,-16.732 -184,-9 Z" fill="rgba(219,255,127,1)" stroke="rgba(0,0,0,1)" stroke-width="1"/>
<path d="M-184,35 C-184,42.732 -190.268,49 -198,49 C-205.732,49 -212,42.732 -212,35 C-212,27.268 -205.732,21 -198,21 C-190.268,21 -184,27.268 -184,35 Z" fill="rgba(210,255,127,1)" stroke="rgba(0,0,0,1)" stroke-width="1"/>
<path d="M-140,57 C-140,64.732 -146.268,71 -154,71 C-161.732,71 -168,64.732 -168,57 C-168,49.268 -161.732,43 -154,43 C-146.268,43 -140,49.268 -140,57 Z" fill="rgba(202,255,127,1)" stroke="rgba(0,0,0,1)" stroke-width="1"/>
<path d="M-96,35 C-96,42.732 -102.268,49 -110,49 C-117.732,49 -124,42.732 -124,35 C-124,27.268 -117.732,21 -110,21 C-102.268,21 -96,27.268 -96,35 Z" fill="rgba(193,255,127,1)" stroke="rgba(0,0,0,1)" stroke-width="1"/>
<path d="M-52,57 C-52,64.732 -58.268,71 -66,71 C-73.732,71 -80,64.732 -80,57 C-80,49.268 -73.732,43 -66,43 C-58.268,43 -52,49.268 -52,57 Z" fill="rgba(185,255,127,1)" stroke="rgba(0,0,0,1)" stroke-width="1"/>
<path d="M-8,35 C-8,42.732 -14.268,49 -22,49 C-29.732,49 -36,42.732 -36,35 C-36,27.268 -29.732,21 -22,21 C-14.268,21 -8,27.268 -8,35 Z" fill="rgba(176,255,127,1)" stroke="rgba(0,0,0,1)" stroke-width="1"/>
<path d="M36,57 C36,64.732 29.732,71 22,71 C14.268,71 8,64.732 8,57 C8,49.268 14.268,43 22,43 C29.732,43 36,49.268 36,57 Z" fill="rgba(167,255,127,1)" stroke="rgba(0,0,0,1)" stroke-width="1"/>
<path d="M80,35 C80,42.732 73.732,49 66,49 C58.268,49 52,42.732 52,35 C52,27.268 58.268,21 66,21 C73.732,21 80,27.268 80,35 Z" fill="rgba(159,255,127,1)" stroke="rgba(0,0,0,1)" stroke-width="1"/>
<path d="M124,57 C124,64.732 117.732,71 110,71 C102.268,71 96,64.732 96,57 C96,49.268 102.268,43 110,43 C117.732,43 124,49.268 124,57 Z" fill="rgba(150,255,127,1)" stroke="rgba(0,0,0,1)" stroke-width="1"/>
<path d="M168,35 C168,42.732 161.732,49 154,49 C146.268,49 140,42.732 140,35 C140,27.268 146.268,21 154,21 C161.732,21 168,27.268 168,35 Z" fill="rgba(141,255,127,1)" stroke="rgba(0,0,0,1)" stroke-width="1"/>
<path d="M212,57 C212,64.732 205.732,71 198,71 C190.268,71 184,64.732 184,57 C184,49.268 190.268,43 198,43 C205.732,43 212,49.268 212,57 Z" fill="rgba(133,255,127,1)" stroke="rgba(0,0,0,1)" stroke-width="1"/>
<path d="M212,101 C212,108.732 205.732,115 198,115 C190.268,115 184,108.732 184,101 C184,93.268 190.268,87 198,87 C205.732,87 212,93.268 212,101 Z" fill="rgba(127,255,130,1)" stroke="rgba(0,0,0,1)" stroke-width="1"/>
<path d="M168,79 C168,86.732 161.732,93 154,93 C146.268,93 140,86.732 140,79 C140,71.268 146.268,65 154,65 C161.732,65 168,71.268 168,79 Z" fill="rgba(127,255,138,1)" stroke="rgba(0,0,0,1)" stroke-width="1"/>
<path d="M124,101 C124,108.732 117.732,115 110,115 C102.268,115 96,108.732 96,101 C96,93.268 102.268,87 110,87 C117.732,87 124,93.268 124,101 Z" fill="rgba(127,255,147,1)" stroke="rgba(0,0,0,1)" stroke-width="1"/>
<path d="M80,79 C80,86.732 73.732,93 66,93 C58.268,93 52,86.732 52,79 C52,71.268 58.268,65 66,65 C73.732,65 80,71.268 80,79 Z" fill="rgba(127,255,156,1)" stroke="rgba(0,0,0,1)" stroke-width="1"/>
<path d="M36,101 C36,108.732 29.732,115 22,115 C14.268,115 8,108.732 8,101 C8,93.268 14.268,87 22,87 C29.732,87 36,93.268 36,101 Z" fill="rgba(127,255,164,1)" stroke="rgba(0,0,0,1)" stroke-width="1"/>
<path d="M-8,79 C-8,86.732 -14.268,93 -22,93 C-29.732,93 -36,86.732 -36,79 C-36,71.268 -29.732,65 -22,65 C-14.268,65 -8,71.268 -8,79 Z" fill="rgba(127,255,173,1)" stroke="rgba(0,0,0,1)" stroke-width="1"/>
<path d="M-52,101 C-52,108.732 -58.268,115 -66,115 C-73.732,115 -80,108.732 -80,101 C-80,93.268 -73.732,87 -66,87 C-58.268,87 -52,93.268 -52,101 Z" fill="rgba(127,255,182,1)" stroke="rgba(0,0,0,1)" stroke-width="1"/>
<path d="M-96,79 C-96,86.732 -102.268,93 -110,93 C-117.732,93 -124,86.732 -124,79 C-124,71.268 -117.732,65 -110,65 C-102.268,65 -96,71.268 -96,79 Z" fill="rgba(127,255,190,1)" stroke="rgba(0,0,0,1)" stroke-width="1"/>
<path d="M-140,101 C-140,108.732 -146.268,115 -154,115 C-161.732,115 -168,108.732 -168,101 C-168,93.268 -161.732,87 -154,87 C-146.268,87 -140,93.268 -140,101 Z" fill="rgba(127,255,199,1)" stroke="rgba(0,0,0,1)" stroke-width="1"/>
<path d="M-184,79 C-184,86.732 -190.268,93 -198,93 C-205.732,93 -212,86.732 -212,79 C-212,71.268 -205.732,65 -198,65 C-190.268,65 -184,71.268 -184,79 Z" fill="rgba(127,255,207,1)" stroke="rgba(0,0,0,1)" stroke-width="1"/>
<path d="M-184,123 C-184,130.732 -190.268,137 -198,137 C-205.732,137 -212,130.732 -212,123 C-212,115.268 -205.732,109 -198,109 C-190.268,109 -184,115.268 -184,123 Z" fill="rgba(127,255,216,1)" stroke="rgba(0,0,0,1)" stroke-width="1"/>
<path d="M-140,145 C-140,152.732 -146.268,159 -154,159 C-161.732,159 -168,152.732 -168,145 C-168,137.268 -161.732,131 -154,131 C-146.268,131 -140,137.268 -140,145 Z" fill="rgba(127,255,225,1)" stroke="rgba(0,0,0,1)" stroke-width="1"/>
<path d="M-96,123 C-96,130.732 -102.268,137 -110,137 C-117.732,137 -124,130.732 -124,123 C-124,115.268 -117.732,109 -110,109 C-102.268,109 -96,115.268 -96,123 Z" fill="rgba(127,255,233,1)" stroke="rgba(0,0,0,1)" stroke-width="1"/>
<path d="M-52,145 C-52,152.732 -58.268,159 -66,159 C-73.732,159 -80,152.732 -80,145 C-80,137.268 -73.732,131 -66,131 C-58.268,131 -52,137.268 -52,145 Z" fill="rgba(127,255,242,1)" stroke="rgba(0,0,0,1)" stroke-width="1"/>
<path d="M-8,123 C-8,130.732 -14.268,137 -22,137 C-29.732,137 -36,130.732 -36,123 C-36,115.268 -29.732,109 -22,109 C-14.268,109 -8,115.268 -8,123 Z" fill="rgba(127,255,251,1)" stroke="rgba(0,0,0,1)" stroke-width="1"/>
<path d="M36,145 C36,152.732 29.732,159 22,159 C14.268,159 8,152.732 8,145 C8,137.268 14.268,131 22,131 C29.732,131 36,137.268 36,145 Z" fill="rgba(127,251,255,1)" stroke="rgba(0,0,0,1)" stroke-width="1"/>
<path d="M80,123 C80,130.732 73.732,137 66,137 C58.268,137 52,130.732 52,123 C52,115.268 58.268,109 66,109 C73.732,109 80,115.268 80,123 Z" fill="rgba(127,242,255,1)" stroke="rgba(0,0,0,1)" stroke-width="1"/>
<path d="M124,145 C124,152.732 117.732,159 110,159 C102.268,159 96,152.732 96,145 C96,137.268 102.268,131 110,131 C117.732,131 124,137.268 124,145 Z" fill="rgba(127,234,255,1)" stroke="rgba(0,0,0,1)" stroke-width="1"/>
<path d="M168,123 C168,130.732 161.732,137 154,137 C146.268,137 140,130.732 140,123 C140,115.268 146.268,109 154,109 C161.732,109 168,115.268 168,123 Z" fill="rgba(127,225,255,1)" stroke="rgba(0,0,0,1)" stroke-width="1"/>
<path d="M212,145 C212,152.732 205.732,159 198,159 C190.268,159 184,152.732 184,145 C184,137.268 190.268,131 198,131 C205.732,131 212,137.268 212,145 Z" fill="rgba(127,216,255,1)" stroke="rgba(0,0,0,1)" stroke-width="1"/>
<path d="M212,189 C212,196.732 205.732,203 198,203 C190.268,203 184,196.732 184,189 C184,181.268 190.268,175 198,175 C205.732,175 212,181.268 212,189 Z" fill="rgba(127,208,255,1)" stroke="rgba(0,0,0,1)" stroke-width="1"/>
<path d="M168,167 C168,174.732 161.732,181 154,181 C146.268,181 140,174.732 140,167 C140,159.268 146.268,153 154,153 C161.732,153 168,159.268 168,167 Z" fill="rgba(127,199,255,1)" stroke="rgba(0,0,0,1)" stroke-width="1"/>
<path d="M124,189 C124,196.732 117.732,203 110,203 C102.268,203 96,196.732 96,189 C96,181.268 102.268,175 110,175 C117.732,175 124,181.268 124,189 Z" fill="rgba(127,190,255,1)" stroke="rgba(0,0,0,1)" stroke-width="1"/>
<path d="M80,167 C80,174.732 73.732,181 66,181 C58.268,181 52,174.732 52,167 C52,159.268 58.268,153 66,153 C73.732,153 80,159.268 80,167 Z" fill="rgba(127,182,255,1)" stroke="rgba(0,0,0,1)" stroke-width="1"/>
<path d="M36,189 C36,196.732 29.732,203 22,203 C14.268,203 8,196.732 8,189 C8,181.268 14.268,175 22,175 C29.732,175 36,181.268 36,189 Z" fill="rgba(127,173,255,1)" stroke="rgba(0,0,0,1)" stroke-width="1"/>
<path d="M-8,167 C-8,174.732 -14.268,181 -22,181 C-29.732,181 -36,174.732 -36,167 C-36,159.268 -29.732,153 -22,153 C-14.268,153 -8,159.268 -8,167 Z" fill="rgba(127,165,255,1)" stroke="rgba(0,0,0,1)" stroke-width="1"/>
<path d="M-52,189 C-52,196.732 -58.268,203 -66,203 C-73.732,203 -80,196.732 -80,189 C-80,181.268 -73.732,175 -66,175 C-58.268,175 -52,181.268 -52,189 Z" fill="rgba(127,156,255,1)" stroke="rgba(0,0,0,1)" stroke-width="1"/>
<path d="M-96,167 C-96,174.732 -102.268,181 -110,181 C-117.732,181 -124,174.732 -124,167 C-124,159.268 -117.732,153 -110,153 C-102.268,153 -96,159.268 -96,167 Z" fill="rgba(127,147,255,1)" stroke="rgba(0,0,0,1)" stroke-width="1"/>
<path d="M-140,189 C-140,196.732 -146.268,203 -154,203 C-161.732,203 -168,196.732 -168,189 C-168,181.268 -161.732,175 -154,175 C-146.268,175 -140,181.268 -140,189 Z" fill="rgba(127,139,255,1)" stroke="rgba(0,0,0,1)" stroke-width="1"/>
<path d="M-184,167 C-184,174.732 -190.268,181 -198,181 C-205.732,181 -212,174.732 -212,167 C-212,159.268 -205.732,153 -198,153 C-190.268,153 -184,159.268 -184,167 Z" fill="rgba(127,130,255,1)" stroke="rgba(0,0,0,1)" stroke-width="1"/>
</svg>