<svg xmlns="http://www.w3.org/2000/svg" viewBox="-311.5 -124.15 623 348.3">
<path d="M-229.448,92.796 L-229.448,92.796 L-274.552,183.312 L-183.959,182.796 L-183.959,182.796 L-13.591,181.823 L-225.937,44.949 L-138.469,12.796 L-138.469,12.796 L-99.268,-1.615 L97.275,-16.797 L157.214,-27.204 L157.214,-27.204 L168.32,-29.133 L196.643,-34.393 L202.703,-37.204 L202.703,-37.204 L224.238,-47.194 L225.448,-87.204 L225.448,-87.204" fill="rgba(0,0,0,0)" stroke="rgba(255,0,0,1)" stroke-width="1"/>
<path d="M-225.448,92.796 C-225.448,95.005 -227.239,96.796 -229.448,96.796 C-231.657,96.796 -233.448,95.005 -233.448,92.796 C-233.448,90.586 -231.657,88.796 -229.448,88.796 C-227.239,88.796 -225.448,90.586 -225.448,92.796 Z" fill="rgba(255,0,0,0.5058823529411764)"/>
<path d="M-229.448,92.796 L-229.448,92.796 L-274.552,183.312 L-183.959,182.796 L-183.959,182.796 L-13.591,181.823 L-225.937,44.949 L-138.469,12.796 L-138.469,12.796 L-99.268,-1.615 L97.275,-16.797 L157.214,-27.204 L157.214,-27.204 L168.32,-29.133 L196.643,-34.393 L202.703,-37.204 L202.703,-37.204 L224.238,-47.194 L225.448,-87.204 L225.448,-87.204" fill="rgba(0,0,0,0)" stroke="rgba(255,0,0,1)" stroke-width="1"/>
<path d="M-251.637,183.204 C-251.637,185.414 -253.428,187.204 -255.637,187.204 C-257.846,187.204 -259.637,185.414 -259.637,183.204 C-259.637,180.995 -257.846,179.204 -255.637,179.204 C-253.428,179.204 -251.637,180.995 -251.637,183.204 Z" fill="rgba(255,0,0,0.5058823529411764)"/>
<path d="M-229.448,92.796 L-229.448,92.796 L-274.552,183.312 L-183.959,182.796 L-183.959,182.796 L-13.591,181.823 L-225.937,44.949 L-138.469,12.796 L-138.469,12.796 L-99.268,-1.615 L97.275,-16.797 L157.214,-27.204 L157.214,-27.204 L168.32,-29.133 L196.643,-34.393 L202.703,-37.204 L202.703,-37.204 L224.238,-47.194 L225.448,-87.204 L225.448,-87.204" fill="rgba(0,0,0,0)" stroke="rgba(255,0,0,1)" stroke-width="1"/>
<path d="M-231.726,183.091 C-231.726,185.3 -233.517,187.091 -235.726,187.091 C-237.935,187.091 -239.726,185.3 -239.726,183.091 C-239.726,180.882 -237.935,179.091 -235.726,179.091 C-233.517,179.091 -231.726,180.882 -231.726,183.091 Z" fill="rgba(255,0,0,0.5058823529411764)"/>
<path d="M-229.448,92.796 L-229.448,92.796 L-274.552,183.312 L-183.959,182.796 L-183.959,182.796 L-13.591,181.823 L-225.937,44.949 L-138.469,12.796 L-138.469,12.796 L-99.268,-1.615 L97.275,-16.797 L157.214,-27.204 L157.214,-27.204 L168.32,-29.133 L196.643,-34.393 L202.703,-37.204 L202.703,-37.204 L224.238,-47.194 L225.448,-87.204 L225.448,-87.204" fill="rgba(0,0,0,0)" stroke="rgba(255,0,0,1)" stroke-width="1"/>
<path d="M-211.816,182.977 C-211.816,185.186 -213.606,186.977 -215.816,186.977 C-218.025,186.977 -219.816,185.186 -219.816,182.977 C-219.816,180.768 -218.025,178.977 -215.816,178.977 C-213.606,178.977 -211.816,180.768 -211.816,182.977 Z" fill="rgba(255,0,0,0.5058823529411764)"/>
<path d="M-229.448,92.796 L-229.448,92.796 L-274.552,183.312 L-183.959,182.796 L-183.959,182.796 L-13.591,181.823 L-225.937,44.949 L-138.469,12.796 L-138.469,12.796 L-99.268,-1.615 L97.275,-16.797 L157.214,-27.204 L157.214,-27.204 L168.32,-29.133 L196.643,-34.393 L202.703,-37.204 L202.703,-37.204 L224.238,-47.194 L225.448,-87.204 L225.448,-87.204" fill="rgba(0,0,0,0)" stroke="rgba(255,0,0,1)" stroke-width="1"/>
<path d="M-191.905,182.864 C-191.905,185.073 -193.696,186.864 -195.905,186.864 C-198.114,186.864 -199.905,185.073 -199.905,182.864 C-199.905,180.655 -198.114,178.864 -195.905,178.864 C-193.696,178.864 -191.905,180.655 -191.905,182.864 Z" fill="rgba(255,0,0,0.5058823529411764)"/>
<path d="M-229.448,92.796 L-229.448,92.796 L-274.552,183.312 L-183.959,182.796 L-183.959,182.796 L-13.591,181.823 L-225.937,44.949 L-138.469,12.796 L-138.469,12.796 L-99.268,-1.615 L97.275,-16.797 L157.214,-27.204 L157.214,-27.204 L168.32,-29.133 L196.643,-34.393 L202.703,-37.204 L202.703,-37.204 L224.238,-47.194 L225.448,-87.204 L225.448,-87.204" fill="rgba(0,0,0,0)" stroke="rgba(255,0,0,1)" stroke-width="1"/>
<path d="M-171.941,182.75 C-171.941,184.959 -173.732,186.75 -175.941,186.75 C-178.15,186.75 -179.941,184.959 -179.941,182.75 C-179.941,180.541 -178.15,178.75 -175.941,178.75 C-173.732,178.75 -171.941,180.541 -171.941,182.75 Z" fill="rgba(255,0,0,0.5058823529411764)"/>
<path d="M-229.448,92.796 L-229.448,92.796 L-274.552,183.312 L-183.959,182.796 L-183.959,182.796 L-13.591,181.823 L-225.937,44.949 L-138.469,12.796 L-138.469,12.796 L-99.268,-1.615 L97.275,-16.797 L157.214,-27.204 L157.214,-27.204 L168.32,-29.133 L196.643,-34.393 L202.703,-37.204 L202.703,-37.204 L224.238,-47.194 L225.448,-87.204 L225.448,-87.204" fill="rgba(0,0,0,0)" stroke="rgba(255,0,0,1)" stroke-width="1"/>
<path d="M-151.898,182.635 C-151.898,184.845 -153.689,186.635 -155.898,186.635 C-158.107,186.635 -159.898,184.845 -159.898,182.635 C-159.898,180.426 -158.107,178.635 -155.898,178.635 C-153.689,178.635 -151.898,180.426 -151.898,182.635 Z" fill="rgba(255,0,0,0.5058823529411764)"/>
<path d="M-229.448,92.796 L-229.448,92.796 L-274.552,183.312 L-183.959,182.796 L-183.959,182.796 L-13.591,181.823 L-225.937,44.949 L-138.469,12.796 L-138.469,12.796 L-99.268,-1.615 L97.275,-16.797 L157.214,-27.204 L157.214,-27.204 L168.32,-29.133 L196.643,-34.393 L202.703,-37.204 L202.703,-37.204 L224.238,-47.194 L225.448,-87.204 L225.448,-87.204" fill="rgba(0,0,0,0)" stroke="rgba(255,0,0,1)" stroke-width="1"/>
<path d="M-131.855,182.521 C-131.855,184.73 -133.646,186.521 -135.855,186.521 C-138.064,186.521 -139.855,184.73 -139.855,182.521 C-139.855,180.312 -138.064,178.521 -135.855,178.521 C-133.646,178.521 -131.855,180.312 -131.855,182.521 Z" fill="rgba(255,0,0,0.5058823529411764)"/>
<path d="M-229.448,92.796 L-229.448,92.796 L-274.552,183.312 L-183.959,182.796 L-183.959,182.796 L-13.591,181.823 L-225.937,44.949 L-138.469,12.796 L-138.469,12.796 L-99.268,-1.615 L97.275,-16.797 L157.214,-27.204 L157.214,-27.204 L168.32,-29.133 L196.643,-34.393 L202.703,-37.204 L202.703,-37.204 L224.238,-47.194 L225.448,-87.204 L225.448,-87.204" fill="rgba(0,0,0,0)" stroke="rgba(255,0,0,1)" stroke-width="1"/>
<path d="M-111.811,182.407 C-111.811,184.616 -113.602,186.407 -115.811,186.407 C-118.021,186.407 -119.811,184.616 -119.811,182.407 C-119.811,180.198 -118.021,178.407 -115.811,178.407 C-113.602,178.407 -111.811,180.198 -111.811,182.407 Z" fill="rgba(255,0,0,0.5058823529411764)"/>
<path d="M-229.448,92.796 L-229.448,92.796 L-274.552,183.312 L-183.959,182.796 L-183.959,182.796 L-13.591,181.823 L-225.937,44.949 L-138.469,12.796 L-138.469,12.796 L-99.268,-1.615 L97.275,-16.797 L157.214,-27.204 L157.214,-27.204 L168.32,-29.133 L196.643,-34.393 L202.703,-37.204 L202.703,-37.204 L224.238,-47.194 L225.448,-87.204 L225.448,-87.204" fill="rgba(0,0,0,0)" stroke="rgba(255,0,0,1)" stroke-width="1"/>
<path d="M-91.768,182.292 C-91.768,184.501 -93.559,186.292 -95.768,186.292 C-97.977,186.292 -99.768,184.501 -99.768,182.292 C-99.768,180.083 -97.977,178.292 -95.768,178.292 C-93.559,178.292 -91.768,180.083 -91.768,182.292 Z" fill="rgba(255,0,0,0.5058823529411764)"/>
<path d="M-229.448,92.796 L-229.448,92.796 L-274.552,183.312 L-183.959,182.796 L-183.959,182.796 L-13.591,181.823 L-225.937,44.949 L-138.469,12.796 L-138.469,12.796 L-99.268,-1.615 L97.275,-16.797 L157.214,-27.204 L157.214,-27.204 L168.32,-29.133 L196.643,-34.393 L202.703,-37.204 L202.703,-37.204 L224.238,-47.194 L225.448,-87.204 L225.448,-87.204" fill="rgba(0,0,0,0)" stroke="rgba(255,0,0,1)" stroke-width="1"/>
<path d="M-71.725,182.178 C-71.725,184.387 -73.516,186.178 -75.725,186.178 C-77.934,186.178 -79.725,184.387 -79.725,182.178 C-79.725,179.969 -77.934,178.178 -75.725,178.178 C-73.516,178.178 -71.725,179.969 -71.725,182.178 Z" fill="rgba(255,0,0,0.5058823529411764)"/>
<path d="M-229.448,92.796 L-229.448,92.796 L-274.552,183.312 L-183.959,182.796 L-183.959,182.796 L-13.591,181.823 L-225.937,44.949 L-138.469,12.796 L-138.469,12.796 L-99.268,-1.615 L97.275,-16.797 L157.214,-27.204 L157.214,-27.204 L168.32,-29.133 L196.643,-34.393 L202.703,-37.204 L202.703,-37.204 L224.238,-47.194 L225.448,-87.204 L225.448,-87.204" fill="rgba(0,0,0,0)" stroke="rgba(255,0,0,1)" stroke-width="1"/>
<path d="M-51.682,182.064 C-51.682,184.273 -53.472,186.064 -55.682,186.064 C-57.891,186.064 -59.682,184.273 -59.682,182.064 C-59.682,179.854 -57.891,178.064 -55.682,178.064 C-53.472,178.064 -51.682,179.854 -51.682,182.064 Z" fill="rgba(255,0,0,0.5058823529411764)"/>
<path d="M-229.448,92.796 L-229.448,92.796 L-274.552,183.312 L-183.959,182.796 L-183.959,182.796 L-13.591,181.823 L-225.937,44.949 L-138.469,12.796 L-138.469,12.796 L-99.268,-1.615 L97.275,-16.797 L157.214,-27.204 L157.214,-27.204 L168.32,-29.133 L196.643,-34.393 L202.703,-37.204 L202.703,-37.204 L224.238,-47.194 L225.448,-87.204 L225.448,-87.204" fill="rgba(0,0,0,0)" stroke="rgba(255,0,0,1)" stroke-width="1"/>
<path d="M-31.638,181.949 C-31.638,184.158 -33.429,185.949 -35.638,185.949 C-37.847,185.949 -39.638,184.158 -39.638,181.949 C-39.638,179.74 -37.847,177.949 -35.638,177.949 C-33.429,177.949 -31.638,179.74 -31.638,181.949 Z" fill="rgba(255,0,0,0.5058823529411764)"/>
<path d="M-229.448,92.796 L-229.448,92.796 L-274.552,183.312 L-183.959,182.796 L-183.959,182.796 L-13.591,181.823 L-225.937,44.949 L-138.469,12.796 L-138.469,12.796 L-99.268,-1.615 L97.275,-16.797 L157.214,-27.204 L157.214,-27.204 L168.32,-29.133 L196.643,-34.393 L202.703,-37.204 L202.703,-37.204 L224.238,-47.194 L225.448,-87.204 L225.448,-87.204" fill="rgba(0,0,0,0)" stroke="rgba(255,0,0,1)" stroke-width="1"/>
<path d="M-11.595,181.835 C-11.595,184.044 -13.386,185.835 -15.595,185.835 C-17.804,185.835 -19.595,184.044 -19.595,181.835 C-19.595,179.626 -17.804,177.835 -15.595,177.835 C-13.386,177.835 -11.595,179.626 -11.595,181.835 Z" fill="rgba(255,0,0,0.5058823529411764)"/>
<path d="M-229.448,92.796 L-229.448,92.796 L-274.552,183.312 L-183.959,182.796 L-183.959,182.796 L-13.591,181.823 L-225.937,44.949 L-138.469,12.796 L-138.469,12.796 L-99.268,-1.615 L97.275,-16.797 L157.214,-27.204 L157.214,-27.204 L168.32,-29.133 L196.643,-34.393 L202.703,-37.204 L202.703,-37.204 L224.238,-47.194 L225.448,-87.204 L225.448,-87.204" fill="rgba(0,0,0,0)" stroke="rgba(255,0,0,1)" stroke-width="1"/>
<path d="M-204.846,38.667 C-204.846,40.876 -206.636,42.667 -208.846,42.667 C-211.055,42.667 -212.846,40.876 -212.846,38.667 C-212.846,36.457 -211.055,34.667 -208.846,34.667 C-206.636,34.667 -204.846,36.457 -204.846,38.667 Z" fill="rgba(255,0,0,0.5058823529411764)"/>
<path d="M-229.448,92.796 L-229.448,92.796 L-274.552,183.312 L-183.959,182.796 L-183.959,182.796 L-13.591,181.823 L-225.937,44.949 L-138.469,12.796 L-138.469,12.796 L-99.268,-1.615 L97.275,-16.797 L157.214,-27.204 L157.214,-27.204 L168.32,-29.133 L196.643,-34.393 L202.703,-37.204 L202.703,-37.204 L224.238,-47.194 L225.448,-87.204 L225.448,-87.204" fill="rgba(0,0,0,0)" stroke="rgba(255,0,0,1)" stroke-width="1"/>
<path d="M-184.738,31.275 C-184.738,33.484 -186.529,35.275 -188.738,35.275 C-190.947,35.275 -192.738,33.484 -192.738,31.275 C-192.738,29.066 -190.947,27.275 -188.738,27.275 C-186.529,27.275 -184.738,29.066 -184.738,31.275 Z" fill="rgba(255,0,0,0.5058823529411764)"/>
<path d="M-229.448,92.796 L-229.448,92.796 L-274.552,183.312 L-183.959,182.796 L-183.959,182.796 L-13.591,181.823 L-225.937,44.949 L-138.469,12.796 L-138.469,12.796 L-99.268,-1.615 L97.275,-16.797 L157.214,-27.204 L157.214,-27.204 L168.32,-29.133 L196.643,-34.393 L202.703,-37.204 L202.703,-37.204 L224.238,-47.194 L225.448,-87.204 L225.448,-87.204" fill="rgba(0,0,0,0)" stroke="rgba(255,0,0,1)" stroke-width="1"/>
<path d="M-164.63,23.883 C-164.63,26.092 -166.421,27.883 -168.63,27.883 C-170.839,27.883 -172.63,26.092 -172.63,23.883 C-172.63,21.674 -170.839,19.883 -168.63,19.883 C-166.421,19.883 -164.63,21.674 -164.63,23.883 Z" fill="rgba(255,0,0,0.5058823529411764)"/>
<path d="M-229.448,92.796 L-229.448,92.796 L-274.552,183.312 L-183.959,182.796 L-183.959,182.796 L-13.591,181.823 L-225.937,44.949 L-138.469,12.796 L-138.469,12.796 L-99.268,-1.615 L97.275,-16.797 L157.214,-27.204 L157.214,-27.204 L168.32,-29.133 L196.643,-34.393 L202.703,-37.204 L202.703,-37.204 L224.238,-47.194 L225.448,-87.204 L225.448,-87.204" fill="rgba(0,0,0,0)" stroke="rgba(255,0,0,1)" stroke-width="1"/>
<path d="M-144.523,16.491 C-144.523,18.701 -146.314,20.491 -148.523,20.491 C-150.732,20.491 -152.523,18.701 -152.523,16.491 C-152.523,14.282 -150.732,12.491 -148.523,12.491 C-146.314,12.491 -144.523,14.282 -144.523,16.491 Z" fill="rgba(255,0,0,0.5058823529411764)"/>
<path d="M-229.448,92.796 L-229.448,92.796 L-274.552,183.312 L-183.959,182.796 L-183.959,182.796 L-13.591,181.823 L-225.937,44.949 L-138.469,12.796 L-138.469,12.796 L-99.268,-1.615 L97.275,-16.797 L157.214,-27.204 L157.214,-27.204 L168.32,-29.133 L196.643,-34.393 L202.703,-37.204 L202.703,-37.204 L224.238,-47.194 L225.448,-87.204 L225.448,-87.204" fill="rgba(0,0,0,0)" stroke="rgba(255,0,0,1)" stroke-width="1"/>
<path d="M-124.417,9.1 C-124.417,11.31 -126.208,13.1 -128.417,13.1 C-130.626,13.1 -132.417,11.31 -132.417,9.1 C-132.417,6.891 -130.626,5.1 -128.417,5.1 C-126.208,5.1 -124.417,6.891 -124.417,9.1 Z" fill="rgba(255,0,0,0.5058823529411764)"/>
<path d="M-229.448,92.796 L-229.448,92.796 L-274.552,183.312 L-183.959,182.796 L-183.959,182.796 L-13.591,181.823 L-225.937,44.949 L-138.469,12.796 L-138.469,12.796 L-99.268,-1.615 L97.275,-16.797 L157.214,-27.204 L157.214,-27.204 L168.32,-29.133 L196.643,-34.393 L202.703,-37.204 L202.703,-37.204 L224.238,-47.194 L225.448,-87.204 L225.448,-87.204" fill="rgba(0,0,0,0)" stroke="rgba(255,0,0,1)" stroke-width="1"/>
<path d="M-104.314,1.71 C-104.314,3.92 -106.105,5.71 -108.314,5.71 C-110.523,5.71 -112.314,3.92 -112.314,1.71 C-112.314,-0.499 -110.523,-2.29 -108.314,-2.29 C-106.105,-2.29 -104.314,-0.499 -104.314,1.71 Z" fill="rgba(255,0,0,0.5058823529411764)"/>
<path d="M-229.448,92.796 L-229.448,92.796 L-274.552,183.312 L-183.959,182.796 L-183.959,182.796 L-13.591,181.823 L-225.937,44.949 L-138.469,12.796 L-138.469,12.796 L-99.268,-1.615 L97.275,-16.797 L157.214,-27.204 L157.214,-27.204 L168.32,-29.133 L196.643,-34.393 L202.703,-37.204 L202.703,-37.204 L224.238,-47.194 L225.448,-87.204 L225.448,-87.204" fill="rgba(0,0,0,0)" stroke="rgba(255,0,0,1)" stroke-width="1"/>
<path d="M111.265,-18.532 C111.265,-16.323 109.474,-14.532 107.265,-14.532 C105.056,-14.532 103.265,-16.323 103.265,-18.532 C103.265,-20.741 105.056,-22.532 107.265,-22.532 C109.474,-22.532 111.265,-20.741 111.265,-18.532 Z" fill="rgba(255,0,0,0.5058823529411764)"/>
<path d="M-229.448,92.796 L-229.448,92.796 L-274.552,183.312 L-183.959,182.796 L-183.959,182.796 L-13.591,181.823 L-225.937,44.949 L-138.469,12.796 L-138.469,12.796 L-99.268,-1.615 L97.275,-16.797 L157.214,-27.204 L157.214,-27.204 L168.32,-29.133 L196.643,-34.393 L202.703,-37.204 L202.703,-37.204 L224.238,-47.194 L225.448,-87.204 L225.448,-87.204" fill="rgba(0,0,0,0)" stroke="rgba(255,0,0,1)" stroke-width="1"/>
<path d="M131.244,-22.001 C131.244,-19.792 129.454,-18.001 127.244,-18.001 C125.035,-18.001 123.244,-19.792 123.244,-22.001 C123.244,-24.21 125.035,-26.001 127.244,-26.001 C129.454,-26.001 131.244,-24.21 131.244,-22.001 Z" fill="rgba(255,0,0,0.5058823529411764)"/>
<path d="M-229.448,92.796 L-229.448,92.796 L-274.552,183.312 L-183.959,182.796 L-183.959,182.796 L-13.591,181.823 L-225.937,44.949 L-138.469,12.796 L-138.469,12.796 L-99.268,-1.615 L97.275,-16.797 L157.214,-27.204 L157.214,-27.204 L168.32,-29.133 L196.643,-34.393 L202.703,-37.204 L202.703,-37.204 L224.238,-47.194 L225.448,-87.204 L225.448,-87.204" fill="rgba(0,0,0,0)" stroke="rgba(255,0,0,1)" stroke-width="1"/>
<path d="M151.224,-25.47 C151.224,-23.261 149.433,-21.47 147.224,-21.47 C145.015,-21.47 143.224,-23.261 143.224,-25.47 C143.224,-27.679 145.015,-29.47 147.224,-29.47 C149.433,-29.47 151.224,-27.679 151.224,-25.47 Z" fill="rgba(255,0,0,0.5058823529411764)"/>
<path d="M-229.448,92.796 L-229.448,92.796 L-274.552,183.312 L-183.959,182.796 L-183.959,182.796 L-13.591,181.823 L-225.937,44.949 L-138.469,12.796 L-138.469,12.796 L-99.268,-1.615 L97.275,-16.797 L157.214,-27.204 L157.214,-27.204 L168.32,-29.133 L196.643,-34.393 L202.703,-37.204 L202.703,-37.204 L224.238,-47.194 L225.448,-87.204 L225.448,-87.204" fill="rgba(0,0,0,0)" stroke="rgba(255,0,0,1)" stroke-width="1"/>
<path d="M171.31,-28.958 C171.31,-26.749 169.52,-24.958 167.31,-24.958 C165.101,-24.958 163.31,-26.749 163.31,-28.958 C163.31,-31.167 165.101,-32.958 167.31,-32.958 C169.52,-32.958 171.31,-31.167 171.31,-28.958 Z" fill="rgba(255,0,0,0.5058823529411764)"/>
<path d="M-229.448,92.796 L-229.448,92.796 L-274.552,183.312 L-183.959,182.796 L-183.959,182.796 L-13.591,181.823 L-225.937,44.949 L-138.469,12.796 L-138.469,12.796 L-99.268,-1.615 L97.275,-16.797 L157.214,-27.204 L157.214,-27.204 L168.32,-29.133 L196.643,-34.393 L202.703,-37.204 L202.703,-37.204 L224.238,-47.194 L225.448,-87.204 L225.448,-87.204" fill="rgba(0,0,0,0)" stroke="rgba(255,0,0,1)" stroke-width="1"/>
<path d="M191.539,-32.702 C191.539,-30.493 189.748,-28.702 187.539,-28.702 C185.33,-28.702 183.539,-30.493 183.539,-32.702 C183.539,-34.911 185.33,-36.702 187.539,-36.702 C189.748,-36.702 191.539,-34.911 191.539,-32.702 Z" fill="rgba(255,0,0,0.5058823529411764)"/>
<path d="M-229.448,92.796 L-229.448,92.796 L-274.552,183.312 L-183.959,182.796 L-183.959,182.796 L-13.591,181.823 L-225.937,44.949 L-138.469,12.796 L-138.469,12.796 L-99.268,-1.615 L97.275,-16.797 L157.214,-27.204 L157.214,-27.204 L168.32,-29.133 L196.643,-34.393 L202.703,-37.204 L202.703,-37.204 L224.238,-47.194 L225.448,-87.204 L225.448,-87.204" fill="rgba(0,0,0,0)" stroke="rgba(255,0,0,1)" stroke-width="1"/>
<path d="M203.024,-35.497 C203.024,-33.288 201.233,-31.497 199.024,-31.497 C196.814,-31.497 195.024,-33.288 195.024,-35.497 C195.024,-37.707 196.814,-39.497 199.024,-39.497 C201.233,-39.497 203.024,-37.707 203.024,-35.497 Z" fill="rgba(255,0,0,0.5058823529411764)"/>
<path d="M-229.448,162.796 L-209.448,154.796 L-189.448,146.796 L-169.448,138.796 L-149.448,130.796 L-129.448,122.796 L-109.448,114.796 L-89.448,106.796 L-69.448,98.796 L-49.448,90.796 L-29.448,82.796 L-9.448,74.796 L10.552,66.796 L30.552,58.796 L50.552,50.796 L70.552,42.796 L90.552,34.796 L110.552,26.796 L130.552,18.796 L150.552,10.796 L170.552,2.796 L190.552,-5.204 L210.552,-13.204 L230.552,-21.204 L250.552,-29.204 L270.552,-37.204" fill="none" stroke="rgba(0,0,0,1)" stroke-width="1"/>
<path d="M-229.448,162.796 L-229.448,92.796" fill="none" stroke="rgba(0,0,0,1)" stroke-width="1"/>
<path d="M-209.448,154.796 L-255.637,183.204" fill="none" stroke="rgba(0,0,0,1)" stroke-width="1"/>
<path d="M-189.448,146.796 L-235.726,183.091" fill="none" stroke="rgba(0,0,0,1)" stroke-width="1"/>
<path d="M-169.448,138.796 L-215.816,182.977" fill="none" stroke="rgba(0,0,0,1)" stroke-width="1"/>
<path d="M-149.448,130.796 L-195.905,182.864" fill="none" stroke="rgba(0,0,0,1)" stroke-width="1"/>
<path d="M-129.448,122.796 L-175.941,182.75" fill="none" stroke="rgba(0,0,0,1)" stroke-width="1"/>
<path d="M-109.448,114.796 L-155.898,182.635" fill="none" stroke="rgba(0,0,0,1)" stroke-width="1"/>
<path d="M-89.448,106.796 L-135.855,182.521" fill="none" stroke="rgba(0,0,0,1)" stroke-width="1"/>
<path d="M-69.448,98.796 L-115.811,182.407" fill="none" stroke="rgba(0,0,0,1)" stroke-width="1"/>
<path d="M-49.448,90.796 L-95.768,182.292" fill="none" stroke="rgba(0,0,0,1)" stroke-width="1"/>
<path d="M-29.448,82.796 L-75.725,182.178" fill="none" stroke="rgba(0,0,0,1)" stroke-width="1"/>
<path d="M-9.448,74.796 L-55.682,182.064" fill="none" stroke="rgba(0,0,0,1)" stroke-width="1"/>
<path d="M10.552,66.796 L-35.638,181.949" fill="none" stroke="rgba(0,0,0,1)" stroke-width="1"/>
<path d="M30.552,58.796 L-15.595,181.835" fill="none" stroke="rgba(0,0,0,1)" stroke-width="1"/>
<path d="M50.552,50.796 L-208.846,38.667" fill="none" stroke="rgba(0,0,0,1)" stroke-width="1"/>
<path d="M70.552,42.796 L-188.738,31.275" fill="none" stroke="rgba(0,0,0,1)" stroke-width="1"/>
<path d="M90.552,34.796 L-168.63,23.883" fill="none" stroke="rgba(0,0,0,1)" stroke-width="1"/>
<path d="M110.552,26.796 L-148.523,16.491" fill="none" stroke="rgba(0,0,0,1)" stroke-width="1"/>
<path d="M130.552,18.796 L-128.417,9.1" fill="none" stroke="rgba(0,0,0,1)" stroke-width="1"/>
<path d="M150.552,10.796 L-108.314,1.71" fill="none" stroke="rgba(0,0,0,1)" stroke-width="1"/>
<path d="M170.552,2.796 L107.265,-18.532" fill="none" stroke="rgba(0,0,0,1)" stroke-width="1"/>
<path d="M190.552,-5.204 L127.244,-22.001" fill="none" stroke="rgba(0,0,0,1)" stroke-width="1"/>
<path d="M210.552,-13.204 L147.224,-25.47" fill="none" stroke="rgba(0,0,0,1)" stroke-width="1"/>
<path d="M230.552,-21.204 L167.31,-28.958" fill="none" stroke="rgba(0,0,0,1)" stroke-width="1"/>
<path d="M250.552,-29.204 L187.539,-32.702" fill="none" stroke="rgba(0,0,0,1)" stroke-width="1"/>
<path d="M270.552,-37.204 L199.024,-35.497" fill="none" stroke="rgba(0,0,0,1)" stroke-width="1"/>
<path d="M-225.448,162.796 C-225.448,165.005 -227.239,166.796 -229.448,166.796 C-231.657,166.796 -233.448,165.005 -233.448,162.796 C-233.448,160.586 -231.657,158.796 -229.448,158.796 C-227.239,158.796 -225.448,160.586 -225.448,162.796 Z" fill="rgba(0,0,0,0.5019607843137255)"/>
<path d="M-205.448,154.796 C-205.448,157.005 -207.239,158.796 -209.448,158.796 C-211.657,158.796 -213.448,157.005 -213.448,154.796 C-213.448,152.586 -211.657,150.796 -209.448,150.796 C-207.239,150.796 -205.448,152.586 -205.448,154.796 Z" fill="rgba(0,0,0,0.5019607843137255)"/>
<path d="M-185.448,146.796 C-185.448,149.005 -187.239,150.796 -189.448,150.796 C-191.657,150.796 -193.448,149.005 -193.448,146.796 C-193.448,144.586 -191.657,142.796 -189.448,142.796 C-187.239,142.796 -185.448,144.586 -185.448,146.796 Z" fill="rgba(0,0,0,0.5019607843137255)"/>
<path d="M-165.448,138.796 C-165.448,141.005 -167.239,142.796 -169.448,142.796 C-171.657,142.796 -173.448,141.005 -173.448,138.796 C-173.448,136.586 -171.657,134.796 -169.448,134.796 C-167.239,134.796 -165.448,136.586 -165.448,138.796 Z" fill="rgba(0,0,0,0.5019607843137255)"/>
<path d="M-145.448,130.796 C-145.448,133.005 -147.239,134.796 -149.448,134.796 C-151.657,134.796 -153.448,133.005 -153.448,130.796 C-153.448,128.586 -151.657,126.796 -149.448,126.796 C-147.239,126.796 -145.448,128.586 -145.448,130.796 Z" fill="rgba(0,0,0,0.5019607843137255)"/>
<path d="M-125.448,122.796 C-125.448,125.005 -127.239,126.796 -129.448,126.796 C-131.657,126.796 -133.448,125.005 -133.448,122.796 C-133.448,120.586 -131.657,118.796 -129.448,118.796 C-127.239,118.796 -125.448,120.586 -125.448,122.796 Z" fill="rgba(0,0,0,0.5019607843137255)"/>
<path d="M-105.448,114.796 C-105.448,117.005 -107.239,118.796 -109.448,118.796 C-111.657,118.796 -113.448,117.005 -113.448,114.796 C-113.448,112.586 -111.657,110.796 -109.448,110.796 C-107.239,110.796 -105.448,112.586 -105.448,114.796 Z" fill="rgba(0,0,0,0.5019607843137255)"/>
<path d="M-85.448,106.796 C-85.448,109.005 -87.239,110.796 -89.448,110.796 C-91.657,110.796 -93.448,109.005 -93.448,106.796 C-93.448,104.586 -91.657,102.796 -89.448,102.796 C-87.239,102.796 -85.448,104.586 -85.448,106.796 Z" fill="rgba(0,0,0,0.5019607843137255)"/>
<path d="M-65.448,98.796 C-65.448,101.005 -67.239,102.796 -69.448,102.796 C-71.657,102.796 -73.448,101.005 -73.448,98.796 C-73.448,96.586 -71.657,94.796 -69.448,94.796 C-67.239,94.796 -65.448,96.586 -65.448,98.796 Z" fill="rgba(0,0,0,0.5019607843137255)"/>
<path d="M-45.448,90.796 C-45.448,93.005 -47.239,94.796 -49.448,94.796 C-51.657,94.796 -53.448,93.005 -53.448,90.796 C-53.448,88.586 -51.657,86.796 -49.448,86.796 C-47.239,86.796 -45.448,88.586 -45.448,90.796 Z" fill="rgba(0,0,0,0.5019607843137255)"/>
<path d="M-25.448,82.796 C-25.448,85.005 -27.239,86.796 -29.448,86.796 C-31.657,86.796 -33.448,85.005 -33.448,82.796 C-33.448,80.586 -31.657,78.796 -29.448,78.796 C-27.239,78.796 -25.448,80.586 -25.448,82.796 Z" fill="rgba(0,0,0,0.5019607843137255)"/>
<path d="M-5.448,74.796 C-5.448,77.005 -7.239,78.796 -9.448,78.796 C-11.657,78.796 -13.448,77.005 -13.448,74.796 C-13.448,72.586 -11.657,70.796 -9.448,70.796 C-7.239,70.796 -5.448,72.586 -5.448,74.796 Z" fill="rgba(0,0,0,0.5019607843137255)"/>
<path d="M14.552,66.796 C14.552,69.005 12.761,70.796 10.552,70.796 C8.343,70.796 6.552,69.005 6.552,66.796 C6.552,64.586 8.343,62.796 10.552,62.796 C12.761,62.796 14.552,64.586 14.552,66.796 Z" fill="rgba(0,0,0,0.5019607843137255)"/>
<path d="M34.552,58.796 C34.552,61.005 32.761,62.796 30.552,62.796 C28.343,62.796 26.552,61.005 26.552,58.796 C26.552,56.586 28.343,54.796 30.552,54.796 C32.761,54.796 34.552,56.586 34.552,58.796 Z" fill="rgba(0,0,0,0.5019607843137255)"/>
<path d="M54.552,50.796 C54.552,53.005 52.761,54.796 50.552,54.796 C48.343,54.796 46.552,53.005 46.552,50.796 C46.552,48.586 48.343,46.796 50.552,46.796 C52.761,46.796 54.552,48.586 54.552,50.796 Z" fill="rgba(0,0,0,0.5019607843137255)"/>
<path d="M74.552,42.796 C74.552,45.005 72.761,46.796 70.552,46.796 C68.343,46.796 66.552,45.005 66.552,42.796 C66.552,40.586 68.343,38.796 70.552,38.796 C72.761,38.796 74.552,40.586 74.552,42.796 Z" fill="rgba(0,0,0,0.5019607843137255)"/>
<path d="M94.552,34.796 C94.552,37.005 92.761,38.796 90.552,38.796 C88.343,38.796 86.552,37.005 86.552,34.796 C86.552,32.586 88.343,30.796 90.552,30.796 C92.761,30.796 94.552,32.586 94.552,34.796 Z" fill="rgba(0,0,0,0.5019607843137255)"/>
<path d="M114.552,26.796 C114.552,29.005 112.761,30.796 110.552,30.796 C108.343,30.796 106.552,29.005 106.552,26.796 C106.552,24.586 108.343,22.796 110.552,22.796 C112.761,22.796 114.552,24.586 114.552,26.796 Z" fill="rgba(0,0,0,0.5019607843137255)"/>
<path d="M134.552,18.796 C134.552,21.005 132.761,22.796 130.552,22.796 C128.343,22.796 126.552,21.005 126.552,18.796 C126.552,16.586 128.343,14.796 130.552,14.796 C132.761,14.796 134.552,16.586 134.552,18.796 Z" fill="rgba(0,0,0,0.5019607843137255)"/>
<path d="M154.552,10.796 C154.552,13.005 152.761,14.796 150.552,14.796 C148.343,14.796 146.552,13.005 146.552,10.796 C146.552,8.586 148.343,6.796 150.552,6.796 C152.761,6.796 154.552,8.586 154.552,10.796 Z" fill="rgba(0,0,0,0.5019607843137255)"/>
<path d="M174.552,2.796 C174.552,5.005 172.761,6.796 170.552,6.796 C168.343,6.796 166.552,5.005 166.552,2.796 C166.552,0.586 168.343,-1.204 170.552,-1.204 C172.761,-1.204 174.552,0.586 174.552,2.796 Z" fill="rgba(0,0,0,0.5019607843137255)"/>
<path d="M194.552,-5.204 C194.552,-2.995 192.761,-1.204 190.552,-1.204 C188.343,-1.204 186.552,-2.995 186.552,-5.204 C186.552,-7.414 188.343,-9.204 190.552,-9.204 C192.761,-9.204 194.552,-7.414 194.552,-5.204 Z" fill="rgba(0,0,0,0.5019607843137255)"/>
<path d="M214.552,-13.204 C214.552,-10.995 212.761,-9.204 210.552,-9.204 C208.343,-9.204 206.552,-10.995 206.552,-13.204 C206.552,-15.414 208.343,-17.204 210.552,-17.204 C212.761,-17.204 214.552,-15.414 214.552,-13.204 Z" fill="rgba(0,0,0,0.5019607843137255)"/>
<path d="M234.552,-21.204 C234.552,-18.995 232.761,-17.204 230.552,-17.204 C228.343,-17.204 226.552,-18.995 226.552,-21.204 C226.552,-23.414 228.343,-25.204 230.552,-25.204 C232.761,-25.204 234.552,-23.414 234.552,-21.204 Z" fill="rgba(0,0,0,0.5019607843137255)"/>
<path d="M254.552,-29.204 C254.552,-26.995 252.761,-25.204 250.552,-25.204 C248.343,-25.204 246.552,-26.995 246.552,-29.204 C246.552,-31.414 248.343,-33.204 250.552,-33.204 C252.761,-33.204 254.552,-31.414 254.552,-29.204 Z" fill="rgba(0,0,0,0.5019607843137255)"/>
<path d="M274.552,-37.204 C274.552,-34.995 272.761,-33.204 270.552,-33.204 C268.343,-33.204 266.552,-34.995 266.552,-37.204 C266.552,-39.414 268.343,-41.204 270.552,-41.204 C272.761,-41.204 274.552,-39.414 274.552,-37.204 Z" fill="rgba(0,0,0,0.5019607843137255)"/>
</svg>