<svg xmlns="http://www.w3.org/2000/svg" viewBox="-153.9 -150.9 355.8 416.8">
<path d="M-128,-100 L-28,-100 L-28,0 L-128,0 Z" fill="rgba(166,220,169,1)"/>
<path d="M176,-50 C176,-8.579 142.421,25 101,25 C59.579,25 26,-8.579 26,-50 C26,-91.421 59.579,-125 101,-125 C142.421,-125 176,-91.421 176,-50 Z" fill="rgba(216,0,0,0.4392156862745098)" stroke="rgba(84,84,239,1)" stroke-width="8"/>
<path d="M-49,140 L51,140 L51,240 L-49,240 Z" fill="rgba(216,0,0,0.4392156862745098)" stroke="rgba(84,84,239,1)" stroke-width="8"/>
<path d="M-74.804,9 L-28.304,89.54 L-17.912,83.54 L-13.5,127.181 L-49.088,101.54 L-38.696,95.54 L-85.196,15 Z" fill="rgba(80,80,80,0.7764705882352941)"/>
<path d="M67.393,30.63 L36.707,93.546 L47.492,98.806 L13.779,126.867 L15.136,83.025 L25.921,88.285 L56.607,25.37 Z" fill="rgba(80,80,80,0.7764705882352941)"/>
</svg>