<svg xmlns="http://www.w3.org/2000/svg" viewBox="-193.2 -137.59 387.38 383.43">
<path d="M93.338,183.338 L92.645,183.948 L91.872,184.475 L91.023,184.918 L90.101,185.279 L89.112,185.561 L88.063,185.768 L86.962,185.906 L85.817,185.981 L84.635,186 L83.427,185.971 L82.2,185.905 L80.966,185.81 L79.732,185.698 L78.509,185.578 L77.304,185.462 L76.126,185.361 L74.982,185.285 L73.879,185.244 L72.823,185.248 L71.819,185.307 L70.871,185.428 L69.982,185.618 L69.154,185.884 L68.387,186.23 L67.682,186.66 L67.037,187.176 L66.449,187.777 L65.916,188.465 L65.433,189.235 L64.996,190.084 L64.597,191.008 L64.232,191.998 L63.893,193.049 L63.573,194.15 L63.266,195.292 L62.962,196.464 L62.656,197.654 L62.34,198.852 L62.007,200.044 L61.65,201.219 L61.263,202.365 L60.841,203.469 L60.379,204.52 L59.873,205.507 L59.32,206.422 L58.717,207.254 L58.062,207.997 L57.355,208.644 L56.596,209.19 L55.786,209.633 L54.926,209.969 L54.02,210.199 L53.07,210.325 L52.08,210.349 L51.054,210.276 L49.998,210.112 L48.916,209.865 L47.814,209.543 L46.697,209.157 L45.571,208.717 L44.442,208.235 L43.314,207.724 L42.193,207.197 L41.084,206.666 L39.992,206.145 L38.919,205.646 L37.87,205.183 L36.848,204.768 L35.854,204.411 L34.891,204.122 L33.959,203.912 L33.058,203.787 L32.189,203.753 L31.35,203.816 L30.541,203.979 L29.758,204.243 L29,204.608 L28.264,205.071 L27.547,205.63 L26.845,206.278 L26.155,207.01 L25.473,207.816 L24.795,208.687 L24.118,209.612 L23.438,210.58 L22.753,211.578 L22.058,212.592 L21.351,213.609 L20.63,214.616 L19.893,215.598 L19.138,216.541 L18.364,217.434 L17.57,218.264 L16.757,219.019 L15.924,219.689 L15.072,220.265 L14.203,220.739 L13.317,221.105 L12.417,221.359 L11.505,221.498 L10.582,221.52 L9.651,221.426 L8.716,221.219 L7.777,220.903 L6.838,220.484 L5.902,219.969 L4.97,219.367 L4.044,218.687 L3.127,217.942 L2.219,217.144 L1.323,216.305 L0.438,215.439 L-0.435,214.56 L-1.295,213.682 L-2.144,212.818 L-2.981,211.983 L-3.809,211.189 L-4.627,210.449 L-5.439,209.774 L-6.246,209.173 L-7.05,208.657 L-7.853,208.231 L-8.658,207.902 L-9.468,207.675 L-10.284,207.551 L-11.11,207.531 L-11.947,207.615 L-12.797,207.799 L-13.662,208.078 L-14.544,208.447 L-15.442,208.899 L-16.359,209.423 L-17.294,210.01 L-18.246,210.648 L-19.216,211.325 L-20.202,212.027 L-21.201,212.743 L-22.213,213.457 L-23.235,214.156 L-24.264,214.827 L-25.296,215.456 L-26.329,216.03 L-27.359,216.538 L-28.381,216.969 L-29.393,217.314 L-30.39,217.564 L-31.369,217.712 L-32.327,217.754 L-33.259,217.684 L-34.164,217.502 L-35.039,217.207 L-35.881,216.801 L-36.69,216.287 L-37.464,215.669 L-38.202,214.954 L-38.906,214.149 L-39.576,213.265 L-40.213,212.31 L-40.821,211.296 L-41.4,210.235 L-41.956,209.14 L-42.491,208.024 L-43.011,206.899 L-43.519,205.78 L-44.021,204.678 L-44.522,203.607 L-45.028,202.578 L-45.544,201.603 L-46.076,200.69 L-46.629,199.85 L-47.207,199.09 L-47.817,198.415 L-48.461,197.831 L-49.144,197.34 L-49.869,196.944 L-50.638,196.643 L-51.453,196.436 L-52.315,196.318 L-53.223,196.284 L-54.178,196.33 L-55.177,196.447 L-56.217,196.626 L-57.296,196.857 L-58.41,197.131 L-59.553,197.436 L-60.719,197.759 L-61.903,198.089 L-63.099,198.414 L-64.298,198.722 L-65.494,199 L-66.679,199.238 L-67.846,199.424 L-68.987,199.55 L-70.096,199.605 L-71.164,199.583 L-72.187,199.477 L-73.158,199.281 L-74.071,198.993 L-74.924,198.609 L-75.712,198.128 L-76.433,197.552 L-77.086,196.882 L-77.67,196.122 L-78.185,195.277 L-78.635,194.352 L-79.021,193.356 L-79.348,192.295 L-79.621,191.18 L-79.844,190.019 L-80.026,188.824 L-80.174,187.605 L-80.295,186.373 L-80.399,185.139 L-80.493,183.913 L-80.588,182.706 L-80.693,181.528 L-80.817,180.388 L-80.968,179.295 L-81.156,178.256 L-81.388,177.277 L-81.671,176.365 L-82.013,175.522 L-82.419,174.753 L-82.893,174.058 L-83.439,173.439 L-84.058,172.893 L-84.753,172.419 L-85.522,172.013 L-86.365,171.671 L-87.277,171.388 L-88.256,171.156 L-89.295,170.968 L-90.388,170.817 L-91.528,170.693 L-92.706,170.588 L-93.913,170.493 L-95.139,170.399 L-96.373,170.295 L-97.605,170.174 L-98.824,170.026 L-100.019,169.844 L-101.18,169.621 L-102.295,169.348 L-103.356,169.021 L-104.352,168.635 L-105.277,168.185 L-106.122,167.67 L-106.882,167.086 L-107.552,166.433 L-108.128,165.712 L-108.609,164.924 L-108.993,164.071 L-109.281,163.158 L-109.477,162.187 L-109.583,161.164 L-109.605,160.096 L-109.55,158.987 L-109.424,157.846 L-109.238,156.679 L-109,155.494 L-108.722,154.298 L-108.414,153.099 L-108.089,151.903 L-107.759,150.719 L-107.436,149.553 L-107.131,148.41 L-106.857,147.296 L-106.626,146.217 L-106.447,145.177 L-106.33,144.178 L-106.284,143.223 L-106.318,142.315 L-106.436,141.453 L-106.643,140.638 L-106.944,139.869 L-107.34,139.144 L-107.831,138.461 L-108.415,137.817 L-109.09,137.207 L-109.85,136.629 L-110.69,136.076 L-111.603,135.544 L-112.578,135.028 L-113.607,134.522 L-114.678,134.021 L-115.78,133.519 L-116.899,133.011 L-118.024,132.491 L-119.14,131.956 L-120.235,131.4 L-121.296,130.821 L-122.31,130.213 L-123.265,129.576 L-124.149,128.906 L-124.954,128.202 L-125.669,127.464 L-126.287,126.69 L-126.801,125.881 L-127.207,125.039 L-127.502,124.164 L-127.684,123.259 L-127.754,122.327 L-127.712,121.369 L-127.564,120.39 L-127.314,119.393 L-126.969,118.381 L-126.538,117.359 L-126.03,116.329 L-125.456,115.296 L-124.827,114.264 L-124.156,113.235 L-123.457,112.213 L-122.743,111.201 L-122.027,110.202 L-121.325,109.216 L-120.648,108.246 L-120.01,107.294 L-119.423,106.359 L-118.899,105.442 L-118.447,104.544 L-118.078,103.662 L-117.799,102.797 L-117.615,101.947 L-117.531,101.11 L-117.551,100.284 L-117.675,99.468 L-117.902,98.658 L-118.231,97.853 L-118.657,97.05 L-119.173,96.246 L-119.774,95.439 L-120.449,94.627 L-121.189,93.809 L-121.983,92.981 L-122.818,92.144 L-123.682,91.295 L-124.56,90.435 L-125.439,89.562 L-126.305,88.677 L-127.144,87.781 L-127.942,86.873 L-128.687,85.956 L-129.367,85.03 L-129.969,84.098 L-130.484,83.162 L-130.903,82.223 L-131.219,81.284 L-131.426,80.349 L-131.52,79.418 L-131.498,78.495 L-131.359,77.583 L-131.105,76.683 L-130.739,75.797 L-130.265,74.928 L-129.689,74.076 L-129.019,73.243 L-128.264,72.43 L-127.434,71.636 L-126.541,70.862 L-125.598,70.107 L-124.616,69.37 L-123.609,68.649 L-122.592,67.942 L-121.578,67.247 L-120.58,66.562 L-119.612,65.882 L-118.687,65.205 L-117.816,64.527 L-117.01,63.845 L-116.278,63.155 L-115.63,62.453 L-115.071,61.736 L-114.608,61 L-114.243,60.242 L-113.979,59.459 L-113.816,58.65 L-113.753,57.811 L-113.787,56.942 L-113.912,56.041 L-114.122,55.109 L-114.411,54.146 L-114.768,53.152 L-115.183,52.13 L-115.646,51.081 L-116.145,50.008 L-116.666,48.916 L-117.197,47.807 L-117.724,46.686 L-118.235,45.558 L-118.717,44.429 L-119.157,43.303 L-119.543,42.186 L-119.865,41.084 L-120.112,40.002 L-120.276,38.946 L-120.349,37.92 L-120.325,36.93 L-120.199,35.98 L-119.969,35.074 L-119.633,34.214 L-119.19,33.404 L-118.644,32.645 L-117.997,31.938 L-117.254,31.283 L-116.422,30.68 L-115.507,30.127 L-114.52,29.621 L-113.469,29.159 L-112.365,28.737 L-111.219,28.35 L-110.044,27.993 L-108.852,27.66 L-107.654,27.344 L-106.464,27.038 L-105.292,26.734 L-104.15,26.427 L-103.049,26.107 L-101.998,25.768 L-101.008,25.403 L-100.084,25.004 L-99.235,24.567 L-98.465,24.084 L-97.777,23.551 L-97.176,22.963 L-96.66,22.318 L-96.23,21.613 L-95.884,20.846 L-95.618,20.018 L-95.428,19.129 L-95.307,18.181 L-95.248,17.177 L-95.244,16.121 L-95.285,15.018 L-95.361,13.874 L-95.462,12.696 L-95.578,11.491 L-95.698,10.268 L-95.81,9.034 L-95.905,7.8 L-95.971,6.573 L-96,5.365 L-95.981,4.183 L-95.906,3.038 L-95.768,1.937 L-95.561,0.888 L-95.279,-0.101 L-94.918,-1.023 L-94.475,-1.872 L-93.948,-2.645 L-93.338,-3.338 L-92.645,-3.948 L-91.872,-4.475 L-91.023,-4.918 L-90.101,-5.279 L-89.112,-5.561 L-88.063,-5.768 L-86.962,-5.906 L-85.817,-5.981 L-84.635,-6 L-83.427,-5.971 L-82.2,-5.905 L-80.966,-5.81 L-79.732,-5.698 L-78.509,-5.578 L-77.304,-5.462 L-76.126,-5.361 L-74.982,-5.285 L-73.879,-5.244 L-72.823,-5.248 L-71.819,-5.307 L-70.871,-5.428 L-69.982,-5.618 L-69.154,-5.884 L-68.387,-6.23 L-67.682,-6.66 L-67.037,-7.176 L-66.449,-7.777 L-65.916,-8.465 L-65.433,-9.235 L-64.996,-10.084 L-64.597,-11.008 L-64.232,-11.998 L-63.893,-13.049 L-63.573,-14.15 L-63.266,-15.292 L-62.962,-16.464 L-62.656,-17.654 L-62.34,-18.852 L-62.007,-20.044 L-61.65,-21.219 L-61.263,-22.365 L-60.841,-23.469 L-60.379,-24.52 L-59.873,-25.507 L-59.32,-26.422 L-58.717,-27.254 L-58.062,-27.997 L-57.355,-28.644 L-56.596,-29.19 L-55.786,-29.633 L-54.926,-29.969 L-54.02,-30.199 L-53.07,-30.325 L-52.08,-30.349 L-51.054,-30.276 L-49.998,-30.112 L-48.916,-29.865 L-47.814,-29.543 L-46.697,-29.157 L-45.571,-28.717 L-44.442,-28.235 L-43.314,-27.724 L-42.193,-27.197 L-41.084,-26.666 L-39.992,-26.145 L-38.919,-25.646 L-37.87,-25.183 L-36.848,-24.768 L-35.854,-24.411 L-34.891,-24.122 L-33.959,-23.912 L-33.058,-23.787 L-32.189,-23.753 L-31.35,-23.816 L-30.541,-23.979 L-29.758,-24.243 L-29,-24.608 L-28.264,-25.071 L-27.547,-25.63 L-26.845,-26.278 L-26.155,-27.01 L-25.473,-27.816 L-24.795,-28.687 L-24.118,-29.612 L-23.438,-30.58 L-22.753,-31.578 L-22.058,-32.592 L-21.351,-33.609 L-20.63,-34.616 L-19.893,-35.598 L-19.138,-36.541 L-18.364,-37.434 L-17.57,-38.264 L-16.757,-39.019 L-15.924,-39.689 L-15.072,-40.265 L-14.203,-40.739 L-13.317,-41.105 L-12.417,-41.359 L-11.505,-41.498 L-10.582,-41.52 L-9.651,-41.426 L-8.716,-41.219 L-7.777,-40.903 L-6.838,-40.484 L-5.902,-39.969 L-4.97,-39.367 L-4.044,-38.687 L-3.127,-37.942 L-2.219,-37.144 L-1.323,-36.305 L-0.438,-35.439 L0.435,-34.56 L1.295,-33.682 L2.144,-32.818 L2.981,-31.983 L3.809,-31.189 L4.627,-30.449 L5.439,-29.774 L6.246,-29.173 L7.05,-28.657 L7.853,-28.231 L8.658,-27.902 L9.468,-27.675 L10.284,-27.551 L11.11,-27.531 L11.947,-27.615 L12.797,-27.799 L13.662,-28.078 L14.544,-28.447 L15.442,-28.899 L16.359,-29.423 L17.294,-30.01 L18.246,-30.648 L19.216,-31.325 L20.202,-32.027 L21.201,-32.743 L22.213,-33.457 L23.235,-34.156 L24.264,-34.827 L25.296,-35.456 L26.329,-36.03 L27.359,-36.538 L28.381,-36.969 L29.393,-37.314 L30.39,-37.564 L31.369,-37.712 L32.327,-37.754 L33.259,-37.684 L34.164,-37.502 L35.039,-37.207 L35.881,-36.801 L36.69,-36.287 L37.464,-35.669 L38.202,-34.954 L38.906,-34.149 L39.576,-33.265 L40.213,-32.31 L40.821,-31.296 L41.4,-30.235 L41.956,-29.14 L42.491,-28.024 L43.011,-26.899 L43.519,-25.78 L44.021,-24.678 L44.522,-23.607 L45.028,-22.578 L45.544,-21.603 L46.076,-20.69 L46.629,-19.85 L47.207,-19.09 L47.817,-18.415 L48.461,-17.831 L49.144,-17.34 L49.869,-16.944 L50.638,-16.643 L51.453,-16.436 L52.315,-16.318 L53.223,-16.284 L54.178,-16.33 L55.177,-16.447 L56.217,-16.626 L57.296,-16.857 L58.41,-17.131 L59.553,-17.436 L60.719,-17.759 L61.903,-18.089 L63.099,-18.414 L64.298,-18.722 L65.494,-19 L66.679,-19.238 L67.846,-19.424 L68.987,-19.55 L70.096,-19.605 L71.164,-19.583 L72.187,-19.477 L73.158,-19.281 L74.071,-18.993 L74.924,-18.609 L75.712,-18.128 L76.433,-17.552 L77.086,-16.882 L77.67,-16.122 L78.185,-15.277 L78.635,-14.352 L79.021,-13.356 L79.348,-12.295 L79.621,-11.18 L79.844,-10.019 L80.026,-8.824 L80.174,-7.605 L80.295,-6.373 L80.399,-5.139 L80.493,-3.913 L80.588,-2.706 L80.693,-1.528 L80.817,-0.388 L80.968,0.705 L81.156,1.744 L81.388,2.723 L81.671,3.635 L82.013,4.478 L82.419,5.247 L82.893,5.942 L83.439,6.561 L84.058,7.107 L84.753,7.581 L85.522,7.987 L86.365,8.329 L87.277,8.612 L88.256,8.844 L89.295,9.032 L90.388,9.183 L91.528,9.307 L92.706,9.412 L93.913,9.507 L95.139,9.601 L96.373,9.705 L97.605,9.826 L98.824,9.974 L100.019,10.156 L101.18,10.379 L102.295,10.652 L103.356,10.979 L104.352,11.365 L105.277,11.815 L106.122,12.33 L106.882,12.914 L107.552,13.567 L108.128,14.288 L108.609,15.076 L108.993,15.929 L109.281,16.842 L109.477,17.813 L109.583,18.836 L109.605,19.904 L109.55,21.013 L109.424,22.154 L109.238,23.321 L109,24.506 L108.722,25.702 L108.414,26.901 L108.089,28.097 L107.759,29.281 L107.436,30.447 L107.131,31.59 L106.857,32.704 L106.626,33.783 L106.447,34.823 L106.33,35.822 L106.284,36.777 L106.318,37.685 L106.436,38.547 L106.643,39.362 L106.944,40.131 L107.34,40.856 L107.831,41.539 L108.415,42.183 L109.09,42.793 L109.85,43.371 L110.69,43.924 L111.603,44.456 L112.578,44.972 L113.607,45.478 L114.678,45.979 L115.78,46.481 L116.899,46.989 L118.024,47.509 L119.14,48.044 L120.235,48.6 L121.296,49.179 L122.31,49.787 L123.265,50.424 L124.149,51.094 L124.954,51.798 L125.669,52.536 L126.287,53.31 L126.801,54.119 L127.207,54.961 L127.502,55.836 L127.684,56.741 L127.754,57.673 L127.712,58.631 L127.564,59.61 L127.314,60.607 L126.969,61.619 L126.538,62.641 L126.03,63.671 L125.456,64.704 L124.827,65.736 L124.156,66.765 L123.457,67.787 L122.743,68.799 L122.027,69.798 L121.325,70.784 L120.648,71.754 L120.01,72.706 L119.423,73.641 L118.899,74.558 L118.447,75.456 L118.078,76.338 L117.799,77.203 L117.615,78.053 L117.531,78.89 L117.551,79.716 L117.675,80.532 L117.902,81.342 L118.231,82.147 L118.657,82.95 L119.173,83.754 L119.774,84.561 L120.449,85.373 L121.189,86.191 L121.983,87.019 L122.818,87.856 L123.682,88.705 L124.56,89.565 L125.439,90.438 L126.305,91.323 L127.144,92.219 L127.942,93.127 L128.687,94.044 L129.367,94.97 L129.969,95.902 L130.484,96.838 L130.903,97.777 L131.219,98.716 L131.426,99.651 L131.52,100.582 L131.498,101.505 L131.359,102.417 L131.105,103.317 L130.739,104.203 L130.265,105.072 L129.689,105.924 L129.019,106.757 L128.264,107.57 L127.434,108.364 L126.541,109.138 L125.598,109.893 L124.616,110.63 L123.609,111.351 L122.592,112.058 L121.578,112.753 L120.58,113.438 L119.612,114.118 L118.687,114.795 L117.816,115.473 L117.01,116.155 L116.278,116.845 L115.63,117.547 L115.071,118.264 L114.608,119 L114.243,119.758 L113.979,120.541 L113.816,121.35 L113.753,122.189 L113.787,123.058 L113.912,123.959 L114.122,124.891 L114.411,125.854 L114.768,126.848 L115.183,127.87 L115.646,128.919 L116.145,129.992 L116.666,131.084 L117.197,132.193 L117.724,133.314 L118.235,134.442 L118.717,135.571 L119.157,136.697 L119.543,137.814 L119.865,138.916 L120.112,139.998 L120.276,141.054 L120.349,142.08 L120.325,143.07 L120.199,144.02 L119.969,144.926 L119.633,145.786 L119.19,146.596 L118.644,147.355 L117.997,148.062 L117.254,148.717 L116.422,149.32 L115.507,149.873 L114.52,150.379 L113.469,150.841 L112.365,151.263 L111.219,151.65 L110.044,152.007 L108.852,152.34 L107.654,152.656 L106.464,152.962 L105.292,153.266 L104.15,153.573 L103.049,153.893 L101.998,154.232 L101.008,154.597 L100.084,154.996 L99.235,155.433 L98.465,155.916 L97.777,156.449 L97.176,157.037 L96.66,157.682 L96.23,158.387 L95.884,159.154 L95.618,159.982 L95.428,160.871 L95.307,161.819 L95.248,162.823 L95.244,163.879 L95.285,164.982 L95.361,166.126 L95.462,167.304 L95.578,168.509 L95.698,169.732 L95.81,170.966 L95.905,172.2 L95.971,173.427 L96,174.635 L95.981,175.817 L95.906,176.962 L95.768,178.063 L95.561,179.112 L95.279,180.101 L94.918,181.023 L94.475,181.872 L93.948,182.645 L93.338,183.338 Z" fill="rgba(255,255,189,1)" stroke="rgba(0,0,0,1)" stroke-width="1"/>
<path d="M60.64,150.64 L59.702,150.867 L58.817,151.136 L57.988,151.453 L57.218,151.823 L56.508,152.252 L55.856,152.742 L55.263,153.297 L54.725,153.918 L54.24,154.605 L53.803,155.357 L53.409,156.173 L53.054,157.048 L52.73,157.979 L52.43,158.959 L52.149,159.983 L51.878,161.042 L51.61,162.129 L51.337,163.234 L51.053,164.347 L50.751,165.46 L50.424,166.561 L50.065,167.641 L49.671,168.689 L49.236,169.695 L48.755,170.651 L48.227,171.548 L47.649,172.376 L47.019,173.131 L46.336,173.805 L45.602,174.394 L44.817,174.893 L43.984,175.301 L43.104,175.617 L42.182,175.841 L41.221,175.975 L40.225,176.022 L39.2,175.987 L38.151,175.875 L37.083,175.693 L36.001,175.45 L34.911,175.154 L33.818,174.815 L32.728,174.444 L31.645,174.052 L30.573,173.649 L29.517,173.248 L28.481,172.859 L27.466,172.493 L26.477,172.162 L25.513,171.874 L24.577,171.64 L23.668,171.467 L22.788,171.363 L21.934,171.333 L21.105,171.382 L20.3,171.513 L19.517,171.729 L18.752,172.028 L18.003,172.411 L17.267,172.874 L16.54,173.414 L15.818,174.023 L15.099,174.697 L14.378,175.426 L13.653,176.202 L12.921,177.014 L12.178,177.851 L11.424,178.703 L10.655,179.557 L9.87,180.401 L9.068,181.224 L8.249,182.014 L7.413,182.759 L6.56,183.447 L5.69,184.071 L4.806,184.619 L3.908,185.084 L3,185.459 L2.083,185.739 L1.159,185.919 L0.232,185.997 L-0.696,185.971 L-1.621,185.842 L-2.542,185.611 L-3.455,185.283 L-4.359,184.862 L-5.25,184.355 L-6.127,183.768 L-6.988,183.111 L-7.833,182.392 L-8.661,181.624 L-9.471,180.816 L-10.264,179.981 L-11.041,179.13 L-11.803,178.276 L-12.551,177.43 L-13.288,176.604 L-14.016,175.809 L-14.739,175.055 L-15.458,174.353 L-16.178,173.71 L-16.902,173.135 L-17.634,172.633 L-18.376,172.21 L-19.132,171.868 L-19.906,171.61 L-20.7,171.437 L-21.516,171.347 L-22.357,171.338 L-23.225,171.406 L-24.119,171.545 L-25.041,171.75 L-25.992,172.012 L-26.968,172.323 L-27.971,172.673 L-28.997,173.051 L-30.043,173.448 L-31.107,173.851 L-32.185,174.25 L-33.272,174.633 L-34.364,174.989 L-35.457,175.308 L-36.543,175.579 L-37.619,175.792 L-38.678,175.94 L-39.716,176.014 L-40.727,176.009 L-41.706,175.919 L-42.648,175.741 L-43.55,175.471 L-44.407,175.109 L-45.216,174.655 L-45.976,174.11 L-46.684,173.478 L-47.34,172.763 L-47.944,171.971 L-48.497,171.107 L-49.001,170.18 L-49.459,169.198 L-49.873,168.169 L-50.249,167.104 L-50.591,166.012 L-50.905,164.904 L-51.197,163.79 L-51.475,162.679 L-51.744,161.583 L-52.013,160.509 L-52.288,159.466 L-52.577,158.463 L-52.888,157.507 L-53.227,156.603 L-53.601,155.757 L-54.015,154.973 L-54.476,154.253 L-54.987,153.599 L-55.552,153.012 L-56.174,152.489 L-56.856,152.03 L-57.596,151.631 L-58.395,151.288 L-59.252,150.996 L-60.164,150.749 L-61.127,150.539 L-62.137,150.36 L-63.187,150.204 L-64.271,150.063 L-65.382,149.928 L-66.512,149.79 L-67.651,149.643 L-68.792,149.477 L-69.925,149.284 L-71.04,149.059 L-72.128,148.794 L-73.179,148.483 L-74.186,148.121 L-75.14,147.705 L-76.032,147.231 L-76.857,146.696 L-77.609,146.1 L-78.281,145.442 L-78.872,144.723 L-79.378,143.945 L-79.797,143.11 L-80.131,142.221 L-80.38,141.283 L-80.546,140.301 L-80.635,139.279 L-80.65,138.224 L-80.598,137.141 L-80.487,136.038 L-80.325,134.92 L-80.121,133.795 L-79.884,132.668 L-79.625,131.545 L-79.354,130.433 L-79.083,129.337 L-78.822,128.261 L-78.581,127.21 L-78.371,126.187 L-78.202,125.196 L-78.082,124.238 L-78.02,123.316 L-78.023,122.429 L-78.096,121.577 L-78.244,120.761 L-78.472,119.978 L-78.78,119.226 L-79.17,118.503 L-79.64,117.806 L-80.189,117.13 L-80.812,116.473 L-81.504,115.831 L-82.259,115.198 L-83.07,114.57 L-83.927,113.944 L-84.822,113.315 L-85.743,112.679 L-86.679,112.032 L-87.62,111.372 L-88.553,110.695 L-89.466,109.998 L-90.349,109.28 L-91.189,108.54 L-91.975,107.776 L-92.699,106.988 L-93.35,106.176 L-93.92,105.341 L-94.402,104.484 L-94.79,103.607 L-95.08,102.712 L-95.269,101.801 L-95.355,100.877 L-95.338,99.943 L-95.221,99.001 L-95.005,98.055 L-94.696,97.107 L-94.3,96.162 L-93.823,95.22 L-93.274,94.286 L-92.663,93.36 L-92,92.446 L-91.296,91.545 L-90.562,90.657 L-89.811,89.783 L-89.055,88.924 L-88.305,88.079 L-87.574,87.248 L-86.872,86.429 L-86.211,85.621 L-85.601,84.822 L-85.05,84.03 L-84.566,83.242 L-84.156,82.455 L-83.825,81.667 L-83.577,80.875 L-83.415,80.076 L-83.338,79.267 L-83.347,78.446 L-83.44,77.61 L-83.612,76.757 L-83.858,75.886 L-84.172,74.995 L-84.547,74.083 L-84.973,73.151 L-85.441,72.198 L-85.941,71.226 L-86.461,70.235 L-86.989,69.227 L-87.515,68.205 L-88.027,67.172 L-88.512,66.13 L-88.96,65.085 L-89.359,64.039 L-89.701,62.996 L-89.975,61.963 L-90.174,60.941 L-90.291,59.937 L-90.32,58.955 L-90.256,57.998 L-90.097,57.07 L-89.841,56.176 L-89.488,55.318 L-89.039,54.498 L-88.497,53.719 L-87.866,52.981 L-87.152,52.286 L-86.362,51.633 L-85.502,51.021 L-84.582,50.448 L-83.611,49.913 L-82.599,49.411 L-81.556,48.94 L-80.494,48.495 L-79.423,48.07 L-78.354,47.661 L-77.298,47.262 L-76.264,46.866 L-75.262,46.466 L-74.301,46.058 L-73.39,45.634 L-72.533,45.189 L-71.739,44.716 L-71.01,44.21 L-70.351,43.666 L-69.763,43.08 L-69.248,42.448 L-68.805,41.767 L-68.431,41.036 L-68.124,40.253 L-67.88,39.418 L-67.693,38.532 L-67.558,37.597 L-67.466,36.616 L-67.41,35.592 L-67.382,34.531 L-67.372,33.437 L-67.372,32.318 L-67.372,31.18 L-67.362,30.031 L-67.335,28.878 L-67.281,27.731 L-67.191,26.597 L-67.059,25.485 L-66.877,24.403 L-66.64,23.36 L-66.341,22.364 L-65.978,21.42 L-65.547,20.537 L-65.046,19.719 L-64.474,18.972 L-63.831,18.299 L-63.12,17.703 L-62.341,17.186 L-61.499,16.748 L-60.598,16.388 L-59.643,16.104 L-58.639,15.893 L-57.594,15.751 L-56.513,15.672 L-55.404,15.649 L-54.275,15.675 L-53.133,15.742 L-51.986,15.842 L-50.84,15.963 L-49.703,16.098 L-48.582,16.235 L-47.483,16.365 L-46.41,16.477 L-45.37,16.562 L-44.366,16.61 L-43.4,16.614 L-42.477,16.564 L-41.597,16.455 L-40.76,16.28 L-39.968,16.034 L-39.218,15.714 L-38.509,15.317 L-37.838,14.843 L-37.202,14.292 L-36.598,13.666 L-36.021,12.968 L-35.466,12.204 L-34.929,11.378 L-34.404,10.497 L-33.886,9.571 L-33.369,8.607 L-32.849,7.616 L-32.32,6.609 L-31.777,5.595 L-31.218,4.587 L-30.636,3.597 L-30.03,2.634 L-29.396,1.711 L-28.733,0.838 L-28.037,0.025 L-27.31,-0.719 L-26.55,-1.386 L-25.758,-1.968 L-24.934,-2.459 L-24.08,-2.855 L-23.199,-3.152 L-22.292,-3.349 L-21.362,-3.445 L-20.413,-3.442 L-19.448,-3.342 L-18.47,-3.149 L-17.483,-2.869 L-16.491,-2.509 L-15.497,-2.077 L-14.505,-1.582 L-13.518,-1.034 L-12.538,-0.444 L-11.568,0.177 L-10.61,0.817 L-9.666,1.465 L-8.737,2.107 L-7.824,2.733 L-6.926,3.331 L-6.045,3.889 L-5.178,4.399 L-4.325,4.851 L-3.484,5.236 L-2.654,5.548 L-1.832,5.782 L-1.016,5.932 L-0.203,5.997 L0.609,5.976 L1.423,5.868 L2.242,5.675 L3.068,5.402 L3.903,5.052 L4.75,4.633 L5.609,4.151 L6.484,3.615 L7.373,3.036 L8.278,2.423 L9.2,1.787 L10.136,1.141 L11.087,0.496 L12.051,-0.137 L13.027,-0.744 L14.011,-1.314 L15.001,-1.837 L15.994,-2.302 L16.988,-2.699 L17.978,-3.02 L18.96,-3.257 L19.932,-3.403 L20.89,-3.456 L21.83,-3.409 L22.748,-3.263 L23.643,-3.016 L24.511,-2.669 L25.35,-2.225 L26.158,-1.688 L26.934,-1.063 L27.678,-0.357 L28.389,0.423 L29.068,1.267 L29.717,2.167 L30.336,3.111 L30.93,4.089 L31.5,5.09 L32.05,6.102 L32.585,7.114 L33.11,8.114 L33.627,9.093 L34.144,10.039 L34.665,10.944 L35.196,11.798 L35.741,12.594 L36.307,13.326 L36.897,13.988 L37.516,14.577 L38.169,15.09 L38.858,15.525 L39.587,15.883 L40.359,16.166 L41.173,16.376 L42.031,16.518 L42.933,16.596 L43.878,16.618 L44.863,16.591 L45.886,16.523 L46.943,16.424 L48.029,16.301 L49.14,16.167 L50.27,16.03 L51.412,15.9 L52.56,15.789 L53.705,15.704 L54.842,15.656 L55.962,15.654 L57.057,15.704 L58.121,15.814 L59.147,15.99 L60.127,16.237 L61.056,16.558 L61.928,16.957 L62.739,17.435 L63.484,17.992 L64.161,18.626 L64.769,19.337 L65.305,20.12 L65.771,20.971 L66.168,21.885 L66.498,22.856 L66.766,23.877 L66.975,24.94 L67.131,26.038 L67.241,27.162 L67.312,28.304 L67.351,29.455 L67.369,30.607 L67.372,31.751 L67.371,32.881 L67.375,33.988 L67.393,35.066 L67.434,36.109 L67.507,37.112 L67.62,38.07 L67.78,38.981 L67.995,39.842 L68.27,40.651 L68.609,41.408 L69.018,42.114 L69.497,42.77 L70.048,43.379 L70.672,43.943 L71.366,44.468 L72.128,44.956 L72.954,45.415 L73.839,45.849 L74.776,46.264 L75.758,46.667 L76.777,47.064 L77.824,47.461 L78.888,47.864 L79.959,48.28 L81.027,48.715 L82.081,49.172 L83.109,49.658 L84.102,50.176 L85.049,50.73 L85.94,51.322 L86.766,51.954 L87.519,52.628 L88.192,53.345 L88.779,54.103 L89.275,54.903 L89.676,55.742 L89.981,56.619 L90.189,57.53 L90.3,58.473 L90.317,59.443 L90.244,60.437 L90.085,61.45 L89.847,62.478 L89.538,63.517 L89.166,64.562 L88.741,65.608 L88.273,66.652 L87.774,67.69 L87.253,68.717 L86.725,69.733 L86.199,70.732 L85.688,71.714 L85.203,72.677 L84.754,73.62 L84.353,74.542 L84.007,75.443 L83.726,76.324 L83.516,77.186 L83.383,78.03 L83.332,78.858 L83.366,79.673 L83.485,80.477 L83.691,81.272 L83.98,82.062 L84.351,82.848 L84.799,83.635 L85.317,84.425 L85.899,85.221 L86.536,86.024 L87.219,86.837 L87.936,87.662 L88.678,88.5 L89.433,89.352 L90.188,90.218 L90.932,91.099 L91.652,91.994 L92.337,92.902 L92.976,93.822 L93.557,94.752 L94.071,95.69 L94.508,96.634 L94.862,97.581 L95.125,98.528 L95.292,99.473 L95.359,100.411 L95.325,101.341 L95.187,102.259 L94.948,103.162 L94.608,104.048 L94.172,104.915 L93.645,105.761 L93.034,106.585 L92.346,107.385 L91.589,108.161 L90.775,108.913 L89.912,109.642 L89.013,110.349 L88.088,111.035 L87.15,111.704 L86.21,112.357 L85.279,112.998 L84.371,113.63 L83.493,114.257 L82.658,114.883 L81.874,115.513 L81.15,116.15 L80.491,116.8 L79.905,117.465 L79.395,118.151 L78.965,118.861 L78.616,119.598 L78.348,120.365 L78.16,121.165 L78.05,121.998 L78.013,122.868 L78.044,123.772 L78.136,124.713 L78.281,125.687 L78.472,126.695 L78.698,127.732 L78.95,128.796 L79.218,129.883 L79.49,130.987 L79.756,132.106 L80.006,133.231 L80.228,134.358 L80.412,135.481 L80.55,136.592 L80.632,137.686 L80.651,138.755 L80.6,139.794 L80.473,140.797 L80.266,141.758 L79.975,142.672 L79.598,143.534 L79.136,144.341 L78.587,145.09 L77.955,145.779 L77.243,146.406 L76.454,146.971 L75.594,147.475 L74.67,147.92 L73.689,148.309 L72.659,148.644 L71.588,148.932 L70.485,149.176 L69.36,149.384 L68.222,149.562 L67.081,149.718 L65.945,149.86 L64.824,149.995 L63.725,150.132 L62.657,150.28 L61.626,150.446 Z" fill="rgba(255,224,141,1)" stroke="rgba(0,0,0,1)" stroke-width="1"/>
<path d="M38.891,128.891 L38.711,129.947 L38.501,131 L38.254,132.041 L37.965,133.063 L37.628,134.057 L37.24,135.015 L36.797,135.93 L36.297,136.794 L35.739,137.601 L35.123,138.343 L34.449,139.017 L33.719,139.617 L32.936,140.14 L32.102,140.585 L31.222,140.95 L30.3,141.235 L29.342,141.442 L28.352,141.573 L27.338,141.632 L26.304,141.624 L25.256,141.555 L24.202,141.431 L23.145,141.26 L22.092,141.052 L21.048,140.813 L20.016,140.555 L19.002,140.286 L18.007,140.017 L17.035,139.756 L16.088,139.513 L15.166,139.297 L14.27,139.117 L13.399,138.979 L12.553,138.89 L11.729,138.856 L10.926,138.882 L10.141,138.971 L9.371,139.124 L8.612,139.343 L7.86,139.626 L7.112,139.972 L6.364,140.378 L5.613,140.839 L4.854,141.348 L4.085,141.901 L3.302,142.487 L2.504,143.1 L1.689,143.73 L0.854,144.367 L0,145 L-0.874,145.62 L-1.767,146.216 L-2.678,146.778 L-3.605,147.295 L-4.546,147.76 L-5.498,148.163 L-6.458,148.497 L-7.422,148.755 L-8.387,148.93 L-9.348,149.02 L-10.301,149.019 L-11.241,148.928 L-12.165,148.744 L-13.069,148.469 L-13.95,148.104 L-14.803,147.654 L-15.627,147.123 L-16.419,146.516 L-17.179,145.84 L-17.904,145.103 L-18.596,144.314 L-19.254,143.48 L-19.881,142.613 L-20.478,141.72 L-21.048,140.813 L-21.594,139.901 L-22.122,138.994 L-22.634,138.1 L-23.137,137.228 L-23.635,136.387 L-24.135,135.582 L-24.64,134.821 L-25.159,134.108 L-25.694,133.447 L-26.253,132.841 L-26.839,132.291 L-27.457,131.799 L-28.11,131.362 L-28.801,130.98 L-29.533,130.649 L-30.307,130.365 L-31.122,130.123 L-31.98,129.917 L-32.877,129.741 L-33.811,129.588 L-34.779,129.449 L-35.777,129.318 L-36.799,129.187 L-37.839,129.047 L-38.891,128.891 L-39.947,128.711 L-41,128.501 L-42.041,128.254 L-43.063,127.965 L-44.057,127.628 L-45.015,127.24 L-45.93,126.797 L-46.794,126.297 L-47.601,125.739 L-48.343,125.123 L-49.017,124.449 L-49.617,123.719 L-50.14,122.936 L-50.585,122.102 L-50.95,121.222 L-51.235,120.3 L-51.442,119.342 L-51.573,118.352 L-51.632,117.338 L-51.624,116.304 L-51.555,115.256 L-51.431,114.202 L-51.26,113.145 L-51.052,112.092 L-50.813,111.048 L-50.555,110.016 L-50.286,109.002 L-50.017,108.007 L-49.756,107.035 L-49.513,106.088 L-49.297,105.166 L-49.117,104.27 L-48.979,103.399 L-48.89,102.553 L-48.856,101.729 L-48.882,100.926 L-48.971,100.141 L-49.124,99.371 L-49.343,98.612 L-49.626,97.86 L-49.972,97.112 L-50.378,96.364 L-50.839,95.613 L-51.348,94.854 L-51.901,94.085 L-52.487,93.302 L-53.1,92.504 L-53.73,91.689 L-54.367,90.854 L-55,90 L-55.62,89.126 L-56.216,88.233 L-56.778,87.322 L-57.295,86.395 L-57.76,85.454 L-58.163,84.502 L-58.497,83.542 L-58.755,82.578 L-58.93,81.613 L-59.02,80.652 L-59.019,79.699 L-58.928,78.759 L-58.744,77.835 L-58.469,76.931 L-58.104,76.05 L-57.654,75.197 L-57.123,74.373 L-56.516,73.581 L-55.84,72.821 L-55.103,72.096 L-54.314,71.404 L-53.48,70.746 L-52.613,70.119 L-51.72,69.522 L-50.813,68.952 L-49.901,68.406 L-48.994,67.878 L-48.1,67.366 L-47.228,66.863 L-46.387,66.365 L-45.582,65.865 L-44.821,65.36 L-44.108,64.841 L-43.447,64.306 L-42.841,63.747 L-42.291,63.161 L-41.799,62.543 L-41.362,61.89 L-40.98,61.199 L-40.649,60.467 L-40.365,59.693 L-40.123,58.878 L-39.917,58.02 L-39.741,57.123 L-39.588,56.189 L-39.449,55.221 L-39.318,54.223 L-39.187,53.201 L-39.047,52.161 L-38.891,51.109 L-38.711,50.053 L-38.501,49 L-38.254,47.959 L-37.965,46.937 L-37.628,45.943 L-37.24,44.985 L-36.797,44.07 L-36.297,43.206 L-35.739,42.399 L-35.123,41.657 L-34.449,40.983 L-33.719,40.383 L-32.936,39.86 L-32.102,39.415 L-31.222,39.05 L-30.3,38.765 L-29.342,38.558 L-28.352,38.427 L-27.338,38.368 L-26.304,38.376 L-25.256,38.445 L-24.202,38.569 L-23.145,38.74 L-22.092,38.948 L-21.048,39.187 L-20.016,39.445 L-19.002,39.714 L-18.007,39.983 L-17.035,40.244 L-16.088,40.487 L-15.166,40.703 L-14.27,40.883 L-13.399,41.021 L-12.553,41.11 L-11.729,41.144 L-10.926,41.118 L-10.141,41.029 L-9.371,40.876 L-8.612,40.657 L-7.86,40.374 L-7.112,40.028 L-6.364,39.622 L-5.613,39.161 L-4.854,38.652 L-4.085,38.099 L-3.302,37.513 L-2.504,36.9 L-1.689,36.27 L-0.854,35.633 L0,35 L0.874,34.38 L1.767,33.784 L2.678,33.222 L3.605,32.705 L4.546,32.24 L5.498,31.837 L6.458,31.503 L7.422,31.245 L8.387,31.07 L9.348,30.98 L10.301,30.981 L11.241,31.072 L12.165,31.256 L13.069,31.531 L13.95,31.896 L14.803,32.346 L15.627,32.877 L16.419,33.484 L17.179,34.16 L17.904,34.897 L18.596,35.686 L19.254,36.52 L19.881,37.387 L20.478,38.28 L21.048,39.187 L21.594,40.099 L22.122,41.006 L22.634,41.9 L23.137,42.772 L23.635,43.613 L24.135,44.418 L24.64,45.179 L25.159,45.892 L25.694,46.553 L26.253,47.159 L26.839,47.709 L27.457,48.201 L28.11,48.638 L28.801,49.02 L29.533,49.351 L30.307,49.635 L31.122,49.877 L31.98,50.083 L32.877,50.259 L33.811,50.412 L34.779,50.551 L35.777,50.682 L36.799,50.813 L37.839,50.953 L38.891,51.109 L39.947,51.289 L41,51.499 L42.041,51.746 L43.063,52.035 L44.057,52.372 L45.015,52.76 L45.93,53.203 L46.794,53.703 L47.601,54.261 L48.343,54.877 L49.017,55.551 L49.617,56.281 L50.14,57.064 L50.585,57.898 L50.95,58.778 L51.235,59.7 L51.442,60.658 L51.573,61.648 L51.632,62.662 L51.624,63.696 L51.555,64.744 L51.431,65.798 L51.26,66.855 L51.052,67.908 L50.813,68.952 L50.555,69.984 L50.286,70.998 L50.017,71.993 L49.756,72.965 L49.513,73.912 L49.297,74.834 L49.117,75.73 L48.979,76.601 L48.89,77.447 L48.856,78.271 L48.882,79.074 L48.971,79.859 L49.124,80.629 L49.343,81.388 L49.626,82.14 L49.972,82.888 L50.378,83.636 L50.839,84.387 L51.348,85.146 L51.901,85.915 L52.487,86.698 L53.1,87.496 L53.73,88.311 L54.367,89.146 L55,90 L55.62,90.874 L56.216,91.767 L56.778,92.678 L57.295,93.605 L57.76,94.546 L58.163,95.498 L58.497,96.458 L58.755,97.422 L58.93,98.387 L59.02,99.348 L59.019,100.301 L58.928,101.241 L58.744,102.165 L58.469,103.069 L58.104,103.95 L57.654,104.803 L57.123,105.627 L56.516,106.419 L55.84,107.179 L55.103,107.904 L54.314,108.596 L53.48,109.254 L52.613,109.881 L51.72,110.478 L50.813,111.048 L49.901,111.594 L48.994,112.122 L48.1,112.634 L47.228,113.137 L46.387,113.635 L45.582,114.135 L44.821,114.64 L44.108,115.159 L43.447,115.694 L42.841,116.253 L42.291,116.839 L41.799,117.457 L41.362,118.11 L40.98,118.801 L40.649,119.533 L40.365,120.307 L40.123,121.122 L39.917,121.98 L39.741,122.877 L39.588,123.811 L39.449,124.779 L39.318,125.777 L39.187,126.799 L39.047,127.839 L38.891,128.891 Z" fill="rgba(255,168,92,1)" stroke="rgba(0,0,0,1)" stroke-width="1"/>
<path d="M16.142,106.142 L15.754,106.312 L15.359,106.467 L14.959,106.609 L14.555,106.737 L14.147,106.851 L13.736,106.953 L13.323,107.041 L12.908,107.116 L12.493,107.179 L12.077,107.23 L11.662,107.269 L11.247,107.297 L10.835,107.315 L10.424,107.323 L10.017,107.321 L9.613,107.31 L9.212,107.291 L8.815,107.264 L8.423,107.23 L8.036,107.19 L7.654,107.145 L7.277,107.094 L6.906,107.039 L6.541,106.98 L6.181,106.919 L5.827,106.855 L5.48,106.79 L5.138,106.724 L4.802,106.658 L4.472,106.592 L4.147,106.527 L3.828,106.464 L3.514,106.403 L3.205,106.345 L2.901,106.29 L2.601,106.239 L2.305,106.191 L2.013,106.149 L1.724,106.111 L1.438,106.078 L1.154,106.051 L0.873,106.029 L0.593,106.014 L0.313,106.004 L0.035,106 L-0.244,106.002 L-0.523,106.011 L-0.803,106.025 L-1.084,106.045 L-1.367,106.071 L-1.652,106.102 L-1.94,106.139 L-2.232,106.18 L-2.527,106.226 L-2.825,106.277 L-3.129,106.331 L-3.436,106.388 L-3.749,106.449 L-4.067,106.511 L-4.39,106.576 L-4.719,106.641 L-5.053,106.707 L-5.394,106.774 L-5.74,106.839 L-6.092,106.903 L-6.45,106.965 L-6.814,107.025 L-7.184,107.08 L-7.559,107.132 L-7.94,107.179 L-8.326,107.221 L-8.717,107.256 L-9.112,107.285 L-9.512,107.306 L-9.916,107.319 L-10.322,107.323 L-10.732,107.318 L-11.144,107.303 L-11.558,107.277 L-11.973,107.241 L-12.389,107.193 L-12.804,107.133 L-13.219,107.061 L-13.633,106.976 L-14.045,106.878 L-14.453,106.767 L-14.859,106.642 L-15.259,106.504 L-15.655,106.352 L-16.046,106.186 L-16.429,106.006 L-16.806,105.812 L-17.174,105.604 L-17.534,105.382 L-17.884,105.147 L-18.224,104.898 L-18.553,104.636 L-18.871,104.361 L-19.176,104.073 L-19.469,103.773 L-19.748,103.461 L-20.014,103.138 L-20.265,102.804 L-20.502,102.459 L-20.723,102.105 L-20.929,101.742 L-21.118,101.369 L-21.291,100.989 L-21.448,100.601 L-21.588,100.207 L-21.712,99.807 L-21.818,99.401 L-21.907,98.991 L-21.98,98.576 L-22.035,98.159 L-22.073,97.739 L-22.095,97.318 L-22.101,96.895 L-22.09,96.472 L-22.063,96.049 L-22.021,95.627 L-21.963,95.207 L-21.891,94.789 L-21.804,94.374 L-21.704,93.962 L-21.59,93.554 L-21.464,93.151 L-21.326,92.753 L-21.176,92.359 L-21.016,91.972 L-20.845,91.59 L-20.666,91.215 L-20.477,90.847 L-20.281,90.485 L-20.078,90.131 L-19.868,89.784 L-19.653,89.444 L-19.433,89.112 L-19.209,88.786 L-18.982,88.469 L-18.752,88.158 L-18.52,87.855 L-18.287,87.559 L-18.054,87.269 L-17.82,86.986 L-17.588,86.71 L-17.357,86.439 L-17.128,86.175 L-16.902,85.915 L-16.678,85.66 L-16.459,85.41 L-16.243,85.164 L-16.032,84.922 L-15.825,84.682 L-15.624,84.446 L-15.428,84.211 L-15.237,83.978 L-15.052,83.746 L-14.873,83.515 L-14.7,83.283 L-14.532,83.052 L-14.371,82.819 L-14.215,82.585 L-14.065,82.349 L-13.921,82.11 L-13.782,81.869 L-13.648,81.624 L-13.519,81.376 L-13.394,81.124 L-13.274,80.867 L-13.157,80.606 L-13.043,80.34 L-12.933,80.069 L-12.825,79.792 L-12.718,79.51 L-12.613,79.222 L-12.509,78.929 L-12.405,78.63 L-12.301,78.325 L-12.195,78.015 L-12.088,77.699 L-11.979,77.378 L-11.867,77.052 L-11.752,76.721 L-11.633,76.385 L-11.509,76.045 L-11.381,75.702 L-11.246,75.355 L-11.106,75.004 L-10.958,74.652 L-10.804,74.297 L-10.642,73.942 L-10.472,73.585 L-10.293,73.228 L-10.105,72.872 L-9.909,72.517 L-9.703,72.164 L-9.487,71.814 L-9.261,71.467 L-9.025,71.124 L-8.779,70.786 L-8.523,70.454 L-8.256,70.128 L-7.98,69.81 L-7.692,69.5 L-7.395,69.198 L-7.088,68.906 L-6.771,68.624 L-6.444,68.354 L-6.109,68.095 L-5.764,67.848 L-5.41,67.615 L-5.049,67.395 L-4.679,67.19 L-4.303,66.999 L-3.919,66.824 L-3.53,66.664 L-3.134,66.521 L-2.734,66.395 L-2.329,66.285 L-1.921,66.193 L-1.509,66.119 L-1.094,66.063 L-0.678,66.024 L-0.261,66.004 L0.157,66.001 L0.574,66.017 L0.991,66.051 L1.405,66.103 L1.818,66.173 L2.227,66.261 L2.633,66.366 L3.035,66.488 L3.431,66.627 L3.822,66.782 L4.207,66.954 L4.586,67.14 L4.957,67.342 L5.321,67.559 L5.676,67.789 L6.023,68.032 L6.361,68.288 L6.69,68.556 L7.01,68.835 L7.319,69.124 L7.619,69.423 L7.909,69.732 L8.188,70.048 L8.457,70.372 L8.716,70.702 L8.965,71.039 L9.203,71.381 L9.431,71.727 L9.65,72.076 L9.858,72.429 L10.057,72.783 L10.247,73.139 L10.428,73.496 L10.6,73.852 L10.764,74.209 L10.92,74.563 L11.069,74.917 L11.212,75.267 L11.348,75.615 L11.478,75.96 L11.603,76.301 L11.723,76.637 L11.839,76.97 L11.952,77.297 L12.061,77.62 L12.169,77.937 L12.275,78.248 L12.379,78.554 L12.483,78.855 L12.587,79.15 L12.692,79.439 L12.798,79.722 L12.906,80 L13.016,80.273 L13.128,80.54 L13.244,80.802 L13.364,81.06 L13.487,81.313 L13.615,81.563 L13.748,81.808 L13.886,82.05 L14.029,82.289 L14.177,82.526 L14.331,82.761 L14.491,82.994 L14.657,83.226 L14.829,83.457 L15.007,83.688 L15.19,83.92 L15.379,84.153 L15.574,84.387 L15.774,84.623 L15.98,84.862 L16.19,85.103 L16.404,85.348 L16.623,85.597 L16.846,85.851 L17.071,86.109 L17.299,86.373 L17.53,86.642 L17.762,86.917 L17.995,87.198 L18.229,87.486 L18.462,87.78 L18.694,88.082 L18.924,88.39 L19.153,88.706 L19.377,89.03 L19.599,89.36 L19.815,89.698 L20.026,90.044 L20.231,90.396 L20.429,90.756 L20.619,91.123 L20.801,91.496 L20.974,91.876 L21.137,92.262 L21.289,92.654 L21.43,93.051 L21.56,93.453 L21.677,93.86 L21.78,94.271 L21.87,94.685 L21.946,95.102 L22.008,95.522 L22.054,95.944 L22.085,96.366 L22.099,96.789 L22.098,97.212 L22.08,97.634 L22.046,98.054 L21.995,98.472 L21.927,98.887 L21.842,99.299 L21.74,99.706 L21.621,100.107 L21.485,100.503 L21.332,100.893 L21.163,101.275 L20.977,101.649 L20.776,102.015 L20.559,102.372 L20.326,102.719 L20.078,103.056 L19.816,103.382 L19.54,103.696 L19.251,103.999 L18.948,104.29 L18.634,104.568 L18.307,104.834 L17.97,105.086 L17.622,105.325 L17.265,105.55 L16.898,105.761 L16.524,105.959 L16.142,106.142 Z" fill="rgba(255,86,44,1)" stroke="rgba(0,0,0,1)" stroke-width="1"/>
<path d="M-138.564,10 L-137.137,9.542 L-135.725,9.092 L-134.339,8.641 L-132.994,8.182 L-131.7,7.705 L-130.469,7.202 L-129.309,6.666 L-128.23,6.088 L-127.238,5.463 L-126.338,4.784 L-125.534,4.045 L-124.828,3.243 L-124.219,2.373 L-123.707,1.435 L-123.287,0.426 L-122.957,-0.651 L-122.708,-1.798 L-122.535,-3.009 L-122.427,-4.282 L-122.376,-5.611 L-122.371,-6.99 L-122.399,-8.411 L-122.449,-9.867 L-122.51,-11.349 L-122.567,-12.846 L-122.61,-14.349 L-122.625,-15.847 L-122.602,-17.33 L-122.53,-18.787 L-122.398,-20.207 L-122.197,-21.581 L-121.92,-22.899 L-121.559,-24.151 L-121.11,-25.331 L-120.567,-26.431 L-119.93,-27.444 L-119.197,-28.367 L-118.367,-29.197 L-117.444,-29.93 L-116.431,-30.567 L-115.331,-31.11 L-114.151,-31.559 L-112.899,-31.92 L-111.581,-32.197 L-110.207,-32.398 L-108.787,-32.53 L-107.33,-32.602 L-105.847,-32.625 L-104.349,-32.61 L-102.846,-32.567 L-101.349,-32.51 L-99.867,-32.449 L-98.411,-32.399 L-96.99,-32.371 L-95.611,-32.376 L-94.282,-32.427 L-93.009,-32.535 L-91.798,-32.708 L-90.651,-32.957 L-89.574,-33.287 L-88.565,-33.707 L-87.627,-34.219 L-86.757,-34.828 L-85.955,-35.534 L-85.216,-36.338 L-84.537,-37.238 L-83.912,-38.23 L-83.334,-39.309 L-82.798,-40.469 L-82.295,-41.7 L-81.818,-42.994 L-81.359,-44.339 L-80.908,-45.725 L-80.458,-47.137 L-80,-48.564 L-79.526,-49.991 L-79.028,-51.404 L-78.499,-52.79 L-77.933,-54.134 L-77.323,-55.423 L-76.665,-56.646 L-75.953,-57.789 L-75.186,-58.843 L-74.36,-59.798 L-73.475,-60.645 L-72.529,-61.38 L-71.524,-61.997 L-70.461,-62.492 L-69.343,-62.866 L-68.172,-63.118 L-66.954,-63.251 L-65.692,-63.27 L-64.391,-63.181 L-63.058,-62.991 L-61.699,-62.709 L-60.319,-62.348 L-58.925,-61.917 L-57.524,-61.432 L-56.121,-60.905 L-54.723,-60.351 L-53.336,-59.785 L-51.964,-59.221 L-50.613,-58.676 L-49.287,-58.163 L-47.99,-57.697 L-46.723,-57.29 L-45.491,-56.956 L-44.293,-56.705 L-43.131,-56.546 L-42.005,-56.488 L-40.914,-56.537 L-39.857,-56.698 L-38.832,-56.972 L-37.836,-57.362 L-36.867,-57.865 L-35.921,-58.478 L-34.994,-59.196 L-34.082,-60.013 L-33.182,-60.919 L-32.288,-61.904 L-31.398,-62.957 L-30.505,-64.064 L-29.608,-65.212 L-28.702,-66.385 L-27.784,-67.569 L-26.85,-68.748 L-25.899,-69.906 L-24.928,-71.027 L-23.936,-72.096 L-22.922,-73.099 L-21.885,-74.023 L-20.826,-74.854 L-19.744,-75.582 L-18.642,-76.196 L-17.52,-76.69 L-16.38,-77.057 L-15.225,-77.293 L-14.057,-77.395 L-12.878,-77.364 L-11.692,-77.2 L-10.501,-76.909 L-9.308,-76.495 L-8.117,-75.966 L-6.929,-75.331 L-5.748,-74.602 L-4.575,-73.79 L-3.412,-72.909 L-2.262,-71.974 L-1.124,-70.999 L0,-70 L1.11,-68.993 L2.206,-67.995 L3.289,-67.021 L4.36,-66.085 L5.42,-65.203 L6.471,-64.388 L7.515,-63.652 L8.554,-63.006 L9.592,-62.46 L10.63,-62.02 L11.672,-61.693 L12.72,-61.483 L13.778,-61.39 L14.846,-61.416 L15.929,-61.557 L17.028,-61.809 L18.145,-62.167 L19.281,-62.623 L20.437,-63.166 L21.613,-63.786 L22.81,-64.471 L24.027,-65.206 L25.263,-65.978 L26.516,-66.771 L27.784,-67.569 L29.064,-68.358 L30.354,-69.12 L31.65,-69.842 L32.947,-70.507 L34.244,-71.103 L35.534,-71.616 L36.813,-72.035 L38.079,-72.349 L39.325,-72.549 L40.548,-72.63 L41.745,-72.585 L42.911,-72.411 L44.044,-72.108 L45.14,-71.675 L46.199,-71.116 L47.218,-70.434 L48.197,-69.637 L49.136,-68.733 L50.035,-67.731 L50.896,-66.641 L51.72,-65.477 L52.512,-64.252 L53.273,-62.979 L54.009,-61.674 L54.723,-60.351 L55.422,-59.025 L56.111,-57.712 L56.795,-56.426 L57.481,-55.181 L58.176,-53.99 L58.884,-52.864 L59.614,-51.816 L60.37,-50.853 L61.158,-49.985 L61.983,-49.217 L62.85,-48.553 L63.763,-47.997 L64.725,-47.548 L65.738,-47.206 L66.804,-46.969 L67.923,-46.83 L69.095,-46.785 L70.318,-46.824 L71.59,-46.939 L72.908,-47.12 L74.267,-47.354 L75.662,-47.628 L77.087,-47.931 L78.535,-48.247 L80,-48.564 L81.473,-48.867 L82.946,-49.143 L84.41,-49.377 L85.857,-49.559 L87.279,-49.675 L88.667,-49.716 L90.012,-49.672 L91.309,-49.534 L92.548,-49.297 L93.725,-48.954 L94.834,-48.502 L95.871,-47.94 L96.832,-47.267 L97.714,-46.486 L98.518,-45.598 L99.243,-44.609 L99.89,-43.526 L100.463,-42.355 L100.965,-41.105 L101.401,-39.787 L101.778,-38.411 L102.102,-36.989 L102.382,-35.533 L102.627,-34.055 L102.846,-32.567 L103.049,-31.083 L103.247,-29.613 L103.45,-28.171 L103.669,-26.766 L103.914,-25.409 L104.196,-24.109 L104.522,-22.874 L104.904,-21.711 L105.347,-20.625 L105.86,-19.621 L106.448,-18.701 L107.116,-17.866 L107.866,-17.116 L108.701,-16.448 L109.621,-15.86 L110.625,-15.347 L111.711,-14.904 L112.874,-14.522 L114.109,-14.196 L115.409,-13.914 L116.766,-13.669 L118.171,-13.45 L119.613,-13.247 L121.083,-13.049 L122.567,-12.846 L124.055,-12.627 L125.533,-12.382 L126.989,-12.102 L128.411,-11.778 L129.787,-11.401 L131.105,-10.965 L132.355,-10.463 L133.526,-9.89 L134.609,-9.243 L135.598,-8.518 L136.486,-7.714 L137.267,-6.832 L137.94,-5.871 L138.502,-4.834 L138.954,-3.725 L139.297,-2.548 L139.534,-1.309 L139.672,-0.012 L139.716,1.333 L139.675,2.721 L139.559,4.143 L139.377,5.59 L139.143,7.054 L138.867,8.527 L138.564,10" fill="rgba(0,0,0,0)" stroke="rgba(233,0,0,1)" stroke-width="4"/>
<path d="M-168.875,-7.5 L-167.217,-8.106 L-165.575,-8.702 L-163.962,-9.299 L-162.394,-9.905 L-160.883,-10.531 L-159.442,-11.185 L-158.081,-11.877 L-156.811,-12.614 L-155.637,-13.405 L-154.566,-14.256 L-153.603,-15.174 L-152.748,-16.163 L-152.003,-17.227 L-151.366,-18.368 L-150.834,-19.587 L-150.4,-20.884 L-150.058,-22.258 L-149.8,-23.704 L-149.615,-25.219 L-149.493,-26.797 L-149.422,-28.431 L-149.389,-30.112 L-149.38,-31.831 L-149.381,-33.579 L-149.379,-35.344 L-149.359,-37.114 L-149.308,-38.88 L-149.214,-40.627 L-149.063,-42.344 L-148.845,-44.02 L-148.548,-45.643 L-148.165,-47.203 L-147.688,-48.689 L-147.111,-50.092 L-146.428,-51.404 L-145.639,-52.62 L-144.74,-53.733 L-143.733,-54.74 L-142.62,-55.639 L-141.404,-56.428 L-140.092,-57.111 L-138.689,-57.688 L-137.203,-58.165 L-135.643,-58.548 L-134.02,-58.845 L-132.344,-59.063 L-130.627,-59.214 L-128.88,-59.308 L-127.114,-59.359 L-125.344,-59.379 L-123.579,-59.381 L-121.831,-59.38 L-120.112,-59.389 L-118.431,-59.422 L-116.797,-59.493 L-115.219,-59.615 L-113.704,-59.8 L-112.258,-60.058 L-110.884,-60.4 L-109.587,-60.834 L-108.368,-61.366 L-107.227,-62.003 L-106.163,-62.748 L-105.174,-63.603 L-104.256,-64.566 L-103.405,-65.637 L-102.614,-66.811 L-101.877,-68.081 L-101.185,-69.442 L-100.531,-70.883 L-99.905,-72.394 L-99.299,-73.962 L-98.702,-75.575 L-98.106,-77.217 L-97.5,-78.875 L-96.876,-80.532 L-96.225,-82.174 L-95.538,-83.783 L-94.809,-85.345 L-94.03,-86.846 L-93.197,-88.27 L-92.304,-89.604 L-91.347,-90.837 L-90.325,-91.958 L-89.235,-92.958 L-88.077,-93.83 L-86.851,-94.569 L-85.561,-95.17 L-84.207,-95.634 L-82.795,-95.961 L-81.328,-96.153 L-79.812,-96.216 L-78.253,-96.156 L-76.656,-95.983 L-75.03,-95.706 L-73.38,-95.338 L-71.715,-94.892 L-70.041,-94.383 L-68.365,-93.827 L-66.694,-93.24 L-65.035,-92.639 L-63.393,-92.04 L-61.774,-91.46 L-60.183,-90.917 L-58.624,-90.425 L-57.099,-90 L-55.612,-89.655 L-54.165,-89.403 L-52.757,-89.254 L-51.39,-89.218 L-50.062,-89.302 L-48.772,-89.51 L-47.517,-89.846 L-46.296,-90.311 L-45.104,-90.902 L-43.938,-91.617 L-42.793,-92.45 L-41.666,-93.392 L-40.55,-94.434 L-39.443,-95.564 L-38.338,-96.77 L-37.232,-98.036 L-36.12,-99.347 L-34.998,-100.687 L-33.861,-102.038 L-32.708,-103.381 L-31.535,-104.701 L-30.339,-105.979 L-29.12,-107.197 L-27.875,-108.341 L-26.605,-109.394 L-25.309,-110.342 L-23.989,-111.174 L-22.644,-111.877 L-21.278,-112.444 L-19.891,-112.868 L-18.487,-113.143 L-17.069,-113.267 L-15.638,-113.24 L-14.2,-113.064 L-12.755,-112.743 L-11.309,-112.283 L-9.864,-111.694 L-8.424,-110.984 L-6.99,-110.168 L-5.566,-109.258 L-4.153,-108.27 L-2.754,-107.219 L-1.369,-106.123 L0,-105 L1.353,-103.867 L2.691,-102.743 L4.014,-101.645 L5.324,-100.59 L6.621,-99.594 L7.908,-98.673 L9.187,-97.841 L10.461,-97.109 L11.733,-96.488 L13.005,-95.986 L14.282,-95.611 L15.566,-95.365 L16.859,-95.252 L18.166,-95.271 L19.488,-95.419 L20.829,-95.692 L22.189,-96.083 L23.571,-96.582 L24.975,-97.18 L26.403,-97.864 L27.853,-98.619 L29.325,-99.43 L30.819,-100.282 L32.332,-101.157 L33.861,-102.038 L35.405,-102.906 L36.959,-103.745 L38.519,-104.536 L40.082,-105.264 L41.643,-105.913 L43.196,-106.468 L44.738,-106.916 L46.264,-107.246 L47.768,-107.448 L49.246,-107.513 L50.693,-107.437 L52.106,-107.215 L53.482,-106.846 L54.817,-106.332 L56.109,-105.674 L57.356,-104.878 L58.558,-103.952 L59.714,-102.904 L60.825,-101.745 L61.893,-100.487 L62.92,-99.145 L63.91,-97.733 L64.865,-96.267 L65.791,-94.764 L66.694,-93.24 L67.578,-91.713 L68.451,-90.199 L69.319,-88.714 L70.188,-87.275 L71.067,-85.896 L71.961,-84.59 L72.878,-83.371 L73.825,-82.247 L74.808,-81.228 L75.832,-80.322 L76.903,-79.532 L78.026,-78.863 L79.203,-78.314 L80.437,-77.885 L81.73,-77.572 L83.083,-77.37 L84.495,-77.272 L85.964,-77.268 L87.488,-77.35 L89.063,-77.504 L90.685,-77.718 L92.346,-77.976 L94.041,-78.266 L95.761,-78.571 L97.5,-78.875 L99.247,-79.163 L100.994,-79.42 L102.732,-79.63 L104.449,-79.78 L106.138,-79.856 L107.787,-79.846 L109.39,-79.739 L110.936,-79.528 L112.418,-79.202 L113.829,-78.758 L115.163,-78.192 L116.415,-77.5 L117.582,-76.683 L118.66,-75.743 L119.649,-74.683 L120.549,-73.509 L121.362,-72.227 L122.089,-70.847 L122.737,-69.378 L123.311,-67.831 L123.817,-66.218 L124.264,-64.553 L124.66,-62.849 L125.017,-61.119 L125.344,-59.379 L125.652,-57.641 L125.955,-55.92 L126.262,-54.228 L126.587,-52.578 L126.941,-50.982 L127.335,-49.449 L127.779,-47.989 L128.285,-46.609 L128.86,-45.316 L129.512,-44.114 L130.249,-43.006 L131.074,-41.993 L131.993,-41.074 L133.006,-40.249 L134.114,-39.512 L135.316,-38.86 L136.609,-38.285 L137.989,-37.779 L139.449,-37.335 L140.982,-36.941 L142.578,-36.587 L144.228,-36.262 L145.92,-35.955 L147.641,-35.652 L149.379,-35.344 L151.119,-35.017 L152.849,-34.66 L154.553,-34.264 L156.218,-33.817 L157.831,-33.311 L159.378,-32.737 L160.847,-32.089 L162.227,-31.362 L163.509,-30.549 L164.683,-29.649 L165.743,-28.66 L166.683,-27.582 L167.5,-26.415 L168.192,-25.163 L168.758,-23.829 L169.202,-22.418 L169.528,-20.936 L169.739,-19.39 L169.846,-17.787 L169.856,-16.138 L169.78,-14.449 L169.63,-12.732 L169.42,-10.994 L169.163,-9.247 L168.875,-7.5" fill="rgba(0,0,0,0)" stroke="rgba(233,0,0,1)" stroke-width="4"/>
</svg>