<svg xmlns="http://www.w3.org/2000/svg" viewBox="-200 -130 400 400">
<path d="M-70,-104 L-70,-98" fill="rgba(0,0,0,0)" stroke="rgba(0,88,233,1)" stroke-width="3"/>
<path d="M-70,-83.941 L-70,-77.941" fill="rgba(0,0,0,0)" stroke="rgba(0,88,233,1)" stroke-width="3"/>
<path d="M-70,-63.882 L-70,-57.882" fill="rgba(0,0,0,0)" stroke="rgba(0,88,233,1)" stroke-width="3"/>
<path d="M-70,-43.824 L-70,-37.824" fill="rgba(0,0,0,0)" stroke="rgba(0,88,233,1)" stroke-width="3"/>
<path d="M-70,-23.765 L-70,-17.765" fill="rgba(0,0,0,0)" stroke="rgba(0,88,233,1)" stroke-width="3"/>
<path d="M-70,-3.706 L-70,2.294" fill="rgba(0,0,0,0)" stroke="rgba(0,88,233,1)" stroke-width="3"/>
<path d="M-70,16.353 L-70,22.353" fill="rgba(0,0,0,0)" stroke="rgba(0,88,233,1)" stroke-width="3"/>
<path d="M-70,36.412 L-70,42.412" fill="rgba(0,0,0,0)" stroke="rgba(0,88,233,1)" stroke-width="3"/>
<path d="M-70,56.471 L-70,62.471" fill="rgba(0,0,0,0)" stroke="rgba(0,88,233,1)" stroke-width="3"/>
<path d="M-70,76.529 L-70,82.529" fill="rgba(0,0,0,0)" stroke="rgba(0,88,233,1)" stroke-width="3"/>
<path d="M-70,96.588 L-70,102.588" fill="rgba(0,0,0,0)" stroke="rgba(0,88,233,1)" stroke-width="3"/>
<path d="M-70,116.647 L-70,122.647" fill="rgba(0,0,0,0)" stroke="rgba(0,88,233,1)" stroke-width="3"/>
<path d="M-70,136.706 L-70,142.706" fill="rgba(0,0,0,0)" stroke="rgba(0,88,233,1)" stroke-width="3"/>
<path d="M-70,156.765 L-70,162.765" fill="rgba(0,0,0,0)" stroke="rgba(0,88,233,1)" stroke-width="3"/>
<path d="M-70,176.824 L-70,182.824" fill="rgba(0,0,0,0)" stroke="rgba(0,88,233,1)" stroke-width="3"/>
<path d="M-70,196.882 L-70,202.882" fill="rgba(0,0,0,0)" stroke="rgba(0,88,233,1)" stroke-width="3"/>
<path d="M-70,216.941 L-70,222.941" fill="rgba(0,0,0,0)" stroke="rgba(0,88,233,1)" stroke-width="3"/>
<path d="M-70,237 L-70,243" fill="rgba(0,0,0,0)" stroke="rgba(0,88,233,1)" stroke-width="3"/>
<path d="M140,70 C140,147.596 77.32,210.5 0,210.5 C-77.32,210.5 -140,147.596 -140,70 C-140,-7.596 -77.32,-70.5 0,-70.5 C77.32,-70.5 140,-7.596 140,70 Z" fill="rgba(0,0,0,0)" stroke="rgba(0,88,233,1)" stroke-width="3"/>
<path d="M60,70 C60,55.894 55.03,42.239 45.963,31.433 C36.895,20.627 24.311,13.361 10.419,10.912 C-3.473,8.462 -17.784,10.985 -30,18.038" fill="rgba(0,0,0,0)" stroke="rgba(0,88,233,1)" stroke-width="3"/>
<path d="M0,70 L-69.5,-50.378" fill="rgba(0,0,0,0)" stroke="rgba(0,88,233,1)" stroke-width="3"/>
<text x="-107.196" y="-5" text-anchor="start" font-family="Verdana, Helvetica, Arial, sans-serif" font-size="24" fill="rgba(0,88,204,1)" transform="matrix(1 0 0 1 0 70)">-½</text>
<path d="M-17.725,11.307 L-15.32,15.691 L-27.37,16.596 L-20.129,6.923 L-17.725,11.307 Z" fill="rgba(0,88,233,1)" stroke="rgba(0,88,233,1)" stroke-width="4"/>
<text x="19.560000000000002" y="34" text-anchor="start" font-family="Verdana, Helvetica, Arial, sans-serif" font-size="20" fill="rgba(252,0,0,1)" transform="matrix(1 0 0 1 0 70)">arccos(-½)</text>
<path d="M-175,70 L175,70" fill="rgba(0,0,0,1)" stroke="rgba(0,88,204,1)" stroke-width="1"/>
<path d="M0,-105 L0,245" fill="rgba(0,0,0,1)" stroke="rgba(0,88,204,1)" stroke-width="1"/>
<text x="5.32" y="-4" text-anchor="start" font-family="Verdana, Helvetica, Arial, sans-serif" font-size="20" fill="rgba(253,0,0,1)" transform="matrix(1 0 0 1 0 70)">120°</text>
</svg>