<svg xmlns="http://www.w3.org/2000/svg" viewBox="-258.8 -168.97 517.6 437.95">
<path d="M-215,-137.674 L-190,-137.674 C-183.096,-137.674 -177.5,-132.077 -177.5,-125.174 L-177.5,-66.737 C-177.5,-59.834 -183.096,-54.237 -190,-54.237 L-215,-54.237 C-221.904,-54.237 -227.5,-59.834 -227.5,-66.737 L-227.5,-125.174 C-227.5,-132.077 -221.904,-137.674 -215,-137.674 Z" fill="rgba(184,184,181,1)" stroke="rgba(0,0,0,1)" stroke-width="1"/>
<path d="M-147.5,-137.674 L-122.5,-137.674 C-115.596,-137.674 -110,-132.077 -110,-125.174 L-110,-28.96 C-110,-22.056 -115.596,-16.46 -122.5,-16.46 L-147.5,-16.46 C-154.404,-16.46 -160,-22.056 -160,-28.96 L-160,-125.174 C-160,-132.077 -154.404,-137.674 -147.5,-137.674 Z" fill="rgba(184,184,181,1)" stroke="rgba(0,0,0,1)" stroke-width="1"/>
<path d="M-80,-137.674 L-55,-137.674 C-48.096,-137.674 -42.5,-132.077 -42.5,-125.174 L-42.5,-36.403 C-42.5,-29.5 -48.096,-23.903 -55,-23.903 L-80,-23.903 C-86.904,-23.903 -92.5,-29.5 -92.5,-36.403 L-92.5,-125.174 C-92.5,-132.077 -86.904,-137.674 -80,-137.674 Z" fill="rgba(184,184,181,1)" stroke="rgba(0,0,0,1)" stroke-width="1"/>
<path d="M-12.5,-137.674 L12.5,-137.674 C19.404,-137.674 25,-132.077 25,-125.174 L25,-49.269 C25,-42.365 19.404,-36.769 12.5,-36.769 L-12.5,-36.769 C-19.404,-36.769 -25,-42.365 -25,-49.269 L-25,-125.174 C-25,-132.077 -19.404,-137.674 -12.5,-137.674 Z" fill="rgba(184,184,181,1)" stroke="rgba(0,0,0,1)" stroke-width="1"/>
<path d="M55,-137.674 L80,-137.674 C86.904,-137.674 92.5,-132.077 92.5,-125.174 L92.5,-73.083 C92.5,-66.179 86.904,-60.583 80,-60.583 L55,-60.583 C48.096,-60.583 42.5,-66.179 42.5,-73.083 L42.5,-125.174 C42.5,-132.077 48.096,-137.674 55,-137.674 Z" fill="rgba(184,184,181,1)" stroke="rgba(0,0,0,1)" stroke-width="1"/>
<path d="M122.5,-137.674 L147.5,-137.674 C154.404,-137.674 160,-132.077 160,-125.174 L160,-93.659 C160,-86.756 154.404,-81.159 147.5,-81.159 L122.5,-81.159 C115.596,-81.159 110,-86.756 110,-93.659 L110,-125.174 C110,-132.077 115.596,-137.674 122.5,-137.674 Z" fill="rgba(184,184,181,1)" stroke="rgba(0,0,0,1)" stroke-width="1"/>
<path d="M190,-137.674 L215,-137.674 C221.904,-137.674 227.5,-132.077 227.5,-125.174 L227.5,-40.468 C227.5,-33.565 221.904,-27.968 215,-27.968 L190,-27.968 C183.096,-27.968 177.5,-33.565 177.5,-40.468 L177.5,-125.174 C177.5,-132.077 183.096,-137.674 190,-137.674 Z" fill="rgba(184,184,181,1)" stroke="rgba(0,0,0,1)" stroke-width="1"/>
<path d="M-215,-39.237 L-190,-39.237 C-183.096,-39.237 -177.5,-33.641 -177.5,-26.737 L-177.5,53.719 C-177.5,60.622 -183.096,66.219 -190,66.219 L-215,66.219 C-221.904,66.219 -227.5,60.622 -227.5,53.719 L-227.5,-26.737 C-227.5,-33.641 -221.904,-39.237 -215,-39.237 Z" fill="rgba(184,184,181,1)" stroke="rgba(0,0,0,1)" stroke-width="1"/>
<path d="M-147.5,-1.46 L-122.5,-1.46 C-115.596,-1.46 -110,4.136 -110,11.04 L-110,108.038 C-110,114.941 -115.596,120.538 -122.5,120.538 L-147.5,120.538 C-154.404,120.538 -160,114.941 -160,108.038 L-160,11.04 C-160,4.136 -154.404,-1.46 -147.5,-1.46 Z" fill="rgba(184,184,181,1)" stroke="rgba(0,0,0,1)" stroke-width="1"/>
<path d="M-80,-8.903 L-55,-8.903 C-48.096,-8.903 -42.5,-3.307 -42.5,3.597 L-42.5,37.604 C-42.5,44.508 -48.096,50.104 -55,50.104 L-80,50.104 C-86.904,50.104 -92.5,44.508 -92.5,37.604 L-92.5,3.597 C-92.5,-3.307 -86.904,-8.903 -80,-8.903 Z" fill="rgba(184,184,181,1)" stroke="rgba(0,0,0,1)" stroke-width="1"/>
<path d="M-12.5,-21.769 L12.5,-21.769 C19.404,-21.769 25,-16.172 25,-9.269 L25,53.202 C25,60.106 19.404,65.702 12.5,65.702 L-12.5,65.702 C-19.404,65.702 -25,60.106 -25,53.202 L-25,-9.269 C-25,-16.172 -19.404,-21.769 -12.5,-21.769 Z" fill="rgba(184,184,181,1)" stroke="rgba(0,0,0,1)" stroke-width="1"/>
<path d="M55,-45.583 L80,-45.583 C86.904,-45.583 92.5,-39.986 92.5,-33.083 L92.5,49.329 C92.5,56.233 86.904,61.829 80,61.829 L55,61.829 C48.096,61.829 42.5,56.233 42.5,49.329 L42.5,-33.083 C42.5,-39.986 48.096,-45.583 55,-45.583 Z" fill="rgba(184,184,181,1)" stroke="rgba(0,0,0,1)" stroke-width="1"/>
<path d="M122.5,-66.159 L147.5,-66.159 C154.404,-66.159 160,-60.563 160,-53.659 L160,42.475 C160,49.378 154.404,54.975 147.5,54.975 L122.5,54.975 C115.596,54.975 110,49.378 110,42.475 L110,-53.659 C110,-60.563 115.596,-66.159 122.5,-66.159 Z" fill="rgba(184,184,181,1)" stroke="rgba(0,0,0,1)" stroke-width="1"/>
<path d="M190,-12.968 L215,-12.968 C221.904,-12.968 227.5,-7.372 227.5,-0.468 L227.5,44.766 C227.5,51.67 221.904,57.266 215,57.266 L190,57.266 C183.096,57.266 177.5,51.67 177.5,44.766 L177.5,-0.468 C177.5,-7.372 183.096,-12.968 190,-12.968 Z" fill="rgba(184,184,181,1)" stroke="rgba(0,0,0,1)" stroke-width="1"/>
<path d="M-215,81.219 L-190,81.219 C-183.096,81.219 -177.5,86.815 -177.5,93.719 L-177.5,166.055 C-177.5,172.958 -183.096,178.555 -190,178.555 L-215,178.555 C-221.904,178.555 -227.5,172.958 -227.5,166.055 L-227.5,93.719 C-227.5,86.815 -221.904,81.219 -215,81.219 Z" fill="rgba(184,184,181,1)" stroke="rgba(0,0,0,1)" stroke-width="1"/>
<path d="M-147.5,135.538 L-122.5,135.538 C-115.596,135.538 -110,141.134 -110,148.038 L-110,225.174 C-110,232.077 -115.596,237.674 -122.5,237.674 L-147.5,237.674 C-154.404,237.674 -160,232.077 -160,225.174 L-160,148.038 C-160,141.134 -154.404,135.538 -147.5,135.538 Z" fill="rgba(184,184,181,1)" stroke="rgba(0,0,0,1)" stroke-width="1"/>
<path d="M-80,65.104 L-55,65.104 C-48.096,65.104 -42.5,70.701 -42.5,77.604 L-42.5,149.264 C-42.5,156.167 -48.096,161.764 -55,161.764 L-80,161.764 C-86.904,161.764 -92.5,156.167 -92.5,149.264 L-92.5,77.604 C-92.5,70.701 -86.904,65.104 -80,65.104 Z" fill="rgba(184,184,181,1)" stroke="rgba(0,0,0,1)" stroke-width="1"/>
<path d="M-12.5,80.702 L12.5,80.702 C19.404,80.702 25,86.299 25,93.202 L25,131.095 C25,137.999 19.404,143.595 12.5,143.595 L-12.5,143.595 C-19.404,143.595 -25,137.999 -25,131.095 L-25,93.202 C-25,86.299 -19.404,80.702 -12.5,80.702 Z" fill="rgba(184,184,181,1)" stroke="rgba(0,0,0,1)" stroke-width="1"/>
<path d="M55,76.829 L80,76.829 C86.904,76.829 92.5,82.426 92.5,89.329 L92.5,155.328 C92.5,162.231 86.904,167.828 80,167.828 L55,167.828 C48.096,167.828 42.5,162.231 42.5,155.328 L42.5,89.329 C42.5,82.426 48.096,76.829 55,76.829 Z" fill="rgba(184,184,181,1)" stroke="rgba(0,0,0,1)" stroke-width="1"/>
<path d="M122.5,69.975 L147.5,69.975 C154.404,69.975 160,75.571 160,82.475 L160,175.034 C160,181.938 154.404,187.534 147.5,187.534 L122.5,187.534 C115.596,187.534 110,181.938 110,175.034 L110,82.475 C110,75.571 115.596,69.975 122.5,69.975 Z" fill="rgba(184,184,181,1)" stroke="rgba(0,0,0,1)" stroke-width="1"/>
<path d="M190,72.266 L215,72.266 C221.904,72.266 227.5,77.863 227.5,84.766 L227.5,156.229 C227.5,163.133 221.904,168.729 215,168.729 L190,168.729 C183.096,168.729 177.5,163.133 177.5,156.229 L177.5,84.766 C177.5,77.863 183.096,72.266 190,72.266 Z" fill="rgba(184,184,181,1)" stroke="rgba(0,0,0,1)" stroke-width="1"/>
</svg>