<svg xmlns="http://www.w3.org/2000/svg" viewBox="-190.84 -129.92 364.34 362.75">
<path d="M0,-10 L100,-10 L100,-25 L145,0 L100,25 L100,10 L0,10 Z" fill="rgba(191,203,209,1)" stroke="rgba(0,0,148,1)" stroke-width="2"/>
<path d="M-18.203,-49.203 L26.345,-93.751 L15.738,-104.357 L69.832,-106.832 L67.357,-52.738 L56.751,-63.345 L12.203,-18.797 Z" fill="rgba(191,203,209,1)" stroke="rgba(0,0,148,1)" stroke-width="2"/>
<path d="M5.829,19.28 L148.684,195.692 L150.408,209.738 L137.027,205.132 L-5.829,28.72 Z" fill="rgba(191,203,209,1)" stroke="rgba(0,0,148,1)" stroke-width="2"/>
<path d="M-16,10 L-118.392,167.67 L-95.758,158.522 L-120.026,170.186 L-119.241,143.272 L-118.392,167.67 Z" fill="rgba(191,203,209,1)" stroke="rgba(0,0,148,1)" stroke-width="2"/>
<path d="M-15,-12 L-128.9,-72.562 L-150.013,-69.065 L-167.75,-93.219 L-137.807,-92.021 L-128.9,-72.562 Z" fill="rgba(191,203,209,1)" stroke="rgba(0,0,148,1)" stroke-width="2"/>
<path d="M-148.232,62.973 L-139.29,59.967 L-151.715,77.563 L-154.853,56.252 L-148.232,62.973 Z" fill="rgba(191,203,209,1)" stroke="rgba(0,0,148,1)" stroke-width="2"/>
<path d="M-25,0 C-92.107,-31.126 -133.107,-10.459 -148,62" fill="rgba(191,203,209,0)" stroke="rgba(0,0,148,1)" stroke-width="2"/>
</svg>