<svg xmlns="http://www.w3.org/2000/svg" viewBox="-251.17 -100.48 502.36 320.97">
<path d="M-220.686,-70 L-19.314,-70 L-19.314,190 L-220.686,190 Z" fill="rgba(0,0,0,0)" stroke="rgba(0,0,0,1)" stroke-width="2"/>
<path d="M-220.686,-70 L-19.314,-70 L-19.314,-50 L-220.686,-50 Z" fill="rgba(246,246,246,1)"/>
<path d="M-220.686,-50 L-19.314,-50 L-19.314,-30 L-220.686,-30 Z" fill="rgba(255,255,255,1)"/>
<path d="M-220.686,-30 L-19.314,-30 L-19.314,-10 L-220.686,-10 Z" fill="rgba(243,246,250,1)"/>
<path d="M-220.686,-10 L-19.314,-10 L-19.314,10 L-220.686,10 Z" fill="rgba(255,255,255,1)"/>
<path d="M-220.686,10 L-19.314,10 L-19.314,30 L-220.686,30 Z" fill="rgba(243,246,250,1)"/>
<path d="M-220.686,30 L-19.314,30 L-19.314,50 L-220.686,50 Z" fill="rgba(255,255,255,1)"/>
<path d="M-220.686,50 L-19.314,50 L-19.314,70 L-220.686,70 Z" fill="rgba(243,246,250,1)"/>
<path d="M-220.686,70 L-19.314,70 L-19.314,90 L-220.686,90 Z" fill="rgba(255,255,255,1)"/>
<path d="M-220.686,90 L-19.314,90 L-19.314,110 L-220.686,110 Z" fill="rgba(243,246,250,1)"/>
<path d="M-220.686,110 L-19.314,110 L-19.314,130 L-220.686,130 Z" fill="rgba(255,255,255,1)"/>
<path d="M-220.686,130 L-19.314,130 L-19.314,150 L-220.686,150 Z" fill="rgba(243,246,250,1)"/>
<path d="M-220.686,150 L-19.314,150 L-19.314,170 L-220.686,170 Z" fill="rgba(255,255,255,1)"/>
<path d="M-220.686,170 L-19.314,170 L-19.314,190 L-220.686,190 Z" fill="rgba(243,246,250,1)"/>
<text x="0" y="0" text-anchor="start" font-family="Verdana-Bold, Helvetica, Arial, sans-serif" font-size="12" fill="rgba(0,0,0,1)" transform="matrix(1 0 0 1 -200.686 -56.82000000000001)">Index</text>
<text x="0" y="0" text-anchor="start" font-family="Verdana, Helvetica, Arial, sans-serif" font-size="12" fill="rgba(0,0,0,1)" transform="matrix(1 0 0 1 -200.686 -36.82000000000001)">0</text>
<text x="0" y="0" text-anchor="start" font-family="Verdana, Helvetica, Arial, sans-serif" font-size="12" fill="rgba(0,0,0,1)" transform="matrix(1 0 0 1 -200.686 -16.820000000000007)">1</text>
<text x="0" y="0" text-anchor="start" font-family="Verdana, Helvetica, Arial, sans-serif" font-size="12" fill="rgba(0,0,0,1)" transform="matrix(1 0 0 1 -200.686 3.1799999999999926)">2</text>
<text x="0" y="0" text-anchor="start" font-family="Verdana, Helvetica, Arial, sans-serif" font-size="12" fill="rgba(0,0,0,1)" transform="matrix(1 0 0 1 -200.686 23.179999999999993)">3</text>
<text x="0" y="0" text-anchor="start" font-family="Verdana, Helvetica, Arial, sans-serif" font-size="12" fill="rgba(0,0,0,1)" transform="matrix(1 0 0 1 -200.686 43.17999999999999)">4</text>
<text x="0" y="0" text-anchor="start" font-family="Verdana, Helvetica, Arial, sans-serif" font-size="12" fill="rgba(0,0,0,1)" transform="matrix(1 0 0 1 -200.686 63.17999999999999)">5</text>
<text x="0" y="0" text-anchor="start" font-family="Verdana, Helvetica, Arial, sans-serif" font-size="12" fill="rgba(0,0,0,1)" transform="matrix(1 0 0 1 -200.686 83.17999999999999)">6</text>
<text x="0" y="0" text-anchor="start" font-family="Verdana, Helvetica, Arial, sans-serif" font-size="12" fill="rgba(0,0,0,1)" transform="matrix(1 0 0 1 -200.686 103.17999999999999)">7</text>
<text x="0" y="0" text-anchor="start" font-family="Verdana, Helvetica, Arial, sans-serif" font-size="12" fill="rgba(0,0,0,1)" transform="matrix(1 0 0 1 -200.686 123.17999999999999)">8</text>
<text x="0" y="0" text-anchor="start" font-family="Verdana, Helvetica, Arial, sans-serif" font-size="12" fill="rgba(0,0,0,1)" transform="matrix(1 0 0 1 -200.686 143.18)">9</text>
<text x="0" y="0" text-anchor="start" font-family="Verdana, Helvetica, Arial, sans-serif" font-size="12" fill="rgba(0,0,0,1)" transform="matrix(1 0 0 1 -200.686 163.18)">10</text>
<text x="0" y="0" text-anchor="start" font-family="Verdana, Helvetica, Arial, sans-serif" font-size="12" fill="rgba(0,0,0,1)" transform="matrix(1 0 0 1 -200.686 183.18)">11</text>
<text x="0" y="0" text-anchor="start" font-family="Verdana-Bold, Helvetica, Arial, sans-serif" font-size="12" fill="rgba(0,0,0,1)" transform="matrix(1 0 0 1 -131.334 -56.82000000000001)">trial</text>
<text x="0" y="0" text-anchor="start" font-family="Verdana, Helvetica, Arial, sans-serif" font-size="12" fill="rgba(0,0,0,1)" transform="matrix(1 0 0 1 -131.334 -36.82000000000001)">4</text>
<text x="0" y="0" text-anchor="start" font-family="Verdana, Helvetica, Arial, sans-serif" font-size="12" fill="rgba(0,0,0,1)" transform="matrix(1 0 0 1 -131.334 -16.820000000000007)">8</text>
<text x="0" y="0" text-anchor="start" font-family="Verdana, Helvetica, Arial, sans-serif" font-size="12" fill="rgba(0,0,0,1)" transform="matrix(1 0 0 1 -131.334 3.1799999999999926)">9</text>
<text x="0" y="0" text-anchor="start" font-family="Verdana, Helvetica, Arial, sans-serif" font-size="12" fill="rgba(0,0,0,1)" transform="matrix(1 0 0 1 -131.334 23.179999999999993)">11</text>
<text x="0" y="0" text-anchor="start" font-family="Verdana, Helvetica, Arial, sans-serif" font-size="12" fill="rgba(0,0,0,1)" transform="matrix(1 0 0 1 -131.334 43.17999999999999)">2</text>
<text x="0" y="0" text-anchor="start" font-family="Verdana, Helvetica, Arial, sans-serif" font-size="12" fill="rgba(0,0,0,1)" transform="matrix(1 0 0 1 -131.334 63.17999999999999)">5</text>
<text x="0" y="0" text-anchor="start" font-family="Verdana, Helvetica, Arial, sans-serif" font-size="12" fill="rgba(0,0,0,1)" transform="matrix(1 0 0 1 -131.334 83.17999999999999)">6</text>
<text x="0" y="0" text-anchor="start" font-family="Verdana, Helvetica, Arial, sans-serif" font-size="12" fill="rgba(0,0,0,1)" transform="matrix(1 0 0 1 -131.334 103.17999999999999)">7</text>
<text x="0" y="0" text-anchor="start" font-family="Verdana, Helvetica, Arial, sans-serif" font-size="12" fill="rgba(0,0,0,1)" transform="matrix(1 0 0 1 -131.334 123.17999999999999)">0</text>
<text x="0" y="0" text-anchor="start" font-family="Verdana, Helvetica, Arial, sans-serif" font-size="12" fill="rgba(0,0,0,1)" transform="matrix(1 0 0 1 -131.334 143.18)">3</text>
<text x="0" y="0" text-anchor="start" font-family="Verdana, Helvetica, Arial, sans-serif" font-size="12" fill="rgba(0,0,0,1)" transform="matrix(1 0 0 1 -131.334 163.18)">10</text>
<text x="0" y="0" text-anchor="start" font-family="Verdana, Helvetica, Arial, sans-serif" font-size="12" fill="rgba(0,0,0,1)" transform="matrix(1 0 0 1 -131.334 183.18)">1</text>
<text x="0" y="0" text-anchor="start" font-family="Verdana-Bold, Helvetica, Arial, sans-serif" font-size="12" fill="rgba(0,0,0,1)" transform="matrix(1 0 0 1 -72.00200000000001 -56.82000000000001)">heads</text>
<text x="0" y="0" text-anchor="start" font-family="Verdana, Helvetica, Arial, sans-serif" font-size="12" fill="rgba(0,0,0,1)" transform="matrix(1 0 0 1 -72.00200000000001 -36.82000000000001)">4</text>
<text x="0" y="0" text-anchor="start" font-family="Verdana, Helvetica, Arial, sans-serif" font-size="12" fill="rgba(0,0,0,1)" transform="matrix(1 0 0 1 -72.00200000000001 -16.820000000000007)">4</text>
<text x="0" y="0" text-anchor="start" font-family="Verdana, Helvetica, Arial, sans-serif" font-size="12" fill="rgba(0,0,0,1)" transform="matrix(1 0 0 1 -72.00200000000001 3.1799999999999926)">4</text>
<text x="0" y="0" text-anchor="start" font-family="Verdana, Helvetica, Arial, sans-serif" font-size="12" fill="rgba(0,0,0,1)" transform="matrix(1 0 0 1 -72.00200000000001 23.179999999999993)">4</text>
<text x="0" y="0" text-anchor="start" font-family="Verdana, Helvetica, Arial, sans-serif" font-size="12" fill="rgba(0,0,0,1)" transform="matrix(1 0 0 1 -72.00200000000001 43.17999999999999)">5</text>
<text x="0" y="0" text-anchor="start" font-family="Verdana, Helvetica, Arial, sans-serif" font-size="12" fill="rgba(0,0,0,1)" transform="matrix(1 0 0 1 -72.00200000000001 63.17999999999999)">5</text>
<text x="0" y="0" text-anchor="start" font-family="Verdana, Helvetica, Arial, sans-serif" font-size="12" fill="rgba(0,0,0,1)" transform="matrix(1 0 0 1 -72.00200000000001 83.17999999999999)">5</text>
<text x="0" y="0" text-anchor="start" font-family="Verdana, Helvetica, Arial, sans-serif" font-size="12" fill="rgba(0,0,0,1)" transform="matrix(1 0 0 1 -72.00200000000001 103.17999999999999)">5</text>
<text x="0" y="0" text-anchor="start" font-family="Verdana, Helvetica, Arial, sans-serif" font-size="12" fill="rgba(0,0,0,1)" transform="matrix(1 0 0 1 -72.00200000000001 123.17999999999999)">7</text>
<text x="0" y="0" text-anchor="start" font-family="Verdana, Helvetica, Arial, sans-serif" font-size="12" fill="rgba(0,0,0,1)" transform="matrix(1 0 0 1 -72.00200000000001 143.18)">7</text>
<text x="0" y="0" text-anchor="start" font-family="Verdana, Helvetica, Arial, sans-serif" font-size="12" fill="rgba(0,0,0,1)" transform="matrix(1 0 0 1 -72.00200000000001 163.18)">7</text>
<text x="0" y="0" text-anchor="start" font-family="Verdana, Helvetica, Arial, sans-serif" font-size="12" fill="rgba(0,0,0,1)" transform="matrix(1 0 0 1 -72.00200000000001 183.18)">8</text>
<text x="81.632" y="-65" text-anchor="start" font-family="Verdana, Helvetica, Arial, sans-serif" font-size="24" fill="rgba(0,0,0,1)" transform="matrix(1 0 0 1 19 60)">Mean: </text>
<text x="62.96000000000001" y="-21.666666666666664" text-anchor="start" font-family="Verdana, Helvetica, Arial, sans-serif" font-size="24" fill="rgba(0,0,0,1)" transform="matrix(1 0 0 1 19 60)">Median: </text>
<text x="53.647999999999996" y="21.66666666666667" text-anchor="start" font-family="Verdana, Helvetica, Arial, sans-serif" font-size="24" fill="rgba(0,0,0,1)" transform="matrix(1 0 0 1 19 60)">Mode(s): </text>
<text x="33.63199999999999" y="65" text-anchor="start" font-family="Verdana, Helvetica, Arial, sans-serif" font-size="24" fill="rgba(0,0,0,1)" transform="matrix(1 0 0 1 19 60)">Mid-range: </text>
<text x="155" y="-65" text-anchor="start" font-family="Verdana, Helvetica, Arial, sans-serif" font-size="24" fill="rgba(0,0,0,1)" transform="matrix(1 0 0 1 19 60)">5.42</text>
<text x="155" y="-21.666666666666664" text-anchor="start" font-family="Verdana, Helvetica, Arial, sans-serif" font-size="24" fill="rgba(0,0,0,1)" transform="matrix(1 0 0 1 19 60)">5</text>
<text x="155" y="21.66666666666667" text-anchor="start" font-family="Verdana, Helvetica, Arial, sans-serif" font-size="24" fill="rgba(0,0,0,1)" transform="matrix(1 0 0 1 19 60)">4,5</text>
<text x="155" y="65" text-anchor="start" font-family="Verdana, Helvetica, Arial, sans-serif" font-size="24" fill="rgba(0,0,0,1)" transform="matrix(1 0 0 1 19 60)">6</text>
</svg>