<svg xmlns="http://www.w3.org/2000/svg" viewBox="-153.11 -158.68 307.99 477.78">
<path d="M95.841,156.306 L94.874,164.227 L93.301,171.872 L91.155,179.202 L88.468,186.175 L85.271,192.753 L81.597,198.894 L77.478,204.559 L72.946,209.708 L68.033,214.301 L62.771,218.297 L57.192,221.656 L51.328,224.339 L45.212,226.304 L38.875,227.513 L32.35,227.925 L25.825,227.513 L19.488,226.304 L13.372,224.339 L7.508,221.656 L1.929,218.297 L-3.333,214.301 L-8.246,209.708 L-12.778,204.559 L-16.897,198.894 L-20.571,192.753 L-23.768,186.175 L-26.455,179.202 L-28.601,171.872 L-30.174,164.227 L-31.141,156.306 L-31.471,148.149 L-31.141,141.624 L-30.174,135.287 L-28.601,129.171 L-26.455,123.308 L-23.768,117.729 L-20.571,112.467 L-16.897,107.554 L-12.778,103.022 L-8.246,98.903 L-3.333,95.229 L1.929,92.032 L7.508,89.344 L13.372,87.198 L19.488,85.626 L25.825,84.659 L32.35,84.329 L38.875,84.659 L45.212,85.626 L51.328,87.198 L57.192,89.344 L62.771,92.032 L68.033,95.229 L72.946,98.903 L77.478,103.022 L81.597,107.554 L85.271,112.467 L88.468,117.729 L91.155,123.308 L93.301,129.171 L94.874,135.287 L95.841,141.624 L96.17,148.149 Z" fill="rgba(236,191,18,0.8627450980392157)" stroke="rgba(0,206,255,0.8627450980392157)" stroke-width="0.638204617286101"/>
<path d="M43.404,247.071 L21.296,247.071 L32.35,227.925 Z" fill="rgba(236,191,18,0.8627450980392157)" stroke="rgba(0,206,255,0.8627450980392157)" stroke-width="0.638204617286101"/>
<path d="M56.678,98.27 L73.266,110.657 L84.16,128.261 L70.689,133.432 L50.353,111.239 L56.678,98.27 Z" fill="rgba(255,255,255,0.11372549019607843)"/>
<path d="M67.565,105.165 L73.868,109.872 L78.008,116.562 L72.889,118.527 L65.161,110.093 L67.565,105.165 Z" fill="rgba(255,255,255,0.6549019607843137)"/>
<path d="M70.219,110.383 L69.37,117.331 L67.991,124.037 L66.108,130.466 L63.751,136.583 L60.947,142.353 L57.724,147.74 L54.111,152.71 L50.135,157.226 L45.826,161.255 L41.21,164.76 L36.316,167.706 L31.173,170.06 L25.808,171.784 L20.249,172.844 L14.526,173.206 L8.802,172.844 L3.243,171.784 L-2.122,170.06 L-7.265,167.706 L-12.159,164.76 L-16.775,161.255 L-21.084,157.226 L-25.06,152.71 L-28.673,147.74 L-31.896,142.353 L-34.7,136.583 L-37.057,130.466 L-38.94,124.037 L-40.319,117.331 L-41.167,110.383 L-41.456,103.228 L-41.167,97.504 L-40.319,91.946 L-38.94,86.581 L-37.057,81.437 L-34.7,76.544 L-31.896,71.928 L-28.673,67.618 L-25.06,63.643 L-21.084,60.029 L-16.775,56.807 L-12.159,54.003 L-7.265,51.645 L-2.122,49.763 L3.243,48.383 L8.802,47.535 L14.526,47.246 L20.249,47.535 L25.808,48.383 L31.173,49.763 L36.316,51.645 L41.21,54.003 L45.826,56.807 L50.135,60.029 L54.111,63.643 L57.724,67.618 L60.947,71.928 L63.751,76.544 L66.108,81.437 L67.991,86.581 L69.37,91.946 L70.219,97.504 L70.508,103.228 Z" fill="rgba(223,118,146,0.8627450980392157)" stroke="rgba(0,172,158,0.8627450980392157)" stroke-width="0.5598213468678296"/>
<path d="M24.222,190 L4.829,190 L14.526,173.206 Z" fill="rgba(223,118,146,0.8627450980392157)" stroke="rgba(0,172,158,0.8627450980392157)" stroke-width="0.5598213468678296"/>
<path d="M35.866,59.475 L50.416,70.34 L59.972,85.783 L48.156,90.318 L30.317,70.85 L35.866,59.475 Z" fill="rgba(255,255,255,0.11372549019607843)"/>
<path d="M45.416,65.523 L50.945,69.652 L54.576,75.52 L50.086,77.244 L43.307,69.846 L45.416,65.523 Z" fill="rgba(255,255,255,0.6549019607843137)"/>
<path d="M23.396,-63.567 L22.566,-56.771 L21.217,-50.21 L19.375,-43.921 L17.069,-37.937 L14.326,-32.293 L11.173,-27.023 L7.639,-22.162 L3.75,-17.744 L-0.466,-13.803 L-4.981,-10.374 L-9.769,-7.491 L-14.8,-5.189 L-20.048,-3.503 L-25.486,-2.465 L-31.085,-2.112 L-36.684,-2.465 L-42.122,-3.503 L-47.37,-5.189 L-52.402,-7.491 L-57.189,-10.374 L-61.704,-13.803 L-65.92,-17.744 L-69.809,-22.162 L-73.343,-27.023 L-76.496,-32.293 L-79.239,-37.937 L-81.545,-43.921 L-83.387,-50.21 L-84.736,-56.771 L-85.566,-63.567 L-85.849,-70.567 L-85.566,-76.166 L-84.736,-81.603 L-83.387,-86.852 L-81.545,-91.883 L-79.239,-96.67 L-76.496,-101.185 L-73.343,-105.401 L-69.809,-109.29 L-65.92,-112.825 L-61.704,-115.977 L-57.189,-118.721 L-52.402,-121.027 L-47.37,-122.868 L-42.122,-124.218 L-36.684,-125.047 L-31.085,-125.33 L-25.486,-125.047 L-20.048,-124.218 L-14.8,-122.868 L-9.769,-121.027 L-4.981,-118.721 L-0.466,-115.977 L3.75,-112.825 L7.639,-109.29 L11.173,-105.401 L14.326,-101.185 L17.069,-96.67 L19.375,-91.883 L21.217,-86.852 L22.566,-81.603 L23.396,-76.166 L23.679,-70.567 Z" fill="rgba(104,106,120,0.8627450980392157)" stroke="rgba(107,107,93,0.8627450980392157)" stroke-width="0.5476369445445016"/>
<path d="M-31.085,14.317 L-31.085,123.845" fill="rgba(0,0,0,0)" stroke="rgba(128,128,128,1)" stroke-width="1"/>
<path d="M-21.6,14.317 L-40.57,14.317 L-31.085,-2.112 Z" fill="rgba(104,106,120,0.8627450980392157)" stroke="rgba(107,107,93,0.8627450980392157)" stroke-width="0.5476369445445016"/>
<path d="M-10.21,-113.368 L4.025,-102.739 L13.373,-87.632 L1.814,-83.195 L-15.637,-102.239 L-10.21,-113.368 Z" fill="rgba(255,255,255,0.11372549019607843)"/>
<path d="M-0.867,-107.451 L4.541,-103.412 L8.094,-97.671 L3.701,-95.985 L-2.93,-103.222 L-0.867,-107.451 Z" fill="rgba(255,255,255,0.6549019607843137)"/>
<path d="M31.841,2.555 L31.027,9.221 L29.704,15.654 L27.898,21.822 L25.636,27.69 L22.946,33.225 L19.854,38.393 L16.388,43.16 L12.574,47.493 L8.44,51.358 L4.012,54.72 L-0.683,57.547 L-5.617,59.805 L-10.764,61.459 L-16.096,62.476 L-21.587,62.823 L-27.078,62.476 L-32.411,61.459 L-37.557,59.805 L-42.492,57.547 L-47.186,54.72 L-51.614,51.358 L-55.749,47.493 L-59.563,43.16 L-63.029,38.393 L-66.12,33.225 L-68.811,27.69 L-71.072,21.822 L-72.878,15.654 L-74.201,9.221 L-75.015,2.555 L-75.293,-4.309 L-75.015,-9.8 L-74.201,-15.132 L-72.878,-20.279 L-71.072,-25.213 L-68.811,-29.908 L-66.12,-34.336 L-63.029,-38.47 L-59.563,-42.284 L-55.749,-45.75 L-51.614,-48.842 L-47.186,-51.532 L-42.492,-53.794 L-37.557,-55.6 L-32.411,-56.923 L-27.078,-57.737 L-21.587,-58.014 L-16.096,-57.737 L-10.764,-56.923 L-5.617,-55.6 L-0.683,-53.794 L4.012,-51.532 L8.44,-48.842 L12.574,-45.75 L16.388,-42.284 L19.854,-38.47 L22.946,-34.336 L25.636,-29.908 L27.898,-25.213 L29.704,-20.279 L31.027,-15.132 L31.841,-9.8 L32.118,-4.309 Z" fill="rgba(113,142,169,0.8627450980392157)" stroke="rgba(157,134,108,0.8627450980392157)" stroke-width="0.5370534952729941"/>
<path d="M-21.587,78.934 L-21.587,186.345" fill="rgba(0,0,0,0)" stroke="rgba(128,128,128,1)" stroke-width="1"/>
<path d="M-12.285,78.934 L-30.889,78.934 L-21.587,62.823 Z" fill="rgba(113,142,169,0.8627450980392157)" stroke="rgba(157,134,108,0.8627450980392157)" stroke-width="0.5370534952729941"/>
<path d="M-1.115,-46.283 L12.844,-35.859 L22.011,-21.045 L10.676,-16.693 L-6.438,-35.37 L-1.115,-46.283 Z" fill="rgba(255,255,255,0.11372549019607843)"/>
<path d="M8.046,-40.48 L13.351,-36.519 L16.834,-30.89 L12.527,-29.236 L6.024,-36.333 L8.046,-40.48 Z" fill="rgba(255,255,255,0.6549019607843137)"/>
<path d="M105.54,85.072 L104.767,91.399 L103.511,97.506 L101.796,103.361 L99.65,108.932 L97.096,114.186 L94.161,119.092 L90.871,123.618 L87.25,127.731 L83.326,131.399 L79.122,134.591 L74.666,137.275 L69.982,139.418 L65.096,140.988 L60.034,141.954 L54.821,142.283 L49.609,141.954 L44.547,140.988 L39.661,139.418 L34.977,137.275 L30.521,134.591 L26.317,131.399 L22.392,127.731 L18.772,123.618 L15.482,119.092 L12.547,114.186 L9.993,108.932 L7.846,103.361 L6.132,97.506 L4.876,91.399 L4.103,85.072 L3.84,78.556 L4.103,73.343 L4.876,68.281 L6.132,63.396 L7.846,58.712 L9.993,54.255 L12.547,50.052 L15.482,46.127 L18.772,42.507 L22.392,39.216 L26.317,36.281 L30.521,33.728 L34.977,31.581 L39.661,29.866 L44.547,28.61 L49.609,27.838 L54.821,27.574 L60.034,27.838 L65.096,28.61 L69.982,29.866 L74.666,31.581 L79.122,33.728 L83.326,36.281 L87.25,39.216 L90.871,42.507 L94.161,46.127 L97.096,50.052 L99.65,54.255 L101.796,58.712 L103.511,63.396 L104.767,68.281 L105.54,73.343 L105.803,78.556 Z" fill="rgba(92,192,220,0.8627450980392157)" stroke="rgba(230,161,137,0.8627450980392157)" stroke-width="0.5098146409494803"/>
<path d="M54.821,157.577 L54.821,259.54" fill="rgba(0,0,0,0)" stroke="rgba(128,128,128,1)" stroke-width="1"/>
<path d="M63.652,157.577 L45.991,157.577 L54.821,142.283 Z" fill="rgba(92,192,220,0.8627450980392157)" stroke="rgba(230,161,137,0.8627450980392157)" stroke-width="0.5098146409494803"/>
<path d="M74.255,38.711 L87.506,48.606 L96.209,62.669 L85.448,66.799 L69.202,49.071 L74.255,38.711 Z" fill="rgba(255,255,255,0.11372549019607843)"/>
<path d="M82.952,44.219 L87.987,47.979 L91.294,53.323 L87.205,54.893 L81.032,48.156 L82.952,44.219 Z" fill="rgba(255,255,255,0.6549019607843137)"/>
<path d="M94.554,115.776 L93.783,122.092 L92.529,128.188 L90.818,134.033 L88.675,139.594 L86.126,144.839 L83.196,149.736 L79.911,154.253 L76.297,158.359 L72.38,162.021 L68.184,165.207 L63.735,167.886 L59.059,170.025 L54.182,171.593 L49.129,172.557 L43.926,172.885 L38.723,172.557 L33.67,171.593 L28.792,170.025 L24.117,167.886 L19.668,165.207 L15.472,162.021 L11.554,158.359 L7.94,154.253 L4.656,149.736 L1.726,144.839 L-0.823,139.594 L-2.966,134.033 L-4.677,128.188 L-5.931,122.092 L-6.703,115.776 L-6.965,109.271 L-6.703,104.068 L-5.931,99.015 L-4.677,94.138 L-2.966,89.462 L-0.823,85.014 L1.726,80.818 L4.656,76.9 L7.94,73.286 L11.554,70.001 L15.472,67.072 L19.668,64.523 L24.117,62.38 L28.792,60.668 L33.67,59.414 L38.723,58.643 L43.926,58.38 L49.129,58.643 L54.182,59.414 L59.059,60.668 L63.735,62.38 L68.184,64.523 L72.38,67.072 L76.297,70.001 L79.911,73.286 L83.196,76.9 L86.126,80.818 L88.675,85.014 L90.818,89.462 L92.529,94.138 L93.783,99.015 L94.554,104.068 L94.817,109.271 Z" fill="rgba(236,191,18,0.8627450980392157)" stroke="rgba(0,206,255,0.8627450980392157)" stroke-width="0.508911287621595"/>
<path d="M43.926,188.153 L43.926,289.935" fill="rgba(0,0,0,0)" stroke="rgba(128,128,128,1)" stroke-width="1"/>
<path d="M52.74,188.153 L35.111,188.153 L43.926,172.885 Z" fill="rgba(236,191,18,0.8627450980392157)" stroke="rgba(0,206,255,0.8627450980392157)" stroke-width="0.508911287621595"/>
<path d="M63.325,69.497 L76.553,79.374 L85.24,93.412 L74.498,97.536 L58.281,79.838 L63.325,69.497 Z" fill="rgba(255,255,255,0.11372549019607843)"/>
<path d="M72.007,74.995 L77.033,78.749 L80.334,84.083 L76.252,85.65 L70.09,78.925 L72.007,74.995 Z" fill="rgba(255,255,255,0.6549019607843137)"/>
<path d="M93.097,-10.035 L92.342,-3.855 L91.116,2.109 L89.441,7.827 L87.345,13.268 L84.851,18.399 L81.985,23.19 L78.771,27.61 L75.235,31.627 L71.402,35.21 L67.297,38.327 L62.945,40.948 L58.37,43.041 L53.599,44.574 L48.655,45.518 L43.565,45.839 L38.474,45.518 L33.53,44.574 L28.759,43.041 L24.184,40.948 L19.832,38.327 L15.727,35.21 L11.894,31.627 L8.358,27.61 L5.145,23.19 L2.278,18.399 L-0.216,13.268 L-2.312,7.827 L-3.987,2.109 L-5.213,-3.855 L-5.968,-10.035 L-6.225,-16.398 L-5.968,-21.489 L-5.213,-26.432 L-3.987,-31.204 L-2.312,-35.778 L-0.216,-40.131 L2.278,-44.236 L5.145,-48.069 L8.358,-51.604 L11.894,-54.818 L15.727,-57.684 L19.832,-60.178 L24.184,-62.275 L28.759,-63.949 L33.53,-65.176 L38.474,-65.93 L43.565,-66.187 L48.655,-65.93 L53.599,-65.176 L58.37,-63.949 L62.945,-62.275 L67.297,-60.178 L71.402,-57.684 L75.235,-54.818 L78.771,-51.604 L81.985,-48.069 L84.851,-44.236 L87.345,-40.131 L89.441,-35.778 L91.116,-31.204 L92.342,-26.432 L93.097,-21.489 L93.354,-16.398 Z" fill="rgba(223,118,146,0.8627450980392157)" stroke="rgba(0,172,158,0.8627450980392157)" stroke-width="0.4978950036223978"/>
<path d="M43.565,60.776 L43.565,160.355" fill="rgba(0,0,0,0)" stroke="rgba(128,128,128,1)" stroke-width="1"/>
<path d="M52.188,60.776 L34.941,60.776 L43.565,45.839 Z" fill="rgba(223,118,146,0.8627450980392157)" stroke="rgba(0,172,158,0.8627450980392157)" stroke-width="0.4978950036223978"/>
<path d="M62.544,-55.311 L75.485,-45.648 L83.984,-31.914 L73.475,-27.88 L57.609,-45.194 L62.544,-55.311 Z" fill="rgba(255,255,255,0.11372549019607843)"/>
<path d="M71.037,-49.932 L75.955,-46.26 L79.185,-41.041 L75.191,-39.508 L69.162,-46.087 L71.037,-49.932 Z" fill="rgba(255,255,255,0.6549019607843137)"/>
<path d="M-28.015,26.522 L-28.743,32.49 L-29.928,38.251 L-31.545,43.774 L-33.57,49.028 L-35.979,53.984 L-38.747,58.611 L-41.851,62.88 L-45.266,66.76 L-48.968,70.22 L-52.932,73.231 L-57.136,75.762 L-61.554,77.783 L-66.163,79.264 L-70.937,80.175 L-75.854,80.486 L-80.771,80.175 L-85.545,79.264 L-90.154,77.783 L-94.572,75.762 L-98.775,73.231 L-102.74,70.22 L-106.442,66.76 L-109.857,62.88 L-112.96,58.611 L-115.729,53.984 L-118.137,49.028 L-120.162,43.774 L-121.779,38.251 L-122.964,32.49 L-123.693,26.522 L-123.941,20.376 L-123.693,15.46 L-122.964,10.685 L-121.779,6.077 L-120.162,1.659 L-118.137,-2.545 L-115.729,-6.51 L-112.96,-10.212 L-109.857,-13.627 L-106.442,-16.73 L-102.74,-19.499 L-98.775,-21.907 L-94.572,-23.932 L-90.154,-25.549 L-85.545,-26.734 L-80.771,-27.463 L-75.854,-27.711 L-70.937,-27.463 L-66.163,-26.734 L-61.554,-25.549 L-57.136,-23.932 L-52.932,-21.907 L-48.968,-19.499 L-45.266,-16.73 L-41.851,-13.627 L-38.747,-10.212 L-35.979,-6.51 L-33.57,-2.545 L-31.545,1.659 L-29.928,6.077 L-28.743,10.685 L-28.015,15.46 L-27.766,20.376 Z" fill="rgba(104,106,120,0.8627450980392157)" stroke="rgba(107,107,93,0.8627450980392157)" stroke-width="0.4808748950948939"/>
<path d="M-75.854,94.912 L-75.854,191.087" fill="rgba(0,0,0,0)" stroke="rgba(128,128,128,1)" stroke-width="1"/>
<path d="M-67.525,94.912 L-84.183,94.912 L-75.854,80.486 Z" fill="rgba(104,106,120,0.8627450980392157)" stroke="rgba(107,107,93,0.8627450980392157)" stroke-width="0.4808748950948939"/>
<path d="M-57.523,-17.207 L-45.024,-7.874 L-36.816,5.391 L-46.966,9.287 L-62.289,-7.435 L-57.523,-17.207 Z" fill="rgba(255,255,255,0.11372549019607843)"/>
<path d="M-49.32,-12.011 L-44.571,-8.465 L-41.451,-3.424 L-45.308,-1.944 L-51.131,-8.298 L-49.32,-12.011 Z" fill="rgba(255,255,255,0.6549019607843137)"/>
<path d="M25.196,-0.666 L24.535,4.749 L23.46,9.976 L21.992,14.987 L20.155,19.754 L17.97,24.251 L15.458,28.449 L12.642,32.323 L9.543,35.843 L6.184,38.982 L2.587,41.714 L-1.227,44.011 L-5.236,45.845 L-9.417,47.189 L-13.749,48.015 L-18.21,48.297 L-22.671,48.015 L-27.004,47.189 L-31.185,45.845 L-35.194,44.011 L-39.008,41.714 L-42.605,38.982 L-45.964,35.843 L-49.062,32.323 L-51.878,28.449 L-54.39,24.251 L-56.576,19.754 L-58.413,14.987 L-59.88,9.976 L-60.955,4.749 L-61.616,-0.666 L-61.842,-6.243 L-61.616,-10.704 L-60.955,-15.036 L-59.88,-19.217 L-58.413,-23.226 L-56.576,-27.04 L-54.39,-30.637 L-51.878,-33.996 L-49.062,-37.095 L-45.964,-39.911 L-42.605,-42.422 L-39.008,-44.608 L-35.194,-46.445 L-31.185,-47.912 L-27.004,-48.988 L-22.671,-49.649 L-18.21,-49.874 L-13.749,-49.649 L-9.417,-48.988 L-5.236,-47.912 L-1.227,-46.445 L2.587,-44.608 L6.184,-42.422 L9.543,-39.911 L12.642,-37.095 L15.458,-33.996 L17.97,-30.637 L20.155,-27.04 L21.992,-23.226 L23.46,-19.217 L24.535,-15.036 L25.196,-10.704 L25.421,-6.243 Z" fill="rgba(113,142,169,0.8627450980392157)" stroke="rgba(157,134,108,0.8627450980392157)" stroke-width="0.4363141077104956"/>
<path d="M-18.21,61.386 L-18.21,148.649" fill="rgba(0,0,0,0)" stroke="rgba(128,128,128,1)" stroke-width="1"/>
<path d="M-10.653,61.386 L-25.767,61.386 L-18.21,48.297 Z" fill="rgba(113,142,169,0.8627450980392157)" stroke="rgba(157,134,108,0.8627450980392157)" stroke-width="0.4363141077104956"/>
<path d="M-1.578,-40.343 L9.762,-31.875 L17.21,-19.839 L8.001,-16.304 L-5.903,-31.477 L-1.578,-40.343 Z" fill="rgba(255,255,255,0.11372549019607843)"/>
<path d="M5.865,-35.629 L10.174,-32.411 L13.004,-27.838 L9.505,-26.494 L4.221,-32.26 L5.865,-35.629 Z" fill="rgba(255,255,255,0.6549019607843137)"/>
<path d="M46.588,-61.739 L45.961,-56.606 L44.942,-51.651 L43.551,-46.901 L41.809,-42.382 L39.737,-38.119 L37.356,-34.139 L34.687,-30.468 L31.75,-27.131 L28.566,-24.155 L25.156,-21.565 L21.54,-19.388 L17.74,-17.649 L13.776,-16.375 L9.67,-15.592 L5.441,-15.325 L1.212,-15.592 L-2.895,-16.375 L-6.858,-17.649 L-10.658,-19.388 L-14.274,-21.565 L-17.684,-24.155 L-20.868,-27.131 L-23.805,-30.468 L-26.475,-34.139 L-28.856,-38.119 L-30.927,-42.382 L-32.669,-46.901 L-34.06,-51.651 L-35.079,-56.606 L-35.706,-61.739 L-35.919,-67.025 L-35.706,-71.254 L-35.079,-75.361 L-34.06,-79.325 L-32.669,-83.125 L-30.927,-86.74 L-28.856,-90.15 L-26.475,-93.334 L-23.805,-96.271 L-20.868,-98.941 L-17.684,-101.322 L-14.274,-103.394 L-10.658,-105.135 L-6.858,-106.526 L-2.895,-107.545 L1.212,-108.172 L5.441,-108.386 L9.67,-108.172 L13.776,-107.545 L17.74,-106.526 L21.54,-105.135 L25.156,-103.394 L28.566,-101.322 L31.75,-98.941 L34.687,-96.271 L37.356,-93.334 L39.737,-90.15 L41.809,-86.74 L43.551,-83.125 L44.942,-79.325 L45.961,-75.361 L46.588,-71.254 L46.801,-67.025 Z" fill="rgba(92,192,220,0.8627450980392157)" stroke="rgba(230,161,137,0.8627450980392157)" stroke-width="0.41360213512089106"/>
<path d="M5.441,-2.917 L5.441,79.803" fill="rgba(0,0,0,0)" stroke="rgba(128,128,128,1)" stroke-width="1"/>
<path d="M12.605,-2.917 L-1.723,-2.917 L5.441,-15.325 Z" fill="rgba(92,192,220,0.8627450980392157)" stroke="rgba(230,161,137,0.8627450980392157)" stroke-width="0.41360213512089106"/>
<path d="M21.207,-99.351 L31.957,-91.323 L39.017,-79.914 L30.288,-76.563 L17.108,-90.946 L21.207,-99.351 Z" fill="rgba(255,255,255,0.11372549019607843)"/>
<path d="M28.263,-94.882 L32.348,-91.832 L35.031,-87.496 L31.713,-86.223 L26.705,-91.688 L28.263,-94.882 Z" fill="rgba(255,255,255,0.6549019607843137)"/>
<path d="M125.521,-86.59 L124.944,-81.867 L124.007,-77.307 L122.727,-72.936 L121.124,-68.778 L119.218,-64.855 L117.027,-61.193 L114.57,-57.814 L111.867,-54.744 L108.937,-52.005 L105.799,-49.622 L102.472,-47.619 L98.976,-46.019 L95.328,-44.847 L91.549,-44.126 L87.658,-43.88 L83.766,-44.126 L79.987,-44.847 L76.34,-46.019 L72.843,-47.619 L69.516,-49.622 L66.378,-52.005 L63.448,-54.744 L60.746,-57.814 L58.289,-61.193 L56.098,-64.855 L54.192,-68.778 L52.589,-72.936 L51.309,-77.307 L50.371,-81.867 L49.795,-86.59 L49.598,-91.455 L49.795,-95.346 L50.371,-99.125 L51.309,-102.772 L52.589,-106.269 L54.192,-109.596 L56.098,-112.734 L58.289,-115.664 L60.746,-118.367 L63.448,-120.823 L66.378,-123.014 L69.516,-124.921 L72.843,-126.523 L76.34,-127.803 L79.987,-128.741 L83.766,-129.318 L87.658,-129.514 L91.549,-129.318 L95.328,-128.741 L98.976,-127.803 L102.472,-126.523 L105.799,-124.921 L108.937,-123.014 L111.867,-120.823 L114.57,-118.367 L117.027,-115.664 L119.218,-112.734 L121.124,-109.596 L122.727,-106.269 L124.007,-102.772 L124.944,-99.125 L125.521,-95.346 L125.718,-91.455 Z" fill="rgba(236,191,18,0.8627450980392157)" stroke="rgba(0,206,255,0.8627450980392157)" stroke-width="0.3805974370101467"/>
<path d="M87.658,-32.462 L87.658,43.657" fill="rgba(0,0,0,0)" stroke="rgba(128,128,128,1)" stroke-width="1"/>
<path d="M94.25,-32.462 L81.066,-32.462 L87.658,-43.88 Z" fill="rgba(236,191,18,0.8627450980392157)" stroke="rgba(0,206,255,0.8627450980392157)" stroke-width="0.3805974370101467"/>
<path d="M102.166,-121.201 L112.058,-113.814 L118.555,-103.315 L110.522,-100.231 L98.394,-113.467 L102.166,-121.201 Z" fill="rgba(255,255,255,0.11372549019607843)"/>
<path d="M108.658,-117.089 L112.418,-114.281 L114.886,-110.292 L111.834,-109.12 L107.225,-114.15 L108.658,-117.089 Z" fill="rgba(255,255,255,0.6549019607843137)"/>
<path d="M6.837,154.886 L6.3,159.286 L5.426,163.532 L4.234,167.603 L2.742,171.476 L0.966,175.129 L-1.075,178.541 L-3.362,181.687 L-5.88,184.547 L-8.609,187.098 L-11.531,189.317 L-14.63,191.183 L-17.887,192.673 L-21.284,193.765 L-24.803,194.436 L-28.428,194.665 L-32.052,194.436 L-35.572,193.765 L-38.969,192.673 L-42.225,191.183 L-45.324,189.317 L-48.247,187.098 L-50.975,184.547 L-53.493,181.687 L-55.781,178.541 L-57.821,175.129 L-59.597,171.476 L-61.089,167.603 L-62.281,163.532 L-63.155,159.286 L-63.692,154.886 L-63.875,150.356 L-63.692,146.731 L-63.155,143.212 L-62.281,139.815 L-61.089,136.558 L-59.597,133.459 L-57.821,130.537 L-55.781,127.808 L-53.493,125.291 L-50.975,123.003 L-48.247,120.962 L-45.324,119.187 L-42.225,117.694 L-38.969,116.502 L-35.572,115.628 L-32.052,115.091 L-28.428,114.908 L-24.803,115.091 L-21.284,115.628 L-17.887,116.502 L-14.63,117.694 L-11.531,119.187 L-8.609,120.962 L-5.88,123.003 L-3.362,125.291 L-1.075,127.808 L0.966,130.537 L2.742,133.459 L4.234,136.558 L5.426,139.815 L6.3,143.212 L6.837,146.731 L7.02,150.356 Z" fill="rgba(223,118,146,0.8627450980392157)" stroke="rgba(0,172,158,0.8627450980392157)" stroke-width="0.3544743505539373"/>
<path d="M-28.428,205.299 L-28.428,276.194" fill="rgba(0,0,0,0)" stroke="rgba(128,128,128,1)" stroke-width="1"/>
<path d="M-22.288,205.299 L-34.567,205.299 L-28.428,194.665 Z" fill="rgba(223,118,146,0.8627450980392157)" stroke="rgba(0,172,158,0.8627450980392157)" stroke-width="0.3544743505539373"/>
<path d="M-14.915,122.651 L-5.702,129.531 L0.349,139.309 L-7.133,142.181 L-18.429,129.855 L-14.915,122.651 Z" fill="rgba(255,255,255,0.11372549019607843)"/>
<path d="M-8.868,126.481 L-5.367,129.096 L-3.068,132.811 L-5.911,133.903 L-10.203,129.218 L-8.868,126.481 Z" fill="rgba(255,255,255,0.6549019607843137)"/>
<path d="M39.725,35.266 L39.201,39.561 L38.348,43.706 L37.185,47.68 L35.728,51.461 L33.994,55.027 L32.002,58.357 L29.769,61.429 L27.312,64.22 L24.648,66.71 L21.795,68.877 L18.77,70.698 L15.591,72.153 L12.275,73.219 L8.839,73.874 L5.301,74.098 L1.763,73.874 L-1.673,73.219 L-4.989,72.153 L-8.168,70.698 L-11.193,68.877 L-14.046,66.71 L-16.71,64.22 L-19.167,61.429 L-21.401,58.357 L-23.393,55.027 L-25.126,51.461 L-26.583,47.68 L-27.747,43.706 L-28.599,39.561 L-29.124,35.266 L-29.302,30.844 L-29.124,27.306 L-28.599,23.87 L-27.747,20.554 L-26.583,17.374 L-25.126,14.35 L-23.393,11.497 L-21.401,8.833 L-19.167,6.375 L-16.71,4.142 L-14.046,2.15 L-11.193,0.417 L-8.168,-1.04 L-4.989,-2.204 L-1.673,-3.057 L1.763,-3.581 L5.301,-3.76 L8.839,-3.581 L12.275,-3.057 L15.591,-2.204 L18.77,-1.04 L21.795,0.417 L24.648,2.15 L27.312,4.142 L29.769,6.375 L32.002,8.833 L33.994,11.497 L35.728,14.35 L37.185,17.374 L38.348,20.554 L39.201,23.87 L39.725,27.306 L39.904,30.844 Z" fill="rgba(104,106,120,0.8627450980392157)" stroke="rgba(107,107,93,0.8627450980392157)" stroke-width="0.34603208836633714"/>
<path d="M5.301,84.478 L5.301,153.685" fill="rgba(0,0,0,0)" stroke="rgba(128,128,128,1)" stroke-width="1"/>
<path d="M11.294,84.478 L-0.693,84.478 L5.301,74.098 Z" fill="rgba(104,106,120,0.8627450980392157)" stroke="rgba(107,107,93,0.8627450980392157)" stroke-width="0.34603208836633714"/>
<path d="M18.491,3.799 L27.485,10.515 L33.392,20.06 L26.088,22.864 L15.062,10.831 L18.491,3.799 Z" fill="rgba(255,255,255,0.11372549019607843)"/>
<path d="M24.394,7.538 L27.812,10.09 L30.057,13.717 L27.281,14.782 L23.091,10.21 L24.394,7.538 Z" fill="rgba(255,255,255,0.6549019607843137)"/>
<path d="M11.289,-52.23 L10.788,-48.124 L9.973,-44.161 L8.86,-40.362 L7.467,-36.747 L5.81,-33.337 L3.905,-30.154 L1.77,-27.217 L-0.579,-24.548 L-3.126,-22.168 L-5.854,-20.096 L-8.746,-18.355 L-11.785,-16.964 L-14.956,-15.945 L-18.24,-15.319 L-21.623,-15.105 L-25.006,-15.319 L-28.29,-15.945 L-31.461,-16.964 L-34.5,-18.355 L-37.392,-20.096 L-40.12,-22.168 L-42.667,-24.548 L-45.016,-27.217 L-47.151,-30.154 L-49.056,-33.337 L-50.713,-36.747 L-52.106,-40.362 L-53.219,-44.161 L-54.034,-48.124 L-54.535,-52.23 L-54.706,-56.459 L-54.535,-59.841 L-54.034,-63.126 L-53.219,-66.296 L-52.106,-69.336 L-50.713,-72.228 L-49.056,-74.956 L-47.151,-77.502 L-45.016,-79.852 L-42.667,-81.987 L-40.12,-83.891 L-37.392,-85.549 L-34.5,-86.942 L-31.461,-88.054 L-28.29,-88.869 L-25.006,-89.371 L-21.623,-89.542 L-18.24,-89.371 L-14.956,-88.869 L-11.785,-88.054 L-8.746,-86.942 L-5.854,-85.549 L-3.126,-83.891 L-0.579,-81.987 L1.77,-79.852 L3.905,-77.502 L5.81,-74.956 L7.467,-72.228 L8.86,-69.336 L9.973,-66.296 L10.788,-63.126 L11.289,-59.841 L11.46,-56.459 Z" fill="rgba(113,142,169,0.8627450980392157)" stroke="rgba(157,134,108,0.8627450980392157)" stroke-width="0.33082898610737177"/>
<path d="M-21.623,-5.18 L-21.623,60.986" fill="rgba(0,0,0,0)" stroke="rgba(128,128,128,1)" stroke-width="1"/>
<path d="M-15.893,-5.18 L-27.353,-5.18 L-21.623,-15.105 Z" fill="rgba(113,142,169,0.8627450980392157)" stroke="rgba(157,134,108,0.8627450980392157)" stroke-width="0.33082898610737177"/>
<path d="M-9.012,-82.315 L-0.413,-75.894 L5.234,-66.768 L-1.749,-64.088 L-12.291,-75.592 L-9.012,-82.315 Z" fill="rgba(255,255,255,0.11372549019607843)"/>
<path d="M-3.368,-78.741 L-0.101,-76.301 L2.045,-72.833 L-0.608,-71.814 L-4.614,-76.186 L-3.368,-78.741 Z" fill="rgba(255,255,255,0.6549019607843137)"/>
<path d="M48.684,-32.403 L48.188,-28.346 L47.383,-24.429 L46.283,-20.675 L44.907,-17.102 L43.269,-13.733 L41.387,-10.587 L39.277,-7.685 L36.955,-5.047 L34.438,-2.695 L31.743,-0.648 L28.885,1.073 L25.881,2.447 L22.748,3.454 L19.502,4.074 L16.159,4.285 L12.817,4.074 L9.571,3.454 L6.438,2.447 L3.434,1.073 L0.576,-0.648 L-2.12,-2.695 L-4.636,-5.047 L-6.958,-7.685 L-9.068,-10.587 L-10.95,-13.733 L-12.588,-17.102 L-13.964,-20.675 L-15.064,-24.429 L-15.869,-28.346 L-16.365,-32.403 L-16.534,-36.582 L-16.365,-39.924 L-15.869,-43.17 L-15.064,-46.304 L-13.964,-49.307 L-12.588,-52.165 L-10.95,-54.861 L-9.068,-57.377 L-6.958,-59.699 L-4.636,-61.809 L-2.12,-63.691 L0.576,-65.329 L3.434,-66.706 L6.438,-67.805 L9.571,-68.611 L12.817,-69.106 L16.159,-69.275 L19.502,-69.106 L22.748,-68.611 L25.881,-67.805 L28.885,-66.706 L31.743,-65.329 L34.438,-63.691 L36.955,-61.809 L39.277,-59.699 L41.387,-57.377 L43.269,-54.861 L44.907,-52.165 L46.283,-49.307 L47.383,-46.304 L48.188,-43.17 L48.684,-39.924 L48.852,-36.582 Z" fill="rgba(92,192,220,0.8627450980392157)" stroke="rgba(230,161,137,0.8627450980392157)" stroke-width="0.32693032987881454"/>
<path d="M16.159,14.093 L16.159,79.479" fill="rgba(0,0,0,0)" stroke="rgba(128,128,128,1)" stroke-width="1"/>
<path d="M21.822,14.093 L10.497,14.093 L16.159,4.285 Z" fill="rgba(92,192,220,0.8627450980392157)" stroke="rgba(230,161,137,0.8627450980392157)" stroke-width="0.32693032987881454"/>
<path d="M28.622,-62.133 L37.119,-55.788 L42.7,-46.77 L35.799,-44.121 L25.382,-55.49 L28.622,-62.133 Z" fill="rgba(255,255,255,0.11372549019607843)"/>
<path d="M34.199,-58.601 L37.428,-56.19 L39.549,-52.763 L36.926,-51.756 L32.968,-56.076 L34.199,-58.601 Z" fill="rgba(255,255,255,0.6549019607843137)"/>
<path d="M-11.727,125.971 L-12.215,129.971 L-13.009,133.831 L-14.093,137.533 L-15.45,141.054 L-17.064,144.376 L-18.92,147.477 L-21,150.338 L-23.288,152.938 L-25.77,155.257 L-28.427,157.275 L-31.244,158.972 L-34.205,160.326 L-37.294,161.319 L-40.494,161.929 L-43.789,162.137 L-47.084,161.929 L-50.284,161.319 L-53.373,160.326 L-56.334,158.972 L-59.151,157.275 L-61.808,155.257 L-64.289,152.938 L-66.578,150.338 L-68.658,147.477 L-70.514,144.376 L-72.128,141.054 L-73.485,137.533 L-74.569,133.831 L-75.363,129.971 L-75.851,125.971 L-76.018,121.852 L-75.851,118.556 L-75.363,115.356 L-74.569,112.268 L-73.485,109.307 L-72.128,106.489 L-70.514,103.832 L-68.658,101.351 L-66.578,99.062 L-64.289,96.982 L-61.808,95.127 L-59.151,93.513 L-56.334,92.155 L-53.373,91.072 L-50.284,90.278 L-47.084,89.789 L-43.789,89.623 L-40.494,89.789 L-37.294,90.278 L-34.205,91.072 L-31.244,92.155 L-28.427,93.513 L-25.77,95.127 L-23.288,96.982 L-21,99.062 L-18.92,101.351 L-17.064,103.832 L-15.45,106.489 L-14.093,109.307 L-13.009,112.268 L-12.215,115.356 L-11.727,118.556 L-11.56,121.852 Z" fill="rgba(236,191,18,0.8627450980392157)" stroke="rgba(0,206,255,0.8627450980392157)" stroke-width="0.32228748602792623"/>
<path d="M-43.789,171.806 L-43.789,236.264" fill="rgba(0,0,0,0)" stroke="rgba(128,128,128,1)" stroke-width="1"/>
<path d="M-38.207,171.806 L-49.371,171.806 L-43.789,162.137 Z" fill="rgba(236,191,18,0.8627450980392157)" stroke="rgba(0,206,255,0.8627450980392157)" stroke-width="0.32228748602792623"/>
<path d="M-31.504,96.663 L-23.127,102.918 L-17.625,111.808 L-24.428,114.419 L-34.698,103.212 L-31.504,96.663 Z" fill="rgba(255,255,255,0.11372549019607843)"/>
<path d="M-26.006,100.145 L-22.823,102.522 L-20.732,105.9 L-23.317,106.892 L-27.22,102.634 L-26.006,100.145 Z" fill="rgba(255,255,255,0.6549019607843137)"/>
<path d="M87.239,-40.954 L86.775,-37.151 L86.02,-33.48 L84.989,-29.96 L83.699,-26.612 L82.164,-23.453 L80.4,-20.504 L78.422,-17.784 L76.245,-15.311 L73.886,-13.106 L71.359,-11.187 L68.681,-9.574 L65.865,-8.286 L62.928,-7.342 L59.885,-6.762 L56.752,-6.564 L53.619,-6.762 L50.576,-7.342 L47.639,-8.286 L44.823,-9.574 L42.144,-11.187 L39.618,-13.106 L37.259,-15.311 L35.082,-17.784 L33.104,-20.504 L31.34,-23.453 L29.805,-26.612 L28.515,-29.96 L27.484,-33.48 L26.729,-37.151 L26.265,-40.954 L26.106,-44.871 L26.265,-48.004 L26.729,-51.047 L27.484,-53.984 L28.515,-56.8 L29.805,-59.478 L31.34,-62.005 L33.104,-64.364 L35.082,-66.541 L37.259,-68.519 L39.618,-70.283 L42.144,-71.818 L44.823,-73.108 L47.639,-74.139 L50.576,-74.894 L53.619,-75.358 L56.752,-75.516 L59.885,-75.358 L62.928,-74.894 L65.865,-74.139 L68.681,-73.108 L71.359,-71.818 L73.886,-70.283 L76.245,-68.519 L78.422,-66.541 L80.4,-64.364 L82.164,-62.005 L83.699,-59.478 L84.989,-56.8 L86.02,-53.984 L86.775,-51.047 L87.239,-48.004 L87.398,-44.871 Z" fill="rgba(223,118,146,0.8627450980392157)" stroke="rgba(0,172,158,0.8627450980392157)" stroke-width="0.3064557447563857"/>
<path d="M56.752,2.63 L56.752,63.921" fill="rgba(0,0,0,0)" stroke="rgba(128,128,128,1)" stroke-width="1"/>
<path d="M62.06,2.63 L51.444,2.63 L56.752,-6.564 Z" fill="rgba(223,118,146,0.8627450980392157)" stroke="rgba(0,172,158,0.8627450980392157)" stroke-width="0.3064557447563857"/>
<path d="M68.434,-68.822 L76.399,-62.874 L81.63,-54.421 L75.162,-51.938 L65.397,-62.595 L68.434,-68.822 Z" fill="rgba(255,255,255,0.11372549019607843)"/>
<path d="M73.662,-65.511 L76.688,-63.251 L78.676,-60.039 L76.218,-59.095 L72.507,-63.145 L73.662,-65.511 Z" fill="rgba(255,255,255,0.6549019607843137)"/>
<path d="M88.211,44.791 L87.892,47.402 L87.374,49.922 L86.667,52.338 L85.781,54.637 L84.727,56.805 L83.516,58.829 L82.158,60.696 L80.664,62.394 L79.045,63.907 L77.311,65.224 L75.472,66.332 L73.539,67.216 L71.523,67.864 L69.434,68.262 L67.283,68.398 L65.132,68.262 L63.044,67.864 L61.028,67.216 L59.095,66.332 L57.256,65.224 L55.522,63.907 L53.902,62.394 L52.408,60.696 L51.05,58.829 L49.839,56.805 L48.786,54.637 L47.9,52.338 L47.193,49.922 L46.674,47.402 L46.355,44.791 L46.247,42.103 L46.355,39.952 L46.674,37.863 L47.193,35.847 L47.9,33.914 L48.786,32.075 L49.839,30.341 L51.05,28.721 L52.408,27.227 L53.902,25.87 L55.522,24.659 L57.256,23.605 L59.095,22.719 L61.028,22.012 L63.044,21.493 L65.132,21.175 L67.283,21.066 L69.434,21.175 L71.523,21.493 L73.539,22.012 L75.472,22.719 L77.311,23.605 L79.045,24.659 L80.664,25.87 L82.158,27.227 L83.516,28.721 L84.727,30.341 L85.781,32.075 L86.667,33.914 L87.374,35.847 L87.892,37.863 L88.211,39.952 L88.32,42.103 Z" fill="rgba(104,106,120,0.8627450980392157)" stroke="rgba(107,107,93,0.8627450980392157)" stroke-width="0.21036541541106998"/>
<path d="M67.283,74.709 L67.283,116.782" fill="rgba(0,0,0,0)" stroke="rgba(128,128,128,1)" stroke-width="1"/>
<path d="M70.927,74.709 L63.64,74.709 L67.283,68.398 Z" fill="rgba(104,106,120,0.8627450980392157)" stroke="rgba(107,107,93,0.8627450980392157)" stroke-width="0.21036541541106998"/>
<path d="M75.302,25.661 L80.77,29.744 L84.361,35.547 L79.921,37.251 L73.217,29.936 L75.302,25.661 Z" fill="rgba(255,255,255,0.11372549019607843)"/>
<path d="M78.891,27.934 L80.969,29.486 L82.333,31.691 L80.646,32.338 L78.099,29.558 L78.891,27.934 Z" fill="rgba(255,255,255,0.6549019607843137)"/>
<path d="M-19.692,-84.274 L-20.002,-81.738 L-20.505,-79.289 L-21.193,-76.942 L-22.053,-74.709 L-23.077,-72.602 L-24.254,-70.635 L-25.573,-68.821 L-27.024,-67.172 L-28.598,-65.702 L-30.283,-64.422 L-32.069,-63.346 L-33.947,-62.487 L-35.906,-61.857 L-37.935,-61.47 L-40.025,-61.338 L-42.115,-61.47 L-44.144,-61.857 L-46.103,-62.487 L-47.98,-63.346 L-49.767,-64.422 L-51.452,-65.702 L-53.026,-67.172 L-54.477,-68.821 L-55.796,-70.635 L-56.973,-72.602 L-57.996,-74.709 L-58.857,-76.942 L-59.544,-79.289 L-60.048,-81.738 L-60.358,-84.274 L-60.463,-86.886 L-60.358,-88.976 L-60.048,-91.005 L-59.544,-92.964 L-58.857,-94.842 L-57.996,-96.629 L-56.973,-98.314 L-55.796,-99.887 L-54.477,-101.339 L-53.026,-102.658 L-51.452,-103.834 L-49.767,-104.858 L-47.98,-105.719 L-46.103,-106.406 L-44.144,-106.91 L-42.115,-107.219 L-40.025,-107.325 L-37.935,-107.219 L-35.906,-106.91 L-33.947,-106.406 L-32.069,-105.719 L-30.283,-104.858 L-28.598,-103.834 L-27.024,-102.658 L-25.573,-101.339 L-24.254,-99.887 L-23.077,-98.314 L-22.053,-96.629 L-21.193,-94.842 L-20.505,-92.964 L-20.002,-91.005 L-19.692,-88.976 L-19.586,-86.886 Z" fill="rgba(113,142,169,0.8627450980392157)" stroke="rgba(157,134,108,0.8627450980392157)" stroke-width="0.2043844534549862"/>
<path d="M-40.025,-55.207 L-40.025,-14.33" fill="rgba(0,0,0,0)" stroke="rgba(128,128,128,1)" stroke-width="1"/>
<path d="M-36.485,-55.207 L-43.565,-55.207 L-40.025,-61.338 Z" fill="rgba(113,142,169,0.8627450980392157)" stroke="rgba(157,134,108,0.8627450980392157)" stroke-width="0.2043844534549862"/>
<path d="M-32.234,-102.86 L-26.922,-98.893 L-23.433,-93.256 L-27.747,-91.6 L-34.26,-98.707 L-32.234,-102.86 Z" fill="rgba(255,255,255,0.11372549019607843)"/>
<path d="M-28.747,-100.652 L-26.729,-99.145 L-25.403,-97.002 L-27.042,-96.373 L-29.517,-99.074 L-28.747,-100.652 Z" fill="rgba(255,255,255,0.6549019607843137)"/>
<path d="M19.927,83.781 L19.628,86.229 L19.142,88.592 L18.478,90.857 L17.648,93.012 L16.66,95.045 L15.524,96.943 L14.251,98.694 L12.851,100.285 L11.332,101.705 L9.706,102.94 L7.982,103.978 L6.169,104.807 L4.279,105.414 L2.321,105.788 L0.304,105.915 L-1.713,105.788 L-3.671,105.414 L-5.562,104.807 L-7.374,103.978 L-9.098,102.94 L-10.724,101.705 L-12.243,100.285 L-13.643,98.694 L-14.916,96.943 L-16.052,95.045 L-17.04,93.012 L-17.871,90.857 L-18.534,88.592 L-19.02,86.229 L-19.319,83.781 L-19.421,81.26 L-19.319,79.243 L-19.02,77.285 L-18.534,75.394 L-17.871,73.582 L-17.04,71.858 L-16.052,70.232 L-14.916,68.713 L-13.643,67.312 L-12.243,66.039 L-10.724,64.904 L-9.098,63.916 L-7.374,63.085 L-5.562,62.422 L-3.671,61.936 L-1.713,61.637 L0.304,61.535 L2.321,61.637 L4.279,61.936 L6.169,62.422 L7.982,63.085 L9.706,63.916 L11.332,64.904 L12.851,66.039 L14.251,67.312 L15.524,68.713 L16.66,70.232 L17.648,71.858 L18.478,73.582 L19.142,75.394 L19.628,77.285 L19.927,79.243 L20.028,81.26 Z" fill="rgba(92,192,220,0.8627450980392157)" stroke="rgba(230,161,137,0.8627450980392157)" stroke-width="0.19724492249079048"/>
<path d="M0.304,111.833 L0.304,151.282" fill="rgba(0,0,0,0)" stroke="rgba(128,128,128,1)" stroke-width="1"/>
<path d="M3.72,111.833 L-3.112,111.833 L0.304,105.915 Z" fill="rgba(92,192,220,0.8627450980392157)" stroke="rgba(230,161,137,0.8627450980392157)" stroke-width="0.19724492249079048"/>
<path d="M7.823,65.844 L12.949,69.672 L16.316,75.113 L12.153,76.711 L5.868,69.852 L7.823,65.844 Z" fill="rgba(255,255,255,0.11372549019607843)"/>
<path d="M11.188,67.975 L13.136,69.43 L14.415,71.497 L12.833,72.105 L10.445,69.498 L11.188,67.975 Z" fill="rgba(255,255,255,0.6549019607843137)"/>
<path d="M-100,-94.75 L-95.96,-94.75 L-95.96,-93.25 L-100,-93.25 Z" fill="rgba(64,64,64,1)"/>
<path d="M-93.876,-94.75 L-89.836,-94.75 L-89.836,-93.25 L-93.876,-93.25 Z" fill="rgba(64,64,64,1)"/>
<path d="M-87.753,-94.75 L-83.712,-94.75 L-83.712,-93.25 L-87.753,-93.25 Z" fill="rgba(64,64,64,1)"/>
<path d="M-81.629,-94.75 L-77.588,-94.75 L-77.588,-93.25 L-81.629,-93.25 Z" fill="rgba(64,64,64,1)"/>
<path d="M-75.505,-94.75 L-71.465,-94.75 L-71.465,-93.25 L-75.505,-93.25 Z" fill="rgba(64,64,64,1)"/>
<path d="M-69.381,-94.75 L-65.341,-94.75 L-65.341,-93.25 L-69.381,-93.25 Z" fill="rgba(64,64,64,1)"/>
<path d="M-63.258,-94.75 L-59.217,-94.75 L-59.217,-93.25 L-63.258,-93.25 Z" fill="rgba(64,64,64,1)"/>
<path d="M-57.134,-94.75 L-53.093,-94.75 L-53.093,-93.25 L-57.134,-93.25 Z" fill="rgba(64,64,64,1)"/>
<path d="M-51.01,-94.75 L-46.97,-94.75 L-46.97,-93.25 L-51.01,-93.25 Z" fill="rgba(64,64,64,1)"/>
<path d="M-44.886,-94.75 L-40.846,-94.75 L-40.846,-93.25 L-44.886,-93.25 Z" fill="rgba(64,64,64,1)"/>
<path d="M-38.763,-94.75 L-34.722,-94.75 L-34.722,-93.25 L-38.763,-93.25 Z" fill="rgba(64,64,64,1)"/>
<path d="M-32.639,-94.75 L-28.598,-94.75 L-28.598,-93.25 L-32.639,-93.25 Z" fill="rgba(64,64,64,1)"/>
<path d="M-26.515,-94.75 L-22.475,-94.75 L-22.475,-93.25 L-26.515,-93.25 Z" fill="rgba(64,64,64,1)"/>
<path d="M-20.391,-94.75 L-16.351,-94.75 L-16.351,-93.25 L-20.391,-93.25 Z" fill="rgba(64,64,64,1)"/>
<path d="M-14.268,-94.75 L-10.227,-94.75 L-10.227,-93.25 L-14.268,-93.25 Z" fill="rgba(64,64,64,1)"/>
<path d="M-8.144,-94.75 L-4.104,-94.75 L-4.104,-93.25 L-8.144,-93.25 Z" fill="rgba(64,64,64,1)"/>
<path d="M-2.02,-94.75 L2.02,-94.75 L2.02,-93.25 L-2.02,-93.25 Z" fill="rgba(64,64,64,1)"/>
<path d="M4.104,-94.75 L8.144,-94.75 L8.144,-93.25 L4.104,-93.25 Z" fill="rgba(64,64,64,1)"/>
<path d="M10.227,-94.75 L14.268,-94.75 L14.268,-93.25 L10.227,-93.25 Z" fill="rgba(64,64,64,1)"/>
<path d="M16.351,-94.75 L20.391,-94.75 L20.391,-93.25 L16.351,-93.25 Z" fill="rgba(64,64,64,1)"/>
<path d="M22.475,-94.75 L26.515,-94.75 L26.515,-93.25 L22.475,-93.25 Z" fill="rgba(64,64,64,1)"/>
<path d="M28.598,-94.75 L32.639,-94.75 L32.639,-93.25 L28.598,-93.25 Z" fill="rgba(64,64,64,1)"/>
<path d="M34.722,-94.75 L38.763,-94.75 L38.763,-93.25 L34.722,-93.25 Z" fill="rgba(64,64,64,1)"/>
<path d="M40.846,-94.75 L44.886,-94.75 L44.886,-93.25 L40.846,-93.25 Z" fill="rgba(64,64,64,1)"/>
<path d="M46.97,-94.75 L51.01,-94.75 L51.01,-93.25 L46.97,-93.25 Z" fill="rgba(64,64,64,1)"/>
<path d="M53.093,-94.75 L57.134,-94.75 L57.134,-93.25 L53.093,-93.25 Z" fill="rgba(64,64,64,1)"/>
<path d="M59.217,-94.75 L63.258,-94.75 L63.258,-93.25 L59.217,-93.25 Z" fill="rgba(64,64,64,1)"/>
<path d="M65.341,-94.75 L69.381,-94.75 L69.381,-93.25 L65.341,-93.25 Z" fill="rgba(64,64,64,1)"/>
<path d="M71.465,-94.75 L75.505,-94.75 L75.505,-93.25 L71.465,-93.25 Z" fill="rgba(64,64,64,1)"/>
<path d="M77.588,-94.75 L81.629,-94.75 L81.629,-93.25 L77.588,-93.25 Z" fill="rgba(64,64,64,1)"/>
<path d="M83.712,-94.75 L87.753,-94.75 L87.753,-93.25 L83.712,-93.25 Z" fill="rgba(64,64,64,1)"/>
<path d="M89.836,-94.75 L93.876,-94.75 L93.876,-93.25 L89.836,-93.25 Z" fill="rgba(64,64,64,1)"/>
<path d="M95.96,-94.75 L100,-94.75 L100,-93.25 L95.96,-93.25 Z" fill="rgba(64,64,64,1)"/>
<path d="M100.75,-94 L100.75,-89.967 L99.25,-89.967 L99.25,-94 Z" fill="rgba(64,64,64,1)"/>
<path d="M100.75,-87.901 L100.75,-83.868 L99.25,-83.868 L99.25,-87.901 Z" fill="rgba(64,64,64,1)"/>
<path d="M100.75,-81.802 L100.75,-77.769 L99.25,-77.769 L99.25,-81.802 Z" fill="rgba(64,64,64,1)"/>
<path d="M100.75,-75.702 L100.75,-71.67 L99.25,-71.67 L99.25,-75.702 Z" fill="rgba(64,64,64,1)"/>
<path d="M100.75,-69.603 L100.75,-65.571 L99.25,-65.571 L99.25,-69.603 Z" fill="rgba(64,64,64,1)"/>
<path d="M100.75,-63.504 L100.75,-59.472 L99.25,-59.472 L99.25,-63.504 Z" fill="rgba(64,64,64,1)"/>
<path d="M100.75,-57.405 L100.75,-53.372 L99.25,-53.372 L99.25,-57.405 Z" fill="rgba(64,64,64,1)"/>
<path d="M100.75,-51.306 L100.75,-47.273 L99.25,-47.273 L99.25,-51.306 Z" fill="rgba(64,64,64,1)"/>
<path d="M100.75,-45.207 L100.75,-41.174 L99.25,-41.174 L99.25,-45.207 Z" fill="rgba(64,64,64,1)"/>
<path d="M100.75,-39.107 L100.75,-35.075 L99.25,-35.075 L99.25,-39.107 Z" fill="rgba(64,64,64,1)"/>
<path d="M100.75,-33.008 L100.75,-28.976 L99.25,-28.976 L99.25,-33.008 Z" fill="rgba(64,64,64,1)"/>
<path d="M100.75,-26.909 L100.75,-22.876 L99.25,-22.876 L99.25,-26.909 Z" fill="rgba(64,64,64,1)"/>
<path d="M100.75,-20.81 L100.75,-16.777 L99.25,-16.777 L99.25,-20.81 Z" fill="rgba(64,64,64,1)"/>
<path d="M100.75,-14.711 L100.75,-10.678 L99.25,-10.678 L99.25,-14.711 Z" fill="rgba(64,64,64,1)"/>
<path d="M100.75,-8.611 L100.75,-4.579 L99.25,-4.579 L99.25,-8.611 Z" fill="rgba(64,64,64,1)"/>
<path d="M100.75,-2.512 L100.75,1.52 L99.25,1.52 L99.25,-2.512 Z" fill="rgba(64,64,64,1)"/>
<path d="M100.75,3.587 L100.75,7.62 L99.25,7.62 L99.25,3.587 Z" fill="rgba(64,64,64,1)"/>
<path d="M100.75,9.686 L100.75,13.719 L99.25,13.719 L99.25,9.686 Z" fill="rgba(64,64,64,1)"/>
<path d="M100.75,15.785 L100.75,19.818 L99.25,19.818 L99.25,15.785 Z" fill="rgba(64,64,64,1)"/>
<path d="M100.75,21.885 L100.75,25.917 L99.25,25.917 L99.25,21.885 Z" fill="rgba(64,64,64,1)"/>
<path d="M100.75,27.984 L100.75,32.016 L99.25,32.016 L99.25,27.984 Z" fill="rgba(64,64,64,1)"/>
<path d="M100.75,34.083 L100.75,38.115 L99.25,38.115 L99.25,34.083 Z" fill="rgba(64,64,64,1)"/>
<path d="M100.75,40.182 L100.75,44.215 L99.25,44.215 L99.25,40.182 Z" fill="rgba(64,64,64,1)"/>
<path d="M100.75,46.281 L100.75,50.314 L99.25,50.314 L99.25,46.281 Z" fill="rgba(64,64,64,1)"/>
<path d="M100.75,52.38 L100.75,56.413 L99.25,56.413 L99.25,52.38 Z" fill="rgba(64,64,64,1)"/>
<path d="M100.75,58.48 L100.75,62.512 L99.25,62.512 L99.25,58.48 Z" fill="rgba(64,64,64,1)"/>
<path d="M100.75,64.579 L100.75,68.611 L99.25,68.611 L99.25,64.579 Z" fill="rgba(64,64,64,1)"/>
<path d="M100.75,70.678 L100.75,74.711 L99.25,74.711 L99.25,70.678 Z" fill="rgba(64,64,64,1)"/>
<path d="M100.75,76.777 L100.75,80.81 L99.25,80.81 L99.25,76.777 Z" fill="rgba(64,64,64,1)"/>
<path d="M100.75,82.876 L100.75,86.909 L99.25,86.909 L99.25,82.876 Z" fill="rgba(64,64,64,1)"/>
<path d="M100.75,88.976 L100.75,93.008 L99.25,93.008 L99.25,88.976 Z" fill="rgba(64,64,64,1)"/>
<path d="M100.75,95.075 L100.75,99.107 L99.25,99.107 L99.25,95.075 Z" fill="rgba(64,64,64,1)"/>
<path d="M100.75,101.174 L100.75,105.207 L99.25,105.207 L99.25,101.174 Z" fill="rgba(64,64,64,1)"/>
<path d="M100.75,107.273 L100.75,111.306 L99.25,111.306 L99.25,107.273 Z" fill="rgba(64,64,64,1)"/>
<path d="M100.75,113.372 L100.75,117.405 L99.25,117.405 L99.25,113.372 Z" fill="rgba(64,64,64,1)"/>
<path d="M100.75,119.472 L100.75,123.504 L99.25,123.504 L99.25,119.472 Z" fill="rgba(64,64,64,1)"/>
<path d="M100.75,125.571 L100.75,129.603 L99.25,129.603 L99.25,125.571 Z" fill="rgba(64,64,64,1)"/>
<path d="M100.75,131.67 L100.75,135.702 L99.25,135.702 L99.25,131.67 Z" fill="rgba(64,64,64,1)"/>
<path d="M100.75,137.769 L100.75,141.802 L99.25,141.802 L99.25,137.769 Z" fill="rgba(64,64,64,1)"/>
<path d="M100.75,143.868 L100.75,147.901 L99.25,147.901 L99.25,143.868 Z" fill="rgba(64,64,64,1)"/>
<path d="M100.75,149.967 L100.75,154 L99.25,154 L99.25,149.967 Z" fill="rgba(64,64,64,1)"/>
<path d="M100,154.75 L95.96,154.75 L95.96,153.25 L100,153.25 Z" fill="rgba(64,64,64,1)"/>
<path d="M93.876,154.75 L89.836,154.75 L89.836,153.25 L93.876,153.25 Z" fill="rgba(64,64,64,1)"/>
<path d="M87.753,154.75 L83.712,154.75 L83.712,153.25 L87.753,153.25 Z" fill="rgba(64,64,64,1)"/>
<path d="M81.629,154.75 L77.588,154.75 L77.588,153.25 L81.629,153.25 Z" fill="rgba(64,64,64,1)"/>
<path d="M75.505,154.75 L71.465,154.75 L71.465,153.25 L75.505,153.25 Z" fill="rgba(64,64,64,1)"/>
<path d="M69.381,154.75 L65.341,154.75 L65.341,153.25 L69.381,153.25 Z" fill="rgba(64,64,64,1)"/>
<path d="M63.258,154.75 L59.217,154.75 L59.217,153.25 L63.258,153.25 Z" fill="rgba(64,64,64,1)"/>
<path d="M57.134,154.75 L53.093,154.75 L53.093,153.25 L57.134,153.25 Z" fill="rgba(64,64,64,1)"/>
<path d="M51.01,154.75 L46.97,154.75 L46.97,153.25 L51.01,153.25 Z" fill="rgba(64,64,64,1)"/>
<path d="M44.886,154.75 L40.846,154.75 L40.846,153.25 L44.886,153.25 Z" fill="rgba(64,64,64,1)"/>
<path d="M38.763,154.75 L34.722,154.75 L34.722,153.25 L38.763,153.25 Z" fill="rgba(64,64,64,1)"/>
<path d="M32.639,154.75 L28.598,154.75 L28.598,153.25 L32.639,153.25 Z" fill="rgba(64,64,64,1)"/>
<path d="M26.515,154.75 L22.475,154.75 L22.475,153.25 L26.515,153.25 Z" fill="rgba(64,64,64,1)"/>
<path d="M20.391,154.75 L16.351,154.75 L16.351,153.25 L20.391,153.25 Z" fill="rgba(64,64,64,1)"/>
<path d="M14.268,154.75 L10.227,154.75 L10.227,153.25 L14.268,153.25 Z" fill="rgba(64,64,64,1)"/>
<path d="M8.144,154.75 L4.104,154.75 L4.104,153.25 L8.144,153.25 Z" fill="rgba(64,64,64,1)"/>
<path d="M2.02,154.75 L-2.02,154.75 L-2.02,153.25 L2.02,153.25 Z" fill="rgba(64,64,64,1)"/>
<path d="M-4.104,154.75 L-8.144,154.75 L-8.144,153.25 L-4.104,153.25 Z" fill="rgba(64,64,64,1)"/>
<path d="M-10.227,154.75 L-14.268,154.75 L-14.268,153.25 L-10.227,153.25 Z" fill="rgba(64,64,64,1)"/>
<path d="M-16.351,154.75 L-20.391,154.75 L-20.391,153.25 L-16.351,153.25 Z" fill="rgba(64,64,64,1)"/>
<path d="M-22.475,154.75 L-26.515,154.75 L-26.515,153.25 L-22.475,153.25 Z" fill="rgba(64,64,64,1)"/>
<path d="M-28.598,154.75 L-32.639,154.75 L-32.639,153.25 L-28.598,153.25 Z" fill="rgba(64,64,64,1)"/>
<path d="M-34.722,154.75 L-38.763,154.75 L-38.763,153.25 L-34.722,153.25 Z" fill="rgba(64,64,64,1)"/>
<path d="M-40.846,154.75 L-44.886,154.75 L-44.886,153.25 L-40.846,153.25 Z" fill="rgba(64,64,64,1)"/>
<path d="M-46.97,154.75 L-51.01,154.75 L-51.01,153.25 L-46.97,153.25 Z" fill="rgba(64,64,64,1)"/>
<path d="M-53.093,154.75 L-57.134,154.75 L-57.134,153.25 L-53.093,153.25 Z" fill="rgba(64,64,64,1)"/>
<path d="M-59.217,154.75 L-63.258,154.75 L-63.258,153.25 L-59.217,153.25 Z" fill="rgba(64,64,64,1)"/>
<path d="M-65.341,154.75 L-69.381,154.75 L-69.381,153.25 L-65.341,153.25 Z" fill="rgba(64,64,64,1)"/>
<path d="M-71.465,154.75 L-75.505,154.75 L-75.505,153.25 L-71.465,153.25 Z" fill="rgba(64,64,64,1)"/>
<path d="M-77.588,154.75 L-81.629,154.75 L-81.629,153.25 L-77.588,153.25 Z" fill="rgba(64,64,64,1)"/>
<path d="M-83.712,154.75 L-87.753,154.75 L-87.753,153.25 L-83.712,153.25 Z" fill="rgba(64,64,64,1)"/>
<path d="M-89.836,154.75 L-93.876,154.75 L-93.876,153.25 L-89.836,153.25 Z" fill="rgba(64,64,64,1)"/>
<path d="M-95.96,154.75 L-100,154.75 L-100,153.25 L-95.96,153.25 Z" fill="rgba(64,64,64,1)"/>
<path d="M-100.75,154 L-100.75,149.967 L-99.25,149.967 L-99.25,154 Z" fill="rgba(64,64,64,1)"/>
<path d="M-100.75,147.901 L-100.75,143.868 L-99.25,143.868 L-99.25,147.901 Z" fill="rgba(64,64,64,1)"/>
<path d="M-100.75,141.802 L-100.75,137.769 L-99.25,137.769 L-99.25,141.802 Z" fill="rgba(64,64,64,1)"/>
<path d="M-100.75,135.702 L-100.75,131.67 L-99.25,131.67 L-99.25,135.702 Z" fill="rgba(64,64,64,1)"/>
<path d="M-100.75,129.603 L-100.75,125.571 L-99.25,125.571 L-99.25,129.603 Z" fill="rgba(64,64,64,1)"/>
<path d="M-100.75,123.504 L-100.75,119.472 L-99.25,119.472 L-99.25,123.504 Z" fill="rgba(64,64,64,1)"/>
<path d="M-100.75,117.405 L-100.75,113.372 L-99.25,113.372 L-99.25,117.405 Z" fill="rgba(64,64,64,1)"/>
<path d="M-100.75,111.306 L-100.75,107.273 L-99.25,107.273 L-99.25,111.306 Z" fill="rgba(64,64,64,1)"/>
<path d="M-100.75,105.207 L-100.75,101.174 L-99.25,101.174 L-99.25,105.207 Z" fill="rgba(64,64,64,1)"/>
<path d="M-100.75,99.107 L-100.75,95.075 L-99.25,95.075 L-99.25,99.107 Z" fill="rgba(64,64,64,1)"/>
<path d="M-100.75,93.008 L-100.75,88.976 L-99.25,88.976 L-99.25,93.008 Z" fill="rgba(64,64,64,1)"/>
<path d="M-100.75,86.909 L-100.75,82.876 L-99.25,82.876 L-99.25,86.909 Z" fill="rgba(64,64,64,1)"/>
<path d="M-100.75,80.81 L-100.75,76.777 L-99.25,76.777 L-99.25,80.81 Z" fill="rgba(64,64,64,1)"/>
<path d="M-100.75,74.711 L-100.75,70.678 L-99.25,70.678 L-99.25,74.711 Z" fill="rgba(64,64,64,1)"/>
<path d="M-100.75,68.611 L-100.75,64.579 L-99.25,64.579 L-99.25,68.611 Z" fill="rgba(64,64,64,1)"/>
<path d="M-100.75,62.512 L-100.75,58.48 L-99.25,58.48 L-99.25,62.512 Z" fill="rgba(64,64,64,1)"/>
<path d="M-100.75,56.413 L-100.75,52.38 L-99.25,52.38 L-99.25,56.413 Z" fill="rgba(64,64,64,1)"/>
<path d="M-100.75,50.314 L-100.75,46.281 L-99.25,46.281 L-99.25,50.314 Z" fill="rgba(64,64,64,1)"/>
<path d="M-100.75,44.215 L-100.75,40.182 L-99.25,40.182 L-99.25,44.215 Z" fill="rgba(64,64,64,1)"/>
<path d="M-100.75,38.115 L-100.75,34.083 L-99.25,34.083 L-99.25,38.115 Z" fill="rgba(64,64,64,1)"/>
<path d="M-100.75,32.016 L-100.75,27.984 L-99.25,27.984 L-99.25,32.016 Z" fill="rgba(64,64,64,1)"/>
<path d="M-100.75,25.917 L-100.75,21.885 L-99.25,21.885 L-99.25,25.917 Z" fill="rgba(64,64,64,1)"/>
<path d="M-100.75,19.818 L-100.75,15.785 L-99.25,15.785 L-99.25,19.818 Z" fill="rgba(64,64,64,1)"/>
<path d="M-100.75,13.719 L-100.75,9.686 L-99.25,9.686 L-99.25,13.719 Z" fill="rgba(64,64,64,1)"/>
<path d="M-100.75,7.62 L-100.75,3.587 L-99.25,3.587 L-99.25,7.62 Z" fill="rgba(64,64,64,1)"/>
<path d="M-100.75,1.52 L-100.75,-2.512 L-99.25,-2.512 L-99.25,1.52 Z" fill="rgba(64,64,64,1)"/>
<path d="M-100.75,-4.579 L-100.75,-8.611 L-99.25,-8.611 L-99.25,-4.579 Z" fill="rgba(64,64,64,1)"/>
<path d="M-100.75,-10.678 L-100.75,-14.711 L-99.25,-14.711 L-99.25,-10.678 Z" fill="rgba(64,64,64,1)"/>
<path d="M-100.75,-16.777 L-100.75,-20.81 L-99.25,-20.81 L-99.25,-16.777 Z" fill="rgba(64,64,64,1)"/>
<path d="M-100.75,-22.876 L-100.75,-26.909 L-99.25,-26.909 L-99.25,-22.876 Z" fill="rgba(64,64,64,1)"/>
<path d="M-100.75,-28.976 L-100.75,-33.008 L-99.25,-33.008 L-99.25,-28.976 Z" fill="rgba(64,64,64,1)"/>
<path d="M-100.75,-35.075 L-100.75,-39.107 L-99.25,-39.107 L-99.25,-35.075 Z" fill="rgba(64,64,64,1)"/>
<path d="M-100.75,-41.174 L-100.75,-45.207 L-99.25,-45.207 L-99.25,-41.174 Z" fill="rgba(64,64,64,1)"/>
<path d="M-100.75,-47.273 L-100.75,-51.306 L-99.25,-51.306 L-99.25,-47.273 Z" fill="rgba(64,64,64,1)"/>
<path d="M-100.75,-53.372 L-100.75,-57.405 L-99.25,-57.405 L-99.25,-53.372 Z" fill="rgba(64,64,64,1)"/>
<path d="M-100.75,-59.472 L-100.75,-63.504 L-99.25,-63.504 L-99.25,-59.472 Z" fill="rgba(64,64,64,1)"/>
<path d="M-100.75,-65.571 L-100.75,-69.603 L-99.25,-69.603 L-99.25,-65.571 Z" fill="rgba(64,64,64,1)"/>
<path d="M-100.75,-71.67 L-100.75,-75.702 L-99.25,-75.702 L-99.25,-71.67 Z" fill="rgba(64,64,64,1)"/>
<path d="M-100.75,-77.769 L-100.75,-81.802 L-99.25,-81.802 L-99.25,-77.769 Z" fill="rgba(64,64,64,1)"/>
<path d="M-100.75,-83.868 L-100.75,-87.901 L-99.25,-87.901 L-99.25,-83.868 Z" fill="rgba(64,64,64,1)"/>
<path d="M-100.75,-89.967 L-100.75,-94 L-99.25,-94 L-99.25,-89.967 Z" fill="rgba(64,64,64,1)"/>
</svg>