<svg xmlns="http://www.w3.org/2000/svg" viewBox="-219.38 -159.38 420.47 420.47">
<path d="M143.28,-11.658 L142.375,-23.753 L140.273,-35.8 L136.951,-47.715 L132.386,-59.41 L126.554,-70.801 L119.605,-81.547 L111.759,-91.348 L103.102,-100.183 L93.72,-108.027 L83.698,-114.858 L73.122,-120.653 L62.079,-125.388 L50.654,-129.042 L38.932,-131.59 L27.001,-133.011 L14.945,-133.28 L2.85,-132.375 L-9.198,-130.273 L-21.112,-126.951 L-32.808,-122.386 L-44.199,-116.554 L-54.944,-109.605 L-64.746,-101.759 L-73.58,-93.102 L-81.424,-83.72 L-88.255,-73.698 L-94.05,-63.122 L-98.786,-52.079 L-102.007,-42.007 L-100.654,-42.439 L-88.932,-44.988 L-77.001,-46.408 L-64.945,-46.678 L-52.85,-45.773 L-40.802,-43.671 L-28.888,-40.349 L-17.192,-35.783 L-5.801,-29.952 L4.944,-23.003 L14.746,-15.157 L19.017,-10.971 L24.808,-12.46 L37.219,-14.355 L50,-15 L62.781,-14.355 L75.192,-12.46 L87.171,-9.38 L98.656,-5.177 L109.582,0.087 L119.889,6.348 L129.512,13.544 L138.388,21.612 L139.344,22.663 L141.59,12.33 L143.011,0.398 Z" fill="rgba(236,238,248,1)" stroke="rgba(0,0,0,1)" stroke-width="2"/>
<path d="M-37.337,199.344 L-38.388,198.388 L-46.456,189.512 L-53.652,179.889 L-59.913,169.582 L-65.177,158.656 L-69.38,147.171 L-72.46,135.192 L-74.355,122.781 L-75,110 L-74.355,97.219 L-72.46,84.808 L-70.971,79.017 L-75.157,74.746 L-83.003,64.944 L-89.952,54.199 L-95.783,42.808 L-100.349,31.112 L-103.671,19.198 L-105.773,7.15 L-106.678,-4.945 L-106.408,-17.001 L-104.988,-28.932 L-102.439,-40.654 L-102.007,-42.007 L-112.079,-38.786 L-123.122,-34.05 L-133.698,-28.255 L-143.72,-21.424 L-153.102,-13.58 L-161.759,-4.746 L-169.605,5.056 L-176.554,15.801 L-182.386,27.192 L-186.951,38.888 L-190.273,50.802 L-192.375,62.85 L-193.28,74.945 L-193.011,87.001 L-191.59,98.932 L-189.042,110.654 L-185.388,122.079 L-180.653,133.122 L-174.858,143.698 L-168.027,153.72 L-160.183,163.102 L-151.348,171.759 L-141.547,179.605 L-130.801,186.554 L-119.41,192.386 L-107.715,196.951 L-95.8,200.273 L-83.753,202.375 L-71.658,203.28 L-59.602,203.011 L-47.67,201.59 Z" fill="rgba(127,214,255,1)" stroke="rgba(0,0,0,1)" stroke-width="2"/>
<path d="M12.829,-9.38 L1.344,-5.177 L-9.582,0.087 L-19.889,6.348 L-29.512,13.544 L-38.388,21.612 L-46.456,30.488 L-53.652,40.111 L-59.913,50.418 L-65.177,61.344 L-69.38,72.829 L-70.971,79.017 L-75.157,74.746 L-83.003,64.944 L-89.952,54.199 L-95.783,42.808 L-100.349,31.112 L-103.671,19.198 L-105.773,7.15 L-106.678,-4.945 L-106.408,-17.001 L-104.988,-28.932 L-102.439,-40.654 L-102.007,-42.007 L-100.654,-42.439 L-88.932,-44.988 L-77.001,-46.408 L-64.945,-46.678 L-52.85,-45.773 L-40.802,-43.671 L-28.888,-40.349 L-17.192,-35.783 L-5.801,-29.952 L4.944,-23.003 L14.746,-15.157 L19.017,-10.971 Z" fill="rgba(118,204,248,1)" stroke="rgba(0,0,0,1)" stroke-width="2"/>
<path d="M174.355,122.781 L172.46,135.192 L169.38,147.171 L165.177,158.656 L159.913,169.582 L153.652,179.889 L146.456,189.512 L138.388,198.388 L129.512,206.456 L119.889,213.652 L109.582,219.913 L98.656,225.177 L87.171,229.38 L75.192,232.46 L62.781,234.355 L50,235 L37.219,234.355 L24.808,232.46 L12.829,229.38 L1.344,225.177 L-9.582,219.913 L-19.889,213.652 L-29.512,206.456 L-37.337,199.344 L-35.949,199.042 L-24.524,195.388 L-13.48,190.653 L-2.905,184.858 L7.117,178.027 L16.499,170.183 L25.157,161.348 L33.003,151.547 L39.952,140.801 L45.783,129.41 L50.349,117.715 L51.955,111.955 L57.715,110.349 L69.41,105.783 L80.801,99.952 L91.547,93.003 L101.348,85.157 L110.183,76.499 L118.027,67.117 L124.858,57.095 L130.653,46.52 L135.388,35.476 L139.042,24.051 L139.344,22.663 L146.456,30.488 L153.652,40.111 L159.913,50.418 L165.177,61.344 L169.38,72.829 L172.46,84.808 L174.355,97.219 L175,110 Z" fill="rgba(233,209,206,1)" stroke="rgba(0,0,0,1)" stroke-width="2"/>
<path d="M139.344,22.663 L138.388,21.612 L129.512,13.544 L119.889,6.348 L109.582,0.087 L98.656,-5.177 L87.171,-9.38 L75.192,-12.46 L62.781,-14.355 L50,-15 L37.219,-14.355 L24.808,-12.46 L19.017,-10.971 L23.58,-6.499 L31.424,2.883 L38.255,12.905 L44.05,23.48 L48.786,34.524 L52.439,45.949 L54.988,57.67 L56.408,69.602 L56.678,81.658 L55.773,93.753 L53.671,105.8 L51.955,111.955 L57.715,110.349 L69.41,105.783 L80.801,99.952 L91.547,93.003 L101.348,85.157 L110.183,76.499 L118.027,67.117 L124.858,57.095 L130.653,46.52 L135.388,35.476 L139.042,24.051 Z" fill="rgba(222,200,211,1)" stroke="rgba(0,0,0,1)" stroke-width="2"/>
<path d="M50.349,117.715 L45.783,129.41 L39.952,140.801 L33.003,151.547 L25.157,161.348 L16.499,170.183 L7.117,178.027 L-2.905,184.858 L-13.48,190.653 L-24.524,195.388 L-35.949,199.042 L-37.337,199.344 L-38.388,198.388 L-46.456,189.512 L-53.652,179.889 L-59.913,169.582 L-65.177,158.656 L-69.38,147.171 L-72.46,135.192 L-74.355,122.781 L-75,110 L-74.355,97.219 L-72.46,84.808 L-70.971,79.017 L-66.499,83.58 L-57.117,91.424 L-47.095,98.255 L-36.52,104.05 L-25.476,108.786 L-14.051,112.439 L-2.33,114.988 L9.602,116.408 L21.658,116.678 L33.753,115.773 L45.8,113.671 L51.955,111.955 Z" fill="rgba(117,147,206,1)" stroke="rgba(0,0,0,1)" stroke-width="2"/>
<path d="M55.773,93.753 L53.671,105.8 L51.955,111.955 L45.8,113.671 L33.753,115.773 L21.658,116.678 L9.602,116.408 L-2.33,114.988 L-14.051,112.439 L-25.476,108.786 L-36.52,104.05 L-47.095,98.255 L-57.117,91.424 L-66.499,83.58 L-70.971,79.017 L-69.38,72.829 L-65.177,61.344 L-59.913,50.418 L-53.652,40.111 L-46.456,30.488 L-38.388,21.612 L-29.512,13.544 L-19.889,6.348 L-9.582,0.087 L1.344,-5.177 L12.829,-9.38 L19.017,-10.971 L23.58,-6.499 L31.424,2.883 L38.255,12.905 L44.05,23.48 L48.786,34.524 L52.439,45.949 L54.988,57.67 L56.408,69.602 L56.678,81.658 Z" fill="rgba(108,139,200,1)" stroke="rgba(0,0,0,1)" stroke-width="2"/>
</svg>