<svg xmlns="http://www.w3.org/2000/svg" viewBox="-86.28 -119.68 172.55 337.36">
<path d="M64.298,-25.145 L63.318,-17.123 L61.726,-9.381 L59.552,-1.958 L56.831,5.104 L53.593,11.765 L49.873,17.985 L45.701,23.722 L41.111,28.936 L36.136,33.587 L30.807,37.633 L25.157,41.035 L19.219,43.752 L13.025,45.743 L6.608,46.967 L0,47.384 L-6.608,46.967 L-13.025,45.743 L-19.219,43.752 L-25.157,41.035 L-30.807,37.633 L-36.136,33.587 L-41.111,28.936 L-45.701,23.722 L-49.873,17.985 L-53.593,11.765 L-56.831,5.104 L-59.552,-1.958 L-61.726,-9.381 L-63.318,-17.123 L-64.298,-25.145 L-64.631,-33.405 L-64.298,-40.013 L-63.318,-46.43 L-61.726,-52.624 L-59.552,-58.562 L-56.831,-64.212 L-53.593,-69.541 L-49.873,-74.516 L-45.701,-79.106 L-41.111,-83.277 L-36.136,-86.998 L-30.807,-90.235 L-25.157,-92.957 L-19.219,-95.13 L-13.025,-96.723 L-6.608,-97.702 L0,-98.036 L6.608,-97.702 L13.025,-96.723 L19.219,-95.13 L25.157,-92.957 L30.807,-90.235 L36.136,-86.998 L41.111,-83.277 L45.701,-79.106 L49.873,-74.516 L53.593,-69.541 L56.831,-64.212 L59.552,-58.562 L61.726,-52.624 L63.318,-46.43 L64.298,-40.013 L64.631,-33.405 Z" fill="rgba(54,203,215,1)" stroke="rgba(253,157,153,1)" stroke-width="0.6463123426423408"/>
<path d="M0,66.774 L0,196.036" fill="rgba(0,0,0,0)" stroke="rgba(128,128,128,1)" stroke-width="1"/>
<path d="M11.194,66.774 L-11.194,66.774 L0,47.384 Z" fill="rgba(54,203,215,1)" stroke="rgba(253,157,153,1)" stroke-width="0.6463123426423408"/>
<path d="M24.637,-83.918 L41.436,-71.374 L52.468,-53.545 L38.826,-48.309 L18.231,-70.785 L24.637,-83.918 Z" fill="rgba(255,255,255,0.11372549019607843)"/>
<path d="M35.662,-76.935 L42.046,-72.168 L46.238,-65.394 L41.054,-63.404 L33.228,-71.944 L35.662,-76.935 Z" fill="rgba(255,255,255,0.6549019607843137)"/>
<path d="M-64.631,-98.036 L64.631,-98.036 L64.631,47.384 L-64.631,47.384 Z" fill="rgba(0,0,0,0)" stroke="rgba(255,0,0,1)" stroke-width="2"/>
<path d="M0,66.774 L0,66.774 L0,196.036 L0,196.036 Z" fill="rgba(0,0,0,0)" stroke="rgba(255,0,0,1)" stroke-width="2"/>
<path d="M-11.194,47.384 L11.194,47.384 L11.194,66.774 L-11.194,66.774 Z" fill="rgba(0,0,0,0)" stroke="rgba(255,0,0,1)" stroke-width="2"/>
<path d="M18.231,-83.918 L52.468,-83.918 L52.468,-48.309 L18.231,-48.309 Z" fill="rgba(0,0,0,0)" stroke="rgba(255,0,0,1)" stroke-width="2"/>
<path d="M33.228,-76.935 L46.238,-76.935 L46.238,-63.404 L33.228,-63.404 Z" fill="rgba(0,0,0,0)" stroke="rgba(255,0,0,1)" stroke-width="2"/>
</svg>