<svg xmlns="http://www.w3.org/2000/svg" viewBox="-284 -60 568 280">
<path d="M-224.5,106 L-223.5,102.51 L-222.5,99.024 L-221.5,95.547 L-220.5,92.083 L-219.5,88.635 L-218.5,85.209 L-217.5,81.808 L-216.5,78.436 L-215.5,75.098 L-214.5,71.798 L-213.5,68.539 L-212.5,65.326 L-211.5,62.163 L-210.5,59.053 L-209.5,56 L-208.5,53.008 L-207.5,50.081 L-206.5,47.221 L-205.5,44.434 L-204.5,41.721 L-203.5,39.087 L-202.5,36.534 L-201.5,34.066 L-200.5,31.686 L-199.5,29.396 L-198.5,27.199 L-197.5,25.098 L-196.5,23.096 L-195.5,21.195 L-194.5,19.397 L-193.5,17.705 L-192.5,16.121 L-191.5,14.645 L-190.5,13.282 L-189.5,12.031 L-188.5,10.894 L-187.5,9.874 L-186.5,8.97 L-185.5,8.185 L-184.5,7.519 L-183.5,6.973 L-182.5,6.548 L-181.5,6.244 L-180.5,6.061 L-179.5,6 L-178.5,6.061 L-177.5,6.244 L-176.5,6.548 L-175.5,6.973 L-174.5,7.519 L-173.5,8.185 L-172.5,8.97 L-171.5,9.874 L-170.5,10.894 L-169.5,12.031 L-168.5,13.282 L-167.5,14.645 L-166.5,16.121 L-165.5,17.705 L-164.5,19.397 L-163.5,21.195 L-162.5,23.096 L-161.5,25.098 L-160.5,27.199 L-159.5,29.396 L-158.5,31.686 L-157.5,34.066 L-156.5,36.534 L-155.5,39.087 L-154.5,41.721 L-153.5,44.434 L-152.5,47.221 L-151.5,50.081 L-150.5,53.008 L-149.5,56 L-148.5,59.053 L-147.5,62.163 L-146.5,65.326 L-145.5,68.539 L-144.5,71.798 L-143.5,75.098 L-142.5,78.436 L-141.5,81.808 L-140.5,85.209 L-139.5,88.635 L-138.5,92.083 L-137.5,95.547 L-136.5,99.024 L-135.5,102.51 L-134.5,106 L-133.5,109.49 L-132.5,112.976 L-131.5,116.453 L-130.5,119.917 L-129.5,123.365 L-128.5,126.791 L-127.5,130.192 L-126.5,133.564 L-125.5,136.902 L-124.5,140.202 L-123.5,143.461 L-122.5,146.674 L-121.5,149.837 L-120.5,152.947 L-119.5,156 L-118.5,158.992 L-117.5,161.919 L-116.5,164.779 L-115.5,167.566 L-114.5,170.279 L-113.5,172.913 L-112.5,175.466 L-111.5,177.934 L-110.5,180.314 L-109.5,182.604 L-108.5,184.801 L-107.5,186 L-106.5,186 L-105.5,186 L-104.5,186 L-103.5,186 L-102.5,186 L-101.5,186 L-100.5,186 L-99.5,186 L-98.5,186 L-97.5,186 L-96.5,186 L-95.5,186 L-94.5,186 L-93.5,186 L-92.5,186 L-91.5,186 L-90.5,186 L-89.5,186 L-88.5,186 L-87.5,186 L-86.5,186 L-85.5,186 L-84.5,186 L-83.5,186 L-82.5,186 L-81.5,186 L-80.5,186 L-79.5,186 L-78.5,186 L-77.5,186 L-76.5,186 L-75.5,186 L-74.5,186 L-73.5,186 L-72.5,186 L-71.5,186 L-70.5,184.801 L-69.5,182.604 L-68.5,180.314 L-67.5,177.934 L-66.5,175.466 L-65.5,172.913 L-64.5,170.279 L-63.5,167.566 L-62.5,164.779 L-61.5,161.919 L-60.5,158.992 L-59.5,156 L-58.5,152.947 L-57.5,149.837 L-56.5,146.674 L-55.5,143.461 L-54.5,140.202 L-53.5,136.902 L-52.5,133.564 L-51.5,130.192 L-50.5,126.791 L-49.5,123.365 L-48.5,119.917 L-47.5,116.453 L-46.5,112.976 L-45.5,109.49 L-44.5,106 L-43.5,102.51 L-42.5,99.024 L-41.5,95.547 L-40.5,92.083 L-39.5,88.635 L-38.5,85.209 L-37.5,81.808 L-36.5,78.436 L-35.5,75.098 L-34.5,71.798 L-33.5,68.539 L-32.5,65.326 L-31.5,62.163 L-30.5,59.053 L-29.5,56 L-28.5,53.008 L-27.5,50.081 L-26.5,47.221 L-25.5,44.434 L-24.5,41.721 L-23.5,39.087 L-22.5,36.534 L-21.5,34.066 L-20.5,31.686 L-19.5,29.396 L-18.5,27.199 L-17.5,25.098 L-16.5,25 L-15.5,25.5 L-14.5,26 L-13.5,26.5 L-12.5,27 L-11.5,27.5 L-10.5,28 L-9.5,28.5 L-8.5,29 L-7.5,29.5 L-6.5,30 L-5.5,30.5 L-4.5,31 L-3.5,31.5 L-2.5,32 L-1.5,32.5 L-0.5,33 L0.5,33.5 L1.5,34 L2.5,34.5 L3.5,35 L4.5,35.5 L5.5,36 L6.5,36.5 L7.5,37 L8.5,37.5 L9.5,38 L10.5,38.5 L11.5,39 L12.5,39.5 L13.5,40 L14.5,40.5 L15.5,41 L16.5,41.5 L17.5,42 L18.5,42.5 L19.5,43 L20.5,43.5 L21.5,44 L22.5,44.5 L23.5,45 L24.5,45.5 L25.5,46 L26.5,46.5 L27.5,47.221 L28.5,50.081 L29.5,53.008 L30.5,56 L31.5,59.053 L32.5,62.163 L33.5,65.326 L34.5,68.539 L35.5,71.798 L36.5,75.098 L37.5,78.436 L38.5,81.808 L39.5,85.209 L40.5,88.635 L41.5,92.083 L42.5,95.547 L43.5,99.024 L44.5,102.51 L45.5,106 L46.5,109.49 L47.5,112.976 L48.5,116.453 L49.5,119.917 L50.5,123.365 L51.5,126.791 L52.5,130.192 L53.5,133.564 L54.5,136.902 L55.5,140.202 L56.5,143.461 L57.5,146.674 L58.5,149.837 L59.5,152.947 L60.5,156 L61.5,158.992 L62.5,161.919 L63.5,164.779 L64.5,167.566 L65.5,170.279 L66.5,172.913 L67.5,175.466 L68.5,177.934 L69.5,180.314 L70.5,182.604 L71.5,184.801 L72.5,186 L73.5,186 L74.5,186 L75.5,186 L76.5,186 L77.5,186 L78.5,186 L79.5,186 L80.5,186 L81.5,186 L82.5,186 L83.5,186 L84.5,186 L85.5,186 L86.5,186 L87.5,186 L88.5,186 L89.5,186 L90.5,186 L91.5,186 L92.5,186 L93.5,186 L94.5,186 L95.5,186 L96.5,186 L97.5,186 L98.5,186 L99.5,186 L100.5,186 L101.5,186 L102.5,186 L103.5,186 L104.5,186 L105.5,186 L106.5,186 L107.5,186 L108.5,186 L109.5,184.801 L110.5,182.604 L111.5,180.314 L112.5,177.934 L113.5,175.466 L114.5,172.913 L115.5,170.279 L116.5,167.566 L117.5,164.779 L118.5,161.919 L119.5,158.992 L120.5,156 L121.5,152.947 L122.5,149.837 L123.5,146.674 L124.5,143.461 L125.5,140.202 L126.5,136.902 L127.5,133.564 L128.5,130.192 L129.5,126.791 L130.5,123.365 L131.5,119.917 L132.5,116.453 L133.5,112.976 L134.5,109.49 L135.5,106 L136.5,102.51 L137.5,102 L138.5,102.5 L139.5,103 L140.5,103.5 L141.5,104 L142.5,104.5 L143.5,105 L144.5,105.5 L145.5,106 L146.5,106.5 L147.5,107 L148.5,107.5 L149.5,108 L150.5,108.5 L151.5,109 L152.5,109.5 L153.5,110 L154.5,110.5 L155.5,111 L156.5,111.5 L157.5,112 L158.5,112.5 L159.5,113 L160.5,113.5 L161.5,114 L162.5,114.5 L163.5,115 L164.5,115.5 L165.5,116 L166.5,116.5 L167.5,117 L168.5,117.5 L169.5,118 L170.5,118.5 L171.5,119 L172.5,119.5 L173.5,120 L174.5,120.5 L175.5,121 L176.5,121.5 L177.5,122 L178.5,122.5 L179.5,123 L180.5,123.5 L181.5,124 L182.5,124.5 L183.5,125 L184.5,125.5 L185.5,126 L186.5,126.5 L187.5,127 L188.5,127.5 L189.5,128 L190.5,128.5 L191.5,129 L192.5,129.5 L193.5,130 L194.5,130.5 L195.5,131 L196.5,131.5 L197.5,132 L198.5,132.5 L199.5,133 L200.5,133.5 L201.5,134 L202.5,134.5 L203.5,135 L204.5,135.5 L205.5,136 L206.5,136.5 L207.5,137 L208.5,137.5 L209.5,138 L210.5,138.5 L211.5,139 L212.5,139.5 L213.5,140 L214.5,140.5 L215.5,141 L216.5,141.5 L217.5,142 L218.5,142.5 L219.5,143 L220.5,143.5 L221.5,144 L222.5,144.5 L223.5,145 L224.5,145.5" fill="rgba(0,0,0,0)" stroke="rgba(85,85,85,1)" stroke-width="6"/>
<path d="M-250,186 L250,186" fill="rgba(0,0,0,1)" stroke="rgba(255,0,0,0.34509803921568627)" stroke-width="6"/>
<path d="M-120,-26 L250,158" fill="rgba(0,0,0,1)" stroke="rgba(255,0,0,0.34509803921568627)" stroke-width="6"/>
</svg>