<svg xmlns="http://www.w3.org/2000/svg" viewBox="-217.04 -161.83 434.07 415.45">
<path d="M-27.217,179.198 L-33.021,173.96 L-36.009,172.538 L-39.123,171.056 L-43.735,170.029 L-47.177,169.806 L-50.831,169.568 L-55.769,170.218 L-59.311,171.147 L-63.073,172.134 L-67.866,174.29 L-71.236,176.232 L-74.77,178.269 L-79.099,181.641 L-82.121,184.381 L-85.228,187.198 L-88.931,191.427 L-91.554,194.699 L-94.176,197.971 L-97.252,202.655 L-99.567,206.151 L-101.791,209.509 L-104.339,214.262 L-106.693,217.531 L-108.798,220.455 L-114.324,226.803 L31.74,226.803 L31.898,226.803 L19.863,158.551 Z" fill="rgba(0,0,0,0)"/>
<path d="M19.863,158.551 L8.831,95.987 L-57.187,116.425 L-59.849,109.389 L-61.779,106.858 L-63.792,104.219 L-67.284,101.311 L-70.13,99.604 L-73.151,97.791 L-77.66,96.173 L-81.099,95.407 L-84.751,94.594 L-89.799,94.326 L-93.536,94.502 L-97.455,94.686 L-102.642,95.663 L-106.434,96.673 L-110.332,97.713 L-115.361,99.696 L-119.046,101.338 L-122.73,102.979 L-127.424,105.627 L-130.945,107.595 L-134.327,109.486 L-138.6,112.426 L-142.054,114.182 L-145.143,115.754 L-152.667,118.745 L-117.557,226.803 L-114.324,226.803 L-108.798,220.455 L-106.693,217.531 L-104.339,214.262 L-101.791,209.509 L-99.567,206.151 L-97.252,202.655 L-94.176,197.971 L-91.554,194.699 L-88.931,191.427 L-85.228,187.198 L-82.121,184.381 L-79.099,181.641 L-74.77,178.269 L-71.236,176.232 L-67.866,174.29 L-63.073,172.134 L-59.311,171.147 L-55.769,170.218 L-50.831,169.568 L-47.177,169.806 L-43.735,170.029 L-39.123,171.056 L-36.009,172.538 L-33.021,173.96 L-27.217,179.198 Z" fill="rgba(0,0,0,0)"/>
<path d="M8.831,95.987 L-2.2,33.423 L-63.617,46.852 L-64.5,36.57 L-66.056,32.484 L-67.673,28.239 L-71.071,23.043 L-74.093,19.652 L-77.287,16.067 L-82.458,12.096 L-86.593,9.654 L-90.965,7.071 L-97.349,4.569 L-102.234,3.181 L-107.344,1.73 L-114.413,0.716 L-119.711,0.339 L-125.15,-0.048 L-132.449,0.246 L-137.883,0.69 L-143.317,1.133 L-150.492,2.384 L-155.868,3.292 L-161.043,4.166 L-167.839,5.948 L-173.046,6.614 L-177.736,7.214 L-188.776,7.613 L-152.667,118.745 L-145.143,115.754 L-142.054,114.182 L-138.6,112.426 L-134.327,109.486 L-130.945,107.595 L-127.424,105.627 L-122.73,102.979 L-119.046,101.338 L-115.361,99.696 L-110.332,97.713 L-106.434,96.673 L-102.642,95.663 L-97.455,94.686 L-93.536,94.502 L-89.799,94.326 L-84.751,94.594 L-81.099,95.407 L-77.66,96.173 L-73.151,97.791 L-70.13,99.604 L-67.284,101.311 L-63.792,104.219 L-61.779,106.858 L-59.849,109.389 L-57.187,116.425 Z" fill="rgba(0,0,0,0)"/>
<path d="M-2.2,33.423 L-13.232,-29.142 L-54.845,-22.645 L-54.248,-27.309 L-54.45,-29.298 L-54.658,-31.339 L-55.42,-34.014 L-56.224,-35.902 L-57.059,-37.864 L-58.584,-40.306 L-59.893,-41.99 L-61.256,-43.742 L-63.389,-45.832 L-65.096,-47.251 L-66.861,-48.719 L-69.436,-50.405 L-71.427,-51.546 L-73.457,-52.71 L-76.308,-54.005 L-78.469,-54.904 L-80.63,-55.803 L-83.598,-56.779 L-85.814,-57.53 L-87.968,-58.26 L-90.912,-59.025 L-93.034,-59.844 L-95.001,-60.605 L-99.433,-62.758 L-190.211,3.197 L-188.776,7.613 L-177.736,7.214 L-173.046,6.614 L-167.839,5.948 L-161.043,4.166 L-155.868,3.292 L-150.492,2.384 L-143.317,1.133 L-137.883,0.69 L-132.449,0.246 L-125.15,-0.048 L-119.711,0.339 L-114.413,0.716 L-107.344,1.73 L-102.234,3.181 L-97.349,4.569 L-90.965,7.071 L-86.593,9.654 L-82.458,12.096 L-77.287,16.067 L-74.093,19.652 L-71.071,23.043 L-67.673,28.239 L-66.056,32.484 L-64.5,36.57 L-63.617,46.852 Z" fill="rgba(0,0,0,0)"/>
<path d="M-13.232,-29.142 L-28.276,-114.457 L-28.532,-114.271 L-99.433,-62.758 L-95.001,-60.605 L-93.034,-59.844 L-90.912,-59.025 L-87.968,-58.26 L-85.814,-57.53 L-83.598,-56.779 L-80.63,-55.803 L-78.469,-54.904 L-76.308,-54.005 L-73.457,-52.71 L-71.427,-51.546 L-69.436,-50.405 L-66.861,-48.719 L-65.096,-47.251 L-63.389,-45.832 L-61.256,-43.742 L-59.893,-41.99 L-58.584,-40.306 L-57.059,-37.864 L-56.224,-35.902 L-55.42,-34.014 L-54.658,-31.339 L-54.45,-29.298 L-54.248,-27.309 L-54.845,-22.645 Z" fill="rgba(0,0,0,0)"/>
<path d="M19.863,158.551 L31.898,226.803 L31.74,226.803 L117.557,226.803 L136.72,167.827 L122.852,160.771 L117.197,157.252 L110.231,152.918 L101.84,145.792 L94.889,141.434 L87.462,136.778 L77.368,130.746 L69.288,127.344 L61.207,123.942 L49.979,120.224 L41.315,118.88 L33.037,117.597 L21.666,117.162 L13.397,118.496 L5.787,119.724 L-4.291,122.913 L-10.88,126.914 L-16.763,130.486 L-23.93,136.825 L-27.545,142.682 L-30.725,147.835 L-33.528,155.954 L-33.374,162.008 L-33.234,167.484 L-27.217,179.198 Z" fill="rgba(0,0,0,0)"/>
<path d="M8.831,95.987 L19.863,158.551 L-27.217,179.198 L-33.234,167.484 L-33.374,162.008 L-33.528,155.954 L-30.725,147.835 L-27.545,142.682 L-23.93,136.825 L-16.763,130.486 L-10.88,126.914 L-4.291,122.913 L5.787,119.724 L13.397,118.496 L21.666,117.162 L33.037,117.597 L41.315,118.88 L49.979,120.224 L61.207,123.942 L69.288,127.344 L77.368,130.746 L87.462,136.778 L94.889,141.434 L101.84,145.792 L110.231,152.918 L117.197,157.252 L122.852,160.771 L136.72,167.827 L173.265,55.353 L152.832,52.575 L144.237,50.568 L134.428,48.278 L121.839,43.424 L112.116,40.795 L101.932,38.041 L88.314,34.36 L77.899,32.68 L67.481,31.001 L53.408,29.453 L42.857,29.628 L32.638,29.797 L18.932,31.164 L9.033,33.707 L-0.33,36.113 L-12.583,40.746 L-20.855,45.747 L-28.559,50.406 L-38.107,58.145 L-43.715,65.187 L-48.929,71.733 L-54.492,81.837 L-56.572,89.942 L-58.547,97.64 L-57.187,116.425 Z" fill="rgba(0,0,0,0)"/>
<path d="M-2.2,33.423 L8.831,95.987 L-57.187,116.425 L-58.547,97.64 L-56.572,89.942 L-54.492,81.837 L-48.929,71.733 L-43.715,65.187 L-38.107,58.145 L-28.559,50.406 L-20.855,45.747 L-12.583,40.746 L-0.33,36.113 L9.033,33.707 L18.932,31.164 L32.638,29.797 L42.857,29.628 L53.408,29.453 L67.481,31.001 L77.899,32.68 L88.314,34.36 L101.932,38.041 L112.116,40.795 L121.839,43.424 L134.428,48.278 L144.237,50.568 L152.832,52.575 L173.265,55.353 L190.211,3.197 L138.902,-34.082 L120.911,-32.623 L113.184,-32.666 L104.777,-32.712 L93.619,-34.117 L85.221,-34.515 L76.555,-34.926 L64.987,-35.566 L56.314,-35.343 L47.64,-35.12 L36.049,-34.416 L27.483,-33.03 L19.101,-31.674 L7.989,-29.147 L-0.004,-26.284 L-7.708,-23.524 L-17.723,-18.925 L-24.599,-14.487 L-31.171,-10.245 L-39.383,-3.575 L-44.556,2.293 L-49.507,7.909 L-55.17,16.366 L-58.097,23.257 L-60.939,29.948 L-63.617,46.852 Z" fill="rgba(0,0,0,0)"/>
<path d="M-13.232,-29.142 L-2.2,33.423 L-63.617,46.852 L-60.939,29.948 L-58.097,23.257 L-55.17,16.366 L-49.507,7.909 L-44.556,2.293 L-39.383,-3.575 L-31.171,-10.245 L-24.599,-14.487 L-17.723,-18.925 L-7.708,-23.524 L-0.004,-26.284 L7.989,-29.147 L19.101,-31.674 L27.483,-33.03 L36.049,-34.416 L47.64,-35.12 L56.314,-35.343 L64.987,-35.566 L76.555,-34.926 L85.221,-34.515 L93.619,-34.117 L104.777,-32.712 L113.184,-32.666 L120.911,-32.623 L138.902,-34.082 L43.226,-103.595 L34.454,-98.59 L30.577,-96.672 L26.578,-94.694 L21.05,-92.476 L16.986,-90.635 L12.871,-88.772 L7.356,-86.343 L3.315,-84.325 L-0.727,-82.307 L-6.073,-79.516 L-9.945,-77.188 L-13.783,-74.879 L-18.794,-71.606 L-22.357,-68.892 L-25.869,-66.215 L-30.375,-62.392 L-33.49,-59.261 L-36.553,-56.18 L-40.378,-51.791 L-42.905,-48.258 L-45.394,-44.776 L-48.358,-39.857 L-50.164,-35.977 L-51.953,-32.134 L-54.845,-22.645 Z" fill="rgba(0,0,0,0)"/>
<path d="M-54.845,-22.645 L-51.953,-32.134 L-50.164,-35.977 L-48.358,-39.857 L-45.394,-44.776 L-42.905,-48.258 L-40.378,-51.791 L-36.553,-56.18 L-33.49,-59.261 L-30.375,-62.392 L-25.869,-66.215 L-22.357,-68.892 L-18.794,-71.606 L-13.783,-74.879 L-9.945,-77.188 L-6.073,-79.516 L-0.727,-82.307 L3.315,-84.325 L7.356,-86.343 L12.871,-88.772 L16.986,-90.635 L21.05,-92.476 L26.578,-94.694 L30.577,-96.672 L34.454,-98.59 L43.226,-103.595 L0,-135 L-28.532,-114.271 L-28.276,-114.457 L-13.232,-29.142 Z" fill="rgba(0,0,0,0)"/>
<path d="M31.898,226.803 L-28.276,-114.457" fill="rgba(0,0,0,0)" stroke="rgba(0,0,0,0)" stroke-width="3"/>
<path d="M-27.217,179.198 L-33.021,173.96 L-36.009,172.538 L-39.123,171.056 L-43.735,170.029 L-47.177,169.806 L-50.831,169.568 L-55.769,170.218 L-59.311,171.147 L-63.073,172.134 L-67.866,174.29 L-71.236,176.232 L-74.77,178.269 L-79.099,181.641 L-82.121,184.381 L-85.228,187.198 L-88.931,191.427 L-91.554,194.699 L-94.176,197.971 L-97.252,202.655 L-99.567,206.151 L-101.791,209.509 L-104.339,214.262 L-106.693,217.531 L-108.798,220.455 L-114.324,226.803" fill="rgba(0,0,0,0)" stroke="rgba(0,0,0,0)" stroke-width="3"/>
<path d="M-57.187,116.425 L-59.849,109.389 L-61.779,106.858 L-63.792,104.219 L-67.284,101.311 L-70.13,99.604 L-73.151,97.791 L-77.66,96.173 L-81.099,95.407 L-84.751,94.594 L-89.799,94.326 L-93.536,94.502 L-97.455,94.686 L-102.642,95.663 L-106.434,96.673 L-110.332,97.713 L-115.361,99.696 L-119.046,101.338 L-122.73,102.979 L-127.424,105.627 L-130.945,107.595 L-134.327,109.486 L-138.6,112.426 L-142.054,114.182 L-145.143,115.754 L-152.667,118.745" fill="rgba(0,0,0,0)" stroke="rgba(0,0,0,0)" stroke-width="3"/>
<path d="M-63.617,46.852 L-64.5,36.57 L-66.056,32.484 L-67.673,28.239 L-71.071,23.043 L-74.093,19.652 L-77.287,16.067 L-82.458,12.096 L-86.593,9.654 L-90.965,7.071 L-97.349,4.569 L-102.234,3.181 L-107.344,1.73 L-114.413,0.716 L-119.711,0.339 L-125.15,-0.048 L-132.449,0.246 L-137.883,0.69 L-143.317,1.133 L-150.492,2.384 L-155.868,3.292 L-161.043,4.166 L-167.839,5.948 L-173.046,6.614 L-177.736,7.214 L-188.776,7.613" fill="rgba(0,0,0,0)" stroke="rgba(0,0,0,0)" stroke-width="3"/>
<path d="M-54.845,-22.645 L-54.248,-27.309 L-54.45,-29.298 L-54.658,-31.339 L-55.42,-34.014 L-56.224,-35.902 L-57.059,-37.864 L-58.584,-40.306 L-59.893,-41.99 L-61.256,-43.742 L-63.389,-45.832 L-65.096,-47.251 L-66.861,-48.719 L-69.436,-50.405 L-71.427,-51.546 L-73.457,-52.71 L-76.308,-54.005 L-78.469,-54.904 L-80.63,-55.803 L-83.598,-56.779 L-85.814,-57.53 L-87.968,-58.26 L-90.912,-59.025 L-93.034,-59.844 L-95.001,-60.605 L-99.433,-62.758" fill="rgba(0,0,0,0)" stroke="rgba(0,0,0,0)" stroke-width="3"/>
<path d="M-27.217,179.198 L-33.234,167.484 L-33.374,162.008 L-33.528,155.954 L-30.725,147.835 L-27.545,142.682 L-23.93,136.825 L-16.763,130.486 L-10.88,126.914 L-4.291,122.913 L5.787,119.724 L13.397,118.496 L21.666,117.162 L33.037,117.597 L41.315,118.88 L49.979,120.224 L61.207,123.942 L69.288,127.344 L77.368,130.746 L87.462,136.778 L94.889,141.434 L101.84,145.792 L110.231,152.918 L117.197,157.252 L122.852,160.771 L136.72,167.827" fill="rgba(0,0,0,0)" stroke="rgba(0,0,0,0)" stroke-width="3"/>
<path d="M-57.187,116.425 L-58.547,97.64 L-56.572,89.942 L-54.492,81.837 L-48.929,71.733 L-43.715,65.187 L-38.107,58.145 L-28.559,50.406 L-20.855,45.747 L-12.583,40.746 L-0.33,36.113 L9.033,33.707 L18.932,31.164 L32.638,29.797 L42.857,29.628 L53.408,29.453 L67.481,31.001 L77.899,32.68 L88.314,34.36 L101.932,38.041 L112.116,40.795 L121.839,43.424 L134.428,48.278 L144.237,50.568 L152.832,52.575 L173.265,55.353" fill="rgba(0,0,0,0)" stroke="rgba(0,0,0,0)" stroke-width="3"/>
<path d="M-63.617,46.852 L-60.939,29.948 L-58.097,23.257 L-55.17,16.366 L-49.507,7.909 L-44.556,2.293 L-39.383,-3.575 L-31.171,-10.245 L-24.599,-14.487 L-17.723,-18.925 L-7.708,-23.524 L-0.004,-26.284 L7.989,-29.147 L19.101,-31.674 L27.483,-33.03 L36.049,-34.416 L47.64,-35.12 L56.314,-35.343 L64.987,-35.566 L76.555,-34.926 L85.221,-34.515 L93.619,-34.117 L104.777,-32.712 L113.184,-32.666 L120.911,-32.623 L138.902,-34.082" fill="rgba(0,0,0,0)" stroke="rgba(0,0,0,0)" stroke-width="3"/>
<path d="M-54.845,-22.645 L-51.953,-32.134 L-50.164,-35.977 L-48.358,-39.857 L-45.394,-44.776 L-42.905,-48.258 L-40.378,-51.791 L-36.553,-56.18 L-33.49,-59.261 L-30.375,-62.392 L-25.869,-66.215 L-22.357,-68.892 L-18.794,-71.606 L-13.783,-74.879 L-9.945,-77.188 L-6.073,-79.516 L-0.727,-82.307 L3.315,-84.325 L7.356,-86.343 L12.871,-88.772 L16.986,-90.635 L21.05,-92.476 L26.578,-94.694 L30.577,-96.672 L34.454,-98.59 L43.226,-103.595" fill="rgba(0,0,0,0)" stroke="rgba(0,0,0,0)" stroke-width="3"/>
<path d="M117.557,226.803 L-117.557,226.803 L-190.211,3.197 L0,-135 L190.211,3.197 Z" fill="rgba(0,0,0,0)" stroke="rgba(117,55,3,1)" stroke-width="3"/>
</svg>