<svg xmlns="http://www.w3.org/2000/svg" viewBox="-239.2 -184.2 478.4 458.4">
<path d="M-177,-65 L-177,217 L-170,217 L-180,236 L-190,217 L-183,217 L-183,-65 Z" fill="rgba(98,98,98,1)"/>
<path d="M-137,-125 L-137,217 L-130,217 L-140,236 L-150,217 L-143,217 L-143,-125 Z" fill="rgba(98,98,98,1)"/>
<path d="M-97,-65 L-97,217 L-90,217 L-100,236 L-110,217 L-103,217 L-103,-65 Z" fill="rgba(98,98,98,1)"/>
<path d="M-57,-125 L-57,217 L-50,217 L-60,236 L-70,217 L-63,217 L-63,-125 Z" fill="rgba(98,98,98,1)"/>
<path d="M-17,-65 L-17,217 L-10,217 L-20,236 L-30,217 L-23,217 L-23,-65 Z" fill="rgba(98,98,98,1)"/>
<path d="M23,-125 L23,217 L30,217 L20,236 L10,217 L17,217 L17,-125 Z" fill="rgba(98,98,98,1)"/>
<path d="M63,-65 L63,217 L70,217 L60,236 L50,217 L57,217 L57,-65 Z" fill="rgba(98,98,98,1)"/>
<path d="M103,-125 L103,217 L110,217 L100,236 L90,217 L97,217 L97,-125 Z" fill="rgba(98,98,98,1)"/>
<path d="M143,-65 L143,217 L150,217 L140,236 L130,217 L137,217 L137,-65 Z" fill="rgba(98,98,98,1)"/>
<path d="M183,-125 L183,217 L190,217 L180,236 L170,217 L177,217 L177,-125 Z" fill="rgba(98,98,98,1)"/>
<path d="M-150,-65 C-150,-48.431 -163.431,-35 -180,-35 C-196.569,-35 -210,-48.431 -210,-65 C-210,-81.569 -196.569,-95 -180,-95 C-163.431,-95 -150,-81.569 -150,-65 Z" fill="rgba(212,0,0,1)" stroke="rgba(0,0,0,1)" stroke-width="2"/>
<path d="M-110,-125 C-110,-108.431 -123.431,-95 -140,-95 C-156.569,-95 -170,-108.431 -170,-125 C-170,-141.569 -156.569,-155 -140,-155 C-123.431,-155 -110,-141.569 -110,-125 Z" fill="rgba(217,124,11,0.9769063180827887)" stroke="rgba(0,0,0,1)" stroke-width="2"/>
<path d="M-70,-65 C-70,-48.431 -83.431,-35 -100,-35 C-116.569,-35 -130,-48.431 -130,-65 C-130,-81.569 -116.569,-95 -100,-95 C-83.431,-95 -70,-81.569 -70,-65 Z" fill="rgba(202,222,23,0.9538126361655773)" stroke="rgba(0,0,0,1)" stroke-width="2"/>
<path d="M-30,-125 C-30,-108.431 -43.431,-95 -60,-95 C-76.569,-95 -90,-108.431 -90,-125 C-90,-141.569 -76.569,-155 -60,-155 C-43.431,-155 -30,-141.569 -30,-125 Z" fill="rgba(103,226,36,0.930718954248366)" stroke="rgba(0,0,0,1)" stroke-width="2"/>
<path d="M10,-65 C10,-48.431 -3.431,-35 -20,-35 C-36.569,-35 -50,-48.431 -50,-65 C-50,-81.569 -36.569,-95 -20,-95 C-3.431,-95 10,-81.569 10,-65 Z" fill="rgba(48,231,84,0.9076252723311546)" stroke="rgba(0,0,0,1)" stroke-width="2"/>
<path d="M50,-125 C50,-108.431 36.569,-95 20,-95 C3.431,-95 -10,-108.431 -10,-125 C-10,-141.569 3.431,-155 20,-155 C36.569,-155 50,-141.569 50,-125 Z" fill="rgba(62,236,191,0.8845315904139434)" stroke="rgba(0,0,0,1)" stroke-width="2"/>
<path d="M90,-65 C90,-48.431 76.569,-35 60,-35 C43.431,-35 30,-48.431 30,-65 C30,-81.569 43.431,-95 60,-95 C76.569,-95 90,-81.569 90,-65 Z" fill="rgba(76,192,241,0.8614379084967321)" stroke="rgba(0,0,0,1)" stroke-width="2"/>
<path d="M130,-125 C130,-108.431 116.569,-95 100,-95 C83.431,-95 70,-108.431 70,-125 C70,-141.569 83.431,-155 100,-155 C116.569,-155 130,-141.569 130,-125 Z" fill="rgba(90,114,245,0.8383442265795207)" stroke="rgba(0,0,0,1)" stroke-width="2"/>
<path d="M170,-65 C170,-48.431 156.569,-35 140,-35 C123.431,-35 110,-48.431 110,-65 C110,-81.569 123.431,-95 140,-95 C156.569,-95 170,-81.569 170,-65 Z" fill="rgba(162,105,250,0.8152505446623093)" stroke="rgba(0,0,0,1)" stroke-width="2"/>
<path d="M210,-125 C210,-108.431 196.569,-95 180,-95 C163.431,-95 150,-108.431 150,-125 C150,-141.569 163.431,-155 180,-155 C196.569,-155 210,-141.569 210,-125 Z" fill="rgba(247,120,255,0.792156862745098)" stroke="rgba(0,0,0,1)" stroke-width="2"/>
<path d="M-190,-5 L-170,-5 C-164.477,-5 -160,-0.523 -160,5 L-160,25 C-160,30.523 -164.477,35 -170,35 L-190,35 C-195.523,35 -200,30.523 -200,25 L-200,5 C-200,-0.523 -195.523,-5 -190,-5 Z" fill="rgba(72,212,0,1)" stroke="rgba(0,0,0,1)" stroke-width="1"/>
<path d="M-150,-5 L-130,-5 C-124.477,-5 -120,-0.523 -120,5 L-120,25 C-120,30.523 -124.477,35 -130,35 L-150,35 C-155.523,35 -160,30.523 -160,25 L-160,5 C-160,-0.523 -155.523,-5 -150,-5 Z" fill="rgba(81,217,11,0.9769063180827887)" stroke="rgba(0,0,0,1)" stroke-width="1"/>
<path d="M-110,-5 L-90,-5 C-84.477,-5 -80,-0.523 -80,5 L-80,25 C-80,30.523 -84.477,35 -90,35 L-110,35 C-115.523,35 -120,30.523 -120,25 L-120,5 C-120,-0.523 -115.523,-5 -110,-5 Z" fill="rgba(91,222,23,0.9538126361655773)" stroke="rgba(0,0,0,1)" stroke-width="1"/>
<path d="M-70,-5 L-50,-5 C-44.477,-5 -40,-0.523 -40,5 L-40,25 C-40,30.523 -44.477,35 -50,35 L-70,35 C-75.523,35 -80,30.523 -80,25 L-80,5 C-80,-0.523 -75.523,-5 -70,-5 Z" fill="rgba(101,226,36,0.930718954248366)" stroke="rgba(0,0,0,1)" stroke-width="1"/>
<path d="M-30,-5 L-10,-5 C-4.477,-5 0,-0.523 0,5 L0,25 C0,30.523 -4.477,35 -10,35 L-30,35 C-35.523,35 -40,30.523 -40,25 L-40,5 C-40,-0.523 -35.523,-5 -30,-5 Z" fill="rgba(111,231,48,0.9076252723311546)" stroke="rgba(0,0,0,1)" stroke-width="1"/>
<path d="M10,-5 L30,-5 C35.523,-5 40,-0.523 40,5 L40,25 C40,30.523 35.523,35 30,35 L10,35 C4.477,35 0,30.523 0,25 L0,5 C0,-0.523 4.477,-5 10,-5 Z" fill="rgba(121,236,62,0.8845315904139434)" stroke="rgba(0,0,0,1)" stroke-width="1"/>
<path d="M50,-5 L70,-5 C75.523,-5 80,-0.523 80,5 L80,25 C80,30.523 75.523,35 70,35 L50,35 C44.477,35 40,30.523 40,25 L40,5 C40,-0.523 44.477,-5 50,-5 Z" fill="rgba(132,241,76,0.8614379084967321)" stroke="rgba(0,0,0,1)" stroke-width="1"/>
<path d="M90,-5 L110,-5 C115.523,-5 120,-0.523 120,5 L120,25 C120,30.523 115.523,35 110,35 L90,35 C84.477,35 80,30.523 80,25 L80,5 C80,-0.523 84.477,-5 90,-5 Z" fill="rgba(143,245,90,0.8383442265795207)" stroke="rgba(0,0,0,1)" stroke-width="1"/>
<path d="M130,-5 L150,-5 C155.523,-5 160,-0.523 160,5 L160,25 C160,30.523 155.523,35 150,35 L130,35 C124.477,35 120,30.523 120,25 L120,5 C120,-0.523 124.477,-5 130,-5 Z" fill="rgba(154,250,105,0.8152505446623093)" stroke="rgba(0,0,0,1)" stroke-width="1"/>
<path d="M170,-5 L190,-5 C195.523,-5 200,-0.523 200,5 L200,25 C200,30.523 195.523,35 190,35 L170,35 C164.477,35 160,30.523 160,25 L160,5 C160,-0.523 164.477,-5 170,-5 Z" fill="rgba(166,255,120,0.792156862745098)" stroke="rgba(0,0,0,1)" stroke-width="1"/>
<path d="M-190,65 L-170,65 C-164.477,65 -160,69.477 -160,75 L-160,95 C-160,100.523 -164.477,105 -170,105 L-190,105 C-195.523,105 -200,100.523 -200,95 L-200,75 C-200,69.477 -195.523,65 -190,65 Z" fill="rgba(212,135,135,1)" stroke="rgba(0,0,0,1)" stroke-width="1"/>
<path d="M-150,65 L-130,65 C-124.477,65 -120,69.477 -120,75 L-120,95 C-120,100.523 -124.477,105 -130,105 L-150,105 C-155.523,105 -160,100.523 -160,95 L-160,75 C-160,69.477 -155.523,65 -150,65 Z" fill="rgba(217,181,139,1)" stroke="rgba(0,0,0,1)" stroke-width="1"/>
<path d="M-110,65 L-90,65 C-84.477,65 -80,69.477 -80,75 L-80,95 C-80,100.523 -84.477,105 -90,105 L-110,105 C-115.523,105 -120,100.523 -120,95 L-120,75 C-120,69.477 -115.523,65 -110,65 Z" fill="rgba(214,222,142,1)" stroke="rgba(0,0,0,1)" stroke-width="1"/>
<path d="M-70,65 L-50,65 C-44.477,65 -40,69.477 -40,75 L-40,95 C-40,100.523 -44.477,105 -50,105 L-70,105 C-75.523,105 -80,100.523 -80,95 L-80,75 C-80,69.477 -75.523,65 -70,65 Z" fill="rgba(173,226,145,1)" stroke="rgba(0,0,0,1)" stroke-width="1"/>
<path d="M-30,65 L-10,65 C-4.477,65 0,69.477 0,75 L0,95 C0,100.523 -4.477,105 -10,105 L-30,105 C-35.523,105 -40,100.523 -40,95 L-40,75 C-40,69.477 -35.523,65 -30,65 Z" fill="rgba(148,231,164,1)" stroke="rgba(0,0,0,1)" stroke-width="1"/>
<path d="M10,65 L30,65 C35.523,65 40,69.477 40,75 L40,95 C40,100.523 35.523,105 30,105 L10,105 C4.477,105 0,100.523 0,95 L0,75 C0,69.477 4.477,65 10,65 Z" fill="rgba(151,236,214,1)" stroke="rgba(0,0,0,1)" stroke-width="1"/>
<path d="M50,65 L70,65 C75.523,65 80,69.477 80,75 L80,95 C80,100.523 75.523,105 70,105 L50,105 C44.477,105 40,100.523 40,95 L40,75 C40,69.477 44.477,65 50,65 Z" fill="rgba(154,215,241,1)" stroke="rgba(0,0,0,1)" stroke-width="1"/>
<path d="M90,65 L110,65 C115.523,65 120,69.477 120,75 L120,95 C120,100.523 115.523,105 110,105 L90,105 C84.477,105 80,100.523 80,95 L80,75 C80,69.477 84.477,65 90,65 Z" fill="rgba(157,171,245,1)" stroke="rgba(0,0,0,1)" stroke-width="1"/>
<path d="M130,65 L150,65 C155.523,65 160,69.477 160,75 L160,95 C160,100.523 155.523,105 150,105 L130,105 C124.477,105 120,100.523 120,95 L120,75 C120,69.477 124.477,65 130,65 Z" fill="rgba(195,160,250,1)" stroke="rgba(0,0,0,1)" stroke-width="1"/>
<path d="M170,65 L190,65 C195.523,65 200,69.477 200,75 L200,95 C200,100.523 195.523,105 190,105 L170,105 C164.477,105 160,100.523 160,95 L160,75 C160,69.477 164.477,65 170,65 Z" fill="rgba(250,163,255,1)" stroke="rgba(0,0,0,1)" stroke-width="1"/>
<path d="M-190,135 L-170,135 C-164.477,135 -160,139.477 -160,145 L-160,165 C-160,170.523 -164.477,175 -170,175 L-190,175 C-195.523,175 -200,170.523 -200,165 L-200,145 C-200,139.477 -195.523,135 -190,135 Z" fill="rgba(164,0,0,1)" stroke="rgba(0,0,0,1)" stroke-width="1"/>
<path d="M-150,135 L-130,135 C-124.477,135 -120,139.477 -120,145 L-120,165 C-120,170.523 -124.477,175 -130,175 L-150,175 C-155.523,175 -160,170.523 -160,165 L-160,145 C-160,139.477 -155.523,135 -150,135 Z" fill="rgba(164,94,9,0.9769063180827887)" stroke="rgba(0,0,0,1)" stroke-width="1"/>
<path d="M-110,135 L-90,135 C-84.477,135 -80,139.477 -80,145 L-80,165 C-80,170.523 -84.477,175 -90,175 L-110,175 C-115.523,175 -120,170.523 -120,165 L-120,145 C-120,139.477 -115.523,135 -110,135 Z" fill="rgba(150,164,17,0.9538126361655773)" stroke="rgba(0,0,0,1)" stroke-width="1"/>
<path d="M-70,135 L-50,135 C-44.477,135 -40,139.477 -40,145 L-40,165 C-40,170.523 -44.477,175 -50,175 L-70,175 C-75.523,175 -80,170.523 -80,165 L-80,145 C-80,139.477 -75.523,135 -70,135 Z" fill="rgba(75,164,26,0.930718954248366)" stroke="rgba(0,0,0,1)" stroke-width="1"/>
<path d="M-30,135 L-10,135 C-4.477,135 0,139.477 0,145 L0,165 C0,170.523 -4.477,175 -10,175 L-30,175 C-35.523,175 -40,170.523 -40,165 L-40,145 C-40,139.477 -35.523,135 -30,135 Z" fill="rgba(34,164,60,0.9076252723311546)" stroke="rgba(0,0,0,1)" stroke-width="1"/>
<path d="M10,135 L30,135 C35.523,135 40,139.477 40,145 L40,165 C40,170.523 35.523,175 30,175 L10,175 C4.477,175 0,170.523 0,165 L0,145 C0,139.477 4.477,135 10,135 Z" fill="rgba(43,164,133,0.8845315904139434)" stroke="rgba(0,0,0,1)" stroke-width="1"/>
<path d="M50,135 L70,135 C75.523,135 80,139.477 80,145 L80,165 C80,170.523 75.523,175 70,175 L50,175 C44.477,175 40,170.523 40,165 L40,145 C40,139.477 44.477,135 50,135 Z" fill="rgba(51,131,164,0.8614379084967321)" stroke="rgba(0,0,0,1)" stroke-width="1"/>
<path d="M90,135 L110,135 C115.523,135 120,139.477 120,145 L120,165 C120,170.523 115.523,175 110,175 L90,175 C84.477,175 80,170.523 80,165 L80,145 C80,139.477 84.477,135 90,135 Z" fill="rgba(60,76,164,0.8383442265795207)" stroke="rgba(0,0,0,1)" stroke-width="1"/>
<path d="M130,135 L150,135 C155.523,135 160,139.477 160,145 L160,165 C160,170.523 155.523,175 150,175 L130,175 C124.477,175 120,170.523 120,165 L120,145 C120,139.477 124.477,135 130,135 Z" fill="rgba(106,69,164,0.8152505446623093)" stroke="rgba(0,0,0,1)" stroke-width="1"/>
<path d="M170,135 L190,135 C195.523,135 200,139.477 200,145 L200,165 C200,170.523 195.523,175 190,175 L170,175 C164.477,175 160,170.523 160,165 L160,145 C160,139.477 164.477,135 170,135 Z" fill="rgba(159,77,164,0.792156862745098)" stroke="rgba(0,0,0,1)" stroke-width="1"/>
<path d="M-190,205 L-170,205 C-164.477,205 -160,209.477 -160,215 L-160,235 C-160,240.523 -164.477,245 -170,245 L-190,245 C-195.523,245 -200,240.523 -200,235 L-200,215 C-200,209.477 -195.523,205 -190,205 Z" fill="rgba(212,0,0,0.7647058823529411)" stroke="rgba(0,0,0,1)" stroke-width="1"/>
<path d="M-150,205 L-130,205 C-124.477,205 -120,209.477 -120,215 L-120,235 C-120,240.523 -124.477,245 -130,245 L-150,245 C-155.523,245 -160,240.523 -160,235 L-160,215 C-160,209.477 -155.523,205 -150,205 Z" fill="rgba(217,124,11,0.7647058823529411)" stroke="rgba(0,0,0,1)" stroke-width="1"/>
<path d="M-110,205 L-90,205 C-84.477,205 -80,209.477 -80,215 L-80,235 C-80,240.523 -84.477,245 -90,245 L-110,245 C-115.523,245 -120,240.523 -120,235 L-120,215 C-120,209.477 -115.523,205 -110,205 Z" fill="rgba(202,222,23,0.7647058823529411)" stroke="rgba(0,0,0,1)" stroke-width="1"/>
<path d="M-70,205 L-50,205 C-44.477,205 -40,209.477 -40,215 L-40,235 C-40,240.523 -44.477,245 -50,245 L-70,245 C-75.523,245 -80,240.523 -80,235 L-80,215 C-80,209.477 -75.523,205 -70,205 Z" fill="rgba(103,226,36,0.7647058823529411)" stroke="rgba(0,0,0,1)" stroke-width="1"/>
<path d="M-30,205 L-10,205 C-4.477,205 0,209.477 0,215 L0,235 C0,240.523 -4.477,245 -10,245 L-30,245 C-35.523,245 -40,240.523 -40,235 L-40,215 C-40,209.477 -35.523,205 -30,205 Z" fill="rgba(48,231,84,0.7647058823529411)" stroke="rgba(0,0,0,1)" stroke-width="1"/>
<path d="M10,205 L30,205 C35.523,205 40,209.477 40,215 L40,235 C40,240.523 35.523,245 30,245 L10,245 C4.477,245 0,240.523 0,235 L0,215 C0,209.477 4.477,205 10,205 Z" fill="rgba(62,236,191,0.7647058823529411)" stroke="rgba(0,0,0,1)" stroke-width="1"/>
<path d="M50,205 L70,205 C75.523,205 80,209.477 80,215 L80,235 C80,240.523 75.523,245 70,245 L50,245 C44.477,245 40,240.523 40,235 L40,215 C40,209.477 44.477,205 50,205 Z" fill="rgba(76,192,241,0.7647058823529411)" stroke="rgba(0,0,0,1)" stroke-width="1"/>
<path d="M90,205 L110,205 C115.523,205 120,209.477 120,215 L120,235 C120,240.523 115.523,245 110,245 L90,245 C84.477,245 80,240.523 80,235 L80,215 C80,209.477 84.477,205 90,205 Z" fill="rgba(90,114,245,0.7647058823529411)" stroke="rgba(0,0,0,1)" stroke-width="1"/>
<path d="M130,205 L150,205 C155.523,205 160,209.477 160,215 L160,235 C160,240.523 155.523,245 150,245 L130,245 C124.477,245 120,240.523 120,235 L120,215 C120,209.477 124.477,205 130,205 Z" fill="rgba(162,105,250,0.7647058823529411)" stroke="rgba(0,0,0,1)" stroke-width="1"/>
<path d="M170,205 L190,205 C195.523,205 200,209.477 200,215 L200,235 C200,240.523 195.523,245 190,245 L170,245 C164.477,245 160,240.523 160,235 L160,215 C160,209.477 164.477,205 170,205 Z" fill="rgba(247,120,255,0.7647058823529411)" stroke="rgba(0,0,0,1)" stroke-width="1"/>
</svg>