<svg xmlns="http://www.w3.org/2000/svg" viewBox="-244.8 -144.8 489.6 389.6">
<path d="M85,65 C85,147.843 17.843,215 -65,215 C-147.843,215 -215,147.843 -215,65 C-215,-17.843 -147.843,-85 -65,-85 C17.843,-85 85,-17.843 85,65 Z" fill="rgba(0,0,0,0)" stroke="rgba(0,0,0,1)" stroke-width="1"/>
<path d="M215,-15 C215,40.228 170.228,85 115,85 C59.772,85 15,40.228 15,-15 C15,-70.228 59.772,-115 115,-115 C170.228,-115 215,-70.228 215,-15 Z" fill="rgba(0,0,0,0)" stroke="rgba(0,0,0,1)" stroke-width="1"/>
<path d="M31.757,-55.923 C31.757,-51.504 28.175,-47.923 23.757,-47.923 C19.338,-47.923 15.757,-51.504 15.757,-55.923 C15.757,-60.341 19.338,-63.923 23.757,-63.923 C28.175,-63.923 31.757,-60.341 31.757,-55.923 Z" fill="rgba(255,0,0,1)"/>
<path d="M92.233,80.149 C92.233,84.568 88.651,88.149 84.233,88.149 C79.815,88.149 76.233,84.568 76.233,80.149 C76.233,75.731 79.815,72.149 84.233,72.149 C88.651,72.149 92.233,75.731 92.233,80.149 Z" fill="rgba(255,0,0,1)"/>
</svg>