<svg xmlns="http://www.w3.org/2000/svg" viewBox="-245.92 -155.92 491.84 401.84">
<path d="M-74.608,-89.1 L-138.52,-126 L-166.58,-126 L-216,-97.467 L-216,-80.733 L-152.55,-44.1 Z" fill="rgba(153,153,153,1)" stroke="rgba(0,0,0,1)" stroke-width="1"/>
<path d="M3.15,-44.1 L-74.792,-89.1 L-10.88,-126 L17.18,-126 L81.092,-89.1 Z" fill="rgba(153,153,153,1)" stroke="rgba(0,0,0,1)" stroke-width="1"/>
<path d="M158.85,-44.1 L80.908,-89.1 L144.82,-126 L172.88,-126 L216,-101.104 L216,-77.096 Z" fill="rgba(153,153,153,1)" stroke="rgba(0,0,0,1)" stroke-width="1"/>
<path d="M-152.458,45.9 L-216,9.214 L-216,82.586 Z" fill="rgba(153,153,153,1)" stroke="rgba(0,0,0,1)" stroke-width="1"/>
<path d="M-74.7,90.9 L-152.642,45.9 L-74.7,0.9 L3.242,45.9 Z" fill="rgba(153,153,153,1)" stroke="rgba(0,0,0,1)" stroke-width="1"/>
<path d="M81,90.9 L3.058,45.9 L81,0.9 L158.942,45.9 Z" fill="rgba(153,153,153,1)" stroke="rgba(0,0,0,1)" stroke-width="1"/>
<path d="M158.758,45.9 L216,12.851 L216,78.949 Z" fill="rgba(153,153,153,1)" stroke="rgba(0,0,0,1)" stroke-width="1"/>
<path d="M-74.608,180 L-152.55,135 L-216,171.633 L-216,188.367 L-168.138,216 L-136.962,216 Z" fill="rgba(153,153,153,1)" stroke="rgba(0,0,0,1)" stroke-width="1"/>
<path d="M81.092,180 L3.15,135 L-74.792,180 L-12.438,216 L18.738,216 Z" fill="rgba(153,153,153,1)" stroke="rgba(0,0,0,1)" stroke-width="1"/>
<path d="M216,192.004 L216,167.996 L158.85,135 L80.908,180 L143.262,216 L174.438,216 Z" fill="rgba(153,153,153,1)" stroke="rgba(0,0,0,1)" stroke-width="1"/>
<path d="M-164.928,-126 L-216,-126 L-216,-96.514 Z" fill="rgba(204,204,204,1)" stroke="rgba(0,0,0,1)" stroke-width="1"/>
<path d="M-9.228,-126 L-74.7,-126 L-74.7,-88.2 Z" fill="rgba(204,204,204,1)" stroke="rgba(0,0,0,1)" stroke-width="1"/>
<path d="M146.472,-126 L81,-126 L81,-88.2 Z" fill="rgba(204,204,204,1)" stroke="rgba(0,0,0,1)" stroke-width="1"/>
<path d="M-74.608,0.9 L-74.608,-89.1 L-152.55,-44.1 L-152.55,45.9 Z" fill="rgba(204,204,204,1)" stroke="rgba(0,0,0,1)" stroke-width="1"/>
<path d="M81.092,0.9 L81.092,-89.1 L3.15,-44.1 L3.15,45.9 Z" fill="rgba(204,204,204,1)" stroke="rgba(0,0,0,1)" stroke-width="1"/>
<path d="M216,12.904 L216,-77.096 L158.85,-44.1 L158.85,45.9 Z" fill="rgba(204,204,204,1)" stroke="rgba(0,0,0,1)" stroke-width="1"/>
<path d="M-152.458,135.9 L-152.458,45.9 L-216,82.586 L-216,172.586 Z" fill="rgba(204,204,204,1)" stroke="rgba(0,0,0,1)" stroke-width="1"/>
<path d="M3.242,135.9 L3.242,45.9 L-74.7,90.9 L-74.7,180.9 Z" fill="rgba(204,204,204,1)" stroke="rgba(0,0,0,1)" stroke-width="1"/>
<path d="M158.942,135.9 L158.942,45.9 L81,90.9 L81,180.9 Z" fill="rgba(204,204,204,1)" stroke="rgba(0,0,0,1)" stroke-width="1"/>
<path d="M-136.962,216 L-74.608,180 L-74.608,216 Z" fill="rgba(204,204,204,1)" stroke="rgba(0,0,0,1)" stroke-width="1"/>
<path d="M18.738,216 L81.092,180 L81.092,216 Z" fill="rgba(204,204,204,1)" stroke="rgba(0,0,0,1)" stroke-width="1"/>
<path d="M174.438,216 L216,192.004 L216,216 Z" fill="rgba(204,204,204,1)" stroke="rgba(0,0,0,1)" stroke-width="1"/>
<path d="M-140.172,-126 L-74.7,-126 L-74.7,-88.2 Z" fill="rgba(255,255,255,1)" stroke="rgba(0,0,0,1)" stroke-width="1"/>
<path d="M15.528,-126 L81,-126 L81,-88.2 Z" fill="rgba(255,255,255,1)" stroke="rgba(0,0,0,1)" stroke-width="1"/>
<path d="M171.228,-126 L216,-126 L216,-100.151 Z" fill="rgba(255,255,255,1)" stroke="rgba(0,0,0,1)" stroke-width="1"/>
<path d="M-152.55,45.9 L-152.55,-44.1 L-216,-80.733 L-216,9.267 Z" fill="rgba(255,255,255,1)" stroke="rgba(0,0,0,1)" stroke-width="1"/>
<path d="M3.15,45.9 L3.15,-44.1 L-74.792,-89.1 L-74.792,0.9 Z" fill="rgba(255,255,255,1)" stroke="rgba(0,0,0,1)" stroke-width="1"/>
<path d="M158.85,45.9 L158.85,-44.1 L80.908,-89.1 L80.908,0.9 Z" fill="rgba(255,255,255,1)" stroke="rgba(0,0,0,1)" stroke-width="1"/>
<path d="M-74.7,180.9 L-74.7,90.9 L-152.642,45.9 L-152.642,135.9 Z" fill="rgba(255,255,255,1)" stroke="rgba(0,0,0,1)" stroke-width="1"/>
<path d="M81,180.9 L81,90.9 L3.058,45.9 L3.058,135.9 Z" fill="rgba(255,255,255,1)" stroke="rgba(0,0,0,1)" stroke-width="1"/>
<path d="M216,168.949 L216,78.949 L158.758,45.9 L158.758,135.9 Z" fill="rgba(255,255,255,1)" stroke="rgba(0,0,0,1)" stroke-width="1"/>
<path d="M-168.138,216 L-216,188.367 L-216,216 Z" fill="rgba(255,255,255,1)" stroke="rgba(0,0,0,1)" stroke-width="1"/>
<path d="M-12.438,216 L-74.792,180 L-74.792,216 Z" fill="rgba(255,255,255,1)" stroke="rgba(0,0,0,1)" stroke-width="1"/>
<path d="M143.262,216 L80.908,180 L80.908,216 Z" fill="rgba(255,255,255,1)" stroke="rgba(0,0,0,1)" stroke-width="1"/>
<path d="M144.135,107.013 L142.929,116.895 L140.967,126.433 L138.289,135.577 L134.937,144.277 L130.948,152.483 L126.365,160.144 L121.226,167.212 L115.572,173.636 L109.443,179.365 L102.878,184.35 L95.918,188.541 L88.603,191.888 L80.973,194.34 L73.067,195.848 L64.926,196.362 L56.786,195.848 L48.88,194.34 L41.25,191.888 L33.935,188.541 L26.975,184.35 L20.41,179.365 L14.281,173.636 L8.627,167.212 L3.488,160.144 L-1.096,152.483 L-5.084,144.277 L-8.437,135.577 L-11.114,126.433 L-13.076,116.895 L-14.283,107.013 L-14.694,96.837 L-14.283,88.697 L-13.076,80.791 L-11.114,73.161 L-8.437,65.846 L-5.084,58.886 L-1.096,52.321 L3.488,46.192 L8.627,40.538 L14.281,35.399 L20.41,30.815 L26.975,26.827 L33.935,23.474 L41.25,20.797 L48.88,18.835 L56.786,17.629 L64.926,17.217 L73.067,17.629 L80.973,18.835 L88.603,20.797 L95.918,23.474 L102.878,26.827 L109.443,30.815 L115.572,35.399 L121.226,40.538 L126.365,46.192 L130.948,52.321 L134.937,58.886 L138.289,65.846 L140.967,73.161 L142.929,80.791 L144.135,88.697 L144.546,96.837 Z" fill="rgba(94,99,255,0.96)"/>
<path d="M53.589,216 L64.926,196.362 L76.264,216 Z" fill="rgba(94,99,255,0.96)"/>
<path d="M90.049,50.048 L89.122,57.646 L87.613,64.978 L85.555,72.008 L82.977,78.697 L79.911,85.006 L76.387,90.896 L72.437,96.33 L68.09,101.268 L63.377,105.673 L58.33,109.506 L52.98,112.728 L47.356,115.301 L41.489,117.186 L35.412,118.345 L29.153,118.741 L22.894,118.345 L16.817,117.186 L10.95,115.301 L5.326,112.728 L-0.024,109.506 L-5.071,105.673 L-9.784,101.268 L-14.131,96.33 L-18.081,90.896 L-21.605,85.006 L-24.671,78.697 L-27.249,72.008 L-29.307,64.978 L-30.816,57.646 L-31.743,50.048 L-32.059,42.225 L-31.743,35.966 L-30.816,29.889 L-29.307,24.022 L-27.249,18.398 L-24.671,13.048 L-21.605,8.001 L-18.081,3.288 L-14.131,-1.059 L-9.784,-5.009 L-5.071,-8.533 L-0.024,-11.599 L5.326,-14.177 L10.95,-16.235 L16.817,-17.744 L22.894,-18.671 L29.153,-18.987 L35.412,-18.671 L41.489,-17.744 L47.356,-16.235 L52.98,-14.177 L58.33,-11.599 L63.377,-8.533 L68.09,-5.009 L72.437,-1.059 L76.387,3.288 L79.911,8.001 L82.977,13.048 L85.555,18.398 L87.613,24.022 L89.122,29.889 L90.049,35.966 L90.365,42.225 Z" fill="rgba(255,94,117,0.96)"/>
<path d="M18.551,137.104 L29.153,118.741 L39.755,137.104 Z" fill="rgba(255,94,117,0.96)"/>
<path d="M29.153,215.42 L29.153,137.104" fill="rgba(0,0,0,0)" stroke="rgba(128,128,128,1)" stroke-width="1"/>
<path d="M-18.3,-126 L-106.475,-126 L-105.599,-124.536 L-101.985,-119.565 L-98.008,-115.047 L-93.697,-111.018 L-89.08,-107.511 L-84.185,-104.564 L-79.04,-102.21 L-73.673,-100.485 L-68.113,-99.424 L-62.388,-99.063 L-56.662,-99.424 L-51.102,-100.485 L-45.735,-102.21 L-40.59,-104.564 L-35.695,-107.511 L-31.078,-111.018 L-26.767,-115.047 L-22.791,-119.565 L-19.176,-124.536 Z" fill="rgba(94,185,255,0.96)"/>
<path d="M-72.087,-82.263 L-62.388,-99.063 L-52.688,-82.263 Z" fill="rgba(94,185,255,0.96)"/>
<path d="M-62.388,29.734 L-62.388,141.732" fill="rgba(0,0,0,0)" stroke="rgba(128,128,128,1)" stroke-width="1"/>
<path d="M-62.388,29.734 L-62.388,-82.263" fill="rgba(0,0,0,0)" stroke="rgba(128,128,128,1)" stroke-width="1"/>
</svg>