<svg xmlns="http://www.w3.org/2000/svg" viewBox="-228 -124 456 356">
<path d="M-200,-96 L-180,-96 L-180,-81 L-200,-81 Z" fill="rgba(222,241,255,1)" stroke="rgba(81,81,81,1)" stroke-width="1"/>
<path d="M-180,-96 L-160,-96 L-160,-81 L-180,-81 Z" fill="rgba(222,241,255,1)" stroke="rgba(81,81,81,1)" stroke-width="1"/>
<path d="M-200,-81 L-180,-81 L-180,-66 L-200,-66 Z" fill="rgba(222,241,255,1)" stroke="rgba(81,81,81,1)" stroke-width="1"/>
<path d="M-160,-96 L-140,-96 L-140,-81 L-160,-81 Z" fill="rgba(222,241,255,1)" stroke="rgba(81,81,81,1)" stroke-width="1"/>
<path d="M-180,-81 L-160,-81 L-160,-66 L-180,-66 Z" fill="rgba(203,230,255,1)" stroke="rgba(81,81,81,1)" stroke-width="1"/>
<path d="M-200,-66 L-180,-66 L-180,-51 L-200,-51 Z" fill="rgba(203,230,255,1)" stroke="rgba(81,81,81,1)" stroke-width="1"/>
<path d="M-140,-96 L-120,-96 L-120,-81 L-140,-81 Z" fill="rgba(203,230,255,1)" stroke="rgba(81,81,81,1)" stroke-width="1"/>
<path d="M-160,-81 L-140,-81 L-140,-66 L-160,-66 Z" fill="rgba(203,230,255,1)" stroke="rgba(81,81,81,1)" stroke-width="1"/>
<path d="M-180,-66 L-160,-66 L-160,-51 L-180,-51 Z" fill="rgba(200,223,255,1)" stroke="rgba(81,81,81,1)" stroke-width="1"/>
<path d="M-140,-81 L-120,-81 L-120,-66 L-140,-66 Z" fill="rgba(200,223,255,1)" stroke="rgba(81,81,81,1)" stroke-width="1"/>
<path d="M-160,-66 L-140,-66 L-140,-51 L-160,-51 Z" fill="rgba(200,223,255,1)" stroke="rgba(81,81,81,1)" stroke-width="1"/>
<path d="M-120,-96 L-100,-96 L-100,-81 L-120,-81 Z" fill="rgba(200,223,255,1)" stroke="rgba(81,81,81,1)" stroke-width="1"/>
<path d="M-200,-51 L-180,-51 L-180,-36 L-200,-36 Z" fill="rgba(218,208,255,1)" stroke="rgba(81,81,81,1)" stroke-width="1"/>
<path d="M-180,-51 L-160,-51 L-160,-36 L-180,-36 Z" fill="rgba(218,208,255,1)" stroke="rgba(81,81,81,1)" stroke-width="1"/>
<path d="M-140,-66 L-120,-66 L-120,-51 L-140,-51 Z" fill="rgba(218,208,255,1)" stroke="rgba(81,81,81,1)" stroke-width="1"/>
<path d="M-120,-81 L-100,-81 L-100,-66 L-120,-66 Z" fill="rgba(218,208,255,1)" stroke="rgba(81,81,81,1)" stroke-width="1"/>
<path d="M-160,-51 L-140,-51 L-140,-36 L-160,-36 Z" fill="rgba(219,206,255,1)" stroke="rgba(81,81,81,1)" stroke-width="1"/>
<path d="M-200,-36 L-180,-36 L-180,-21 L-200,-21 Z" fill="rgba(219,206,255,1)" stroke="rgba(81,81,81,1)" stroke-width="1"/>
<path d="M-100,-96 L-80,-96 L-80,-81 L-100,-81 Z" fill="rgba(219,206,255,1)" stroke="rgba(81,81,81,1)" stroke-width="1"/>
<path d="M-180,-36 L-160,-36 L-160,-21 L-180,-21 Z" fill="rgba(219,206,255,1)" stroke="rgba(81,81,81,1)" stroke-width="1"/>
<path d="M-120,-66 L-100,-66 L-100,-51 L-120,-51 Z" fill="rgba(202,192,255,1)" stroke="rgba(81,81,81,1)" stroke-width="1"/>
<path d="M-140,-51 L-120,-51 L-120,-36 L-140,-36 Z" fill="rgba(202,192,255,1)" stroke="rgba(81,81,81,1)" stroke-width="1"/>
<path d="M-100,-81 L-80,-81 L-80,-66 L-100,-66 Z" fill="rgba(202,192,255,1)" stroke="rgba(81,81,81,1)" stroke-width="1"/>
<path d="M-160,-36 L-140,-36 L-140,-21 L-160,-21 Z" fill="rgba(202,192,255,1)" stroke="rgba(81,81,81,1)" stroke-width="1"/>
<path d="M-200,-21 L-180,-21 L-180,-6 L-200,-6 Z" fill="rgba(195,189,255,1)" stroke="rgba(81,81,81,1)" stroke-width="1"/>
<path d="M-80,-96 L-60,-96 L-60,-81 L-80,-81 Z" fill="rgba(195,189,255,1)" stroke="rgba(81,81,81,1)" stroke-width="1"/>
<path d="M-120,-51 L-100,-51 L-100,-36 L-120,-36 Z" fill="rgba(195,189,255,1)" stroke="rgba(81,81,81,1)" stroke-width="1"/>
<path d="M-180,-21 L-160,-21 L-160,-6 L-180,-6 Z" fill="rgba(195,189,255,1)" stroke="rgba(81,81,81,1)" stroke-width="1"/>
<path d="M-100,-66 L-80,-66 L-80,-51 L-100,-51 Z" fill="rgba(231,211,255,1)" stroke="rgba(81,81,81,1)" stroke-width="1"/>
<path d="M-140,-36 L-120,-36 L-120,-21 L-140,-21 Z" fill="rgba(231,211,255,1)" stroke="rgba(81,81,81,1)" stroke-width="1"/>
<path d="M-80,-81 L-60,-81 L-60,-66 L-80,-66 Z" fill="rgba(231,211,255,1)" stroke="rgba(81,81,81,1)" stroke-width="1"/>
<path d="M-160,-21 L-140,-21 L-140,-6 L-160,-6 Z" fill="rgba(231,211,255,1)" stroke="rgba(81,81,81,1)" stroke-width="1"/>
<path d="M-200,-6 L-180,-6 L-180,9 L-200,9 Z" fill="rgba(232,213,255,1)" stroke="rgba(81,81,81,1)" stroke-width="1"/>
<path d="M-120,-36 L-100,-36 L-100,-21 L-120,-21 Z" fill="rgba(232,213,255,1)" stroke="rgba(81,81,81,1)" stroke-width="1"/>
<path d="M-100,-51 L-80,-51 L-80,-36 L-100,-36 Z" fill="rgba(232,213,255,1)" stroke="rgba(81,81,81,1)" stroke-width="1"/>
<path d="M-60,-96 L-40,-96 L-40,-81 L-60,-81 Z" fill="rgba(232,213,255,1)" stroke="rgba(81,81,81,1)" stroke-width="1"/>
<path d="M-180,-6 L-160,-6 L-160,9 L-180,9 Z" fill="rgba(241,223,255,1)" stroke="rgba(81,81,81,1)" stroke-width="1"/>
<path d="M-140,-21 L-120,-21 L-120,-6 L-140,-6 Z" fill="rgba(241,223,255,1)" stroke="rgba(81,81,81,1)" stroke-width="1"/>
<path d="M-80,-66 L-60,-66 L-60,-51 L-80,-51 Z" fill="rgba(241,223,255,1)" stroke="rgba(81,81,81,1)" stroke-width="1"/>
<path d="M-160,-6 L-140,-6 L-140,9 L-160,9 Z" fill="rgba(241,223,255,1)" stroke="rgba(81,81,81,1)" stroke-width="1"/>
<path d="M-60,-81 L-40,-81 L-40,-66 L-60,-66 Z" fill="rgba(176,200,255,1)" stroke="rgba(81,81,81,1)" stroke-width="1"/>
<path d="M-100,-36 L-80,-36 L-80,-21 L-100,-21 Z" fill="rgba(176,200,255,1)" stroke="rgba(81,81,81,1)" stroke-width="1"/>
<path d="M-120,-21 L-100,-21 L-100,-6 L-120,-6 Z" fill="rgba(176,200,255,1)" stroke="rgba(81,81,81,1)" stroke-width="1"/>
<path d="M-200,9 L-180,9 L-180,24 L-200,24 Z" fill="rgba(176,200,255,1)" stroke="rgba(81,81,81,1)" stroke-width="1"/>
<path d="M-80,-51 L-60,-51 L-60,-36 L-80,-36 Z" fill="rgba(240,220,255,1)" stroke="rgba(81,81,81,1)" stroke-width="1"/>
<path d="M-140,-6 L-120,-6 L-120,9 L-140,9 Z" fill="rgba(240,220,255,1)" stroke="rgba(81,81,81,1)" stroke-width="1"/>
<path d="M-180,9 L-160,9 L-160,24 L-180,24 Z" fill="rgba(240,220,255,1)" stroke="rgba(81,81,81,1)" stroke-width="1"/>
<path d="M-60,-66 L-40,-66 L-40,-51 L-60,-51 Z" fill="rgba(240,220,255,1)" stroke="rgba(81,81,81,1)" stroke-width="1"/>
<path d="M-40,-96 L-20,-96 L-20,-81 L-40,-81 Z" fill="rgba(209,191,255,1)" stroke="rgba(81,81,81,1)" stroke-width="1"/>
<path d="M-160,9 L-140,9 L-140,24 L-160,24 Z" fill="rgba(209,191,255,1)" stroke="rgba(81,81,81,1)" stroke-width="1"/>
<path d="M-100,-21 L-80,-21 L-80,-6 L-100,-6 Z" fill="rgba(209,191,255,1)" stroke="rgba(81,81,81,1)" stroke-width="1"/>
<path d="M-80,-36 L-60,-36 L-60,-21 L-80,-21 Z" fill="rgba(209,191,255,1)" stroke="rgba(81,81,81,1)" stroke-width="1"/>
<path d="M-120,-6 L-100,-6 L-100,9 L-120,9 Z" fill="rgba(174,203,255,1)" stroke="rgba(81,81,81,1)" stroke-width="1"/>
<path d="M-40,-81 L-20,-81 L-20,-66 L-40,-66 Z" fill="rgba(174,203,255,1)" stroke="rgba(81,81,81,1)" stroke-width="1"/>
<path d="M-200,24 L-180,24 L-180,39 L-200,39 Z" fill="rgba(174,203,255,1)" stroke="rgba(81,81,81,1)" stroke-width="1"/>
<path d="M-60,-51 L-40,-51 L-40,-36 L-60,-36 Z" fill="rgba(174,203,255,1)" stroke="rgba(81,81,81,1)" stroke-width="1"/>
<path d="M-140,9 L-120,9 L-120,24 L-140,24 Z" fill="rgba(230,203,255,1)" stroke="rgba(81,81,81,1)" stroke-width="1"/>
<path d="M-180,24 L-160,24 L-160,39 L-180,39 Z" fill="rgba(230,203,255,1)" stroke="rgba(81,81,81,1)" stroke-width="1"/>
<path d="M-40,-66 L-20,-66 L-20,-51 L-40,-51 Z" fill="rgba(230,203,255,1)" stroke="rgba(81,81,81,1)" stroke-width="1"/>
<path d="M-100,-6 L-80,-6 L-80,9 L-100,9 Z" fill="rgba(230,203,255,1)" stroke="rgba(81,81,81,1)" stroke-width="1"/>
<path d="M-80,-21 L-60,-21 L-60,-6 L-80,-6 Z" fill="rgba(175,194,255,1)" stroke="rgba(81,81,81,1)" stroke-width="1"/>
<path d="M-160,24 L-140,24 L-140,39 L-160,39 Z" fill="rgba(175,194,255,1)" stroke="rgba(81,81,81,1)" stroke-width="1"/>
<path d="M-20,-96 L0,-96 L0,-81 L-20,-81 Z" fill="rgba(175,194,255,1)" stroke="rgba(81,81,81,1)" stroke-width="1"/>
<path d="M-120,9 L-100,9 L-100,24 L-120,24 Z" fill="rgba(175,194,255,1)" stroke="rgba(81,81,81,1)" stroke-width="1"/>
<path d="M-60,-36 L-40,-36 L-40,-21 L-60,-21 Z" fill="rgba(182,179,255,1)" stroke="rgba(81,81,81,1)" stroke-width="1"/>
<path d="M-200,39 L-180,39 L-180,54 L-200,54 Z" fill="rgba(182,179,255,1)" stroke="rgba(81,81,81,1)" stroke-width="1"/>
<path d="M-140,24 L-120,24 L-120,39 L-140,39 Z" fill="rgba(182,179,255,1)" stroke="rgba(81,81,81,1)" stroke-width="1"/>
<path d="M-40,-51 L-20,-51 L-20,-36 L-40,-36 Z" fill="rgba(182,179,255,1)" stroke="rgba(81,81,81,1)" stroke-width="1"/>
<path d="M-20,-81 L0,-81 L0,-66 L-20,-66 Z" fill="rgba(172,207,255,1)" stroke="rgba(81,81,81,1)" stroke-width="1"/>
<path d="M-180,39 L-160,39 L-160,54 L-180,54 Z" fill="rgba(172,207,255,1)" stroke="rgba(81,81,81,1)" stroke-width="1"/>
<path d="M-80,-6 L-60,-6 L-60,9 L-80,9 Z" fill="rgba(172,207,255,1)" stroke="rgba(81,81,81,1)" stroke-width="1"/>
<path d="M-100,9 L-80,9 L-80,24 L-100,24 Z" fill="rgba(172,207,255,1)" stroke="rgba(81,81,81,1)" stroke-width="1"/>
<path d="M-60,-21 L-40,-21 L-40,-6 L-60,-6 Z" fill="rgba(236,206,255,1)" stroke="rgba(81,81,81,1)" stroke-width="1"/>
<path d="M-160,39 L-140,39 L-140,54 L-160,54 Z" fill="rgba(236,206,255,1)" stroke="rgba(81,81,81,1)" stroke-width="1"/>
<path d="M-120,24 L-100,24 L-100,39 L-120,39 Z" fill="rgba(236,206,255,1)" stroke="rgba(81,81,81,1)" stroke-width="1"/>
<path d="M-20,-66 L0,-66 L0,-51 L-20,-51 Z" fill="rgba(236,206,255,1)" stroke="rgba(81,81,81,1)" stroke-width="1"/>
<path d="M-40,-36 L-20,-36 L-20,-21 L-40,-21 Z" fill="rgba(180,177,255,1)" stroke="rgba(81,81,81,1)" stroke-width="1"/>
<path d="M0,-96 L20,-96 L20,-81 L0,-81 Z" fill="rgba(180,177,255,1)" stroke="rgba(81,81,81,1)" stroke-width="1"/>
<path d="M-140,39 L-120,39 L-120,54 L-140,54 Z" fill="rgba(180,177,255,1)" stroke="rgba(81,81,81,1)" stroke-width="1"/>
<path d="M-200,54 L-180,54 L-180,69 L-200,69 Z" fill="rgba(180,177,255,1)" stroke="rgba(81,81,81,1)" stroke-width="1"/>
<path d="M-80,9 L-60,9 L-60,24 L-80,24 Z" fill="rgba(171,197,255,1)" stroke="rgba(81,81,81,1)" stroke-width="1"/>
<path d="M-20,-51 L0,-51 L0,-36 L-20,-36 Z" fill="rgba(171,197,255,1)" stroke="rgba(81,81,81,1)" stroke-width="1"/>
<path d="M-60,-6 L-40,-6 L-40,9 L-60,9 Z" fill="rgba(171,197,255,1)" stroke="rgba(81,81,81,1)" stroke-width="1"/>
<path d="M-180,54 L-160,54 L-160,69 L-180,69 Z" fill="rgba(171,197,255,1)" stroke="rgba(81,81,81,1)" stroke-width="1"/>
<path d="M-100,24 L-80,24 L-80,39 L-100,39 Z" fill="rgba(170,209,255,1)" stroke="rgba(81,81,81,1)" stroke-width="1"/>
<path d="M0,-81 L20,-81 L20,-66 L0,-66 Z" fill="rgba(170,209,255,1)" stroke="rgba(81,81,81,1)" stroke-width="1"/>
<path d="M-40,-21 L-20,-21 L-20,-6 L-40,-6 Z" fill="rgba(170,209,255,1)" stroke="rgba(81,81,81,1)" stroke-width="1"/>
<path d="M-120,39 L-100,39 L-100,54 L-120,54 Z" fill="rgba(170,209,255,1)" stroke="rgba(81,81,81,1)" stroke-width="1"/>
<path d="M-160,54 L-140,54 L-140,69 L-160,69 Z" fill="rgba(241,213,255,1)" stroke="rgba(81,81,81,1)" stroke-width="1"/>
<path d="M0,-66 L20,-66 L20,-51 L0,-51 Z" fill="rgba(241,213,255,1)" stroke="rgba(81,81,81,1)" stroke-width="1"/>
<path d="M-20,-36 L0,-36 L0,-21 L-20,-21 Z" fill="rgba(241,213,255,1)" stroke="rgba(81,81,81,1)" stroke-width="1"/>
<path d="M-140,54 L-120,54 L-120,69 L-140,69 Z" fill="rgba(241,213,255,1)" stroke="rgba(81,81,81,1)" stroke-width="1"/>
<path d="M-60,9 L-40,9 L-40,24 L-60,24 Z" fill="rgba(240,210,255,1)" stroke="rgba(81,81,81,1)" stroke-width="1"/>
<path d="M-80,24 L-60,24 L-60,39 L-80,39 Z" fill="rgba(240,210,255,1)" stroke="rgba(81,81,81,1)" stroke-width="1"/>
<path d="M-200,69 L-180,69 L-180,84 L-200,84 Z" fill="rgba(240,210,255,1)" stroke="rgba(81,81,81,1)" stroke-width="1"/>
<path d="M20,-96 L40,-96 L40,-81 L20,-81 Z" fill="rgba(240,210,255,1)" stroke="rgba(81,81,81,1)" stroke-width="1"/>
<path d="M-40,-6 L-20,-6 L-20,9 L-40,9 Z" fill="rgba(215,187,255,1)" stroke="rgba(81,81,81,1)" stroke-width="1"/>
<path d="M-100,39 L-80,39 L-80,54 L-100,54 Z" fill="rgba(215,187,255,1)" stroke="rgba(81,81,81,1)" stroke-width="1"/>
<path d="M-180,69 L-160,69 L-160,84 L-180,84 Z" fill="rgba(215,187,255,1)" stroke="rgba(81,81,81,1)" stroke-width="1"/>
<path d="M0,-51 L20,-51 L20,-36 L0,-36 Z" fill="rgba(215,187,255,1)" stroke="rgba(81,81,81,1)" stroke-width="1"/>
<path d="M-20,-21 L0,-21 L0,-6 L-20,-6 Z" fill="rgba(209,181,255,1)" stroke="rgba(81,81,81,1)" stroke-width="1"/>
<path d="M-120,54 L-100,54 L-100,69 L-120,69 Z" fill="rgba(209,181,255,1)" stroke="rgba(81,81,81,1)" stroke-width="1"/>
<path d="M20,-81 L40,-81 L40,-66 L20,-66 Z" fill="rgba(209,181,255,1)" stroke="rgba(81,81,81,1)" stroke-width="1"/>
<path d="M-160,69 L-140,69 L-140,84 L-160,84 Z" fill="rgba(209,181,255,1)" stroke="rgba(81,81,81,1)" stroke-width="1"/>
<path d="M-60,24 L-40,24 L-40,39 L-60,39 Z" fill="rgba(178,171,255,1)" stroke="rgba(81,81,81,1)" stroke-width="1"/>
<path d="M-80,39 L-60,39 L-60,54 L-80,54 Z" fill="rgba(178,171,255,1)" stroke="rgba(81,81,81,1)" stroke-width="1"/>
<path d="M-40,9 L-20,9 L-20,24 L-40,24 Z" fill="rgba(178,171,255,1)" stroke="rgba(81,81,81,1)" stroke-width="1"/>
<path d="M0,-36 L20,-36 L20,-21 L0,-21 Z" fill="rgba(178,171,255,1)" stroke="rgba(81,81,81,1)" stroke-width="1"/>
<path d="M-140,69 L-120,69 L-120,84 L-140,84 Z" fill="rgba(213,181,255,1)" stroke="rgba(81,81,81,1)" stroke-width="1"/>
<path d="M20,-66 L40,-66 L40,-51 L20,-51 Z" fill="rgba(213,181,255,1)" stroke="rgba(81,81,81,1)" stroke-width="1"/>
<path d="M-100,54 L-80,54 L-80,69 L-100,69 Z" fill="rgba(213,181,255,1)" stroke="rgba(81,81,81,1)" stroke-width="1"/>
<path d="M-200,84 L-180,84 L-180,99 L-200,99 Z" fill="rgba(213,181,255,1)" stroke="rgba(81,81,81,1)" stroke-width="1"/>
<path d="M-20,-6 L0,-6 L0,9 L-20,9 Z" fill="rgba(181,170,255,1)" stroke="rgba(81,81,81,1)" stroke-width="1"/>
<path d="M-180,84 L-160,84 L-160,99 L-180,99 Z" fill="rgba(181,170,255,1)" stroke="rgba(81,81,81,1)" stroke-width="1"/>
<path d="M40,-96 L60,-96 L60,-81 L40,-81 Z" fill="rgba(181,170,255,1)" stroke="rgba(81,81,81,1)" stroke-width="1"/>
<path d="M-120,69 L-100,69 L-100,84 L-120,84 Z" fill="rgba(181,170,255,1)" stroke="rgba(81,81,81,1)" stroke-width="1"/>
<path d="M20,-51 L40,-51 L40,-36 L20,-36 Z" fill="rgba(245,203,255,1)" stroke="rgba(81,81,81,1)" stroke-width="1"/>
<path d="M0,-21 L20,-21 L20,-6 L0,-6 Z" fill="rgba(245,203,255,1)" stroke="rgba(81,81,81,1)" stroke-width="1"/>
<path d="M-160,84 L-140,84 L-140,99 L-160,99 Z" fill="rgba(245,203,255,1)" stroke="rgba(81,81,81,1)" stroke-width="1"/>
<path d="M-60,39 L-40,39 L-40,54 L-60,54 Z" fill="rgba(245,203,255,1)" stroke="rgba(81,81,81,1)" stroke-width="1"/>
<path d="M-40,24 L-20,24 L-20,39 L-40,39 Z" fill="rgba(196,173,255,1)" stroke="rgba(81,81,81,1)" stroke-width="1"/>
<path d="M-80,54 L-60,54 L-60,69 L-80,69 Z" fill="rgba(196,173,255,1)" stroke="rgba(81,81,81,1)" stroke-width="1"/>
<path d="M40,-81 L60,-81 L60,-66 L40,-66 Z" fill="rgba(196,173,255,1)" stroke="rgba(81,81,81,1)" stroke-width="1"/>
<path d="M-20,9 L0,9 L0,24 L-20,24 Z" fill="rgba(196,173,255,1)" stroke="rgba(81,81,81,1)" stroke-width="1"/>
<path d="M-140,84 L-120,84 L-120,99 L-140,99 Z" fill="rgba(180,168,255,1)" stroke="rgba(81,81,81,1)" stroke-width="1"/>
<path d="M-100,69 L-80,69 L-80,84 L-100,84 Z" fill="rgba(180,168,255,1)" stroke="rgba(81,81,81,1)" stroke-width="1"/>
<path d="M20,-36 L40,-36 L40,-21 L20,-21 Z" fill="rgba(180,168,255,1)" stroke="rgba(81,81,81,1)" stroke-width="1"/>
<path d="M-200,99 L-180,99 L-180,114 L-200,114 Z" fill="rgba(180,168,255,1)" stroke="rgba(81,81,81,1)" stroke-width="1"/>
<path d="M0,-6 L20,-6 L20,9 L0,9 Z" fill="rgba(225,184,255,1)" stroke="rgba(81,81,81,1)" stroke-width="1"/>
<path d="M40,-66 L60,-66 L60,-51 L40,-51 Z" fill="rgba(225,184,255,1)" stroke="rgba(81,81,81,1)" stroke-width="1"/>
<path d="M-180,99 L-160,99 L-160,114 L-180,114 Z" fill="rgba(225,184,255,1)" stroke="rgba(81,81,81,1)" stroke-width="1"/>
<path d="M-120,84 L-100,84 L-100,99 L-120,99 Z" fill="rgba(225,184,255,1)" stroke="rgba(81,81,81,1)" stroke-width="1"/>
<path d="M-40,39 L-20,39 L-20,54 L-40,54 Z" fill="rgba(240,193,255,1)" stroke="rgba(81,81,81,1)" stroke-width="1"/>
<path d="M-60,54 L-40,54 L-40,69 L-60,69 Z" fill="rgba(240,193,255,1)" stroke="rgba(81,81,81,1)" stroke-width="1"/>
<path d="M-160,99 L-140,99 L-140,114 L-160,114 Z" fill="rgba(240,193,255,1)" stroke="rgba(81,81,81,1)" stroke-width="1"/>
<path d="M-20,24 L0,24 L0,39 L-20,39 Z" fill="rgba(240,193,255,1)" stroke="rgba(81,81,81,1)" stroke-width="1"/>
<path d="M20,-21 L40,-21 L40,-6 L20,-6 Z" fill="rgba(251,210,255,1)" stroke="rgba(81,81,81,1)" stroke-width="1"/>
<path d="M-80,69 L-60,69 L-60,84 L-80,84 Z" fill="rgba(251,210,255,1)" stroke="rgba(81,81,81,1)" stroke-width="1"/>
<path d="M40,-51 L60,-51 L60,-36 L40,-36 Z" fill="rgba(251,210,255,1)" stroke="rgba(81,81,81,1)" stroke-width="1"/>
<path d="M60,-96 L80,-96 L80,-81 L60,-81 Z" fill="rgba(251,210,255,1)" stroke="rgba(81,81,81,1)" stroke-width="1"/>
<path d="M0,9 L20,9 L20,24 L0,24 Z" fill="rgba(162,173,255,1)" stroke="rgba(81,81,81,1)" stroke-width="1"/>
<path d="M-140,99 L-120,99 L-120,114 L-140,114 Z" fill="rgba(162,173,255,1)" stroke="rgba(81,81,81,1)" stroke-width="1"/>
<path d="M-100,84 L-80,84 L-80,99 L-100,99 Z" fill="rgba(162,173,255,1)" stroke="rgba(81,81,81,1)" stroke-width="1"/>
<path d="M60,-81 L80,-81 L80,-66 L60,-66 Z" fill="rgba(162,173,255,1)" stroke="rgba(81,81,81,1)" stroke-width="1"/>
<path d="M-200,114 L-180,114 L-180,129 L-200,129 Z" fill="rgba(167,163,255,1)" stroke="rgba(81,81,81,1)" stroke-width="1"/>
<path d="M40,-36 L60,-36 L60,-21 L40,-21 Z" fill="rgba(167,163,255,1)" stroke="rgba(81,81,81,1)" stroke-width="1"/>
<path d="M20,-6 L40,-6 L40,9 L20,9 Z" fill="rgba(167,163,255,1)" stroke="rgba(81,81,81,1)" stroke-width="1"/>
<path d="M-40,54 L-20,54 L-20,69 L-40,69 Z" fill="rgba(167,163,255,1)" stroke="rgba(81,81,81,1)" stroke-width="1"/>
<path d="M-180,114 L-160,114 L-160,129 L-180,129 Z" fill="rgba(250,199,255,1)" stroke="rgba(81,81,81,1)" stroke-width="1"/>
<path d="M-60,69 L-40,69 L-40,84 L-60,84 Z" fill="rgba(250,199,255,1)" stroke="rgba(81,81,81,1)" stroke-width="1"/>
<path d="M-20,39 L0,39 L0,54 L-20,54 Z" fill="rgba(250,199,255,1)" stroke="rgba(81,81,81,1)" stroke-width="1"/>
<path d="M-120,99 L-100,99 L-100,114 L-120,114 Z" fill="rgba(250,199,255,1)" stroke="rgba(81,81,81,1)" stroke-width="1"/>
<path d="M60,-66 L80,-66 L80,-51 L60,-51 Z" fill="rgba(156,190,255,1)" stroke="rgba(81,81,81,1)" stroke-width="1"/>
<path d="M-80,84 L-60,84 L-60,99 L-80,99 Z" fill="rgba(156,190,255,1)" stroke="rgba(81,81,81,1)" stroke-width="1"/>
<path d="M0,24 L20,24 L20,39 L0,39 Z" fill="rgba(156,190,255,1)" stroke="rgba(81,81,81,1)" stroke-width="1"/>
<path d="M-160,114 L-140,114 L-140,129 L-160,129 Z" fill="rgba(156,190,255,1)" stroke="rgba(81,81,81,1)" stroke-width="1"/>
<path d="M40,-21 L60,-21 L60,-6 L40,-6 Z" fill="rgba(240,185,255,1)" stroke="rgba(81,81,81,1)" stroke-width="1"/>
<path d="M-100,99 L-80,99 L-80,114 L-100,114 Z" fill="rgba(240,185,255,1)" stroke="rgba(81,81,81,1)" stroke-width="1"/>
<path d="M20,9 L40,9 L40,24 L20,24 Z" fill="rgba(240,185,255,1)" stroke="rgba(81,81,81,1)" stroke-width="1"/>
<path d="M-140,114 L-120,114 L-120,129 L-140,129 Z" fill="rgba(240,185,255,1)" stroke="rgba(81,81,81,1)" stroke-width="1"/>
<path d="M60,-51 L80,-51 L80,-36 L60,-36 Z" fill="rgba(208,169,255,1)" stroke="rgba(81,81,81,1)" stroke-width="1"/>
<path d="M80,-96 L100,-96 L100,-81 L80,-81 Z" fill="rgba(208,169,255,1)" stroke="rgba(81,81,81,1)" stroke-width="1"/>
<path d="M-40,69 L-20,69 L-20,84 L-40,84 Z" fill="rgba(208,169,255,1)" stroke="rgba(81,81,81,1)" stroke-width="1"/>
<path d="M-20,54 L0,54 L0,69 L-20,69 Z" fill="rgba(208,169,255,1)" stroke="rgba(81,81,81,1)" stroke-width="1"/>
<path d="M-200,129 L-180,129 L-180,144 L-200,144 Z" fill="rgba(234,179,255,1)" stroke="rgba(81,81,81,1)" stroke-width="1"/>
<path d="M-60,84 L-40,84 L-40,99 L-60,99 Z" fill="rgba(234,179,255,1)" stroke="rgba(81,81,81,1)" stroke-width="1"/>
<path d="M0,39 L20,39 L20,54 L0,54 Z" fill="rgba(234,179,255,1)" stroke="rgba(81,81,81,1)" stroke-width="1"/>
<path d="M-120,114 L-100,114 L-100,129 L-120,129 Z" fill="rgba(234,179,255,1)" stroke="rgba(81,81,81,1)" stroke-width="1"/>
<path d="M-180,129 L-160,129 L-160,144 L-180,144 Z" fill="rgba(150,179,255,1)" stroke="rgba(81,81,81,1)" stroke-width="1"/>
<path d="M40,-6 L60,-6 L60,9 L40,9 Z" fill="rgba(150,179,255,1)" stroke="rgba(81,81,81,1)" stroke-width="1"/>
<path d="M80,-81 L100,-81 L100,-66 L80,-66 Z" fill="rgba(150,179,255,1)" stroke="rgba(81,81,81,1)" stroke-width="1"/>
<path d="M60,-36 L80,-36 L80,-21 L60,-21 Z" fill="rgba(150,179,255,1)" stroke="rgba(81,81,81,1)" stroke-width="1"/>
<path d="M-80,99 L-60,99 L-60,114 L-80,114 Z" fill="rgba(162,149,255,1)" stroke="rgba(81,81,81,1)" stroke-width="1"/>
<path d="M20,24 L40,24 L40,39 L20,39 Z" fill="rgba(162,149,255,1)" stroke="rgba(81,81,81,1)" stroke-width="1"/>
<path d="M-160,129 L-140,129 L-140,144 L-160,144 Z" fill="rgba(162,149,255,1)" stroke="rgba(81,81,81,1)" stroke-width="1"/>
<path d="M80,-66 L100,-66 L100,-51 L80,-51 Z" fill="rgba(162,149,255,1)" stroke="rgba(81,81,81,1)" stroke-width="1"/>
<path d="M-100,114 L-80,114 L-80,129 L-100,129 Z" fill="rgba(218,160,255,1)" stroke="rgba(81,81,81,1)" stroke-width="1"/>
<path d="M-140,129 L-120,129 L-120,144 L-140,144 Z" fill="rgba(218,160,255,1)" stroke="rgba(81,81,81,1)" stroke-width="1"/>
<path d="M60,-21 L80,-21 L80,-6 L60,-6 Z" fill="rgba(218,160,255,1)" stroke="rgba(81,81,81,1)" stroke-width="1"/>
<path d="M-20,69 L0,69 L0,84 L-20,84 Z" fill="rgba(218,160,255,1)" stroke="rgba(81,81,81,1)" stroke-width="1"/>
<path d="M-40,84 L-20,84 L-20,99 L-40,99 Z" fill="rgba(171,149,255,1)" stroke="rgba(81,81,81,1)" stroke-width="1"/>
<path d="M40,9 L60,9 L60,24 L40,24 Z" fill="rgba(171,149,255,1)" stroke="rgba(81,81,81,1)" stroke-width="1"/>
<path d="M0,54 L20,54 L20,69 L0,69 Z" fill="rgba(171,149,255,1)" stroke="rgba(81,81,81,1)" stroke-width="1"/>
<path d="M-60,99 L-40,99 L-40,114 L-60,114 Z" fill="rgba(171,149,255,1)" stroke="rgba(81,81,81,1)" stroke-width="1"/>
<path d="M80,-51 L100,-51 L100,-36 L80,-36 Z" fill="rgba(249,173,255,1)" stroke="rgba(81,81,81,1)" stroke-width="1"/>
<path d="M-200,144 L-180,144 L-180,159 L-200,159 Z" fill="rgba(249,173,255,1)" stroke="rgba(81,81,81,1)" stroke-width="1"/>
<path d="M20,39 L40,39 L40,54 L20,54 Z" fill="rgba(249,173,255,1)" stroke="rgba(81,81,81,1)" stroke-width="1"/>
<path d="M-120,129 L-100,129 L-100,144 L-120,144 Z" fill="rgba(249,173,255,1)" stroke="rgba(81,81,81,1)" stroke-width="1"/>
<path d="M100,-96 L120,-96 L120,-81 L100,-81 Z" fill="rgba(254,176,255,1)" stroke="rgba(81,81,81,1)" stroke-width="1"/>
<path d="M-180,144 L-160,144 L-160,159 L-180,159 Z" fill="rgba(254,176,255,1)" stroke="rgba(81,81,81,1)" stroke-width="1"/>
<path d="M-80,114 L-60,114 L-60,129 L-80,129 Z" fill="rgba(254,176,255,1)" stroke="rgba(81,81,81,1)" stroke-width="1"/>
<path d="M60,-6 L80,-6 L80,9 L60,9 Z" fill="rgba(254,176,255,1)" stroke="rgba(81,81,81,1)" stroke-width="1"/>
<path d="M-160,144 L-140,144 L-140,159 L-160,159 Z" fill="rgba(156,145,255,1)" stroke="rgba(81,81,81,1)" stroke-width="1"/>
<path d="M40,24 L60,24 L60,39 L40,39 Z" fill="rgba(156,145,255,1)" stroke="rgba(81,81,81,1)" stroke-width="1"/>
<path d="M80,-36 L100,-36 L100,-21 L80,-21 Z" fill="rgba(156,145,255,1)" stroke="rgba(81,81,81,1)" stroke-width="1"/>
<path d="M100,-81 L120,-81 L120,-66 L100,-66 Z" fill="rgba(156,145,255,1)" stroke="rgba(81,81,81,1)" stroke-width="1"/>
<path d="M-20,84 L0,84 L0,99 L-20,99 Z" fill="rgba(201,152,255,1)" stroke="rgba(81,81,81,1)" stroke-width="1"/>
<path d="M-100,129 L-80,129 L-80,144 L-100,144 Z" fill="rgba(201,152,255,1)" stroke="rgba(81,81,81,1)" stroke-width="1"/>
<path d="M0,69 L20,69 L20,84 L0,84 Z" fill="rgba(201,152,255,1)" stroke="rgba(81,81,81,1)" stroke-width="1"/>
<path d="M-40,99 L-20,99 L-20,114 L-40,114 Z" fill="rgba(201,152,255,1)" stroke="rgba(81,81,81,1)" stroke-width="1"/>
<path d="M-140,144 L-120,144 L-120,159 L-140,159 Z" fill="rgba(255,175,252,1)" stroke="rgba(81,81,81,1)" stroke-width="1"/>
<path d="M20,54 L40,54 L40,69 L20,69 Z" fill="rgba(255,175,252,1)" stroke="rgba(81,81,81,1)" stroke-width="1"/>
<path d="M100,-66 L120,-66 L120,-51 L100,-51 Z" fill="rgba(255,175,252,1)" stroke="rgba(81,81,81,1)" stroke-width="1"/>
<path d="M-60,114 L-40,114 L-40,129 L-60,129 Z" fill="rgba(255,175,252,1)" stroke="rgba(81,81,81,1)" stroke-width="1"/>
<path d="M60,9 L80,9 L80,24 L60,24 Z" fill="rgba(166,146,255,1)" stroke="rgba(81,81,81,1)" stroke-width="1"/>
<path d="M80,-21 L100,-21 L100,-6 L80,-6 Z" fill="rgba(166,146,255,1)" stroke="rgba(81,81,81,1)" stroke-width="1"/>
<path d="M-200,159 L-180,159 L-180,174 L-200,174 Z" fill="rgba(166,146,255,1)" stroke="rgba(81,81,81,1)" stroke-width="1"/>
<path d="M40,39 L60,39 L60,54 L40,54 Z" fill="rgba(166,146,255,1)" stroke="rgba(81,81,81,1)" stroke-width="1"/>
<path d="M-120,144 L-100,144 L-100,159 L-120,159 Z" fill="rgba(139,181,255,1)" stroke="rgba(81,81,81,1)" stroke-width="1"/>
<path d="M-80,129 L-60,129 L-60,144 L-80,144 Z" fill="rgba(139,181,255,1)" stroke="rgba(81,81,81,1)" stroke-width="1"/>
<path d="M-180,159 L-160,159 L-160,174 L-180,174 Z" fill="rgba(139,181,255,1)" stroke="rgba(81,81,81,1)" stroke-width="1"/>
<path d="M100,-51 L120,-51 L120,-36 L100,-36 Z" fill="rgba(139,181,255,1)" stroke="rgba(81,81,81,1)" stroke-width="1"/>
<path d="M-20,99 L0,99 L0,114 L-20,114 Z" fill="rgba(194,149,255,1)" stroke="rgba(81,81,81,1)" stroke-width="1"/>
<path d="M0,84 L20,84 L20,99 L0,99 Z" fill="rgba(194,149,255,1)" stroke="rgba(81,81,81,1)" stroke-width="1"/>
<path d="M-160,159 L-140,159 L-140,174 L-160,174 Z" fill="rgba(194,149,255,1)" stroke="rgba(81,81,81,1)" stroke-width="1"/>
<path d="M120,-96 L140,-96 L140,-81 L120,-81 Z" fill="rgba(194,149,255,1)" stroke="rgba(81,81,81,1)" stroke-width="1"/>
<path d="M80,-6 L100,-6 L100,9 L80,9 Z" fill="rgba(228,154,255,1)" stroke="rgba(81,81,81,1)" stroke-width="1"/>
<path d="M60,24 L80,24 L80,39 L60,39 Z" fill="rgba(228,154,255,1)" stroke="rgba(81,81,81,1)" stroke-width="1"/>
<path d="M-40,114 L-20,114 L-20,129 L-40,129 Z" fill="rgba(228,154,255,1)" stroke="rgba(81,81,81,1)" stroke-width="1"/>
<path d="M20,69 L40,69 L40,84 L20,84 Z" fill="rgba(228,154,255,1)" stroke="rgba(81,81,81,1)" stroke-width="1"/>
<path d="M-100,144 L-80,144 L-80,159 L-100,159 Z" fill="rgba(255,163,255,1)" stroke="rgba(81,81,81,1)" stroke-width="1"/>
<path d="M100,-36 L120,-36 L120,-21 L100,-21 Z" fill="rgba(255,163,255,1)" stroke="rgba(81,81,81,1)" stroke-width="1"/>
<path d="M-140,159 L-120,159 L-120,174 L-140,174 Z" fill="rgba(255,163,255,1)" stroke="rgba(81,81,81,1)" stroke-width="1"/>
<path d="M-60,129 L-40,129 L-40,144 L-60,144 Z" fill="rgba(255,163,255,1)" stroke="rgba(81,81,81,1)" stroke-width="1"/>
<path d="M120,-81 L140,-81 L140,-66 L120,-66 Z" fill="rgba(134,149,255,1)" stroke="rgba(81,81,81,1)" stroke-width="1"/>
<path d="M40,54 L60,54 L60,69 L40,69 Z" fill="rgba(134,149,255,1)" stroke="rgba(81,81,81,1)" stroke-width="1"/>
<path d="M80,9 L100,9 L100,24 L80,24 Z" fill="rgba(134,149,255,1)" stroke="rgba(81,81,81,1)" stroke-width="1"/>
<path d="M-80,144 L-60,144 L-60,159 L-80,159 Z" fill="rgba(134,149,255,1)" stroke="rgba(81,81,81,1)" stroke-width="1"/>
<path d="M-200,174 L-180,174 L-180,189 L-200,189 Z" fill="rgba(255,163,249,1)" stroke="rgba(81,81,81,1)" stroke-width="1"/>
<path d="M-120,159 L-100,159 L-100,174 L-120,174 Z" fill="rgba(255,163,249,1)" stroke="rgba(81,81,81,1)" stroke-width="1"/>
<path d="M120,-66 L140,-66 L140,-51 L120,-51 Z" fill="rgba(255,163,249,1)" stroke="rgba(81,81,81,1)" stroke-width="1"/>
<path d="M100,-21 L120,-21 L120,-6 L100,-6 Z" fill="rgba(255,163,249,1)" stroke="rgba(81,81,81,1)" stroke-width="1"/>
<path d="M60,39 L80,39 L80,54 L60,54 Z" fill="rgba(251,157,255,1)" stroke="rgba(81,81,81,1)" stroke-width="1"/>
<path d="M0,99 L20,99 L20,114 L0,114 Z" fill="rgba(251,157,255,1)" stroke="rgba(81,81,81,1)" stroke-width="1"/>
<path d="M-180,174 L-160,174 L-160,189 L-180,189 Z" fill="rgba(240,152,255,1)" stroke="rgba(81,81,81,1)" stroke-width="1"/>
<path d="M-20,114 L0,114 L0,129 L-20,129 Z" fill="rgba(240,152,255,1)" stroke="rgba(81,81,81,1)" stroke-width="1"/>
<path d="M20,84 L40,84 L40,99 L20,99 Z" fill="rgba(240,152,255,1)" stroke="rgba(81,81,81,1)" stroke-width="1"/>
<path d="M-40,129 L-20,129 L-20,144 L-40,144 Z" fill="rgba(240,152,255,1)" stroke="rgba(81,81,81,1)" stroke-width="1"/>
<path d="M-160,174 L-140,174 L-140,189 L-160,189 Z" fill="rgba(255,158,254,1)" stroke="rgba(81,81,81,1)" stroke-width="1"/>
<path d="M120,-51 L140,-51 L140,-36 L120,-36 Z" fill="rgba(255,158,254,1)" stroke="rgba(81,81,81,1)" stroke-width="1"/>
<path d="M40,69 L60,69 L60,84 L40,84 Z" fill="rgba(255,158,254,1)" stroke="rgba(81,81,81,1)" stroke-width="1"/>
<path d="M-100,159 L-80,159 L-80,174 L-100,174 Z" fill="rgba(255,158,254,1)" stroke="rgba(81,81,81,1)" stroke-width="1"/>
<path d="M80,24 L100,24 L100,39 L80,39 Z" fill="rgba(129,201,255,1)" stroke="rgba(81,81,81,1)" stroke-width="1"/>
<path d="M100,-6 L120,-6 L120,9 L100,9 Z" fill="rgba(129,201,255,1)" stroke="rgba(81,81,81,1)" stroke-width="1"/>
<path d="M-60,144 L-40,144 L-40,159 L-60,159 Z" fill="rgba(129,201,255,1)" stroke="rgba(81,81,81,1)" stroke-width="1"/>
<path d="M-140,174 L-120,174 L-120,189 L-140,189 Z" fill="rgba(129,201,255,1)" stroke="rgba(81,81,81,1)" stroke-width="1"/>
<path d="M140,-96 L160,-96 L160,-81 L140,-81 Z" fill="rgba(237,145,255,1)" stroke="rgba(81,81,81,1)" stroke-width="1"/>
<path d="M60,54 L80,54 L80,69 L60,69 Z" fill="rgba(237,145,255,1)" stroke="rgba(81,81,81,1)" stroke-width="1"/>
<path d="M120,-36 L140,-36 L140,-21 L120,-21 Z" fill="rgba(237,145,255,1)" stroke="rgba(81,81,81,1)" stroke-width="1"/>
<path d="M-80,159 L-60,159 L-60,174 L-80,174 Z" fill="rgba(237,145,255,1)" stroke="rgba(81,81,81,1)" stroke-width="1"/>
<path d="M0,114 L20,114 L20,129 L0,129 Z" fill="rgba(235,143,255,1)" stroke="rgba(81,81,81,1)" stroke-width="1"/>
<path d="M140,-81 L160,-81 L160,-66 L140,-66 Z" fill="rgba(235,143,255,1)" stroke="rgba(81,81,81,1)" stroke-width="1"/>
<path d="M-120,174 L-100,174 L-100,189 L-120,189 Z" fill="rgba(235,143,255,1)" stroke="rgba(81,81,81,1)" stroke-width="1"/>
<path d="M20,99 L40,99 L40,114 L20,114 Z" fill="rgba(235,143,255,1)" stroke="rgba(81,81,81,1)" stroke-width="1"/>
<path d="M-200,189 L-180,189 L-180,204 L-200,204 Z" fill="rgba(123,172,255,1)" stroke="rgba(81,81,81,1)" stroke-width="1"/>
<path d="M-20,129 L0,129 L0,144 L-20,144 Z" fill="rgba(123,172,255,1)" stroke="rgba(81,81,81,1)" stroke-width="1"/>
<path d="M100,9 L120,9 L120,24 L100,24 Z" fill="rgba(123,172,255,1)" stroke="rgba(81,81,81,1)" stroke-width="1"/>
<path d="M80,39 L100,39 L100,54 L80,54 Z" fill="rgba(123,172,255,1)" stroke="rgba(81,81,81,1)" stroke-width="1"/>
<path d="M40,84 L60,84 L60,99 L40,99 Z" fill="rgba(244,143,255,1)" stroke="rgba(81,81,81,1)" stroke-width="1"/>
<path d="M-180,189 L-160,189 L-160,204 L-180,204 Z" fill="rgba(244,143,255,1)" stroke="rgba(81,81,81,1)" stroke-width="1"/>
<path d="M-40,144 L-20,144 L-20,159 L-40,159 Z" fill="rgba(244,143,255,1)" stroke="rgba(81,81,81,1)" stroke-width="1"/>
<path d="M120,-21 L140,-21 L140,-6 L120,-6 Z" fill="rgba(244,143,255,1)" stroke="rgba(81,81,81,1)" stroke-width="1"/>
<path d="M140,-66 L160,-66 L160,-51 L140,-51 Z" fill="rgba(248,143,255,1)" stroke="rgba(81,81,81,1)" stroke-width="1"/>
<path d="M-160,189 L-140,189 L-140,204 L-160,204 Z" fill="rgba(248,143,255,1)" stroke="rgba(81,81,81,1)" stroke-width="1"/>
<path d="M60,69 L80,69 L80,84 L60,84 Z" fill="rgba(248,143,255,1)" stroke="rgba(81,81,81,1)" stroke-width="1"/>
<path d="M-100,174 L-80,174 L-80,189 L-100,189 Z" fill="rgba(248,143,255,1)" stroke="rgba(81,81,81,1)" stroke-width="1"/>
<path d="M-60,159 L-40,159 L-40,174 L-60,174 Z" fill="rgba(185,130,255,1)" stroke="rgba(81,81,81,1)" stroke-width="1"/>
<path d="M100,24 L120,24 L120,39 L100,39 Z" fill="rgba(185,130,255,1)" stroke="rgba(81,81,81,1)" stroke-width="1"/>
<path d="M-140,189 L-120,189 L-120,204 L-140,204 Z" fill="rgba(185,130,255,1)" stroke="rgba(81,81,81,1)" stroke-width="1"/>
<path d="M140,-51 L160,-51 L160,-36 L140,-36 Z" fill="rgba(185,130,255,1)" stroke="rgba(81,81,81,1)" stroke-width="1"/>
<path d="M120,-6 L140,-6 L140,9 L120,9 Z" fill="rgba(230,138,255,1)" stroke="rgba(81,81,81,1)" stroke-width="1"/>
<path d="M80,54 L100,54 L100,69 L80,69 Z" fill="rgba(230,138,255,1)" stroke="rgba(81,81,81,1)" stroke-width="1"/>
<path d="M20,114 L40,114 L40,129 L20,129 Z" fill="rgba(230,138,255,1)" stroke="rgba(81,81,81,1)" stroke-width="1"/>
<path d="M0,129 L20,129 L20,144 L0,144 Z" fill="rgba(230,138,255,1)" stroke="rgba(81,81,81,1)" stroke-width="1"/>
<path d="M-80,174 L-60,174 L-60,189 L-80,189 Z" fill="rgba(188,130,255,1)" stroke="rgba(81,81,81,1)" stroke-width="1"/>
<path d="M40,99 L60,99 L60,114 L40,114 Z" fill="rgba(188,130,255,1)" stroke="rgba(81,81,81,1)" stroke-width="1"/>
<path d="M-20,144 L0,144 L0,159 L-20,159 Z" fill="rgba(188,130,255,1)" stroke="rgba(81,81,81,1)" stroke-width="1"/>
<path d="M-120,189 L-100,189 L-100,204 L-120,204 Z" fill="rgba(188,130,255,1)" stroke="rgba(81,81,81,1)" stroke-width="1"/>
<path d="M160,-96 L180,-96 L180,-81 L160,-81 Z" fill="rgba(119,187,255,1)" stroke="rgba(81,81,81,1)" stroke-width="1"/>
<path d="M140,-36 L160,-36 L160,-21 L140,-21 Z" fill="rgba(119,187,255,1)" stroke="rgba(81,81,81,1)" stroke-width="1"/>
<path d="M60,84 L80,84 L80,99 L60,99 Z" fill="rgba(119,187,255,1)" stroke="rgba(81,81,81,1)" stroke-width="1"/>
<path d="M-40,159 L-20,159 L-20,174 L-40,174 Z" fill="rgba(119,187,255,1)" stroke="rgba(81,81,81,1)" stroke-width="1"/>
<path d="M100,39 L120,39 L120,54 L100,54 Z" fill="rgba(201,130,255,1)" stroke="rgba(81,81,81,1)" stroke-width="1"/>
<path d="M120,9 L140,9 L140,24 L120,24 Z" fill="rgba(201,130,255,1)" stroke="rgba(81,81,81,1)" stroke-width="1"/>
<path d="M160,-81 L180,-81 L180,-66 L160,-66 Z" fill="rgba(201,130,255,1)" stroke="rgba(81,81,81,1)" stroke-width="1"/>
<path d="M-100,189 L-80,189 L-80,204 L-100,204 Z" fill="rgba(201,130,255,1)" stroke="rgba(81,81,81,1)" stroke-width="1"/>
<path d="M80,69 L100,69 L100,84 L80,84 Z" fill="rgba(239,136,255,1)" stroke="rgba(81,81,81,1)" stroke-width="1"/>
<path d="M-60,174 L-40,174 L-40,189 L-60,189 Z" fill="rgba(239,136,255,1)" stroke="rgba(81,81,81,1)" stroke-width="1"/>
<path d="M140,-21 L160,-21 L160,-6 L140,-6 Z" fill="rgba(239,136,255,1)" stroke="rgba(81,81,81,1)" stroke-width="1"/>
<path d="M20,129 L40,129 L40,144 L20,144 Z" fill="rgba(239,136,255,1)" stroke="rgba(81,81,81,1)" stroke-width="1"/>
<path d="M160,-66 L180,-66 L180,-51 L160,-51 Z" fill="rgba(243,137,255,1)" stroke="rgba(81,81,81,1)" stroke-width="1"/>
<path d="M0,144 L20,144 L20,159 L0,159 Z" fill="rgba(243,137,255,1)" stroke="rgba(81,81,81,1)" stroke-width="1"/>
<path d="M40,114 L60,114 L60,129 L40,129 Z" fill="rgba(243,137,255,1)" stroke="rgba(81,81,81,1)" stroke-width="1"/>
<path d="M-20,159 L0,159 L0,174 L-20,174 Z" fill="rgba(243,137,255,1)" stroke="rgba(81,81,81,1)" stroke-width="1"/>
<path d="M120,24 L140,24 L140,39 L120,39 Z" fill="rgba(116,134,255,1)" stroke="rgba(81,81,81,1)" stroke-width="1"/>
<path d="M60,99 L80,99 L80,114 L60,114 Z" fill="rgba(116,134,255,1)" stroke="rgba(81,81,81,1)" stroke-width="1"/>
<path d="M100,54 L120,54 L120,69 L100,69 Z" fill="rgba(116,134,255,1)" stroke="rgba(81,81,81,1)" stroke-width="1"/>
<path d="M-80,189 L-60,189 L-60,204 L-80,204 Z" fill="rgba(116,134,255,1)" stroke="rgba(81,81,81,1)" stroke-width="1"/>
<path d="M160,-51 L180,-51 L180,-36 L160,-36 Z" fill="rgba(255,139,247,1)" stroke="rgba(81,81,81,1)" stroke-width="1"/>
<path d="M140,-6 L160,-6 L160,9 L140,9 Z" fill="rgba(255,139,247,1)" stroke="rgba(81,81,81,1)" stroke-width="1"/>
<path d="M-40,174 L-20,174 L-20,189 L-40,189 Z" fill="rgba(255,139,247,1)" stroke="rgba(81,81,81,1)" stroke-width="1"/>
<path d="M80,84 L100,84 L100,99 L80,99 Z" fill="rgba(255,139,247,1)" stroke="rgba(81,81,81,1)" stroke-width="1"/>
<path d="M160,-36 L180,-36 L180,-21 L160,-21 Z" fill="rgba(216,123,255,1)" stroke="rgba(81,81,81,1)" stroke-width="1"/>
<path d="M180,-96 L200,-96 L200,-81 L180,-81 Z" fill="rgba(216,123,255,1)" stroke="rgba(81,81,81,1)" stroke-width="1"/>
<path d="M120,39 L140,39 L140,54 L120,54 Z" fill="rgba(216,123,255,1)" stroke="rgba(81,81,81,1)" stroke-width="1"/>
<path d="M-60,189 L-40,189 L-40,204 L-60,204 Z" fill="rgba(216,123,255,1)" stroke="rgba(81,81,81,1)" stroke-width="1"/>
<path d="M20,144 L40,144 L40,159 L20,159 Z" fill="rgba(119,111,255,1)" stroke="rgba(81,81,81,1)" stroke-width="1"/>
<path d="M140,9 L160,9 L160,24 L140,24 Z" fill="rgba(119,111,255,1)" stroke="rgba(81,81,81,1)" stroke-width="1"/>
<path d="M40,129 L60,129 L60,144 L40,144 Z" fill="rgba(119,111,255,1)" stroke="rgba(81,81,81,1)" stroke-width="1"/>
<path d="M100,69 L120,69 L120,84 L100,84 Z" fill="rgba(119,111,255,1)" stroke="rgba(81,81,81,1)" stroke-width="1"/>
<path d="M0,159 L20,159 L20,174 L0,174 Z" fill="rgba(108,178,255,1)" stroke="rgba(81,81,81,1)" stroke-width="1"/>
<path d="M60,114 L80,114 L80,129 L60,129 Z" fill="rgba(108,178,255,1)" stroke="rgba(81,81,81,1)" stroke-width="1"/>
<path d="M180,-81 L200,-81 L200,-66 L180,-66 Z" fill="rgba(108,178,255,1)" stroke="rgba(81,81,81,1)" stroke-width="1"/>
<path d="M-20,174 L0,174 L0,189 L-20,189 Z" fill="rgba(108,178,255,1)" stroke="rgba(81,81,81,1)" stroke-width="1"/>
<path d="M160,-21 L180,-21 L180,-6 L160,-6 Z" fill="rgba(150,113,255,1)" stroke="rgba(81,81,81,1)" stroke-width="1"/>
<path d="M80,99 L100,99 L100,114 L80,114 Z" fill="rgba(150,113,255,1)" stroke="rgba(81,81,81,1)" stroke-width="1"/>
<path d="M180,-66 L200,-66 L200,-51 L180,-51 Z" fill="rgba(150,113,255,1)" stroke="rgba(81,81,81,1)" stroke-width="1"/>
<path d="M120,54 L140,54 L140,69 L120,69 Z" fill="rgba(150,113,255,1)" stroke="rgba(81,81,81,1)" stroke-width="1"/>
<path d="M-40,189 L-20,189 L-20,204 L-40,204 Z" fill="rgba(213,120,255,1)" stroke="rgba(81,81,81,1)" stroke-width="1"/>
<path d="M140,24 L160,24 L160,39 L140,39 Z" fill="rgba(213,120,255,1)" stroke="rgba(81,81,81,1)" stroke-width="1"/>
<path d="M100,84 L120,84 L120,99 L100,99 Z" fill="rgba(213,120,255,1)" stroke="rgba(81,81,81,1)" stroke-width="1"/>
<path d="M160,-6 L180,-6 L180,9 L160,9 Z" fill="rgba(213,120,255,1)" stroke="rgba(81,81,81,1)" stroke-width="1"/>
<path d="M180,-51 L200,-51 L200,-36 L180,-36 Z" fill="rgba(108,116,255,1)" stroke="rgba(81,81,81,1)" stroke-width="1"/>
<path d="M40,144 L60,144 L60,159 L40,159 Z" fill="rgba(108,116,255,1)" stroke="rgba(81,81,81,1)" stroke-width="1"/>
<path d="M20,159 L40,159 L40,174 L20,174 Z" fill="rgba(108,116,255,1)" stroke="rgba(81,81,81,1)" stroke-width="1"/>
<path d="M60,129 L80,129 L80,144 L60,144 Z" fill="rgba(108,116,255,1)" stroke="rgba(81,81,81,1)" stroke-width="1"/>
<path d="M0,174 L20,174 L20,189 L0,189 Z" fill="rgba(230,121,255,1)" stroke="rgba(81,81,81,1)" stroke-width="1"/>
<path d="M140,39 L160,39 L160,54 L140,54 Z" fill="rgba(230,121,255,1)" stroke="rgba(81,81,81,1)" stroke-width="1"/>
<path d="M80,114 L100,114 L100,129 L80,129 Z" fill="rgba(230,121,255,1)" stroke="rgba(81,81,81,1)" stroke-width="1"/>
<path d="M120,69 L140,69 L140,84 L120,84 Z" fill="rgba(230,121,255,1)" stroke="rgba(81,81,81,1)" stroke-width="1"/>
<path d="M-20,189 L0,189 L0,204 L-20,204 Z" fill="rgba(103,165,255,1)" stroke="rgba(81,81,81,1)" stroke-width="1"/>
<path d="M180,-36 L200,-36 L200,-21 L180,-21 Z" fill="rgba(103,165,255,1)" stroke="rgba(81,81,81,1)" stroke-width="1"/>
<path d="M160,9 L180,9 L180,24 L160,24 Z" fill="rgba(103,165,255,1)" stroke="rgba(81,81,81,1)" stroke-width="1"/>
<path d="M100,99 L120,99 L120,114 L100,114 Z" fill="rgba(103,165,255,1)" stroke="rgba(81,81,81,1)" stroke-width="1"/>
<path d="M180,-21 L200,-21 L200,-6 L180,-6 Z" fill="rgba(226,117,255,1)" stroke="rgba(81,81,81,1)" stroke-width="1"/>
<path d="M140,54 L160,54 L160,69 L140,69 Z" fill="rgba(226,117,255,1)" stroke="rgba(81,81,81,1)" stroke-width="1"/>
<path d="M40,159 L60,159 L60,174 L40,174 Z" fill="rgba(226,117,255,1)" stroke="rgba(81,81,81,1)" stroke-width="1"/>
<path d="M20,174 L40,174 L40,189 L20,189 Z" fill="rgba(226,117,255,1)" stroke="rgba(81,81,81,1)" stroke-width="1"/>
<path d="M60,144 L80,144 L80,159 L60,159 Z" fill="rgba(160,103,255,1)" stroke="rgba(81,81,81,1)" stroke-width="1"/>
<path d="M160,24 L180,24 L180,39 L160,39 Z" fill="rgba(160,103,255,1)" stroke="rgba(81,81,81,1)" stroke-width="1"/>
<path d="M120,84 L140,84 L140,99 L120,99 Z" fill="rgba(160,103,255,1)" stroke="rgba(81,81,81,1)" stroke-width="1"/>
<path d="M0,189 L20,189 L20,204 L0,204 Z" fill="rgba(160,103,255,1)" stroke="rgba(81,81,81,1)" stroke-width="1"/>
<path d="M80,129 L100,129 L100,144 L80,144 Z" fill="rgba(98,107,255,1)" stroke="rgba(81,81,81,1)" stroke-width="1"/>
<path d="M180,-6 L200,-6 L200,9 L180,9 Z" fill="rgba(98,107,255,1)" stroke="rgba(81,81,81,1)" stroke-width="1"/>
<path d="M100,114 L120,114 L120,129 L100,129 Z" fill="rgba(98,107,255,1)" stroke="rgba(81,81,81,1)" stroke-width="1"/>
<path d="M140,69 L160,69 L160,84 L140,84 Z" fill="rgba(98,107,255,1)" stroke="rgba(81,81,81,1)" stroke-width="1"/>
<path d="M160,39 L180,39 L180,54 L160,54 Z" fill="rgba(143,99,255,1)" stroke="rgba(81,81,81,1)" stroke-width="1"/>
<path d="M120,99 L140,99 L140,114 L120,114 Z" fill="rgba(143,99,255,1)" stroke="rgba(81,81,81,1)" stroke-width="1"/>
<path d="M180,9 L200,9 L200,24 L180,24 Z" fill="rgba(143,99,255,1)" stroke="rgba(81,81,81,1)" stroke-width="1"/>
<path d="M40,174 L60,174 L60,189 L40,189 Z" fill="rgba(143,99,255,1)" stroke="rgba(81,81,81,1)" stroke-width="1"/>
<path d="M60,159 L80,159 L80,174 L60,174 Z" fill="rgba(155,100,255,1)" stroke="rgba(81,81,81,1)" stroke-width="1"/>
<path d="M20,189 L40,189 L40,204 L20,204 Z" fill="rgba(155,100,255,1)" stroke="rgba(81,81,81,1)" stroke-width="1"/>
<path d="M80,144 L100,144 L100,159 L80,159 Z" fill="rgba(155,100,255,1)" stroke="rgba(81,81,81,1)" stroke-width="1"/>
<path d="M160,54 L180,54 L180,69 L160,69 Z" fill="rgba(155,100,255,1)" stroke="rgba(81,81,81,1)" stroke-width="1"/>
<path d="M100,129 L120,129 L120,144 L100,144 Z" fill="rgba(182,101,255,1)" stroke="rgba(81,81,81,1)" stroke-width="1"/>
<path d="M140,84 L160,84 L160,99 L140,99 Z" fill="rgba(182,101,255,1)" stroke="rgba(81,81,81,1)" stroke-width="1"/>
<path d="M180,24 L200,24 L200,39 L180,39 Z" fill="rgba(182,101,255,1)" stroke="rgba(81,81,81,1)" stroke-width="1"/>
<path d="M120,114 L140,114 L140,129 L120,129 Z" fill="rgba(182,101,255,1)" stroke="rgba(81,81,81,1)" stroke-width="1"/>
<path d="M60,174 L80,174 L80,189 L60,189 Z" fill="rgba(144,97,255,1)" stroke="rgba(81,81,81,1)" stroke-width="1"/>
<path d="M40,189 L60,189 L60,204 L40,204 Z" fill="rgba(144,97,255,1)" stroke="rgba(81,81,81,1)" stroke-width="1"/>
<path d="M160,69 L180,69 L180,84 L160,84 Z" fill="rgba(144,97,255,1)" stroke="rgba(81,81,81,1)" stroke-width="1"/>
<path d="M80,159 L100,159 L100,174 L80,174 Z" fill="rgba(144,97,255,1)" stroke="rgba(81,81,81,1)" stroke-width="1"/>
<path d="M180,39 L200,39 L200,54 L180,54 Z" fill="rgba(112,95,255,1)" stroke="rgba(81,81,81,1)" stroke-width="1"/>
<path d="M140,99 L160,99 L160,114 L140,114 Z" fill="rgba(112,95,255,1)" stroke="rgba(81,81,81,1)" stroke-width="1"/>
<path d="M100,144 L120,144 L120,159 L100,159 Z" fill="rgba(112,95,255,1)" stroke="rgba(81,81,81,1)" stroke-width="1"/>
<path d="M120,129 L140,129 L140,144 L120,144 Z" fill="rgba(112,95,255,1)" stroke="rgba(81,81,81,1)" stroke-width="1"/>
<path d="M180,54 L200,54 L200,69 L180,69 Z" fill="rgba(90,135,255,1)" stroke="rgba(81,81,81,1)" stroke-width="1"/>
<path d="M160,84 L180,84 L180,99 L160,99 Z" fill="rgba(90,135,255,1)" stroke="rgba(81,81,81,1)" stroke-width="1"/>
<path d="M60,189 L80,189 L80,204 L60,204 Z" fill="rgba(90,135,255,1)" stroke="rgba(81,81,81,1)" stroke-width="1"/>
<path d="M140,114 L160,114 L160,129 L140,129 Z" fill="rgba(90,135,255,1)" stroke="rgba(81,81,81,1)" stroke-width="1"/>
<path d="M80,174 L100,174 L100,189 L80,189 Z" fill="rgba(88,172,255,1)" stroke="rgba(81,81,81,1)" stroke-width="1"/>
<path d="M100,159 L120,159 L120,174 L100,174 Z" fill="rgba(88,172,255,1)" stroke="rgba(81,81,81,1)" stroke-width="1"/>
<path d="M180,69 L200,69 L200,84 L180,84 Z" fill="rgba(88,172,255,1)" stroke="rgba(81,81,81,1)" stroke-width="1"/>
<path d="M120,144 L140,144 L140,159 L120,159 Z" fill="rgba(88,172,255,1)" stroke="rgba(81,81,81,1)" stroke-width="1"/>
<path d="M160,99 L180,99 L180,114 L160,114 Z" fill="rgba(184,97,255,1)" stroke="rgba(81,81,81,1)" stroke-width="1"/>
<path d="M140,129 L160,129 L160,144 L140,144 Z" fill="rgba(184,97,255,1)" stroke="rgba(81,81,81,1)" stroke-width="1"/>
<path d="M80,189 L100,189 L100,204 L80,204 Z" fill="rgba(184,97,255,1)" stroke="rgba(81,81,81,1)" stroke-width="1"/>
<path d="M100,174 L120,174 L120,189 L100,189 Z" fill="rgba(184,97,255,1)" stroke="rgba(81,81,81,1)" stroke-width="1"/>
<path d="M180,84 L200,84 L200,99 L180,99 Z" fill="rgba(156,94,255,1)" stroke="rgba(81,81,81,1)" stroke-width="1"/>
<path d="M160,114 L180,114 L180,129 L160,129 Z" fill="rgba(156,94,255,1)" stroke="rgba(81,81,81,1)" stroke-width="1"/>
<path d="M120,159 L140,159 L140,174 L120,174 Z" fill="rgba(156,94,255,1)" stroke="rgba(81,81,81,1)" stroke-width="1"/>
<path d="M140,144 L160,144 L160,159 L140,159 Z" fill="rgba(156,94,255,1)" stroke="rgba(81,81,81,1)" stroke-width="1"/>
<path d="M180,99 L200,99 L200,114 L180,114 Z" fill="rgba(199,96,255,1)" stroke="rgba(81,81,81,1)" stroke-width="1"/>
<path d="M100,189 L120,189 L120,204 L100,204 Z" fill="rgba(199,96,255,1)" stroke="rgba(81,81,81,1)" stroke-width="1"/>
<path d="M160,129 L180,129 L180,144 L160,144 Z" fill="rgba(199,96,255,1)" stroke="rgba(81,81,81,1)" stroke-width="1"/>
<path d="M120,174 L140,174 L140,189 L120,189 Z" fill="rgba(199,96,255,1)" stroke="rgba(81,81,81,1)" stroke-width="1"/>
<path d="M140,159 L160,159 L160,174 L140,174 Z" fill="rgba(165,88,255,1)" stroke="rgba(81,81,81,1)" stroke-width="1"/>
<path d="M180,114 L200,114 L200,129 L180,129 Z" fill="rgba(165,88,255,1)" stroke="rgba(81,81,81,1)" stroke-width="1"/>
<path d="M160,144 L180,144 L180,159 L160,159 Z" fill="rgba(165,88,255,1)" stroke="rgba(81,81,81,1)" stroke-width="1"/>
<path d="M120,189 L140,189 L140,204 L120,204 Z" fill="rgba(165,88,255,1)" stroke="rgba(81,81,81,1)" stroke-width="1"/>
<path d="M180,129 L200,129 L200,144 L180,144 Z" fill="rgba(255,95,251,1)" stroke="rgba(81,81,81,1)" stroke-width="1"/>
<path d="M140,174 L160,174 L160,189 L140,189 Z" fill="rgba(255,95,251,1)" stroke="rgba(81,81,81,1)" stroke-width="1"/>
<path d="M160,159 L180,159 L180,174 L160,174 Z" fill="rgba(255,93,244,1)" stroke="rgba(81,81,81,1)" stroke-width="1"/>
<path d="M180,144 L200,144 L200,159 L180,159 Z" fill="rgba(255,93,244,1)" stroke="rgba(81,81,81,1)" stroke-width="1"/>
<path d="M140,189 L160,189 L160,204 L140,204 Z" fill="rgba(255,93,244,1)" stroke="rgba(81,81,81,1)" stroke-width="1"/>
<path d="M160,174 L180,174 L180,189 L160,189 Z" fill="rgba(255,93,244,1)" stroke="rgba(81,81,81,1)" stroke-width="1"/>
<path d="M180,159 L200,159 L200,174 L180,174 Z" fill="rgba(228,86,255,1)" stroke="rgba(81,81,81,1)" stroke-width="1"/>
<path d="M160,189 L180,189 L180,204 L160,204 Z" fill="rgba(228,86,255,1)" stroke="rgba(81,81,81,1)" stroke-width="1"/>
<path d="M180,174 L200,174 L200,189 L180,189 Z" fill="rgba(228,86,255,1)" stroke="rgba(81,81,81,1)" stroke-width="1"/>
<path d="M180,189 L200,189 L200,204 L180,204 Z" fill="rgba(228,86,255,1)" stroke="rgba(81,81,81,1)" stroke-width="1"/>
</svg>