<svg xmlns="http://www.w3.org/2000/svg" viewBox="-144.16 -136.16 315.35 384.32">
<path d="M-120,-112 L-96,-112 L-96,-88 L-120,-88 Z" fill="rgba(166,97,26,1)" stroke="rgba(0,0,0,1)" stroke-width="0.5"/>
<path d="M-96,-112 L-72,-112 L-72,-88 L-96,-88 Z" fill="rgba(223,194,125,1)" stroke="rgba(0,0,0,1)" stroke-width="0.5"/>
<path d="M-72,-112 L-48,-112 L-48,-88 L-72,-88 Z" fill="rgba(245,245,245,1)" stroke="rgba(0,0,0,1)" stroke-width="0.5"/>
<path d="M-48,-112 L-24,-112 L-24,-88 L-48,-88 Z" fill="rgba(128,205,193,1)" stroke="rgba(0,0,0,1)" stroke-width="0.5"/>
<path d="M-24,-112 L0,-112 L0,-88 L-24,-88 Z" fill="rgba(1,133,113,1)" stroke="rgba(0,0,0,1)" stroke-width="0.5"/>
<path d="M-120,-73 L-96,-73 L-96,-49 L-120,-49 Z" fill="rgba(208,28,139,1)" stroke="rgba(0,0,0,1)" stroke-width="0.5"/>
<path d="M-96,-73 L-72,-73 L-72,-49 L-96,-49 Z" fill="rgba(241,182,218,1)" stroke="rgba(0,0,0,1)" stroke-width="0.5"/>
<path d="M-72,-73 L-48,-73 L-48,-49 L-72,-49 Z" fill="rgba(247,247,247,1)" stroke="rgba(0,0,0,1)" stroke-width="0.5"/>
<path d="M-48,-73 L-24,-73 L-24,-49 L-48,-49 Z" fill="rgba(184,225,134,1)" stroke="rgba(0,0,0,1)" stroke-width="0.5"/>
<path d="M-24,-73 L0,-73 L0,-49 L-24,-49 Z" fill="rgba(77,172,38,1)" stroke="rgba(0,0,0,1)" stroke-width="0.5"/>
<path d="M-120,-34 L-96,-34 L-96,-10 L-120,-10 Z" fill="rgba(123,50,148,1)" stroke="rgba(0,0,0,1)" stroke-width="0.5"/>
<path d="M-96,-34 L-72,-34 L-72,-10 L-96,-10 Z" fill="rgba(194,165,207,1)" stroke="rgba(0,0,0,1)" stroke-width="0.5"/>
<path d="M-72,-34 L-48,-34 L-48,-10 L-72,-10 Z" fill="rgba(247,247,247,1)" stroke="rgba(0,0,0,1)" stroke-width="0.5"/>
<path d="M-48,-34 L-24,-34 L-24,-10 L-48,-10 Z" fill="rgba(166,219,160,1)" stroke="rgba(0,0,0,1)" stroke-width="0.5"/>
<path d="M-24,-34 L0,-34 L0,-10 L-24,-10 Z" fill="rgba(0,136,55,1)" stroke="rgba(0,0,0,1)" stroke-width="0.5"/>
<path d="M-120,5 L-96,5 L-96,29 L-120,29 Z" fill="rgba(230,97,1,1)" stroke="rgba(0,0,0,1)" stroke-width="0.5"/>
<path d="M-96,5 L-72,5 L-72,29 L-96,29 Z" fill="rgba(253,184,99,1)" stroke="rgba(0,0,0,1)" stroke-width="0.5"/>
<path d="M-72,5 L-48,5 L-48,29 L-72,29 Z" fill="rgba(247,247,247,1)" stroke="rgba(0,0,0,1)" stroke-width="0.5"/>
<path d="M-48,5 L-24,5 L-24,29 L-48,29 Z" fill="rgba(178,171,210,1)" stroke="rgba(0,0,0,1)" stroke-width="0.5"/>
<path d="M-24,5 L0,5 L0,29 L-24,29 Z" fill="rgba(94,60,153,1)" stroke="rgba(0,0,0,1)" stroke-width="0.5"/>
<path d="M-120,44 L-96,44 L-96,68 L-120,68 Z" fill="rgba(202,0,32,1)" stroke="rgba(0,0,0,1)" stroke-width="0.5"/>
<path d="M-96,44 L-72,44 L-72,68 L-96,68 Z" fill="rgba(244,165,130,1)" stroke="rgba(0,0,0,1)" stroke-width="0.5"/>
<path d="M-72,44 L-48,44 L-48,68 L-72,68 Z" fill="rgba(247,247,247,1)" stroke="rgba(0,0,0,1)" stroke-width="0.5"/>
<path d="M-48,44 L-24,44 L-24,68 L-48,68 Z" fill="rgba(146,197,222,1)" stroke="rgba(0,0,0,1)" stroke-width="0.5"/>
<path d="M-24,44 L0,44 L0,68 L-24,68 Z" fill="rgba(5,113,176,1)" stroke="rgba(0,0,0,1)" stroke-width="0.5"/>
<path d="M-120,83 L-96,83 L-96,107 L-120,107 Z" fill="rgba(202,0,32,1)" stroke="rgba(0,0,0,1)" stroke-width="0.5"/>
<path d="M-96,83 L-72,83 L-72,107 L-96,107 Z" fill="rgba(244,165,130,1)" stroke="rgba(0,0,0,1)" stroke-width="0.5"/>
<path d="M-72,83 L-48,83 L-48,107 L-72,107 Z" fill="rgba(255,255,255,1)" stroke="rgba(0,0,0,1)" stroke-width="0.5"/>
<path d="M-48,83 L-24,83 L-24,107 L-48,107 Z" fill="rgba(186,186,186,1)" stroke="rgba(0,0,0,1)" stroke-width="0.5"/>
<path d="M-24,83 L0,83 L0,107 L-24,107 Z" fill="rgba(64,64,64,1)" stroke="rgba(0,0,0,1)" stroke-width="0.5"/>
<path d="M-120,122 L-96,122 L-96,146 L-120,146 Z" fill="rgba(215,25,28,1)" stroke="rgba(0,0,0,1)" stroke-width="0.5"/>
<path d="M-96,122 L-72,122 L-72,146 L-96,146 Z" fill="rgba(253,174,97,1)" stroke="rgba(0,0,0,1)" stroke-width="0.5"/>
<path d="M-72,122 L-48,122 L-48,146 L-72,146 Z" fill="rgba(255,255,191,1)" stroke="rgba(0,0,0,1)" stroke-width="0.5"/>
<path d="M-48,122 L-24,122 L-24,146 L-48,146 Z" fill="rgba(171,217,233,1)" stroke="rgba(0,0,0,1)" stroke-width="0.5"/>
<path d="M-24,122 L0,122 L0,146 L-24,146 Z" fill="rgba(44,123,182,1)" stroke="rgba(0,0,0,1)" stroke-width="0.5"/>
<path d="M-120,161 L-96,161 L-96,185 L-120,185 Z" fill="rgba(215,25,28,1)" stroke="rgba(0,0,0,1)" stroke-width="0.5"/>
<path d="M-96,161 L-72,161 L-72,185 L-96,185 Z" fill="rgba(253,174,97,1)" stroke="rgba(0,0,0,1)" stroke-width="0.5"/>
<path d="M-72,161 L-48,161 L-48,185 L-72,185 Z" fill="rgba(255,255,191,1)" stroke="rgba(0,0,0,1)" stroke-width="0.5"/>
<path d="M-48,161 L-24,161 L-24,185 L-48,185 Z" fill="rgba(166,217,106,1)" stroke="rgba(0,0,0,1)" stroke-width="0.5"/>
<path d="M-24,161 L0,161 L0,185 L-24,185 Z" fill="rgba(26,150,65,1)" stroke="rgba(0,0,0,1)" stroke-width="0.5"/>
<path d="M-120,200 L-96,200 L-96,224 L-120,224 Z" fill="rgba(215,25,28,1)" stroke="rgba(0,0,0,1)" stroke-width="0.5"/>
<path d="M-96,200 L-72,200 L-72,224 L-96,224 Z" fill="rgba(253,174,97,1)" stroke="rgba(0,0,0,1)" stroke-width="0.5"/>
<path d="M-72,200 L-48,200 L-48,224 L-72,224 Z" fill="rgba(255,255,191,1)" stroke="rgba(0,0,0,1)" stroke-width="0.5"/>
<path d="M-48,200 L-24,200 L-24,224 L-48,224 Z" fill="rgba(171,221,164,1)" stroke="rgba(0,0,0,1)" stroke-width="0.5"/>
<path d="M-24,200 L0,200 L0,224 L-24,224 Z" fill="rgba(43,131,186,1)" stroke="rgba(0,0,0,1)" stroke-width="0.5"/>
<text x="0" y="0" text-anchor="start" font-family="Verdana, Helvetica, Arial, sans-serif" font-size="24" fill="rgba(71,71,71,1)" transform="matrix(1 0 0 1 15 -93.64)">0</text>
<text x="0" y="0" text-anchor="start" font-family="Verdana, Helvetica, Arial, sans-serif" font-size="24" fill="rgba(71,71,71,1)" transform="matrix(1 0 0 1 15 -54.64)">1</text>
<text x="0" y="0" text-anchor="start" font-family="Verdana, Helvetica, Arial, sans-serif" font-size="24" fill="rgba(71,71,71,1)" transform="matrix(1 0 0 1 15 -15.64)">2</text>
<text x="0" y="0" text-anchor="start" font-family="Verdana-Bold, Helvetica, Arial, sans-serif" font-size="24" fill="rgba(0,0,248,1)" transform="matrix(1 0 0 1 15 23.36)">3</text>
<text x="0" y="0" text-anchor="start" font-family="Verdana, Helvetica, Arial, sans-serif" font-size="24" fill="rgba(71,71,71,1)" transform="matrix(1 0 0 1 15 62.360000000000014)">4</text>
<text x="0" y="0" text-anchor="start" font-family="Verdana, Helvetica, Arial, sans-serif" font-size="24" fill="rgba(71,71,71,1)" transform="matrix(1 0 0 1 15 101.36000000000001)">5</text>
<text x="0" y="0" text-anchor="start" font-family="Verdana, Helvetica, Arial, sans-serif" font-size="24" fill="rgba(71,71,71,1)" transform="matrix(1 0 0 1 15 140.36)">6</text>
<text x="0" y="0" text-anchor="start" font-family="Verdana, Helvetica, Arial, sans-serif" font-size="24" fill="rgba(71,71,71,1)" transform="matrix(1 0 0 1 15 179.35999999999996)">7</text>
<text x="0" y="0" text-anchor="start" font-family="Verdana, Helvetica, Arial, sans-serif" font-size="24" fill="rgba(71,71,71,1)" transform="matrix(1 0 0 1 15 218.35999999999996)">8</text>
<text x="0" y="0" text-anchor="start" font-family="Verdana, Helvetica, Arial, sans-serif" font-size="24" fill="rgba(71,71,71,1)" transform="matrix(1 0 0 1 59 -93.64)">BrBG</text>
<text x="0" y="0" text-anchor="start" font-family="Verdana, Helvetica, Arial, sans-serif" font-size="24" fill="rgba(71,71,71,1)" transform="matrix(1 0 0 1 59 -54.64)">PiYG</text>
<text x="0" y="0" text-anchor="start" font-family="Verdana, Helvetica, Arial, sans-serif" font-size="24" fill="rgba(71,71,71,1)" transform="matrix(1 0 0 1 59 -15.64)">PRGn</text>
<text x="0" y="0" text-anchor="start" font-family="Verdana-Bold, Helvetica, Arial, sans-serif" font-size="24" fill="rgba(0,0,248,1)" transform="matrix(1 0 0 1 59 23.36)">PuOr</text>
<text x="0" y="0" text-anchor="start" font-family="Verdana, Helvetica, Arial, sans-serif" font-size="24" fill="rgba(71,71,71,1)" transform="matrix(1 0 0 1 59 62.360000000000014)">RdBu</text>
<text x="0" y="0" text-anchor="start" font-family="Verdana, Helvetica, Arial, sans-serif" font-size="24" fill="rgba(71,71,71,1)" transform="matrix(1 0 0 1 59 101.36000000000001)">RdGy</text>
<text x="0" y="0" text-anchor="start" font-family="Verdana, Helvetica, Arial, sans-serif" font-size="24" fill="rgba(71,71,71,1)" transform="matrix(1 0 0 1 59 140.36)">RdYlBu</text>
<text x="0" y="0" text-anchor="start" font-family="Verdana, Helvetica, Arial, sans-serif" font-size="24" fill="rgba(71,71,71,1)" transform="matrix(1 0 0 1 59 179.35999999999996)">RdYlGn</text>
<text x="0" y="0" text-anchor="start" font-family="Verdana, Helvetica, Arial, sans-serif" font-size="24" fill="rgba(71,71,71,1)" transform="matrix(1 0 0 1 59 218.35999999999996)">Spectral</text>
</svg>