<svg xmlns="http://www.w3.org/2000/svg" viewBox="-251.72 -113.54 503.44 327.08">
<path d="M-190,-11 L-200.392,-29 L-179.608,-29 Z" fill="rgba(255,0,0,1)"/>
<path d="M-221.177,-29 L-210.785,-47 L-200.392,-29 Z" fill="rgba(255,0,0,1)"/>
<path d="M-179.608,-29 L-200.392,-29 L-210.785,-47 L-200.392,-65 L-179.608,-65 L-169.215,-47 Z" fill="rgba(93,93,93,0)" stroke="rgba(0,0,0,1)" stroke-width="1"/>
<path d="M-190,-11 L-200.392,-29 L-179.608,-29 Z" fill="rgba(93,93,93,0)" stroke="rgba(0,0,0,1)" stroke-width="1"/>
<path d="M-221.177,-29 L-210.785,-47 L-200.392,-29 Z" fill="rgba(93,93,93,0)" stroke="rgba(0,0,0,1)" stroke-width="1"/>
<path d="M-221.177,-65 L-200.392,-65 L-210.785,-47 Z" fill="rgba(93,93,93,0)" stroke="rgba(0,0,0,1)" stroke-width="1"/>
<path d="M-190,-83 L-179.608,-65 L-200.392,-65 Z" fill="rgba(93,93,93,0)" stroke="rgba(0,0,0,1)" stroke-width="1"/>
<path d="M-158.823,-65 L-169.215,-47 L-179.608,-65 Z" fill="rgba(93,93,93,0)" stroke="rgba(0,0,0,1)" stroke-width="1"/>
<path d="M-158.823,-29 L-179.608,-29 L-169.215,-47 Z" fill="rgba(93,93,93,0)" stroke="rgba(0,0,0,1)" stroke-width="1"/>
<path d="M-95,-11 L-105.392,-29 L-84.608,-29 Z" fill="rgba(255,0,0,1)"/>
<path d="M-126.177,-65 L-105.392,-65 L-115.785,-47 Z" fill="rgba(255,0,0,1)"/>
<path d="M-84.608,-29 L-105.392,-29 L-115.785,-47 L-105.392,-65 L-84.608,-65 L-74.215,-47 Z" fill="rgba(93,93,93,0)" stroke="rgba(0,0,0,1)" stroke-width="1"/>
<path d="M-95,-11 L-105.392,-29 L-84.608,-29 Z" fill="rgba(93,93,93,0)" stroke="rgba(0,0,0,1)" stroke-width="1"/>
<path d="M-126.177,-29 L-115.785,-47 L-105.392,-29 Z" fill="rgba(93,93,93,0)" stroke="rgba(0,0,0,1)" stroke-width="1"/>
<path d="M-126.177,-65 L-105.392,-65 L-115.785,-47 Z" fill="rgba(93,93,93,0)" stroke="rgba(0,0,0,1)" stroke-width="1"/>
<path d="M-95,-83 L-84.608,-65 L-105.392,-65 Z" fill="rgba(93,93,93,0)" stroke="rgba(0,0,0,1)" stroke-width="1"/>
<path d="M-63.823,-65 L-74.215,-47 L-84.608,-65 Z" fill="rgba(93,93,93,0)" stroke="rgba(0,0,0,1)" stroke-width="1"/>
<path d="M-63.823,-29 L-84.608,-29 L-74.215,-47 Z" fill="rgba(93,93,93,0)" stroke="rgba(0,0,0,1)" stroke-width="1"/>
<path d="M0,-11 L-10.392,-29 L10.392,-29 Z" fill="rgba(255,0,0,1)"/>
<path d="M0,-83 L10.392,-65 L-10.392,-65 Z" fill="rgba(255,0,0,1)"/>
<path d="M10.392,-29 L-10.392,-29 L-20.785,-47 L-10.392,-65 L10.392,-65 L20.785,-47 Z" fill="rgba(93,93,93,0)" stroke="rgba(0,0,0,1)" stroke-width="1"/>
<path d="M0,-11 L-10.392,-29 L10.392,-29 Z" fill="rgba(93,93,93,0)" stroke="rgba(0,0,0,1)" stroke-width="1"/>
<path d="M-31.177,-29 L-20.785,-47 L-10.392,-29 Z" fill="rgba(93,93,93,0)" stroke="rgba(0,0,0,1)" stroke-width="1"/>
<path d="M-31.177,-65 L-10.392,-65 L-20.785,-47 Z" fill="rgba(93,93,93,0)" stroke="rgba(0,0,0,1)" stroke-width="1"/>
<path d="M0,-83 L10.392,-65 L-10.392,-65 Z" fill="rgba(93,93,93,0)" stroke="rgba(0,0,0,1)" stroke-width="1"/>
<path d="M31.177,-65 L20.785,-47 L10.392,-65 Z" fill="rgba(93,93,93,0)" stroke="rgba(0,0,0,1)" stroke-width="1"/>
<path d="M31.177,-29 L10.392,-29 L20.785,-47 Z" fill="rgba(93,93,93,0)" stroke="rgba(0,0,0,1)" stroke-width="1"/>
<path d="M95,-11 L84.608,-29 L105.392,-29 Z" fill="rgba(255,0,0,1)"/>
<path d="M126.177,-65 L115.785,-47 L105.392,-65 Z" fill="rgba(255,0,0,1)"/>
<path d="M105.392,-29 L84.608,-29 L74.215,-47 L84.608,-65 L105.392,-65 L115.785,-47 Z" fill="rgba(93,93,93,0)" stroke="rgba(0,0,0,1)" stroke-width="1"/>
<path d="M95,-11 L84.608,-29 L105.392,-29 Z" fill="rgba(93,93,93,0)" stroke="rgba(0,0,0,1)" stroke-width="1"/>
<path d="M63.823,-29 L74.215,-47 L84.608,-29 Z" fill="rgba(93,93,93,0)" stroke="rgba(0,0,0,1)" stroke-width="1"/>
<path d="M63.823,-65 L84.608,-65 L74.215,-47 Z" fill="rgba(93,93,93,0)" stroke="rgba(0,0,0,1)" stroke-width="1"/>
<path d="M95,-83 L105.392,-65 L84.608,-65 Z" fill="rgba(93,93,93,0)" stroke="rgba(0,0,0,1)" stroke-width="1"/>
<path d="M126.177,-65 L115.785,-47 L105.392,-65 Z" fill="rgba(93,93,93,0)" stroke="rgba(0,0,0,1)" stroke-width="1"/>
<path d="M126.177,-29 L105.392,-29 L115.785,-47 Z" fill="rgba(93,93,93,0)" stroke="rgba(0,0,0,1)" stroke-width="1"/>
<path d="M190,-11 L179.608,-29 L200.392,-29 Z" fill="rgba(255,0,0,1)"/>
<path d="M221.177,-29 L200.392,-29 L210.785,-47 Z" fill="rgba(255,0,0,1)"/>
<path d="M200.392,-29 L179.608,-29 L169.215,-47 L179.608,-65 L200.392,-65 L210.785,-47 Z" fill="rgba(93,93,93,0)" stroke="rgba(0,0,0,1)" stroke-width="1"/>
<path d="M190,-11 L179.608,-29 L200.392,-29 Z" fill="rgba(93,93,93,0)" stroke="rgba(0,0,0,1)" stroke-width="1"/>
<path d="M158.823,-29 L169.215,-47 L179.608,-29 Z" fill="rgba(93,93,93,0)" stroke="rgba(0,0,0,1)" stroke-width="1"/>
<path d="M158.823,-65 L179.608,-65 L169.215,-47 Z" fill="rgba(93,93,93,0)" stroke="rgba(0,0,0,1)" stroke-width="1"/>
<path d="M190,-83 L200.392,-65 L179.608,-65 Z" fill="rgba(93,93,93,0)" stroke="rgba(0,0,0,1)" stroke-width="1"/>
<path d="M221.177,-65 L210.785,-47 L200.392,-65 Z" fill="rgba(93,93,93,0)" stroke="rgba(0,0,0,1)" stroke-width="1"/>
<path d="M221.177,-29 L200.392,-29 L210.785,-47 Z" fill="rgba(93,93,93,0)" stroke="rgba(0,0,0,1)" stroke-width="1"/>
<path d="M-221.177,68 L-210.785,50 L-200.392,68 Z" fill="rgba(255,0,0,1)"/>
<path d="M-221.177,32 L-200.392,32 L-210.785,50 Z" fill="rgba(255,0,0,1)"/>
<path d="M-179.608,68 L-200.392,68 L-210.785,50 L-200.392,32 L-179.608,32 L-169.215,50 Z" fill="rgba(93,93,93,0)" stroke="rgba(0,0,0,1)" stroke-width="1"/>
<path d="M-190,86 L-200.392,68 L-179.608,68 Z" fill="rgba(93,93,93,0)" stroke="rgba(0,0,0,1)" stroke-width="1"/>
<path d="M-221.177,68 L-210.785,50 L-200.392,68 Z" fill="rgba(93,93,93,0)" stroke="rgba(0,0,0,1)" stroke-width="1"/>
<path d="M-221.177,32 L-200.392,32 L-210.785,50 Z" fill="rgba(93,93,93,0)" stroke="rgba(0,0,0,1)" stroke-width="1"/>
<path d="M-190,14 L-179.608,32 L-200.392,32 Z" fill="rgba(93,93,93,0)" stroke="rgba(0,0,0,1)" stroke-width="1"/>
<path d="M-158.823,32 L-169.215,50 L-179.608,32 Z" fill="rgba(93,93,93,0)" stroke="rgba(0,0,0,1)" stroke-width="1"/>
<path d="M-158.823,68 L-179.608,68 L-169.215,50 Z" fill="rgba(93,93,93,0)" stroke="rgba(0,0,0,1)" stroke-width="1"/>
<path d="M-126.177,68 L-115.785,50 L-105.392,68 Z" fill="rgba(255,0,0,1)"/>
<path d="M-95,14 L-84.608,32 L-105.392,32 Z" fill="rgba(255,0,0,1)"/>
<path d="M-84.608,68 L-105.392,68 L-115.785,50 L-105.392,32 L-84.608,32 L-74.215,50 Z" fill="rgba(93,93,93,0)" stroke="rgba(0,0,0,1)" stroke-width="1"/>
<path d="M-95,86 L-105.392,68 L-84.608,68 Z" fill="rgba(93,93,93,0)" stroke="rgba(0,0,0,1)" stroke-width="1"/>
<path d="M-126.177,68 L-115.785,50 L-105.392,68 Z" fill="rgba(93,93,93,0)" stroke="rgba(0,0,0,1)" stroke-width="1"/>
<path d="M-126.177,32 L-105.392,32 L-115.785,50 Z" fill="rgba(93,93,93,0)" stroke="rgba(0,0,0,1)" stroke-width="1"/>
<path d="M-95,14 L-84.608,32 L-105.392,32 Z" fill="rgba(93,93,93,0)" stroke="rgba(0,0,0,1)" stroke-width="1"/>
<path d="M-63.823,32 L-74.215,50 L-84.608,32 Z" fill="rgba(93,93,93,0)" stroke="rgba(0,0,0,1)" stroke-width="1"/>
<path d="M-63.823,68 L-84.608,68 L-74.215,50 Z" fill="rgba(93,93,93,0)" stroke="rgba(0,0,0,1)" stroke-width="1"/>
<path d="M-31.177,68 L-20.785,50 L-10.392,68 Z" fill="rgba(255,0,0,1)"/>
<path d="M31.177,32 L20.785,50 L10.392,32 Z" fill="rgba(255,0,0,1)"/>
<path d="M10.392,68 L-10.392,68 L-20.785,50 L-10.392,32 L10.392,32 L20.785,50 Z" fill="rgba(93,93,93,0)" stroke="rgba(0,0,0,1)" stroke-width="1"/>
<path d="M0,86 L-10.392,68 L10.392,68 Z" fill="rgba(93,93,93,0)" stroke="rgba(0,0,0,1)" stroke-width="1"/>
<path d="M-31.177,68 L-20.785,50 L-10.392,68 Z" fill="rgba(93,93,93,0)" stroke="rgba(0,0,0,1)" stroke-width="1"/>
<path d="M-31.177,32 L-10.392,32 L-20.785,50 Z" fill="rgba(93,93,93,0)" stroke="rgba(0,0,0,1)" stroke-width="1"/>
<path d="M0,14 L10.392,32 L-10.392,32 Z" fill="rgba(93,93,93,0)" stroke="rgba(0,0,0,1)" stroke-width="1"/>
<path d="M31.177,32 L20.785,50 L10.392,32 Z" fill="rgba(93,93,93,0)" stroke="rgba(0,0,0,1)" stroke-width="1"/>
<path d="M31.177,68 L10.392,68 L20.785,50 Z" fill="rgba(93,93,93,0)" stroke="rgba(0,0,0,1)" stroke-width="1"/>
<path d="M63.823,68 L74.215,50 L84.608,68 Z" fill="rgba(255,0,0,1)"/>
<path d="M126.177,68 L105.392,68 L115.785,50 Z" fill="rgba(255,0,0,1)"/>
<path d="M105.392,68 L84.608,68 L74.215,50 L84.608,32 L105.392,32 L115.785,50 Z" fill="rgba(93,93,93,0)" stroke="rgba(0,0,0,1)" stroke-width="1"/>
<path d="M95,86 L84.608,68 L105.392,68 Z" fill="rgba(93,93,93,0)" stroke="rgba(0,0,0,1)" stroke-width="1"/>
<path d="M63.823,68 L74.215,50 L84.608,68 Z" fill="rgba(93,93,93,0)" stroke="rgba(0,0,0,1)" stroke-width="1"/>
<path d="M63.823,32 L84.608,32 L74.215,50 Z" fill="rgba(93,93,93,0)" stroke="rgba(0,0,0,1)" stroke-width="1"/>
<path d="M95,14 L105.392,32 L84.608,32 Z" fill="rgba(93,93,93,0)" stroke="rgba(0,0,0,1)" stroke-width="1"/>
<path d="M126.177,32 L115.785,50 L105.392,32 Z" fill="rgba(93,93,93,0)" stroke="rgba(0,0,0,1)" stroke-width="1"/>
<path d="M126.177,68 L105.392,68 L115.785,50 Z" fill="rgba(93,93,93,0)" stroke="rgba(0,0,0,1)" stroke-width="1"/>
<path d="M158.823,32 L179.608,32 L169.215,50 Z" fill="rgba(255,0,0,1)"/>
<path d="M190,14 L200.392,32 L179.608,32 Z" fill="rgba(255,0,0,1)"/>
<path d="M200.392,68 L179.608,68 L169.215,50 L179.608,32 L200.392,32 L210.785,50 Z" fill="rgba(93,93,93,0)" stroke="rgba(0,0,0,1)" stroke-width="1"/>
<path d="M190,86 L179.608,68 L200.392,68 Z" fill="rgba(93,93,93,0)" stroke="rgba(0,0,0,1)" stroke-width="1"/>
<path d="M158.823,68 L169.215,50 L179.608,68 Z" fill="rgba(93,93,93,0)" stroke="rgba(0,0,0,1)" stroke-width="1"/>
<path d="M158.823,32 L179.608,32 L169.215,50 Z" fill="rgba(93,93,93,0)" stroke="rgba(0,0,0,1)" stroke-width="1"/>
<path d="M190,14 L200.392,32 L179.608,32 Z" fill="rgba(93,93,93,0)" stroke="rgba(0,0,0,1)" stroke-width="1"/>
<path d="M221.177,32 L210.785,50 L200.392,32 Z" fill="rgba(93,93,93,0)" stroke="rgba(0,0,0,1)" stroke-width="1"/>
<path d="M221.177,68 L200.392,68 L210.785,50 Z" fill="rgba(93,93,93,0)" stroke="rgba(0,0,0,1)" stroke-width="1"/>
<path d="M-221.177,129 L-200.392,129 L-210.785,147 Z" fill="rgba(255,0,0,1)"/>
<path d="M-158.823,129 L-169.215,147 L-179.608,129 Z" fill="rgba(255,0,0,1)"/>
<path d="M-179.608,165 L-200.392,165 L-210.785,147 L-200.392,129 L-179.608,129 L-169.215,147 Z" fill="rgba(93,93,93,0)" stroke="rgba(0,0,0,1)" stroke-width="1"/>
<path d="M-190,183 L-200.392,165 L-179.608,165 Z" fill="rgba(93,93,93,0)" stroke="rgba(0,0,0,1)" stroke-width="1"/>
<path d="M-221.177,165 L-210.785,147 L-200.392,165 Z" fill="rgba(93,93,93,0)" stroke="rgba(0,0,0,1)" stroke-width="1"/>
<path d="M-221.177,129 L-200.392,129 L-210.785,147 Z" fill="rgba(93,93,93,0)" stroke="rgba(0,0,0,1)" stroke-width="1"/>
<path d="M-190,111 L-179.608,129 L-200.392,129 Z" fill="rgba(93,93,93,0)" stroke="rgba(0,0,0,1)" stroke-width="1"/>
<path d="M-158.823,129 L-169.215,147 L-179.608,129 Z" fill="rgba(93,93,93,0)" stroke="rgba(0,0,0,1)" stroke-width="1"/>
<path d="M-158.823,165 L-179.608,165 L-169.215,147 Z" fill="rgba(93,93,93,0)" stroke="rgba(0,0,0,1)" stroke-width="1"/>
<path d="M-126.177,129 L-105.392,129 L-115.785,147 Z" fill="rgba(255,0,0,1)"/>
<path d="M-63.823,165 L-84.608,165 L-74.215,147 Z" fill="rgba(255,0,0,1)"/>
<path d="M-84.608,165 L-105.392,165 L-115.785,147 L-105.392,129 L-84.608,129 L-74.215,147 Z" fill="rgba(93,93,93,0)" stroke="rgba(0,0,0,1)" stroke-width="1"/>
<path d="M-95,183 L-105.392,165 L-84.608,165 Z" fill="rgba(93,93,93,0)" stroke="rgba(0,0,0,1)" stroke-width="1"/>
<path d="M-126.177,165 L-115.785,147 L-105.392,165 Z" fill="rgba(93,93,93,0)" stroke="rgba(0,0,0,1)" stroke-width="1"/>
<path d="M-126.177,129 L-105.392,129 L-115.785,147 Z" fill="rgba(93,93,93,0)" stroke="rgba(0,0,0,1)" stroke-width="1"/>
<path d="M-95,111 L-84.608,129 L-105.392,129 Z" fill="rgba(93,93,93,0)" stroke="rgba(0,0,0,1)" stroke-width="1"/>
<path d="M-63.823,129 L-74.215,147 L-84.608,129 Z" fill="rgba(93,93,93,0)" stroke="rgba(0,0,0,1)" stroke-width="1"/>
<path d="M-63.823,165 L-84.608,165 L-74.215,147 Z" fill="rgba(93,93,93,0)" stroke="rgba(0,0,0,1)" stroke-width="1"/>
<path d="M0,111 L10.392,129 L-10.392,129 Z" fill="rgba(255,0,0,1)"/>
<path d="M31.177,129 L20.785,147 L10.392,129 Z" fill="rgba(255,0,0,1)"/>
<path d="M10.392,165 L-10.392,165 L-20.785,147 L-10.392,129 L10.392,129 L20.785,147 Z" fill="rgba(93,93,93,0)" stroke="rgba(0,0,0,1)" stroke-width="1"/>
<path d="M0,183 L-10.392,165 L10.392,165 Z" fill="rgba(93,93,93,0)" stroke="rgba(0,0,0,1)" stroke-width="1"/>
<path d="M-31.177,165 L-20.785,147 L-10.392,165 Z" fill="rgba(93,93,93,0)" stroke="rgba(0,0,0,1)" stroke-width="1"/>
<path d="M-31.177,129 L-10.392,129 L-20.785,147 Z" fill="rgba(93,93,93,0)" stroke="rgba(0,0,0,1)" stroke-width="1"/>
<path d="M0,111 L10.392,129 L-10.392,129 Z" fill="rgba(93,93,93,0)" stroke="rgba(0,0,0,1)" stroke-width="1"/>
<path d="M31.177,129 L20.785,147 L10.392,129 Z" fill="rgba(93,93,93,0)" stroke="rgba(0,0,0,1)" stroke-width="1"/>
<path d="M31.177,165 L10.392,165 L20.785,147 Z" fill="rgba(93,93,93,0)" stroke="rgba(0,0,0,1)" stroke-width="1"/>
<path d="M95,111 L105.392,129 L84.608,129 Z" fill="rgba(255,0,0,1)"/>
<path d="M126.177,165 L105.392,165 L115.785,147 Z" fill="rgba(255,0,0,1)"/>
<path d="M105.392,165 L84.608,165 L74.215,147 L84.608,129 L105.392,129 L115.785,147 Z" fill="rgba(93,93,93,0)" stroke="rgba(0,0,0,1)" stroke-width="1"/>
<path d="M95,183 L84.608,165 L105.392,165 Z" fill="rgba(93,93,93,0)" stroke="rgba(0,0,0,1)" stroke-width="1"/>
<path d="M63.823,165 L74.215,147 L84.608,165 Z" fill="rgba(93,93,93,0)" stroke="rgba(0,0,0,1)" stroke-width="1"/>
<path d="M63.823,129 L84.608,129 L74.215,147 Z" fill="rgba(93,93,93,0)" stroke="rgba(0,0,0,1)" stroke-width="1"/>
<path d="M95,111 L105.392,129 L84.608,129 Z" fill="rgba(93,93,93,0)" stroke="rgba(0,0,0,1)" stroke-width="1"/>
<path d="M126.177,129 L115.785,147 L105.392,129 Z" fill="rgba(93,93,93,0)" stroke="rgba(0,0,0,1)" stroke-width="1"/>
<path d="M126.177,165 L105.392,165 L115.785,147 Z" fill="rgba(93,93,93,0)" stroke="rgba(0,0,0,1)" stroke-width="1"/>
<path d="M221.177,129 L210.785,147 L200.392,129 Z" fill="rgba(255,0,0,1)"/>
<path d="M221.177,165 L200.392,165 L210.785,147 Z" fill="rgba(255,0,0,1)"/>
<path d="M200.392,165 L179.608,165 L169.215,147 L179.608,129 L200.392,129 L210.785,147 Z" fill="rgba(93,93,93,0)" stroke="rgba(0,0,0,1)" stroke-width="1"/>
<path d="M190,183 L179.608,165 L200.392,165 Z" fill="rgba(93,93,93,0)" stroke="rgba(0,0,0,1)" stroke-width="1"/>
<path d="M158.823,165 L169.215,147 L179.608,165 Z" fill="rgba(93,93,93,0)" stroke="rgba(0,0,0,1)" stroke-width="1"/>
<path d="M158.823,129 L179.608,129 L169.215,147 Z" fill="rgba(93,93,93,0)" stroke="rgba(0,0,0,1)" stroke-width="1"/>
<path d="M190,111 L200.392,129 L179.608,129 Z" fill="rgba(93,93,93,0)" stroke="rgba(0,0,0,1)" stroke-width="1"/>
<path d="M221.177,129 L210.785,147 L200.392,129 Z" fill="rgba(93,93,93,0)" stroke="rgba(0,0,0,1)" stroke-width="1"/>
<path d="M221.177,165 L200.392,165 L210.785,147 Z" fill="rgba(93,93,93,0)" stroke="rgba(0,0,0,1)" stroke-width="1"/>
</svg>