<svg xmlns="http://www.w3.org/2000/svg" viewBox="-294.6 -187.6 579.2 445.7">
<path d="M-250,-127 L250,-127 L250,-123 L-250,-123 Z" fill="rgba(44,107,190,1)"/>
<path d="M-250,-123.5 L250,-123.5 L250,-119.5 L-250,-119.5 Z" fill="rgba(45,108,191,1)"/>
<path d="M-250,-120 L250,-120 L250,-116 L-250,-116 Z" fill="rgba(46,109,192,1)"/>
<path d="M-250,-116.5 L250,-116.5 L250,-112.5 L-250,-112.5 Z" fill="rgba(47,110,192,1)"/>
<path d="M-250,-113 L250,-113 L250,-109 L-250,-109 Z" fill="rgba(49,111,193,1)"/>
<path d="M-250,-109.5 L250,-109.5 L250,-105.5 L-250,-105.5 Z" fill="rgba(50,112,194,1)"/>
<path d="M-250,-106 L250,-106 L250,-102 L-250,-102 Z" fill="rgba(51,113,195,1)"/>
<path d="M-250,-102.5 L250,-102.5 L250,-98.5 L-250,-98.5 Z" fill="rgba(52,114,195,1)"/>
<path d="M-250,-99 L250,-99 L250,-95 L-250,-95 Z" fill="rgba(53,115,196,1)"/>
<path d="M-250,-95.5 L250,-95.5 L250,-91.5 L-250,-91.5 Z" fill="rgba(55,116,197,1)"/>
<path d="M-250,-92 L250,-92 L250,-88 L-250,-88 Z" fill="rgba(56,117,198,1)"/>
<path d="M-250,-88.5 L250,-88.5 L250,-84.5 L-250,-84.5 Z" fill="rgba(57,118,199,1)"/>
<path d="M-250,-85 L250,-85 L250,-81 L-250,-81 Z" fill="rgba(58,119,199,1)"/>
<path d="M-250,-81.5 L250,-81.5 L250,-77.5 L-250,-77.5 Z" fill="rgba(59,120,200,1)"/>
<path d="M-250,-78 L250,-78 L250,-74 L-250,-74 Z" fill="rgba(61,121,201,1)"/>
<path d="M-250,-74.5 L250,-74.5 L250,-70.5 L-250,-70.5 Z" fill="rgba(62,122,202,1)"/>
<path d="M-250,-71 L250,-71 L250,-67 L-250,-67 Z" fill="rgba(63,123,202,1)"/>
<path d="M-250,-67.5 L250,-67.5 L250,-63.5 L-250,-63.5 Z" fill="rgba(64,124,203,1)"/>
<path d="M-250,-64 L250,-64 L250,-60 L-250,-60 Z" fill="rgba(66,125,204,1)"/>
<path d="M-250,-60.5 L250,-60.5 L250,-56.5 L-250,-56.5 Z" fill="rgba(67,126,205,1)"/>
<path d="M-250,-57 L250,-57 L250,-53 L-250,-53 Z" fill="rgba(68,128,205,1)"/>
<path d="M-250,-53.5 L250,-53.5 L250,-49.5 L-250,-49.5 Z" fill="rgba(70,129,206,1)"/>
<path d="M-250,-50 L250,-50 L250,-46 L-250,-46 Z" fill="rgba(71,130,207,1)"/>
<path d="M-250,-46.5 L250,-46.5 L250,-42.5 L-250,-42.5 Z" fill="rgba(72,131,208,1)"/>
<path d="M-250,-43 L250,-43 L250,-39 L-250,-39 Z" fill="rgba(74,132,209,1)"/>
<path d="M-250,-39.5 L250,-39.5 L250,-35.5 L-250,-35.5 Z" fill="rgba(75,133,209,1)"/>
<path d="M-250,-36 L250,-36 L250,-32 L-250,-32 Z" fill="rgba(76,134,210,1)"/>
<path d="M-250,-32.5 L250,-32.5 L250,-28.5 L-250,-28.5 Z" fill="rgba(78,135,211,1)"/>
<path d="M-250,-29 L250,-29 L250,-25 L-250,-25 Z" fill="rgba(79,136,212,1)"/>
<path d="M-250,-25.5 L250,-25.5 L250,-21.5 L-250,-21.5 Z" fill="rgba(80,137,212,1)"/>
<path d="M-250,-22 L250,-22 L250,-18 L-250,-18 Z" fill="rgba(82,138,213,1)"/>
<path d="M-250,-18.5 L250,-18.5 L250,-14.5 L-250,-14.5 Z" fill="rgba(83,140,214,1)"/>
<path d="M-250,-15 L250,-15 L250,-11 L-250,-11 Z" fill="rgba(84,141,215,1)"/>
<path d="M-250,-11.5 L250,-11.5 L250,-7.5 L-250,-7.5 Z" fill="rgba(86,142,216,1)"/>
<path d="M-250,-8 L250,-8 L250,-4 L-250,-4 Z" fill="rgba(87,143,216,1)"/>
<path d="M-250,-4.5 L250,-4.5 L250,-0.5 L-250,-0.5 Z" fill="rgba(89,144,217,1)"/>
<path d="M-250,-1 L250,-1 L250,3 L-250,3 Z" fill="rgba(90,145,218,1)"/>
<path d="M-250,2.5 L250,2.5 L250,6.5 L-250,6.5 Z" fill="rgba(91,146,219,1)"/>
<path d="M-250,6 L250,6 L250,10 L-250,10 Z" fill="rgba(93,147,219,1)"/>
<path d="M-250,9.5 L250,9.5 L250,13.5 L-250,13.5 Z" fill="rgba(94,149,220,1)"/>
<path d="M-250,13 L250,13 L250,17 L-250,17 Z" fill="rgba(96,150,221,1)"/>
<path d="M-250,16.5 L250,16.5 L250,20.5 L-250,20.5 Z" fill="rgba(97,151,222,1)"/>
<path d="M-250,20 L250,20 L250,24 L-250,24 Z" fill="rgba(99,152,222,1)"/>
<path d="M-250,23.5 L250,23.5 L250,27.5 L-250,27.5 Z" fill="rgba(100,153,223,1)"/>
<path d="M-250,27 L250,27 L250,31 L-250,31 Z" fill="rgba(102,154,224,1)"/>
<path d="M-250,30.5 L250,30.5 L250,34.5 L-250,34.5 Z" fill="rgba(103,156,225,1)"/>
<path d="M-250,34 L250,34 L250,38 L-250,38 Z" fill="rgba(105,157,226,1)"/>
<path d="M-250,37.5 L250,37.5 L250,41.5 L-250,41.5 Z" fill="rgba(106,158,226,1)"/>
<path d="M-250,41 L250,41 L250,45 L-250,45 Z" fill="rgba(108,159,227,1)"/>
<path d="M-250,44.5 L250,44.5 L250,48.5 L-250,48.5 Z" fill="rgba(109,160,228,1)"/>
<path d="M-250,48 L250,48 L250,52 L-250,52 Z" fill="rgba(111,162,229,1)"/>
<path d="M-250,51.5 L250,51.5 L250,55.5 L-250,55.5 Z" fill="rgba(112,163,229,1)"/>
<path d="M-250,55 L250,55 L250,59 L-250,59 Z" fill="rgba(114,164,230,1)"/>
<path d="M-250,58.5 L250,58.5 L250,62.5 L-250,62.5 Z" fill="rgba(115,165,231,1)"/>
<path d="M-250,62 L250,62 L250,66 L-250,66 Z" fill="rgba(117,166,232,1)"/>
<path d="M-250,65.5 L250,65.5 L250,69.5 L-250,69.5 Z" fill="rgba(118,168,233,1)"/>
<path d="M-250,69 L250,69 L250,73 L-250,73 Z" fill="rgba(120,169,233,1)"/>
<path d="M-250,72.5 L250,72.5 L250,76.5 L-250,76.5 Z" fill="rgba(122,170,234,1)"/>
<path d="M-250,76 L250,76 L250,80 L-250,80 Z" fill="rgba(123,171,235,1)"/>
<path d="M-250,79.5 L250,79.5 L250,83.5 L-250,83.5 Z" fill="rgba(125,173,236,1)"/>
<path d="M-250,83 L250,83 L250,87 L-250,87 Z" fill="rgba(126,174,236,1)"/>
<path d="M-250,86.5 L250,86.5 L250,90.5 L-250,90.5 Z" fill="rgba(128,175,237,1)"/>
<path d="M-250,90 L250,90 L250,94 L-250,94 Z" fill="rgba(130,176,238,1)"/>
<path d="M-250,93.5 L250,93.5 L250,97.5 L-250,97.5 Z" fill="rgba(131,178,239,1)"/>
<path d="M-250,97 L250,97 L250,101 L-250,101 Z" fill="rgba(133,179,239,1)"/>
<path d="M-250,100.5 L250,100.5 L250,104.5 L-250,104.5 Z" fill="rgba(134,180,240,1)"/>
<path d="M-250,104 L250,104 L250,108 L-250,108 Z" fill="rgba(136,181,241,1)"/>
<path d="M-250,107.5 L250,107.5 L250,111.5 L-250,111.5 Z" fill="rgba(138,183,242,1)"/>
<path d="M-250,111 L250,111 L250,115 L-250,115 Z" fill="rgba(139,184,243,1)"/>
<path d="M-250,114.5 L250,114.5 L250,118.5 L-250,118.5 Z" fill="rgba(141,185,243,1)"/>
<path d="M-250,118 L250,118 L250,122 L-250,122 Z" fill="rgba(143,187,244,1)"/>
<path d="M-250,121.5 L250,121.5 L250,125.5 L-250,125.5 Z" fill="rgba(145,188,245,1)"/>
<path d="M-250,125 L250,125 L250,129 L-250,129 Z" fill="rgba(146,189,246,1)"/>
<path d="M-250,128.5 L250,128.5 L250,132.5 L-250,132.5 Z" fill="rgba(148,190,246,1)"/>
<path d="M-250,132 L250,132 L250,136 L-250,136 Z" fill="rgba(150,192,247,1)"/>
<path d="M-250,135.5 L250,135.5 L250,139.5 L-250,139.5 Z" fill="rgba(151,193,248,1)"/>
<path d="M-250,139 L250,139 L250,143 L-250,143 Z" fill="rgba(153,194,249,1)"/>
<path d="M-250,142.5 L250,142.5 L250,146.5 L-250,146.5 Z" fill="rgba(155,196,250,1)"/>
<path d="M-250,146 L250,146 L250,150 L-250,150 Z" fill="rgba(157,197,250,1)"/>
<path d="M-250,149.5 L250,149.5 L250,153.5 L-250,153.5 Z" fill="rgba(158,198,251,1)"/>
<path d="M-250,153 L250,153 L250,157 L-250,157 Z" fill="rgba(160,200,252,1)"/>
<path d="M-250,156.5 L250,156.5 L250,160.5 L-250,160.5 Z" fill="rgba(162,201,253,1)"/>
<path d="M-250,160 L250,160 L250,164 L-250,164 Z" fill="rgba(164,202,253,1)"/>
<path d="M-250,163.5 L250,163.5 L250,167.5 L-250,167.5 Z" fill="rgba(165,204,254,1)"/>
<path d="M-250,167 L250,167 L250,171 L-250,171 Z" fill="rgba(167,205,255,1)"/>
<path d="M-250,170.5 L250,170.5 L250,174.5 L-250,174.5 Z" fill="rgba(169,206,255,1)"/>
<path d="M-250,174 L250,174 L250,178 L-250,178 Z" fill="rgba(170,207,255,1)"/>
<path d="M-250,177.5 L250,177.5 L250,181.5 L-250,181.5 Z" fill="rgba(171,207,255,1)"/>
<path d="M-250,181 L250,181 L250,185 L-250,185 Z" fill="rgba(172,208,255,1)"/>
<path d="M-250,184.5 L250,184.5 L250,188.5 L-250,188.5 Z" fill="rgba(174,209,255,1)"/>
<path d="M-250,188 L250,188 L250,192 L-250,192 Z" fill="rgba(175,209,255,1)"/>
<path d="M-250,191.5 L250,191.5 L250,195.5 L-250,195.5 Z" fill="rgba(176,210,255,1)"/>
<path d="M-250,195 L250,195 L250,199 L-250,199 Z" fill="rgba(178,211,255,1)"/>
<path d="M-250,198.5 L250,198.5 L250,202.5 L-250,202.5 Z" fill="rgba(179,212,255,1)"/>
<path d="M-250,202 L250,202 L250,206 L-250,206 Z" fill="rgba(180,212,255,1)"/>
<path d="M-250,205.5 L250,205.5 L250,209.5 L-250,209.5 Z" fill="rgba(181,213,255,1)"/>
<path d="M-250,209 L250,209 L250,213 L-250,213 Z" fill="rgba(183,214,255,1)"/>
<path d="M-250,212.5 L250,212.5 L250,216.5 L-250,216.5 Z" fill="rgba(184,215,255,1)"/>
<path d="M-250,216 L250,216 L250,220 L-250,220 Z" fill="rgba(185,215,255,1)"/>
<path d="M-250,219.5 L250,219.5 L250,223.5 L-250,223.5 Z" fill="rgba(187,216,255,1)"/>
<path d="M-134,-28 C-134,-27.448 -134.448,-27 -135,-27 C-135.552,-27 -136,-27.448 -136,-28 C-136,-28.552 -135.552,-29 -135,-29 C-134.448,-29 -134,-28.552 -134,-28 Z" fill="rgba(222,217,48,0.2549019607843137)"/>
<path d="M-132.747,-28 C-132.747,-26.756 -133.756,-25.747 -135,-25.747 C-136.244,-25.747 -137.253,-26.756 -137.253,-28 C-137.253,-29.244 -136.244,-30.253 -135,-30.253 C-133.756,-30.253 -132.747,-29.244 -132.747,-28 Z" fill="rgba(222,217,50,0.25116458704693995)"/>
<path d="M-131.495,-28 C-131.495,-26.064 -133.064,-24.495 -135,-24.495 C-136.936,-24.495 -138.505,-26.064 -138.505,-28 C-138.505,-29.936 -136.936,-31.505 -135,-31.505 C-133.064,-31.505 -131.495,-29.936 -131.495,-28 Z" fill="rgba(222,218,52,0.24742721330956624)"/>
<path d="M-130.242,-28 C-130.242,-25.372 -132.372,-23.242 -135,-23.242 C-137.628,-23.242 -139.758,-25.372 -139.758,-28 C-139.758,-30.628 -137.628,-32.758 -135,-32.758 C-132.372,-32.758 -130.242,-30.628 -130.242,-28 Z" fill="rgba(223,218,54,0.2436898395721925)"/>
<path d="M-128.99,-28 C-128.99,-24.681 -131.681,-21.99 -135,-21.99 C-138.319,-21.99 -141.01,-24.681 -141.01,-28 C-141.01,-31.319 -138.319,-34.01 -135,-34.01 C-131.681,-34.01 -128.99,-31.319 -128.99,-28 Z" fill="rgba(223,218,56,0.23995246583481875)"/>
<path d="M-127.737,-28 C-127.737,-23.989 -130.989,-20.737 -135,-20.737 C-139.011,-20.737 -142.263,-23.989 -142.263,-28 C-142.263,-32.011 -139.011,-35.263 -135,-35.263 C-130.989,-35.263 -127.737,-32.011 -127.737,-28 Z" fill="rgba(223,218,58,0.236215092097445)"/>
<path d="M-126.485,-28 C-126.485,-23.297 -130.297,-19.485 -135,-19.485 C-139.703,-19.485 -143.515,-23.297 -143.515,-28 C-143.515,-32.703 -139.703,-36.515 -135,-36.515 C-130.297,-36.515 -126.485,-32.703 -126.485,-28 Z" fill="rgba(223,219,60,0.23247771836007128)"/>
<path d="M-125.232,-28 C-125.232,-22.605 -129.605,-18.232 -135,-18.232 C-140.395,-18.232 -144.768,-22.605 -144.768,-28 C-144.768,-33.395 -140.395,-37.768 -135,-37.768 C-129.605,-37.768 -125.232,-33.395 -125.232,-28 Z" fill="rgba(224,219,62,0.22874034462269754)"/>
<path d="M-123.98,-28 C-123.98,-21.914 -128.914,-16.98 -135,-16.98 C-141.086,-16.98 -146.02,-21.914 -146.02,-28 C-146.02,-34.086 -141.086,-39.02 -135,-39.02 C-128.914,-39.02 -123.98,-34.086 -123.98,-28 Z" fill="rgba(224,219,64,0.2250029708853238)"/>
<path d="M-122.727,-28 C-122.727,-21.222 -128.222,-15.727 -135,-15.727 C-141.778,-15.727 -147.273,-21.222 -147.273,-28 C-147.273,-34.778 -141.778,-40.273 -135,-40.273 C-128.222,-40.273 -122.727,-34.778 -122.727,-28 Z" fill="rgba(224,220,66,0.22126559714795008)"/>
<path d="M-121.475,-28 C-121.475,-20.53 -127.53,-14.475 -135,-14.475 C-142.47,-14.475 -148.525,-20.53 -148.525,-28 C-148.525,-35.47 -142.47,-41.525 -135,-41.525 C-127.53,-41.525 -121.475,-35.47 -121.475,-28 Z" fill="rgba(224,220,68,0.21752822341057634)"/>
<path d="M-120.222,-28 C-120.222,-19.838 -126.838,-13.222 -135,-13.222 C-143.162,-13.222 -149.778,-19.838 -149.778,-28 C-149.778,-36.162 -143.162,-42.778 -135,-42.778 C-126.838,-42.778 -120.222,-36.162 -120.222,-28 Z" fill="rgba(225,220,70,0.21379084967320258)"/>
<path d="M-118.97,-28 C-118.97,-19.147 -126.147,-11.97 -135,-11.97 C-143.853,-11.97 -151.03,-19.147 -151.03,-28 C-151.03,-36.853 -143.853,-44.03 -135,-44.03 C-126.147,-44.03 -118.97,-36.853 -118.97,-28 Z" fill="rgba(225,220,71,0.21005347593582885)"/>
<path d="M-117.717,-28 C-117.717,-18.455 -125.455,-10.717 -135,-10.717 C-144.545,-10.717 -152.283,-18.455 -152.283,-28 C-152.283,-37.545 -144.545,-45.283 -135,-45.283 C-125.455,-45.283 -117.717,-37.545 -117.717,-28 Z" fill="rgba(225,221,73,0.20631610219845511)"/>
<path d="M-116.465,-28 C-116.465,-17.763 -124.763,-9.465 -135,-9.465 C-145.237,-9.465 -153.535,-17.763 -153.535,-28 C-153.535,-38.237 -145.237,-46.535 -135,-46.535 C-124.763,-46.535 -116.465,-38.237 -116.465,-28 Z" fill="rgba(225,221,75,0.20257872846108138)"/>
<path d="M-115.212,-28 C-115.212,-17.071 -124.071,-8.212 -135,-8.212 C-145.929,-8.212 -154.788,-17.071 -154.788,-28 C-154.788,-38.929 -145.929,-47.788 -135,-47.788 C-124.071,-47.788 -115.212,-38.929 -115.212,-28 Z" fill="rgba(225,221,77,0.19884135472370765)"/>
<path d="M-113.96,-28 C-113.96,-16.38 -123.38,-6.96 -135,-6.96 C-146.62,-6.96 -156.04,-16.38 -156.04,-28 C-156.04,-39.62 -146.62,-49.04 -135,-49.04 C-123.38,-49.04 -113.96,-39.62 -113.96,-28 Z" fill="rgba(226,222,79,0.1951039809863339)"/>
<path d="M-112.707,-28 C-112.707,-15.688 -122.688,-5.707 -135,-5.707 C-147.312,-5.707 -157.293,-15.688 -157.293,-28 C-157.293,-40.312 -147.312,-50.293 -135,-50.293 C-122.688,-50.293 -112.707,-40.312 -112.707,-28 Z" fill="rgba(226,222,81,0.19136660724896015)"/>
<path d="M-111.455,-28 C-111.455,-14.996 -121.996,-4.455 -135,-4.455 C-148.004,-4.455 -158.545,-14.996 -158.545,-28 C-158.545,-41.004 -148.004,-51.545 -135,-51.545 C-121.996,-51.545 -111.455,-41.004 -111.455,-28 Z" fill="rgba(226,222,83,0.18762923351158645)"/>
<path d="M-110.202,-28 C-110.202,-14.304 -121.304,-3.202 -135,-3.202 C-148.696,-3.202 -159.798,-14.304 -159.798,-28 C-159.798,-41.696 -148.696,-52.798 -135,-52.798 C-121.304,-52.798 -110.202,-41.696 -110.202,-28 Z" fill="rgba(226,222,85,0.18389185977421268)"/>
<path d="M-108.949,-28 C-108.949,-13.613 -120.613,-1.949 -135,-1.949 C-149.387,-1.949 -161.051,-13.613 -161.051,-28 C-161.051,-42.387 -149.387,-54.051 -135,-54.051 C-120.613,-54.051 -108.949,-42.387 -108.949,-28 Z" fill="rgba(227,223,87,0.18015448603683898)"/>
<path d="M-107.697,-28 C-107.697,-12.921 -119.921,-0.697 -135,-0.697 C-150.079,-0.697 -162.303,-12.921 -162.303,-28 C-162.303,-43.079 -150.079,-55.303 -135,-55.303 C-119.921,-55.303 -107.697,-43.079 -107.697,-28 Z" fill="rgba(227,223,89,0.17641711229946522)"/>
<path d="M-106.444,-28 C-106.444,-12.229 -119.229,0.556 -135,0.556 C-150.771,0.556 -163.556,-12.229 -163.556,-28 C-163.556,-43.771 -150.771,-56.556 -135,-56.556 C-119.229,-56.556 -106.444,-43.771 -106.444,-28 Z" fill="rgba(227,223,91,0.17267973856209146)"/>
<path d="M-105.192,-28 C-105.192,-11.537 -118.537,1.808 -135,1.808 C-151.463,1.808 -164.808,-11.537 -164.808,-28 C-164.808,-44.463 -151.463,-57.808 -135,-57.808 C-118.537,-57.808 -105.192,-44.463 -105.192,-28 Z" fill="rgba(227,223,94,0.16894236482471775)"/>
<path d="M-103.939,-28 C-103.939,-10.846 -117.846,3.061 -135,3.061 C-152.154,3.061 -166.061,-10.846 -166.061,-28 C-166.061,-45.154 -152.154,-59.061 -135,-59.061 C-117.846,-59.061 -103.939,-45.154 -103.939,-28 Z" fill="rgba(228,224,96,0.165204991087344)"/>
<path d="M-102.687,-28 C-102.687,-10.154 -117.154,4.313 -135,4.313 C-152.846,4.313 -167.313,-10.154 -167.313,-28 C-167.313,-45.846 -152.846,-60.313 -135,-60.313 C-117.154,-60.313 -102.687,-45.846 -102.687,-28 Z" fill="rgba(228,224,98,0.16146761734997028)"/>
<path d="M-101.434,-28 C-101.434,-9.462 -116.462,5.566 -135,5.566 C-153.538,5.566 -168.566,-9.462 -168.566,-28 C-168.566,-46.538 -153.538,-61.566 -135,-61.566 C-116.462,-61.566 -101.434,-46.538 -101.434,-28 Z" fill="rgba(228,224,100,0.15773024361259652)"/>
<path d="M-100.182,-28 C-100.182,-8.77 -115.77,6.818 -135,6.818 C-154.23,6.818 -169.818,-8.77 -169.818,-28 C-169.818,-47.23 -154.23,-62.818 -135,-62.818 C-115.77,-62.818 -100.182,-47.23 -100.182,-28 Z" fill="rgba(228,225,102,0.1539928698752228)"/>
<path d="M-98.929,-28 C-98.929,-8.079 -115.079,8.071 -135,8.071 C-154.921,8.071 -171.071,-8.079 -171.071,-28 C-171.071,-47.921 -154.921,-64.071 -135,-64.071 C-115.079,-64.071 -98.929,-47.921 -98.929,-28 Z" fill="rgba(228,225,104,0.15025549613784905)"/>
<path d="M-97.677,-28 C-97.677,-7.387 -114.387,9.323 -135,9.323 C-155.613,9.323 -172.323,-7.387 -172.323,-28 C-172.323,-48.613 -155.613,-65.323 -135,-65.323 C-114.387,-65.323 -97.677,-48.613 -97.677,-28 Z" fill="rgba(229,225,106,0.14651812240047532)"/>
<path d="M-96.424,-28 C-96.424,-6.695 -113.695,10.576 -135,10.576 C-156.305,10.576 -173.576,-6.695 -173.576,-28 C-173.576,-49.305 -156.305,-66.576 -135,-66.576 C-113.695,-66.576 -96.424,-49.305 -96.424,-28 Z" fill="rgba(229,225,108,0.1427807486631016)"/>
<path d="M-95.172,-28 C-95.172,-6.003 -113.003,11.828 -135,11.828 C-156.997,11.828 -174.828,-6.003 -174.828,-28 C-174.828,-49.997 -156.997,-67.828 -135,-67.828 C-113.003,-67.828 -95.172,-49.997 -95.172,-28 Z" fill="rgba(229,226,110,0.13904337492572783)"/>
<path d="M-93.919,-28 C-93.919,-5.312 -112.312,13.081 -135,13.081 C-157.688,13.081 -176.081,-5.312 -176.081,-28 C-176.081,-50.688 -157.688,-69.081 -135,-69.081 C-112.312,-69.081 -93.919,-50.688 -93.919,-28 Z" fill="rgba(229,226,112,0.13530600118835412)"/>
<path d="M-92.667,-28 C-92.667,-4.62 -111.62,14.333 -135,14.333 C-158.38,14.333 -177.333,-4.62 -177.333,-28 C-177.333,-51.38 -158.38,-70.333 -135,-70.333 C-111.62,-70.333 -92.667,-51.38 -92.667,-28 Z" fill="rgba(230,226,114,0.13156862745098036)"/>
<path d="M-91.414,-28 C-91.414,-3.928 -110.928,15.586 -135,15.586 C-159.072,15.586 -178.586,-3.928 -178.586,-28 C-178.586,-52.072 -159.072,-71.586 -135,-71.586 C-110.928,-71.586 -91.414,-52.072 -91.414,-28 Z" fill="rgba(230,227,116,0.12783125371360662)"/>
<path d="M-90.162,-28 C-90.162,-3.236 -110.236,16.838 -135,16.838 C-159.764,16.838 -179.838,-3.236 -179.838,-28 C-179.838,-52.764 -159.764,-72.838 -135,-72.838 C-110.236,-72.838 -90.162,-52.764 -90.162,-28 Z" fill="rgba(230,227,118,0.12409387997623289)"/>
<path d="M-88.909,-28 C-88.909,-2.545 -109.545,18.091 -135,18.091 C-160.455,18.091 -181.091,-2.545 -181.091,-28 C-181.091,-53.455 -160.455,-74.091 -135,-74.091 C-109.545,-74.091 -88.909,-53.455 -88.909,-28 Z" fill="rgba(230,227,120,0.12035650623885916)"/>
<path d="M-87.657,-28 C-87.657,-1.853 -108.853,19.343 -135,19.343 C-161.147,19.343 -182.343,-1.853 -182.343,-28 C-182.343,-54.147 -161.147,-75.343 -135,-75.343 C-108.853,-75.343 -87.657,-54.147 -87.657,-28 Z" fill="rgba(231,227,122,0.11661913250148542)"/>
<path d="M-86.404,-28 C-86.404,-1.161 -108.161,20.596 -135,20.596 C-161.839,20.596 -183.596,-1.161 -183.596,-28 C-183.596,-54.839 -161.839,-76.596 -135,-76.596 C-108.161,-76.596 -86.404,-54.839 -86.404,-28 Z" fill="rgba(231,228,124,0.11288175876411169)"/>
<path d="M-85.152,-28 C-85.152,-0.469 -107.469,21.848 -135,21.848 C-162.531,21.848 -184.848,-0.469 -184.848,-28 C-184.848,-55.531 -162.531,-77.848 -135,-77.848 C-107.469,-77.848 -85.152,-55.531 -85.152,-28 Z" fill="rgba(231,228,126,0.10914438502673796)"/>
<path d="M-83.899,-28 C-83.899,0.222 -106.778,23.101 -135,23.101 C-163.222,23.101 -186.101,0.222 -186.101,-28 C-186.101,-56.222 -163.222,-79.101 -135,-79.101 C-106.778,-79.101 -83.899,-56.222 -83.899,-28 Z" fill="rgba(231,228,128,0.10540701128936422)"/>
<path d="M-82.646,-28 C-82.646,0.914 -106.086,24.354 -135,24.354 C-163.914,24.354 -187.354,0.914 -187.354,-28 C-187.354,-56.914 -163.914,-80.354 -135,-80.354 C-106.086,-80.354 -82.646,-56.914 -82.646,-28 Z" fill="rgba(232,229,131,0.10166963755199046)"/>
<path d="M-81.394,-28 C-81.394,1.606 -105.394,25.606 -135,25.606 C-164.606,25.606 -188.606,1.606 -188.606,-28 C-188.606,-57.606 -164.606,-81.606 -135,-81.606 C-105.394,-81.606 -81.394,-57.606 -81.394,-28 Z" fill="rgba(232,229,133,0.09793226381461673)"/>
<path d="M-80.141,-28 C-80.141,2.298 -104.702,26.859 -135,26.859 C-165.298,26.859 -189.859,2.298 -189.859,-28 C-189.859,-58.298 -165.298,-82.859 -135,-82.859 C-104.702,-82.859 -80.141,-58.298 -80.141,-28 Z" fill="rgba(232,229,135,0.094194890077243)"/>
<path d="M-78.889,-28 C-78.889,2.989 -104.011,28.111 -135,28.111 C-165.989,28.111 -191.111,2.989 -191.111,-28 C-191.111,-58.989 -165.989,-84.111 -135,-84.111 C-104.011,-84.111 -78.889,-58.989 -78.889,-28 Z" fill="rgba(232,229,137,0.09045751633986923)"/>
<path d="M-77.636,-28 C-77.636,3.681 -103.319,29.364 -135,29.364 C-166.681,29.364 -192.364,3.681 -192.364,-28 C-192.364,-59.681 -166.681,-85.364 -135,-85.364 C-103.319,-85.364 -77.636,-59.681 -77.636,-28 Z" fill="rgba(232,230,139,0.0867201426024955)"/>
<path d="M-76.384,-28 C-76.384,4.373 -102.627,30.616 -135,30.616 C-167.373,30.616 -193.616,4.373 -193.616,-28 C-193.616,-60.373 -167.373,-86.616 -135,-86.616 C-102.627,-86.616 -76.384,-60.373 -76.384,-28 Z" fill="rgba(233,230,141,0.08298276886512176)"/>
<path d="M-75.131,-28 C-75.131,5.065 -101.935,31.869 -135,31.869 C-168.065,31.869 -194.869,5.065 -194.869,-28 C-194.869,-61.065 -168.065,-87.869 -135,-87.869 C-101.935,-87.869 -75.131,-61.065 -75.131,-28 Z" fill="rgba(233,230,143,0.07924539512774803)"/>
<path d="M-73.879,-28 C-73.879,5.756 -101.244,33.121 -135,33.121 C-168.756,33.121 -196.121,5.756 -196.121,-28 C-196.121,-61.756 -168.756,-89.121 -135,-89.121 C-101.244,-89.121 -73.879,-61.756 -73.879,-28 Z" fill="rgba(233,231,145,0.0755080213903743)"/>
<path d="M-72.626,-28 C-72.626,6.448 -100.552,34.374 -135,34.374 C-169.448,34.374 -197.374,6.448 -197.374,-28 C-197.374,-62.448 -169.448,-90.374 -135,-90.374 C-100.552,-90.374 -72.626,-62.448 -72.626,-28 Z" fill="rgba(233,231,147,0.07177064765300056)"/>
<path d="M-71.374,-28 C-71.374,7.14 -99.86,35.626 -135,35.626 C-170.14,35.626 -198.626,7.14 -198.626,-28 C-198.626,-63.14 -170.14,-91.626 -135,-91.626 C-99.86,-91.626 -71.374,-63.14 -71.374,-28 Z" fill="rgba(234,231,150,0.06803327391562683)"/>
<path d="M-70.121,-28 C-70.121,7.832 -99.168,36.879 -135,36.879 C-170.832,36.879 -199.879,7.832 -199.879,-28 C-199.879,-63.832 -170.832,-92.879 -135,-92.879 C-99.168,-92.879 -70.121,-63.832 -70.121,-28 Z" fill="rgba(234,231,152,0.0642959001782531)"/>
<path d="M-68.869,-28 C-68.869,8.523 -98.477,38.131 -135,38.131 C-171.523,38.131 -201.131,8.523 -201.131,-28 C-201.131,-64.523 -171.523,-94.131 -135,-94.131 C-98.477,-94.131 -68.869,-64.523 -68.869,-28 Z" fill="rgba(234,232,154,0.060558526440879334)"/>
<path d="M-67.616,-28 C-67.616,9.215 -97.785,39.384 -135,39.384 C-172.215,39.384 -202.384,9.215 -202.384,-28 C-202.384,-65.215 -172.215,-95.384 -135,-95.384 C-97.785,-95.384 -67.616,-65.215 -67.616,-28 Z" fill="rgba(234,232,156,0.0568211527035056)"/>
<path d="M-66.364,-28 C-66.364,9.907 -97.093,40.636 -135,40.636 C-172.907,40.636 -203.636,9.907 -203.636,-28 C-203.636,-65.907 -172.907,-96.636 -135,-96.636 C-97.093,-96.636 -66.364,-65.907 -66.364,-28 Z" fill="rgba(235,232,158,0.05308377896613187)"/>
<path d="M-65.111,-28 C-65.111,10.599 -96.401,41.889 -135,41.889 C-173.599,41.889 -204.889,10.599 -204.889,-28 C-204.889,-66.599 -173.599,-97.889 -135,-97.889 C-96.401,-97.889 -65.111,-66.599 -65.111,-28 Z" fill="rgba(235,233,160,0.04934640522875813)"/>
<path d="M-63.859,-28 C-63.859,11.29 -95.71,43.141 -135,43.141 C-174.29,43.141 -206.141,11.29 -206.141,-28 C-206.141,-67.29 -174.29,-99.141 -135,-99.141 C-95.71,-99.141 -63.859,-67.29 -63.859,-28 Z" fill="rgba(235,233,162,0.0456090314913844)"/>
<path d="M-62.606,-28 C-62.606,11.982 -95.018,44.394 -135,44.394 C-174.982,44.394 -207.394,11.982 -207.394,-28 C-207.394,-67.982 -174.982,-100.394 -135,-100.394 C-95.018,-100.394 -62.606,-67.982 -62.606,-28 Z" fill="rgba(235,233,165,0.041871657754010666)"/>
<path d="M-61.354,-28 C-61.354,12.674 -94.326,45.646 -135,45.646 C-175.674,45.646 -208.646,12.674 -208.646,-28 C-208.646,-68.674 -175.674,-101.646 -135,-101.646 C-94.326,-101.646 -61.354,-68.674 -61.354,-28 Z" fill="rgba(235,233,167,0.03813428401663693)"/>
<path d="M-60.101,-28 C-60.101,13.366 -93.634,46.899 -135,46.899 C-176.366,46.899 -209.899,13.366 -209.899,-28 C-209.899,-69.366 -176.366,-102.899 -135,-102.899 C-93.634,-102.899 -60.101,-69.366 -60.101,-28 Z" fill="rgba(236,234,169,0.0343969102792632)"/>
<path d="M-58.848,-28 C-58.848,14.057 -92.943,48.152 -135,48.152 C-177.057,48.152 -211.152,14.057 -211.152,-28 C-211.152,-70.057 -177.057,-104.152 -135,-104.152 C-92.943,-104.152 -58.848,-70.057 -58.848,-28 Z" fill="rgba(236,234,171,0.030659536541889465)"/>
<path d="M-57.596,-28 C-57.596,14.749 -92.251,49.404 -135,49.404 C-177.749,49.404 -212.404,14.749 -212.404,-28 C-212.404,-70.749 -177.749,-105.404 -135,-105.404 C-92.251,-105.404 -57.596,-70.749 -57.596,-28 Z" fill="rgba(236,234,173,0.026922162804515704)"/>
<path d="M-56.343,-28 C-56.343,15.441 -91.559,50.657 -135,50.657 C-178.441,50.657 -213.657,15.441 -213.657,-28 C-213.657,-71.441 -178.441,-106.657 -135,-106.657 C-91.559,-106.657 -56.343,-71.441 -56.343,-28 Z" fill="rgba(236,235,175,0.02318478906714197)"/>
<path d="M-55.091,-28 C-55.091,16.133 -90.867,51.909 -135,51.909 C-179.133,51.909 -214.909,16.133 -214.909,-28 C-214.909,-72.133 -179.133,-107.909 -135,-107.909 C-90.867,-107.909 -55.091,-72.133 -55.091,-28 Z" fill="rgba(237,235,178,0.019447415329768236)"/>
<path d="M-53.838,-28 C-53.838,16.824 -90.176,53.162 -135,53.162 C-179.824,53.162 -216.162,16.824 -216.162,-28 C-216.162,-72.824 -179.824,-109.162 -135,-109.162 C-90.176,-109.162 -53.838,-72.824 -53.838,-28 Z" fill="rgba(237,235,180,0.015710041592394502)"/>
<path d="M-52.586,-28 C-52.586,17.516 -89.484,54.414 -135,54.414 C-180.516,54.414 -217.414,17.516 -217.414,-28 C-217.414,-73.516 -180.516,-110.414 -135,-110.414 C-89.484,-110.414 -52.586,-73.516 -52.586,-28 Z" fill="rgba(237,235,182,0.011972667855020769)"/>
<path d="M-51.333,-28 C-51.333,18.208 -88.792,55.667 -135,55.667 C-181.208,55.667 -218.667,18.208 -218.667,-28 C-218.667,-74.208 -181.208,-111.667 -135,-111.667 C-88.792,-111.667 -51.333,-74.208 -51.333,-28 Z" fill="rgba(237,236,184,0.008235294117647035)"/>
<path d="M-50.081,-28 C-50.081,18.9 -88.1,56.919 -135,56.919 C-181.9,56.919 -219.919,18.9 -219.919,-28 C-219.919,-74.9 -181.9,-112.919 -135,-112.919 C-88.1,-112.919 -50.081,-74.9 -50.081,-28 Z" fill="rgba(238,236,186,0.004497920380273301)"/>
<path d="M-48.828,-28 C-48.828,19.591 -87.409,58.172 -135,58.172 C-182.591,58.172 -221.172,19.591 -221.172,-28 C-221.172,-75.591 -182.591,-114.172 -135,-114.172 C-87.409,-114.172 -48.828,-75.591 -48.828,-28 Z" fill="rgba(238,236,189,0.00076054664289954)"/>
<path d="M-47.576,-28 C-47.576,20.283 -86.717,59.424 -135,59.424 C-183.283,59.424 -222.424,20.283 -222.424,-28 C-222.424,-76.283 -183.283,-115.424 -135,-115.424 C-86.717,-115.424 -47.576,-76.283 -47.576,-28 Z" fill="rgba(238,237,191,0)"/>
<path d="M-46.323,-28 C-46.323,20.975 -86.025,60.677 -135,60.677 C-183.975,60.677 -223.677,20.975 -223.677,-28 C-223.677,-76.975 -183.975,-116.677 -135,-116.677 C-86.025,-116.677 -46.323,-76.975 -46.323,-28 Z" fill="rgba(238,237,193,0)"/>
<path d="M-45.071,-28 C-45.071,21.667 -85.333,61.929 -135,61.929 C-184.667,61.929 -224.929,21.667 -224.929,-28 C-224.929,-77.667 -184.667,-117.929 -135,-117.929 C-85.333,-117.929 -45.071,-77.667 -45.071,-28 Z" fill="rgba(238,237,195,0)"/>
<path d="M-43.818,-28 C-43.818,22.358 -84.642,63.182 -135,63.182 C-185.358,63.182 -226.182,22.358 -226.182,-28 C-226.182,-78.358 -185.358,-119.182 -135,-119.182 C-84.642,-119.182 -43.818,-78.358 -43.818,-28 Z" fill="rgba(239,238,197,0)"/>
<path d="M-42.566,-28 C-42.566,23.05 -83.95,64.434 -135,64.434 C-186.05,64.434 -227.434,23.05 -227.434,-28 C-227.434,-79.05 -186.05,-120.434 -135,-120.434 C-83.95,-120.434 -42.566,-79.05 -42.566,-28 Z" fill="rgba(239,238,200,0)"/>
<path d="M-41.313,-28 C-41.313,23.742 -83.258,65.687 -135,65.687 C-186.742,65.687 -228.687,23.742 -228.687,-28 C-228.687,-79.742 -186.742,-121.687 -135,-121.687 C-83.258,-121.687 -41.313,-79.742 -41.313,-28 Z" fill="rgba(239,238,202,0)"/>
<path d="M-40.061,-28 C-40.061,24.434 -82.566,66.939 -135,66.939 C-187.434,66.939 -229.939,24.434 -229.939,-28 C-229.939,-80.434 -187.434,-122.939 -135,-122.939 C-82.566,-122.939 -40.061,-80.434 -40.061,-28 Z" fill="rgba(239,238,204,0)"/>
<path d="M-38.808,-28 C-38.808,25.125 -81.875,68.192 -135,68.192 C-188.125,68.192 -231.192,25.125 -231.192,-28 C-231.192,-81.125 -188.125,-124.192 -135,-124.192 C-81.875,-124.192 -38.808,-81.125 -38.808,-28 Z" fill="rgba(240,239,206,0)"/>
<path d="M-37.556,-28 C-37.556,25.817 -81.183,69.444 -135,69.444 C-188.817,69.444 -232.444,25.817 -232.444,-28 C-232.444,-81.817 -188.817,-125.444 -135,-125.444 C-81.183,-125.444 -37.556,-81.817 -37.556,-28 Z" fill="rgba(240,239,209,0)"/>
<path d="M-36.303,-28 C-36.303,26.509 -80.491,70.697 -135,70.697 C-189.509,70.697 -233.697,26.509 -233.697,-28 C-233.697,-82.509 -189.509,-126.697 -135,-126.697 C-80.491,-126.697 -36.303,-82.509 -36.303,-28 Z" fill="rgba(240,239,211,0)"/>
<path d="M-35.051,-28 C-35.051,27.201 -79.799,71.949 -135,71.949 C-190.201,71.949 -234.949,27.201 -234.949,-28 C-234.949,-83.201 -190.201,-127.949 -135,-127.949 C-79.799,-127.949 -35.051,-83.201 -35.051,-28 Z" fill="rgba(240,240,213,0)"/>
<path d="M-33.798,-28 C-33.798,27.892 -79.108,73.202 -135,73.202 C-190.892,73.202 -236.202,27.892 -236.202,-28 C-236.202,-83.892 -190.892,-129.202 -135,-129.202 C-79.108,-129.202 -33.798,-83.892 -33.798,-28 Z" fill="rgba(241,240,215,0)"/>
<path d="M-32.545,-28 C-32.545,28.584 -78.416,74.455 -135,74.455 C-191.584,74.455 -237.455,28.584 -237.455,-28 C-237.455,-84.584 -191.584,-130.455 -135,-130.455 C-78.416,-130.455 -32.545,-84.584 -32.545,-28 Z" fill="rgba(241,240,218,0)"/>
<path d="M-31.293,-28 C-31.293,29.276 -77.724,75.707 -135,75.707 C-192.276,75.707 -238.707,29.276 -238.707,-28 C-238.707,-85.276 -192.276,-131.707 -135,-131.707 C-77.724,-131.707 -31.293,-85.276 -31.293,-28 Z" fill="rgba(241,240,220,0)"/>
<path d="M-30.04,-28 C-30.04,29.968 -77.032,76.96 -135,76.96 C-192.968,76.96 -239.96,29.968 -239.96,-28 C-239.96,-85.968 -192.968,-132.96 -135,-132.96 C-77.032,-132.96 -30.04,-85.968 -30.04,-28 Z" fill="rgba(241,241,222,0)"/>
<path d="M-28.788,-28 C-28.788,30.659 -76.341,78.212 -135,78.212 C-193.659,78.212 -241.212,30.659 -241.212,-28 C-241.212,-86.659 -193.659,-134.212 -135,-134.212 C-76.341,-134.212 -28.788,-86.659 -28.788,-28 Z" fill="rgba(241,241,224,0)"/>
<path d="M-27.535,-28 C-27.535,31.351 -75.649,79.465 -135,79.465 C-194.351,79.465 -242.465,31.351 -242.465,-28 C-242.465,-87.351 -194.351,-135.465 -135,-135.465 C-75.649,-135.465 -27.535,-87.351 -27.535,-28 Z" fill="rgba(242,241,227,0)"/>
<path d="M-26.283,-28 C-26.283,32.043 -74.957,80.717 -135,80.717 C-195.043,80.717 -243.717,32.043 -243.717,-28 C-243.717,-88.043 -195.043,-136.717 -135,-136.717 C-74.957,-136.717 -26.283,-88.043 -26.283,-28 Z" fill="rgba(242,242,229,0)"/>
<path d="M-25.03,-28 C-25.03,32.735 -74.265,81.97 -135,81.97 C-195.735,81.97 -244.97,32.735 -244.97,-28 C-244.97,-88.735 -195.735,-137.97 -135,-137.97 C-74.265,-137.97 -25.03,-88.735 -25.03,-28 Z" fill="rgba(242,242,231,0)"/>
<path d="M-23.778,-28 C-23.778,33.426 -73.574,83.222 -135,83.222 C-196.426,83.222 -246.222,33.426 -246.222,-28 C-246.222,-89.426 -196.426,-139.222 -135,-139.222 C-73.574,-139.222 -23.778,-89.426 -23.778,-28 Z" fill="rgba(242,242,233,0)"/>
<path d="M-22.525,-28 C-22.525,34.118 -72.882,84.475 -135,84.475 C-197.118,84.475 -247.475,34.118 -247.475,-28 C-247.475,-90.118 -197.118,-140.475 -135,-140.475 C-72.882,-140.475 -22.525,-90.118 -22.525,-28 Z" fill="rgba(243,242,236,0)"/>
<path d="M-21.273,-28 C-21.273,34.81 -72.19,85.727 -135,85.727 C-197.81,85.727 -248.727,34.81 -248.727,-28 C-248.727,-90.81 -197.81,-141.727 -135,-141.727 C-72.19,-141.727 -21.273,-90.81 -21.273,-28 Z" fill="rgba(243,243,238,0)"/>
<path d="M-20.02,-28 C-20.02,35.502 -71.498,86.98 -135,86.98 C-198.502,86.98 -249.98,35.502 -249.98,-28 C-249.98,-91.502 -198.502,-142.98 -135,-142.98 C-71.498,-142.98 -20.02,-91.502 -20.02,-28 Z" fill="rgba(243,243,240,0)"/>
<path d="M-18.768,-28 C-18.768,36.193 -70.807,88.232 -135,88.232 C-199.193,88.232 -251.232,36.193 -251.232,-28 C-251.232,-92.193 -199.193,-144.232 -135,-144.232 C-70.807,-144.232 -18.768,-92.193 -18.768,-28 Z" fill="rgba(243,243,243,0)"/>
<path d="M-17.515,-28 C-17.515,36.885 -70.115,89.485 -135,89.485 C-199.885,89.485 -252.485,36.885 -252.485,-28 C-252.485,-92.885 -199.885,-145.485 -135,-145.485 C-70.115,-145.485 -17.515,-92.885 -17.515,-28 Z" fill="rgba(244,244,244,0)"/>
<path d="M-16.263,-28 C-16.263,37.577 -69.423,90.737 -135,90.737 C-200.577,90.737 -253.737,37.577 -253.737,-28 C-253.737,-93.577 -200.577,-146.737 -135,-146.737 C-69.423,-146.737 -16.263,-93.577 -16.263,-28 Z" fill="rgba(244,244,244,0)"/>
<path d="M-15.01,-28 C-15.01,38.269 -68.731,91.99 -135,91.99 C-201.269,91.99 -254.99,38.269 -254.99,-28 C-254.99,-94.269 -201.269,-147.99 -135,-147.99 C-68.731,-147.99 -15.01,-94.269 -15.01,-28 Z" fill="rgba(244,244,244,0)"/>
<path d="M-13.758,-28 C-13.758,38.96 -68.04,93.242 -135,93.242 C-201.96,93.242 -256.242,38.96 -256.242,-28 C-256.242,-94.96 -201.96,-149.242 -135,-149.242 C-68.04,-149.242 -13.758,-94.96 -13.758,-28 Z" fill="rgba(244,244,244,0)"/>
<path d="M-12.505,-28 C-12.505,39.652 -67.348,94.495 -135,94.495 C-202.652,94.495 -257.495,39.652 -257.495,-28 C-257.495,-95.652 -202.652,-150.495 -135,-150.495 C-67.348,-150.495 -12.505,-95.652 -12.505,-28 Z" fill="rgba(244,244,244,0)"/>
<path d="M-11.253,-28 C-11.253,40.344 -66.656,95.747 -135,95.747 C-203.344,95.747 -258.747,40.344 -258.747,-28 C-258.747,-96.344 -203.344,-151.747 -135,-151.747 C-66.656,-151.747 -11.253,-96.344 -11.253,-28 Z" fill="rgba(245,245,245,0)"/>
<path d="M-10,-28 C-10,41.036 -65.964,97 -135,97 C-204.036,97 -260,41.036 -260,-28 C-260,-97.036 -204.036,-153 -135,-153 C-65.964,-153 -10,-97.036 -10,-28 Z" fill="rgba(245,245,245,0)"/>
<path d="M115,-80 C115,-68.954 106.046,-60 95,-60 C83.954,-60 75,-68.954 75,-80 C75,-91.046 83.954,-100 95,-100 C106.046,-100 115,-91.046 115,-80 Z" fill="rgba(236,195,117,1)" stroke="rgba(43,43,43,1)" stroke-width="1.5"/>
<path d="M165,-66.603 C165,-55.557 156.046,-46.603 145,-46.603 C133.954,-46.603 125,-55.557 125,-66.603 C125,-77.648 133.954,-86.603 145,-86.603 C156.046,-86.603 165,-77.648 165,-66.603 Z" fill="rgba(194,209,119,1)" stroke="rgba(43,43,43,1)" stroke-width="1.5"/>
<path d="M201.603,-30 C201.603,-18.954 192.648,-10 181.603,-10 C170.557,-10 161.603,-18.954 161.603,-30 C161.603,-41.046 170.557,-50 181.603,-50 C192.648,-50 201.603,-41.046 201.603,-30 Z" fill="rgba(146,219,144,1)" stroke="rgba(43,43,43,1)" stroke-width="1.5"/>
<path d="M215,20 C215,31.046 206.046,40 195,40 C183.954,40 175,31.046 175,20 C175,8.954 183.954,0 195,0 C206.046,0 215,8.954 215,20 Z" fill="rgba(94,224,184,1)" stroke="rgba(43,43,43,1)" stroke-width="1.5"/>
<path d="M201.603,70 C201.603,81.046 192.648,90 181.603,90 C170.557,90 161.603,81.046 161.603,70 C161.603,58.954 170.557,50 181.603,50 C192.648,50 201.603,58.954 201.603,70 Z" fill="rgba(45,224,229,1)" stroke="rgba(43,43,43,1)" stroke-width="1.5"/>
<path d="M165,106.603 C165,117.648 156.046,126.603 145,126.603 C133.954,126.603 125,117.648 125,106.603 C125,95.557 133.954,86.603 145,86.603 C156.046,86.603 165,95.557 165,106.603 Z" fill="rgba(69,219,255,1)" stroke="rgba(43,43,43,1)" stroke-width="1.5"/>
<path d="M115,120 C115,131.046 106.046,140 95,140 C83.954,140 75,131.046 75,120 C75,108.954 83.954,100 95,100 C106.046,100 115,108.954 115,120 Z" fill="rgba(135,209,255,1)" stroke="rgba(43,43,43,1)" stroke-width="1.5"/>
<path d="M65,106.603 C65,117.648 56.046,126.603 45,126.603 C33.954,126.603 25,117.648 25,106.603 C25,95.557 33.954,86.603 45,86.603 C56.046,86.603 65,95.557 65,106.603 Z" fill="rgba(197,194,255,1)" stroke="rgba(43,43,43,1)" stroke-width="1.5"/>
<path d="M28.397,70 C28.397,81.046 19.443,90 8.397,90 C-2.648,90 -11.603,81.046 -11.603,70 C-11.603,58.954 -2.648,50 8.397,50 C19.443,50 28.397,58.954 28.397,70 Z" fill="rgba(246,179,255,1)" stroke="rgba(43,43,43,1)" stroke-width="1.5"/>
<path d="M15,20 C15,31.046 6.046,40 -5,40 C-16.046,40 -25,31.046 -25,20 C-25,8.954 -16.046,0 -5,0 C6.046,0 15,8.954 15,20 Z" fill="rgba(255,168,219,1)" stroke="rgba(43,43,43,1)" stroke-width="1.5"/>
<path d="M28.397,-30 C28.397,-18.954 19.443,-10 8.397,-10 C-2.648,-10 -11.603,-18.954 -11.603,-30 C-11.603,-41.046 -2.648,-50 8.397,-50 C19.443,-50 28.397,-41.046 28.397,-30 Z" fill="rgba(255,169,176,1)" stroke="rgba(43,43,43,1)" stroke-width="1.5"/>
<path d="M65,-66.603 C65,-55.557 56.046,-46.603 45,-46.603 C33.954,-46.603 25,-55.557 25,-66.603 C25,-77.648 33.954,-86.603 45,-86.603 C56.046,-86.603 65,-77.648 65,-66.603 Z" fill="rgba(255,180,139,1)" stroke="rgba(43,43,43,1)" stroke-width="1.5"/>
<path d="M95,20 L95,-50" fill="rgba(0,0,0,1)" stroke="rgba(0,0,0,1)" stroke-width="1"/>
<path d="M95.433,20.25 L64.433,73.944 L67.897,75.944 L59,82.354 L60.103,71.444 L63.567,73.444 L94.567,19.75 Z" fill="rgba(0,0,0,1)"/>
<path d="M95.433,19.75 L126.433,73.444 L129.897,71.444 L131,82.354 L122.103,75.944 L125.567,73.944 L94.567,20.25 Z" fill="rgba(0,0,0,1)"/>
<path d="M35,160 L75,160 L75,200 L35,200 Z" fill="rgba(236,195,117,1)" stroke="rgba(0,0,0,1)" stroke-width="1"/>
<path d="M75,160 L115,160 L115,200 L75,200 Z" fill="rgba(197,194,255,1)" stroke="rgba(0,0,0,1)" stroke-width="1"/>
<path d="M115,160 L155,160 L155,200 L115,200 Z" fill="rgba(69,219,255,1)" stroke="rgba(0,0,0,1)" stroke-width="1"/>
</svg>