<svg xmlns="http://www.w3.org/2000/svg" viewBox="-275.21 -173.27 550.42 426.55">
<path d="M-242.154,-19.783 C-242.154,-19.783 -182.154,-36.988 -182.154,-36.988 C-182.154,-36.988 -166.077,23.012 -166.077,23.012 C-166.077,23.012 -226.077,40.217 -226.077,40.217 C-226.077,40.217 -242.154,-19.783 -242.154,-19.783 Z" fill="rgba(179,184,231,1)" stroke="rgba(0,0,0,1)" stroke-width="1"/>
<path d="M-182.154,-36.988 C-182.154,-36.988 -122.154,-54.193 -122.154,-54.193 C-122.154,-54.193 -106.077,5.807 -106.077,5.807 C-106.077,5.807 -166.077,23.012 -166.077,23.012 C-166.077,23.012 -182.154,-36.988 -182.154,-36.988 Z" fill="rgba(196,252,250,1)" stroke="rgba(0,0,0,1)" stroke-width="1"/>
<path d="M-122.154,-54.193 C-122.154,-54.193 -62.154,-71.398 -62.154,-71.398 C-62.154,-71.398 -46.077,-11.398 -46.077,-11.398 C-46.077,-11.398 -106.077,5.807 -106.077,5.807 C-106.077,5.807 -122.154,-54.193 -122.154,-54.193 Z" fill="rgba(183,166,214,1)" stroke="rgba(0,0,0,1)" stroke-width="1"/>
<path d="M-62.154,-71.398 C-62.154,-71.398 -2.154,-88.602 -2.154,-88.602 C-2.154,-88.602 13.923,-28.602 13.923,-28.602 C13.923,-28.602 -46.077,-11.398 -46.077,-11.398 C-46.077,-11.398 -62.154,-71.398 -62.154,-71.398 Z" fill="rgba(211,237,184,1)" stroke="rgba(0,0,0,1)" stroke-width="1"/>
<path d="M-2.154,-88.602 C-2.154,-88.602 57.846,-105.807 57.846,-105.807 C57.846,-105.807 73.923,-45.807 73.923,-45.807 C73.923,-45.807 13.923,-28.602 13.923,-28.602 C13.923,-28.602 -2.154,-88.602 -2.154,-88.602 Z" fill="rgba(153,119,124,1)" stroke="rgba(0,0,0,1)" stroke-width="1"/>
<path d="M57.846,-105.807 C57.846,-105.807 117.846,-123.012 117.846,-123.012 C117.846,-123.012 133.923,-63.012 133.923,-63.012 C133.923,-63.012 73.923,-45.807 73.923,-45.807 C73.923,-45.807 57.846,-105.807 57.846,-105.807 Z" fill="rgba(227,247,192,1)" stroke="rgba(0,0,0,1)" stroke-width="1"/>
<path d="M117.846,-123.012 C117.846,-123.012 177.846,-140.217 177.846,-140.217 C177.846,-140.217 193.923,-80.217 193.923,-80.217 C193.923,-80.217 133.923,-63.012 133.923,-63.012 C133.923,-63.012 117.846,-123.012 117.846,-123.012 Z" fill="rgba(134,104,131,1)" stroke="rgba(0,0,0,1)" stroke-width="1"/>
<path d="M-226.077,40.217 C-226.077,40.217 -166.077,23.012 -166.077,23.012 C-166.077,23.012 -150,83.012 -150,83.012 C-150,83.012 -210,100.217 -210,100.217 C-210,100.217 -226.077,40.217 -226.077,40.217 Z" fill="rgba(209,241,187,1)" stroke="rgba(0,0,0,1)" stroke-width="1"/>
<path d="M-166.077,23.012 C-166.077,23.012 -106.077,5.807 -106.077,5.807 C-106.077,5.807 -90,65.807 -90,65.807 C-90,65.807 -150,83.012 -150,83.012 C-150,83.012 -166.077,23.012 -166.077,23.012 Z" fill="rgba(107,114,138,1)" stroke="rgba(0,0,0,1)" stroke-width="1"/>
<path d="M-106.077,5.807 C-106.077,5.807 -46.077,-11.398 -46.077,-11.398 C-46.077,-11.398 -30,48.602 -30,48.602 C-30,48.602 -90,65.807 -90,65.807 C-90,65.807 -106.077,5.807 -106.077,5.807 Z" fill="rgba(198,255,255,1)" stroke="rgba(0,0,0,1)" stroke-width="1"/>
<path d="M-46.077,-11.398 C-46.077,-11.398 13.923,-28.602 13.923,-28.602 C13.923,-28.602 30,31.398 30,31.398 C30,31.398 -30,48.602 -30,48.602 C-30,48.602 -46.077,-11.398 -46.077,-11.398 Z" fill="rgba(86,108,111,1)" stroke="rgba(0,0,0,1)" stroke-width="1"/>
<path d="M13.923,-28.602 C13.923,-28.602 73.923,-45.807 73.923,-45.807 C73.923,-45.807 90,14.193 90,14.193 C90,14.193 30,31.398 30,31.398 C30,31.398 13.923,-28.602 13.923,-28.602 Z" fill="rgba(232,241,187,1)" stroke="rgba(0,0,0,1)" stroke-width="1"/>
<path d="M73.923,-45.807 C73.923,-45.807 133.923,-63.012 133.923,-63.012 C133.923,-63.012 150,-3.012 150,-3.012 C150,-3.012 90,14.193 90,14.193 C90,14.193 73.923,-45.807 73.923,-45.807 Z" fill="rgba(107,84,108,1)" stroke="rgba(0,0,0,1)" stroke-width="1"/>
<path d="M133.923,-63.012 C133.923,-63.012 193.923,-80.217 193.923,-80.217 C193.923,-80.217 210,-20.217 210,-20.217 C210,-20.217 150,-3.012 150,-3.012 C150,-3.012 133.923,-63.012 133.923,-63.012 Z" fill="rgba(175,220,226,1)" stroke="rgba(0,0,0,1)" stroke-width="1"/>
<path d="M-210,100.217 C-210,100.217 -150,83.012 -150,83.012 C-150,83.012 -133.923,143.012 -133.923,143.012 C-133.923,143.012 -193.923,160.217 -193.923,160.217 C-193.923,160.217 -210,100.217 -210,100.217 Z" fill="rgba(126,105,136,1)" stroke="rgba(0,0,0,1)" stroke-width="1"/>
<path d="M-150,83.012 C-150,83.012 -90,65.807 -90,65.807 C-90,65.807 -73.923,125.807 -73.923,125.807 C-73.923,125.807 -133.923,143.012 -133.923,143.012 C-133.923,143.012 -150,83.012 -150,83.012 Z" fill="rgba(181,232,233,1)" stroke="rgba(0,0,0,1)" stroke-width="1"/>
<path d="M-90,65.807 C-90,65.807 -30,48.602 -30,48.602 C-30,48.602 -13.923,108.602 -13.923,108.602 C-13.923,108.602 -73.923,125.807 -73.923,125.807 C-73.923,125.807 -90,65.807 -90,65.807 Z" fill="rgba(85,96,74,1)" stroke="rgba(0,0,0,1)" stroke-width="1"/>
<path d="M-30,48.602 C-30,48.602 30,31.398 30,31.398 C30,31.398 46.077,91.398 46.077,91.398 C46.077,91.398 -13.923,108.602 -13.923,108.602 C-13.923,108.602 -30,48.602 -30,48.602 Z" fill="rgba(180,232,190,1)" stroke="rgba(0,0,0,1)" stroke-width="1"/>
<path d="M30,31.398 C30,31.398 90,14.193 90,14.193 C90,14.193 106.077,74.193 106.077,74.193 C106.077,74.193 46.077,91.398 46.077,91.398 C46.077,91.398 30,31.398 30,31.398 Z" fill="rgba(133,103,127,1)" stroke="rgba(0,0,0,1)" stroke-width="1"/>
<path d="M90,14.193 C90,14.193 150,-3.012 150,-3.012 C150,-3.012 166.077,56.988 166.077,56.988 C166.077,56.988 106.077,74.193 106.077,74.193 C106.077,74.193 90,14.193 90,14.193 Z" fill="rgba(229,242,188,1)" stroke="rgba(0,0,0,1)" stroke-width="1"/>
<path d="M150,-3.012 C150,-3.012 210,-20.217 210,-20.217 C210,-20.217 226.077,39.783 226.077,39.783 C226.077,39.783 166.077,56.988 166.077,56.988 C166.077,56.988 150,-3.012 150,-3.012 Z" fill="rgba(109,103,85,1)" stroke="rgba(0,0,0,1)" stroke-width="1"/>
<path d="M-193.923,160.217 C-193.923,160.217 -133.923,143.012 -133.923,143.012 C-133.923,143.012 -117.846,203.012 -117.846,203.012 C-117.846,203.012 -177.846,220.217 -177.846,220.217 C-177.846,220.217 -193.923,160.217 -193.923,160.217 Z" fill="rgba(198,253,196,1)" stroke="rgba(0,0,0,1)" stroke-width="1"/>
<path d="M-133.923,143.012 C-133.923,143.012 -73.923,125.807 -73.923,125.807 C-73.923,125.807 -57.846,185.807 -57.846,185.807 C-57.846,185.807 -117.846,203.012 -117.846,203.012 C-117.846,203.012 -133.923,143.012 -133.923,143.012 Z" fill="rgba(172,159,204,1)" stroke="rgba(0,0,0,1)" stroke-width="1"/>
<path d="M-73.923,125.807 C-73.923,125.807 -13.923,108.602 -13.923,108.602 C-13.923,108.602 2.154,168.602 2.154,168.602 C2.154,168.602 -57.846,185.807 -57.846,185.807 C-57.846,185.807 -73.923,125.807 -73.923,125.807 Z" fill="rgba(226,241,187,1)" stroke="rgba(0,0,0,1)" stroke-width="1"/>
<path d="M-13.923,108.602 C-13.923,108.602 46.077,91.398 46.077,91.398 C46.077,91.398 62.154,151.398 62.154,151.398 C62.154,151.398 2.154,168.602 2.154,168.602 C2.154,168.602 -13.923,108.602 -13.923,108.602 Z" fill="rgba(165,150,193,1)" stroke="rgba(0,0,0,1)" stroke-width="1"/>
<path d="M46.077,91.398 C46.077,91.398 106.077,74.193 106.077,74.193 C106.077,74.193 122.154,134.193 122.154,134.193 C122.154,134.193 62.154,151.398 62.154,151.398 C62.154,151.398 46.077,91.398 46.077,91.398 Z" fill="rgba(225,248,193,1)" stroke="rgba(0,0,0,1)" stroke-width="1"/>
<path d="M106.077,74.193 C106.077,74.193 166.077,56.988 166.077,56.988 C166.077,56.988 182.154,116.988 182.154,116.988 C182.154,116.988 122.154,134.193 122.154,134.193 C122.154,134.193 106.077,74.193 106.077,74.193 Z" fill="rgba(128,128,165,1)" stroke="rgba(0,0,0,1)" stroke-width="1"/>
<path d="M166.077,56.988 C166.077,56.988 226.077,39.783 226.077,39.783 C226.077,39.783 242.154,99.783 242.154,99.783 C242.154,99.783 182.154,116.988 182.154,116.988 C182.154,116.988 166.077,56.988 166.077,56.988 Z" fill="rgba(189,243,229,1)" stroke="rgba(0,0,0,1)" stroke-width="1"/>
</svg>