<svg xmlns="http://www.w3.org/2000/svg" viewBox="-239.2 -139.2 478.4 378.4">
<path d="M-200,-100 L200,-100 L200,200 L-200,200 Z" fill="rgba(0,0,0,0)" stroke="rgba(0,0,0,1)" stroke-width="2"/>
<path d="M-190,-100 C-190,-94.477 -194.477,-90 -200,-90 C-205.523,-90 -210,-94.477 -210,-100 C-210,-105.523 -205.523,-110 -200,-110 C-194.477,-110 -190,-105.523 -190,-100 Z" fill="rgba(255,0,0,0.5019607843137255)"/>
<path d="M10,-100 C10,-94.477 5.523,-90 0,-90 C-5.523,-90 -10,-94.477 -10,-100 C-10,-105.523 -5.523,-110 0,-110 C5.523,-110 10,-105.523 10,-100 Z" fill="rgba(255,0,0,0.5019607843137255)"/>
<path d="M210,-100 C210,-94.477 205.523,-90 200,-90 C194.477,-90 190,-94.477 190,-100 C190,-105.523 194.477,-110 200,-110 C205.523,-110 210,-105.523 210,-100 Z" fill="rgba(255,0,0,0.5019607843137255)"/>
<path d="M210,50 C210,55.523 205.523,60 200,60 C194.477,60 190,55.523 190,50 C190,44.477 194.477,40 200,40 C205.523,40 210,44.477 210,50 Z" fill="rgba(255,0,0,0.5019607843137255)"/>
<path d="M210,200 C210,205.523 205.523,210 200,210 C194.477,210 190,205.523 190,200 C190,194.477 194.477,190 200,190 C205.523,190 210,194.477 210,200 Z" fill="rgba(255,0,0,0.5019607843137255)"/>
<path d="M10,200 C10,205.523 5.523,210 0,210 C-5.523,210 -10,205.523 -10,200 C-10,194.477 -5.523,190 0,190 C5.523,190 10,194.477 10,200 Z" fill="rgba(255,0,0,0.5019607843137255)"/>
<path d="M-190,200 C-190,205.523 -194.477,210 -200,210 C-205.523,210 -210,205.523 -210,200 C-210,194.477 -205.523,190 -200,190 C-194.477,190 -190,194.477 -190,200 Z" fill="rgba(255,0,0,0.5019607843137255)"/>
<path d="M-190,50 C-190,55.523 -194.477,60 -200,60 C-205.523,60 -210,55.523 -210,50 C-210,44.477 -205.523,40 -200,40 C-194.477,40 -190,44.477 -190,50 Z" fill="rgba(255,0,0,0.5019607843137255)"/>
</svg>