<svg xmlns="http://www.w3.org/2000/svg" viewBox="-385.2 -246.68 884.08 622.16">
<path d="M0,0 L432.607,241.283 L-48.893,103.774 L0,0" fill="none" stroke="rgba(0,0,0,1)" stroke-width="1"/>
<path d="M0,0 L212.975,92.866 L283.581,259.547 L0,0" fill="none" stroke="rgba(0,0,0,1)" stroke-width="1"/>
<path d="M0,0 L-334.265,253.187 L-20.477,-48.255 L0,0" fill="none" stroke="rgba(0,0,0,1)" stroke-width="1"/>
<path d="M0,0 L322.962,-195.746 L-97.957,-69.364 L0,0" fill="none" stroke="rgba(0,0,0,1)" stroke-width="1"/>
<path d="M0,0 L420.313,82.297 L271.868,-34.207 L0,0" fill="none" stroke="rgba(0,0,0,1)" stroke-width="1"/>
<path d="M0,0 L447.946,203.38 L228.367,-22.413 L0,0" fill="none" stroke="rgba(0,0,0,1)" stroke-width="1"/>
<path d="M0,0 L409.962,258.244 L-287.94,-141.371 L0,0" fill="none" stroke="rgba(0,0,0,1)" stroke-width="1"/>
<path d="M0,0 L-294.441,111.077 L48.33,138.223 L0,0" fill="none" stroke="rgba(0,0,0,1)" stroke-width="1"/>
<path d="M0,0 L144.005,79.287 L100.304,-100.434 L0,0" fill="none" stroke="rgba(0,0,0,1)" stroke-width="1"/>
<path d="M0,0 L403.17,324.552 L-137.58,221.299 L0,0" fill="none" stroke="rgba(0,0,0,1)" stroke-width="1"/>
</svg>