<svg xmlns="http://www.w3.org/2000/svg" viewBox="-197.6 -147.6 395.19 395.19">
<path d="M12.941,1.704 L25,6.699 L35.355,14.645 Z" fill="rgba(255,255,255,1)" stroke="rgba(103,103,255,1)" stroke-width="0.5"/>
<path d="M21.353,-29.689 L41.25,-21.447 L58.336,-8.336 Z" fill="rgba(255,255,255,1)" stroke="rgba(103,103,255,1)" stroke-width="0.5"/>
<path d="M29.764,-61.081 L57.5,-49.593 L81.317,-31.317 Z" fill="rgba(255,255,255,1)" stroke="rgba(103,103,255,1)" stroke-width="0.5"/>
<path d="M38.176,-92.474 L73.75,-77.739 L104.298,-54.298 Z" fill="rgba(0,0,0,1)" stroke="rgba(103,103,255,1)" stroke-width="0.5"/>
<text x="0" y="0" text-anchor="start" font-family="Verdana, Helvetica, Arial, sans-serif" font-size="24" fill="rgba(103,103,255,1)" transform="matrix(0.9238795325112866 0.38268343236509017 -0.38268343236509017 0.9238795325112866 42.69515260945533 -98.17883142684181)">0</text>
<text x="0" y="0" text-anchor="start" font-family="Verdana, Helvetica, Arial, sans-serif" font-size="24" fill="rgba(103,103,255,1)" transform="matrix(0.9238795325112866 0.38268343236509017 -0.38268343236509017 0.9238795325112866 55.023401091285955 -93.07230370536206)">0</text>
<text x="0" y="0" text-anchor="start" font-family="Verdana, Helvetica, Arial, sans-serif" font-size="24" fill="rgba(103,103,255,1)" transform="matrix(0.7933533402912355 0.6087614290087202 -0.6087614290087202 0.7933533402912355 70.21661793780532 -89.27331337143929)">0</text>
<text x="0" y="0" text-anchor="start" font-family="Verdana, Helvetica, Arial, sans-serif" font-size="24" fill="rgba(103,103,255,1)" transform="matrix(0.7933533402912355 0.6087614290087202 -0.6087614290087202 0.7933533402912355 80.80312491065156 -81.15000086274691)">1</text>
<path d="M35.355,14.645 L43.301,25 L48.296,37.059 Z" fill="rgba(255,255,255,1)" stroke="rgba(103,103,255,1)" stroke-width="0.5"/>
<path d="M58.336,-8.336 L71.447,8.75 L79.689,28.647 Z" fill="rgba(255,255,255,1)" stroke="rgba(103,103,255,1)" stroke-width="0.5"/>
<path d="M81.317,-31.317 L99.593,-7.5 L111.081,20.236 Z" fill="rgba(0,0,0,1)" stroke="rgba(103,103,255,1)" stroke-width="0.5"/>
<path d="M104.298,-54.298 L127.739,-23.75 L142.474,11.824 Z" fill="rgba(255,255,255,1)" stroke="rgba(103,103,255,1)" stroke-width="0.5"/>
<text x="0" y="0" text-anchor="start" font-family="Verdana, Helvetica, Arial, sans-serif" font-size="24" fill="rgba(103,103,255,1)" transform="matrix(0.6087614290087203 0.7933533402912354 -0.7933533402912354 0.6087614290087203 111.0645024916627 -56.979056014009274)">0</text>
<text x="0" y="0" text-anchor="start" font-family="Verdana, Helvetica, Arial, sans-serif" font-size="24" fill="rgba(103,103,255,1)" transform="matrix(0.6087614290087203 0.7933533402912354 -0.7933533402912354 0.6087614290087203 119.18781500035507 -46.39254904116302)">0</text>
<text x="0" y="0" text-anchor="start" font-family="Verdana, Helvetica, Arial, sans-serif" font-size="24" fill="rgba(103,103,255,1)" transform="matrix(0.3826834323650904 0.9238795325112865 -0.9238795325112865 0.3826834323650904 130.44603158768516 -35.505918479994705)">1</text>
<text x="0" y="0" text-anchor="start" font-family="Verdana, Helvetica, Arial, sans-serif" font-size="24" fill="rgba(103,103,255,1)" transform="matrix(0.3826834323650904 0.9238795325112865 -0.9238795325112865 0.3826834323650904 135.5525593091649 -23.17766999816409)">0</text>
<path d="M48.296,37.059 L50,50 L48.296,62.941 Z" fill="rgba(255,255,255,1)" stroke="rgba(103,103,255,1)" stroke-width="0.5"/>
<path d="M79.689,28.647 L82.5,50 L79.689,71.353 Z" fill="rgba(255,255,255,1)" stroke="rgba(103,103,255,1)" stroke-width="0.5"/>
<path d="M111.081,20.236 L115,50 L111.081,79.764 Z" fill="rgba(0,0,0,1)" stroke="rgba(103,103,255,1)" stroke-width="0.5"/>
<path d="M142.474,11.824 L147.5,50 L142.474,88.176 Z" fill="rgba(0,0,0,1)" stroke="rgba(103,103,255,1)" stroke-width="0.5"/>
<text x="0" y="0" text-anchor="start" font-family="Verdana, Helvetica, Arial, sans-serif" font-size="24" fill="rgba(103,103,255,1)" transform="matrix(0.13052619222005113 0.9914448613738105 -0.9914448613738105 0.13052619222005113 149.6742086234646 12.88567106482089)">0</text>
<text x="0" y="0" text-anchor="start" font-family="Verdana, Helvetica, Arial, sans-serif" font-size="24" fill="rgba(103,103,255,1)" transform="matrix(0.13052619222005113 0.9914448613738105 -0.9914448613738105 0.13052619222005113 151.41595013244898 26.115511294993023)">0</text>
<text x="0" y="0" text-anchor="start" font-family="Verdana, Helvetica, Arial, sans-serif" font-size="24" fill="rgba(103,103,255,1)" transform="matrix(-0.13052619222005102 0.9914448613738105 -0.9914448613738105 -0.13052619222005102 155.72253641780003 41.172718216245876)">1</text>
<text x="0" y="0" text-anchor="start" font-family="Verdana, Helvetica, Arial, sans-serif" font-size="24" fill="rgba(103,103,255,1)" transform="matrix(-0.13052619222005102 0.9914448613738105 -0.9914448613738105 -0.13052619222005102 153.98079490881565 54.402558446418006)">1</text>
<path d="M48.296,62.941 L43.301,75 L35.355,85.355 Z" fill="rgba(255,255,255,1)" stroke="rgba(103,103,255,1)" stroke-width="0.5"/>
<path d="M79.689,71.353 L71.447,91.25 L58.336,108.336 Z" fill="rgba(0,0,0,1)" stroke="rgba(103,103,255,1)" stroke-width="0.5"/>
<path d="M111.081,79.764 L99.593,107.5 L81.317,131.317 Z" fill="rgba(255,255,255,1)" stroke="rgba(103,103,255,1)" stroke-width="0.5"/>
<path d="M142.474,88.176 L127.739,123.75 L104.298,154.298 Z" fill="rgba(255,255,255,1)" stroke="rgba(103,103,255,1)" stroke-width="0.5"/>
<text x="0" y="0" text-anchor="start" font-family="Verdana, Helvetica, Arial, sans-serif" font-size="24" fill="rgba(103,103,255,1)" transform="matrix(-0.38268343236509006 0.9238795325112865 -0.9238795325112865 -0.38268343236509006 148.17883142684178 92.6951526094553)">0</text>
<text x="0" y="0" text-anchor="start" font-family="Verdana, Helvetica, Arial, sans-serif" font-size="24" fill="rgba(103,103,255,1)" transform="matrix(-0.38268343236509006 0.9238795325112865 -0.9238795325112865 -0.38268343236509006 143.07230370536206 105.02340109128593)">1</text>
<text x="0" y="0" text-anchor="start" font-family="Verdana, Helvetica, Arial, sans-serif" font-size="24" fill="rgba(103,103,255,1)" transform="matrix(-0.60876142900872 0.7933533402912356 -0.7933533402912356 -0.60876142900872 139.2733133714393 120.21661793780531)">0</text>
<text x="0" y="0" text-anchor="start" font-family="Verdana, Helvetica, Arial, sans-serif" font-size="24" fill="rgba(103,103,255,1)" transform="matrix(-0.60876142900872 0.7933533402912356 -0.7933533402912356 -0.60876142900872 131.1500008627469 130.80312491065155)">0</text>
<path d="M35.355,85.355 L25,93.301 L12.941,98.296 Z" fill="rgba(255,255,255,1)" stroke="rgba(103,103,255,1)" stroke-width="0.5"/>
<path d="M58.336,108.336 L41.25,121.447 L21.353,129.689 Z" fill="rgba(0,0,0,1)" stroke="rgba(103,103,255,1)" stroke-width="0.5"/>
<path d="M81.317,131.317 L57.5,149.593 L29.764,161.081 Z" fill="rgba(255,255,255,1)" stroke="rgba(103,103,255,1)" stroke-width="0.5"/>
<path d="M104.298,154.298 L73.75,177.739 L38.176,192.474 Z" fill="rgba(0,0,0,1)" stroke="rgba(103,103,255,1)" stroke-width="0.5"/>
<text x="0" y="0" text-anchor="start" font-family="Verdana, Helvetica, Arial, sans-serif" font-size="24" fill="rgba(103,103,255,1)" transform="matrix(-0.7933533402912355 0.6087614290087202 -0.6087614290087202 -0.7933533402912355 106.97905601400925 161.06450249166272)">0</text>
<text x="0" y="0" text-anchor="start" font-family="Verdana, Helvetica, Arial, sans-serif" font-size="24" fill="rgba(103,103,255,1)" transform="matrix(-0.7933533402912355 0.6087614290087202 -0.6087614290087202 -0.7933533402912355 96.392549041163 169.1878150003551)">1</text>
<text x="0" y="0" text-anchor="start" font-family="Verdana, Helvetica, Arial, sans-serif" font-size="24" fill="rgba(103,103,255,1)" transform="matrix(-0.9238795325112866 0.38268343236509017 -0.38268343236509017 -0.9238795325112866 85.50591847999468 180.44603158768516)">0</text>
<text x="0" y="0" text-anchor="start" font-family="Verdana, Helvetica, Arial, sans-serif" font-size="24" fill="rgba(103,103,255,1)" transform="matrix(-0.9238795325112866 0.38268343236509017 -0.38268343236509017 -0.9238795325112866 73.17766999816406 185.55255930916493)">1</text>
<path d="M12.941,98.296 L0,100 L-12.941,98.296 Z" fill="rgba(255,255,255,1)" stroke="rgba(103,103,255,1)" stroke-width="0.5"/>
<path d="M21.353,129.689 L0,132.5 L-21.353,129.689 Z" fill="rgba(0,0,0,1)" stroke="rgba(103,103,255,1)" stroke-width="0.5"/>
<path d="M29.764,161.081 L0,165 L-29.764,161.081 Z" fill="rgba(0,0,0,1)" stroke="rgba(103,103,255,1)" stroke-width="0.5"/>
<path d="M38.176,192.474 L0,197.5 L-38.176,192.474 Z" fill="rgba(255,255,255,1)" stroke="rgba(103,103,255,1)" stroke-width="0.5"/>
<text x="0" y="0" text-anchor="start" font-family="Verdana, Helvetica, Arial, sans-serif" font-size="24" fill="rgba(103,103,255,1)" transform="matrix(-0.9914448613738105 0.13052619222005118 -0.13052619222005118 -0.9914448613738105 37.114328935179124 199.6742086234646)">0</text>
<text x="0" y="0" text-anchor="start" font-family="Verdana, Helvetica, Arial, sans-serif" font-size="24" fill="rgba(103,103,255,1)" transform="matrix(-0.9914448613738105 0.13052619222005118 -0.13052619222005118 -0.9914448613738105 23.884488705006984 201.41595013244898)">1</text>
<text x="0" y="0" text-anchor="start" font-family="Verdana, Helvetica, Arial, sans-serif" font-size="24" fill="rgba(103,103,255,1)" transform="matrix(-0.9914448613738105 -0.13052619222005096 0.13052619222005096 -0.9914448613738105 8.827281783754136 205.72253641780003)">1</text>
<text x="0" y="0" text-anchor="start" font-family="Verdana, Helvetica, Arial, sans-serif" font-size="24" fill="rgba(103,103,255,1)" transform="matrix(-0.9914448613738105 -0.13052619222005096 0.13052619222005096 -0.9914448613738105 -4.402558446417998 203.98079490881565)">0</text>
<path d="M-12.941,98.296 L-25,93.301 L-35.355,85.355 Z" fill="rgba(255,255,255,1)" stroke="rgba(103,103,255,1)" stroke-width="0.5"/>
<path d="M-21.353,129.689 L-41.25,121.447 L-58.336,108.336 Z" fill="rgba(0,0,0,1)" stroke="rgba(103,103,255,1)" stroke-width="0.5"/>
<path d="M-29.764,161.081 L-57.5,149.593 L-81.317,131.317 Z" fill="rgba(0,0,0,1)" stroke="rgba(103,103,255,1)" stroke-width="0.5"/>
<path d="M-38.176,192.474 L-73.75,177.739 L-104.298,154.298 Z" fill="rgba(0,0,0,1)" stroke="rgba(103,103,255,1)" stroke-width="0.5"/>
<text x="0" y="0" text-anchor="start" font-family="Verdana, Helvetica, Arial, sans-serif" font-size="24" fill="rgba(103,103,255,1)" transform="matrix(-0.9238795325112865 -0.3826834323650904 0.3826834323650904 -0.9238795325112865 -42.69515260945536 198.1788314268418)">0</text>
<text x="0" y="0" text-anchor="start" font-family="Verdana, Helvetica, Arial, sans-serif" font-size="24" fill="rgba(103,103,255,1)" transform="matrix(-0.9238795325112865 -0.3826834323650904 0.3826834323650904 -0.9238795325112865 -55.02340109128599 193.07230370536203)">1</text>
<text x="0" y="0" text-anchor="start" font-family="Verdana, Helvetica, Arial, sans-serif" font-size="24" fill="rgba(103,103,255,1)" transform="matrix(-0.7933533402912354 -0.6087614290087203 0.6087614290087203 -0.7933533402912354 -70.21661793780535 189.2733133714393)">1</text>
<text x="0" y="0" text-anchor="start" font-family="Verdana, Helvetica, Arial, sans-serif" font-size="24" fill="rgba(103,103,255,1)" transform="matrix(-0.7933533402912354 -0.6087614290087203 0.6087614290087203 -0.7933533402912354 -80.80312491065159 181.15000086274688)">1</text>
<path d="M-35.355,85.355 L-43.301,75 L-48.296,62.941 Z" fill="rgba(0,0,0,1)" stroke="rgba(103,103,255,1)" stroke-width="0.5"/>
<path d="M-58.336,108.336 L-71.447,91.25 L-79.689,71.353 Z" fill="rgba(255,255,255,1)" stroke="rgba(103,103,255,1)" stroke-width="0.5"/>
<path d="M-81.317,131.317 L-99.593,107.5 L-111.081,79.764 Z" fill="rgba(255,255,255,1)" stroke="rgba(103,103,255,1)" stroke-width="0.5"/>
<path d="M-104.298,154.298 L-127.739,123.75 L-142.474,88.176 Z" fill="rgba(255,255,255,1)" stroke="rgba(103,103,255,1)" stroke-width="0.5"/>
<text x="0" y="0" text-anchor="start" font-family="Verdana, Helvetica, Arial, sans-serif" font-size="24" fill="rgba(103,103,255,1)" transform="matrix(-0.6087614290087207 -0.7933533402912353 0.7933533402912353 -0.6087614290087207 -111.06450249166265 156.97905601400933)">1</text>
<text x="0" y="0" text-anchor="start" font-family="Verdana, Helvetica, Arial, sans-serif" font-size="24" fill="rgba(103,103,255,1)" transform="matrix(-0.6087614290087207 -0.7933533402912353 0.7933533402912353 -0.6087614290087207 -119.18781500035503 146.39254904116308)">0</text>
<text x="0" y="0" text-anchor="start" font-family="Verdana, Helvetica, Arial, sans-serif" font-size="24" fill="rgba(103,103,255,1)" transform="matrix(-0.3826834323650907 -0.9238795325112864 0.9238795325112864 -0.3826834323650907 -130.44603158768513 135.50591847999476)">0</text>
<text x="0" y="0" text-anchor="start" font-family="Verdana, Helvetica, Arial, sans-serif" font-size="24" fill="rgba(103,103,255,1)" transform="matrix(-0.3826834323650907 -0.9238795325112864 0.9238795325112864 -0.3826834323650907 -135.5525593091649 123.17766999816415)">0</text>
<path d="M-48.296,62.941 L-50,50 L-48.296,37.059 Z" fill="rgba(0,0,0,1)" stroke="rgba(103,103,255,1)" stroke-width="0.5"/>
<path d="M-79.689,71.353 L-82.5,50 L-79.689,28.647 Z" fill="rgba(255,255,255,1)" stroke="rgba(103,103,255,1)" stroke-width="0.5"/>
<path d="M-111.081,79.764 L-115,50 L-111.081,20.236 Z" fill="rgba(255,255,255,1)" stroke="rgba(103,103,255,1)" stroke-width="0.5"/>
<path d="M-142.474,88.176 L-147.5,50 L-142.474,11.824 Z" fill="rgba(0,0,0,1)" stroke="rgba(103,103,255,1)" stroke-width="0.5"/>
<text x="0" y="0" text-anchor="start" font-family="Verdana, Helvetica, Arial, sans-serif" font-size="24" fill="rgba(103,103,255,1)" transform="matrix(-0.13052619222005127 -0.9914448613738105 0.9914448613738105 -0.13052619222005127 -149.6742086234646 87.11432893517913)">1</text>
<text x="0" y="0" text-anchor="start" font-family="Verdana, Helvetica, Arial, sans-serif" font-size="24" fill="rgba(103,103,255,1)" transform="matrix(-0.13052619222005127 -0.9914448613738105 0.9914448613738105 -0.13052619222005127 -151.41595013244898 73.88448870500699)">0</text>
<text x="0" y="0" text-anchor="start" font-family="Verdana, Helvetica, Arial, sans-serif" font-size="24" fill="rgba(103,103,255,1)" transform="matrix(0.13052619222005088 -0.9914448613738105 0.9914448613738105 0.13052619222005088 -155.72253641780003 58.827281783754145)">0</text>
<text x="0" y="0" text-anchor="start" font-family="Verdana, Helvetica, Arial, sans-serif" font-size="24" fill="rgba(103,103,255,1)" transform="matrix(0.13052619222005088 -0.9914448613738105 0.9914448613738105 0.13052619222005088 -153.98079490881565 45.597441553582016)">1</text>
<path d="M-48.296,37.059 L-43.301,25 L-35.355,14.645 Z" fill="rgba(0,0,0,1)" stroke="rgba(103,103,255,1)" stroke-width="0.5"/>
<path d="M-79.689,28.647 L-71.447,8.75 L-58.336,-8.336 Z" fill="rgba(255,255,255,1)" stroke="rgba(103,103,255,1)" stroke-width="0.5"/>
<path d="M-111.081,20.236 L-99.593,-7.5 L-81.317,-31.317 Z" fill="rgba(0,0,0,1)" stroke="rgba(103,103,255,1)" stroke-width="0.5"/>
<path d="M-142.474,11.824 L-127.739,-23.75 L-104.298,-54.298 Z" fill="rgba(255,255,255,1)" stroke="rgba(103,103,255,1)" stroke-width="0.5"/>
<text x="0" y="0" text-anchor="start" font-family="Verdana, Helvetica, Arial, sans-serif" font-size="24" fill="rgba(103,103,255,1)" transform="matrix(0.3826834323650904 -0.9238795325112865 0.9238795325112865 0.3826834323650904 -148.1788314268418 7.304847390544637)">1</text>
<text x="0" y="0" text-anchor="start" font-family="Verdana, Helvetica, Arial, sans-serif" font-size="24" fill="rgba(103,103,255,1)" transform="matrix(0.3826834323650904 -0.9238795325112865 0.9238795325112865 0.3826834323650904 -143.07230370536203 -5.02340109128599)">0</text>
<text x="0" y="0" text-anchor="start" font-family="Verdana, Helvetica, Arial, sans-serif" font-size="24" fill="rgba(103,103,255,1)" transform="matrix(0.6087614290087203 -0.7933533402912354 0.7933533402912354 0.6087614290087203 -139.2733133714393 -20.216617937805353)">1</text>
<text x="0" y="0" text-anchor="start" font-family="Verdana, Helvetica, Arial, sans-serif" font-size="24" fill="rgba(103,103,255,1)" transform="matrix(0.6087614290087203 -0.7933533402912354 0.7933533402912354 0.6087614290087203 -131.15000086274688 -30.80312491065159)">0</text>
<path d="M-35.355,14.645 L-25,6.699 L-12.941,1.704 Z" fill="rgba(0,0,0,1)" stroke="rgba(103,103,255,1)" stroke-width="0.5"/>
<path d="M-58.336,-8.336 L-41.25,-21.447 L-21.353,-29.689 Z" fill="rgba(255,255,255,1)" stroke="rgba(103,103,255,1)" stroke-width="0.5"/>
<path d="M-81.317,-31.317 L-57.5,-49.593 L-29.764,-61.081 Z" fill="rgba(0,0,0,1)" stroke="rgba(103,103,255,1)" stroke-width="0.5"/>
<path d="M-104.298,-54.298 L-73.75,-77.739 L-38.176,-92.474 Z" fill="rgba(0,0,0,1)" stroke="rgba(103,103,255,1)" stroke-width="0.5"/>
<text x="0" y="0" text-anchor="start" font-family="Verdana, Helvetica, Arial, sans-serif" font-size="24" fill="rgba(103,103,255,1)" transform="matrix(0.7933533402912352 -0.6087614290087207 0.6087614290087207 0.7933533402912352 -106.97905601400933 -61.06450249166262)">1</text>
<text x="0" y="0" text-anchor="start" font-family="Verdana, Helvetica, Arial, sans-serif" font-size="24" fill="rgba(103,103,255,1)" transform="matrix(0.7933533402912352 -0.6087614290087207 0.6087614290087207 0.7933533402912352 -96.39254904116308 -69.18781500035503)">0</text>
<text x="0" y="0" text-anchor="start" font-family="Verdana, Helvetica, Arial, sans-serif" font-size="24" fill="rgba(103,103,255,1)" transform="matrix(0.9238795325112863 -0.3826834323650907 0.3826834323650907 0.9238795325112863 -85.50591847999476 -80.44603158768513)">1</text>
<text x="0" y="0" text-anchor="start" font-family="Verdana, Helvetica, Arial, sans-serif" font-size="24" fill="rgba(103,103,255,1)" transform="matrix(0.9238795325112863 -0.3826834323650907 0.3826834323650907 0.9238795325112863 -73.17766999816415 -85.55255930916488)">1</text>
<path d="M-12.941,1.704 L0,0 L12.941,1.704 Z" fill="rgba(0,0,0,1)" stroke="rgba(103,103,255,1)" stroke-width="0.5"/>
<path d="M-21.353,-29.689 L0,-32.5 L21.353,-29.689 Z" fill="rgba(0,0,0,1)" stroke="rgba(103,103,255,1)" stroke-width="0.5"/>
<path d="M-29.764,-61.081 L0,-65 L29.764,-61.081 Z" fill="rgba(255,255,255,1)" stroke="rgba(103,103,255,1)" stroke-width="0.5"/>
<path d="M-38.176,-92.474 L0,-97.5 L38.176,-92.474 Z" fill="rgba(255,255,255,1)" stroke="rgba(103,103,255,1)" stroke-width="0.5"/>
<text x="0" y="0" text-anchor="start" font-family="Verdana, Helvetica, Arial, sans-serif" font-size="24" fill="rgba(103,103,255,1)" transform="matrix(0.9914448613738105 -0.13052619222005132 0.13052619222005132 0.9914448613738105 -37.11432893517914 -99.67420862346461)">1</text>
<text x="0" y="0" text-anchor="start" font-family="Verdana, Helvetica, Arial, sans-serif" font-size="24" fill="rgba(103,103,255,1)" transform="matrix(0.9914448613738105 -0.13052619222005132 0.13052619222005132 0.9914448613738105 -23.884488705007 -101.41595013244898)">1</text>
<text x="0" y="0" text-anchor="start" font-family="Verdana, Helvetica, Arial, sans-serif" font-size="24" fill="rgba(103,103,255,1)" transform="matrix(0.9914448613738105 0.13052619222005082 -0.13052619222005082 0.9914448613738105 -8.827281783754154 -105.72253641780003)">0</text>
<text x="0" y="0" text-anchor="start" font-family="Verdana, Helvetica, Arial, sans-serif" font-size="24" fill="rgba(103,103,255,1)" transform="matrix(0.9914448613738105 0.13052619222005082 -0.13052619222005082 0.9914448613738105 4.402558446417979 -103.98079490881565)">0</text>
<path d="M0,50 L0,0 C13.261,0 25.979,5.268 35.355,14.645 C44.732,24.021 50,36.739 50,50 C50,63.261 44.732,75.979 35.355,85.355 C25.979,94.732 13.261,100 0,100 Z" fill="rgba(0,0,0,1)"/>
<path d="M0,50 L0,100 C-13.261,100 -25.979,94.732 -35.355,85.355 C-44.732,75.979 -50,63.261 -50,50 C-50,36.739 -44.732,24.021 -35.355,14.645 C-25.979,5.268 -13.261,0 0,0 Z" fill="rgba(255,255,255,1)"/>
<path d="M25,75 C25,88.807 13.807,100 0,100 C-13.807,100 -25,88.807 -25,75 C-25,61.193 -13.807,50 0,50 C13.807,50 25,61.193 25,75 Z" fill="rgba(0,0,0,1)"/>
<path d="M-25,25 C-25,11.193 -13.807,0 0,0 C13.807,0 25,11.193 25,25 C25,38.807 13.807,50 0,50 C-13.807,50 -25,38.807 -25,25 Z" fill="rgba(255,255,255,1)"/>
<path d="M7,25 C7,28.866 3.866,32 0,32 C-3.866,32 -7,28.866 -7,25 C-7,21.134 -3.866,18 0,18 C3.866,18 7,21.134 7,25 Z" fill="rgba(0,0,0,1)"/>
<path d="M-7,75 C-7,71.134 -3.866,68 0,68 C3.866,68 7,71.134 7,75 C7,78.866 3.866,82 0,82 C-3.866,82 -7,78.866 -7,75 Z" fill="rgba(255,255,255,1)"/>
</svg>