<svg xmlns="http://www.w3.org/2000/svg" viewBox="-262.72 -140.14 525.44 406.39">
<path d="M-209,-108.42 L-187,-70.315 L-209,-32.21 L-231,-70.315 Z" fill="rgba(50,50,50,0.5019607843137255)" stroke="rgba(0,0,0,1)" stroke-width="1"/>
<path d="M-187,-70.315 L-165,-32.21 L-187,5.895 L-209,-32.21 Z" fill="rgba(150,150,150,0.5019607843137255)" stroke="rgba(0,0,0,1)" stroke-width="1"/>
<path d="M-165,-108.42 L-143,-70.315 L-165,-32.21 L-187,-70.315 Z" fill="rgba(50,50,50,0.5019607843137255)" stroke="rgba(0,0,0,1)" stroke-width="1"/>
<path d="M-143,-70.315 L-121,-32.21 L-143,5.895 L-165,-32.21 Z" fill="rgba(150,150,150,0.5019607843137255)" stroke="rgba(0,0,0,1)" stroke-width="1"/>
<path d="M-121,-108.42 L-99,-70.315 L-121,-32.21 L-143,-70.315 Z" fill="rgba(50,50,50,0.5019607843137255)" stroke="rgba(0,0,0,1)" stroke-width="1"/>
<path d="M-99,-70.315 L-77,-32.21 L-99,5.895 L-121,-32.21 Z" fill="rgba(150,150,150,0.5019607843137255)" stroke="rgba(0,0,0,1)" stroke-width="1"/>
<path d="M-77,-108.42 L-55,-70.315 L-77,-32.21 L-99,-70.315 Z" fill="rgba(50,50,50,0.5019607843137255)" stroke="rgba(0,0,0,1)" stroke-width="1"/>
<path d="M-55,-70.315 L-33,-32.21 L-55,5.895 L-77,-32.21 Z" fill="rgba(150,150,150,0.5019607843137255)" stroke="rgba(0,0,0,1)" stroke-width="1"/>
<path d="M-33,-108.42 L-11,-70.315 L-33,-32.21 L-55,-70.315 Z" fill="rgba(50,50,50,0.5019607843137255)" stroke="rgba(0,0,0,1)" stroke-width="1"/>
<path d="M-11,-70.315 L11,-32.21 L-11,5.895 L-33,-32.21 Z" fill="rgba(150,150,150,0.5019607843137255)" stroke="rgba(0,0,0,1)" stroke-width="1"/>
<path d="M11,-108.42 L33,-70.315 L11,-32.21 L-11,-70.315 Z" fill="rgba(50,50,50,0.5019607843137255)" stroke="rgba(0,0,0,1)" stroke-width="1"/>
<path d="M33,-70.315 L55,-32.21 L33,5.895 L11,-32.21 Z" fill="rgba(150,150,150,0.5019607843137255)" stroke="rgba(0,0,0,1)" stroke-width="1"/>
<path d="M55,-108.42 L77,-70.315 L55,-32.21 L33,-70.315 Z" fill="rgba(50,50,50,0.5019607843137255)" stroke="rgba(0,0,0,1)" stroke-width="1"/>
<path d="M77,-70.315 L99,-32.21 L77,5.895 L55,-32.21 Z" fill="rgba(150,150,150,0.5019607843137255)" stroke="rgba(0,0,0,1)" stroke-width="1"/>
<path d="M99,-108.42 L121,-70.315 L99,-32.21 L77,-70.315 Z" fill="rgba(50,50,50,0.5019607843137255)" stroke="rgba(0,0,0,1)" stroke-width="1"/>
<path d="M121,-70.315 L143,-32.21 L121,5.895 L99,-32.21 Z" fill="rgba(150,150,150,0.5019607843137255)" stroke="rgba(0,0,0,1)" stroke-width="1"/>
<path d="M143,-108.42 L165,-70.315 L143,-32.21 L121,-70.315 Z" fill="rgba(50,50,50,0.5019607843137255)" stroke="rgba(0,0,0,1)" stroke-width="1"/>
<path d="M165,-70.315 L187,-32.21 L165,5.895 L143,-32.21 Z" fill="rgba(150,150,150,0.5019607843137255)" stroke="rgba(0,0,0,1)" stroke-width="1"/>
<path d="M187,-108.42 L209,-70.315 L187,-32.21 L165,-70.315 Z" fill="rgba(50,50,50,0.5019607843137255)" stroke="rgba(0,0,0,1)" stroke-width="1"/>
<path d="M209,-70.315 L231,-32.21 L209,5.895 L187,-32.21 Z" fill="rgba(150,150,150,0.5019607843137255)" stroke="rgba(0,0,0,1)" stroke-width="1"/>
<path d="M-209,-32.21 L-187,5.895 L-209,44 L-231,5.895 Z" fill="rgba(50,50,50,0.5019607843137255)" stroke="rgba(0,0,0,1)" stroke-width="1"/>
<path d="M-187,5.895 L-165,44 L-187,82.105 L-209,44 Z" fill="rgba(150,150,150,0.5019607843137255)" stroke="rgba(0,0,0,1)" stroke-width="1"/>
<path d="M-165,-32.21 L-143,5.895 L-165,44 L-187,5.895 Z" fill="rgba(50,50,50,0.5019607843137255)" stroke="rgba(0,0,0,1)" stroke-width="1"/>
<path d="M-143,5.895 L-121,44 L-143,82.105 L-165,44 Z" fill="rgba(150,150,150,0.5019607843137255)" stroke="rgba(0,0,0,1)" stroke-width="1"/>
<path d="M-121,-32.21 L-99,5.895 L-121,44 L-143,5.895 Z" fill="rgba(50,50,50,0.5019607843137255)" stroke="rgba(0,0,0,1)" stroke-width="1"/>
<path d="M-99,5.895 L-77,44 L-99,82.105 L-121,44 Z" fill="rgba(150,150,150,0.5019607843137255)" stroke="rgba(0,0,0,1)" stroke-width="1"/>
<path d="M-77,-32.21 L-55,5.895 L-77,44 L-99,5.895 Z" fill="rgba(50,50,50,0.5019607843137255)" stroke="rgba(0,0,0,1)" stroke-width="1"/>
<path d="M-55,5.895 L-33,44 L-55,82.105 L-77,44 Z" fill="rgba(150,150,150,0.5019607843137255)" stroke="rgba(0,0,0,1)" stroke-width="1"/>
<path d="M-33,-32.21 L-11,5.895 L-33,44 L-55,5.895 Z" fill="rgba(50,50,50,0.5019607843137255)" stroke="rgba(0,0,0,1)" stroke-width="1"/>
<path d="M-11,5.895 L11,44 L-11,82.105 L-33,44 Z" fill="rgba(150,150,150,0.5019607843137255)" stroke="rgba(0,0,0,1)" stroke-width="1"/>
<path d="M11,-32.21 L33,5.895 L11,44 L-11,5.895 Z" fill="rgba(50,50,50,0.5019607843137255)" stroke="rgba(0,0,0,1)" stroke-width="1"/>
<path d="M33,5.895 L55,44 L33,82.105 L11,44 Z" fill="rgba(150,150,150,0.5019607843137255)" stroke="rgba(0,0,0,1)" stroke-width="1"/>
<path d="M55,-32.21 L77,5.895 L55,44 L33,5.895 Z" fill="rgba(50,50,50,0.5019607843137255)" stroke="rgba(0,0,0,1)" stroke-width="1"/>
<path d="M77,5.895 L99,44 L77,82.105 L55,44 Z" fill="rgba(150,150,150,0.5019607843137255)" stroke="rgba(0,0,0,1)" stroke-width="1"/>
<path d="M99,-32.21 L121,5.895 L99,44 L77,5.895 Z" fill="rgba(50,50,50,0.5019607843137255)" stroke="rgba(0,0,0,1)" stroke-width="1"/>
<path d="M121,5.895 L143,44 L121,82.105 L99,44 Z" fill="rgba(150,150,150,0.5019607843137255)" stroke="rgba(0,0,0,1)" stroke-width="1"/>
<path d="M143,-32.21 L165,5.895 L143,44 L121,5.895 Z" fill="rgba(50,50,50,0.5019607843137255)" stroke="rgba(0,0,0,1)" stroke-width="1"/>
<path d="M165,5.895 L187,44 L165,82.105 L143,44 Z" fill="rgba(150,150,150,0.5019607843137255)" stroke="rgba(0,0,0,1)" stroke-width="1"/>
<path d="M187,-32.21 L209,5.895 L187,44 L165,5.895 Z" fill="rgba(50,50,50,0.5019607843137255)" stroke="rgba(0,0,0,1)" stroke-width="1"/>
<path d="M209,5.895 L231,44 L209,82.105 L187,44 Z" fill="rgba(150,150,150,0.5019607843137255)" stroke="rgba(0,0,0,1)" stroke-width="1"/>
<path d="M-209,44 L-187,82.105 L-209,120.21 L-231,82.105 Z" fill="rgba(50,50,50,0.5019607843137255)" stroke="rgba(0,0,0,1)" stroke-width="1"/>
<path d="M-187,82.105 L-165,120.21 L-187,158.315 L-209,120.21 Z" fill="rgba(150,150,150,0.5019607843137255)" stroke="rgba(0,0,0,1)" stroke-width="1"/>
<path d="M-165,44 L-143,82.105 L-165,120.21 L-187,82.105 Z" fill="rgba(50,50,50,0.5019607843137255)" stroke="rgba(0,0,0,1)" stroke-width="1"/>
<path d="M-143,82.105 L-121,120.21 L-143,158.315 L-165,120.21 Z" fill="rgba(150,150,150,0.5019607843137255)" stroke="rgba(0,0,0,1)" stroke-width="1"/>
<path d="M-121,44 L-99,82.105 L-121,120.21 L-143,82.105 Z" fill="rgba(50,50,50,0.5019607843137255)" stroke="rgba(0,0,0,1)" stroke-width="1"/>
<path d="M-99,82.105 L-77,120.21 L-99,158.315 L-121,120.21 Z" fill="rgba(150,150,150,0.5019607843137255)" stroke="rgba(0,0,0,1)" stroke-width="1"/>
<path d="M-77,44 L-55,82.105 L-77,120.21 L-99,82.105 Z" fill="rgba(50,50,50,0.5019607843137255)" stroke="rgba(0,0,0,1)" stroke-width="1"/>
<path d="M-55,82.105 L-33,120.21 L-55,158.315 L-77,120.21 Z" fill="rgba(150,150,150,0.5019607843137255)" stroke="rgba(0,0,0,1)" stroke-width="1"/>
<path d="M-33,44 L-11,82.105 L-33,120.21 L-55,82.105 Z" fill="rgba(50,50,50,0.5019607843137255)" stroke="rgba(0,0,0,1)" stroke-width="1"/>
<path d="M-11,82.105 L11,120.21 L-11,158.315 L-33,120.21 Z" fill="rgba(150,150,150,0.5019607843137255)" stroke="rgba(0,0,0,1)" stroke-width="1"/>
<path d="M11,44 L33,82.105 L11,120.21 L-11,82.105 Z" fill="rgba(50,50,50,0.5019607843137255)" stroke="rgba(0,0,0,1)" stroke-width="1"/>
<path d="M33,82.105 L55,120.21 L33,158.315 L11,120.21 Z" fill="rgba(150,150,150,0.5019607843137255)" stroke="rgba(0,0,0,1)" stroke-width="1"/>
<path d="M55,44 L77,82.105 L55,120.21 L33,82.105 Z" fill="rgba(50,50,50,0.5019607843137255)" stroke="rgba(0,0,0,1)" stroke-width="1"/>
<path d="M77,82.105 L99,120.21 L77,158.315 L55,120.21 Z" fill="rgba(150,150,150,0.5019607843137255)" stroke="rgba(0,0,0,1)" stroke-width="1"/>
<path d="M99,44 L121,82.105 L99,120.21 L77,82.105 Z" fill="rgba(50,50,50,0.5019607843137255)" stroke="rgba(0,0,0,1)" stroke-width="1"/>
<path d="M121,82.105 L143,120.21 L121,158.315 L99,120.21 Z" fill="rgba(150,150,150,0.5019607843137255)" stroke="rgba(0,0,0,1)" stroke-width="1"/>
<path d="M143,44 L165,82.105 L143,120.21 L121,82.105 Z" fill="rgba(50,50,50,0.5019607843137255)" stroke="rgba(0,0,0,1)" stroke-width="1"/>
<path d="M165,82.105 L187,120.21 L165,158.315 L143,120.21 Z" fill="rgba(150,150,150,0.5019607843137255)" stroke="rgba(0,0,0,1)" stroke-width="1"/>
<path d="M187,44 L209,82.105 L187,120.21 L165,82.105 Z" fill="rgba(50,50,50,0.5019607843137255)" stroke="rgba(0,0,0,1)" stroke-width="1"/>
<path d="M209,82.105 L231,120.21 L209,158.315 L187,120.21 Z" fill="rgba(150,150,150,0.5019607843137255)" stroke="rgba(0,0,0,1)" stroke-width="1"/>
<path d="M-209,120.21 L-187,158.315 L-209,196.42 L-231,158.315 Z" fill="rgba(50,50,50,0.5019607843137255)" stroke="rgba(0,0,0,1)" stroke-width="1"/>
<path d="M-187,158.315 L-165,196.42 L-187,234.526 L-209,196.42 Z" fill="rgba(150,150,150,0.5019607843137255)" stroke="rgba(0,0,0,1)" stroke-width="1"/>
<path d="M-165,120.21 L-143,158.315 L-165,196.42 L-187,158.315 Z" fill="rgba(50,50,50,0.5019607843137255)" stroke="rgba(0,0,0,1)" stroke-width="1"/>
<path d="M-143,158.315 L-121,196.42 L-143,234.526 L-165,196.42 Z" fill="rgba(150,150,150,0.5019607843137255)" stroke="rgba(0,0,0,1)" stroke-width="1"/>
<path d="M-121,120.21 L-99,158.315 L-121,196.42 L-143,158.315 Z" fill="rgba(50,50,50,0.5019607843137255)" stroke="rgba(0,0,0,1)" stroke-width="1"/>
<path d="M-99,158.315 L-77,196.42 L-99,234.526 L-121,196.42 Z" fill="rgba(150,150,150,0.5019607843137255)" stroke="rgba(0,0,0,1)" stroke-width="1"/>
<path d="M-77,120.21 L-55,158.315 L-77,196.42 L-99,158.315 Z" fill="rgba(50,50,50,0.5019607843137255)" stroke="rgba(0,0,0,1)" stroke-width="1"/>
<path d="M-55,158.315 L-33,196.42 L-55,234.526 L-77,196.42 Z" fill="rgba(150,150,150,0.5019607843137255)" stroke="rgba(0,0,0,1)" stroke-width="1"/>
<path d="M-33,120.21 L-11,158.315 L-33,196.42 L-55,158.315 Z" fill="rgba(50,50,50,0.5019607843137255)" stroke="rgba(0,0,0,1)" stroke-width="1"/>
<path d="M-11,158.315 L11,196.42 L-11,234.526 L-33,196.42 Z" fill="rgba(150,150,150,0.5019607843137255)" stroke="rgba(0,0,0,1)" stroke-width="1"/>
<path d="M11,120.21 L33,158.315 L11,196.42 L-11,158.315 Z" fill="rgba(50,50,50,0.5019607843137255)" stroke="rgba(0,0,0,1)" stroke-width="1"/>
<path d="M33,158.315 L55,196.42 L33,234.526 L11,196.42 Z" fill="rgba(150,150,150,0.5019607843137255)" stroke="rgba(0,0,0,1)" stroke-width="1"/>
<path d="M55,120.21 L77,158.315 L55,196.42 L33,158.315 Z" fill="rgba(50,50,50,0.5019607843137255)" stroke="rgba(0,0,0,1)" stroke-width="1"/>
<path d="M77,158.315 L99,196.42 L77,234.526 L55,196.42 Z" fill="rgba(150,150,150,0.5019607843137255)" stroke="rgba(0,0,0,1)" stroke-width="1"/>
<path d="M99,120.21 L121,158.315 L99,196.42 L77,158.315 Z" fill="rgba(50,50,50,0.5019607843137255)" stroke="rgba(0,0,0,1)" stroke-width="1"/>
<path d="M121,158.315 L143,196.42 L121,234.526 L99,196.42 Z" fill="rgba(150,150,150,0.5019607843137255)" stroke="rgba(0,0,0,1)" stroke-width="1"/>
<path d="M143,120.21 L165,158.315 L143,196.42 L121,158.315 Z" fill="rgba(50,50,50,0.5019607843137255)" stroke="rgba(0,0,0,1)" stroke-width="1"/>
<path d="M165,158.315 L187,196.42 L165,234.526 L143,196.42 Z" fill="rgba(150,150,150,0.5019607843137255)" stroke="rgba(0,0,0,1)" stroke-width="1"/>
<path d="M187,120.21 L209,158.315 L187,196.42 L165,158.315 Z" fill="rgba(50,50,50,0.5019607843137255)" stroke="rgba(0,0,0,1)" stroke-width="1"/>
<path d="M209,158.315 L231,196.42 L209,234.526 L187,196.42 Z" fill="rgba(150,150,150,0.5019607843137255)" stroke="rgba(0,0,0,1)" stroke-width="1"/>
</svg>