<svg xmlns="http://www.w3.org/2000/svg" viewBox="-189.21 -85.84 378.42 267.69">
<path d="M-165.366,-62 L-82.01,-62 L-82.01,58 L-165.366,58 Z" fill="rgba(0,0,0,0)" stroke="rgba(0,0,0,1)" stroke-width="2"/>
<path d="M-165.366,-62 L-82.01,-62 L-82.01,-42 L-165.366,-42 Z" fill="rgba(246,246,246,1)"/>
<path d="M-165.366,-42 L-82.01,-42 L-82.01,-22 L-165.366,-22 Z" fill="rgba(255,255,255,1)"/>
<path d="M-165.366,-22 L-82.01,-22 L-82.01,-2 L-165.366,-2 Z" fill="rgba(243,246,250,1)"/>
<path d="M-165.366,-2 L-82.01,-2 L-82.01,18 L-165.366,18 Z" fill="rgba(255,255,255,1)"/>
<path d="M-165.366,18 L-82.01,18 L-82.01,38 L-165.366,38 Z" fill="rgba(243,246,250,1)"/>
<path d="M-165.366,38 L-82.01,38 L-82.01,58 L-165.366,58 Z" fill="rgba(255,255,255,1)"/>
<text x="0" y="0" text-anchor="start" font-family="Verdana-Bold, Helvetica, Arial, sans-serif" font-size="12" fill="rgba(0,0,0,1)" transform="matrix(1 0 0 1 -145.36599999999999 -48.82)">List A</text>
<text x="0" y="0" text-anchor="start" font-family="Verdana, Helvetica, Arial, sans-serif" font-size="12" fill="rgba(0,0,0,1)" transform="matrix(1 0 0 1 -145.36599999999999 -28.82)">apples</text>
<text x="0" y="0" text-anchor="start" font-family="Verdana, Helvetica, Arial, sans-serif" font-size="12" fill="rgba(0,0,0,1)" transform="matrix(1 0 0 1 -145.36599999999999 -8.82)">oranges</text>
<text x="0" y="0" text-anchor="start" font-family="Verdana, Helvetica, Arial, sans-serif" font-size="12" fill="rgba(0,0,0,1)" transform="matrix(1 0 0 1 -145.36599999999999 11.180000000000007)">kiwis</text>
<text x="0" y="0" text-anchor="start" font-family="Verdana, Helvetica, Arial, sans-serif" font-size="12" fill="rgba(0,0,0,1)" transform="matrix(1 0 0 1 -145.36599999999999 31.180000000000007)">carrots</text>
<text x="0" y="0" text-anchor="start" font-family="Verdana, Helvetica, Arial, sans-serif" font-size="12" fill="rgba(0,0,0,1)" transform="matrix(1 0 0 1 -145.36599999999999 51.18000000000001)">apples</text>
<path d="M-62.01,-62 L28.678,-62 L28.678,58 L-62.01,58 Z" fill="rgba(0,0,0,0)" stroke="rgba(0,0,0,1)" stroke-width="2"/>
<path d="M-62.01,-62 L28.678,-62 L28.678,-42 L-62.01,-42 Z" fill="rgba(246,246,246,1)"/>
<path d="M-62.01,-42 L28.678,-42 L28.678,-22 L-62.01,-22 Z" fill="rgba(255,255,255,1)"/>
<path d="M-62.01,-22 L28.678,-22 L28.678,-2 L-62.01,-2 Z" fill="rgba(243,246,250,1)"/>
<path d="M-62.01,-2 L28.678,-2 L28.678,18 L-62.01,18 Z" fill="rgba(255,255,255,1)"/>
<path d="M-62.01,18 L28.678,18 L28.678,38 L-62.01,38 Z" fill="rgba(243,246,250,1)"/>
<path d="M-62.01,38 L28.678,38 L28.678,58 L-62.01,58 Z" fill="rgba(255,255,255,1)"/>
<text x="0" y="0" text-anchor="start" font-family="Verdana-Bold, Helvetica, Arial, sans-serif" font-size="12" fill="rgba(0,0,0,1)" transform="matrix(1 0 0 1 -42.00999999999999 -48.82)">List B</text>
<text x="0" y="0" text-anchor="start" font-family="Verdana, Helvetica, Arial, sans-serif" font-size="12" fill="rgba(0,0,0,1)" transform="matrix(1 0 0 1 -42.00999999999999 -28.82)">apples</text>
<text x="0" y="0" text-anchor="start" font-family="Verdana, Helvetica, Arial, sans-serif" font-size="12" fill="rgba(0,0,0,1)" transform="matrix(1 0 0 1 -42.00999999999999 -8.82)">kiwis</text>
<text x="0" y="0" text-anchor="start" font-family="Verdana, Helvetica, Arial, sans-serif" font-size="12" fill="rgba(0,0,0,1)" transform="matrix(1 0 0 1 -42.00999999999999 11.180000000000007)">carrots</text>
<text x="0" y="0" text-anchor="start" font-family="Verdana, Helvetica, Arial, sans-serif" font-size="12" fill="rgba(0,0,0,1)" transform="matrix(1 0 0 1 -42.00999999999999 31.180000000000007)">grapefruit</text>
<text x="0" y="0" text-anchor="start" font-family="Verdana, Helvetica, Arial, sans-serif" font-size="12" fill="rgba(0,0,0,1)" transform="matrix(1 0 0 1 -42.00999999999999 51.18000000000001)">bananas</text>
<path d="M74.678,-62 L158.034,-62 L158.034,-22 L74.678,-22 Z" fill="rgba(0,0,0,0)" stroke="rgba(0,0,0,1)" stroke-width="2"/>
<path d="M74.678,-62 L158.034,-62 L158.034,-42 L74.678,-42 Z" fill="rgba(246,246,246,1)"/>
<path d="M74.678,-42 L158.034,-42 L158.034,-22 L74.678,-22 Z" fill="rgba(255,255,255,1)"/>
<text x="0" y="0" text-anchor="start" font-family="Verdana-Bold, Helvetica, Arial, sans-serif" font-size="12" fill="rgba(0,0,0,1)" transform="matrix(1 0 0 1 94.678 -48.82)">A not B</text>
<text x="0" y="0" text-anchor="start" font-family="Verdana, Helvetica, Arial, sans-serif" font-size="12" fill="rgba(0,0,0,1)" transform="matrix(1 0 0 1 94.678 -28.82)">oranges</text>
<path d="M74.678,-2 L165.366,-2 L165.366,58 L74.678,58 Z" fill="rgba(0,0,0,0)" stroke="rgba(0,0,0,1)" stroke-width="2"/>
<path d="M74.678,-2 L165.366,-2 L165.366,18 L74.678,18 Z" fill="rgba(246,246,246,1)"/>
<path d="M74.678,18 L165.366,18 L165.366,38 L74.678,38 Z" fill="rgba(255,255,255,1)"/>
<path d="M74.678,38 L165.366,38 L165.366,58 L74.678,58 Z" fill="rgba(243,246,250,1)"/>
<text x="0" y="0" text-anchor="start" font-family="Verdana-Bold, Helvetica, Arial, sans-serif" font-size="12" fill="rgba(0,0,0,1)" transform="matrix(1 0 0 1 94.678 11.180000000000007)">B not A</text>
<text x="0" y="0" text-anchor="start" font-family="Verdana, Helvetica, Arial, sans-serif" font-size="12" fill="rgba(0,0,0,1)" transform="matrix(1 0 0 1 94.678 31.180000000000007)">grapefruit</text>
<text x="0" y="0" text-anchor="start" font-family="Verdana, Helvetica, Arial, sans-serif" font-size="12" fill="rgba(0,0,0,1)" transform="matrix(1 0 0 1 94.678 51.18000000000001)">bananas</text>
<path d="M74.678,78 L157.374,78 L157.374,158 L74.678,158 Z" fill="rgba(0,0,0,0)" stroke="rgba(0,0,0,1)" stroke-width="2"/>
<path d="M74.678,78 L157.374,78 L157.374,98 L74.678,98 Z" fill="rgba(246,246,246,1)"/>
<path d="M74.678,98 L157.374,98 L157.374,118 L74.678,118 Z" fill="rgba(255,255,255,1)"/>
<path d="M74.678,118 L157.374,118 L157.374,138 L74.678,138 Z" fill="rgba(243,246,250,1)"/>
<path d="M74.678,138 L157.374,138 L157.374,158 L74.678,158 Z" fill="rgba(255,255,255,1)"/>
<text x="0" y="0" text-anchor="start" font-family="Verdana-Bold, Helvetica, Arial, sans-serif" font-size="12" fill="rgba(0,0,0,1)" transform="matrix(1 0 0 1 94.678 91.18)">A and B</text>
<text x="0" y="0" text-anchor="start" font-family="Verdana, Helvetica, Arial, sans-serif" font-size="12" fill="rgba(0,0,0,1)" transform="matrix(1 0 0 1 94.678 111.18)">apples</text>
<text x="0" y="0" text-anchor="start" font-family="Verdana, Helvetica, Arial, sans-serif" font-size="12" fill="rgba(0,0,0,1)" transform="matrix(1 0 0 1 94.678 131.18)">kiwis</text>
<text x="0" y="0" text-anchor="start" font-family="Verdana, Helvetica, Arial, sans-serif" font-size="12" fill="rgba(0,0,0,1)" transform="matrix(1 0 0 1 94.678 151.18)">carrots</text>
</svg>