<svg xmlns="http://www.w3.org/2000/svg" viewBox="-284 -146.28 568 380.53">
<path d="M250,50 C250,105.228 138.071,150 0,150 C-138.071,150 -250,105.228 -250,50 C-250,-5.228 -138.071,-50 0,-50 C138.071,-50 250,-5.228 250,50 Z" fill="rgba(251,246,219,1)" stroke="rgba(197,0,0,1)" stroke-width="3"/>
<path d="M-199,-100.25 L-131,-100.25 C-127.686,-100.25 -125,-97.564 -125,-94.25 L-125,-90.75 C-125,-87.436 -127.686,-84.75 -131,-84.75 L-199,-84.75 C-202.314,-84.75 -205,-87.436 -205,-90.75 L-205,-94.25 C-205,-97.564 -202.314,-100.25 -199,-100.25 Z" fill="rgba(0,0,255,1)"/>
<path d="M-199,-85.25 L-131,-85.25 C-127.686,-85.25 -125,-82.564 -125,-79.25 L-125,-75.75 C-125,-72.436 -127.686,-69.75 -131,-69.75 L-199,-69.75 C-202.314,-69.75 -205,-72.436 -205,-75.75 L-205,-79.25 C-205,-82.564 -202.314,-85.25 -199,-85.25 Z" fill="rgba(0,0,255,0.95)"/>
<path d="M-199,-70.25 L-131,-70.25 C-127.686,-70.25 -125,-67.564 -125,-64.25 L-125,-60.75 C-125,-57.436 -127.686,-54.75 -131,-54.75 L-199,-54.75 C-202.314,-54.75 -205,-57.436 -205,-60.75 L-205,-64.25 C-205,-67.564 -202.314,-70.25 -199,-70.25 Z" fill="rgba(0,0,255,0.9)"/>
<path d="M-199,-55.25 L-131,-55.25 C-127.686,-55.25 -125,-52.564 -125,-49.25 L-125,-45.75 C-125,-42.436 -127.686,-39.75 -131,-39.75 L-199,-39.75 C-202.314,-39.75 -205,-42.436 -205,-45.75 L-205,-49.25 C-205,-52.564 -202.314,-55.25 -199,-55.25 Z" fill="rgba(0,0,255,0.85)"/>
<path d="M-199,-40.25 L-131,-40.25 C-127.686,-40.25 -125,-37.564 -125,-34.25 L-125,-30.75 C-125,-27.436 -127.686,-24.75 -131,-24.75 L-199,-24.75 C-202.314,-24.75 -205,-27.436 -205,-30.75 L-205,-34.25 C-205,-37.564 -202.314,-40.25 -199,-40.25 Z" fill="rgba(0,0,255,0.8)"/>
<path d="M-199,-25.25 L-131,-25.25 C-127.686,-25.25 -125,-22.564 -125,-19.25 L-125,-15.75 C-125,-12.436 -127.686,-9.75 -131,-9.75 L-199,-9.75 C-202.314,-9.75 -205,-12.436 -205,-15.75 L-205,-19.25 C-205,-22.564 -202.314,-25.25 -199,-25.25 Z" fill="rgba(0,0,255,0.75)"/>
<path d="M-199,-10.25 L-131,-10.25 C-127.686,-10.25 -125,-7.564 -125,-4.25 L-125,-0.75 C-125,2.564 -127.686,5.25 -131,5.25 L-199,5.25 C-202.314,5.25 -205,2.564 -205,-0.75 L-205,-4.25 C-205,-7.564 -202.314,-10.25 -199,-10.25 Z" fill="rgba(0,0,255,0.7)"/>
<path d="M-199,4.75 L-131,4.75 C-127.686,4.75 -125,7.436 -125,10.75 L-125,14.25 C-125,17.564 -127.686,20.25 -131,20.25 L-199,20.25 C-202.314,20.25 -205,17.564 -205,14.25 L-205,10.75 C-205,7.436 -202.314,4.75 -199,4.75 Z" fill="rgba(0,0,255,0.65)"/>
<path d="M-199,19.75 L-131,19.75 C-127.686,19.75 -125,22.436 -125,25.75 L-125,29.25 C-125,32.564 -127.686,35.25 -131,35.25 L-199,35.25 C-202.314,35.25 -205,32.564 -205,29.25 L-205,25.75 C-205,22.436 -202.314,19.75 -199,19.75 Z" fill="rgba(0,0,255,0.6)"/>
<path d="M-199,34.75 L-131,34.75 C-127.686,34.75 -125,37.436 -125,40.75 L-125,44.25 C-125,47.564 -127.686,50.25 -131,50.25 L-199,50.25 C-202.314,50.25 -205,47.564 -205,44.25 L-205,40.75 C-205,37.436 -202.314,34.75 -199,34.75 Z" fill="rgba(0,0,255,0.55)"/>
<path d="M-199,49.75 L-131,49.75 C-127.686,49.75 -125,52.436 -125,55.75 L-125,59.25 C-125,62.564 -127.686,65.25 -131,65.25 L-199,65.25 C-202.314,65.25 -205,62.564 -205,59.25 L-205,55.75 C-205,52.436 -202.314,49.75 -199,49.75 Z" fill="rgba(0,0,255,0.5)"/>
<path d="M-199,64.75 L-131,64.75 C-127.686,64.75 -125,67.436 -125,70.75 L-125,74.25 C-125,77.564 -127.686,80.25 -131,80.25 L-199,80.25 C-202.314,80.25 -205,77.564 -205,74.25 L-205,70.75 C-205,67.436 -202.314,64.75 -199,64.75 Z" fill="rgba(0,0,255,0.45)"/>
<path d="M-199,79.75 L-131,79.75 C-127.686,79.75 -125,82.436 -125,85.75 L-125,89.25 C-125,92.564 -127.686,95.25 -131,95.25 L-199,95.25 C-202.314,95.25 -205,92.564 -205,89.25 L-205,85.75 C-205,82.436 -202.314,79.75 -199,79.75 Z" fill="rgba(0,0,255,0.4)"/>
<path d="M-199,94.75 L-131,94.75 C-127.686,94.75 -125,97.436 -125,100.75 L-125,104.25 C-125,107.564 -127.686,110.25 -131,110.25 L-199,110.25 C-202.314,110.25 -205,107.564 -205,104.25 L-205,100.75 C-205,97.436 -202.314,94.75 -199,94.75 Z" fill="rgba(0,0,255,0.35)"/>
<path d="M-199,109.75 L-131,109.75 C-127.686,109.75 -125,112.436 -125,115.75 L-125,119.25 C-125,122.564 -127.686,125.25 -131,125.25 L-199,125.25 C-202.314,125.25 -205,122.564 -205,119.25 L-205,115.75 C-205,112.436 -202.314,109.75 -199,109.75 Z" fill="rgba(0,0,255,0.3)"/>
<path d="M-199,124.75 L-131,124.75 C-127.686,124.75 -125,127.436 -125,130.75 L-125,134.25 C-125,137.564 -127.686,140.25 -131,140.25 L-199,140.25 C-202.314,140.25 -205,137.564 -205,134.25 L-205,130.75 C-205,127.436 -202.314,124.75 -199,124.75 Z" fill="rgba(0,0,255,0.25)"/>
<path d="M-199,139.75 L-131,139.75 C-127.686,139.75 -125,142.436 -125,145.75 L-125,149.25 C-125,152.564 -127.686,155.25 -131,155.25 L-199,155.25 C-202.314,155.25 -205,152.564 -205,149.25 L-205,145.75 C-205,142.436 -202.314,139.75 -199,139.75 Z" fill="rgba(0,0,255,0.2)"/>
<path d="M-199,154.75 L-131,154.75 C-127.686,154.75 -125,157.436 -125,160.75 L-125,164.25 C-125,167.564 -127.686,170.25 -131,170.25 L-199,170.25 C-202.314,170.25 -205,167.564 -205,164.25 L-205,160.75 C-205,157.436 -202.314,154.75 -199,154.75 Z" fill="rgba(0,0,255,0.15)"/>
<path d="M-199,169.75 L-131,169.75 C-127.686,169.75 -125,172.436 -125,175.75 L-125,179.25 C-125,182.564 -127.686,185.25 -131,185.25 L-199,185.25 C-202.314,185.25 -205,182.564 -205,179.25 L-205,175.75 C-205,172.436 -202.314,169.75 -199,169.75 Z" fill="rgba(0,0,255,0.1)"/>
<path d="M-199,184.75 L-131,184.75 C-127.686,184.75 -125,187.436 -125,190.75 L-125,194.25 C-125,197.564 -127.686,200.25 -131,200.25 L-199,200.25 C-202.314,200.25 -205,197.564 -205,194.25 L-205,190.75 C-205,187.436 -202.314,184.75 -199,184.75 Z" fill="rgba(0,0,255,0.05)"/>
<path d="M-89,-100.25 L-21,-100.25 C-17.686,-100.25 -15,-97.564 -15,-94.25 L-15,-90.75 C-15,-87.436 -17.686,-84.75 -21,-84.75 L-89,-84.75 C-92.314,-84.75 -95,-87.436 -95,-90.75 L-95,-94.25 C-95,-97.564 -92.314,-100.25 -89,-100.25 Z" fill="rgba(0,0,255,0.5019607843137255)"/>
<path d="M-89,-85.25 L-21,-85.25 C-17.686,-85.25 -15,-82.564 -15,-79.25 L-15,-75.75 C-15,-72.436 -17.686,-69.75 -21,-69.75 L-89,-69.75 C-92.314,-69.75 -95,-72.436 -95,-75.75 L-95,-79.25 C-95,-82.564 -92.314,-85.25 -89,-85.25 Z" fill="rgba(0,0,255,0.4768627450980392)"/>
<path d="M-89,-70.25 L-21,-70.25 C-17.686,-70.25 -15,-67.564 -15,-64.25 L-15,-60.75 C-15,-57.436 -17.686,-54.75 -21,-54.75 L-89,-54.75 C-92.314,-54.75 -95,-57.436 -95,-60.75 L-95,-64.25 C-95,-67.564 -92.314,-70.25 -89,-70.25 Z" fill="rgba(0,0,255,0.4517647058823529)"/>
<path d="M-89,-55.25 L-21,-55.25 C-17.686,-55.25 -15,-52.564 -15,-49.25 L-15,-45.75 C-15,-42.436 -17.686,-39.75 -21,-39.75 L-89,-39.75 C-92.314,-39.75 -95,-42.436 -95,-45.75 L-95,-49.25 C-95,-52.564 -92.314,-55.25 -89,-55.25 Z" fill="rgba(0,0,255,0.42666666666666664)"/>
<path d="M-89,-40.25 L-21,-40.25 C-17.686,-40.25 -15,-37.564 -15,-34.25 L-15,-30.75 C-15,-27.436 -17.686,-24.75 -21,-24.75 L-89,-24.75 C-92.314,-24.75 -95,-27.436 -95,-30.75 L-95,-34.25 C-95,-37.564 -92.314,-40.25 -89,-40.25 Z" fill="rgba(0,0,255,0.4015686274509804)"/>
<path d="M-89,-25.25 L-21,-25.25 C-17.686,-25.25 -15,-22.564 -15,-19.25 L-15,-15.75 C-15,-12.436 -17.686,-9.75 -21,-9.75 L-89,-9.75 C-92.314,-9.75 -95,-12.436 -95,-15.75 L-95,-19.25 C-95,-22.564 -92.314,-25.25 -89,-25.25 Z" fill="rgba(0,0,255,0.3764705882352941)"/>
<path d="M-89,-10.25 L-21,-10.25 C-17.686,-10.25 -15,-7.564 -15,-4.25 L-15,-0.75 C-15,2.564 -17.686,5.25 -21,5.25 L-89,5.25 C-92.314,5.25 -95,2.564 -95,-0.75 L-95,-4.25 C-95,-7.564 -92.314,-10.25 -89,-10.25 Z" fill="rgba(0,0,255,0.35137254901960785)"/>
<path d="M-89,4.75 L-21,4.75 C-17.686,4.75 -15,7.436 -15,10.75 L-15,14.25 C-15,17.564 -17.686,20.25 -21,20.25 L-89,20.25 C-92.314,20.25 -95,17.564 -95,14.25 L-95,10.75 C-95,7.436 -92.314,4.75 -89,4.75 Z" fill="rgba(0,0,255,0.32627450980392153)"/>
<path d="M-89,19.75 L-21,19.75 C-17.686,19.75 -15,22.436 -15,25.75 L-15,29.25 C-15,32.564 -17.686,35.25 -21,35.25 L-89,35.25 C-92.314,35.25 -95,32.564 -95,29.25 L-95,25.75 C-95,22.436 -92.314,19.75 -89,19.75 Z" fill="rgba(0,0,255,0.30117647058823527)"/>
<path d="M-89,34.75 L-21,34.75 C-17.686,34.75 -15,37.436 -15,40.75 L-15,44.25 C-15,47.564 -17.686,50.25 -21,50.25 L-89,50.25 C-92.314,50.25 -95,47.564 -95,44.25 L-95,40.75 C-95,37.436 -92.314,34.75 -89,34.75 Z" fill="rgba(0,0,255,0.27607843137254906)"/>
<path d="M-89,49.75 L-21,49.75 C-17.686,49.75 -15,52.436 -15,55.75 L-15,59.25 C-15,62.564 -17.686,65.25 -21,65.25 L-89,65.25 C-92.314,65.25 -95,62.564 -95,59.25 L-95,55.75 C-95,52.436 -92.314,49.75 -89,49.75 Z" fill="rgba(0,0,255,0.25098039215686274)"/>
<path d="M-89,64.75 L-21,64.75 C-17.686,64.75 -15,67.436 -15,70.75 L-15,74.25 C-15,77.564 -17.686,80.25 -21,80.25 L-89,80.25 C-92.314,80.25 -95,77.564 -95,74.25 L-95,70.75 C-95,67.436 -92.314,64.75 -89,64.75 Z" fill="rgba(0,0,255,0.22588235294117645)"/>
<path d="M-89,79.75 L-21,79.75 C-17.686,79.75 -15,82.436 -15,85.75 L-15,89.25 C-15,92.564 -17.686,95.25 -21,95.25 L-89,95.25 C-92.314,95.25 -95,92.564 -95,89.25 L-95,85.75 C-95,82.436 -92.314,79.75 -89,79.75 Z" fill="rgba(0,0,255,0.2007843137254902)"/>
<path d="M-89,94.75 L-21,94.75 C-17.686,94.75 -15,97.436 -15,100.75 L-15,104.25 C-15,107.564 -17.686,110.25 -21,110.25 L-89,110.25 C-92.314,110.25 -95,107.564 -95,104.25 L-95,100.75 C-95,97.436 -92.314,94.75 -89,94.75 Z" fill="rgba(0,0,255,0.17568627450980392)"/>
<path d="M-89,109.75 L-21,109.75 C-17.686,109.75 -15,112.436 -15,115.75 L-15,119.25 C-15,122.564 -17.686,125.25 -21,125.25 L-89,125.25 C-92.314,125.25 -95,122.564 -95,119.25 L-95,115.75 C-95,112.436 -92.314,109.75 -89,109.75 Z" fill="rgba(0,0,255,0.15058823529411763)"/>
<path d="M-89,124.75 L-21,124.75 C-17.686,124.75 -15,127.436 -15,130.75 L-15,134.25 C-15,137.564 -17.686,140.25 -21,140.25 L-89,140.25 C-92.314,140.25 -95,137.564 -95,134.25 L-95,130.75 C-95,127.436 -92.314,124.75 -89,124.75 Z" fill="rgba(0,0,255,0.12549019607843137)"/>
<path d="M-89,139.75 L-21,139.75 C-17.686,139.75 -15,142.436 -15,145.75 L-15,149.25 C-15,152.564 -17.686,155.25 -21,155.25 L-89,155.25 C-92.314,155.25 -95,152.564 -95,149.25 L-95,145.75 C-95,142.436 -92.314,139.75 -89,139.75 Z" fill="rgba(0,0,255,0.1003921568627451)"/>
<path d="M-89,154.75 L-21,154.75 C-17.686,154.75 -15,157.436 -15,160.75 L-15,164.25 C-15,167.564 -17.686,170.25 -21,170.25 L-89,170.25 C-92.314,170.25 -95,167.564 -95,164.25 L-95,160.75 C-95,157.436 -92.314,154.75 -89,154.75 Z" fill="rgba(0,0,255,0.07529411764705882)"/>
<path d="M-89,169.75 L-21,169.75 C-17.686,169.75 -15,172.436 -15,175.75 L-15,179.25 C-15,182.564 -17.686,185.25 -21,185.25 L-89,185.25 C-92.314,185.25 -95,182.564 -95,179.25 L-95,175.75 C-95,172.436 -92.314,169.75 -89,169.75 Z" fill="rgba(0,0,255,0.05019607843137255)"/>
<path d="M-89,184.75 L-21,184.75 C-17.686,184.75 -15,187.436 -15,190.75 L-15,194.25 C-15,197.564 -17.686,200.25 -21,200.25 L-89,200.25 C-92.314,200.25 -95,197.564 -95,194.25 L-95,190.75 C-95,187.436 -92.314,184.75 -89,184.75 Z" fill="rgba(0,0,255,0.025098039215686273)"/>
<path d="M21,-100.25 L89,-100.25 C92.314,-100.25 95,-97.564 95,-94.25 L95,-90.75 C95,-87.436 92.314,-84.75 89,-84.75 L21,-84.75 C17.686,-84.75 15,-87.436 15,-90.75 L15,-94.25 C15,-97.564 17.686,-100.25 21,-100.25 Z" fill="rgba(0,0,255,1)"/>
<path d="M21,-85.25 L89,-85.25 C92.314,-85.25 95,-82.564 95,-79.25 L95,-75.75 C95,-72.436 92.314,-69.75 89,-69.75 L21,-69.75 C17.686,-69.75 15,-72.436 15,-75.75 L15,-79.25 C15,-82.564 17.686,-85.25 21,-85.25 Z" fill="rgba(13,13,242,1)"/>
<path d="M21,-70.25 L89,-70.25 C92.314,-70.25 95,-67.564 95,-64.25 L95,-60.75 C95,-57.436 92.314,-54.75 89,-54.75 L21,-54.75 C17.686,-54.75 15,-57.436 15,-60.75 L15,-64.25 C15,-67.564 17.686,-70.25 21,-70.25 Z" fill="rgba(25,26,230,1)"/>
<path d="M21,-55.25 L89,-55.25 C92.314,-55.25 95,-52.564 95,-49.25 L95,-45.75 C95,-42.436 92.314,-39.75 89,-39.75 L21,-39.75 C17.686,-39.75 15,-42.436 15,-45.75 L15,-49.25 C15,-52.564 17.686,-55.25 21,-55.25 Z" fill="rgba(38,38,217,1)"/>
<path d="M21,-40.25 L89,-40.25 C92.314,-40.25 95,-37.564 95,-34.25 L95,-30.75 C95,-27.436 92.314,-24.75 89,-24.75 L21,-24.75 C17.686,-24.75 15,-27.436 15,-30.75 L15,-34.25 C15,-37.564 17.686,-40.25 21,-40.25 Z" fill="rgba(51,51,204,1)"/>
<path d="M21,-25.25 L89,-25.25 C92.314,-25.25 95,-22.564 95,-19.25 L95,-15.75 C95,-12.436 92.314,-9.75 89,-9.75 L21,-9.75 C17.686,-9.75 15,-12.436 15,-15.75 L15,-19.25 C15,-22.564 17.686,-25.25 21,-25.25 Z" fill="rgba(64,64,191,1)"/>
<path d="M21,-10.25 L89,-10.25 C92.314,-10.25 95,-7.564 95,-4.25 L95,-0.75 C95,2.564 92.314,5.25 89,5.25 L21,5.25 C17.686,5.25 15,2.564 15,-0.75 L15,-4.25 C15,-7.564 17.686,-10.25 21,-10.25 Z" fill="rgba(76,77,179,1)"/>
<path d="M21,4.75 L89,4.75 C92.314,4.75 95,7.436 95,10.75 L95,14.25 C95,17.564 92.314,20.25 89,20.25 L21,20.25 C17.686,20.25 15,17.564 15,14.25 L15,10.75 C15,7.436 17.686,4.75 21,4.75 Z" fill="rgba(89,89,166,1)"/>
<path d="M21,19.75 L89,19.75 C92.314,19.75 95,22.436 95,25.75 L95,29.25 C95,32.564 92.314,35.25 89,35.25 L21,35.25 C17.686,35.25 15,32.564 15,29.25 L15,25.75 C15,22.436 17.686,19.75 21,19.75 Z" fill="rgba(102,102,153,1)"/>
<path d="M21,34.75 L89,34.75 C92.314,34.75 95,37.436 95,40.75 L95,44.25 C95,47.564 92.314,50.25 89,50.25 L21,50.25 C17.686,50.25 15,47.564 15,44.25 L15,40.75 C15,37.436 17.686,34.75 21,34.75 Z" fill="rgba(115,115,140,1)"/>
<path d="M21,49.75 L89,49.75 C92.314,49.75 95,52.436 95,55.75 L95,59.25 C95,62.564 92.314,65.25 89,65.25 L21,65.25 C17.686,65.25 15,62.564 15,59.25 L15,55.75 C15,52.436 17.686,49.75 21,49.75 Z" fill="rgba(127,128,128,1)"/>
<path d="M21,64.75 L89,64.75 C92.314,64.75 95,67.436 95,70.75 L95,74.25 C95,77.564 92.314,80.25 89,80.25 L21,80.25 C17.686,80.25 15,77.564 15,74.25 L15,70.75 C15,67.436 17.686,64.75 21,64.75 Z" fill="rgba(140,140,115,1)"/>
<path d="M21,79.75 L89,79.75 C92.314,79.75 95,82.436 95,85.75 L95,89.25 C95,92.564 92.314,95.25 89,95.25 L21,95.25 C17.686,95.25 15,92.564 15,89.25 L15,85.75 C15,82.436 17.686,79.75 21,79.75 Z" fill="rgba(153,153,102,1)"/>
<path d="M21,94.75 L89,94.75 C92.314,94.75 95,97.436 95,100.75 L95,104.25 C95,107.564 92.314,110.25 89,110.25 L21,110.25 C17.686,110.25 15,107.564 15,104.25 L15,100.75 C15,97.436 17.686,94.75 21,94.75 Z" fill="rgba(166,166,89,1)"/>
<path d="M21,109.75 L89,109.75 C92.314,109.75 95,112.436 95,115.75 L95,119.25 C95,122.564 92.314,125.25 89,125.25 L21,125.25 C17.686,125.25 15,122.564 15,119.25 L15,115.75 C15,112.436 17.686,109.75 21,109.75 Z" fill="rgba(178,179,77,1)"/>
<path d="M21,124.75 L89,124.75 C92.314,124.75 95,127.436 95,130.75 L95,134.25 C95,137.564 92.314,140.25 89,140.25 L21,140.25 C17.686,140.25 15,137.564 15,134.25 L15,130.75 C15,127.436 17.686,124.75 21,124.75 Z" fill="rgba(191,191,64,1)"/>
<path d="M21,139.75 L89,139.75 C92.314,139.75 95,142.436 95,145.75 L95,149.25 C95,152.564 92.314,155.25 89,155.25 L21,155.25 C17.686,155.25 15,152.564 15,149.25 L15,145.75 C15,142.436 17.686,139.75 21,139.75 Z" fill="rgba(204,204,51,1)"/>
<path d="M21,154.75 L89,154.75 C92.314,154.75 95,157.436 95,160.75 L95,164.25 C95,167.564 92.314,170.25 89,170.25 L21,170.25 C17.686,170.25 15,167.564 15,164.25 L15,160.75 C15,157.436 17.686,154.75 21,154.75 Z" fill="rgba(217,217,38,1)"/>
<path d="M21,169.75 L89,169.75 C92.314,169.75 95,172.436 95,175.75 L95,179.25 C95,182.564 92.314,185.25 89,185.25 L21,185.25 C17.686,185.25 15,182.564 15,179.25 L15,175.75 C15,172.436 17.686,169.75 21,169.75 Z" fill="rgba(229,230,26,1)"/>
<path d="M21,184.75 L89,184.75 C92.314,184.75 95,187.436 95,190.75 L95,194.25 C95,197.564 92.314,200.25 89,200.25 L21,200.25 C17.686,200.25 15,197.564 15,194.25 L15,190.75 C15,187.436 17.686,184.75 21,184.75 Z" fill="rgba(242,242,13,1)"/>
<path d="M131,-100.25 L199,-100.25 C202.314,-100.25 205,-97.564 205,-94.25 L205,-90.75 C205,-87.436 202.314,-84.75 199,-84.75 L131,-84.75 C127.686,-84.75 125,-87.436 125,-90.75 L125,-94.25 C125,-97.564 127.686,-100.25 131,-100.25 Z" fill="rgba(0,0,255,1)"/>
<path d="M131,-85.25 L199,-85.25 C202.314,-85.25 205,-82.564 205,-79.25 L205,-75.75 C205,-72.436 202.314,-69.75 199,-69.75 L131,-69.75 C127.686,-69.75 125,-72.436 125,-75.75 L125,-79.25 C125,-82.564 127.686,-85.25 131,-85.25 Z" fill="rgba(13,26,255,1)"/>
<path d="M131,-70.25 L199,-70.25 C202.314,-70.25 205,-67.564 205,-64.25 L205,-60.75 C205,-57.436 202.314,-54.75 199,-54.75 L131,-54.75 C127.686,-54.75 125,-57.436 125,-60.75 L125,-64.25 C125,-67.564 127.686,-70.25 131,-70.25 Z" fill="rgba(25,54,255,1)"/>
<path d="M131,-55.25 L199,-55.25 C202.314,-55.25 205,-52.564 205,-49.25 L205,-45.75 C205,-42.436 202.314,-39.75 199,-39.75 L131,-39.75 C127.686,-39.75 125,-42.436 125,-45.75 L125,-49.25 C125,-52.564 127.686,-55.25 131,-55.25 Z" fill="rgba(38,85,255,1)"/>
<path d="M131,-40.25 L199,-40.25 C202.314,-40.25 205,-37.564 205,-34.25 L205,-30.75 C205,-27.436 202.314,-24.75 199,-24.75 L131,-24.75 C127.686,-24.75 125,-27.436 125,-30.75 L125,-34.25 C125,-37.564 127.686,-40.25 131,-40.25 Z" fill="rgba(51,119,255,1)"/>
<path d="M131,-25.25 L199,-25.25 C202.314,-25.25 205,-22.564 205,-19.25 L205,-15.75 C205,-12.436 202.314,-9.75 199,-9.75 L131,-9.75 C127.686,-9.75 125,-12.436 125,-15.75 L125,-19.25 C125,-22.564 127.686,-25.25 131,-25.25 Z" fill="rgba(64,159,255,1)"/>
<path d="M131,-10.25 L199,-10.25 C202.314,-10.25 205,-7.564 205,-4.25 L205,-0.75 C205,2.564 202.314,5.25 199,5.25 L131,5.25 C127.686,5.25 125,2.564 125,-0.75 L125,-4.25 C125,-7.564 127.686,-10.25 131,-10.25 Z" fill="rgba(77,210,255,1)"/>
<path d="M131,4.75 L199,4.75 C202.314,4.75 205,7.436 205,10.75 L205,14.25 C205,17.564 202.314,20.25 199,20.25 L131,20.25 C127.686,20.25 125,17.564 125,14.25 L125,10.75 C125,7.436 127.686,4.75 131,4.75 Z" fill="rgba(89,255,231,1)"/>
<path d="M131,19.75 L199,19.75 C202.314,19.75 205,22.436 205,25.75 L205,29.25 C205,32.564 202.314,35.25 199,35.25 L131,35.25 C127.686,35.25 125,32.564 125,29.25 L125,25.75 C125,22.436 127.686,19.75 131,19.75 Z" fill="rgba(102,255,179,1)"/>
<path d="M131,34.75 L199,34.75 C202.314,34.75 205,37.436 205,40.75 L205,44.25 C205,47.564 202.314,50.25 199,50.25 L131,50.25 C127.686,50.25 125,47.564 125,44.25 L125,40.75 C125,37.436 127.686,34.75 131,34.75 Z" fill="rgba(115,255,146,1)"/>
<path d="M131,49.75 L199,49.75 C202.314,49.75 205,52.436 205,55.75 L205,59.25 C205,62.564 202.314,65.25 199,65.25 L131,65.25 C127.686,65.25 125,62.564 125,59.25 L125,55.75 C125,52.436 127.686,49.75 131,49.75 Z" fill="rgba(128,255,128,1)"/>
<path d="M131,64.75 L199,64.75 C202.314,64.75 205,67.436 205,70.75 L205,74.25 C205,77.564 202.314,80.25 199,80.25 L131,80.25 C127.686,80.25 125,77.564 125,74.25 L125,70.75 C125,67.436 127.686,64.75 131,64.75 Z" fill="rgba(129,255,115,1)"/>
<path d="M131,79.75 L199,79.75 C202.314,79.75 205,82.436 205,85.75 L205,89.25 C205,92.564 202.314,95.25 199,95.25 L131,95.25 C127.686,95.25 125,92.564 125,89.25 L125,85.75 C125,82.436 127.686,79.75 131,79.75 Z" fill="rgba(133,255,102,1)"/>
<path d="M131,94.75 L199,94.75 C202.314,94.75 205,97.436 205,100.75 L205,104.25 C205,107.564 202.314,110.25 199,110.25 L131,110.25 C127.686,110.25 125,107.564 125,104.25 L125,100.75 C125,97.436 127.686,94.75 131,94.75 Z" fill="rgba(139,255,89,1)"/>
<path d="M131,109.75 L199,109.75 C202.314,109.75 205,112.436 205,115.75 L205,119.25 C205,122.564 202.314,125.25 199,125.25 L131,125.25 C127.686,125.25 125,122.564 125,119.25 L125,115.75 C125,112.436 127.686,109.75 131,109.75 Z" fill="rgba(148,255,77,1)"/>
<path d="M131,124.75 L199,124.75 C202.314,124.75 205,127.436 205,130.75 L205,134.25 C205,137.564 202.314,140.25 199,140.25 L131,140.25 C127.686,140.25 125,137.564 125,134.25 L125,130.75 C125,127.436 127.686,124.75 131,124.75 Z" fill="rgba(159,255,64,1)"/>
<path d="M131,139.75 L199,139.75 C202.314,139.75 205,142.436 205,145.75 L205,149.25 C205,152.564 202.314,155.25 199,155.25 L131,155.25 C127.686,155.25 125,152.564 125,149.25 L125,145.75 C125,142.436 127.686,139.75 131,139.75 Z" fill="rgba(173,255,51,1)"/>
<path d="M131,154.75 L199,154.75 C202.314,154.75 205,157.436 205,160.75 L205,164.25 C205,167.564 202.314,170.25 199,170.25 L131,170.25 C127.686,170.25 125,167.564 125,164.25 L125,160.75 C125,157.436 127.686,154.75 131,154.75 Z" fill="rgba(190,255,38,1)"/>
<path d="M131,169.75 L199,169.75 C202.314,169.75 205,172.436 205,175.75 L205,179.25 C205,182.564 202.314,185.25 199,185.25 L131,185.25 C127.686,185.25 125,182.564 125,179.25 L125,175.75 C125,172.436 127.686,169.75 131,169.75 Z" fill="rgba(209,255,25,1)"/>
<path d="M131,184.75 L199,184.75 C202.314,184.75 205,187.436 205,190.75 L205,194.25 C205,197.564 202.314,200.25 199,200.25 L131,200.25 C127.686,200.25 125,197.564 125,194.25 L125,190.75 C125,187.436 127.686,184.75 131,184.75 Z" fill="rgba(231,255,13,1)"/>
<text x="-201" y="0" text-anchor="start" font-family="Verdana-Bold, Helvetica, Arial, sans-serif" font-size="8" fill="rgba(88,88,88,1)" transform="matrix(1 0 0 1 0 -106.52)">Set Alpha</text>
<text x="-91" y="0" text-anchor="start" font-family="Verdana-Bold, Helvetica, Arial, sans-serif" font-size="8" fill="rgba(88,88,88,1)" transform="matrix(1 0 0 1 0 -106.52)">Multiply Alpha</text>
<text x="19" y="0" text-anchor="start" font-family="Verdana-Bold, Helvetica, Arial, sans-serif" font-size="8" fill="rgba(88,88,88,1)" transform="matrix(1 0 0 1 0 -106.52)">Opaque Against Background</text>
<text x="129" y="0" text-anchor="start" font-family="Verdana-Bold, Helvetica, Arial, sans-serif" font-size="8" fill="rgba(88,88,88,1)" transform="matrix(1 0 0 1 0 -106.52)">Blend With Background</text>
</svg>