<svg xmlns="http://www.w3.org/2000/svg" viewBox="-202.45 -55.26 404.89 290.52">
<path d="M-177.184,-30 L-41.816,-30 L-41.816,210 L-177.184,210 Z" fill="rgba(0,0,0,0)" stroke="rgba(0,0,0,1)" stroke-width="2"/>
<path d="M-177.184,-30 L-41.816,-30 L-41.816,-10 L-177.184,-10 Z" fill="rgba(246,246,246,1)"/>
<path d="M-177.184,-10 L-41.816,-10 L-41.816,10 L-177.184,10 Z" fill="rgba(255,255,255,1)"/>
<path d="M-177.184,10 L-41.816,10 L-41.816,30 L-177.184,30 Z" fill="rgba(243,246,250,1)"/>
<path d="M-177.184,30 L-41.816,30 L-41.816,50 L-177.184,50 Z" fill="rgba(255,255,255,1)"/>
<path d="M-177.184,50 L-41.816,50 L-41.816,70 L-177.184,70 Z" fill="rgba(243,246,250,1)"/>
<path d="M-177.184,70 L-41.816,70 L-41.816,90 L-177.184,90 Z" fill="rgba(255,255,255,1)"/>
<path d="M-177.184,90 L-41.816,90 L-41.816,110 L-177.184,110 Z" fill="rgba(243,246,250,1)"/>
<path d="M-177.184,110 L-41.816,110 L-41.816,130 L-177.184,130 Z" fill="rgba(255,255,255,1)"/>
<path d="M-177.184,130 L-41.816,130 L-41.816,150 L-177.184,150 Z" fill="rgba(243,246,250,1)"/>
<path d="M-177.184,150 L-41.816,150 L-41.816,170 L-177.184,170 Z" fill="rgba(255,255,255,1)"/>
<path d="M-177.184,170 L-41.816,170 L-41.816,190 L-177.184,190 Z" fill="rgba(243,246,250,1)"/>
<path d="M-177.184,190 L-41.816,190 L-41.816,210 L-177.184,210 Z" fill="rgba(255,255,255,1)"/>
<text x="0" y="0" text-anchor="start" font-family="Verdana-Bold, Helvetica, Arial, sans-serif" font-size="12" fill="rgba(0,0,0,1)" transform="matrix(1 0 0 1 -157.18399999999997 -16.820000000000007)">heads</text>
<text x="0" y="0" text-anchor="start" font-family="Verdana, Helvetica, Arial, sans-serif" font-size="12" fill="rgba(0,0,0,1)" transform="matrix(1 0 0 1 -157.18399999999997 3.1799999999999926)">0</text>
<text x="0" y="0" text-anchor="start" font-family="Verdana, Helvetica, Arial, sans-serif" font-size="12" fill="rgba(0,0,0,1)" transform="matrix(1 0 0 1 -157.18399999999997 23.179999999999993)">1</text>
<text x="0" y="0" text-anchor="start" font-family="Verdana, Helvetica, Arial, sans-serif" font-size="12" fill="rgba(0,0,0,1)" transform="matrix(1 0 0 1 -157.18399999999997 43.17999999999999)">2</text>
<text x="0" y="0" text-anchor="start" font-family="Verdana, Helvetica, Arial, sans-serif" font-size="12" fill="rgba(0,0,0,1)" transform="matrix(1 0 0 1 -157.18399999999997 63.17999999999999)">3</text>
<text x="0" y="0" text-anchor="start" font-family="Verdana, Helvetica, Arial, sans-serif" font-size="12" fill="rgba(0,0,0,1)" transform="matrix(1 0 0 1 -157.18399999999997 83.17999999999999)">4</text>
<text x="0" y="0" text-anchor="start" font-family="Verdana, Helvetica, Arial, sans-serif" font-size="12" fill="rgba(0,0,0,1)" transform="matrix(1 0 0 1 -157.18399999999997 103.18)">5</text>
<text x="0" y="0" text-anchor="start" font-family="Verdana, Helvetica, Arial, sans-serif" font-size="12" fill="rgba(0,0,0,1)" transform="matrix(1 0 0 1 -157.18399999999997 123.18)">6</text>
<text x="0" y="0" text-anchor="start" font-family="Verdana, Helvetica, Arial, sans-serif" font-size="12" fill="rgba(0,0,0,1)" transform="matrix(1 0 0 1 -157.18399999999997 143.18)">7</text>
<text x="0" y="0" text-anchor="start" font-family="Verdana, Helvetica, Arial, sans-serif" font-size="12" fill="rgba(0,0,0,1)" transform="matrix(1 0 0 1 -157.18399999999997 163.18)">8</text>
<text x="0" y="0" text-anchor="start" font-family="Verdana, Helvetica, Arial, sans-serif" font-size="12" fill="rgba(0,0,0,1)" transform="matrix(1 0 0 1 -157.18399999999997 183.18)">9</text>
<text x="0" y="0" text-anchor="start" font-family="Verdana, Helvetica, Arial, sans-serif" font-size="12" fill="rgba(0,0,0,1)" transform="matrix(1 0 0 1 -157.18399999999997 203.18)">10</text>
<text x="0" y="0" text-anchor="start" font-family="Verdana-Bold, Helvetica, Arial, sans-serif" font-size="12" fill="rgba(0,0,0,1)" transform="matrix(1 0 0 1 -84.49599999999997 -16.820000000000007)">total</text>
<text x="0" y="0" text-anchor="start" font-family="Verdana, Helvetica, Arial, sans-serif" font-size="12" fill="rgba(0,0,0,1)" transform="matrix(1 0 0 1 -84.49599999999997 3.1799999999999926)">0</text>
<text x="0" y="0" text-anchor="start" font-family="Verdana, Helvetica, Arial, sans-serif" font-size="12" fill="rgba(0,0,0,1)" transform="matrix(1 0 0 1 -84.49599999999997 23.179999999999993)">13</text>
<text x="0" y="0" text-anchor="start" font-family="Verdana, Helvetica, Arial, sans-serif" font-size="12" fill="rgba(0,0,0,1)" transform="matrix(1 0 0 1 -84.49599999999997 43.17999999999999)">40</text>
<text x="0" y="0" text-anchor="start" font-family="Verdana, Helvetica, Arial, sans-serif" font-size="12" fill="rgba(0,0,0,1)" transform="matrix(1 0 0 1 -84.49599999999997 63.17999999999999)">117</text>
<text x="0" y="0" text-anchor="start" font-family="Verdana, Helvetica, Arial, sans-serif" font-size="12" fill="rgba(0,0,0,1)" transform="matrix(1 0 0 1 -84.49599999999997 83.17999999999999)">220</text>
<text x="0" y="0" text-anchor="start" font-family="Verdana, Helvetica, Arial, sans-serif" font-size="12" fill="rgba(0,0,0,1)" transform="matrix(1 0 0 1 -84.49599999999997 103.18)">230</text>
<text x="0" y="0" text-anchor="start" font-family="Verdana, Helvetica, Arial, sans-serif" font-size="12" fill="rgba(0,0,0,1)" transform="matrix(1 0 0 1 -84.49599999999997 123.18)">216</text>
<text x="0" y="0" text-anchor="start" font-family="Verdana, Helvetica, Arial, sans-serif" font-size="12" fill="rgba(0,0,0,1)" transform="matrix(1 0 0 1 -84.49599999999997 143.18)">100</text>
<text x="0" y="0" text-anchor="start" font-family="Verdana, Helvetica, Arial, sans-serif" font-size="12" fill="rgba(0,0,0,1)" transform="matrix(1 0 0 1 -84.49599999999997 163.18)">57</text>
<text x="0" y="0" text-anchor="start" font-family="Verdana, Helvetica, Arial, sans-serif" font-size="12" fill="rgba(0,0,0,1)" transform="matrix(1 0 0 1 -84.49599999999997 183.18)">7</text>
<text x="0" y="0" text-anchor="start" font-family="Verdana, Helvetica, Arial, sans-serif" font-size="12" fill="rgba(0,0,0,1)" transform="matrix(1 0 0 1 -84.49599999999997 203.18)">0</text>
<path d="M7.184,205 L7.184,205" fill="rgba(0,0,0,0)" stroke="rgba(173,173,173,1)" stroke-width="10"/>
<path d="M24.184,205 L24.184,192" fill="rgba(0,0,0,0)" stroke="rgba(173,173,173,1)" stroke-width="10"/>
<path d="M41.184,205 L41.184,165" fill="rgba(0,0,0,0)" stroke="rgba(173,173,173,1)" stroke-width="10"/>
<path d="M58.184,205 L58.184,88" fill="rgba(0,0,0,0)" stroke="rgba(173,173,173,1)" stroke-width="10"/>
<path d="M75.184,205 L75.184,-15" fill="rgba(0,0,0,0)" stroke="rgba(173,173,173,1)" stroke-width="10"/>
<path d="M92.184,205 L92.184,-25" fill="rgba(0,0,0,0)" stroke="rgba(173,173,173,1)" stroke-width="10"/>
<path d="M109.184,205 L109.184,-11" fill="rgba(0,0,0,0)" stroke="rgba(173,173,173,1)" stroke-width="10"/>
<path d="M126.184,205 L126.184,105" fill="rgba(0,0,0,0)" stroke="rgba(173,173,173,1)" stroke-width="10"/>
<path d="M143.184,205 L143.184,148" fill="rgba(0,0,0,0)" stroke="rgba(173,173,173,1)" stroke-width="10"/>
<path d="M160.184,205 L160.184,198" fill="rgba(0,0,0,0)" stroke="rgba(173,173,173,1)" stroke-width="10"/>
<path d="M177.184,205 L177.184,205" fill="rgba(0,0,0,0)" stroke="rgba(173,173,173,1)" stroke-width="10"/>
</svg>