<svg xmlns="http://www.w3.org/2000/svg" viewBox="-228 -178 456 456">
<path d="M-200,50 L200,50" fill="rgba(0,0,0,1)" stroke="rgba(67,142,177,1)" stroke-width="1"/>
<path d="M0,-150 L0,250" fill="rgba(0,0,0,1)" stroke="rgba(67,142,177,1)" stroke-width="1"/>
<path d="M-180,58.333 L-160,59.375 L-140,60.714 L-120,62.5 L-100,65 L-80,68.75 L-60,75 L-40,87.5 L-20,125 L0,50 L20,-25 L40,12.5 L60,25 L80,31.25 L100,35 L120,37.5 L140,39.286 L160,40.625 L180,41.667" fill="none" stroke="rgba(0,0,0,1)" stroke-width="1"/>
<path d="M-176,58.333 C-176,60.542 -177.791,62.333 -180,62.333 C-182.209,62.333 -184,60.542 -184,58.333 C-184,56.124 -182.209,54.333 -180,54.333 C-177.791,54.333 -176,56.124 -176,58.333 Z" fill="rgba(0,0,0,1)"/>
<path d="M-156,59.375 C-156,61.584 -157.791,63.375 -160,63.375 C-162.209,63.375 -164,61.584 -164,59.375 C-164,57.166 -162.209,55.375 -160,55.375 C-157.791,55.375 -156,57.166 -156,59.375 Z" fill="rgba(0,0,0,1)"/>
<path d="M-136,60.714 C-136,62.923 -137.791,64.714 -140,64.714 C-142.209,64.714 -144,62.923 -144,60.714 C-144,58.505 -142.209,56.714 -140,56.714 C-137.791,56.714 -136,58.505 -136,60.714 Z" fill="rgba(0,0,0,1)"/>
<path d="M-116,62.5 C-116,64.709 -117.791,66.5 -120,66.5 C-122.209,66.5 -124,64.709 -124,62.5 C-124,60.291 -122.209,58.5 -120,58.5 C-117.791,58.5 -116,60.291 -116,62.5 Z" fill="rgba(0,0,0,1)"/>
<path d="M-96,65 C-96,67.209 -97.791,69 -100,69 C-102.209,69 -104,67.209 -104,65 C-104,62.791 -102.209,61 -100,61 C-97.791,61 -96,62.791 -96,65 Z" fill="rgba(0,0,0,1)"/>
<path d="M-76,68.75 C-76,70.959 -77.791,72.75 -80,72.75 C-82.209,72.75 -84,70.959 -84,68.75 C-84,66.541 -82.209,64.75 -80,64.75 C-77.791,64.75 -76,66.541 -76,68.75 Z" fill="rgba(0,0,0,1)"/>
<path d="M-56,75 C-56,77.209 -57.791,79 -60,79 C-62.209,79 -64,77.209 -64,75 C-64,72.791 -62.209,71 -60,71 C-57.791,71 -56,72.791 -56,75 Z" fill="rgba(0,0,0,1)"/>
<path d="M-36,87.5 C-36,89.709 -37.791,91.5 -40,91.5 C-42.209,91.5 -44,89.709 -44,87.5 C-44,85.291 -42.209,83.5 -40,83.5 C-37.791,83.5 -36,85.291 -36,87.5 Z" fill="rgba(0,0,0,1)"/>
<path d="M-16,125 C-16,127.209 -17.791,129 -20,129 C-22.209,129 -24,127.209 -24,125 C-24,122.791 -22.209,121 -20,121 C-17.791,121 -16,122.791 -16,125 Z" fill="rgba(0,0,0,1)"/>
<path d="M4,50 C4,52.209 2.209,54 0,54 C-2.209,54 -4,52.209 -4,50 C-4,47.791 -2.209,46 0,46 C2.209,46 4,47.791 4,50 Z" fill="rgba(255,0,0,1)"/>
<path d="M24,-25 C24,-22.791 22.209,-21 20,-21 C17.791,-21 16,-22.791 16,-25 C16,-27.209 17.791,-29 20,-29 C22.209,-29 24,-27.209 24,-25 Z" fill="rgba(0,0,0,1)"/>
<path d="M44,12.5 C44,14.709 42.209,16.5 40,16.5 C37.791,16.5 36,14.709 36,12.5 C36,10.291 37.791,8.5 40,8.5 C42.209,8.5 44,10.291 44,12.5 Z" fill="rgba(0,0,0,1)"/>
<path d="M64,25 C64,27.209 62.209,29 60,29 C57.791,29 56,27.209 56,25 C56,22.791 57.791,21 60,21 C62.209,21 64,22.791 64,25 Z" fill="rgba(0,0,0,1)"/>
<path d="M84,31.25 C84,33.459 82.209,35.25 80,35.25 C77.791,35.25 76,33.459 76,31.25 C76,29.041 77.791,27.25 80,27.25 C82.209,27.25 84,29.041 84,31.25 Z" fill="rgba(0,0,0,1)"/>
<path d="M104,35 C104,37.209 102.209,39 100,39 C97.791,39 96,37.209 96,35 C96,32.791 97.791,31 100,31 C102.209,31 104,32.791 104,35 Z" fill="rgba(0,0,0,1)"/>
<path d="M124,37.5 C124,39.709 122.209,41.5 120,41.5 C117.791,41.5 116,39.709 116,37.5 C116,35.291 117.791,33.5 120,33.5 C122.209,33.5 124,35.291 124,37.5 Z" fill="rgba(0,0,0,1)"/>
<path d="M144,39.286 C144,41.495 142.209,43.286 140,43.286 C137.791,43.286 136,41.495 136,39.286 C136,37.077 137.791,35.286 140,35.286 C142.209,35.286 144,37.077 144,39.286 Z" fill="rgba(0,0,0,1)"/>
<path d="M164,40.625 C164,42.834 162.209,44.625 160,44.625 C157.791,44.625 156,42.834 156,40.625 C156,38.416 157.791,36.625 160,36.625 C162.209,36.625 164,38.416 164,40.625 Z" fill="rgba(0,0,0,1)"/>
<path d="M184,41.667 C184,43.876 182.209,45.667 180,45.667 C177.791,45.667 176,43.876 176,41.667 C176,39.458 177.791,37.667 180,37.667 C182.209,37.667 184,39.458 184,41.667 Z" fill="rgba(0,0,0,1)"/>
<text x="-120.688" y="-60" text-anchor="start" font-family="Verdana-Italic, Helvetica, Arial, sans-serif" font-size="24" fill="rgba(0,0,0,1)" transform="matrix(1 0 0 1 0 50)">y = 1/x</text>
</svg>