<svg xmlns="http://www.w3.org/2000/svg" viewBox="-278.46 -173.46 557.92 456.92">
<path d="M131.28,-48.26 L129.318,-53.621 L128.392,-55.752 L123.617,-65.665 L122.722,-67.359 L116.437,-77.704 L115.576,-78.963 L108.319,-88.667 L107.854,-89.248 L99.303,-98.656 L98.588,-99.365 L89.335,-107.775 L88.893,-108.15 L78.879,-115.639 L77.518,-116.55 L67.582,-122.587 L66.452,-123.224 L66.038,-123.437 L55.614,-128.459 L53.309,-129.432 L42.646,-133.335 L41.992,-133.554 L40.372,-134.03 L29.361,-136.861 L27.374,-137.284 L14.897,-139.188 L13.586,-139.314 L0,-140 L0,-120 L12.269,-119.38 L24.184,-117.562 L35.684,-114.605 L46.709,-110.57 L57.199,-105.517 L67.093,-99.506 L76.331,-92.598 L84.853,-84.853 L92.598,-76.331 L99.506,-67.093 L105.517,-57.199 L110.57,-46.709 L112.526,-41.366 Z" fill="rgba(255,254,177,1)" stroke="rgba(0,0,0,1)" stroke-width="0.5"/>
<path d="M139.98,0.389 L139.301,13.848 L139.177,14.969 L137.258,27.546 L136.889,29.251 L133.947,40.692 L133.802,41.196 L133.273,42.815 L129.408,53.373 L128.878,54.684 L128.54,55.445 L123.563,65.777 L122.752,67.309 L116.491,77.615 L115.713,78.78 L108.32,88.666 L107.677,89.442 L102.936,94.658 L88.231,81.136 L92.598,76.331 L99.506,67.093 L105.517,57.199 L110.57,46.709 L114.605,35.684 L117.562,24.184 L119.38,12.269 L120,0 L119.38,-12.269 L117.562,-24.184 L114.605,-35.684 L112.526,-41.366 L131.28,-48.26 L133.309,-42.715 L134,-40.488 L136.941,-29.05 L137.306,-27.227 L139.202,-14.804 L139.308,-13.697 L139.985,-0.294 Z" fill="rgba(223,245,146,1)" stroke="rgba(0,0,0,1)" stroke-width="0.5"/>
<path d="M102.936,94.658 L88.231,81.136 L84.853,84.853 L76.331,92.598 L67.093,99.506 L57.199,105.517 L46.709,110.57 L35.684,114.605 L24.184,117.562 L12.269,119.38 L0,120 L-12.269,119.38 L-24.184,117.562 L-27.028,116.831 L-31.532,136.303 L-29.223,136.897 L-27.506,137.264 L-14.905,139.187 L-13.927,139.297 L-0.189,139.99 L0.112,139.994 L14.031,139.291 L14.262,139.272 L14.664,139.224 L27.536,137.259 L27.924,137.187 L29.122,136.923 L40.633,133.963 L41.368,133.749 L42.766,133.291 L53.465,129.375 L54.405,128.996 L55.508,128.51 L65.922,123.493 L66.859,123.004 L67.382,122.708 L77.753,116.408 L78.545,115.889 L88.729,108.273 L89.239,107.862 L98.719,99.245 L99.175,98.796 Z" fill="rgba(181,234,116,1)" stroke="rgba(0,0,0,1)" stroke-width="0.5"/>
<path d="M-27.028,116.831 L-35.684,114.605 L-46.709,110.57 L-57.199,105.517 L-67.093,99.506 L-76.331,92.598 L-84.853,84.853 L-92.598,76.331 L-99.506,67.093 L-105.517,57.199 L-110.57,46.709 L-114.605,35.684 L-114.863,34.682 L-134.006,40.463 L-133.929,40.763 L-133.271,42.82 L-129.295,53.682 L-128.466,55.6 L-123.392,66.131 L-122.592,67.572 L-116.296,77.936 L-115.713,78.779 L-108.123,88.93 L-107.848,89.254 L-98.995,98.995 L-89.263,107.84 L-88.924,108.128 L-78.788,115.707 L-77.924,116.303 L-67.576,122.59 L-66.117,123.399 L-55.599,128.466 L-53.672,129.299 L-42.816,133.272 L-40.763,133.929 L-31.532,136.303 Z" fill="rgba(131,224,89,1)" stroke="rgba(0,0,0,1)" stroke-width="0.5"/>
<path d="M-92.598,-76.331 L-99.506,-67.093 L-105.517,-57.199 L-110.57,-46.709 L-114.605,-35.684 L-117.562,-24.184 L-119.38,-12.269 L-120,0 L-119.38,12.269 L-117.562,24.184 L-114.863,34.682 L-134.006,40.463 L-136.906,29.186 L-137.252,27.583 L-139.212,14.745 L-139.289,14.082 L-139.993,0.129 L-139.989,-0.209 L-139.3,-13.855 L-139.185,-14.92 L-137.285,-27.367 L-136.913,-29.159 L-133.983,-40.554 L-133.32,-42.686 L-129.393,-53.415 L-128.54,-55.446 L-123.528,-65.849 L-122.661,-67.46 L-116.46,-77.667 L-115.727,-78.761 L-108.32,-88.666 L-107.747,-89.365 L-103.735,-93.78 L-88.916,-80.383 Z" fill="rgba(75,214,64,1)" stroke="rgba(0,0,0,1)" stroke-width="0.5"/>
<path d="M-35.684,-114.605 L-46.709,-110.57 L-57.199,-105.517 L-67.093,-99.506 L-76.331,-92.598 L-84.853,-84.853 L-88.916,-80.383 L-103.735,-93.78 L-99.059,-98.925 L-98.938,-99.047 L-89.123,-107.967 L-88.945,-108.112 L-78.581,-115.862 L-77.904,-116.316 L-67.324,-122.743 L-66.173,-123.372 L-55.301,-128.609 L-54.56,-128.931 L-53.635,-129.313 L-42.435,-133.412 L-40.78,-133.925 L-35.303,-135.333 L-30.26,-116 Z" fill="rgba(40,204,66,1)" stroke="rgba(0,0,0,1)" stroke-width="0.5"/>
<path d="M0,-120 L0,-140 L-14.082,-139.289 L-14.486,-139.248 L-14.541,-139.243 L-27.655,-137.241 L-27.725,-137.227 L-28.793,-137.007 L-35.303,-135.333 L-30.26,-116 L-24.184,-117.562 L-12.269,-119.38 Z" fill="rgba(19,193,88,1)" stroke="rgba(0,0,0,1)" stroke-width="0.5"/>
<path d="M0,0 L0,-75 C15.35,-75 30.331,-70.29 42.919,-61.505 C55.508,-52.721 65.098,-40.286 70.394,-25.878 Z" fill="rgba(255,254,177,1)" stroke="rgba(0,0,0,1)" stroke-width="0.5"/>
<path d="M0,0 L55.206,50.767 C46.231,60.527 34.829,67.733 22.161,71.651 C9.494,75.569 -3.986,76.059 -16.904,73.07 Z" fill="rgba(181,234,116,1)" stroke="rgba(0,0,0,1)" stroke-width="0.5"/>
<path d="M0,0 L-16.904,73.07 C-29.768,70.094 -41.618,63.775 -51.257,54.751 C-60.896,45.728 -67.982,34.319 -71.798,21.679 Z" fill="rgba(131,224,89,1)" stroke="rgba(0,0,0,1)" stroke-width="0.5"/>
<path d="M0,0 L-71.798,21.679 C-75.534,9.306 -76.009,-3.822 -73.178,-16.433 C-70.346,-29.044 -64.303,-40.709 -55.635,-50.296 Z" fill="rgba(75,214,64,1)" stroke="rgba(0,0,0,1)" stroke-width="0.5"/>
<path d="M0,0 L-55.635,-50.296 C-50.76,-55.689 -45.126,-60.345 -38.911,-64.116 C-32.696,-67.888 -25.966,-70.736 -18.931,-72.571 Z" fill="rgba(40,204,66,1)" stroke="rgba(0,0,0,1)" stroke-width="0.5"/>
<path d="M0,0 L-18.931,-72.571 C-15.844,-73.377 -12.708,-73.984 -9.543,-74.39 C-6.378,-74.796 -3.191,-75 0,-75 Z" fill="rgba(19,193,88,1)" stroke="rgba(0,0,0,1)" stroke-width="0.5"/>
<path d="M-0.136,-9.999 L70.258,-35.877 C75.014,-22.94 76.112,-8.942 73.433,4.579 C70.754,18.1 64.4,30.621 55.07,40.768 Z" fill="rgba(223,245,146,1)" stroke="rgba(0,0,0,1)" stroke-width="0.5"/>
<path d="M-245,220 L-190.699,220 L-190.699,250 L-245,250 Z" fill="rgba(255,254,177,1)" stroke="rgba(0,0,0,1)" stroke-width="0.5"/>
<path d="M-190.699,220 L-141.866,220 L-141.866,250 L-190.699,250 Z" fill="rgba(223,245,146,1)" stroke="rgba(0,0,0,1)" stroke-width="0.5"/>
<path d="M-141.866,220 L-94.869,220 L-94.869,250 L-141.866,250 Z" fill="rgba(181,234,116,1)" stroke="rgba(0,0,0,1)" stroke-width="0.5"/>
<path d="M-94.869,220 L-48.068,220 L-48.068,250 L-94.869,250 Z" fill="rgba(131,224,89,1)" stroke="rgba(0,0,0,1)" stroke-width="0.5"/>
<path d="M-48.068,220 L-2.244,220 L-2.244,250 L-48.068,250 Z" fill="rgba(75,214,64,1)" stroke="rgba(0,0,0,1)" stroke-width="0.5"/>
<path d="M-2.244,220 L23.629,220 L23.629,250 L-2.244,250 Z" fill="rgba(40,204,66,1)" stroke="rgba(0,0,0,1)" stroke-width="0.5"/>
<path d="M23.629,220 L35,220 L35,250 L23.629,250 Z" fill="rgba(19,193,88,1)" stroke="rgba(0,0,0,1)" stroke-width="0.5"/>
<path d="M117,230.694 L127,230.694 L127,250 L117,250 Z" fill="rgba(255,254,177,1)" stroke="rgba(0,0,0,1)" stroke-width="0.5"/>
<path d="M117,213.145 L127,213.145 L127,230.694 L117,230.694 Z" fill="rgba(223,245,146,1)" stroke="rgba(0,0,0,1)" stroke-width="0.5"/>
<path d="M117,196.004 L127,196.004 L127,213.145 L117,213.145 Z" fill="rgba(181,234,116,1)" stroke="rgba(0,0,0,1)" stroke-width="0.5"/>
<path d="M117,179.095 L127,179.095 L127,196.004 L117,196.004 Z" fill="rgba(131,224,89,1)" stroke="rgba(0,0,0,1)" stroke-width="0.5"/>
<path d="M117,164.592 L127,164.592 L127,179.095 L117,179.095 Z" fill="rgba(75,214,64,1)" stroke="rgba(0,0,0,1)" stroke-width="0.5"/>
<path d="M117,152.539 L127,152.539 L127,164.592 L117,164.592 Z" fill="rgba(40,204,66,1)" stroke="rgba(0,0,0,1)" stroke-width="0.5"/>
<path d="M117,150 L127,150 L127,152.539 L117,152.539 Z" fill="rgba(19,193,88,1)" stroke="rgba(0,0,0,1)" stroke-width="0.5"/>
<path d="M134,231.05 L144,231.05 L144,250 L134,250 Z" fill="rgba(255,254,177,1)" stroke="rgba(0,0,0,1)" stroke-width="0.5"/>
<path d="M134,213.356 L144,213.356 L144,231.05 L134,231.05 Z" fill="rgba(223,245,146,1)" stroke="rgba(0,0,0,1)" stroke-width="0.5"/>
<path d="M134,196.663 L144,196.663 L144,213.356 L134,213.356 Z" fill="rgba(181,234,116,1)" stroke="rgba(0,0,0,1)" stroke-width="0.5"/>
<path d="M134,179.986 L144,179.986 L144,196.663 L134,196.663 Z" fill="rgba(131,224,89,1)" stroke="rgba(0,0,0,1)" stroke-width="0.5"/>
<path d="M134,166.47 L144,166.47 L144,179.986 L134,179.986 Z" fill="rgba(75,214,64,1)" stroke="rgba(0,0,0,1)" stroke-width="0.5"/>
<path d="M134,153.802 L144,153.802 L144,166.47 L134,166.47 Z" fill="rgba(40,204,66,1)" stroke="rgba(0,0,0,1)" stroke-width="0.5"/>
<path d="M134,150 L144,150 L144,153.802 L134,153.802 Z" fill="rgba(19,193,88,1)" stroke="rgba(0,0,0,1)" stroke-width="0.5"/>
<path d="M151,227.2 L161,227.2 L161,250 L151,250 Z" fill="rgba(255,254,177,1)" stroke="rgba(0,0,0,1)" stroke-width="0.5"/>
<path d="M151,205.959 L161,205.959 L161,227.2 L151,227.2 Z" fill="rgba(223,245,146,1)" stroke="rgba(0,0,0,1)" stroke-width="0.5"/>
<path d="M151,188.238 L161,188.238 L161,205.959 L151,205.959 Z" fill="rgba(181,234,116,1)" stroke="rgba(0,0,0,1)" stroke-width="0.5"/>
<path d="M151,172.637 L161,172.637 L161,188.238 L151,188.238 Z" fill="rgba(131,224,89,1)" stroke="rgba(0,0,0,1)" stroke-width="0.5"/>
<path d="M151,158.861 L161,158.861 L161,172.637 L151,172.637 Z" fill="rgba(75,214,64,1)" stroke="rgba(0,0,0,1)" stroke-width="0.5"/>
<path d="M151,151.472 L161,151.472 L161,158.861 L151,158.861 Z" fill="rgba(40,204,66,1)" stroke="rgba(0,0,0,1)" stroke-width="0.5"/>
<path d="M151,150 L161,150 L161,151.472 L151,151.472 Z" fill="rgba(19,193,88,1)" stroke="rgba(0,0,0,1)" stroke-width="0.5"/>
<path d="M168,229.963 L178,229.963 L178,250 L168,250 Z" fill="rgba(255,254,177,1)" stroke="rgba(0,0,0,1)" stroke-width="0.5"/>
<path d="M168,210.215 L178,210.215 L178,229.963 L168,229.963 Z" fill="rgba(223,245,146,1)" stroke="rgba(0,0,0,1)" stroke-width="0.5"/>
<path d="M168,192.344 L178,192.344 L178,210.215 L168,210.215 Z" fill="rgba(181,234,116,1)" stroke="rgba(0,0,0,1)" stroke-width="0.5"/>
<path d="M168,174.589 L178,174.589 L178,192.344 L168,192.344 Z" fill="rgba(131,224,89,1)" stroke="rgba(0,0,0,1)" stroke-width="0.5"/>
<path d="M168,161.769 L178,161.769 L178,174.589 L168,174.589 Z" fill="rgba(75,214,64,1)" stroke="rgba(0,0,0,1)" stroke-width="0.5"/>
<path d="M168,151.572 L178,151.572 L178,161.769 L168,161.769 Z" fill="rgba(40,204,66,1)" stroke="rgba(0,0,0,1)" stroke-width="0.5"/>
<path d="M168,150 L178,150 L178,151.572 L168,151.572 Z" fill="rgba(19,193,88,1)" stroke="rgba(0,0,0,1)" stroke-width="0.5"/>
<path d="M185,226.329 L195,226.329 L195,250 L185,250 Z" fill="rgba(255,254,177,1)" stroke="rgba(0,0,0,1)" stroke-width="0.5"/>
<path d="M185,205.545 L195,205.545 L195,226.329 L185,226.329 Z" fill="rgba(223,245,146,1)" stroke="rgba(0,0,0,1)" stroke-width="0.5"/>
<path d="M185,188.493 L195,188.493 L195,205.545 L185,205.545 Z" fill="rgba(181,234,116,1)" stroke="rgba(0,0,0,1)" stroke-width="0.5"/>
<path d="M185,175.426 L195,175.426 L195,188.493 L185,188.493 Z" fill="rgba(131,224,89,1)" stroke="rgba(0,0,0,1)" stroke-width="0.5"/>
<path d="M185,166.104 L195,166.104 L195,175.426 L185,175.426 Z" fill="rgba(75,214,64,1)" stroke="rgba(0,0,0,1)" stroke-width="0.5"/>
<path d="M185,157.833 L195,157.833 L195,166.104 L185,166.104 Z" fill="rgba(40,204,66,1)" stroke="rgba(0,0,0,1)" stroke-width="0.5"/>
<path d="M185,150 L195,150 L195,157.833 L185,157.833 Z" fill="rgba(19,193,88,1)" stroke="rgba(0,0,0,1)" stroke-width="0.5"/>
<path d="M202,227.793 L212,227.793 L212,250 L202,250 Z" fill="rgba(255,254,177,1)" stroke="rgba(0,0,0,1)" stroke-width="0.5"/>
<path d="M202,208.766 L212,208.766 L212,227.793 L202,227.793 Z" fill="rgba(223,245,146,1)" stroke="rgba(0,0,0,1)" stroke-width="0.5"/>
<path d="M202,191.931 L212,191.931 L212,208.766 L202,208.766 Z" fill="rgba(181,234,116,1)" stroke="rgba(0,0,0,1)" stroke-width="0.5"/>
<path d="M202,178.228 L212,178.228 L212,191.931 L202,191.931 Z" fill="rgba(131,224,89,1)" stroke="rgba(0,0,0,1)" stroke-width="0.5"/>
<path d="M202,164.567 L212,164.567 L212,178.228 L202,178.228 Z" fill="rgba(75,214,64,1)" stroke="rgba(0,0,0,1)" stroke-width="0.5"/>
<path d="M202,151.567 L212,151.567 L212,164.567 L202,164.567 Z" fill="rgba(40,204,66,1)" stroke="rgba(0,0,0,1)" stroke-width="0.5"/>
<path d="M202,150 L212,150 L212,151.567 L202,151.567 Z" fill="rgba(19,193,88,1)" stroke="rgba(0,0,0,1)" stroke-width="0.5"/>
<path d="M219,222.314 L229,222.314 L229,250 L219,250 Z" fill="rgba(255,254,177,1)" stroke="rgba(0,0,0,1)" stroke-width="0.5"/>
<path d="M219,197.343 L229,197.343 L229,222.314 L219,222.314 Z" fill="rgba(223,245,146,1)" stroke="rgba(0,0,0,1)" stroke-width="0.5"/>
<path d="M219,182.316 L229,182.316 L229,197.343 L219,197.343 Z" fill="rgba(181,234,116,1)" stroke="rgba(0,0,0,1)" stroke-width="0.5"/>
<path d="M219,170.221 L229,170.221 L229,182.316 L219,182.316 Z" fill="rgba(131,224,89,1)" stroke="rgba(0,0,0,1)" stroke-width="0.5"/>
<path d="M219,159.95 L229,159.95 L229,170.221 L219,170.221 Z" fill="rgba(75,214,64,1)" stroke="rgba(0,0,0,1)" stroke-width="0.5"/>
<path d="M219,153.403 L229,153.403 L229,159.95 L219,159.95 Z" fill="rgba(40,204,66,1)" stroke="rgba(0,0,0,1)" stroke-width="0.5"/>
<path d="M219,150 L229,150 L229,153.403 L219,153.403 Z" fill="rgba(19,193,88,1)" stroke="rgba(0,0,0,1)" stroke-width="0.5"/>
<path d="M236,228.509 L246,228.509 L246,250 L236,250 Z" fill="rgba(255,254,177,1)" stroke="rgba(0,0,0,1)" stroke-width="0.5"/>
<path d="M236,209.255 L246,209.255 L246,228.509 L236,228.509 Z" fill="rgba(223,245,146,1)" stroke="rgba(0,0,0,1)" stroke-width="0.5"/>
<path d="M236,190.856 L246,190.856 L246,209.255 L236,209.255 Z" fill="rgba(181,234,116,1)" stroke="rgba(0,0,0,1)" stroke-width="0.5"/>
<path d="M236,175.361 L246,175.361 L246,190.856 L236,190.856 Z" fill="rgba(131,224,89,1)" stroke="rgba(0,0,0,1)" stroke-width="0.5"/>
<path d="M236,165.329 L246,165.329 L246,175.361 L236,175.361 Z" fill="rgba(75,214,64,1)" stroke="rgba(0,0,0,1)" stroke-width="0.5"/>
<path d="M236,156.568 L246,156.568 L246,165.329 L236,165.329 Z" fill="rgba(40,204,66,1)" stroke="rgba(0,0,0,1)" stroke-width="0.5"/>
<path d="M236,150 L246,150 L246,156.568 L236,156.568 Z" fill="rgba(19,193,88,1)" stroke="rgba(0,0,0,1)" stroke-width="0.5"/>
</svg>