<svg xmlns="http://www.w3.org/2000/svg" viewBox="-183.58 -239.81 488.04 558.82">
<text x="-150.07500000000002" y="200" text-anchor="start" font-family="Verdana, Helvetica, Arial, sans-serif" font-size="450" fill="rgba(183,203,183,1)">&amp;</text>
<path d="M96,-41 L67,-124 L255.829,-182.101 L262,-184 L151,72" fill="rgba(0,0,0,0)" stroke="rgba(0,0,0,1)" stroke-width="1"/>
<path d="M87.957,-49.043 L104.043,-49.043 L104.043,-32.957 L87.957,-32.957 Z" fill="rgba(0,0,0,0)" stroke="rgba(0,0,255,1)" stroke-width="2.0107083333333335"/>
<path d="M58.957,-132.043 L75.043,-132.043 L75.043,-115.957 L58.957,-115.957 Z" fill="rgba(0,0,0,0)" stroke="rgba(0,0,255,1)" stroke-width="2.0107083333333335"/>
<path d="M247.786,-190.144 L263.871,-190.144 L263.871,-174.058 L247.786,-174.058 Z" fill="rgba(0,0,0,0)" stroke="rgba(0,0,255,1)" stroke-width="2.0107083333333335"/>
<path d="M253.957,-192.043 L270.043,-192.043 L270.043,-175.957 L253.957,-175.957 Z" fill="rgba(0,0,0,0)" stroke="rgba(0,0,255,1)" stroke-width="2.0107083333333335"/>
<path d="M142.957,63.957 L159.043,63.957 L159.043,80.043 L142.957,80.043 Z" fill="rgba(0,0,0,0)" stroke="rgba(0,0,255,1)" stroke-width="2.0107083333333335"/>
<text x="96" y="-51.72377777777778" text-anchor="start" font-family="Verdana, Helvetica, Arial, sans-serif" font-size="16.08566666666667" fill="rgba(0,0,255,1)">0</text>
<text x="67" y="-134.72377777777777" text-anchor="start" font-family="Verdana, Helvetica, Arial, sans-serif" font-size="16.08566666666667" fill="rgba(0,0,255,1)">1</text>
<text x="255.82862868800626" y="-192.82489429716432" text-anchor="start" font-family="Verdana, Helvetica, Arial, sans-serif" font-size="16.08566666666667" fill="rgba(0,0,255,1)">2</text>
<text x="262" y="-194.72377777777777" text-anchor="start" font-family="Verdana, Helvetica, Arial, sans-serif" font-size="16.08566666666667" fill="rgba(0,0,255,1)">3</text>
<text x="151" y="61.27622222222222" text-anchor="start" font-family="Verdana, Helvetica, Arial, sans-serif" font-size="16.08566666666667" fill="rgba(0,0,255,1)">4</text>
<path d="M82.333,-36.225 L85.256,-71.751 L109.667,-45.775 Z" fill="rgba(255,255,127,0.8705882352941177)" stroke="rgba(114,147,224,0.9098039215686274)" stroke-width="2.0107083333333335"/>
</svg>