<svg xmlns="http://www.w3.org/2000/svg" viewBox="-188.62 -129.78 377.24 359.56">
<path d="M-164.84,-106 L164.84,-106 L164.84,6 L-164.84,6 Z" fill="rgba(0,0,0,0)" stroke="rgba(0,0,0,1)" stroke-width="2"/>
<path d="M-164.84,-106 L164.84,-106 L164.84,-90 L-164.84,-90 Z" fill="rgba(246,246,246,1)"/>
<path d="M-164.84,-90 L164.84,-90 L164.84,-74 L-164.84,-74 Z" fill="rgba(255,255,255,1)"/>
<path d="M-164.84,-74 L164.84,-74 L164.84,-58 L-164.84,-58 Z" fill="rgba(243,246,250,1)"/>
<path d="M-164.84,-58 L164.84,-58 L164.84,-42 L-164.84,-42 Z" fill="rgba(255,255,255,1)"/>
<path d="M-164.84,-42 L164.84,-42 L164.84,-26 L-164.84,-26 Z" fill="rgba(243,246,250,1)"/>
<path d="M-164.84,-26 L164.84,-26 L164.84,-10 L-164.84,-10 Z" fill="rgba(255,255,255,1)"/>
<path d="M-164.84,-10 L164.84,-10 L164.84,6 L-164.84,6 Z" fill="rgba(243,246,250,1)"/>
<text x="0" y="0" text-anchor="start" font-family="Verdana-Bold, Helvetica, Arial, sans-serif" font-size="12" fill="rgba(0,0,0,1)" transform="matrix(0.8 0 0 0.8 -148.84 -95.45599999999999)">country</text>
<text x="0" y="0" text-anchor="start" font-family="Verdana, Helvetica, Arial, sans-serif" font-size="12" fill="rgba(0,0,0,1)" transform="matrix(0.8 0 0 0.8 -148.84 -79.45599999999999)">India</text>
<text x="0" y="0" text-anchor="start" font-family="Verdana, Helvetica, Arial, sans-serif" font-size="12" fill="rgba(0,0,0,1)" transform="matrix(0.8 0 0 0.8 -148.84 -63.456)">India</text>
<text x="0" y="0" text-anchor="start" font-family="Verdana, Helvetica, Arial, sans-serif" font-size="12" fill="rgba(0,0,0,1)" transform="matrix(0.8 0 0 0.8 -148.84 -47.45600000000002)">India</text>
<text x="0" y="0" text-anchor="start" font-family="Verdana, Helvetica, Arial, sans-serif" font-size="12" fill="rgba(0,0,0,1)" transform="matrix(0.8 0 0 0.8 -148.84 -31.456000000000017)">Brazil</text>
<text x="0" y="0" text-anchor="start" font-family="Verdana, Helvetica, Arial, sans-serif" font-size="12" fill="rgba(0,0,0,1)" transform="matrix(0.8 0 0 0.8 -148.84 -15.456000000000003)">Brazil</text>
<text x="0" y="0" text-anchor="start" font-family="Verdana, Helvetica, Arial, sans-serif" font-size="12" fill="rgba(0,0,0,1)" transform="matrix(0.8 0 0 0.8 -148.84 0.5439999999999898)">Brazil</text>
<text x="0" y="0" text-anchor="start" font-family="Verdana-Bold, Helvetica, Arial, sans-serif" font-size="12" fill="rgba(0,0,0,1)" transform="matrix(0.8 0 0 0.8 -85.3616 -95.45599999999999)">month</text>
<text x="0" y="0" text-anchor="start" font-family="Verdana, Helvetica, Arial, sans-serif" font-size="12" fill="rgba(0,0,0,1)" transform="matrix(0.8 0 0 0.8 -85.3616 -79.45599999999999)">January</text>
<text x="0" y="0" text-anchor="start" font-family="Verdana, Helvetica, Arial, sans-serif" font-size="12" fill="rgba(0,0,0,1)" transform="matrix(0.8 0 0 0.8 -85.3616 -63.456)">February</text>
<text x="0" y="0" text-anchor="start" font-family="Verdana, Helvetica, Arial, sans-serif" font-size="12" fill="rgba(0,0,0,1)" transform="matrix(0.8 0 0 0.8 -85.3616 -47.45600000000002)">March</text>
<text x="0" y="0" text-anchor="start" font-family="Verdana, Helvetica, Arial, sans-serif" font-size="12" fill="rgba(0,0,0,1)" transform="matrix(0.8 0 0 0.8 -85.3616 -31.456000000000017)">January</text>
<text x="0" y="0" text-anchor="start" font-family="Verdana, Helvetica, Arial, sans-serif" font-size="12" fill="rgba(0,0,0,1)" transform="matrix(0.8 0 0 0.8 -85.3616 -15.456000000000003)">February</text>
<text x="0" y="0" text-anchor="start" font-family="Verdana, Helvetica, Arial, sans-serif" font-size="12" fill="rgba(0,0,0,1)" transform="matrix(0.8 0 0 0.8 -85.3616 0.5439999999999898)">March</text>
<text x="0" y="0" text-anchor="start" font-family="Verdana-Bold, Helvetica, Arial, sans-serif" font-size="12" fill="rgba(0,0,0,1)" transform="matrix(0.8 0 0 0.8 -14.951999999999977 -95.45599999999999)">apples</text>
<text x="0" y="0" text-anchor="start" font-family="Verdana, Helvetica, Arial, sans-serif" font-size="12" fill="rgba(0,0,0,1)" transform="matrix(0.8 0 0 0.8 -14.951999999999977 -79.45599999999999)">650</text>
<text x="0" y="0" text-anchor="start" font-family="Verdana, Helvetica, Arial, sans-serif" font-size="12" fill="rgba(0,0,0,1)" transform="matrix(0.8 0 0 0.8 -14.951999999999977 -63.456)">494</text>
<text x="0" y="0" text-anchor="start" font-family="Verdana, Helvetica, Arial, sans-serif" font-size="12" fill="rgba(0,0,0,1)" transform="matrix(0.8 0 0 0.8 -14.951999999999977 -47.45600000000002)">347</text>
<text x="0" y="0" text-anchor="start" font-family="Verdana, Helvetica, Arial, sans-serif" font-size="12" fill="rgba(0,0,0,1)" transform="matrix(0.8 0 0 0.8 -14.951999999999977 -31.456000000000017)">230</text>
<text x="0" y="0" text-anchor="start" font-family="Verdana, Helvetica, Arial, sans-serif" font-size="12" fill="rgba(0,0,0,1)" transform="matrix(0.8 0 0 0.8 -14.951999999999977 -15.456000000000003)">32</text>
<text x="0" y="0" text-anchor="start" font-family="Verdana, Helvetica, Arial, sans-serif" font-size="12" fill="rgba(0,0,0,1)" transform="matrix(0.8 0 0 0.8 -14.951999999999977 0.5439999999999898)">171</text>
<text x="0" y="0" text-anchor="start" font-family="Verdana-Bold, Helvetica, Arial, sans-serif" font-size="12" fill="rgba(0,0,0,1)" transform="matrix(0.8 0 0 0.8 45.32960000000003 -95.45599999999999)">oranges</text>
<text x="0" y="0" text-anchor="start" font-family="Verdana, Helvetica, Arial, sans-serif" font-size="12" fill="rgba(0,0,0,1)" transform="matrix(0.8 0 0 0.8 45.32960000000003 -79.45599999999999)">358</text>
<text x="0" y="0" text-anchor="start" font-family="Verdana, Helvetica, Arial, sans-serif" font-size="12" fill="rgba(0,0,0,1)" transform="matrix(0.8 0 0 0.8 45.32960000000003 -63.456)">409</text>
<text x="0" y="0" text-anchor="start" font-family="Verdana, Helvetica, Arial, sans-serif" font-size="12" fill="rgba(0,0,0,1)" transform="matrix(0.8 0 0 0.8 45.32960000000003 -47.45600000000002)">262</text>
<text x="0" y="0" text-anchor="start" font-family="Verdana, Helvetica, Arial, sans-serif" font-size="12" fill="rgba(0,0,0,1)" transform="matrix(0.8 0 0 0.8 45.32960000000003 -31.456000000000017)">234</text>
<text x="0" y="0" text-anchor="start" font-family="Verdana, Helvetica, Arial, sans-serif" font-size="12" fill="rgba(0,0,0,1)" transform="matrix(0.8 0 0 0.8 45.32960000000003 -15.456000000000003)">159</text>
<text x="0" y="0" text-anchor="start" font-family="Verdana, Helvetica, Arial, sans-serif" font-size="12" fill="rgba(0,0,0,1)" transform="matrix(0.8 0 0 0.8 45.32960000000003 0.5439999999999898)">61</text>
<text x="0" y="0" text-anchor="start" font-family="Verdana-Bold, Helvetica, Arial, sans-serif" font-size="12" fill="rgba(0,0,0,1)" transform="matrix(0.8 0 0 0.8 112.01440000000001 -95.45599999999999)">bananas</text>
<text x="0" y="0" text-anchor="start" font-family="Verdana, Helvetica, Arial, sans-serif" font-size="12" fill="rgba(0,0,0,1)" transform="matrix(0.8 0 0 0.8 112.01440000000001 -79.45599999999999)">122</text>
<text x="0" y="0" text-anchor="start" font-family="Verdana, Helvetica, Arial, sans-serif" font-size="12" fill="rgba(0,0,0,1)" transform="matrix(0.8 0 0 0.8 112.01440000000001 -63.456)">133</text>
<text x="0" y="0" text-anchor="start" font-family="Verdana, Helvetica, Arial, sans-serif" font-size="12" fill="rgba(0,0,0,1)" transform="matrix(0.8 0 0 0.8 112.01440000000001 -47.45600000000002)">134</text>
<text x="0" y="0" text-anchor="start" font-family="Verdana, Helvetica, Arial, sans-serif" font-size="12" fill="rgba(0,0,0,1)" transform="matrix(0.8 0 0 0.8 112.01440000000001 -31.456000000000017)">116</text>
<text x="0" y="0" text-anchor="start" font-family="Verdana, Helvetica, Arial, sans-serif" font-size="12" fill="rgba(0,0,0,1)" transform="matrix(0.8 0 0 0.8 112.01440000000001 -15.456000000000003)">55</text>
<text x="0" y="0" text-anchor="start" font-family="Verdana, Helvetica, Arial, sans-serif" font-size="12" fill="rgba(0,0,0,1)" transform="matrix(0.8 0 0 0.8 112.01440000000001 0.5439999999999898)">31</text>
<path d="M-30,-106 L100.4,-106 L100.4,6 L-30,6 Z" fill="rgba(0,202,255,0.22745098039215686)"/>
<path d="M8,22 L8,54 L20.8,54 L0,78 L-20.8,54 L-8,54 L-8,22 Z" fill="rgba(255,255,255,1)" stroke="rgba(0,0,0,1)" stroke-width="1"/>
<path d="M-101.357,94 L101.357,94 L101.357,206 L-101.357,206 Z" fill="rgba(0,0,0,0)" stroke="rgba(0,0,0,1)" stroke-width="2"/>
<path d="M-101.357,94 L101.357,94 L101.357,110 L-101.357,110 Z" fill="rgba(246,246,246,1)"/>
<path d="M-101.357,110 L101.357,110 L101.357,126 L-101.357,126 Z" fill="rgba(255,255,255,1)"/>
<path d="M-101.357,126 L101.357,126 L101.357,142 L-101.357,142 Z" fill="rgba(243,246,250,1)"/>
<path d="M-101.357,142 L101.357,142 L101.357,158 L-101.357,158 Z" fill="rgba(255,255,255,1)"/>
<path d="M-101.357,158 L101.357,158 L101.357,174 L-101.357,174 Z" fill="rgba(243,246,250,1)"/>
<path d="M-101.357,174 L101.357,174 L101.357,190 L-101.357,190 Z" fill="rgba(255,255,255,1)"/>
<path d="M-101.357,190 L101.357,190 L101.357,206 L-101.357,206 Z" fill="rgba(243,246,250,1)"/>
<text x="0" y="0" text-anchor="start" font-family="Verdana-Bold, Helvetica, Arial, sans-serif" font-size="12" fill="rgba(0,0,0,1)" transform="matrix(0.8 0 0 0.8 -85.3568 104.54400000000001)">country</text>
<text x="0" y="0" text-anchor="start" font-family="Verdana, Helvetica, Arial, sans-serif" font-size="12" fill="rgba(0,0,0,1)" transform="matrix(0.8 0 0 0.8 -85.3568 120.54400000000001)">India</text>
<text x="0" y="0" text-anchor="start" font-family="Verdana, Helvetica, Arial, sans-serif" font-size="12" fill="rgba(0,0,0,1)" transform="matrix(0.8 0 0 0.8 -85.3568 136.544)">India</text>
<text x="0" y="0" text-anchor="start" font-family="Verdana, Helvetica, Arial, sans-serif" font-size="12" fill="rgba(0,0,0,1)" transform="matrix(0.8 0 0 0.8 -85.3568 152.544)">India</text>
<text x="0" y="0" text-anchor="start" font-family="Verdana, Helvetica, Arial, sans-serif" font-size="12" fill="rgba(0,0,0,1)" transform="matrix(0.8 0 0 0.8 -85.3568 168.544)">Brazil</text>
<text x="0" y="0" text-anchor="start" font-family="Verdana, Helvetica, Arial, sans-serif" font-size="12" fill="rgba(0,0,0,1)" transform="matrix(0.8 0 0 0.8 -85.3568 184.544)">Brazil</text>
<text x="0" y="0" text-anchor="start" font-family="Verdana, Helvetica, Arial, sans-serif" font-size="12" fill="rgba(0,0,0,1)" transform="matrix(0.8 0 0 0.8 -85.3568 200.544)">Brazil</text>
<text x="0" y="0" text-anchor="start" font-family="Verdana-Bold, Helvetica, Arial, sans-serif" font-size="12" fill="rgba(0,0,0,1)" transform="matrix(0.8 0 0 0.8 -21.8784 104.54400000000001)">month</text>
<text x="0" y="0" text-anchor="start" font-family="Verdana, Helvetica, Arial, sans-serif" font-size="12" fill="rgba(0,0,0,1)" transform="matrix(0.8 0 0 0.8 -21.8784 120.54400000000001)">January</text>
<text x="0" y="0" text-anchor="start" font-family="Verdana, Helvetica, Arial, sans-serif" font-size="12" fill="rgba(0,0,0,1)" transform="matrix(0.8 0 0 0.8 -21.8784 136.544)">February</text>
<text x="0" y="0" text-anchor="start" font-family="Verdana, Helvetica, Arial, sans-serif" font-size="12" fill="rgba(0,0,0,1)" transform="matrix(0.8 0 0 0.8 -21.8784 152.544)">March</text>
<text x="0" y="0" text-anchor="start" font-family="Verdana, Helvetica, Arial, sans-serif" font-size="12" fill="rgba(0,0,0,1)" transform="matrix(0.8 0 0 0.8 -21.8784 168.544)">January</text>
<text x="0" y="0" text-anchor="start" font-family="Verdana, Helvetica, Arial, sans-serif" font-size="12" fill="rgba(0,0,0,1)" transform="matrix(0.8 0 0 0.8 -21.8784 184.544)">February</text>
<text x="0" y="0" text-anchor="start" font-family="Verdana, Helvetica, Arial, sans-serif" font-size="12" fill="rgba(0,0,0,1)" transform="matrix(0.8 0 0 0.8 -21.8784 200.544)">March</text>
<text x="0" y="0" text-anchor="start" font-family="Verdana-Bold, Helvetica, Arial, sans-serif" font-size="12" fill="rgba(0,0,0,1)" transform="matrix(0.8 0 0 0.8 48.53120000000001 104.54400000000001)">bananas</text>
<text x="0" y="0" text-anchor="start" font-family="Verdana, Helvetica, Arial, sans-serif" font-size="12" fill="rgba(0,0,0,1)" transform="matrix(0.8 0 0 0.8 48.53120000000001 120.54400000000001)">122</text>
<text x="0" y="0" text-anchor="start" font-family="Verdana, Helvetica, Arial, sans-serif" font-size="12" fill="rgba(0,0,0,1)" transform="matrix(0.8 0 0 0.8 48.53120000000001 136.544)">133</text>
<text x="0" y="0" text-anchor="start" font-family="Verdana, Helvetica, Arial, sans-serif" font-size="12" fill="rgba(0,0,0,1)" transform="matrix(0.8 0 0 0.8 48.53120000000001 152.544)">134</text>
<text x="0" y="0" text-anchor="start" font-family="Verdana, Helvetica, Arial, sans-serif" font-size="12" fill="rgba(0,0,0,1)" transform="matrix(0.8 0 0 0.8 48.53120000000001 168.544)">116</text>
<text x="0" y="0" text-anchor="start" font-family="Verdana, Helvetica, Arial, sans-serif" font-size="12" fill="rgba(0,0,0,1)" transform="matrix(0.8 0 0 0.8 48.53120000000001 184.544)">55</text>
<text x="0" y="0" text-anchor="start" font-family="Verdana, Helvetica, Arial, sans-serif" font-size="12" fill="rgba(0,0,0,1)" transform="matrix(0.8 0 0 0.8 48.53120000000001 200.544)">31</text>
</svg>