<svg xmlns="http://www.w3.org/2000/svg" viewBox="-288.48 -142.85 576.96 385.69">
<path d="M-250,175 L-245,174.939 L-240,174.892 L-235,174.843 L-230,174.796 L-225,174.756 L-220,174.73 L-215,174.727 L-210,174.752 L-205,174.814 L-200,174.915 L-195,175.059 L-190,175.241 L-185,175.456 L-180,175.688 L-175,175.918 L-170,176.119 L-165,176.26 L-160,176.307 L-155,176.223 L-150,175.977 L-145,175.543 L-140,174.91 L-135,174.085 L-130,173.098 L-125,172.008 L-120,170.901 L-115,169.896 L-110,169.137 L-105,168.787 L-100,169.015 L-95,169.982 L-90,171.815 L-85,174.587 L-80,178.291 L-75,182.813 L-70,187.911 L-65,193.204 L-60,198.166 L-55,202.138 L-50,204.365 L-45,204.041 L-40,200.387 L-35,192.744 L-30,180.687 L-25,164.147 L-20,143.528 L-15,119.817 L-10,94.662 L-5,70.397 L0,50 L5,29.603 L10,5.338 L15,-19.817 L20,-43.528 L25,-64.147 L30,-80.687 L35,-92.744 L40,-100.387 L45,-104.041 L50,-104.365 L55,-102.138 L60,-98.166 L65,-93.204 L70,-87.911 L75,-82.813 L80,-78.291 L85,-74.587 L90,-71.815 L95,-69.982 L100,-69.015 L105,-68.787 L110,-69.137 L115,-69.896 L120,-70.901 L125,-72.008 L130,-73.098 L135,-74.085 L140,-74.91 L145,-75.543 L150,-75.977 L155,-76.223 L160,-76.307 L165,-76.26 L170,-76.119 L175,-75.918 L180,-75.688 L185,-75.456 L190,-75.241 L195,-75.059 L200,-74.915 L205,-74.814 L210,-74.752 L215,-74.727 L220,-74.73 L225,-74.756 L230,-74.796 L235,-74.843 L240,-74.892 L245,-74.939 L250,-75" fill="rgba(0,0,0,0)" stroke="rgba(189,0,41,1)" stroke-width="3"/>
<path d="M-246,175 C-246,177.209 -247.791,179 -250,179 C-252.209,179 -254,177.209 -254,175 C-254,172.791 -252.209,171 -250,171 C-247.791,171 -246,172.791 -246,175 Z" fill="rgba(255,0,0,0.5019607843137255)" stroke="rgba(189,0,41,1)" stroke-width="1"/>
<path d="M-226,174.796 C-226,177.005 -227.791,178.796 -230,178.796 C-232.209,178.796 -234,177.005 -234,174.796 C-234,172.587 -232.209,170.796 -230,170.796 C-227.791,170.796 -226,172.587 -226,174.796 Z" fill="rgba(255,0,0,0.5019607843137255)" stroke="rgba(189,0,41,1)" stroke-width="1"/>
<path d="M-206,174.752 C-206,176.962 -207.791,178.752 -210,178.752 C-212.209,178.752 -214,176.962 -214,174.752 C-214,172.543 -212.209,170.752 -210,170.752 C-207.791,170.752 -206,172.543 -206,174.752 Z" fill="rgba(255,0,0,0.5019607843137255)" stroke="rgba(189,0,41,1)" stroke-width="1"/>
<path d="M-186,175.241 C-186,177.451 -187.791,179.241 -190,179.241 C-192.209,179.241 -194,177.451 -194,175.241 C-194,173.032 -192.209,171.241 -190,171.241 C-187.791,171.241 -186,173.032 -186,175.241 Z" fill="rgba(255,0,0,0.5019607843137255)" stroke="rgba(189,0,41,1)" stroke-width="1"/>
<path d="M-166,176.119 C-166,178.328 -167.791,180.119 -170,180.119 C-172.209,180.119 -174,178.328 -174,176.119 C-174,173.91 -172.209,172.119 -170,172.119 C-167.791,172.119 -166,173.91 -166,176.119 Z" fill="rgba(255,0,0,0.5019607843137255)" stroke="rgba(189,0,41,1)" stroke-width="1"/>
<path d="M-146,175.977 C-146,178.186 -147.791,179.977 -150,179.977 C-152.209,179.977 -154,178.186 -154,175.977 C-154,173.767 -152.209,171.977 -150,171.977 C-147.791,171.977 -146,173.767 -146,175.977 Z" fill="rgba(255,0,0,0.5019607843137255)" stroke="rgba(189,0,41,1)" stroke-width="1"/>
<path d="M-126,173.098 C-126,175.308 -127.791,177.098 -130,177.098 C-132.209,177.098 -134,175.308 -134,173.098 C-134,170.889 -132.209,169.098 -130,169.098 C-127.791,169.098 -126,170.889 -126,173.098 Z" fill="rgba(255,0,0,0.5019607843137255)" stroke="rgba(189,0,41,1)" stroke-width="1"/>
<path d="M-106,169.137 C-106,171.346 -107.791,173.137 -110,173.137 C-112.209,173.137 -114,171.346 -114,169.137 C-114,166.928 -112.209,165.137 -110,165.137 C-107.791,165.137 -106,166.928 -106,169.137 Z" fill="rgba(255,0,0,0.5019607843137255)" stroke="rgba(189,0,41,1)" stroke-width="1"/>
<path d="M-86,171.815 C-86,174.024 -87.791,175.815 -90,175.815 C-92.209,175.815 -94,174.024 -94,171.815 C-94,169.605 -92.209,167.815 -90,167.815 C-87.791,167.815 -86,169.605 -86,171.815 Z" fill="rgba(255,0,0,0.5019607843137255)" stroke="rgba(189,0,41,1)" stroke-width="1"/>
<path d="M-66,187.911 C-66,190.12 -67.791,191.911 -70,191.911 C-72.209,191.911 -74,190.12 -74,187.911 C-74,185.702 -72.209,183.911 -70,183.911 C-67.791,183.911 -66,185.702 -66,187.911 Z" fill="rgba(255,0,0,0.5019607843137255)" stroke="rgba(189,0,41,1)" stroke-width="1"/>
<path d="M-46,204.365 C-46,206.575 -47.791,208.365 -50,208.365 C-52.209,208.365 -54,206.575 -54,204.365 C-54,202.156 -52.209,200.365 -50,200.365 C-47.791,200.365 -46,202.156 -46,204.365 Z" fill="rgba(255,0,0,0.5019607843137255)" stroke="rgba(189,0,41,1)" stroke-width="1"/>
<path d="M-26,180.687 C-26,182.896 -27.791,184.687 -30,184.687 C-32.209,184.687 -34,182.896 -34,180.687 C-34,178.478 -32.209,176.687 -30,176.687 C-27.791,176.687 -26,178.478 -26,180.687 Z" fill="rgba(255,0,0,0.5019607843137255)" stroke="rgba(189,0,41,1)" stroke-width="1"/>
<path d="M-6,94.662 C-6,96.872 -7.791,98.662 -10,98.662 C-12.209,98.662 -14,96.872 -14,94.662 C-14,92.453 -12.209,90.662 -10,90.662 C-7.791,90.662 -6,92.453 -6,94.662 Z" fill="rgba(255,0,0,0.5019607843137255)" stroke="rgba(189,0,41,1)" stroke-width="1"/>
<path d="M14,5.338 C14,7.547 12.209,9.338 10,9.338 C7.791,9.338 6,7.547 6,5.338 C6,3.128 7.791,1.338 10,1.338 C12.209,1.338 14,3.128 14,5.338 Z" fill="rgba(255,0,0,0.5019607843137255)" stroke="rgba(189,0,41,1)" stroke-width="1"/>
<path d="M34,-80.687 C34,-78.478 32.209,-76.687 30,-76.687 C27.791,-76.687 26,-78.478 26,-80.687 C26,-82.896 27.791,-84.687 30,-84.687 C32.209,-84.687 34,-82.896 34,-80.687 Z" fill="rgba(255,0,0,0.5019607843137255)" stroke="rgba(189,0,41,1)" stroke-width="1"/>
<path d="M54,-104.365 C54,-102.156 52.209,-100.365 50,-100.365 C47.791,-100.365 46,-102.156 46,-104.365 C46,-106.575 47.791,-108.365 50,-108.365 C52.209,-108.365 54,-106.575 54,-104.365 Z" fill="rgba(255,0,0,0.5019607843137255)" stroke="rgba(189,0,41,1)" stroke-width="1"/>
<path d="M74,-87.911 C74,-85.702 72.209,-83.911 70,-83.911 C67.791,-83.911 66,-85.702 66,-87.911 C66,-90.12 67.791,-91.911 70,-91.911 C72.209,-91.911 74,-90.12 74,-87.911 Z" fill="rgba(255,0,0,0.5019607843137255)" stroke="rgba(189,0,41,1)" stroke-width="1"/>
<path d="M94,-71.815 C94,-69.605 92.209,-67.815 90,-67.815 C87.791,-67.815 86,-69.605 86,-71.815 C86,-74.024 87.791,-75.815 90,-75.815 C92.209,-75.815 94,-74.024 94,-71.815 Z" fill="rgba(255,0,0,0.5019607843137255)" stroke="rgba(189,0,41,1)" stroke-width="1"/>
<path d="M114,-69.137 C114,-66.928 112.209,-65.137 110,-65.137 C107.791,-65.137 106,-66.928 106,-69.137 C106,-71.346 107.791,-73.137 110,-73.137 C112.209,-73.137 114,-71.346 114,-69.137 Z" fill="rgba(255,0,0,0.5019607843137255)" stroke="rgba(189,0,41,1)" stroke-width="1"/>
<path d="M134,-73.098 C134,-70.889 132.209,-69.098 130,-69.098 C127.791,-69.098 126,-70.889 126,-73.098 C126,-75.308 127.791,-77.098 130,-77.098 C132.209,-77.098 134,-75.308 134,-73.098 Z" fill="rgba(255,0,0,0.5019607843137255)" stroke="rgba(189,0,41,1)" stroke-width="1"/>
<path d="M154,-75.977 C154,-73.767 152.209,-71.977 150,-71.977 C147.791,-71.977 146,-73.767 146,-75.977 C146,-78.186 147.791,-79.977 150,-79.977 C152.209,-79.977 154,-78.186 154,-75.977 Z" fill="rgba(255,0,0,0.5019607843137255)" stroke="rgba(189,0,41,1)" stroke-width="1"/>
<path d="M174,-76.119 C174,-73.91 172.209,-72.119 170,-72.119 C167.791,-72.119 166,-73.91 166,-76.119 C166,-78.328 167.791,-80.119 170,-80.119 C172.209,-80.119 174,-78.328 174,-76.119 Z" fill="rgba(255,0,0,0.5019607843137255)" stroke="rgba(189,0,41,1)" stroke-width="1"/>
<path d="M194,-75.241 C194,-73.032 192.209,-71.241 190,-71.241 C187.791,-71.241 186,-73.032 186,-75.241 C186,-77.451 187.791,-79.241 190,-79.241 C192.209,-79.241 194,-77.451 194,-75.241 Z" fill="rgba(255,0,0,0.5019607843137255)" stroke="rgba(189,0,41,1)" stroke-width="1"/>
<path d="M214,-74.752 C214,-72.543 212.209,-70.752 210,-70.752 C207.791,-70.752 206,-72.543 206,-74.752 C206,-76.962 207.791,-78.752 210,-78.752 C212.209,-78.752 214,-76.962 214,-74.752 Z" fill="rgba(255,0,0,0.5019607843137255)" stroke="rgba(189,0,41,1)" stroke-width="1"/>
<path d="M234,-74.796 C234,-72.587 232.209,-70.796 230,-70.796 C227.791,-70.796 226,-72.587 226,-74.796 C226,-77.005 227.791,-78.796 230,-78.796 C232.209,-78.796 234,-77.005 234,-74.796 Z" fill="rgba(255,0,0,0.5019607843137255)" stroke="rgba(189,0,41,1)" stroke-width="1"/>
<path d="M254,-75 C254,-72.791 252.209,-71 250,-71 C247.791,-71 246,-72.791 246,-75 C246,-77.209 247.791,-79 250,-79 C252.209,-79 254,-77.209 254,-75 Z" fill="rgba(255,0,0,0.5019607843137255)" stroke="rgba(189,0,41,1)" stroke-width="1"/>
<path d="M-250,175 L-230,167 L-210,159 L-190,151 L-170,143 L-150,135 L-130,127 L-110,119 L-90,111 L-70,103 L-50,95 L-30,87 L-10,79 L10,71 L30,63 L50,55 L70,47 L90,39 L110,31 L130,23 L150,15 L170,7 L190,-1 L210,-9 L230,-17 L250,-25" fill="none" stroke="rgba(0,0,0,1)" stroke-width="1"/>
<path d="M-250,175 L-250,175" fill="none" stroke="rgba(0,0,0,1)" stroke-width="1"/>
<path d="M-230,167 L-230,174.796" fill="none" stroke="rgba(0,0,0,1)" stroke-width="1"/>
<path d="M-210,159 L-210,174.752" fill="none" stroke="rgba(0,0,0,1)" stroke-width="1"/>
<path d="M-190,151 L-190,175.241" fill="none" stroke="rgba(0,0,0,1)" stroke-width="1"/>
<path d="M-170,143 L-170,176.119" fill="none" stroke="rgba(0,0,0,1)" stroke-width="1"/>
<path d="M-150,135 L-150,175.977" fill="none" stroke="rgba(0,0,0,1)" stroke-width="1"/>
<path d="M-130,127 L-130,173.098" fill="none" stroke="rgba(0,0,0,1)" stroke-width="1"/>
<path d="M-110,119 L-110,169.137" fill="none" stroke="rgba(0,0,0,1)" stroke-width="1"/>
<path d="M-90,111 L-90,171.815" fill="none" stroke="rgba(0,0,0,1)" stroke-width="1"/>
<path d="M-70,103 L-70,187.911" fill="none" stroke="rgba(0,0,0,1)" stroke-width="1"/>
<path d="M-50,95 L-50,204.365" fill="none" stroke="rgba(0,0,0,1)" stroke-width="1"/>
<path d="M-30,87 L-30,180.687" fill="none" stroke="rgba(0,0,0,1)" stroke-width="1"/>
<path d="M-10,79 L-10,94.662" fill="none" stroke="rgba(0,0,0,1)" stroke-width="1"/>
<path d="M10,71 L10,5.338" fill="none" stroke="rgba(0,0,0,1)" stroke-width="1"/>
<path d="M30,63 L30,-80.687" fill="none" stroke="rgba(0,0,0,1)" stroke-width="1"/>
<path d="M50,55 L50,-104.365" fill="none" stroke="rgba(0,0,0,1)" stroke-width="1"/>
<path d="M70,47 L70,-87.911" fill="none" stroke="rgba(0,0,0,1)" stroke-width="1"/>
<path d="M90,39 L90,-71.815" fill="none" stroke="rgba(0,0,0,1)" stroke-width="1"/>
<path d="M110,31 L110,-69.137" fill="none" stroke="rgba(0,0,0,1)" stroke-width="1"/>
<path d="M130,23 L130,-73.098" fill="none" stroke="rgba(0,0,0,1)" stroke-width="1"/>
<path d="M150,15 L150,-75.977" fill="none" stroke="rgba(0,0,0,1)" stroke-width="1"/>
<path d="M170,7 L170,-76.119" fill="none" stroke="rgba(0,0,0,1)" stroke-width="1"/>
<path d="M190,-1 L190,-75.241" fill="none" stroke="rgba(0,0,0,1)" stroke-width="1"/>
<path d="M210,-9 L210,-74.752" fill="none" stroke="rgba(0,0,0,1)" stroke-width="1"/>
<path d="M230,-17 L230,-74.796" fill="none" stroke="rgba(0,0,0,1)" stroke-width="1"/>
<path d="M250,-25 L250,-75" fill="none" stroke="rgba(0,0,0,1)" stroke-width="1"/>
<path d="M-246,175 C-246,177.209 -247.791,179 -250,179 C-252.209,179 -254,177.209 -254,175 C-254,172.791 -252.209,171 -250,171 C-247.791,171 -246,172.791 -246,175 Z" fill="rgba(0,0,0,1)"/>
<path d="M-226,167 C-226,169.209 -227.791,171 -230,171 C-232.209,171 -234,169.209 -234,167 C-234,164.791 -232.209,163 -230,163 C-227.791,163 -226,164.791 -226,167 Z" fill="rgba(0,0,0,1)"/>
<path d="M-206,159 C-206,161.209 -207.791,163 -210,163 C-212.209,163 -214,161.209 -214,159 C-214,156.791 -212.209,155 -210,155 C-207.791,155 -206,156.791 -206,159 Z" fill="rgba(0,0,0,1)"/>
<path d="M-186,151 C-186,153.209 -187.791,155 -190,155 C-192.209,155 -194,153.209 -194,151 C-194,148.791 -192.209,147 -190,147 C-187.791,147 -186,148.791 -186,151 Z" fill="rgba(0,0,0,1)"/>
<path d="M-166,143 C-166,145.209 -167.791,147 -170,147 C-172.209,147 -174,145.209 -174,143 C-174,140.791 -172.209,139 -170,139 C-167.791,139 -166,140.791 -166,143 Z" fill="rgba(0,0,0,1)"/>
<path d="M-146,135 C-146,137.209 -147.791,139 -150,139 C-152.209,139 -154,137.209 -154,135 C-154,132.791 -152.209,131 -150,131 C-147.791,131 -146,132.791 -146,135 Z" fill="rgba(0,0,0,1)"/>
<path d="M-126,127 C-126,129.209 -127.791,131 -130,131 C-132.209,131 -134,129.209 -134,127 C-134,124.791 -132.209,123 -130,123 C-127.791,123 -126,124.791 -126,127 Z" fill="rgba(0,0,0,1)"/>
<path d="M-106,119 C-106,121.209 -107.791,123 -110,123 C-112.209,123 -114,121.209 -114,119 C-114,116.791 -112.209,115 -110,115 C-107.791,115 -106,116.791 -106,119 Z" fill="rgba(0,0,0,1)"/>
<path d="M-86,111 C-86,113.209 -87.791,115 -90,115 C-92.209,115 -94,113.209 -94,111 C-94,108.791 -92.209,107 -90,107 C-87.791,107 -86,108.791 -86,111 Z" fill="rgba(0,0,0,1)"/>
<path d="M-66,103 C-66,105.209 -67.791,107 -70,107 C-72.209,107 -74,105.209 -74,103 C-74,100.791 -72.209,99 -70,99 C-67.791,99 -66,100.791 -66,103 Z" fill="rgba(0,0,0,1)"/>
<path d="M-46,95 C-46,97.209 -47.791,99 -50,99 C-52.209,99 -54,97.209 -54,95 C-54,92.791 -52.209,91 -50,91 C-47.791,91 -46,92.791 -46,95 Z" fill="rgba(0,0,0,1)"/>
<path d="M-26,87 C-26,89.209 -27.791,91 -30,91 C-32.209,91 -34,89.209 -34,87 C-34,84.791 -32.209,83 -30,83 C-27.791,83 -26,84.791 -26,87 Z" fill="rgba(0,0,0,1)"/>
<path d="M-6,79 C-6,81.209 -7.791,83 -10,83 C-12.209,83 -14,81.209 -14,79 C-14,76.791 -12.209,75 -10,75 C-7.791,75 -6,76.791 -6,79 Z" fill="rgba(0,0,0,1)"/>
<path d="M14,71 C14,73.209 12.209,75 10,75 C7.791,75 6,73.209 6,71 C6,68.791 7.791,67 10,67 C12.209,67 14,68.791 14,71 Z" fill="rgba(0,0,0,1)"/>
<path d="M34,63 C34,65.209 32.209,67 30,67 C27.791,67 26,65.209 26,63 C26,60.791 27.791,59 30,59 C32.209,59 34,60.791 34,63 Z" fill="rgba(0,0,0,1)"/>
<path d="M54,55 C54,57.209 52.209,59 50,59 C47.791,59 46,57.209 46,55 C46,52.791 47.791,51 50,51 C52.209,51 54,52.791 54,55 Z" fill="rgba(0,0,0,1)"/>
<path d="M74,47 C74,49.209 72.209,51 70,51 C67.791,51 66,49.209 66,47 C66,44.791 67.791,43 70,43 C72.209,43 74,44.791 74,47 Z" fill="rgba(0,0,0,1)"/>
<path d="M94,39 C94,41.209 92.209,43 90,43 C87.791,43 86,41.209 86,39 C86,36.791 87.791,35 90,35 C92.209,35 94,36.791 94,39 Z" fill="rgba(0,0,0,1)"/>
<path d="M114,31 C114,33.209 112.209,35 110,35 C107.791,35 106,33.209 106,31 C106,28.791 107.791,27 110,27 C112.209,27 114,28.791 114,31 Z" fill="rgba(0,0,0,1)"/>
<path d="M134,23 C134,25.209 132.209,27 130,27 C127.791,27 126,25.209 126,23 C126,20.791 127.791,19 130,19 C132.209,19 134,20.791 134,23 Z" fill="rgba(0,0,0,1)"/>
<path d="M154,15 C154,17.209 152.209,19 150,19 C147.791,19 146,17.209 146,15 C146,12.791 147.791,11 150,11 C152.209,11 154,12.791 154,15 Z" fill="rgba(0,0,0,1)"/>
<path d="M174,7 C174,9.209 172.209,11 170,11 C167.791,11 166,9.209 166,7 C166,4.791 167.791,3 170,3 C172.209,3 174,4.791 174,7 Z" fill="rgba(0,0,0,1)"/>
<path d="M194,-1 C194,1.209 192.209,3 190,3 C187.791,3 186,1.209 186,-1 C186,-3.209 187.791,-5 190,-5 C192.209,-5 194,-3.209 194,-1 Z" fill="rgba(0,0,0,1)"/>
<path d="M214,-9 C214,-6.791 212.209,-5 210,-5 C207.791,-5 206,-6.791 206,-9 C206,-11.209 207.791,-13 210,-13 C212.209,-13 214,-11.209 214,-9 Z" fill="rgba(0,0,0,1)"/>
<path d="M234,-17 C234,-14.791 232.209,-13 230,-13 C227.791,-13 226,-14.791 226,-17 C226,-19.209 227.791,-21 230,-21 C232.209,-21 234,-19.209 234,-17 Z" fill="rgba(0,0,0,1)"/>
<path d="M254,-25 C254,-22.791 252.209,-21 250,-21 C247.791,-21 246,-22.791 246,-25 C246,-27.209 247.791,-29 250,-29 C252.209,-29 254,-27.209 254,-25 Z" fill="rgba(0,0,0,1)"/>
</svg>