<svg xmlns="http://www.w3.org/2000/svg" viewBox="-231.33 -59.36 462.66 283.51">
<path d="M-194.971,187.5 C-194.971,189.709 -196.762,191.5 -198.971,191.5 C-201.18,191.5 -202.971,189.709 -202.971,187.5 C-202.971,185.291 -201.18,183.5 -198.971,183.5 C-196.762,183.5 -194.971,185.291 -194.971,187.5 Z" fill="rgba(92,92,92,1)"/>
<path d="M-191.981,173.756 C-191.981,175.966 -193.772,177.756 -195.981,177.756 C-198.19,177.756 -199.981,175.966 -199.981,173.756 C-199.981,171.547 -198.19,169.756 -195.981,169.756 C-193.772,169.756 -191.981,171.547 -191.981,173.756 Z" fill="rgba(92,92,92,1)"/>
<path d="M-188.991,160.013 C-188.991,162.222 -190.782,164.013 -192.991,164.013 C-195.2,164.013 -196.991,162.222 -196.991,160.013 C-196.991,157.804 -195.2,156.013 -192.991,156.013 C-190.782,156.013 -188.991,157.804 -188.991,160.013 Z" fill="rgba(92,92,92,1)"/>
<path d="M-186.001,146.269 C-186.001,148.479 -187.792,150.269 -190.001,150.269 C-192.21,150.269 -194.001,148.479 -194.001,146.269 C-194.001,144.06 -192.21,142.269 -190.001,142.269 C-187.792,142.269 -186.001,144.06 -186.001,146.269 Z" fill="rgba(92,92,92,1)"/>
<path d="M-182.862,132.561 C-182.862,134.77 -184.653,136.561 -186.862,136.561 C-189.071,136.561 -190.862,134.77 -190.862,132.561 C-190.862,130.351 -189.071,128.561 -186.862,128.561 C-184.653,128.561 -182.862,130.351 -182.862,132.561 Z" fill="rgba(92,92,92,1)"/>
<path d="M-179.438,118.919 C-179.438,121.128 -181.229,122.919 -183.438,122.919 C-185.647,122.919 -187.438,121.128 -187.438,118.919 C-187.438,116.71 -185.647,114.919 -183.438,114.919 C-181.229,114.919 -179.438,116.71 -179.438,118.919 Z" fill="rgba(92,92,92,1)"/>
<path d="M-176.013,105.277 C-176.013,107.486 -177.804,109.277 -180.013,109.277 C-182.222,109.277 -184.013,107.486 -184.013,105.277 C-184.013,103.068 -182.222,101.277 -180.013,101.277 C-177.804,101.277 -176.013,103.068 -176.013,105.277 Z" fill="rgba(92,92,92,1)"/>
<path d="M-172.503,91.659 C-172.503,93.868 -174.294,95.659 -176.503,95.659 C-178.713,95.659 -180.503,93.868 -180.503,91.659 C-180.503,89.449 -178.713,87.659 -176.503,87.659 C-174.294,87.659 -172.503,89.449 -172.503,91.659 Z" fill="rgba(92,92,92,1)"/>
<path d="M-168.503,78.174 C-168.503,80.384 -170.294,82.174 -172.503,82.174 C-174.712,82.174 -176.503,80.384 -176.503,78.174 C-176.503,75.965 -174.712,74.174 -172.503,74.174 C-170.294,74.174 -168.503,75.965 -168.503,78.174 Z" fill="rgba(92,92,92,1)"/>
<path d="M-164.503,64.69 C-164.503,66.899 -166.294,68.69 -168.503,68.69 C-170.712,68.69 -172.503,66.899 -172.503,64.69 C-172.503,62.481 -170.712,60.69 -168.503,60.69 C-166.294,60.69 -164.503,62.481 -164.503,64.69 Z" fill="rgba(92,92,92,1)"/>
<path d="M-160.173,51.314 C-160.173,53.524 -161.964,55.314 -164.173,55.314 C-166.383,55.314 -168.173,53.524 -168.173,51.314 C-168.173,49.105 -166.383,47.314 -164.173,47.314 C-161.964,47.314 -160.173,49.105 -160.173,51.314 Z" fill="rgba(92,92,92,1)"/>
<path d="M-155.379,38.092 C-155.379,40.301 -157.17,42.092 -159.379,42.092 C-161.588,42.092 -163.379,40.301 -163.379,38.092 C-163.379,35.883 -161.588,34.092 -159.379,34.092 C-157.17,34.092 -155.379,35.883 -155.379,38.092 Z" fill="rgba(92,92,92,1)"/>
<path d="M-150.432,24.932 C-150.432,27.141 -152.223,28.932 -154.432,28.932 C-156.641,28.932 -158.432,27.141 -158.432,24.932 C-158.432,22.723 -156.641,20.932 -154.432,20.932 C-152.223,20.932 -150.432,22.723 -150.432,24.932 Z" fill="rgba(92,92,92,1)"/>
<path d="M-144.489,12.184 C-144.489,14.394 -146.28,16.184 -148.489,16.184 C-150.698,16.184 -152.489,14.394 -152.489,12.184 C-152.489,9.975 -150.698,8.184 -148.489,8.184 C-146.28,8.184 -144.489,9.975 -144.489,12.184 Z" fill="rgba(92,92,92,1)"/>
<path d="M-138.036,-0.28 C-138.036,1.929 -139.827,3.72 -142.036,3.72 C-144.245,3.72 -146.036,1.929 -146.036,-0.28 C-146.036,-2.489 -144.245,-4.28 -142.036,-4.28 C-139.827,-4.28 -138.036,-2.489 -138.036,-0.28 Z" fill="rgba(92,92,92,1)"/>
<path d="M-130.348,-12.058 C-130.348,-9.849 -132.139,-8.058 -134.348,-8.058 C-136.557,-8.058 -138.348,-9.849 -138.348,-12.058 C-138.348,-14.267 -136.557,-16.058 -134.348,-16.058 C-132.139,-16.058 -130.348,-14.267 -130.348,-12.058 Z" fill="rgba(92,92,92,1)"/>
<path d="M-120.341,-21.872 C-120.341,-19.662 -122.132,-17.872 -124.341,-17.872 C-126.551,-17.872 -128.341,-19.662 -128.341,-21.872 C-128.341,-24.081 -126.551,-25.872 -124.341,-25.872 C-122.132,-25.872 -120.341,-24.081 -120.341,-21.872 Z" fill="rgba(92,92,92,1)"/>
<path d="M-107.471,-27 C-107.471,-24.791 -109.262,-23 -111.471,-23 C-113.68,-23 -115.471,-24.791 -115.471,-27 C-115.471,-29.209 -113.68,-31 -111.471,-31 C-109.262,-31 -107.471,-29.209 -107.471,-27 Z" fill="rgba(92,92,92,1)"/>
<path d="M-94.601,-21.872 C-94.601,-19.662 -96.392,-17.872 -98.601,-17.872 C-100.81,-17.872 -102.601,-19.662 -102.601,-21.872 C-102.601,-24.081 -100.81,-25.872 -98.601,-25.872 C-96.392,-25.872 -94.601,-24.081 -94.601,-21.872 Z" fill="rgba(92,92,92,1)"/>
<path d="M-84.594,-12.058 C-84.594,-9.849 -86.385,-8.058 -88.594,-8.058 C-90.803,-8.058 -92.594,-9.849 -92.594,-12.058 C-92.594,-14.267 -90.803,-16.058 -88.594,-16.058 C-86.385,-16.058 -84.594,-14.267 -84.594,-12.058 Z" fill="rgba(92,92,92,1)"/>
<path d="M-76.906,-0.28 C-76.906,1.929 -78.697,3.72 -80.906,3.72 C-83.115,3.72 -84.906,1.929 -84.906,-0.28 C-84.906,-2.489 -83.115,-4.28 -80.906,-4.28 C-78.697,-4.28 -76.906,-2.489 -76.906,-0.28 Z" fill="rgba(92,92,92,1)"/>
<path d="M-70.453,12.184 C-70.453,14.394 -72.244,16.184 -74.453,16.184 C-76.662,16.184 -78.453,14.394 -78.453,12.184 C-78.453,9.975 -76.662,8.184 -74.453,8.184 C-72.244,8.184 -70.453,9.975 -70.453,12.184 Z" fill="rgba(92,92,92,1)"/>
<path d="M-64.51,24.932 C-64.51,27.141 -66.301,28.932 -68.51,28.932 C-70.719,28.932 -72.51,27.141 -72.51,24.932 C-72.51,22.723 -70.719,20.932 -68.51,20.932 C-66.301,20.932 -64.51,22.723 -64.51,24.932 Z" fill="rgba(92,92,92,1)"/>
<path d="M-59.563,38.092 C-59.563,40.301 -61.354,42.092 -63.563,42.092 C-65.772,42.092 -67.563,40.301 -67.563,38.092 C-67.563,35.883 -65.772,34.092 -63.563,34.092 C-61.354,34.092 -59.563,35.883 -59.563,38.092 Z" fill="rgba(92,92,92,1)"/>
<path d="M-54.769,51.314 C-54.769,53.524 -56.56,55.314 -58.769,55.314 C-60.978,55.314 -62.769,53.524 -62.769,51.314 C-62.769,49.105 -60.978,47.314 -58.769,47.314 C-56.56,47.314 -54.769,49.105 -54.769,51.314 Z" fill="rgba(92,92,92,1)"/>
<path d="M-50.439,64.69 C-50.439,66.899 -52.23,68.69 -54.439,68.69 C-56.649,68.69 -58.439,66.899 -58.439,64.69 C-58.439,62.481 -56.649,60.69 -54.439,60.69 C-52.23,60.69 -50.439,62.481 -50.439,64.69 Z" fill="rgba(92,92,92,1)"/>
<path d="M-46.439,78.174 C-46.439,80.384 -48.23,82.174 -50.439,82.174 C-52.648,82.174 -54.439,80.384 -54.439,78.174 C-54.439,75.965 -52.648,74.174 -50.439,74.174 C-48.23,74.174 -46.439,75.965 -46.439,78.174 Z" fill="rgba(92,92,92,1)"/>
<path d="M-42.439,91.659 C-42.439,93.868 -44.23,95.659 -46.439,95.659 C-48.648,95.659 -50.439,93.868 -50.439,91.659 C-50.439,89.449 -48.648,87.659 -46.439,87.659 C-44.23,87.659 -42.439,89.449 -42.439,91.659 Z" fill="rgba(92,92,92,1)"/>
<path d="M-38.929,105.277 C-38.929,107.486 -40.72,109.277 -42.929,109.277 C-45.138,109.277 -46.929,107.486 -46.929,105.277 C-46.929,103.068 -45.138,101.277 -42.929,101.277 C-40.72,101.277 -38.929,103.068 -38.929,105.277 Z" fill="rgba(92,92,92,1)"/>
<path d="M-35.504,118.919 C-35.504,121.128 -37.295,122.919 -39.504,122.919 C-41.714,122.919 -43.504,121.128 -43.504,118.919 C-43.504,116.71 -41.714,114.919 -39.504,114.919 C-37.295,114.919 -35.504,116.71 -35.504,118.919 Z" fill="rgba(92,92,92,1)"/>
<path d="M-32.08,132.561 C-32.08,134.77 -33.871,136.561 -36.08,136.561 C-38.289,136.561 -40.08,134.77 -40.08,132.561 C-40.08,130.351 -38.289,128.561 -36.08,128.561 C-33.871,128.561 -32.08,130.351 -32.08,132.561 Z" fill="rgba(92,92,92,1)"/>
<path d="M-28.941,146.269 C-28.941,148.479 -30.732,150.269 -32.941,150.269 C-35.15,150.269 -36.941,148.479 -36.941,146.269 C-36.941,144.06 -35.15,142.269 -32.941,142.269 C-30.732,142.269 -28.941,144.06 -28.941,146.269 Z" fill="rgba(92,92,92,1)"/>
<path d="M-25.951,160.013 C-25.951,162.222 -27.742,164.013 -29.951,164.013 C-32.16,164.013 -33.951,162.222 -33.951,160.013 C-33.951,157.804 -32.16,156.013 -29.951,156.013 C-27.742,156.013 -25.951,157.804 -25.951,160.013 Z" fill="rgba(92,92,92,1)"/>
<path d="M-22.961,173.756 C-22.961,175.966 -24.752,177.756 -26.961,177.756 C-29.17,177.756 -30.961,175.966 -30.961,173.756 C-30.961,171.547 -29.17,169.756 -26.961,169.756 C-24.752,169.756 -22.961,171.547 -22.961,173.756 Z" fill="rgba(92,92,92,1)"/>
<path d="M-19.971,187.5 C-19.971,189.709 -21.762,191.5 -23.971,191.5 C-26.18,191.5 -27.971,189.709 -27.971,187.5 C-27.971,185.291 -26.18,183.5 -23.971,183.5 C-21.762,183.5 -19.971,185.291 -19.971,187.5 Z" fill="rgba(92,92,92,1)"/>
<path d="M63.029,187.5 C63.029,189.709 61.238,191.5 59.029,191.5 C56.82,191.5 55.029,189.709 55.029,187.5 C55.029,185.291 56.82,183.5 59.029,183.5 C61.238,183.5 63.029,185.291 63.029,187.5 Z" fill="rgba(250,0,0,1)"/>
<path d="M64.917,178.822 C64.917,181.031 63.126,182.822 60.917,182.822 C58.708,182.822 56.917,181.031 56.917,178.822 C56.917,176.613 58.708,174.822 60.917,174.822 C63.126,174.822 64.917,176.613 64.917,178.822 Z" fill="rgba(250,0,0,1)"/>
<path d="M67.822,165.471 C67.822,167.68 66.031,169.471 63.822,169.471 C61.612,169.471 59.822,167.68 59.822,165.471 C59.822,163.262 61.612,161.471 63.822,161.471 C66.031,161.471 67.822,163.262 67.822,165.471 Z" fill="rgba(250,0,0,1)"/>
<path d="M70.726,152.12 C70.726,154.329 68.935,156.12 66.726,156.12 C64.517,156.12 62.726,154.329 62.726,152.12 C62.726,149.911 64.517,148.12 66.726,148.12 C68.935,148.12 70.726,149.911 70.726,152.12 Z" fill="rgba(250,0,0,1)"/>
<path d="M73.631,138.769 C73.631,140.978 71.84,142.769 69.631,142.769 C67.422,142.769 65.631,140.978 65.631,138.769 C65.631,136.56 67.422,134.769 69.631,134.769 C71.84,134.769 73.631,136.56 73.631,138.769 Z" fill="rgba(250,0,0,1)"/>
<path d="M76.909,125.506 C76.909,127.715 75.118,129.506 72.909,129.506 C70.7,129.506 68.909,127.715 68.909,125.506 C68.909,123.297 70.7,121.506 72.909,121.506 C75.118,121.506 76.909,123.297 76.909,125.506 Z" fill="rgba(250,0,0,1)"/>
<path d="M80.235,112.254 C80.235,114.463 78.444,116.254 76.235,116.254 C74.026,116.254 72.235,114.463 72.235,112.254 C72.235,110.045 74.026,108.254 76.235,108.254 C78.444,108.254 80.235,110.045 80.235,112.254 Z" fill="rgba(250,0,0,1)"/>
<path d="M83.562,99.002 C83.562,101.211 81.771,103.002 79.562,103.002 C77.353,103.002 75.562,101.211 75.562,99.002 C75.562,96.793 77.353,95.002 79.562,95.002 C81.771,95.002 83.562,96.793 83.562,99.002 Z" fill="rgba(250,0,0,1)"/>
<path d="M87.222,85.841 C87.222,88.05 85.432,89.841 83.222,89.841 C81.013,89.841 79.222,88.05 79.222,85.841 C79.222,83.632 81.013,81.841 83.222,81.841 C85.432,81.841 87.222,83.632 87.222,85.841 Z" fill="rgba(250,0,0,1)"/>
<path d="M91.109,72.742 C91.109,74.951 89.318,76.742 87.109,76.742 C84.899,76.742 83.109,74.951 83.109,72.742 C83.109,70.533 84.899,68.742 87.109,68.742 C89.318,68.742 91.109,70.533 91.109,72.742 Z" fill="rgba(250,0,0,1)"/>
<path d="M94.995,59.643 C94.995,61.853 93.204,63.643 90.995,63.643 C88.785,63.643 86.995,61.853 86.995,59.643 C86.995,57.434 88.785,55.643 90.995,55.643 C93.204,55.643 94.995,57.434 94.995,59.643 Z" fill="rgba(250,0,0,1)"/>
<path d="M99.484,46.743 C99.484,48.952 97.693,50.743 95.484,50.743 C93.275,50.743 91.484,48.952 91.484,46.743 C91.484,44.534 93.275,42.743 95.484,42.743 C97.693,42.743 99.484,44.534 99.484,46.743 Z" fill="rgba(250,0,0,1)"/>
<path d="M104.142,33.898 C104.142,36.108 102.351,37.898 100.142,37.898 C97.932,37.898 96.142,36.108 96.142,33.898 C96.142,31.689 97.932,29.898 100.142,29.898 C102.351,29.898 104.142,31.689 104.142,33.898 Z" fill="rgba(250,0,0,1)"/>
<path d="M109.283,21.254 C109.283,23.463 107.492,25.254 105.283,25.254 C103.074,25.254 101.283,23.463 101.283,21.254 C101.283,19.044 103.074,17.254 105.283,17.254 C107.492,17.254 109.283,19.044 109.283,21.254 Z" fill="rgba(250,0,0,1)"/>
<path d="M115.056,8.87 C115.056,11.079 113.265,12.87 111.056,12.87 C108.847,12.87 107.056,11.079 107.056,8.87 C107.056,6.661 108.847,4.87 111.056,4.87 C113.265,4.87 115.056,6.661 115.056,8.87 Z" fill="rgba(250,0,0,1)"/>
<path d="M121.743,-3.006 C121.743,-0.797 119.952,0.994 117.743,0.994 C115.534,0.994 113.743,-0.797 113.743,-3.006 C113.743,-5.215 115.534,-7.006 117.743,-7.006 C119.952,-7.006 121.743,-5.215 121.743,-3.006 Z" fill="rgba(250,0,0,1)"/>
<path d="M129.404,-14.284 C129.404,-12.075 127.614,-10.284 125.404,-10.284 C123.195,-10.284 121.404,-12.075 121.404,-14.284 C121.404,-16.493 123.195,-18.284 125.404,-18.284 C127.614,-18.284 129.404,-16.493 129.404,-14.284 Z" fill="rgba(250,0,0,1)"/>
<path d="M139.463,-23.531 C139.463,-21.321 137.672,-19.531 135.463,-19.531 C133.254,-19.531 131.463,-21.321 131.463,-23.531 C131.463,-25.74 133.254,-27.531 135.463,-27.531 C137.672,-27.531 139.463,-25.74 139.463,-23.531 Z" fill="rgba(250,0,0,1)"/>
<path d="M152.488,-26.4 C152.488,-24.19 150.698,-22.4 148.488,-22.4 C146.279,-22.4 144.488,-24.19 144.488,-26.4 C144.488,-28.609 146.279,-30.4 148.488,-30.4 C150.698,-30.4 152.488,-28.609 152.488,-26.4 Z" fill="rgba(250,0,0,1)"/>
<path d="M164.612,-20.756 C164.612,-18.547 162.821,-16.756 160.612,-16.756 C158.403,-16.756 156.612,-18.547 156.612,-20.756 C156.612,-22.966 158.403,-24.756 160.612,-24.756 C162.821,-24.756 164.612,-22.966 164.612,-20.756 Z" fill="rgba(250,0,0,1)"/>
<path d="M174.087,-11.015 C174.087,-8.806 172.296,-7.015 170.087,-7.015 C167.878,-7.015 166.087,-8.806 166.087,-11.015 C166.087,-13.224 167.878,-15.015 170.087,-15.015 C172.296,-15.015 174.087,-13.224 174.087,-11.015 Z" fill="rgba(250,0,0,1)"/>
<path d="M181.555,0.427 C181.555,2.636 179.764,4.427 177.555,4.427 C175.346,4.427 173.555,2.636 173.555,0.427 C173.555,-1.782 175.346,-3.573 177.555,-3.573 C179.764,-3.573 181.555,-1.782 181.555,0.427 Z" fill="rgba(250,0,0,1)"/>
<path d="M187.734,12.585 C187.734,14.794 185.943,16.585 183.734,16.585 C181.524,16.585 179.734,14.794 179.734,12.585 C179.734,10.376 181.524,8.585 183.734,8.585 C185.943,8.585 187.734,10.376 187.734,12.585 Z" fill="rgba(250,0,0,1)"/>
<path d="M193.507,24.969 C193.507,27.178 191.716,28.969 189.507,28.969 C187.298,28.969 185.507,27.178 185.507,24.969 C185.507,22.76 187.298,20.969 189.507,20.969 C191.716,20.969 193.507,22.76 193.507,24.969 Z" fill="rgba(250,0,0,1)"/>
<path d="M198.314,37.752 C198.314,39.961 196.523,41.752 194.314,41.752 C192.104,41.752 190.314,39.961 190.314,37.752 C190.314,35.543 192.104,33.752 194.314,33.752 C196.523,33.752 198.314,35.543 198.314,37.752 Z" fill="rgba(250,0,0,1)"/>
<path d="M202.971,50.597 C202.971,52.806 201.18,54.597 198.971,54.597 C196.762,54.597 194.971,52.806 194.971,50.597 C194.971,48.388 196.762,46.597 198.971,46.597 C201.18,46.597 202.971,48.388 202.971,50.597 Z" fill="rgba(250,0,0,1)"/>
<path d="M0,0 C0,0 0,0 0,0 C0,0 0,0 0,0 C0,0 0,0 0,0 C0,0 0,0 0,0 Z" fill="rgba(250,0,0,1)"/>
<path d="M0,0 C0,0 0,0 0,0 C0,0 0,0 0,0 C0,0 0,0 0,0 C0,0 0,0 0,0 Z" fill="rgba(250,0,0,1)"/>
<path d="M0,0 C0,0 0,0 0,0 C0,0 0,0 0,0 C0,0 0,0 0,0 C0,0 0,0 0,0 Z" fill="rgba(250,0,0,1)"/>
<path d="M0,0 C0,0 0,0 0,0 C0,0 0,0 0,0 C0,0 0,0 0,0 C0,0 0,0 0,0 Z" fill="rgba(250,0,0,1)"/>
<path d="M0,0 C0,0 0,0 0,0 C0,0 0,0 0,0 C0,0 0,0 0,0 C0,0 0,0 0,0 Z" fill="rgba(250,0,0,1)"/>
<path d="M0,0 C0,0 0,0 0,0 C0,0 0,0 0,0 C0,0 0,0 0,0 C0,0 0,0 0,0 Z" fill="rgba(250,0,0,1)"/>
<path d="M0,0 C0,0 0,0 0,0 C0,0 0,0 0,0 C0,0 0,0 0,0 C0,0 0,0 0,0 Z" fill="rgba(250,0,0,1)"/>
<path d="M0,0 C0,0 0,0 0,0 C0,0 0,0 0,0 C0,0 0,0 0,0 C0,0 0,0 0,0 Z" fill="rgba(250,0,0,1)"/>
<path d="M0,0 C0,0 0,0 0,0 C0,0 0,0 0,0 C0,0 0,0 0,0 C0,0 0,0 0,0 Z" fill="rgba(250,0,0,1)"/>
<text x="-173.12" y="192" text-anchor="start" font-family="Verdana, Helvetica, Arial, sans-serif" font-size="20" fill="rgba(0,0,0,1)">resample</text>
<text x="69.53" y="192" text-anchor="start" font-family="Verdana, Helvetica, Arial, sans-serif" font-size="20" fill="rgba(0,0,0,1)">even_sample</text>
</svg>