<svg xmlns="http://www.w3.org/2000/svg" viewBox="-290.66 -137.67 580.32 378.33">
<path d="M-250,200 L-249,200 L-248,200 L-247,200 L-246,200 L-245,200 L-244,200 L-243,200 L-242,200 L-241,200 L-240,200 L-239,200 L-238,200 L-237,200 L-236,200 L-235,200 L-234,200 L-233,200 L-232,200 L-231,200 L-230,200 L-229,200 L-228,200 L-227,200 L-226,200 L-225,200 L-224,200 L-223,200 L-222,200 L-221,200 L-220,200 L-219,200 L-218,200 L-217,200 L-216,200 L-215,200 L-214,199.999 L-213,199.999 L-212,199.999 L-211,199.999 L-210,199.999 L-209,199.999 L-208,199.999 L-207,199.999 L-206,199.998 L-205,199.998 L-204,199.998 L-203,199.998 L-202,199.998 L-201,199.997 L-200,199.997 L-199,199.997 L-198,199.996 L-197,199.996 L-196,199.996 L-195,199.995 L-194,199.995 L-193,199.994 L-192,199.994 L-191,199.993 L-190,199.993 L-189,199.992 L-188,199.991 L-187,199.99 L-186,199.99 L-185,199.989 L-184,199.988 L-183,199.987 L-182,199.986 L-181,199.985 L-180,199.984 L-179,199.983 L-178,199.981 L-177,199.98 L-176,199.979 L-175,199.977 L-174,199.976 L-173,199.974 L-172,199.972 L-171,199.97 L-170,199.969 L-169,199.966 L-168,199.964 L-167,199.962 L-166,199.96 L-165,199.957 L-164,199.955 L-163,199.952 L-162,199.949 L-161,199.946 L-160,199.943 L-159,199.94 L-158,199.937 L-157,199.933 L-156,199.929 L-155,199.926 L-154,199.922 L-153,199.918 L-152,199.913 L-151,199.909 L-150,199.904 L-149,199.899 L-148,199.894 L-147,199.889 L-146,199.883 L-145,199.877 L-144,199.871 L-143,199.865 L-142,199.859 L-141,199.852 L-140,199.845 L-139,199.838 L-138,199.831 L-137,199.823 L-136,199.815 L-135,199.807 L-134,199.798 L-133,199.79 L-132,199.78 L-131,199.771 L-130,199.761 L-129,199.751 L-128,199.74 L-127,199.73 L-126,199.719 L-125,199.707 L-124,199.695 L-123,199.683 L-122,199.67 L-121,199.657 L-120,199.644 L-119,199.63 L-118,199.615 L-117,199.601 L-116,199.585 L-115,199.57 L-114,199.553 L-113,199.537 L-112,199.519 L-111,199.502 L-110,199.484 L-109,199.465 L-108,199.446 L-107,199.426 L-106,199.406 L-105,199.385 L-104,199.363 L-103,199.341 L-102,199.318 L-101,199.295 L-100,199.271 L-99,199.246 L-98,199.221 L-97,199.195 L-96,199.168 L-95,199.141 L-94,199.113 L-93,199.084 L-92,199.055 L-91,199.024 L-90,198.993 L-89,198.962 L-88,198.929 L-87,198.895 L-86,198.861 L-85,198.826 L-84,198.79 L-83,198.753 L-82,198.715 L-81,198.677 L-80,198.637 L-79,198.596 L-78,198.555 L-77,198.512 L-76,198.469 L-75,198.424 L-74,198.379 L-73,198.332 L-72,198.285 L-71,198.236 L-70,198.186 L-69,198.135 L-68,198.083 L-67,198.03 L-66,197.975 L-65,197.92 L-64,197.863 L-63,197.805 L-62,197.745 L-61,197.685 L-60,197.623 L-59,197.56 L-58,197.495 L-57,197.429 L-56,197.362 L-55,197.293 L-54,197.223 L-53,197.152 L-52,197.079 L-51,197.004 L-50,196.928 L-49,196.85 L-48,196.771 L-47,196.691 L-46,196.608 L-45,196.524 L-44,196.439 L-43,196.351 L-42,196.262 L-41,196.172 L-40,196.079 L-39,195.985 L-38,195.889 L-37,195.791 L-36,195.691 L-35,195.59 L-34,195.486 L-33,195.381 L-32,195.273 L-31,195.164 L-30,195.053 L-29,194.939 L-28,194.823 L-27,194.706 L-26,194.586 L-25,194.464 L-24,194.34 L-23,194.214 L-22,194.085 L-21,193.954 L-20,193.821 L-19,193.686 L-18,193.548 L-17,193.407 L-16,193.265 L-15,193.12 L-14,192.972 L-13,192.822 L-12,192.669 L-11,192.514 L-10,192.356 L-9,192.195 L-8,192.032 L-7,191.866 L-6,191.697 L-5,191.526 L-4,191.351 L-3,191.174 L-2,190.994 L-1,190.811 L0,190.625 L1,190.436 L2,190.244 L3,190.049 L4,189.851 L5,189.649 L6,189.445 L7,189.237 L8,189.026 L9,188.811 L10,188.594 L11,188.373 L12,188.148 L13,187.921 L14,187.689 L15,187.454 L16,187.216 L17,186.974 L18,186.728 L19,186.478 L20,186.225 L21,185.968 L22,185.707 L23,185.443 L24,185.174 L25,184.901 L26,184.625 L27,184.344 L28,184.06 L29,183.771 L30,183.478 L31,183.181 L32,182.88 L33,182.574 L34,182.264 L35,181.949 L36,181.63 L37,181.307 L38,180.979 L39,180.647 L40,180.309 L41,179.968 L42,179.621 L43,179.269 L44,178.913 L45,178.552 L46,178.186 L47,177.815 L48,177.439 L49,177.058 L50,176.672 L51,176.281 L52,175.884 L53,175.482 L54,175.075 L55,174.662 L56,174.244 L57,173.82 L58,173.391 L59,172.957 L60,172.516 L61,172.07 L62,171.618 L63,171.16 L64,170.697 L65,170.227 L66,169.751 L67,169.27 L68,168.782 L69,168.288 L70,167.788 L71,167.281 L72,166.769 L73,166.249 L74,165.724 L75,165.191 L76,164.653 L77,164.107 L78,163.555 L79,162.996 L80,162.43 L81,161.857 L82,161.278 L83,160.691 L84,160.097 L85,159.496 L86,158.888 L87,158.273 L88,157.65 L89,157.02 L90,156.382 L91,155.737 L92,155.084 L93,154.423 L94,153.755 L95,153.079 L96,152.395 L97,151.703 L98,151.003 L99,150.295 L100,149.579 L101,148.855 L102,148.122 L103,147.381 L104,146.631 L105,145.873 L106,145.106 L107,144.331 L108,143.547 L109,142.754 L110,141.952 L111,141.142 L112,140.322 L113,139.493 L114,138.655 L115,137.808 L116,136.951 L117,136.085 L118,135.21 L119,134.325 L120,133.43 L121,132.525 L122,131.611 L123,130.687 L124,129.753 L125,128.809 L126,127.854 L127,126.89 L128,125.915 L129,124.93 L130,123.934 L131,122.928 L132,121.911 L133,120.884 L134,119.846 L135,118.796 L136,117.736 L137,116.665 L138,115.583 L139,114.49 L140,113.385 L141,112.269 L142,111.141 L143,110.002 L144,108.851 L145,107.688 L146,106.514 L147,105.328 L148,104.129 L149,102.919 L150,101.696 L151,100.461 L152,99.214 L153,97.954 L154,96.681 L155,95.397 L156,94.099 L157,92.788 L158,91.464 L159,90.128 L160,88.778 L161,87.415 L162,86.039 L163,84.649 L164,83.246 L165,81.829 L166,80.398 L167,78.954 L168,77.495 L169,76.023 L170,74.536 L171,73.036 L172,71.521 L173,69.991 L174,68.447 L175,66.888 L176,65.315 L177,63.727 L178,62.124 L179,60.505 L180,58.872 L181,57.223 L182,55.559 L183,53.88 L184,52.185 L185,50.474 L186,48.747 L187,47.005 L188,45.246 L189,43.471 L190,41.68 L191,39.873 L192,38.049 L193,36.209 L194,34.352 L195,32.478 L196,30.588 L197,28.68 L198,26.755 L199,24.813 L200,22.853 L201,20.876 L202,18.881 L203,16.869 L204,14.839 L205,12.79 L206,10.724 L207,8.639 L208,6.537 L209,4.415 L210,2.275 L211,0.117 L212,-2.06 L213,-4.257 L214,-6.472 L215,-8.707 L216,-10.96 L217,-13.234 L218,-15.526 L219,-17.839 L220,-20.171 L221,-22.523 L222,-24.896 L223,-27.288 L224,-29.701 L225,-32.134 L226,-34.588 L227,-37.063 L228,-39.558 L229,-42.074 L230,-44.612 L231,-47.171 L232,-49.75 L233,-52.352 L234,-54.975 L235,-57.62 L236,-60.287 L237,-62.976 L238,-65.687 L239,-68.42 L240,-71.176 L241,-73.955 L242,-76.756 L243,-79.58 L244,-82.427 L245,-85.297 L246,-88.19 L247,-91.107 L248,-94.048 L249,-97.012" fill="rgba(0,0,0,0)" stroke="rgba(0,119,179,1)" stroke-width="3"/>
<path d="M-244,200 C-244,203.314 -246.686,206 -250,206 C-253.314,206 -256,203.314 -256,200 C-256,196.686 -253.314,194 -250,194 C-246.686,194 -244,196.686 -244,200 Z" fill="rgba(0,0,0,0)" stroke="rgba(0,119,179,1)" stroke-width="3"/>
<path d="M-171.548,199.981 C-171.548,203.295 -174.234,205.981 -177.548,205.981 C-180.862,205.981 -183.548,203.295 -183.548,199.981 C-183.548,196.667 -180.862,193.981 -177.548,193.981 C-174.234,193.981 -171.548,196.667 -171.548,199.981 Z" fill="rgba(0,0,0,0)" stroke="rgba(0,119,179,1)" stroke-width="3"/>
<path d="M-99.099,199.387 C-99.099,202.7 -101.786,205.387 -105.099,205.387 C-108.413,205.387 -111.099,202.7 -111.099,199.387 C-111.099,196.073 -108.413,193.387 -105.099,193.387 C-101.786,193.387 -99.099,196.073 -99.099,199.387 Z" fill="rgba(0,0,0,0)" stroke="rgba(0,119,179,1)" stroke-width="3"/>
<path d="M-26.781,195.357 C-26.781,198.671 -29.468,201.357 -32.781,201.357 C-36.095,201.357 -38.781,198.671 -38.781,195.357 C-38.781,192.044 -36.095,189.357 -32.781,189.357 C-29.468,189.357 -26.781,192.044 -26.781,195.357 Z" fill="rgba(0,0,0,0)" stroke="rgba(0,119,179,1)" stroke-width="3"/>
<path d="M44.084,180.951 C44.084,184.265 41.397,186.951 38.084,186.951 C34.77,186.951 32.084,184.265 32.084,180.951 C32.084,177.638 34.77,174.951 38.084,174.951 C41.397,174.951 44.084,177.638 44.084,180.951 Z" fill="rgba(0,0,0,0)" stroke="rgba(0,119,179,1)" stroke-width="3"/>
<path d="M108.234,147.948 C108.234,151.262 105.548,153.948 102.234,153.948 C98.921,153.948 96.234,151.262 96.234,147.948 C96.234,144.634 98.921,141.948 102.234,141.948 C105.548,141.948 108.234,144.634 108.234,147.948 Z" fill="rgba(0,0,0,0)" stroke="rgba(0,119,179,1)" stroke-width="3"/>
<path d="M159.612,97.175 C159.612,100.489 156.926,103.175 153.612,103.175 C150.298,103.175 147.612,100.489 147.612,97.175 C147.612,93.862 150.298,91.175 153.612,91.175 C156.926,91.175 159.612,93.862 159.612,97.175 Z" fill="rgba(0,0,0,0)" stroke="rgba(0,119,179,1)" stroke-width="3"/>
<path d="M198.896,36.4 C198.896,39.714 196.21,42.4 192.896,42.4 C189.582,42.4 186.896,39.714 186.896,36.4 C186.896,33.087 189.582,30.4 192.896,30.4 C196.21,30.4 198.896,33.087 198.896,36.4 Z" fill="rgba(0,0,0,0)" stroke="rgba(0,119,179,1)" stroke-width="3"/>
<path d="M229.757,-29.114 C229.757,-25.801 227.071,-23.114 223.757,-23.114 C220.443,-23.114 217.757,-25.801 217.757,-29.114 C217.757,-32.428 220.443,-35.114 223.757,-35.114 C227.071,-35.114 229.757,-32.428 229.757,-29.114 Z" fill="rgba(0,0,0,0)" stroke="rgba(0,119,179,1)" stroke-width="3"/>
<path d="M255,-97.012 C255,-93.698 252.314,-91.012 249,-91.012 C245.686,-91.012 243,-93.698 243,-97.012 C243,-100.326 245.686,-103.012 249,-103.012 C252.314,-103.012 255,-100.326 255,-97.012 Z" fill="rgba(0,0,0,0)" stroke="rgba(0,119,179,1)" stroke-width="3"/>
</svg>