<svg xmlns="http://www.w3.org/2000/svg" viewBox="-91.9 -141.79 237.16 390.86">
<text x="-27.023999999999997" y="0" text-anchor="start" font-family="Verdana, Helvetica, Arial, sans-serif" font-size="24" fill="rgba(255,0,0,1)" transform="matrix(1 0 0 1 -27.023999999999997 -100)">0! =  </text>
<text x="-27.023999999999997" y="0" text-anchor="start" font-family="Verdana, Helvetica, Arial, sans-serif" font-size="24" fill="rgba(255,0,0,1)" transform="matrix(1 0 0 1 -27.023999999999997 -68.00000000000001)">1! =  </text>
<text x="-27.023999999999997" y="0" text-anchor="start" font-family="Verdana, Helvetica, Arial, sans-serif" font-size="24" fill="rgba(255,0,0,1)" transform="matrix(1 0 0 1 -27.023999999999997 -36.000000000000014)">2! =  </text>
<text x="-27.023999999999997" y="0" text-anchor="start" font-family="Verdana, Helvetica, Arial, sans-serif" font-size="24" fill="rgba(255,0,0,1)" transform="matrix(1 0 0 1 -27.023999999999997 -4.000000000000014)">3! =  </text>
<text x="-27.023999999999997" y="0" text-anchor="start" font-family="Verdana, Helvetica, Arial, sans-serif" font-size="24" fill="rgba(255,0,0,1)" transform="matrix(1 0 0 1 -27.023999999999997 27.999999999999986)">4! =  </text>
<text x="-27.023999999999997" y="0" text-anchor="start" font-family="Verdana, Helvetica, Arial, sans-serif" font-size="24" fill="rgba(255,0,0,1)" transform="matrix(1 0 0 1 -27.023999999999997 60)">5! =  </text>
<text x="-27.023999999999997" y="0" text-anchor="start" font-family="Verdana, Helvetica, Arial, sans-serif" font-size="24" fill="rgba(255,0,0,1)" transform="matrix(1 0 0 1 -27.023999999999997 92)">6! =  </text>
<text x="-27.023999999999997" y="0" text-anchor="start" font-family="Verdana, Helvetica, Arial, sans-serif" font-size="24" fill="rgba(255,0,0,1)" transform="matrix(1 0 0 1 -27.023999999999997 124)">7! =  </text>
<text x="-27.023999999999997" y="0" text-anchor="start" font-family="Verdana, Helvetica, Arial, sans-serif" font-size="24" fill="rgba(255,0,0,1)" transform="matrix(1 0 0 1 -27.023999999999997 156)">8! =  </text>
<text x="-27.023999999999997" y="0" text-anchor="start" font-family="Verdana, Helvetica, Arial, sans-serif" font-size="24" fill="rgba(255,0,0,1)" transform="matrix(1 0 0 1 -27.023999999999997 188)">9! =  </text>
<text x="-33.696" y="0" text-anchor="start" font-family="Verdana, Helvetica, Arial, sans-serif" font-size="24" fill="rgba(255,0,0,1)" transform="matrix(1 0 0 1 -33.696 220)">10! =  </text>
<text x="-6.672000000000001" y="0" text-anchor="start" font-family="Verdana, Helvetica, Arial, sans-serif" font-size="24" fill="rgba(0,0,0,1)" transform="matrix(1 0 0 1 20.672 -100)">1</text>
<text x="-6.672000000000001" y="0" text-anchor="start" font-family="Verdana, Helvetica, Arial, sans-serif" font-size="24" fill="rgba(0,0,0,1)" transform="matrix(1 0 0 1 20.672 -68.00000000000001)">1</text>
<text x="-6.672000000000001" y="0" text-anchor="start" font-family="Verdana, Helvetica, Arial, sans-serif" font-size="24" fill="rgba(0,0,0,1)" transform="matrix(1 0 0 1 20.672 -36.000000000000014)">2</text>
<text x="-6.672000000000001" y="0" text-anchor="start" font-family="Verdana, Helvetica, Arial, sans-serif" font-size="24" fill="rgba(0,0,0,1)" transform="matrix(1 0 0 1 20.672 -4.000000000000014)">6</text>
<text x="-13.344000000000001" y="0" text-anchor="start" font-family="Verdana, Helvetica, Arial, sans-serif" font-size="24" fill="rgba(0,0,0,1)" transform="matrix(1 0 0 1 27.344 27.999999999999986)">24</text>
<text x="-20.016" y="0" text-anchor="start" font-family="Verdana, Helvetica, Arial, sans-serif" font-size="24" fill="rgba(0,0,0,1)" transform="matrix(1 0 0 1 34.016 60)">120</text>
<text x="-20.016" y="0" text-anchor="start" font-family="Verdana, Helvetica, Arial, sans-serif" font-size="24" fill="rgba(0,0,0,1)" transform="matrix(1 0 0 1 34.016 92)">720</text>
<text x="-30.023999999999997" y="0" text-anchor="start" font-family="Verdana, Helvetica, Arial, sans-serif" font-size="24" fill="rgba(0,0,0,1)" transform="matrix(1 0 0 1 44.024 124)">5,040</text>
<text x="-36.696" y="0" text-anchor="start" font-family="Verdana, Helvetica, Arial, sans-serif" font-size="24" fill="rgba(0,0,0,1)" transform="matrix(1 0 0 1 50.696 156)">40,320</text>
<text x="-43.367999999999995" y="0" text-anchor="start" font-family="Verdana, Helvetica, Arial, sans-serif" font-size="24" fill="rgba(0,0,0,1)" transform="matrix(1 0 0 1 57.367999999999995 188)">362,880</text>
<text x="-53.376000000000005" y="0" text-anchor="start" font-family="Verdana, Helvetica, Arial, sans-serif" font-size="24" fill="rgba(0,0,0,1)" transform="matrix(1 0 0 1 67.376 220)">3,628,800</text>
</svg>