<svg xmlns="http://www.w3.org/2000/svg" viewBox="-231.36 -121.86 462.72 365.72">
<path d="M138,215.5 L145.765,179.478 L170.5,206.792 L159.213,171.713 L194.292,183 L166.978,158.265 L203,150.5 L166.978,142.735 L194.292,118 L159.213,129.287 L170.5,94.208 L145.765,121.522 L138,85.5 L130.235,121.522 L105.5,94.208 L116.787,129.287 L81.708,118 L109.022,142.735 L73,150.5 L109.022,158.265 L81.708,183 L116.787,171.713 L105.5,206.792 L130.235,179.478 Z" fill="rgba(255,209,0,0.1)" stroke="rgba(247,0,0,0.1)" stroke-width="4"/>
<path d="M35,144.5 L42.765,108.478 L67.5,135.792 L56.213,100.713 L91.292,112 L63.978,87.265 L100,79.5 L63.978,71.735 L91.292,47 L56.213,58.287 L67.5,23.208 L42.765,50.522 L35,14.5 L27.235,50.522 L2.5,23.208 L13.787,58.287 L-21.292,47 L6.022,71.735 L-30,79.5 L6.022,87.265 L-21.292,112 L13.787,100.713 L2.5,135.792 L27.235,108.478 Z" fill="rgba(255,209,0,0.4)" stroke="rgba(247,0,0,0.4)" stroke-width="4"/>
<path d="M-103,106.5 L-85.789,70.734 L-53,93.103 L-55.977,53.523 L-16.397,56.5 L-38.766,23.711 L-3,6.5 L-38.766,-10.711 L-16.397,-43.5 L-55.977,-40.523 L-53,-80.103 L-85.789,-57.734 L-103,-93.5 L-120.211,-57.734 L-153,-80.103 L-150.023,-40.523 L-189.603,-43.5 L-167.234,-10.711 L-203,6.5 L-167.234,23.711 L-189.603,56.5 L-150.023,53.523 L-153,93.103 L-120.211,70.734 Z" fill="rgba(0,0,0,1)"/>
<path d="M-103,71.5 L-95.235,35.478 L-70.5,62.792 L-81.787,27.713 L-46.708,39 L-74.022,14.265 L-38,6.5 L-74.022,-1.265 L-46.708,-26 L-81.787,-14.713 L-70.5,-49.792 L-95.235,-22.478 L-103,-58.5 L-110.765,-22.478 L-135.5,-49.792 L-124.213,-14.713 L-159.292,-26 L-131.978,-1.265 L-168,6.5 L-131.978,14.265 L-159.292,39 L-124.213,27.713 L-135.5,62.792 L-110.765,35.478 Z" fill="rgba(255,209,0,1)" stroke="rgba(247,0,0,1)" stroke-width="4"/>
</svg>