<svg xmlns="http://www.w3.org/2000/svg" viewBox="-299.1 -165.1 607.2 433.7">
<path d="M-154.847,2.878 L-186,-40 L-166.747,-33.744 Z" fill="rgba(165,165,165,1)" stroke="rgba(0,0,0,1)" stroke-width="1"/>
<path d="M-154.847,2.878 L-186,-19.756 L-186,-40 Z" fill="rgba(81,81,81,1)" stroke="rgba(0,0,0,1)" stroke-width="1"/>
<path d="M-217.153,2.878 L-186,-40 L-186,-19.756 Z" fill="rgba(165,165,165,1)" stroke="rgba(0,0,0,1)" stroke-width="1"/>
<path d="M-217.153,2.878 L-205.253,-33.744 L-186,-40 Z" fill="rgba(81,81,81,1)" stroke="rgba(0,0,0,1)" stroke-width="1"/>
<path d="M-236.406,-56.378 L-186,-40 L-205.253,-33.744 Z" fill="rgba(165,165,165,1)" stroke="rgba(0,0,0,1)" stroke-width="1"/>
<path d="M-236.406,-56.378 L-197.899,-56.378 L-186,-40 Z" fill="rgba(81,81,81,1)" stroke="rgba(0,0,0,1)" stroke-width="1"/>
<path d="M-186,-93 L-186,-40 L-197.899,-56.378 Z" fill="rgba(165,165,165,1)" stroke="rgba(0,0,0,1)" stroke-width="1"/>
<path d="M-186,-93 L-174.101,-56.378 L-186,-40 Z" fill="rgba(81,81,81,1)" stroke="rgba(0,0,0,1)" stroke-width="1"/>
<path d="M-135.594,-56.378 L-186,-40 L-174.101,-56.378 Z" fill="rgba(165,165,165,1)" stroke="rgba(0,0,0,1)" stroke-width="1"/>
<path d="M-135.594,-56.378 L-166.747,-33.744 L-186,-40 Z" fill="rgba(81,81,81,1)" stroke="rgba(0,0,0,1)" stroke-width="1"/>
<path d="M200.88,232.5 L129,191 L146.97,180.625 Z" fill="rgba(173,62,62,1)" stroke="rgba(0,0,0,1)" stroke-width="1"/>
<path d="M200.88,232.5 L129,211.75 L129,191 Z" fill="rgba(158,212,212,1)" stroke="rgba(0,0,0,1)" stroke-width="1"/>
<path d="M57.12,232.5 L129,191 L129,211.75 Z" fill="rgba(173,62,62,1)" stroke="rgba(0,0,0,1)" stroke-width="1"/>
<path d="M57.12,232.5 L111.03,180.625 L129,191 Z" fill="rgba(158,212,212,1)" stroke="rgba(0,0,0,1)" stroke-width="1"/>
<path d="M129,108 L129,191 L111.03,180.625 Z" fill="rgba(173,62,62,1)" stroke="rgba(0,0,0,1)" stroke-width="1"/>
<path d="M129,108 L146.97,180.625 L129,191 Z" fill="rgba(158,212,212,1)" stroke="rgba(0,0,0,1)" stroke-width="1"/>
<path d="M-150.5,100.467 L-156.934,116 L-150.5,131.533 L-166.033,137.967 L-172.467,153.5 L-188,147.066 L-203.533,153.5 L-209.967,137.967 L-225.5,131.533 L-219.066,116 L-225.5,100.467 L-209.967,94.033 L-203.533,78.5 L-188,84.934 L-172.467,78.5 L-166.033,94.033 Z" fill="rgba(117,166,208,1)"/>
<path d="M-113,116 L-150.5,131.533 L-156.934,116 L-150.5,100.467 Z" fill="rgba(166,138,190,1)" stroke="rgba(0,0,0,1)" stroke-width="3"/>
<path d="M-134.967,169.033 L-172.467,153.5 L-166.033,137.967 L-150.5,131.533 Z" fill="rgba(166,138,190,1)" stroke="rgba(0,0,0,1)" stroke-width="3"/>
<path d="M-188,191 L-203.533,153.5 L-188,147.066 L-172.467,153.5 Z" fill="rgba(166,138,190,1)" stroke="rgba(0,0,0,1)" stroke-width="3"/>
<path d="M-241.033,169.033 L-225.5,131.533 L-209.967,137.967 L-203.533,153.5 Z" fill="rgba(166,138,190,1)" stroke="rgba(0,0,0,1)" stroke-width="3"/>
<path d="M-263,116 L-225.5,100.467 L-219.066,116 L-225.5,131.533 Z" fill="rgba(166,138,190,1)" stroke="rgba(0,0,0,1)" stroke-width="3"/>
<path d="M-241.033,62.967 L-203.533,78.5 L-209.967,94.033 L-225.5,100.467 Z" fill="rgba(166,138,190,1)" stroke="rgba(0,0,0,1)" stroke-width="3"/>
<path d="M-188,41 L-172.467,78.5 L-188,84.934 L-203.533,78.5 Z" fill="rgba(166,138,190,1)" stroke="rgba(0,0,0,1)" stroke-width="3"/>
<path d="M-134.967,62.967 L-150.5,100.467 L-166.033,94.033 L-172.467,78.5 Z" fill="rgba(166,138,190,1)" stroke="rgba(0,0,0,1)" stroke-width="3"/>
<path d="M272,86 L269.236,86.898 L269.236,89.804 L267.528,87.453 L264.764,88.351 L266.472,86 L264.764,83.649 L267.528,84.547 L269.236,82.196 L269.236,85.102 Z" fill="rgba(212,97,117,1)"/>
<path d="M267.098,87.593 L264.334,88.491 L264.334,91.397 L262.626,89.046 L259.862,89.944 L261.57,87.593 L259.862,85.242 L262.626,86.14 L264.334,83.789 L264.334,86.695 Z" fill="rgba(212,97,117,1)"/>
<path d="M262.196,89.186 L259.432,90.084 L259.432,92.99 L257.724,90.639 L254.96,91.537 L256.668,89.186 L254.96,86.834 L257.724,87.733 L259.432,85.381 L259.432,88.288 Z" fill="rgba(212,97,117,1)"/>
<path d="M257.294,90.778 L254.53,91.676 L254.53,94.583 L252.821,92.231 L250.057,93.13 L251.766,90.778 L250.057,88.427 L252.821,89.325 L254.53,86.974 L254.53,89.88 Z" fill="rgba(212,97,117,1)"/>
<path d="M252.391,92.371 L249.627,93.269 L249.627,96.175 L247.919,93.824 L245.155,94.722 L246.864,92.371 L245.155,90.02 L247.919,90.918 L249.627,88.567 L249.627,91.473 Z" fill="rgba(212,97,117,1)"/>
<path d="M247.489,93.964 L244.725,94.862 L244.725,97.768 L243.017,95.417 L240.253,96.315 L241.961,93.964 L240.253,91.613 L243.017,92.511 L244.725,90.16 L244.725,93.066 Z" fill="rgba(212,97,117,1)"/>
<path d="M242.587,95.557 L239.823,96.455 L239.823,99.361 L238.115,97.01 L235.351,97.908 L237.059,95.557 L235.351,93.206 L238.115,94.104 L239.823,91.753 L239.823,94.659 Z" fill="rgba(212,97,117,1)"/>
<path d="M237.685,97.15 L234.921,98.048 L234.921,100.954 L233.213,98.603 L230.449,99.501 L232.157,97.15 L230.449,94.798 L233.213,95.697 L234.921,93.345 L234.921,96.252 Z" fill="rgba(212,97,117,1)"/>
<path d="M232.783,98.742 L230.019,99.64 L230.019,102.547 L228.311,100.196 L225.547,101.094 L227.255,98.742 L225.547,96.391 L228.311,97.289 L230.019,94.938 L230.019,97.844 Z" fill="rgba(212,97,117,1)"/>
<path d="M232.614,93.82 L229.85,94.718 L229.85,97.625 L228.142,95.273 L225.378,96.172 L227.086,93.82 L225.378,91.469 L228.142,92.367 L229.85,90.016 L229.85,92.922 Z" fill="rgba(212,97,117,1)"/>
<path d="M232.614,88.666 L229.85,89.564 L229.85,92.47 L228.142,90.119 L225.378,91.017 L227.086,88.666 L225.378,86.315 L228.142,87.213 L229.85,84.862 L229.85,87.768 Z" fill="rgba(212,97,117,1)"/>
<path d="M232.614,83.512 L229.85,84.41 L229.85,87.316 L228.142,84.965 L225.378,85.863 L227.086,83.512 L225.378,81.16 L228.142,82.058 L229.85,79.707 L229.85,82.613 Z" fill="rgba(212,97,117,1)"/>
<path d="M232.614,78.357 L229.85,79.255 L229.85,82.161 L228.142,79.81 L225.378,80.708 L227.086,78.357 L225.378,76.006 L228.142,76.904 L229.85,74.553 L229.85,77.459 Z" fill="rgba(212,97,117,1)"/>
<path d="M232.614,140.21 L229.85,141.108 L229.85,144.014 L228.142,141.663 L225.378,142.561 L227.086,140.21 L225.378,137.859 L228.142,138.757 L229.85,136.406 L229.85,139.312 Z" fill="rgba(212,97,117,1)"/>
<path d="M229.584,136.04 L226.82,136.938 L226.82,139.844 L225.112,137.493 L222.348,138.391 L224.056,136.04 L222.348,133.689 L225.112,134.587 L226.82,132.236 L226.82,135.142 Z" fill="rgba(212,97,117,1)"/>
<path d="M226.555,131.87 L223.791,132.768 L223.791,135.674 L222.082,133.323 L219.319,134.221 L221.027,131.87 L219.319,129.519 L222.082,130.417 L223.791,128.066 L223.791,130.972 Z" fill="rgba(212,97,117,1)"/>
<path d="M223.525,127.7 L220.761,128.598 L220.761,131.504 L219.053,129.153 L216.289,130.051 L217.997,127.7 L216.289,125.349 L219.053,126.247 L220.761,123.896 L220.761,126.802 Z" fill="rgba(212,97,117,1)"/>
<path d="M220.495,123.53 L217.731,124.428 L217.731,127.334 L216.023,124.983 L213.259,125.881 L214.967,123.53 L213.259,121.179 L216.023,122.077 L217.731,119.726 L217.731,122.632 Z" fill="rgba(212,97,117,1)"/>
<path d="M217.465,119.36 L214.702,120.258 L214.702,123.164 L212.993,120.813 L210.229,121.711 L211.938,119.36 L210.229,117.009 L212.993,117.907 L214.702,115.556 L214.702,118.462 Z" fill="rgba(212,97,117,1)"/>
<path d="M214.436,115.19 L211.672,116.088 L211.672,118.994 L209.964,116.643 L207.2,117.541 L208.908,115.19 L207.2,112.839 L209.964,113.737 L211.672,111.386 L211.672,114.292 Z" fill="rgba(212,97,117,1)"/>
<path d="M211.406,111.02 L208.642,111.918 L208.642,114.824 L206.934,112.473 L204.17,113.371 L205.878,111.02 L204.17,108.669 L206.934,109.567 L208.642,107.216 L208.642,110.122 Z" fill="rgba(212,97,117,1)"/>
<path d="M208.376,106.85 L205.612,107.748 L205.612,110.654 L203.904,108.303 L201.14,109.201 L202.849,106.85 L201.14,104.499 L203.904,105.397 L205.612,103.046 L205.612,105.952 Z" fill="rgba(212,97,117,1)"/>
<path d="M213.005,105.169 L210.241,106.067 L210.241,108.973 L208.533,106.622 L205.769,107.52 L207.478,105.169 L205.769,102.817 L208.533,103.715 L210.241,101.364 L210.241,104.27 Z" fill="rgba(212,97,117,1)"/>
<path d="M217.908,103.576 L215.144,104.474 L215.144,107.38 L213.435,105.029 L210.671,105.927 L212.38,103.576 L210.671,101.225 L213.435,102.123 L215.144,99.771 L215.144,102.678 Z" fill="rgba(212,97,117,1)"/>
<path d="M222.81,101.983 L220.046,102.881 L220.046,105.787 L218.338,103.436 L215.574,104.334 L217.282,101.983 L215.574,99.632 L218.338,100.53 L220.046,98.179 L220.046,101.085 Z" fill="rgba(212,97,117,1)"/>
<path d="M227.712,100.39 L224.948,101.288 L224.948,104.194 L223.24,101.843 L220.476,102.741 L222.184,100.39 L220.476,98.039 L223.24,98.937 L224.948,96.586 L224.948,99.492 Z" fill="rgba(212,97,117,1)"/>
<path d="M168.886,119.504 L166.122,120.402 L166.122,123.308 L164.414,120.957 L161.65,121.855 L163.358,119.504 L161.65,117.153 L164.414,118.051 L166.122,115.7 L166.122,118.606 Z" fill="rgba(212,97,117,1)"/>
<path d="M171.916,115.334 L169.152,116.232 L169.152,119.138 L167.444,116.787 L164.68,117.685 L166.388,115.334 L164.68,112.983 L167.444,113.881 L169.152,111.53 L169.152,114.436 Z" fill="rgba(212,97,117,1)"/>
<path d="M174.945,111.164 L172.181,112.062 L172.181,114.968 L170.473,112.617 L167.709,113.515 L169.418,111.164 L167.709,108.813 L170.473,109.711 L172.181,107.359 L172.181,110.266 Z" fill="rgba(212,97,117,1)"/>
<path d="M177.975,106.994 L175.211,107.892 L175.211,110.798 L173.503,108.447 L170.739,109.345 L172.447,106.994 L170.739,104.643 L173.503,105.541 L175.211,103.189 L175.211,106.096 Z" fill="rgba(212,97,117,1)"/>
<path d="M181.005,102.824 L178.241,103.722 L178.241,106.628 L176.533,104.277 L173.769,105.175 L175.477,102.824 L173.769,100.473 L176.533,101.371 L178.241,99.019 L178.241,101.926 Z" fill="rgba(212,97,117,1)"/>
<path d="M184.035,98.654 L181.271,99.552 L181.271,102.458 L179.562,100.107 L176.798,101.005 L178.507,98.654 L176.798,96.303 L179.562,97.201 L181.271,94.849 L181.271,97.756 Z" fill="rgba(212,97,117,1)"/>
<path d="M187.064,94.484 L184.3,95.382 L184.3,98.288 L182.592,95.937 L179.828,96.835 L181.536,94.484 L179.828,92.133 L182.592,93.031 L184.3,90.679 L184.3,93.586 Z" fill="rgba(212,97,117,1)"/>
<path d="M190.094,90.314 L187.33,91.212 L187.33,94.118 L185.622,91.767 L182.858,92.665 L184.566,90.314 L182.858,87.962 L185.622,88.861 L187.33,86.509 L187.33,89.416 Z" fill="rgba(212,97,117,1)"/>
<path d="M193.124,86.144 L190.36,87.042 L190.36,89.948 L188.651,87.597 L185.888,88.495 L187.596,86.144 L185.888,83.792 L188.651,84.691 L190.36,82.339 L190.36,85.246 Z" fill="rgba(212,97,117,1)"/>
<path d="M196.153,90.026 L193.389,90.924 L193.389,93.831 L191.681,91.479 L188.917,92.378 L190.625,90.026 L188.917,87.675 L191.681,88.573 L193.389,86.222 L193.389,89.128 Z" fill="rgba(212,97,117,1)"/>
<path d="M199.183,94.196 L196.419,95.094 L196.419,98.001 L194.711,95.649 L191.947,96.548 L193.655,94.196 L191.947,91.845 L194.711,92.743 L196.419,90.392 L196.419,93.298 Z" fill="rgba(212,97,117,1)"/>
<path d="M202.213,98.366 L199.449,99.264 L199.449,102.171 L197.741,99.82 L194.977,100.718 L196.685,98.366 L194.977,96.015 L197.741,96.913 L199.449,94.562 L199.449,97.468 Z" fill="rgba(212,97,117,1)"/>
<path d="M205.242,102.536 L202.478,103.435 L202.478,106.341 L200.77,103.99 L198.006,104.888 L199.715,102.536 L198.006,100.185 L200.77,101.083 L202.478,98.732 L202.478,101.638 Z" fill="rgba(212,97,117,1)"/>
<path d="M168.886,52.496 L166.122,53.394 L166.122,56.3 L164.414,53.949 L161.65,54.847 L163.358,52.496 L161.65,50.145 L164.414,51.043 L166.122,48.692 L166.122,51.598 Z" fill="rgba(212,97,117,1)"/>
<path d="M173.788,54.089 L171.024,54.987 L171.024,57.893 L169.316,55.542 L166.552,56.44 L168.26,54.089 L166.552,51.738 L169.316,52.636 L171.024,50.285 L171.024,53.191 Z" fill="rgba(212,97,117,1)"/>
<path d="M178.69,55.682 L175.926,56.58 L175.926,59.486 L174.218,57.135 L171.454,58.033 L173.162,55.682 L171.454,53.331 L174.218,54.229 L175.926,51.878 L175.926,54.784 Z" fill="rgba(212,97,117,1)"/>
<path d="M183.592,57.275 L180.829,58.173 L180.829,61.079 L179.12,58.728 L176.356,59.626 L178.065,57.275 L176.356,54.924 L179.12,55.822 L180.829,53.47 L180.829,56.377 Z" fill="rgba(212,97,117,1)"/>
<path d="M188.495,58.867 L185.731,59.766 L185.731,62.672 L184.022,60.321 L181.259,61.219 L182.967,58.867 L181.259,56.516 L184.022,57.414 L185.731,55.063 L185.731,57.969 Z" fill="rgba(212,97,117,1)"/>
<path d="M193.397,60.46 L190.633,61.358 L190.633,64.264 L188.925,61.913 L186.161,62.811 L187.869,60.46 L186.161,58.109 L188.925,59.007 L190.633,56.656 L190.633,59.562 Z" fill="rgba(212,97,117,1)"/>
<path d="M198.299,62.053 L195.535,62.951 L195.535,65.857 L193.827,63.506 L191.063,64.404 L192.771,62.053 L191.063,59.702 L193.827,60.6 L195.535,58.249 L195.535,61.155 Z" fill="rgba(212,97,117,1)"/>
<path d="M203.201,63.646 L200.437,64.544 L200.437,67.45 L198.729,65.099 L195.965,65.997 L197.673,63.646 L195.965,61.295 L198.729,62.193 L200.437,59.842 L200.437,62.748 Z" fill="rgba(212,97,117,1)"/>
<path d="M208.103,65.239 L205.339,66.137 L205.339,69.043 L203.631,66.692 L200.867,67.59 L202.575,65.239 L200.867,62.888 L203.631,63.786 L205.339,61.434 L205.339,64.341 Z" fill="rgba(212,97,117,1)"/>
<path d="M205.347,69.32 L202.583,70.218 L202.583,73.124 L200.875,70.773 L198.111,71.671 L199.819,69.32 L198.111,66.969 L200.875,67.867 L202.583,65.516 L202.583,68.422 Z" fill="rgba(212,97,117,1)"/>
<path d="M202.317,73.49 L199.553,74.388 L199.553,77.294 L197.845,74.943 L195.081,75.841 L196.789,73.49 L195.081,71.139 L197.845,72.037 L199.553,69.686 L199.553,72.592 Z" fill="rgba(212,97,117,1)"/>
<path d="M199.287,77.66 L196.523,78.558 L196.523,81.464 L194.815,79.113 L192.051,80.011 L193.759,77.66 L192.051,75.309 L194.815,76.207 L196.523,73.856 L196.523,76.762 Z" fill="rgba(212,97,117,1)"/>
<path d="M196.258,81.83 L193.494,82.728 L193.494,85.634 L191.785,83.283 L189.022,84.181 L190.73,81.83 L189.022,79.479 L191.785,80.377 L193.494,78.026 L193.494,80.932 Z" fill="rgba(212,97,117,1)"/>
<path d="M232.614,31.79 L229.85,32.688 L229.85,35.594 L228.142,33.243 L225.378,34.141 L227.086,31.79 L225.378,29.439 L228.142,30.337 L229.85,27.986 L229.85,30.892 Z" fill="rgba(212,97,117,1)"/>
<path d="M232.614,36.944 L229.85,37.842 L229.85,40.748 L228.142,38.397 L225.378,39.295 L227.086,36.944 L225.378,34.593 L228.142,35.491 L229.85,33.14 L229.85,36.046 Z" fill="rgba(212,97,117,1)"/>
<path d="M232.614,42.099 L229.85,42.997 L229.85,45.903 L228.142,43.552 L225.378,44.45 L227.086,42.099 L225.378,39.747 L228.142,40.646 L229.85,38.294 L229.85,41.201 Z" fill="rgba(212,97,117,1)"/>
<path d="M232.614,47.253 L229.85,48.151 L229.85,51.057 L228.142,48.706 L225.378,49.604 L227.086,47.253 L225.378,44.902 L228.142,45.8 L229.85,43.449 L229.85,46.355 Z" fill="rgba(212,97,117,1)"/>
<path d="M232.614,52.407 L229.85,53.306 L229.85,56.212 L228.142,53.861 L225.378,54.759 L227.086,52.407 L225.378,50.056 L228.142,50.954 L229.85,48.603 L229.85,51.509 Z" fill="rgba(212,97,117,1)"/>
<path d="M232.614,57.562 L229.85,58.46 L229.85,61.366 L228.142,59.015 L225.378,59.913 L227.086,57.562 L225.378,55.211 L228.142,56.109 L229.85,53.758 L229.85,56.664 Z" fill="rgba(212,97,117,1)"/>
<path d="M232.614,62.716 L229.85,63.614 L229.85,66.521 L228.142,64.169 L225.378,65.067 L227.086,62.716 L225.378,60.365 L228.142,61.263 L229.85,58.912 L229.85,61.818 Z" fill="rgba(212,97,117,1)"/>
<path d="M232.614,67.871 L229.85,68.769 L229.85,71.675 L228.142,69.324 L225.378,70.222 L227.086,67.871 L225.378,65.52 L228.142,66.418 L229.85,64.067 L229.85,66.973 Z" fill="rgba(212,97,117,1)"/>
<path d="M232.614,73.025 L229.85,73.923 L229.85,76.829 L228.142,74.478 L225.378,75.376 L227.086,73.025 L225.378,70.674 L228.142,71.572 L229.85,69.221 L229.85,72.127 Z" fill="rgba(212,97,117,1)"/>
<path d="M227.881,71.665 L225.117,72.563 L225.117,75.469 L223.409,73.118 L220.645,74.016 L222.353,71.665 L220.645,69.314 L223.409,70.212 L225.117,67.861 L225.117,70.767 Z" fill="rgba(212,97,117,1)"/>
<path d="M222.979,70.072 L220.215,70.97 L220.215,73.876 L218.506,71.525 L215.742,72.423 L217.451,70.072 L215.742,67.721 L218.506,68.619 L220.215,66.268 L220.215,69.174 Z" fill="rgba(212,97,117,1)"/>
<path d="M218.076,68.479 L215.312,69.377 L215.312,72.283 L213.604,69.932 L210.84,70.83 L212.548,68.479 L210.84,66.128 L213.604,67.026 L215.312,64.675 L215.312,67.581 Z" fill="rgba(212,97,117,1)"/>
<path d="M213.174,66.886 L210.41,67.784 L210.41,70.691 L208.702,68.339 L205.938,69.237 L207.646,66.886 L205.938,64.535 L208.702,65.433 L210.41,63.082 L210.41,65.988 Z" fill="rgba(212,97,117,1)"/>
<path d="M211.27,-0.01 L196,-15.281 L180.73,-0.01 L175.14,-20.87 L154.281,-15.281 L159.87,-36.14 L139.01,-41.73 L154.281,-57 L139.01,-72.27 L159.87,-77.86 L154.281,-98.719 L175.14,-93.13 L180.73,-113.99 L196,-98.719 L211.27,-113.99 L216.86,-93.13 L237.719,-98.719 L232.13,-77.86 L252.99,-72.27 L237.719,-57 L252.99,-41.73 L232.13,-36.14 L237.719,-15.281 L216.86,-20.87 Z" fill="rgba(212,173,69,1)" stroke="rgba(192,70,0,1)" stroke-width="4"/>
<path d="M-55.453,207 L-78.547,207 L-90.094,187 L-78.547,167 L-55.453,167 L-43.906,187 Z" fill="rgba(0,0,0,0)" stroke="rgba(42,103,215,1)" stroke-width="5"/>
<path d="M-67,227 L-78.547,207 L-55.453,207 Z" fill="rgba(0,0,0,0)" stroke="rgba(42,103,215,1)" stroke-width="5"/>
<path d="M-101.641,207 L-90.094,187 L-78.547,207 Z" fill="rgba(0,0,0,0)" stroke="rgba(42,103,215,1)" stroke-width="5"/>
<path d="M-101.641,167 L-78.547,167 L-90.094,187 Z" fill="rgba(0,0,0,0)" stroke="rgba(42,103,215,1)" stroke-width="5"/>
<path d="M-67,147 L-55.453,167 L-78.547,167 Z" fill="rgba(0,0,0,0)" stroke="rgba(42,103,215,1)" stroke-width="5"/>
<path d="M-32.359,167 L-43.906,187 L-55.453,167 Z" fill="rgba(0,0,0,0)" stroke="rgba(42,103,215,1)" stroke-width="5"/>
<path d="M-32.359,207 L-55.453,207 L-43.906,187 Z" fill="rgba(0,0,0,0)" stroke="rgba(42,103,215,1)" stroke-width="5"/>
<path d="M84.853,105.853 L0,21 L30,21 Z" fill="rgba(117,208,199,1)" stroke="rgba(0,0,0,1)" stroke-width="1"/>
<path d="M84.853,105.853 L0,51 L0,21 Z" fill="rgba(138,190,175,1)" stroke="rgba(0,0,0,1)" stroke-width="1"/>
<path d="M-84.853,105.853 L0,21 L0,51 Z" fill="rgba(117,208,199,1)" stroke="rgba(0,0,0,1)" stroke-width="1"/>
<path d="M-84.853,105.853 L-30,21 L0,21 Z" fill="rgba(138,190,175,1)" stroke="rgba(0,0,0,1)" stroke-width="1"/>
<path d="M-84.853,-63.853 L0,21 L-30,21 Z" fill="rgba(117,208,199,1)" stroke="rgba(0,0,0,1)" stroke-width="1"/>
<path d="M-84.853,-63.853 L0,-9 L0,21 Z" fill="rgba(138,190,175,1)" stroke="rgba(0,0,0,1)" stroke-width="1"/>
<path d="M84.853,-63.853 L0,21 L0,-9 Z" fill="rgba(117,208,199,1)" stroke="rgba(0,0,0,1)" stroke-width="1"/>
<path d="M84.853,-63.853 L30,21 L0,21 Z" fill="rgba(138,190,175,1)" stroke="rgba(0,0,0,1)" stroke-width="1"/>
<path d="M150,21 L0,21 L26.517,-5.517 Z" fill="rgba(117,208,199,1)" stroke="rgba(0,0,0,1)" stroke-width="1"/>
<path d="M150,21 L26.517,47.517 L0,21 Z" fill="rgba(138,190,175,1)" stroke="rgba(0,0,0,1)" stroke-width="1"/>
<path d="M0,171 L0,21 L26.517,47.517 Z" fill="rgba(117,208,199,1)" stroke="rgba(0,0,0,1)" stroke-width="1"/>
<path d="M0,171 L-26.517,47.517 L0,21 Z" fill="rgba(138,190,175,1)" stroke="rgba(0,0,0,1)" stroke-width="1"/>
<path d="M-150,21 L0,21 L-26.517,47.517 Z" fill="rgba(117,208,199,1)" stroke="rgba(0,0,0,1)" stroke-width="1"/>
<path d="M-150,21 L-26.517,-5.517 L0,21 Z" fill="rgba(138,190,175,1)" stroke="rgba(0,0,0,1)" stroke-width="1"/>
<path d="M0,-129 L0,21 L-26.517,-5.517 Z" fill="rgba(117,208,199,1)" stroke="rgba(0,0,0,1)" stroke-width="1"/>
<path d="M0,-129 L26.517,-5.517 L0,21 Z" fill="rgba(138,190,175,1)" stroke="rgba(0,0,0,1)" stroke-width="1"/>
</svg>