<svg xmlns="http://www.w3.org/2000/svg" viewBox="-272.8 -169.8 545.6 415.6">
<path d="M-228.958,-137 L-240,-137 L-240,-134.041 Z" fill="rgba(120,198,255,1)"/>
<path d="M-210.918,-137 L-232.822,-137 L-240,-135.077 L-240,-129.207 Z" fill="rgba(119,196,253,1)"/>
<path d="M-192.877,-137 L-214.781,-137 L-240,-130.243 L-240,-124.373 Z" fill="rgba(118,195,252,1)"/>
<path d="M-174.836,-137 L-196.741,-137 L-240,-125.409 L-240,-119.539 Z" fill="rgba(116,193,250,1)"/>
<path d="M-156.795,-137 L-178.7,-137 L-240,-120.575 L-240,-114.705 Z" fill="rgba(115,192,248,1)"/>
<path d="M-138.754,-137 L-160.659,-137 L-240,-115.741 L-240,-109.871 Z" fill="rgba(114,190,247,1)"/>
<path d="M-120.714,-137 L-142.618,-137 L-240,-110.907 L-240,-105.037 Z" fill="rgba(113,189,245,1)"/>
<path d="M-102.673,-137 L-124.577,-137 L-240,-106.073 L-240,-100.203 Z" fill="rgba(111,187,243,1)"/>
<path d="M-84.632,-137 L-106.537,-137 L-240,-101.239 L-240,-95.369 Z" fill="rgba(110,186,242,1)"/>
<path d="M-66.591,-137 L-88.496,-137 L-240,-96.405 L-240,-90.535 Z" fill="rgba(109,184,240,1)"/>
<path d="M-48.55,-137 L-70.455,-137 L-240,-91.571 L-240,-85.701 Z" fill="rgba(108,183,239,1)"/>
<path d="M-30.51,-137 L-52.414,-137 L-240,-86.737 L-240,-80.867 Z" fill="rgba(107,181,237,1)"/>
<path d="M-12.469,-137 L-34.373,-137 L-240,-81.903 L-240,-76.033 Z" fill="rgba(105,180,235,1)"/>
<path d="M5.572,-137 L-16.333,-137 L-240,-77.068 L-240,-71.199 Z" fill="rgba(104,178,234,1)"/>
<path d="M23.613,-137 L1.708,-137 L-240,-72.234 L-240,-66.365 Z" fill="rgba(103,177,232,1)"/>
<path d="M41.654,-137 L19.749,-137 L-240,-67.4 L-240,-61.531 Z" fill="rgba(102,175,230,1)"/>
<path d="M59.694,-137 L37.79,-137 L-240,-62.566 L-240,-56.697 Z" fill="rgba(100,174,229,1)"/>
<path d="M77.735,-137 L55.831,-137 L-240,-57.732 L-240,-51.863 Z" fill="rgba(99,172,227,1)"/>
<path d="M95.776,-137 L73.871,-137 L-240,-52.898 L-240,-47.029 Z" fill="rgba(98,171,226,1)"/>
<path d="M113.817,-137 L91.912,-137 L-240,-48.064 L-240,-42.195 Z" fill="rgba(97,169,224,1)"/>
<path d="M131.858,-137 L109.953,-137 L-240,-43.23 L-240,-37.361 Z" fill="rgba(96,168,222,1)"/>
<path d="M149.898,-137 L127.994,-137 L-240,-38.396 L-240,-32.527 Z" fill="rgba(94,166,221,1)"/>
<path d="M167.939,-137 L146.035,-137 L-240,-33.562 L-240,-27.693 Z" fill="rgba(93,165,219,1)"/>
<path d="M185.98,-137 L164.075,-137 L-240,-28.728 L-240,-22.859 Z" fill="rgba(92,164,217,1)"/>
<path d="M204.021,-137 L182.116,-137 L-240,-23.894 L-240,-18.025 Z" fill="rgba(91,162,216,1)"/>
<path d="M222.062,-137 L200.157,-137 L-240,-19.06 L-240,-13.191 Z" fill="rgba(90,161,214,1)"/>
<path d="M240,-136.973 L240,-137 L218.198,-137 L-240,-14.226 L-240,-8.357 Z" fill="rgba(88,159,213,1)"/>
<path d="M240,-132.139 L240,-137 L236.239,-137 L-240,-9.392 L-240,-3.523 Z" fill="rgba(87,158,211,1)"/>
<path d="M240,-127.305 L240,-133.174 L-240,-4.558 L-240,1.311 Z" fill="rgba(86,156,209,1)"/>
<path d="M240,-122.471 L240,-128.34 L-240,0.276 L-240,6.145 Z" fill="rgba(85,155,208,1)"/>
<path d="M240,-117.637 L240,-123.506 L-240,5.11 L-240,10.979 Z" fill="rgba(84,153,206,1)"/>
<path d="M240,-112.802 L240,-118.672 L-240,9.944 L-240,15.813 Z" fill="rgba(83,152,205,1)"/>
<path d="M240,-107.968 L240,-113.838 L-240,14.778 L-240,20.647 Z" fill="rgba(81,150,203,1)"/>
<path d="M240,-103.134 L240,-109.004 L-240,19.612 L-240,25.481 Z" fill="rgba(80,149,202,1)"/>
<path d="M240,-98.3 L240,-104.17 L-240,24.446 L-240,30.315 Z" fill="rgba(79,147,200,1)"/>
<path d="M240,-93.466 L240,-99.336 L-240,29.28 L-240,35.149 Z" fill="rgba(78,146,198,1)"/>
<path d="M240,-88.632 L240,-94.502 L-240,34.114 L-240,39.983 Z" fill="rgba(77,145,197,1)"/>
<path d="M240,-83.798 L240,-89.668 L-240,38.948 L-240,44.817 Z" fill="rgba(75,143,195,1)"/>
<path d="M240,-78.964 L240,-84.834 L-240,43.782 L-240,49.651 Z" fill="rgba(74,142,194,1)"/>
<path d="M240,-74.13 L240,-80 L-240,48.616 L-240,54.485 Z" fill="rgba(73,140,192,1)"/>
<path d="M240,-69.296 L240,-75.166 L-240,53.45 L-240,59.319 Z" fill="rgba(72,139,190,1)"/>
<path d="M240,-64.462 L240,-70.332 L-240,58.284 L-240,64.153 Z" fill="rgba(71,137,189,1)"/>
<path d="M240,-59.628 L240,-65.498 L-240,63.118 L-240,68.987 Z" fill="rgba(70,136,187,1)"/>
<path d="M240,-54.794 L240,-60.664 L-240,67.952 L-240,73.821 Z" fill="rgba(68,135,186,1)"/>
<path d="M240,-49.96 L240,-55.83 L-240,72.786 L-240,78.655 Z" fill="rgba(67,133,184,1)"/>
<path d="M240,-45.126 L240,-50.996 L-240,77.62 L-240,83.489 Z" fill="rgba(66,132,183,1)"/>
<path d="M240,-40.292 L240,-46.162 L-240,82.454 L-240,88.323 Z" fill="rgba(65,130,181,1)"/>
<path d="M240,-35.458 L240,-41.327 L-240,87.288 L-240,93.157 Z" fill="rgba(64,129,180,1)"/>
<path d="M240,-30.624 L240,-36.493 L-240,92.122 L-240,97.991 Z" fill="rgba(63,127,178,1)"/>
<path d="M240,-25.79 L240,-31.659 L-240,96.956 L-240,102.825 Z" fill="rgba(61,126,176,1)"/>
<path d="M240,-20.956 L240,-26.825 L-240,101.79 L-240,107.659 Z" fill="rgba(60,125,175,1)"/>
<path d="M240,-16.122 L240,-21.991 L-240,106.624 L-240,112.493 Z" fill="rgba(59,123,173,1)"/>
<path d="M240,-11.288 L240,-17.157 L-240,111.458 L-240,117.327 Z" fill="rgba(58,122,172,1)"/>
<path d="M240,-6.454 L240,-12.323 L-240,116.292 L-240,122.162 Z" fill="rgba(57,120,170,1)"/>
<path d="M240,-1.62 L240,-7.489 L-240,121.126 L-240,126.996 Z" fill="rgba(56,119,169,1)"/>
<path d="M240,3.214 L240,-2.655 L-240,125.96 L-240,131.83 Z" fill="rgba(54,118,167,1)"/>
<path d="M240,8.048 L240,2.179 L-240,130.794 L-240,136.664 Z" fill="rgba(53,116,166,1)"/>
<path d="M240,12.882 L240,7.013 L-240,135.628 L-240,141.498 Z" fill="rgba(52,115,164,1)"/>
<path d="M240,17.716 L240,11.847 L-240,140.462 L-240,146.332 Z" fill="rgba(51,113,163,1)"/>
<path d="M240,22.55 L240,16.681 L-240,145.296 L-240,151.166 Z" fill="rgba(50,112,161,1)"/>
<path d="M240,27.384 L240,21.515 L-240,150.13 L-240,156 Z" fill="rgba(49,111,160,1)"/>
<path d="M240,32.218 L240,26.349 L-240,154.964 L-240,160.834 Z" fill="rgba(48,109,158,1)"/>
<path d="M240,37.052 L240,31.183 L-240,159.798 L-240,165.668 Z" fill="rgba(46,108,156,1)"/>
<path d="M240,41.886 L240,36.017 L-240,164.632 L-240,170.502 Z" fill="rgba(45,107,155,1)"/>
<path d="M240,46.72 L240,40.851 L-240,169.466 L-240,175.336 Z" fill="rgba(44,105,153,1)"/>
<path d="M240,51.554 L240,45.685 L-240,174.3 L-240,180.17 Z" fill="rgba(43,104,152,1)"/>
<path d="M240,56.388 L240,50.519 L-240,179.134 L-240,185.004 Z" fill="rgba(42,102,150,1)"/>
<path d="M240,61.222 L240,55.353 L-240,183.968 L-240,189.838 Z" fill="rgba(41,101,149,1)"/>
<path d="M240,66.056 L240,60.187 L-240,188.802 L-240,194.672 Z" fill="rgba(39,100,147,1)"/>
<path d="M240,70.89 L240,65.021 L-240,193.637 L-240,199.506 Z" fill="rgba(38,98,146,1)"/>
<path d="M240,75.724 L240,69.855 L-240,198.471 L-240,204.34 Z" fill="rgba(37,97,144,1)"/>
<path d="M240,80.558 L240,74.689 L-240,203.305 L-240,209.174 Z" fill="rgba(36,96,143,1)"/>
<path d="M240,85.392 L240,79.523 L-240,208.139 L-240,213 L-236.239,213 Z" fill="rgba(35,94,141,1)"/>
<path d="M240,90.226 L240,84.357 L-240,212.973 L-240,213 L-218.198,213 Z" fill="rgba(33,93,140,1)"/>
<path d="M240,95.06 L240,89.191 L-222.062,213 L-200.157,213 Z" fill="rgba(32,92,138,1)"/>
<path d="M240,99.894 L240,94.025 L-204.021,213 L-182.116,213 Z" fill="rgba(31,90,137,1)"/>
<path d="M240,104.728 L240,98.859 L-185.98,213 L-164.075,213 Z" fill="rgba(30,89,135,1)"/>
<path d="M240,109.562 L240,103.693 L-167.939,213 L-146.035,213 Z" fill="rgba(29,88,134,1)"/>
<path d="M240,114.396 L240,108.527 L-149.898,213 L-127.994,213 Z" fill="rgba(27,86,132,1)"/>
<path d="M240,119.23 L240,113.361 L-131.858,213 L-109.953,213 Z" fill="rgba(26,85,131,1)"/>
<path d="M240,124.064 L240,118.195 L-113.817,213 L-91.912,213 Z" fill="rgba(25,84,130,1)"/>
<path d="M240,128.898 L240,123.029 L-95.776,213 L-73.871,213 Z" fill="rgba(24,82,128,1)"/>
<path d="M240,133.732 L240,127.863 L-77.735,213 L-55.831,213 Z" fill="rgba(23,81,127,1)"/>
<path d="M240,138.566 L240,132.697 L-59.694,213 L-37.79,213 Z" fill="rgba(21,80,125,1)"/>
<path d="M240,143.4 L240,137.531 L-41.654,213 L-19.749,213 Z" fill="rgba(20,78,124,1)"/>
<path d="M240,148.234 L240,142.365 L-23.613,213 L-1.708,213 Z" fill="rgba(19,77,122,1)"/>
<path d="M240,153.068 L240,147.199 L-5.572,213 L16.333,213 Z" fill="rgba(17,76,121,1)"/>
<path d="M240,157.903 L240,152.033 L12.469,213 L34.373,213 Z" fill="rgba(16,74,119,1)"/>
<path d="M240,162.737 L240,156.867 L30.51,213 L52.414,213 Z" fill="rgba(15,73,118,1)"/>
<path d="M240,167.571 L240,161.701 L48.55,213 L70.455,213 Z" fill="rgba(13,72,116,1)"/>
<path d="M240,172.405 L240,166.535 L66.591,213 L88.496,213 Z" fill="rgba(12,70,115,1)"/>
<path d="M240,177.239 L240,171.369 L84.632,213 L106.537,213 Z" fill="rgba(10,69,113,1)"/>
<path d="M240,182.073 L240,176.203 L102.673,213 L124.577,213 Z" fill="rgba(9,68,112,1)"/>
<path d="M240,186.907 L240,181.037 L120.714,213 L142.618,213 Z" fill="rgba(7,67,111,1)"/>
<path d="M240,191.741 L240,185.871 L138.754,213 L160.659,213 Z" fill="rgba(6,65,109,1)"/>
<path d="M240,196.575 L240,190.705 L156.795,213 L178.7,213 Z" fill="rgba(5,64,108,1)"/>
<path d="M240,201.409 L240,195.539 L174.836,213 L196.741,213 Z" fill="rgba(3,63,106,1)"/>
<path d="M240,206.243 L240,200.373 L192.877,213 L214.781,213 Z" fill="rgba(2,61,105,1)"/>
<path d="M240,211.077 L240,205.207 L210.918,213 L232.822,213 Z" fill="rgba(1,60,103,1)"/>
<path d="M228.958,213 L240,210.041 L240,213 Z" fill="rgba(0,59,102,1)"/>
<path d="" fill="rgba(255,255,255,1)"/>
<path d="" fill="rgba(251,251,251,0.9847457627118643)"/>
<path d="" fill="rgba(248,248,248,0.9694915254237289)"/>
<path d="" fill="rgba(244,244,244,0.9542372881355932)"/>
<path d="" fill="rgba(241,241,241,0.9389830508474576)"/>
<path d="" fill="rgba(237,237,237,0.9237288135593221)"/>
<path d="" fill="rgba(234,234,234,0.9084745762711864)"/>
<path d="" fill="rgba(230,230,230,0.8932203389830508)"/>
<path d="" fill="rgba(227,227,227,0.8779661016949153)"/>
<path d="" fill="rgba(223,223,223,0.8627118644067796)"/>
<path d="" fill="rgba(220,220,220,0.8474576271186441)"/>
<path d="" fill="rgba(216,216,216,0.8322033898305086)"/>
<path d="" fill="rgba(213,213,213,0.8169491525423729)"/>
<path d="" fill="rgba(209,209,209,0.8016949152542372)"/>
<path d="" fill="rgba(206,206,206,0.7864406779661017)"/>
<path d="" fill="rgba(202,202,202,0.771186440677966)"/>
<path d="" fill="rgba(199,199,199,0.7559322033898306)"/>
<path d="" fill="rgba(195,195,195,0.7406779661016949)"/>
<path d="" fill="rgba(192,192,192,0.7254237288135593)"/>
<path d="" fill="rgba(189,189,189,0.7101694915254236)"/>
<path d="" fill="rgba(185,185,185,0.6949152542372882)"/>
<path d="" fill="rgba(182,182,182,0.6796610169491525)"/>
<path d="" fill="rgba(179,179,179,0.664406779661017)"/>
<path d="" fill="rgba(175,175,175,0.6491525423728813)"/>
<path d="" fill="rgba(172,172,172,0.6338983050847458)"/>
<path d="" fill="rgba(169,169,169,0.6186440677966102)"/>
<path d="" fill="rgba(165,165,165,0.6033898305084746)"/>
<path d="" fill="rgba(162,162,162,0.588135593220339)"/>
<path d="" fill="rgba(159,159,159,0.5728813559322034)"/>
<path d="" fill="rgba(155,155,155,0.5576271186440678)"/>
<path d="" fill="rgba(152,152,152,0.5423728813559322)"/>
<path d="" fill="rgba(149,149,149,0.5271186440677966)"/>
<path d="" fill="rgba(146,146,146,0.511864406779661)"/>
<path d="" fill="rgba(142,142,142,0.4966101694915255)"/>
<path d="" fill="rgba(139,139,139,0.4813559322033899)"/>
<path d="" fill="rgba(136,136,136,0.46610169491525427)"/>
<path d="" fill="rgba(133,133,133,0.4508474576271187)"/>
<path d="" fill="rgba(130,130,130,0.43559322033898307)"/>
<path d="" fill="rgba(126,126,126,0.4203389830508475)"/>
<path d="" fill="rgba(123,123,123,0.405084745762712)"/>
<path d="" fill="rgba(120,120,120,0.3898305084745764)"/>
<path d="" fill="rgba(117,117,117,0.3745762711864406)"/>
<path d="" fill="rgba(114,114,114,0.359322033898305)"/>
<path d="" fill="rgba(111,111,111,0.3440677966101694)"/>
<path d="" fill="rgba(108,108,108,0.32881355932203393)"/>
<path d="" fill="rgba(105,105,105,0.31355932203389825)"/>
<path d="" fill="rgba(102,102,102,0.2983050847457626)"/>
<path d="" fill="rgba(99,99,99,0.28305084745762715)"/>
<path d="" fill="rgba(96,96,96,0.26779661016949163)"/>
<path d="" fill="rgba(93,93,93,0.252542372881356)"/>
<path d="" fill="rgba(90,90,90,0.23728813559322035)"/>
<path d="" fill="rgba(87,87,87,0.22203389830508485)"/>
<path d="" fill="rgba(84,84,84,0.2067796610169492)"/>
<path d="" fill="rgba(81,81,81,0.19152542372881357)"/>
<path d="" fill="rgba(78,78,78,0.17627118644067807)"/>
<path d="" fill="rgba(75,75,75,0.16101694915254255)"/>
<path d="" fill="rgba(72,72,72,0.14576271186440679)"/>
<path d="" fill="rgba(69,69,69,0.13050847457627113)"/>
<path d="" fill="rgba(67,67,67,0.1152542372881355)"/>
<path d="" fill="rgba(64,64,64,0.09999999999999998)"/>
</svg>