<svg xmlns="http://www.w3.org/2000/svg" viewBox="-222.11 -145.91 406.25 422.1">
<path d="M-0.383,-75.917 L113.633,-83.89 L124.465,71.024 L56.39,210.599 L-83.185,142.523 L-170.023,13.781 L-41.28,-73.057 L-0.383,-75.917 Z" fill="rgba(0,166,192,0.17647058823529413)" stroke="rgba(45,126,174,1)" stroke-width="1"/>
<path d="M-0.763,42.903 L48.318,33.363 L42.893,21.174 L78.53,31.565 L49.38,54.55 L49.845,41.216 L0.763,50.757 Z" fill="rgba(45,126,174,1)" stroke="rgba(255,255,255,1)" stroke-width="2"/>
<path d="M2.677,49.803 L-64.207,110.024 L-53.278,117.678 L-89.177,127.126 L-76.029,92.411 L-69.56,104.079 L-2.677,43.857 Z" fill="rgba(255,31,31,1)" stroke="rgba(255,255,255,1)" stroke-width="2"/>
<path d="M-15,55.49 L-10.981,40.49 L0,29.509 L10.981,40.49 L15,55.49 L0,59.509 L-15,55.49 Z" fill="rgba(45,126,174,1)" stroke="rgba(255,255,255,1)" stroke-width="2"/>
<path d="M-88.743,134.284 L-170.023,13.781 L-41.28,-73.057 L-0.383,-75.917 L113.633,-83.89 L119.923,6.063" fill="rgba(45,126,174,0)" stroke="rgba(255,31,31,1)" stroke-width="8"/>
<path d="M5.617,-75.917 C5.617,-72.603 2.93,-69.917 -0.383,-69.917 C-3.697,-69.917 -6.383,-72.603 -6.383,-75.917 C-6.383,-79.23 -3.697,-81.917 -0.383,-81.917 C2.93,-81.917 5.617,-79.23 5.617,-75.917 Z" fill="rgba(45,126,174,1)" stroke="rgba(255,255,255,1)" stroke-width="2"/>
<path d="M83.073,-81.333 C83.073,-78.019 80.387,-75.333 77.073,-75.333 C73.76,-75.333 71.073,-78.019 71.073,-81.333 C71.073,-84.647 73.76,-87.333 77.073,-87.333 C80.387,-87.333 83.073,-84.647 83.073,-81.333 Z" fill="rgba(45,126,174,1)" stroke="rgba(255,255,255,1)" stroke-width="2"/>
<path d="M122.493,-42.992 C122.493,-39.679 119.806,-36.992 116.493,-36.992 C113.179,-36.992 110.493,-39.679 110.493,-42.992 C110.493,-46.306 113.179,-48.992 116.493,-48.992 C119.806,-48.992 122.493,-46.306 122.493,-42.992 Z" fill="rgba(45,126,174,1)" stroke="rgba(255,255,255,1)" stroke-width="2"/>
<path d="M127.909,34.464 C127.909,37.778 125.223,40.464 121.909,40.464 C118.595,40.464 115.909,37.778 115.909,34.464 C115.909,31.15 118.595,28.464 121.909,28.464 C125.223,28.464 127.909,31.15 127.909,34.464 Z" fill="rgba(45,126,174,1)" stroke="rgba(255,255,255,1)" stroke-width="2"/>
<path d="M112.493,107.871 C112.493,111.185 109.807,113.871 106.493,113.871 C103.18,113.871 100.493,111.185 100.493,107.871 C100.493,104.558 103.18,101.871 106.493,101.871 C109.807,101.871 112.493,104.558 112.493,107.871 Z" fill="rgba(45,126,174,1)" stroke="rgba(255,255,255,1)" stroke-width="2"/>
<path d="M78.456,177.659 C78.456,180.973 75.77,183.659 72.456,183.659 C69.142,183.659 66.456,180.973 66.456,177.659 C66.456,174.345 69.142,171.659 72.456,171.659 C75.77,171.659 78.456,174.345 78.456,177.659 Z" fill="rgba(45,126,174,1)" stroke="rgba(255,255,255,1)" stroke-width="2"/>
<path d="M25.542,192.627 C25.542,195.94 22.856,198.627 19.542,198.627 C16.229,198.627 13.542,195.94 13.542,192.627 C13.542,189.313 16.229,186.627 19.542,186.627 C22.856,186.627 25.542,189.313 25.542,192.627 Z" fill="rgba(45,126,174,1)" stroke="rgba(255,255,255,1)" stroke-width="2"/>
<path d="M-44.245,158.589 C-44.245,161.903 -46.932,164.589 -50.245,164.589 C-53.559,164.589 -56.245,161.903 -56.245,158.589 C-56.245,155.275 -53.559,152.589 -50.245,152.589 C-46.932,152.589 -44.245,155.275 -44.245,158.589 Z" fill="rgba(45,126,174,1)" stroke="rgba(255,255,255,1)" stroke-width="2"/>
<path d="M-100.11,108.535 C-100.11,111.849 -102.796,114.535 -106.11,114.535 C-109.424,114.535 -112.11,111.849 -112.11,108.535 C-112.11,105.222 -109.424,102.535 -106.11,102.535 C-102.796,102.535 -100.11,105.222 -100.11,108.535 Z" fill="rgba(45,126,174,1)" stroke="rgba(255,255,255,1)" stroke-width="2"/>
<path d="M-143.529,44.164 C-143.529,47.478 -146.215,50.164 -149.529,50.164 C-152.843,50.164 -155.529,47.478 -155.529,44.164 C-155.529,40.85 -152.843,38.164 -149.529,38.164 C-146.215,38.164 -143.529,40.85 -143.529,44.164 Z" fill="rgba(45,126,174,1)" stroke="rgba(255,255,255,1)" stroke-width="2"/>
<path d="M-130.035,-9.144 C-130.035,-5.831 -132.721,-3.144 -136.035,-3.144 C-139.349,-3.144 -142.035,-5.831 -142.035,-9.144 C-142.035,-12.458 -139.349,-15.144 -136.035,-15.144 C-132.721,-15.144 -130.035,-12.458 -130.035,-9.144 Z" fill="rgba(45,126,174,1)" stroke="rgba(255,255,255,1)" stroke-width="2"/>
<path d="M-65.664,-52.563 C-65.664,-49.25 -68.35,-46.563 -71.664,-46.563 C-74.977,-46.563 -77.664,-49.25 -77.664,-52.563 C-77.664,-55.877 -74.977,-58.563 -71.664,-58.563 C-68.35,-58.563 -65.664,-55.877 -65.664,-52.563 Z" fill="rgba(45,126,174,1)" stroke="rgba(255,255,255,1)" stroke-width="2"/>
<text x="-20.487480630404917" y="-150.97850640840753" text-anchor="start" font-family="Verdana-Italic, Helvetica, Arial, sans-serif" font-size="36" fill="rgba(45,126,174,1)" transform="matrix(1 0 0 1 -2 63.83000110586099)">12</text>
<text x="84.79210351391305" y="-157.64054455642753" text-anchor="start" font-family="Verdana-Italic, Helvetica, Arial, sans-serif" font-size="36" fill="rgba(45,126,174,1)" transform="matrix(1 0 0 1 -2 63.83000110586099)">1</text>
<text x="133.27784737218565" y="-110.48163013409305" text-anchor="start" font-family="Verdana-Italic, Helvetica, Arial, sans-serif" font-size="36" fill="rgba(45,126,174,1)" transform="matrix(1 0 0 1 -2 63.83000110586099)">2</text>
<text x="139.93988552020568" y="-15.21004598977507" text-anchor="start" font-family="Verdana-Italic, Helvetica, Arial, sans-serif" font-size="36" fill="rgba(45,126,174,1)" transform="matrix(1 0 0 1 -2 63.83000110586099)">3</text>
<text x="120.97896229031501" y="75.08093900088078" text-anchor="start" font-family="Verdana-Italic, Helvetica, Arial, sans-serif" font-size="36" fill="rgba(45,126,174,1)" transform="matrix(1 0 0 1 -2 63.83000110586099)">4</text>
<text x="79.11266449532243" y="160.9195702026569" text-anchor="start" font-family="Verdana-Italic, Helvetica, Arial, sans-serif" font-size="36" fill="rgba(45,126,174,1)" transform="matrix(1 0 0 1 -2 63.83000110586099)">5</text>
<text x="14.028974661548164" y="179.32999889413904" text-anchor="start" font-family="Verdana-Italic, Helvetica, Arial, sans-serif" font-size="36" fill="rgba(45,126,174,1)" transform="matrix(1 0 0 1 -2 63.83000110586099)">6</text>
<text x="-71.80965654022798" y="137.46370109914645" text-anchor="start" font-family="Verdana-Italic, Helvetica, Arial, sans-serif" font-size="36" fill="rgba(45,126,174,1)" transform="matrix(1 0 0 1 -2 63.83000110586099)">7</text>
<text x="-140.52348165991006" y="75.89756740752675" text-anchor="start" font-family="Verdana-Italic, Helvetica, Arial, sans-serif" font-size="36" fill="rgba(45,126,174,1)" transform="matrix(1 0 0 1 -2 63.83000110586099)">8</text>
<text x="-193.92876800923554" y="-3.279025646229348" text-anchor="start" font-family="Verdana-Italic, Helvetica, Arial, sans-serif" font-size="36" fill="rgba(45,126,174,1)" transform="matrix(1 0 0 1 -2 63.83000110586099)">9</text>
<text x="-187.3388220337337" y="-68.84836876004591" text-anchor="start" font-family="Verdana-Italic, Helvetica, Arial, sans-serif" font-size="36" fill="rgba(45,126,174,1)" transform="matrix(1 0 0 1 -2 63.83000110586099)">10</text>
<text x="-108.16222897997774" y="-122.2536551093713" text-anchor="start" font-family="Verdana-Italic, Helvetica, Arial, sans-serif" font-size="36" fill="rgba(45,126,174,1)" transform="matrix(1 0 0 1 -2 63.83000110586099)">11</text>
</svg>