<svg xmlns="http://www.w3.org/2000/svg" viewBox="-140.64 -146.64 261.91 393.28">
<path d="M-75,194 L-75,222 L75,222 L75,194 L46.043,179.996 L32.439,150.849 L40.3,119.659 L66.094,100.443 L72.013,96.94 L76.56,91.778 L96.63,36.629 L94,-22 L-34,-92 L-68,-122 L-65.2,-92 L-116,12 L-99.395,24.932 L-89.912,28.882 L-80.141,25.71 L-74.787,16.943 L-70.471,7.056 L-61.745,0.711 L-51.009,-0.347 L-24.599,-6.285 L-7.968,-27.643 L-22.353,0.184 L-45.4,21.4 L-69.067,46.941 L-80,80 L-76.19,92.359 L-66.094,100.443 L-40.3,119.659 L-32.439,150.849 L-46.043,179.996 L-75,194 Z" fill="rgba(133,180,187,1)" stroke="rgba(0,0,0,1)" stroke-width="3"/>
</svg>