<svg xmlns="http://www.w3.org/2000/svg" viewBox="-77.67 -97.03 161.91 281.93">
<text x="-40" y="-105" text-anchor="start" font-family="Verdana, Helvetica, Arial, sans-serif" font-size="38" fill="rgba(112,112,112,1)" transform="matrix(1 0 0 1 0 54)">red</text>
<text x="-40" y="-52.5" text-anchor="start" font-family="Verdana, Helvetica, Arial, sans-serif" font-size="38" fill="rgba(112,112,112,1)" transform="matrix(1 0 0 1 0 54)">blue</text>
<text x="-40" y="0" text-anchor="start" font-family="Verdana, Helvetica, Arial, sans-serif" font-size="38" fill="rgba(112,112,112,1)" transform="matrix(1 0 0 1 0 54)">green</text>
<text x="-40" y="52.5" text-anchor="start" font-family="Verdana, Helvetica, Arial, sans-serif" font-size="38" fill="rgba(112,112,112,1)" transform="matrix(1 0 0 1 0 54)">blue</text>
<text x="-40" y="105" text-anchor="start" font-family="Verdana, Helvetica, Arial, sans-serif" font-size="38" fill="rgba(112,112,112,1)" transform="matrix(1 0 0 1 0 54)">yellow</text>
<path d="M63,-12.5 C63,2.964 35.689,15.5 2,15.5 C-31.689,15.5 -59,2.964 -59,-12.5 C-59,-27.964 -31.689,-40.5 2,-40.5 C35.689,-40.5 63,-27.964 63,-12.5 Z" fill="rgba(0,0,0,0)" stroke="rgba(0,0,249,1)" stroke-width="3"/>
<path d="M63,92.5 C63,107.964 35.689,120.5 2,120.5 C-31.689,120.5 -59,107.964 -59,92.5 C-59,77.036 -31.689,64.5 2,64.5 C35.689,64.5 63,77.036 63,92.5 Z" fill="rgba(0,0,0,0)" stroke="rgba(0,0,249,1)" stroke-width="3"/>
</svg>