<svg xmlns="http://www.w3.org/2000/svg" viewBox="-86.72 -87.72 189.44 172.44">
<path d="M24.255,-19.143 L23.535,-14.427 L22.364,-9.875 L20.767,-5.511 L18.767,-1.359 L16.388,2.558 L13.653,6.214 L10.588,9.588 L7.214,12.653 L3.558,15.388 L-0.359,17.767 L-4.511,19.767 L-8.875,21.364 L-13.427,22.535 L-18.143,23.255 L-23,23.5 L-27.857,23.255 L-32.573,22.535 L-37.125,21.364 L-41.489,19.767 L-45.641,17.767 L-49.558,15.388 L-53.214,12.653 L-56.588,9.588 L-59.653,6.214 L-62.388,2.558 L-64.767,-1.359 L-66.767,-5.511 L-68.364,-9.875 L-69.535,-14.427 L-70.255,-19.143 L-70.5,-24 L-70.255,-28.857 L-69.535,-33.573 L-68.364,-38.125 L-66.767,-42.489 L-64.767,-46.641 L-62.388,-50.558 L-59.653,-54.214 L-56.588,-57.588 L-53.214,-60.653 L-49.558,-63.388 L-45.641,-65.767 L-41.489,-67.767 L-37.125,-69.364 L-32.573,-70.535 L-27.857,-71.255 L-23,-71.5 L-18.143,-71.255 L-13.427,-70.535 L-8.875,-69.364 L-4.511,-67.767 L-0.359,-65.767 L3.558,-63.388 L7.214,-60.653 L10.588,-57.588 L13.653,-54.214 L16.388,-50.558 L18.767,-46.641 L20.767,-42.489 L22.364,-38.125 L23.535,-33.573 L24.255,-28.857 L24.5,-24 Z M26.742,-18.888 L25.984,-13.923 L24.752,-9.132 L23.071,-4.538 L20.965,-0.167 L18.461,3.955 L15.582,7.805 L12.355,11.355 L8.805,14.582 L4.955,17.461 L0.833,19.965 L-3.538,22.071 L-8.132,23.752 L-12.923,24.984 L-17.888,25.742 L-23,26 L-28.112,25.742 L-33.077,24.984 L-37.868,23.752 L-42.462,22.071 L-46.833,19.965 L-50.955,17.461 L-54.805,14.582 L-58.355,11.355 L-61.582,7.805 L-64.461,3.955 L-66.965,-0.167 L-69.071,-4.538 L-70.752,-9.132 L-71.984,-13.923 L-72.742,-18.888 L-73,-24 L-72.742,-29.112 L-71.984,-34.077 L-70.752,-38.868 L-69.071,-43.462 L-66.965,-47.833 L-64.461,-51.955 L-61.582,-55.805 L-58.355,-59.355 L-54.805,-62.582 L-50.955,-65.461 L-46.833,-67.965 L-42.462,-70.071 L-37.868,-71.752 L-33.077,-72.984 L-28.112,-73.742 L-23,-74 L-17.888,-73.742 L-12.923,-72.984 L-8.132,-71.752 L-3.538,-70.071 L0.833,-67.965 L4.955,-65.461 L8.805,-62.582 L12.355,-59.355 L15.582,-55.805 L18.461,-51.955 L20.965,-47.833 L23.071,-43.462 L24.752,-38.868 L25.984,-34.077 L26.742,-29.112 L27,-24 Z" fill="rgba(0,0,0,1)"/>
<path d="M86.255,-19.143 L85.535,-14.427 L84.364,-9.875 L82.767,-5.511 L80.767,-1.359 L78.388,2.558 L75.653,6.214 L72.588,9.588 L69.214,12.653 L65.558,15.388 L61.641,17.767 L57.489,19.767 L53.125,21.364 L48.573,22.535 L43.857,23.255 L39,23.5 L34.143,23.255 L29.427,22.535 L24.875,21.364 L20.511,19.767 L16.359,17.767 L12.442,15.388 L8.786,12.653 L5.412,9.588 L2.347,6.214 L-0.388,2.558 L-2.767,-1.359 L-4.767,-5.511 L-6.364,-9.875 L-7.535,-14.427 L-8.255,-19.143 L-8.5,-24 L-8.255,-28.857 L-7.535,-33.573 L-6.364,-38.125 L-4.767,-42.489 L-2.767,-46.641 L-0.388,-50.558 L2.347,-54.214 L5.412,-57.588 L8.786,-60.653 L12.442,-63.388 L16.359,-65.767 L20.511,-67.767 L24.875,-69.364 L29.427,-70.535 L34.143,-71.255 L39,-71.5 L43.857,-71.255 L48.573,-70.535 L53.125,-69.364 L57.489,-67.767 L61.641,-65.767 L65.558,-63.388 L69.214,-60.653 L72.588,-57.588 L75.653,-54.214 L78.388,-50.558 L80.767,-46.641 L82.767,-42.489 L84.364,-38.125 L85.535,-33.573 L86.255,-28.857 L86.5,-24 Z M88.742,-18.888 L87.984,-13.923 L86.752,-9.132 L85.071,-4.538 L82.965,-0.167 L80.461,3.955 L77.582,7.805 L74.355,11.355 L70.805,14.582 L66.955,17.461 L62.833,19.965 L58.462,22.071 L53.868,23.752 L49.077,24.984 L44.112,25.742 L39,26 L33.888,25.742 L28.923,24.984 L24.132,23.752 L19.538,22.071 L15.167,19.965 L11.045,17.461 L7.195,14.582 L3.645,11.355 L0.418,7.805 L-2.461,3.955 L-4.965,-0.167 L-7.071,-4.538 L-8.752,-9.132 L-9.984,-13.923 L-10.742,-18.888 L-11,-24 L-10.742,-29.112 L-9.984,-34.077 L-8.752,-38.868 L-7.071,-43.462 L-4.965,-47.833 L-2.461,-51.955 L0.418,-55.805 L3.645,-59.355 L7.195,-62.582 L11.045,-65.461 L15.167,-67.965 L19.538,-70.071 L24.132,-71.752 L28.923,-72.984 L33.888,-73.742 L39,-74 L44.112,-73.742 L49.077,-72.984 L53.868,-71.752 L58.462,-70.071 L62.833,-67.965 L66.955,-65.461 L70.805,-62.582 L74.355,-59.355 L77.582,-55.805 L80.461,-51.955 L82.965,-47.833 L85.071,-43.462 L86.752,-38.868 L87.984,-34.077 L88.742,-29.112 L89,-24 Z" fill="rgba(0,0,0,1)"/>
<path d="M62.255,25.857 L61.535,30.573 L60.364,35.125 L58.767,39.489 L56.767,43.641 L54.388,47.558 L51.653,51.214 L48.588,54.588 L45.214,57.653 L41.558,60.388 L37.641,62.767 L33.489,64.767 L29.125,66.364 L24.573,67.535 L19.857,68.255 L15,68.5 L10.143,68.255 L5.427,67.535 L0.875,66.364 L-3.489,64.767 L-7.641,62.767 L-11.558,60.388 L-15.214,57.653 L-18.588,54.588 L-21.653,51.214 L-24.388,47.558 L-26.767,43.641 L-28.767,39.489 L-30.364,35.125 L-31.535,30.573 L-32.255,25.857 L-32.5,21 L-32.255,16.143 L-31.535,11.427 L-30.364,6.875 L-28.767,2.511 L-26.767,-1.641 L-24.388,-5.558 L-21.653,-9.214 L-18.588,-12.588 L-15.214,-15.653 L-11.558,-18.388 L-7.641,-20.767 L-3.489,-22.767 L0.875,-24.364 L5.427,-25.535 L10.143,-26.255 L15,-26.5 L19.857,-26.255 L24.573,-25.535 L29.125,-24.364 L33.489,-22.767 L37.641,-20.767 L41.558,-18.388 L45.214,-15.653 L48.588,-12.588 L51.653,-9.214 L54.388,-5.558 L56.767,-1.641 L58.767,2.511 L60.364,6.875 L61.535,11.427 L62.255,16.143 L62.5,21 Z M64.742,26.112 L63.984,31.077 L62.752,35.868 L61.071,40.462 L58.965,44.833 L56.461,48.955 L53.582,52.805 L50.355,56.355 L46.805,59.582 L42.955,62.461 L38.833,64.965 L34.462,67.071 L29.868,68.752 L25.077,69.984 L20.112,70.742 L15,71 L9.888,70.742 L4.923,69.984 L0.132,68.752 L-4.462,67.071 L-8.833,64.965 L-12.955,62.461 L-16.805,59.582 L-20.355,56.355 L-23.582,52.805 L-26.461,48.955 L-28.965,44.833 L-31.071,40.462 L-32.752,35.868 L-33.984,31.077 L-34.742,26.112 L-35,21 L-34.742,15.888 L-33.984,10.923 L-32.752,6.132 L-31.071,1.538 L-28.965,-2.833 L-26.461,-6.955 L-23.582,-10.805 L-20.355,-14.355 L-16.805,-17.582 L-12.955,-20.461 L-8.833,-22.965 L-4.462,-25.071 L0.132,-26.752 L4.923,-27.984 L9.888,-28.742 L15,-29 L20.112,-28.742 L25.077,-27.984 L29.868,-26.752 L34.462,-25.071 L38.833,-22.965 L42.955,-20.461 L46.805,-17.582 L50.355,-14.355 L53.582,-10.805 L56.461,-6.955 L58.965,-2.833 L61.071,1.538 L62.752,6.132 L63.984,10.923 L64.742,15.888 L65,21 Z" fill="rgba(0,0,0,1)"/>
</svg>