<svg xmlns="http://www.w3.org/2000/svg" viewBox="-280.2 -194.62 567.22 469.75">
<path d="M-175.332,16.424 L-176.275,15.553 L-176.163,15.944 Z M-162.762,-9.428 L-170.516,-6.906 L-167.252,-3.968 Z M-162.762,-9.428 L-162.73,-9.467 L-162.668,-9.459 Z M-162.668,-9.459 L-162.657,-9.462 L-162.643,-9.455 Z M-161.197,-8.751 L-162.529,-9.4 L-162.512,-9.437 L-162.643,-9.455 L-162.529,-9.4 L-162.77,-8.86 Z M-159.056,20.131 L-157.594,14.742 L-157.142,14.41 L-156.727,14.04 L-155.614,19.275 Z M-154.308,18.691 L-154.773,19.065 L-154.5,18.997 Z M-152.872,16.396 L-152.333,17.099 L-154.308,18.691 L-152.872,16.396 L-155.592,12.851 L-155.265,12.421 L-150.685,12.902 Z M-97.688,20.133 L-99.406,26.691 L-101.736,32.951 L-104.642,38.881 L-108.085,44.452 L-112.029,49.634 L-116.437,54.396 L-121.271,58.707 L-126.493,62.539 L-132.068,65.86 L-137.956,68.641 L-144.121,70.851 L-144.624,70.978 L-155.529,19.675 L-154.773,19.065 L-155.614,19.275 L-155.529,19.675 L-155.579,19.714 L-159.397,21.386 L-159.056,20.131 L-164.731,21.543 L-164.599,21.977 L-165.461,21.725 L-164.731,21.543 L-166.289,16.427 L-166.93,16.259 L-166.995,16.235 L-165.852,21.61 L-166.872,21.312 L-165.948,21.846 L-165.81,21.811 L-165.852,21.61 L-165.461,21.725 L-165.81,21.811 L-154.906,73.109 L-157.133,73.438 L-163.906,73.755 L-170.806,73.38 L-177.633,72.312 L-184.191,70.594 L-190.451,68.264 L-196.381,65.358 L-201.952,61.915 L-207.134,57.971 L-211.896,53.563 L-216.207,48.729 L-219.367,44.423 L-173.617,18.009 L-175.332,16.424 L-173.103,17.712 L-173.617,18.009 L-171.511,19.955 L-166.872,21.312 L-173.103,17.712 L-168.995,15.34 L-169.693,14.909 L-170.499,14.295 L-170.94,13.887 L-176.435,14.994 L-176.275,15.553 L-176.8,15.067 L-176.435,14.994 L-177.089,12.713 L-173.939,8.747 L-174.049,8.307 L-174.202,7.279 L-174.25,6.25 L-178.276,8.574 L-177.089,12.713 L-177.725,13.514 L-178.652,8.792 L-178.276,8.574 L-179.388,4.694 L-179.173,4.151 L-179.414,4.604 L-179.388,4.694 L-179.434,4.81 L-178.652,8.792 L-224.596,35.317 L-226.141,32.044 L-228.351,25.879 L-229.96,19.474 L-230.938,12.867 L-231.255,6.094 L-230.88,-0.806 L-229.812,-7.633 L-228.094,-14.191 L-225.764,-20.451 L-222.858,-26.381 L-219.415,-31.952 L-217.223,-34.832 L-177.794,0.669 L-179.173,4.151 L-177.475,0.957 L-177.794,0.669 L-176.169,-3.437 L-175.62,-2.533 L-177.475,0.957 L-174.02,4.067 L-173.759,3.07 L-173.397,2.097 L-173.135,1.564 L-175.62,-2.533 L-173.876,-5.813 L-170.516,-6.906 L-210.215,-42.652 L-206.229,-46.207 L-201.007,-50.039 L-195.432,-53.36 L-189.544,-56.141 L-183.379,-58.351 L-176.974,-59.96 L-170.367,-60.938 L-163.594,-61.255 L-156.694,-60.88 L-149.867,-59.812 L-143.309,-58.094 L-141.199,-57.309 L-162.512,-9.437 L-160.52,-9.165 L-158.375,-8.554 L-161.197,-8.751 L-152.052,-4.296 L-148.009,6.787 L-147.616,6.801 L-148.241,8.997 L-150.685,12.902 L-97.432,18.499 Z M-147.616,6.801 L-130.702,-52.601 L-125.548,-49.415 L-120.366,-45.471 L-115.604,-41.063 L-111.293,-36.229 L-107.461,-31.007 L-104.14,-25.432 L-101.359,-19.544 L-99.149,-13.379 L-97.54,-6.974 L-96.562,-0.367 L-96.245,6.406 L-96.361,8.551 Z M-83.529,25.509 L-84.446,28.99 L-92.221,28.803 L-92.943,30.977 L-93.731,33.128 L-94.585,35.253 L-95.503,37.352 L-89.599,42.416 L-91.248,45.616 L-93.034,48.741 L-100.496,46.547 L-101.756,48.46 L-103.074,50.334 L-104.448,52.166 L-105.878,53.956 L-101.486,60.375 L-103.907,63.039 L-106.441,65.596 L-113.081,61.546 L-114.793,63.067 L-116.551,64.536 L-118.353,65.95 L-120.197,67.309 L-117.617,74.646 L-120.644,76.593 L-123.753,78.406 L-129.119,72.776 L-131.167,73.802 L-133.245,74.766 L-135.351,75.666 L-137.484,76.5 L-136.891,84.255 L-140.319,85.353 L-143.791,86.299 L-147.517,79.472 L-149.761,79.934 L-152.017,80.327 L-154.285,80.65 L-156.562,80.905 L-157.995,88.549 L-161.59,88.722 L-165.19,88.737 L-167.021,81.179 L-169.308,81.044 L-171.59,80.839 L-173.864,80.565 L-176.129,80.221 L-179.492,87.234 L-183.009,86.471 L-186.49,85.554 L-186.303,77.779 L-188.477,77.057 L-190.628,76.269 L-192.753,75.415 L-194.852,74.497 L-199.916,80.401 L-203.116,78.752 L-206.241,76.966 L-204.047,69.504 L-205.96,68.244 L-207.834,66.926 L-209.666,65.552 L-211.456,64.122 L-217.875,68.514 L-220.539,66.093 L-223.096,63.559 L-219.046,56.919 L-220.567,55.207 L-222.036,53.449 L-223.45,51.647 L-224.809,49.803 L-232.146,52.383 L-234.093,49.356 L-235.906,46.247 L-230.276,40.881 L-231.302,38.833 L-232.266,36.755 L-233.166,34.649 L-234,32.516 L-241.755,33.109 L-242.853,29.681 L-243.799,26.209 L-236.972,22.483 L-237.434,20.239 L-237.827,17.983 L-238.15,15.715 L-238.405,13.438 L-246.049,12.005 L-246.222,8.41 L-246.237,4.81 L-238.679,2.979 L-238.544,0.692 L-238.339,-1.59 L-238.065,-3.864 L-237.721,-6.129 L-244.734,-9.492 L-243.971,-13.009 L-243.054,-16.49 L-235.279,-16.303 L-234.557,-18.477 L-233.769,-20.628 L-232.915,-22.753 L-231.997,-24.852 L-237.901,-29.916 L-236.252,-33.116 L-234.466,-36.241 L-227.004,-34.047 L-225.744,-35.96 L-224.426,-37.834 L-223.052,-39.666 L-221.622,-41.456 L-226.014,-47.875 L-223.593,-50.539 L-221.059,-53.096 L-214.419,-49.046 L-212.707,-50.567 L-210.949,-52.036 L-209.147,-53.45 L-207.303,-54.809 L-209.883,-62.146 L-206.856,-64.093 L-203.747,-65.906 L-198.381,-60.276 L-196.333,-61.302 L-194.255,-62.266 L-192.149,-63.166 L-190.016,-64 L-190.609,-71.755 L-187.181,-72.853 L-183.709,-73.799 L-179.983,-66.972 L-177.739,-67.434 L-175.483,-67.827 L-173.215,-68.15 L-170.938,-68.405 L-169.505,-76.049 L-165.91,-76.222 L-162.31,-76.237 L-160.479,-68.679 L-158.192,-68.544 L-155.91,-68.339 L-153.636,-68.065 L-151.371,-67.721 L-148.008,-74.734 L-144.491,-73.971 L-141.01,-73.054 L-141.197,-65.279 L-139.023,-64.557 L-136.872,-63.769 L-134.747,-62.915 L-132.648,-61.997 L-127.584,-67.901 L-124.384,-66.252 L-121.259,-64.466 L-123.453,-57.004 L-121.54,-55.744 L-119.666,-54.426 L-117.834,-53.052 L-116.044,-51.622 L-109.625,-56.014 L-106.961,-53.593 L-104.404,-51.059 L-108.454,-44.419 L-106.933,-42.707 L-105.464,-40.949 L-104.05,-39.147 L-102.691,-37.303 L-95.354,-39.883 L-93.407,-36.856 L-91.594,-33.747 L-97.224,-28.381 L-96.198,-26.333 L-95.234,-24.255 L-94.334,-22.149 L-93.5,-20.016 L-85.745,-20.609 L-84.647,-17.181 L-83.701,-13.709 L-90.528,-9.983 L-90.066,-7.739 L-89.673,-5.483 L-89.35,-3.215 L-89.095,-0.938 L-81.451,0.495 L-81.278,4.09 L-81.263,7.69 L-88.821,9.521 L-88.956,11.808 L-89.161,14.09 L-89.435,16.364 L-89.779,18.629 L-82.766,21.992 Z" fill="rgba(104,193,130,1)" stroke="rgba(0,0,0,1)" stroke-width="1"/>
<path d="M-39.561,-37.872 L-40.426,-38.289 L-40.261,-38.034 Z M-36.212,-59.171 L-41.22,-55.661 L-38.235,-54.269 Z M-36.212,-59.171 L-36.198,-59.205 L-36.153,-59.212 Z M-36.153,-59.212 L-36.146,-59.217 L-36.135,-59.215 Z M-34.943,-59.027 L-36.039,-59.2 L-36.035,-59.231 L-36.135,-59.215 L-36.039,-59.2 L-36.093,-58.761 Z M-27.071,-38.783 L-27.205,-42.969 L-26.954,-43.305 L-26.738,-43.661 L-24.791,-40.15 Z M-23.984,-40.854 L-24.235,-40.484 L-24.055,-40.592 Z M-23.456,-42.817 L-22.915,-42.43 L-23.984,-40.854 L-23.456,-42.817 L-26.185,-44.763 L-26.044,-45.143 L-22.654,-45.802 Z M16.943,-52.237 L17.149,-47.157 L16.85,-42.156 L16.067,-37.265 L14.818,-32.515 L13.126,-27.933 L11.008,-23.552 L8.487,-19.399 L5.581,-15.506 L2.312,-11.901 L-1.302,-8.616 L-5.239,-5.679 L-5.572,-5.478 L-24.643,-39.882 L-24.235,-40.484 L-24.791,-40.15 L-24.643,-39.882 L-24.669,-39.844 L-27.039,-37.808 L-27.071,-38.783 L-30.834,-36.525 L-30.643,-36.242 L-31.318,-36.234 L-30.834,-36.525 L-33.073,-39.852 L-33.569,-39.832 L-33.621,-39.835 L-31.623,-36.23 L-32.421,-36.221 L-31.641,-36.04 L-31.548,-36.096 L-31.623,-36.23 L-31.318,-36.234 L-31.548,-36.096 L-12.479,-1.695 L-14.004,-0.97 L-18.792,0.742 L-23.823,1.987 L-28.954,2.718 L-34.035,2.924 L-39.035,2.625 L-43.926,1.841 L-48.677,0.593 L-53.258,-1.1 L-57.64,-3.217 L-61.792,-5.738 L-65.003,-8.134 L-37.982,-37.111 L-39.561,-37.872 L-37.678,-37.436 L-37.982,-37.111 L-36.043,-36.177 L-32.421,-36.221 L-37.678,-37.436 L-35.251,-40.038 L-35.846,-40.195 L-36.559,-40.458 L-36.963,-40.654 L-40.663,-38.653 L-40.426,-38.289 L-40.908,-38.521 L-40.663,-38.653 L-41.633,-40.147 L-40.243,-43.684 L-40.419,-43.975 L-40.753,-44.678 L-41.014,-45.406 L-43.392,-42.856 L-41.633,-40.147 L-41.913,-39.434 L-43.614,-42.618 L-43.392,-42.856 L-45.04,-45.395 L-45.005,-45.835 L-45.078,-45.454 L-45.04,-45.395 L-45.047,-45.301 L-43.614,-42.618 L-70.749,-13.519 L-72.576,-15.527 L-75.513,-19.464 L-78.071,-23.705 L-80.221,-28.23 L-81.934,-33.018 L-83.178,-38.049 L-83.909,-43.18 L-84.115,-48.26 L-83.816,-53.261 L-83.033,-58.151 L-81.784,-62.902 L-80.843,-65.448 L-44.78,-48.632 L-45.005,-45.835 L-44.488,-48.495 L-44.78,-48.632 L-44.515,-51.93 L-43.923,-51.402 L-44.488,-48.495 L-41.328,-47.022 L-41.359,-47.794 L-41.313,-48.572 L-41.242,-49.01 L-43.923,-51.402 L-43.391,-54.139 L-41.22,-55.661 L-77.532,-72.593 L-75.453,-76.018 L-72.547,-79.911 L-69.278,-83.515 L-65.664,-86.801 L-61.727,-89.738 L-57.486,-92.297 L-52.962,-94.447 L-48.174,-96.159 L-43.143,-97.403 L-38.012,-98.134 L-32.931,-98.34 L-31.246,-98.24 L-36.035,-59.231 L-34.548,-59.473 L-32.877,-59.505 L-34.943,-59.027 L-27.407,-57.838 L-22.076,-50.777 L-21.791,-50.854 L-21.757,-49.136 L-22.654,-45.802 L16.768,-53.465 Z M-21.791,-50.854 L-22.709,-97.171 L-18.289,-96.01 L-13.708,-94.317 L-9.326,-92.2 L-5.174,-89.678 L-1.28,-86.773 L2.324,-83.503 L5.61,-79.89 L8.547,-75.952 L11.105,-71.712 L13.255,-67.187 L14.968,-62.399 L15.352,-60.847 Z M30.257,-48.821 L30.214,-45.113 L22.606,-43.458 L22.387,-41.178 L22.074,-38.909 L21.67,-36.654 L21.174,-34.418 L27.899,-30.493 L26.794,-26.953 L25.485,-23.484 L17.77,-24.531 L16.784,-22.463 L15.714,-20.438 L14.563,-18.457 L13.333,-16.526 L18.309,-10.538 L16.06,-7.589 L13.644,-4.776 L6.752,-8.399 L5.118,-6.794 L3.42,-5.256 L1.661,-3.789 L-0.156,-2.394 L2.472,4.934 L-0.649,6.936 L-3.882,8.753 L-9.119,2.991 L-11.203,3.941 L-13.325,4.806 L-15.48,5.583 L-17.664,6.271 L-17.701,14.057 L-21.319,14.87 L-24.978,15.472 L-27.929,8.267 L-30.212,8.446 L-32.501,8.533 L-34.792,8.526 L-37.08,8.426 L-39.778,15.73 L-43.456,15.257 L-47.1,14.57 L-47.408,6.791 L-49.616,6.179 L-51.796,5.477 L-53.946,4.687 L-56.063,3.811 L-61.095,9.751 L-64.39,8.049 L-67.579,6.157 L-65.208,-1.259 L-67.073,-2.589 L-68.882,-3.994 L-70.633,-5.471 L-72.321,-7.019 L-79.082,-3.158 L-81.596,-5.885 L-83.946,-8.753 L-79.182,-14.911 L-80.479,-16.798 L-81.699,-18.737 L-82.838,-20.725 L-83.896,-22.756 L-91.57,-21.441 L-92.999,-24.862 L-94.226,-28.362 L-87.643,-32.519 L-88.217,-34.736 L-88.7,-36.975 L-89.091,-39.232 L-89.39,-41.503 L-97.051,-42.891 L-97.223,-46.596 L-97.18,-50.304 L-89.572,-51.959 L-89.353,-54.239 L-89.04,-56.508 L-88.636,-58.762 L-88.14,-60.999 L-94.865,-64.923 L-93.76,-68.463 L-92.451,-71.933 L-84.736,-70.886 L-83.75,-72.953 L-82.68,-74.979 L-81.529,-76.959 L-80.299,-78.891 L-85.275,-84.879 L-83.026,-87.828 L-80.609,-90.64 L-73.718,-87.018 L-72.084,-88.623 L-70.386,-90.161 L-68.627,-91.628 L-66.81,-93.022 L-69.438,-100.351 L-66.317,-102.353 L-63.084,-104.169 L-57.847,-98.408 L-55.762,-99.358 L-53.641,-100.222 L-51.486,-100.999 L-49.302,-101.688 L-49.265,-109.474 L-45.647,-110.287 L-41.988,-110.889 L-39.037,-103.683 L-36.754,-103.863 L-34.465,-103.95 L-32.174,-103.943 L-29.886,-103.843 L-27.188,-111.147 L-23.51,-110.673 L-19.866,-109.987 L-19.558,-102.207 L-17.35,-101.595 L-15.17,-100.894 L-13.02,-100.104 L-10.903,-99.228 L-5.871,-105.168 L-2.576,-103.465 L0.613,-101.574 L-1.758,-94.158 L0.107,-92.828 L1.916,-91.423 L3.667,-89.945 L5.355,-88.398 L12.117,-92.259 L14.63,-89.532 L16.98,-86.664 L12.216,-80.506 L13.513,-78.618 L14.733,-76.679 L15.872,-74.692 L16.93,-72.66 L24.604,-73.976 L26.033,-70.554 L27.26,-67.055 L20.677,-62.898 L21.251,-60.681 L21.734,-58.441 L22.125,-56.184 L22.424,-53.913 L30.085,-52.525 Z" fill="rgba(133,97,200,1)" stroke="rgba(0,0,0,1)" stroke-width="1"/>
<path d="M-165.841,-108.58 L-166.468,-108.687 L-166.317,-108.555 Z M-167.605,-122.845 L-170.17,-119.674 L-168.001,-119.331 Z M-167.605,-122.845 L-167.602,-122.868 L-167.576,-122.881 Z M-167.576,-122.881 L-167.573,-122.885 L-167.566,-122.886 Z M-166.767,-122.984 L-167.5,-122.894 L-167.503,-122.915 L-167.566,-122.886 L-167.5,-122.894 L-167.454,-122.603 Z M-157.998,-111.46 L-158.856,-114.117 L-158.757,-114.378 L-158.684,-114.646 L-156.791,-112.753 Z M-156.404,-113.35 L-156.496,-113.068 L-156.401,-113.17 Z M-156.426,-114.708 L-156.008,-114.56 L-156.404,-113.35 L-156.426,-114.708 L-158.532,-115.453 L-158.511,-115.723 L-156.459,-116.769 Z M-132.267,-128.168 L-131.202,-124.95 L-130.474,-121.691 L-130.078,-118.413 L-130.005,-115.139 L-130.247,-111.892 L-130.799,-108.695 L-131.652,-105.571 L-132.798,-102.542 L-134.231,-99.631 L-135.943,-96.861 L-137.927,-94.256 L-138.103,-94.066 L-156.647,-112.609 L-156.496,-113.068 L-156.791,-112.753 L-156.647,-112.609 L-156.656,-112.582 L-157.799,-110.842 L-157.998,-111.46 L-159.997,-109.32 L-159.823,-109.174 L-160.256,-109.044 L-159.997,-109.32 L-162.043,-111.041 L-162.358,-110.937 L-162.392,-110.929 L-160.449,-108.986 L-160.96,-108.833 L-160.427,-108.86 L-160.377,-108.914 L-160.449,-108.986 L-160.256,-109.044 L-160.377,-108.914 L-141.834,-90.372 L-142.679,-89.627 L-145.432,-87.65 L-148.428,-85.929 L-151.582,-84.517 L-154.8,-83.452 L-158.059,-82.724 L-161.337,-82.328 L-164.611,-82.255 L-167.858,-82.497 L-171.055,-83.049 L-174.179,-83.902 L-176.677,-84.847 L-164.686,-108.382 L-165.841,-108.58 L-164.551,-108.647 L-164.686,-108.382 L-163.27,-108.14 L-160.96,-108.833 L-164.551,-108.647 L-163.474,-110.76 L-163.884,-110.751 L-164.389,-110.788 L-164.682,-110.839 L-166.685,-108.875 L-166.468,-108.687 L-166.816,-108.746 L-166.685,-108.875 L-167.584,-109.657 L-167.343,-112.178 L-167.509,-112.333 L-167.852,-112.722 L-168.153,-113.141 L-169.208,-111.07 L-167.584,-109.657 L-167.632,-109.148 L-169.307,-110.876 L-169.208,-111.07 L-170.73,-112.393 L-170.79,-112.686 L-170.767,-112.425 L-170.73,-112.393 L-170.718,-112.33 L-169.307,-110.876 L-181.349,-87.242 L-182.889,-88.193 L-185.494,-90.177 L-187.913,-92.424 L-190.123,-94.929 L-192.1,-97.682 L-193.821,-100.678 L-195.233,-103.832 L-196.298,-107.05 L-197.026,-110.309 L-197.422,-113.587 L-197.495,-116.861 L-197.36,-118.666 L-171.16,-114.516 L-170.79,-112.686 L-170.947,-114.482 L-171.16,-114.516 L-171.596,-116.675 L-171.119,-116.445 L-170.947,-114.482 L-168.651,-114.119 L-168.813,-114.608 L-168.926,-115.115 L-168.961,-115.406 L-171.119,-116.445 L-171.282,-118.3 L-170.17,-119.674 L-196.551,-123.853 L-195.848,-126.429 L-194.702,-129.458 L-193.269,-132.369 L-191.557,-135.139 L-189.573,-137.744 L-187.326,-140.163 L-184.821,-142.373 L-182.068,-144.35 L-179.072,-146.071 L-175.918,-147.483 L-172.7,-148.548 L-171.602,-148.794 L-167.503,-122.915 L-166.596,-123.343 L-165.533,-123.671 L-166.767,-122.984 L-161.72,-123.609 L-157.006,-120.066 L-156.837,-120.168 L-156.496,-119.066 L-156.459,-116.769 L-132.605,-128.923 Z M-156.837,-120.168 L-165.968,-149.677 L-162.889,-149.745 L-159.642,-149.503 L-156.445,-148.951 L-153.321,-148.098 L-150.292,-146.952 L-147.381,-145.519 L-144.611,-143.807 L-142.006,-141.823 L-139.587,-139.576 L-137.377,-137.071 L-135.4,-134.318 L-134.877,-133.407 Z M-119.733,-125.356 L-119.085,-121.484 L-126.341,-118.616 L-126.251,-116.327 L-126.301,-114.037 L-126.491,-111.755 L-126.82,-109.488 L-119.903,-105.877 L-120.952,-102.094 L-122.327,-98.417 L-130.045,-99.561 L-131.112,-97.534 L-132.3,-95.576 L-133.605,-93.694 L-135.023,-91.895 L-130.839,-85.31 L-133.639,-82.558 L-136.668,-80.061 L-142.78,-84.911 L-144.717,-83.689 L-146.725,-82.587 L-148.797,-81.61 L-150.924,-80.762 L-150.593,-72.966 L-154.394,-71.983 L-158.266,-71.335 L-161.134,-78.591 L-163.423,-78.501 L-165.713,-78.551 L-167.995,-78.741 L-170.262,-79.07 L-173.873,-72.153 L-177.656,-73.202 L-181.333,-74.577 L-180.189,-82.295 L-182.216,-83.362 L-184.174,-84.55 L-186.056,-85.855 L-187.855,-87.273 L-194.44,-83.089 L-197.192,-85.889 L-199.689,-88.918 L-194.839,-95.03 L-196.061,-96.967 L-197.163,-98.975 L-198.14,-101.047 L-198.988,-103.174 L-206.784,-102.843 L-207.767,-106.644 L-208.415,-110.516 L-201.159,-113.384 L-201.249,-115.673 L-201.199,-117.963 L-201.009,-120.245 L-200.68,-122.512 L-207.597,-126.123 L-206.548,-129.906 L-205.173,-133.583 L-197.455,-132.439 L-196.388,-134.466 L-195.2,-136.424 L-193.895,-138.306 L-192.477,-140.105 L-196.661,-146.69 L-193.861,-149.442 L-190.832,-151.939 L-184.72,-147.089 L-182.783,-148.311 L-180.775,-149.413 L-178.703,-150.39 L-176.576,-151.238 L-176.907,-159.034 L-173.106,-160.017 L-169.234,-160.665 L-166.366,-153.409 L-164.077,-153.499 L-161.787,-153.449 L-159.505,-153.259 L-157.238,-152.93 L-153.627,-159.847 L-149.844,-158.798 L-146.167,-157.423 L-147.311,-149.705 L-145.284,-148.638 L-143.326,-147.45 L-141.444,-146.145 L-139.645,-144.727 L-133.06,-148.911 L-130.308,-146.111 L-127.811,-143.082 L-132.661,-136.97 L-131.439,-135.033 L-130.337,-133.025 L-129.36,-130.953 L-128.512,-128.826 L-120.716,-129.157 Z" fill="rgba(250,213,92,1)" stroke="rgba(0,0,0,1)" stroke-width="0.7692307692307693"/>
<path d="M-147.713,7.936 L-147.88,9.105 L-148.132,10.26 L-141.281,13.551 L-142.167,15.859 L-143.29,18.063 L-150.319,15.173 L-151.009,16.133 L-151.767,17.04 L-151.767,17.04 L-152.589,17.888 L-153.472,18.675 L-149.864,25.363 L-151.938,26.71 L-154.141,27.833 L-158.129,21.364 L-159.251,21.735 L-160.397,22.023 L-160.397,22.023 L-161.562,22.226 L-162.738,22.343 L-163.75,29.875 L-166.219,29.746 L-168.662,29.359 L-168.086,21.781 L-169.212,21.422 L-170.309,20.981 L-170.309,20.981 L-171.37,20.461 L-172.39,19.865 L-177.636,25.363 L-179.558,23.807 L-181.307,22.058 L-176.387,16.266 L-177.087,15.314 L-177.715,14.313 L-177.715,14.312 L-178.268,13.268 L-178.743,12.186 L-186.219,13.551 L-186.859,11.162 L-187.246,8.719 L-179.861,6.925 L-179.867,5.744 L-179.787,4.564 L-179.787,4.564 L-179.62,3.395 L-179.368,2.24 L-186.219,-1.051 L-185.333,-3.359 L-184.21,-5.562 L-177.181,-2.673 L-176.491,-3.633 L-175.733,-4.54 L-175.733,-4.54 L-174.911,-5.388 L-174.028,-6.175 L-177.636,-12.863 L-175.563,-14.21 L-173.359,-15.333 L-169.371,-8.864 L-168.249,-9.235 L-167.103,-9.523 L-167.103,-9.523 L-165.938,-9.726 L-164.762,-9.843 L-163.75,-17.375 L-161.281,-17.246 L-158.838,-16.859 L-159.414,-9.281 L-158.288,-8.922 L-157.191,-8.481 L-157.191,-8.481 L-156.13,-7.961 L-155.11,-7.365 L-149.864,-12.863 L-147.942,-11.307 L-146.193,-9.558 L-151.113,-3.766 L-150.413,-2.814 L-149.785,-1.813 L-149.785,-1.813 L-149.232,-0.768 L-148.757,0.314 L-141.281,-1.051 L-140.641,1.338 L-140.254,3.781 L-147.639,5.575 L-147.633,6.756 L-147.713,7.936" fill="rgba(38,125,179,1)" stroke="rgba(0,0,0,1)" stroke-width="0.33076923076923076"/>
<path d="M-121.408,45.007 L-121.809,44.637 L-121.761,44.803 Z M-115.996,33.892 L-119.332,34.978 L-117.928,36.242 Z M-115.996,33.892 L-115.984,33.877 L-115.96,33.88 Z M-115.96,33.88 L-115.956,33.879 L-115.95,33.882 Z M-115.328,34.184 L-115.898,33.907 L-115.89,33.89 L-115.95,33.882 L-115.898,33.907 L-116.001,34.138 Z M-114.399,46.604 L-113.774,44.286 L-113.581,44.144 L-113.403,43.985 L-112.924,46.238 Z M-112.367,45.989 L-112.565,46.148 L-112.449,46.12 Z M-111.745,44.998 L-111.513,45.301 L-112.367,45.989 L-111.745,44.998 L-112.915,43.474 L-112.774,43.289 L-110.804,43.496 Z M-88.016,46.605 L-88.754,49.425 L-89.756,52.117 L-91.006,54.667 L-92.487,57.062 L-94.183,59.29 L-96.078,61.338 L-98.156,63.192 L-100.402,64.84 L-102.799,66.268 L-105.331,67.464 L-107.982,68.414 L-108.199,68.468 L-112.887,46.408 L-112.565,46.148 L-112.924,46.238 L-112.887,46.408 L-112.906,46.423 L-114.544,47.142 L-114.399,46.604 L-116.845,47.211 L-116.788,47.398 L-117.161,47.289 L-116.845,47.211 L-117.514,45.011 L-117.79,44.939 L-117.818,44.929 L-117.326,47.241 L-117.768,47.111 L-117.371,47.341 L-117.308,47.326 L-117.326,47.241 L-117.161,47.289 L-117.308,47.326 L-112.62,69.385 L-113.577,69.526 L-116.489,69.663 L-119.456,69.501 L-122.392,69.042 L-125.212,68.304 L-127.904,67.301 L-130.454,66.052 L-132.85,64.571 L-135.078,62.875 L-137.125,60.98 L-138.979,58.901 L-140.338,57.05 L-120.666,45.692 L-121.408,45.007 L-120.444,45.564 L-120.666,45.692 L-119.757,46.53 L-117.768,47.111 L-120.444,45.564 L-118.678,44.544 L-118.978,44.359 L-119.324,44.095 L-119.511,43.922 L-121.876,44.401 L-121.809,44.637 L-122.031,44.432 L-121.876,44.401 L-122.159,43.415 L-120.804,41.709 L-120.851,41.52 L-120.917,41.078 L-120.937,40.635 L-122.669,41.635 L-122.159,43.415 L-122.432,43.759 L-122.831,41.729 L-122.669,41.635 L-123.146,39.968 L-123.051,39.727 L-123.158,39.928 L-123.146,39.968 L-123.167,40.02 L-122.831,41.729 L-142.586,53.134 L-143.251,51.727 L-144.201,49.076 L-144.893,46.322 L-145.313,43.481 L-145.45,40.569 L-145.289,37.601 L-144.829,34.666 L-144.091,31.846 L-143.089,29.154 L-141.839,26.604 L-140.358,24.208 L-139.416,22.97 L-122.462,38.235 L-123.051,39.727 L-122.324,38.359 L-122.462,38.235 L-121.767,36.475 L-121.53,36.864 L-122.324,38.359 L-120.839,39.697 L-120.726,39.268 L-120.571,38.849 L-120.46,38.624 L-121.53,36.864 L-120.778,35.449 L-119.332,34.978 L-136.402,19.608 L-134.689,18.079 L-132.443,16.431 L-130.046,15.003 L-127.514,13.807 L-124.863,12.857 L-122.109,12.165 L-119.268,11.744 L-116.356,11.608 L-113.389,11.769 L-110.453,12.229 L-107.633,12.967 L-106.725,13.305 L-115.89,33.89 L-115.037,34.006 L-114.117,34.267 L-115.328,34.184 L-111.395,36.097 L-109.654,40.86 L-109.484,40.866 L-109.755,41.823 L-110.804,43.496 L-87.906,45.903 Z M-109.484,40.866 L-102.261,15.299 L-99.995,16.7 L-97.767,18.396 L-95.72,20.291 L-93.866,22.369 L-92.218,24.615 L-90.79,27.012 L-89.594,29.544 L-88.644,32.195 L-87.952,34.949 L-87.532,37.79 L-87.395,40.702 L-87.444,41.597 Z M-78.027,50.923 L-78.618,52.919 L-86.079,51.56 L-86.5,52.664 L-86.961,53.753 L-87.461,54.823 L-88,55.875 L-81.998,60.51 L-83.085,62.285 L-84.264,64 L-90.94,60.402 L-91.681,61.322 L-92.456,62.215 L-93.263,63.079 L-94.101,63.912 L-89.825,70.175 L-91.407,71.527 L-93.058,72.794 L-98.295,67.309 L-99.285,67.955 L-100.298,68.565 L-101.332,69.137 L-102.386,69.671 L-100.255,76.949 L-102.177,77.745 L-104.139,78.44 L-107.425,71.605 L-108.566,71.914 L-109.717,72.181 L-110.878,72.405 L-112.046,72.587 L-112.267,80.168 L-114.342,80.331 L-116.423,80.385 L-117.436,72.87 L-118.616,72.811 L-119.794,72.709 L-120.967,72.564 L-122.133,72.376 L-124.687,79.517 L-126.711,79.031 L-128.706,78.44 L-127.347,70.979 L-128.451,70.558 L-129.54,70.097 L-130.611,69.597 L-131.662,69.057 L-136.298,75.06 L-138.072,73.973 L-139.787,72.794 L-136.189,66.118 L-137.109,65.377 L-138.002,64.602 L-138.866,63.795 L-139.699,62.957 L-145.963,67.233 L-147.314,65.651 L-148.581,64 L-143.096,58.763 L-143.742,57.773 L-144.352,56.76 L-144.924,55.726 L-145.458,54.672 L-152.736,56.803 L-153.532,54.881 L-154.227,52.919 L-147.392,49.633 L-147.701,48.492 L-147.968,47.341 L-148.192,46.18 L-148.374,45.012 L-155.955,44.79 L-156.118,42.716 L-156.173,40.635 L-148.657,39.622 L-148.598,38.442 L-148.496,37.264 L-148.351,36.091 L-148.163,34.924 L-155.304,32.371 L-154.818,30.347 L-154.227,28.352 L-146.766,29.711 L-146.345,28.607 L-145.884,27.518 L-145.384,26.447 L-144.845,25.396 L-150.847,20.76 L-149.76,18.986 L-148.581,17.271 L-141.905,20.869 L-141.164,19.949 L-140.389,19.056 L-139.582,18.192 L-138.744,17.359 L-143.02,11.095 L-141.438,9.744 L-139.787,8.477 L-134.55,13.962 L-133.56,13.316 L-132.548,12.706 L-131.513,12.134 L-130.459,11.6 L-132.59,4.322 L-130.668,3.526 L-128.706,2.831 L-125.42,9.666 L-124.279,9.357 L-123.128,9.09 L-121.967,8.866 L-120.799,8.684 L-120.578,1.103 L-118.503,0.94 L-116.423,0.885 L-115.41,8.401 L-114.229,8.46 L-113.051,8.562 L-111.878,8.707 L-110.712,8.895 L-108.158,1.754 L-106.134,2.24 L-104.139,2.831 L-105.498,10.292 L-104.394,10.713 L-103.305,11.174 L-102.234,11.674 L-101.183,12.213 L-96.548,6.211 L-94.773,7.298 L-93.058,8.477 L-96.656,15.153 L-95.736,15.894 L-94.843,16.669 L-93.979,17.476 L-93.146,18.314 L-86.882,14.037 L-85.531,15.62 L-84.264,17.271 L-89.749,22.508 L-89.103,23.498 L-88.493,24.51 L-87.921,25.545 L-87.387,26.599 L-80.109,24.468 L-79.313,26.39 L-78.618,28.352 L-85.453,31.638 L-85.144,32.779 L-84.877,33.93 L-84.653,35.091 L-84.471,36.259 L-76.89,36.48 L-76.727,38.555 L-76.673,40.635 L-84.188,41.648 L-84.247,42.829 L-84.349,44.006 L-84.494,45.18 L-84.682,46.346 L-77.541,48.9 Z" fill="rgba(237,102,71,1)" stroke="rgba(0,0,0,1)" stroke-width="0.6615384615384615"/>
<path d="M64.806,99.215 L62.407,97.821 L62.829,98.595 Z M79.043,39.075 L63.959,47.999 L72.185,52.634 Z M79.043,39.075 L79.094,38.975 L79.233,38.963 Z M79.233,38.963 L79.255,38.95 L79.29,38.958 Z M82.654,39.759 L79.547,39.02 L79.564,38.935 L79.29,38.958 L79.547,39.02 L79.296,40.267 Z M100.674,99.358 L101.221,87.364 L102.017,86.453 L102.714,85.481 L107.503,95.941 Z M109.979,94.096 L109.175,95.104 L109.719,94.832 Z M111.909,88.619 L113.37,89.84 L109.979,94.096 L111.909,88.619 L104.538,82.455 L105.023,81.399 L114.856,80.261 Z M229.45,70.576 L228.921,85.143 L226.967,99.37 L223.652,113.176 L219.039,126.48 L213.194,139.202 L206.179,151.261 L198.059,162.575 L188.898,173.064 L178.76,182.647 L167.709,191.243 L155.809,198.772 L154.813,199.274 L107.87,96.742 L109.175,95.104 L107.503,95.941 L107.87,96.742 L107.781,96.854 L100.547,102.155 L100.674,99.358 L89.44,104.981 L89.92,105.828 L87.996,105.703 L89.44,104.981 L83.77,94.975 L82.348,94.923 L82.2,94.903 L87.118,105.646 L84.846,105.499 L87.034,106.185 L87.303,106.05 L87.118,105.646 L87.996,105.703 L87.303,106.05 L134.239,208.567 L129.72,210.303 L115.659,214.144 L101.005,216.594 L86.179,217.555 L71.613,217.027 L57.386,215.073 L43.58,211.758 L30.275,207.145 L17.554,201.299 L5.495,194.284 L-5.819,186.164 L-14.468,178.61 L69.137,101.731 L64.806,99.215 L70.076,100.868 L69.137,101.731 L74.462,104.825 L84.846,105.499 L70.076,100.868 L77.584,93.964 L75.917,93.386 L73.938,92.477 L72.815,91.823 L61.805,96.716 L62.407,97.821 L61.068,97.044 L61.805,96.716 L59.369,92.248 L64.117,82.448 L63.68,81.577 L62.878,79.492 L62.294,77.355 L54.938,84.12 L59.369,92.248 L58.41,94.226 L54.25,84.752 L54.938,84.12 L50.782,76.497 L50.976,75.272 L50.687,76.323 L50.782,76.497 L50.74,76.759 L54.25,84.752 L-29.71,161.957 L-34.488,155.815 L-42.016,143.915 L-48.397,131.231 L-53.548,117.826 L-57.388,103.765 L-59.838,89.111 L-60.799,74.285 L-60.271,59.718 L-58.317,45.491 L-55.002,31.685 L-50.389,18.381 L-47.14,11.31 L52.24,67.308 L50.976,75.272 L53.045,67.761 L52.24,67.308 L53.73,57.918 L55.304,59.558 L53.045,67.761 L61.752,72.668 L61.832,70.453 L62.136,68.24 L62.436,66.991 L55.304,59.558 L57.422,51.866 L63.959,47.999 L-36.104,-8.384 L-29.408,-17.713 L-20.247,-28.202 L-10.109,-37.786 L0.941,-46.382 L12.841,-53.911 L25.525,-60.291 L38.93,-65.442 L52.991,-69.283 L67.645,-71.732 L82.471,-72.694 L97.038,-72.165 L101.833,-71.507 L79.564,38.935 L83.879,38.571 L88.673,38.849 L82.654,39.759 L103.933,44.823 L117.607,66.188 L118.438,66.033 L118.153,70.908 L114.856,80.261 L229.22,67.029 Z M118.438,66.033 L126.171,-66.515 L138.375,-62.284 L151.097,-56.438 L163.155,-49.423 L174.469,-41.303 L184.958,-32.142 L194.541,-22.004 L203.138,-10.953 L210.667,0.946 L217.047,13.631 L222.198,27.035 L226.039,41.097 L226.809,45.707 Z M252.483,58.31 L252.622,60.072 L245.213,61.632 L245.288,62.811 L245.354,63.992 L245.412,65.172 L245.461,66.353 L252.992,67.13 L253.038,68.897 L253.066,70.664 L245.574,71.755 L245.574,72.937 L245.566,74.119 L245.55,75.301 L245.524,76.483 L252.992,77.731 L252.927,79.497 L252.844,81.262 L245.298,81.882 L245.224,83.061 L245.142,84.24 L245.051,85.419 L244.952,86.597 L252.326,88.312 L252.151,90.07 L251.957,91.826 L244.387,91.97 L244.239,93.143 L244.083,94.315 L243.919,95.485 L243.745,96.655 L250.998,98.829 L250.712,100.573 L250.408,102.314 L242.844,101.982 L242.623,103.143 L242.394,104.303 L242.156,105.461 L241.91,106.617 L249.011,109.242 L248.617,110.965 L248.204,112.683 L240.676,111.877 L240.382,113.022 L240.081,114.165 L239.771,115.306 L239.452,116.444 L246.375,119.51 L245.873,121.205 L245.353,122.894 L237.89,121.617 L237.526,122.741 L237.153,123.863 L236.772,124.982 L236.382,126.098 L243.099,129.593 L242.491,131.252 L241.867,132.905 L234.499,131.162 L234.064,132.262 L233.622,133.358 L233.171,134.45 L232.713,135.54 L239.196,139.449 L238.486,141.068 L237.759,142.678 L230.515,140.476 L230.012,141.546 L229.502,142.612 L228.983,143.674 L228.457,144.733 L234.683,149.042 L233.872,150.612 L233.045,152.174 L225.954,149.521 L225.385,150.557 L224.808,151.589 L224.224,152.617 L223.633,153.64 L229.575,158.331 L228.668,159.848 L227.745,161.355 L220.834,158.262 L220.201,159.26 L219.561,160.254 L218.913,161.243 L218.259,162.227 L223.895,167.282 L222.894,168.739 L221.878,170.184 L215.175,166.664 L214.481,167.62 L213.779,168.572 L213.071,169.518 L212.356,170.46 L217.664,175.859 L216.573,177.249 L215.469,178.629 L209,174.694 L208.247,175.605 L207.487,176.511 L206.721,177.411 L205.948,178.305 L210.906,184.027 L209.731,185.347 L208.542,186.654 L202.333,182.321 L201.524,183.183 L200.709,184.039 L199.888,184.889 L199.06,185.733 L203.649,191.755 L202.393,192.998 L201.124,194.228 L195.2,189.514 L194.339,190.323 L193.471,191.126 L192.598,191.923 L191.72,192.714 L195.922,199.012 L194.59,200.174 L193.246,201.321 L187.629,196.244 L186.719,196.998 L185.803,197.746 L184.882,198.486 L183.955,199.22 L187.753,205.769 L186.351,206.845 L184.938,207.906 L179.651,202.487 L178.695,203.182 L177.734,203.87 L176.768,204.551 L175.797,205.225 L179.177,212.001 L177.71,212.986 L176.233,213.956 L171.297,208.216 L170.299,208.849 L169.297,209.476 L168.29,210.095 L167.279,210.707 L170.226,217.681 L168.7,218.573 L167.165,219.448 L162.599,213.409 L161.564,213.979 L160.524,214.541 L159.48,215.096 L158.432,215.643 L160.936,222.788 L159.357,223.582 L157.77,224.36 L153.593,218.045 L152.523,218.549 L151.45,219.045 L150.374,219.533 L149.294,220.013 L151.344,227.302 L149.718,227.995 L148.086,228.671 L144.313,222.107 L143.214,222.543 L142.112,222.971 L141.007,223.39 L139.899,223.802 L141.487,231.204 L139.821,231.794 L138.15,232.367 L134.796,225.579 L133.672,225.944 L132.545,226.302 L131.416,226.651 L130.285,226.992 L131.405,234.48 L129.705,234.964 L128.001,235.431 L125.08,228.445 L123.936,228.74 L122.789,229.026 L121.64,229.304 L120.489,229.573 L121.137,237.117 L119.41,237.493 L117.68,237.852 L115.204,230.697 L114.043,230.919 L112.88,231.132 L111.716,231.337 L110.55,231.534 L110.723,239.103 L108.977,239.37 L107.227,239.619 L105.205,232.323 L104.032,232.472 L102.859,232.612 L101.684,232.744 L100.508,232.867 L100.206,240.432 L98.446,240.589 L96.684,240.728 L95.124,233.319 L93.944,233.394 L92.764,233.46 L91.584,233.517 L90.403,233.566 L89.626,241.097 L87.859,241.144 L86.092,241.171 L85.001,233.679 L83.819,233.68 L82.637,233.672 L81.455,233.655 L80.273,233.63 L79.025,241.097 L77.259,241.033 L75.493,240.949 L74.874,233.404 L73.695,233.33 L72.515,233.248 L71.337,233.157 L70.159,233.057 L68.444,240.432 L66.686,240.256 L64.93,240.062 L64.785,232.492 L63.613,232.345 L62.441,232.189 L61.271,232.024 L60.101,231.851 L57.927,239.103 L56.183,238.818 L54.442,238.514 L54.774,230.95 L53.612,230.729 L52.453,230.499 L51.295,230.262 L50.139,230.015 L47.513,237.117 L45.791,236.722 L44.073,236.31 L44.878,228.781 L43.733,228.488 L42.591,228.186 L41.45,227.876 L40.312,227.558 L37.245,234.48 L35.551,233.978 L33.862,233.459 L35.139,225.996 L34.015,225.631 L32.893,225.258 L31.774,224.877 L30.658,224.488 L27.163,231.204 L25.504,230.597 L23.851,229.972 L25.594,222.605 L24.494,222.17 L23.398,221.727 L22.306,221.277 L21.216,220.818 L17.306,227.302 L15.688,226.592 L14.078,225.864 L16.28,218.62 L15.21,218.118 L14.144,217.607 L13.082,217.089 L12.023,216.563 L7.714,222.788 L6.144,221.978 L4.582,221.151 L7.235,214.059 L6.199,213.49 L5.167,212.914 L4.139,212.33 L3.116,211.738 L-1.576,217.681 L-3.092,216.773 L-4.599,215.85 L-1.506,208.939 L-2.504,208.307 L-3.498,207.666 L-4.487,207.019 L-5.471,206.364 L-10.526,212.001 L-11.983,211 L-13.429,209.984 L-9.908,203.281 L-10.865,202.586 L-11.816,201.885 L-12.762,201.177 L-13.704,200.462 L-19.103,205.769 L-20.494,204.679 L-21.873,203.574 L-17.938,197.105 L-18.849,196.352 L-19.755,195.593 L-20.655,194.827 L-21.549,194.054 L-27.271,199.012 L-28.591,197.836 L-29.898,196.647 L-25.565,190.438 L-26.427,189.63 L-27.283,188.815 L-28.133,187.993 L-28.977,187.166 L-34.999,191.755 L-36.242,190.499 L-37.472,189.23 L-32.758,183.305 L-33.567,182.444 L-34.371,181.577 L-35.167,180.704 L-35.958,179.825 L-42.256,184.027 L-43.418,182.695 L-44.565,181.352 L-39.488,175.735 L-40.242,174.825 L-40.99,173.909 L-41.73,172.987 L-42.464,172.061 L-49.014,175.859 L-50.089,174.457 L-51.15,173.044 L-45.731,167.757 L-46.426,166.801 L-47.114,165.84 L-47.795,164.874 L-48.469,163.903 L-55.245,167.282 L-56.23,165.816 L-57.201,164.339 L-51.46,159.402 L-52.093,158.405 L-52.72,157.402 L-53.339,156.395 L-53.951,155.384 L-60.925,158.331 L-61.817,156.806 L-62.692,155.271 L-56.653,150.705 L-57.223,149.669 L-57.785,148.63 L-58.34,147.586 L-58.887,146.538 L-66.032,149.042 L-66.826,147.463 L-67.604,145.876 L-61.289,141.698 L-61.793,140.629 L-62.289,139.556 L-62.777,138.479 L-63.257,137.399 L-70.546,139.449 L-71.239,137.824 L-71.916,136.191 L-65.351,132.418 L-65.787,131.32 L-66.215,130.218 L-66.634,129.113 L-67.046,128.004 L-74.448,129.593 L-75.038,127.927 L-75.611,126.255 L-68.823,122.902 L-69.188,121.778 L-69.546,120.651 L-69.895,119.522 L-70.236,118.39 L-77.724,119.51 L-78.209,117.811 L-78.675,116.106 L-71.69,113.186 L-71.984,112.041 L-72.27,110.894 L-72.548,109.745 L-72.817,108.594 L-80.361,109.242 L-80.737,107.516 L-81.096,105.785 L-73.941,103.309 L-74.163,102.148 L-74.376,100.986 L-74.581,99.822 L-74.778,98.656 L-82.347,98.829 L-82.615,97.082 L-82.864,95.333 L-75.567,93.311 L-75.716,92.138 L-75.856,90.964 L-75.988,89.79 L-76.111,88.614 L-83.676,88.312 L-83.833,86.551 L-83.972,84.79 L-76.563,83.23 L-76.638,82.05 L-76.704,80.87 L-76.761,79.689 L-76.81,78.508 L-84.342,77.731 L-84.388,75.965 L-84.416,74.198 L-76.923,73.106 L-76.924,71.924 L-76.916,70.742 L-76.899,69.56 L-76.874,68.379 L-84.342,67.13 L-84.277,65.364 L-84.194,63.599 L-76.648,62.98 L-76.574,61.8 L-76.492,60.621 L-76.401,59.443 L-76.301,58.265 L-83.676,56.55 L-83.5,54.792 L-83.307,53.035 L-75.737,52.891 L-75.589,51.718 L-75.433,50.547 L-75.268,49.376 L-75.095,48.207 L-82.347,46.032 L-82.062,44.289 L-81.758,42.548 L-74.194,42.879 L-73.973,41.718 L-73.744,40.558 L-73.506,39.401 L-73.259,38.245 L-80.361,35.619 L-79.966,33.897 L-79.554,32.178 L-72.025,32.984 L-71.732,31.839 L-71.43,30.696 L-71.12,29.556 L-70.802,28.417 L-77.724,25.351 L-77.223,23.657 L-76.703,21.968 L-69.24,23.245 L-68.875,22.12 L-68.503,20.999 L-68.121,19.88 L-67.732,18.764 L-74.448,15.269 L-73.841,13.609 L-73.217,11.956 L-65.849,13.699 L-65.414,12.6 L-64.971,11.504 L-64.521,10.411 L-64.062,9.322 L-70.546,5.412 L-69.836,3.794 L-69.108,2.183 L-61.865,4.386 L-61.362,3.316 L-60.851,2.25 L-60.333,1.187 L-59.807,0.129 L-66.032,-4.18 L-65.222,-5.75 L-64.395,-7.312 L-57.303,-4.659 L-56.735,-5.696 L-56.158,-6.727 L-55.574,-7.755 L-54.983,-8.778 L-60.925,-13.47 L-60.018,-14.986 L-59.094,-16.493 L-52.183,-13.4 L-51.551,-14.399 L-50.91,-15.392 L-50.263,-16.381 L-49.608,-17.365 L-55.245,-22.421 L-54.244,-23.877 L-53.228,-25.323 L-46.525,-21.802 L-45.83,-22.759 L-45.129,-23.711 L-44.421,-24.657 L-43.706,-25.598 L-49.014,-30.997 L-47.923,-32.388 L-46.818,-33.767 L-40.35,-29.833 L-39.597,-30.744 L-38.837,-31.649 L-38.071,-32.549 L-37.298,-33.444 L-42.256,-39.166 L-41.081,-40.485 L-39.891,-41.792 L-33.682,-37.459 L-32.874,-38.321 L-32.059,-39.177 L-31.237,-40.027 L-30.41,-40.872 L-34.999,-46.894 L-33.743,-48.137 L-32.474,-49.366 L-26.549,-44.652 L-25.688,-45.462 L-24.821,-46.265 L-23.948,-47.062 L-23.069,-47.852 L-27.271,-54.151 L-25.94,-55.312 L-24.596,-56.46 L-18.979,-51.383 L-18.069,-52.137 L-17.153,-52.884 L-16.231,-53.625 L-15.305,-54.358 L-19.103,-60.908 L-17.701,-61.984 L-16.288,-63.045 L-11.001,-57.625 L-10.045,-58.32 L-9.084,-59.009 L-8.118,-59.69 L-7.147,-60.364 L-10.526,-67.139 L-9.06,-68.125 L-7.583,-69.095 L-2.646,-63.354 L-1.649,-63.988 L-0.646,-64.614 L0.36,-65.234 L1.372,-65.845 L-1.576,-72.819 L-0.05,-73.711 L1.485,-74.587 L6.051,-68.547 L7.087,-69.117 L8.126,-69.679 L9.17,-70.234 L10.218,-70.781 L7.714,-77.927 L9.293,-78.721 L10.88,-79.498 L15.058,-73.184 L16.127,-73.688 L17.2,-74.184 L18.276,-74.672 L19.356,-75.152 L17.306,-82.44 L18.932,-83.134 L20.565,-83.81 L24.338,-77.246 L25.436,-77.681 L26.538,-78.109 L27.643,-78.529 L28.751,-78.94 L27.163,-86.343 L28.829,-86.933 L30.501,-87.505 L33.854,-80.717 L34.978,-81.083 L36.105,-81.441 L37.234,-81.79 L38.366,-82.131 L37.245,-89.619 L38.945,-90.103 L40.649,-90.569 L43.57,-83.584 L44.715,-83.879 L45.862,-84.165 L47.011,-84.442 L48.161,-84.712 L47.513,-92.255 L49.24,-92.632 L50.97,-92.99 L53.447,-85.835 L54.608,-86.057 L55.77,-86.271 L56.934,-86.476 L58.1,-86.672 L57.927,-94.242 L59.674,-94.509 L61.423,-94.758 L63.445,-87.462 L64.618,-87.61 L65.792,-87.751 L66.966,-87.882 L68.142,-88.005 L68.444,-95.57 L70.205,-95.727 L71.966,-95.866 L73.526,-88.457 L74.706,-88.532 L75.886,-88.598 L77.067,-88.656 L78.248,-88.705 L79.025,-96.236 L80.791,-96.282 L82.558,-96.31 L83.65,-88.818 L84.832,-88.818 L86.014,-88.81 L87.196,-88.794 L88.377,-88.768 L89.626,-96.236 L91.392,-96.171 L93.157,-96.088 L93.776,-88.542 L94.956,-88.468 L96.135,-88.386 L97.313,-88.295 L98.491,-88.196 L100.206,-95.57 L101.964,-95.395 L103.721,-95.201 L103.865,-87.631 L105.038,-87.483 L106.209,-87.327 L107.38,-87.163 L108.549,-86.989 L110.723,-94.242 L112.467,-93.956 L114.208,-93.652 L113.877,-86.088 L115.038,-85.867 L116.197,-85.638 L117.355,-85.4 L118.511,-85.154 L121.137,-92.255 L122.859,-91.861 L124.578,-91.448 L123.772,-83.92 L124.917,-83.627 L126.06,-83.325 L127.2,-83.015 L128.339,-82.696 L131.405,-89.619 L133.099,-89.117 L134.788,-88.597 L133.511,-81.134 L134.636,-80.77 L135.757,-80.397 L136.876,-80.016 L137.992,-79.626 L141.487,-86.343 L143.147,-85.736 L144.8,-85.111 L143.057,-77.743 L144.156,-77.308 L145.252,-76.866 L146.345,-76.415 L147.434,-75.957 L151.344,-82.44 L152.962,-81.73 L154.573,-81.003 L152.37,-73.759 L153.44,-73.256 L154.506,-72.746 L155.568,-72.227 L156.627,-71.701 L160.936,-77.927 L162.506,-77.116 L164.068,-76.289 L161.415,-69.198 L162.451,-68.629 L163.483,-68.052 L164.511,-67.468 L165.534,-66.877 L170.226,-72.819 L171.742,-71.912 L173.249,-70.989 L170.156,-64.078 L171.155,-63.445 L172.148,-62.805 L173.137,-62.157 L174.121,-61.503 L179.177,-67.139 L180.633,-66.138 L182.079,-65.122 L178.558,-58.419 L179.515,-57.725 L180.466,-57.024 L181.413,-56.315 L182.354,-55.6 L187.753,-60.908 L189.144,-59.818 L190.523,-58.713 L186.588,-52.244 L187.5,-51.491 L188.405,-50.731 L189.305,-49.965 L190.2,-49.192 L195.922,-54.151 L197.241,-52.975 L198.548,-51.786 L194.215,-45.577 L195.077,-44.768 L195.933,-43.953 L196.783,-43.132 L197.627,-42.304 L203.649,-46.894 L204.892,-45.637 L206.122,-44.368 L201.408,-38.444 L202.218,-37.583 L203.021,-36.716 L203.818,-35.842 L204.608,-34.964 L210.906,-39.166 L212.068,-37.834 L213.216,-36.49 L208.139,-30.873 L208.893,-29.963 L209.64,-29.047 L210.38,-28.126 L211.114,-27.199 L217.664,-30.997 L218.74,-29.595 L219.801,-28.182 L214.381,-22.895 L215.076,-21.939 L215.765,-20.978 L216.446,-20.012 L217.12,-19.041 L223.895,-22.421 L224.881,-20.954 L225.851,-19.477 L220.11,-14.541 L220.744,-13.543 L221.37,-12.541 L221.99,-11.534 L222.601,-10.523 L229.575,-13.47 L230.467,-11.944 L231.342,-10.409 L225.303,-5.843 L225.873,-4.808 L226.435,-3.768 L226.99,-2.724 L227.537,-1.677 L234.683,-4.18 L235.477,-2.601 L236.254,-1.015 L229.94,3.163 L230.443,4.233 L230.939,5.305 L231.428,6.382 L231.908,7.462 L239.196,5.412 L239.89,7.037 L240.566,8.67 L234.002,12.443 L234.437,13.542 L234.865,14.644 L235.285,15.749 L235.696,16.857 L243.099,15.269 L243.689,16.934 L244.261,18.606 L237.473,21.96 L237.839,23.084 L238.196,24.21 L238.546,25.34 L238.887,26.471 L246.375,25.351 L246.859,27.051 L247.325,28.755 L240.34,31.676 L240.634,32.82 L240.921,33.967 L241.198,35.116 L241.468,36.267 L249.011,35.619 L249.388,37.346 L249.746,39.076 L242.591,41.552 L242.813,42.713 L243.027,43.876 L243.232,45.04 L243.428,46.205 L250.998,46.032 L251.265,47.779 L251.514,49.529 L244.218,51.551 L244.366,52.723 L244.507,53.897 L244.638,55.072 L244.761,56.247 L252.326,56.55 Z" fill="rgba(130,130,158,1)" stroke="rgba(0,0,0,1)" stroke-width="1"/>
</svg>