<svg xmlns="http://www.w3.org/2000/svg" viewBox="-222.9 -186.4 445.8 472.8">
<path d="M-190,253.5 L-170,250 L-150,251.5 L-130,250 L-110,246.5 L-90,240 L-70,235.5 L-50,233 L-30,218.5 L-10,202 L10,208 L30,188.5 L50,160 L70,122 L90,74 L110,15 L130,14.5 L150,-62 L170,-97.5 L190,-153.5" fill="rgba(0,0,239,0)" stroke="rgba(0,55,231,1)" stroke-width="3"/>
<path d="M-186,253.5 C-186,255.709 -187.791,257.5 -190,257.5 C-192.209,257.5 -194,255.709 -194,253.5 C-194,251.291 -192.209,249.5 -190,249.5 C-187.791,249.5 -186,251.291 -186,253.5 Z" fill="rgba(0,0,239,0)" stroke="rgba(0,55,231,1)" stroke-width="3"/>
<path d="M-166,250 C-166,252.209 -167.791,254 -170,254 C-172.209,254 -174,252.209 -174,250 C-174,247.791 -172.209,246 -170,246 C-167.791,246 -166,247.791 -166,250 Z" fill="rgba(0,0,239,0)" stroke="rgba(0,55,231,1)" stroke-width="3"/>
<path d="M-146,251.5 C-146,253.709 -147.791,255.5 -150,255.5 C-152.209,255.5 -154,253.709 -154,251.5 C-154,249.291 -152.209,247.5 -150,247.5 C-147.791,247.5 -146,249.291 -146,251.5 Z" fill="rgba(0,0,239,0)" stroke="rgba(0,55,231,1)" stroke-width="3"/>
<path d="M-126,250 C-126,252.209 -127.791,254 -130,254 C-132.209,254 -134,252.209 -134,250 C-134,247.791 -132.209,246 -130,246 C-127.791,246 -126,247.791 -126,250 Z" fill="rgba(0,0,239,0)" stroke="rgba(0,55,231,1)" stroke-width="3"/>
<path d="M-106,246.5 C-106,248.709 -107.791,250.5 -110,250.5 C-112.209,250.5 -114,248.709 -114,246.5 C-114,244.291 -112.209,242.5 -110,242.5 C-107.791,242.5 -106,244.291 -106,246.5 Z" fill="rgba(0,0,239,0)" stroke="rgba(0,55,231,1)" stroke-width="3"/>
<path d="M-86,240 C-86,242.209 -87.791,244 -90,244 C-92.209,244 -94,242.209 -94,240 C-94,237.791 -92.209,236 -90,236 C-87.791,236 -86,237.791 -86,240 Z" fill="rgba(0,0,239,0)" stroke="rgba(0,55,231,1)" stroke-width="3"/>
<path d="M-66,235.5 C-66,237.709 -67.791,239.5 -70,239.5 C-72.209,239.5 -74,237.709 -74,235.5 C-74,233.291 -72.209,231.5 -70,231.5 C-67.791,231.5 -66,233.291 -66,235.5 Z" fill="rgba(0,0,239,0)" stroke="rgba(0,55,231,1)" stroke-width="3"/>
<path d="M-46,233 C-46,235.209 -47.791,237 -50,237 C-52.209,237 -54,235.209 -54,233 C-54,230.791 -52.209,229 -50,229 C-47.791,229 -46,230.791 -46,233 Z" fill="rgba(0,0,239,0)" stroke="rgba(0,55,231,1)" stroke-width="3"/>
<path d="M-26,218.5 C-26,220.709 -27.791,222.5 -30,222.5 C-32.209,222.5 -34,220.709 -34,218.5 C-34,216.291 -32.209,214.5 -30,214.5 C-27.791,214.5 -26,216.291 -26,218.5 Z" fill="rgba(0,0,239,0)" stroke="rgba(0,55,231,1)" stroke-width="3"/>
<path d="M-6,202 C-6,204.209 -7.791,206 -10,206 C-12.209,206 -14,204.209 -14,202 C-14,199.791 -12.209,198 -10,198 C-7.791,198 -6,199.791 -6,202 Z" fill="rgba(0,0,239,0)" stroke="rgba(0,55,231,1)" stroke-width="3"/>
<path d="M14,208 C14,210.209 12.209,212 10,212 C7.791,212 6,210.209 6,208 C6,205.791 7.791,204 10,204 C12.209,204 14,205.791 14,208 Z" fill="rgba(0,0,239,0)" stroke="rgba(0,55,231,1)" stroke-width="3"/>
<path d="M34,188.5 C34,190.709 32.209,192.5 30,192.5 C27.791,192.5 26,190.709 26,188.5 C26,186.291 27.791,184.5 30,184.5 C32.209,184.5 34,186.291 34,188.5 Z" fill="rgba(0,0,239,0)" stroke="rgba(0,55,231,1)" stroke-width="3"/>
<path d="M54,160 C54,162.209 52.209,164 50,164 C47.791,164 46,162.209 46,160 C46,157.791 47.791,156 50,156 C52.209,156 54,157.791 54,160 Z" fill="rgba(0,0,239,0)" stroke="rgba(0,55,231,1)" stroke-width="3"/>
<path d="M74,122 C74,124.209 72.209,126 70,126 C67.791,126 66,124.209 66,122 C66,119.791 67.791,118 70,118 C72.209,118 74,119.791 74,122 Z" fill="rgba(0,0,239,0)" stroke="rgba(0,55,231,1)" stroke-width="3"/>
<path d="M94,74 C94,76.209 92.209,78 90,78 C87.791,78 86,76.209 86,74 C86,71.791 87.791,70 90,70 C92.209,70 94,71.791 94,74 Z" fill="rgba(0,0,239,0)" stroke="rgba(0,55,231,1)" stroke-width="3"/>
<path d="M114,15 C114,17.209 112.209,19 110,19 C107.791,19 106,17.209 106,15 C106,12.791 107.791,11 110,11 C112.209,11 114,12.791 114,15 Z" fill="rgba(0,0,239,0)" stroke="rgba(0,55,231,1)" stroke-width="3"/>
<path d="M134,14.5 C134,16.709 132.209,18.5 130,18.5 C127.791,18.5 126,16.709 126,14.5 C126,12.291 127.791,10.5 130,10.5 C132.209,10.5 134,12.291 134,14.5 Z" fill="rgba(0,0,239,0)" stroke="rgba(0,55,231,1)" stroke-width="3"/>
<path d="M154,-62 C154,-59.791 152.209,-58 150,-58 C147.791,-58 146,-59.791 146,-62 C146,-64.209 147.791,-66 150,-66 C152.209,-66 154,-64.209 154,-62 Z" fill="rgba(0,0,239,0)" stroke="rgba(0,55,231,1)" stroke-width="3"/>
<path d="M174,-97.5 C174,-95.291 172.209,-93.5 170,-93.5 C167.791,-93.5 166,-95.291 166,-97.5 C166,-99.709 167.791,-101.5 170,-101.5 C172.209,-101.5 174,-99.709 174,-97.5 Z" fill="rgba(0,0,239,0)" stroke="rgba(0,55,231,1)" stroke-width="3"/>
<path d="M194,-153.5 C194,-151.291 192.209,-149.5 190,-149.5 C187.791,-149.5 186,-151.291 186,-153.5 C186,-155.709 187.791,-157.5 190,-157.5 C192.209,-157.5 194,-155.709 194,-153.5 Z" fill="rgba(0,0,239,0)" stroke="rgba(0,55,231,1)" stroke-width="3"/>
</svg>