<svg xmlns="http://www.w3.org/2000/svg" viewBox="-288.38 -184.81 583.19 469.63">
<path d="M86.437,-147.97 L94.663,-149.226 L110,-150 L125.337,-149.226 L133.563,-147.97 Z" fill="rgba(246,239,247,1)"/>
<path d="M71.943,-144.94 L79.77,-146.953 L92.989,-148.97 L127.011,-148.97 L140.23,-146.953 L148.057,-144.94 Z" fill="rgba(246,239,247,1)"/>
<path d="M61.716,-141.91 L65.395,-143.256 L75.832,-145.94 L144.168,-145.94 L154.605,-143.256 L158.284,-141.91 Z" fill="rgba(244,237,246,1)"/>
<path d="M53.438,-138.88 L64.448,-142.91 L155.552,-142.91 L166.562,-138.88 Z" fill="rgba(242,236,245,1)"/>
<path d="M46.709,-135.85 L51.613,-138.212 L56.17,-139.88 L163.83,-139.88 L168.387,-138.212 L173.291,-135.85 Z" fill="rgba(240,234,244,1)"/>
<path d="M40.42,-132.82 L48.785,-136.85 L171.215,-136.85 L179.58,-132.82 Z" fill="rgba(238,233,244,1)"/>
<path d="M35.035,-129.79 L38.501,-131.896 L42.495,-133.82 L177.505,-133.82 L181.499,-131.896 L184.965,-129.79 Z" fill="rgba(236,231,243,1)"/>
<path d="M30.047,-126.76 L36.681,-130.79 L183.319,-130.79 L189.953,-126.76 Z" fill="rgba(234,230,242,1)"/>
<path d="M25.261,-123.73 L26.134,-124.382 L31.693,-127.76 L188.307,-127.76 L193.866,-124.382 L194.739,-123.73 Z" fill="rgba(232,228,241,1)"/>
<path d="M21.209,-120.7 L26.134,-124.382 L26.706,-124.73 L193.294,-124.73 L193.866,-124.382 L198.791,-120.7 Z" fill="rgba(230,227,240,1)"/>
<path d="M17.157,-117.67 L22.547,-121.7 L197.453,-121.7 L202.843,-117.67 Z" fill="rgba(229,225,239,1)"/>
<path d="M13.368,-114.64 L14.586,-115.747 L18.495,-118.67 L201.505,-118.67 L205.414,-115.747 L206.632,-114.64 Z" fill="rgba(227,224,238,1)"/>
<path d="M10.034,-111.61 L14.468,-115.64 L205.532,-115.64 L209.966,-111.61 Z" fill="rgba(225,222,238,1)"/>
<path d="M6.7,-108.58 L11.134,-112.61 L208.866,-112.61 L213.3,-108.58 Z" fill="rgba(223,221,237,1)"/>
<path d="M3.465,-105.55 L3.934,-106.066 L7.8,-109.58 L212.2,-109.58 L216.066,-106.066 L216.535,-105.55 Z" fill="rgba(221,219,236,1)"/>
<path d="M0.711,-102.52 L3.934,-106.066 L4.466,-106.55 L215.534,-106.55 L216.066,-106.066 L219.289,-102.52 Z" fill="rgba(219,218,235,1)"/>
<path d="M-2.043,-99.49 L1.62,-103.52 L218.38,-103.52 L222.043,-99.49 Z" fill="rgba(217,216,234,1)"/>
<path d="M-4.797,-96.46 L-1.134,-100.49 L221.134,-100.49 L224.797,-96.46 Z" fill="rgba(215,215,233,1)"/>
<path d="M-7.231,-93.43 L-5.747,-95.414 L-3.888,-97.46 L223.888,-97.46 L225.747,-95.414 L227.231,-93.43 Z" fill="rgba(213,213,232,1)"/>
<path d="M-9.497,-90.4 L-6.483,-94.43 L226.483,-94.43 L229.497,-90.4 Z" fill="rgba(211,212,232,1)"/>
<path d="M-11.762,-87.37 L-8.749,-91.4 L228.749,-91.4 L231.762,-87.37 Z" fill="rgba(209,210,231,1)"/>
<path d="M-14.028,-84.34 L-11.015,-88.37 L231.015,-88.37 L234.028,-84.34 Z" fill="rgba(208,209,230,1)"/>
<path d="M-15.935,-81.31 L-14.382,-83.866 L-13.28,-85.34 L233.28,-85.34 L234.382,-83.866 L235.935,-81.31 Z" fill="rgba(205,208,229,1)"/>
<path d="M-17.776,-78.28 L-15.328,-82.31 L235.328,-82.31 L237.776,-78.28 Z" fill="rgba(203,207,229,1)"/>
<path d="M-19.617,-75.25 L-17.169,-79.28 L237.169,-79.28 L239.617,-75.25 Z" fill="rgba(201,206,228,1)"/>
<path d="M-21.458,-72.22 L-19.009,-76.25 L239.009,-76.25 L241.458,-72.22 Z" fill="rgba(199,205,228,1)"/>
<path d="M-23.008,-69.19 L-21.896,-71.499 L-20.85,-73.22 L240.85,-73.22 L241.896,-71.499 L243.008,-69.19 Z" fill="rgba(197,204,227,1)"/>
<path d="M-24.468,-66.16 L-22.526,-70.19 L242.526,-70.19 L244.468,-66.16 Z" fill="rgba(195,203,227,1)"/>
<path d="M-25.927,-63.13 L-23.986,-67.16 L243.986,-67.16 L245.927,-63.13 Z" fill="rgba(193,202,226,1)"/>
<path d="M-27.387,-60.1 L-25.446,-64.13 L245.446,-64.13 L247.387,-60.1 Z" fill="rgba(191,201,225,1)"/>
<path d="M-28.694,-57.07 L-28.212,-58.387 L-26.905,-61.1 L246.905,-61.1 L248.212,-58.387 L248.694,-57.07 Z" fill="rgba(188,200,225,1)"/>
<path d="M-29.803,-54.04 L-28.328,-58.07 L248.328,-58.07 L249.803,-54.04 Z" fill="rgba(186,199,224,1)"/>
<path d="M-30.912,-51.01 L-29.437,-55.04 L249.437,-55.04 L250.912,-51.01 Z" fill="rgba(184,198,224,1)"/>
<path d="M-32.021,-47.98 L-30.546,-52.01 L250.546,-52.01 L252.021,-47.98 Z" fill="rgba(182,197,223,1)"/>
<path d="M-33.13,-44.95 L-31.655,-48.98 L251.655,-48.98 L253.13,-44.95 Z" fill="rgba(180,196,223,1)"/>
<path d="M-33.947,-41.92 L-33.256,-44.605 L-32.764,-45.95 L252.764,-45.95 L253.256,-44.605 L253.947,-41.92 Z" fill="rgba(178,195,222,1)"/>
<path d="M-34.726,-38.89 L-33.69,-42.92 L253.69,-42.92 L254.726,-38.89 Z" fill="rgba(176,194,222,1)"/>
<path d="M-35.505,-35.86 L-34.469,-39.89 L254.469,-39.89 L255.505,-35.86 Z" fill="rgba(174,193,221,1)"/>
<path d="M-36.284,-32.83 L-35.248,-36.86 L255.248,-36.86 L256.284,-32.83 Z" fill="rgba(171,192,220,1)"/>
<path d="M-37.018,-29.8 L-36.953,-30.23 L-36.027,-33.83 L256.027,-33.83 L256.953,-30.23 L257.018,-29.8 Z" fill="rgba(169,191,220,1)"/>
<path d="M-37.481,-26.77 L-36.953,-30.23 L-36.806,-30.8 L256.806,-30.8 L256.953,-30.23 L257.481,-26.77 Z" fill="rgba(167,190,219,1)"/>
<path d="M-37.943,-23.74 L-37.328,-27.77 L257.328,-27.77 L257.943,-23.74 Z" fill="rgba(165,189,219,1)"/>
<path d="M-38.405,-20.71 L-37.79,-24.74 L257.79,-24.74 L258.405,-20.71 Z" fill="rgba(162,188,218,1)"/>
<path d="M-38.868,-17.68 L-38.253,-21.71 L258.253,-21.71 L258.868,-17.68 Z" fill="rgba(159,187,218,1)"/>
<path d="M-39.26,-14.65 L-39.226,-15.337 L-38.715,-18.68 L258.715,-18.68 L259.226,-15.337 L259.26,-14.65 Z" fill="rgba(156,186,217,1)"/>
<path d="M-39.413,-11.62 L-39.226,-15.337 L-39.178,-15.65 L259.178,-15.65 L259.226,-15.337 L259.413,-11.62 Z" fill="rgba(153,185,216,1)"/>
<path d="M-39.566,-8.59 L-39.363,-12.62 L259.363,-12.62 L259.566,-8.59 Z" fill="rgba(150,184,216,1)"/>
<path d="M-39.719,-5.56 L-39.516,-9.59 L259.516,-9.59 L259.719,-5.56 Z" fill="rgba(147,183,215,1)"/>
<path d="M-39.872,-2.53 L-39.669,-6.56 L259.669,-6.56 L259.872,-2.53 Z" fill="rgba(144,182,215,1)"/>
<path d="M260,0 L259.822,-3.53 L-39.822,-3.53 L-40,0 L-39.975,0.5 L259.975,0.5 Z" fill="rgba(140,181,214,1)"/>
<path d="M259.822,3.53 L-39.822,3.53 L-40,0 L-39.975,-0.5 L259.975,-0.5 L260,0 Z" fill="rgba(137,180,213,1)"/>
<path d="M259.872,2.53 L-39.872,2.53 L-39.669,6.56 L259.669,6.56 Z" fill="rgba(134,179,213,1)"/>
<path d="M259.719,5.56 L-39.719,5.56 L-39.516,9.59 L259.516,9.59 Z" fill="rgba(131,178,212,1)"/>
<path d="M259.566,8.59 L-39.566,8.59 L-39.363,12.62 L259.363,12.62 Z" fill="rgba(128,177,211,1)"/>
<path d="M259.413,11.62 L-39.413,11.62 L-39.226,15.337 L-39.178,15.65 L259.178,15.65 L259.226,15.337 Z" fill="rgba(125,176,211,1)"/>
<path d="M259.26,14.65 L-39.26,14.65 L-39.226,15.337 L-38.715,18.68 L258.715,18.68 L259.226,15.337 Z" fill="rgba(121,174,210,1)"/>
<path d="M258.868,17.68 L-38.868,17.68 L-38.253,21.71 L258.253,21.71 Z" fill="rgba(118,173,210,1)"/>
<path d="M258.405,20.71 L-38.405,20.71 L-37.79,24.74 L257.79,24.74 Z" fill="rgba(115,172,209,1)"/>
<path d="M257.943,23.74 L-37.943,23.74 L-37.328,27.77 L257.328,27.77 Z" fill="rgba(111,171,208,1)"/>
<path d="M257.481,26.77 L-37.481,26.77 L-36.953,30.23 L-36.806,30.8 L256.806,30.8 L256.953,30.23 Z" fill="rgba(108,170,208,1)"/>
<path d="M257.018,29.8 L-37.018,29.8 L-36.953,30.23 L-36.027,33.83 L256.027,33.83 L256.953,30.23 Z" fill="rgba(104,169,207,1)"/>
<path d="M256.284,32.83 L-36.284,32.83 L-35.248,36.86 L255.248,36.86 Z" fill="rgba(101,168,205,1)"/>
<path d="M255.505,35.86 L-35.505,35.86 L-34.469,39.89 L254.469,39.89 Z" fill="rgba(98,167,202,1)"/>
<path d="M254.726,38.89 L-34.726,38.89 L-33.69,42.92 L253.69,42.92 Z" fill="rgba(95,166,200,1)"/>
<path d="M253.947,41.92 L-33.947,41.92 L-33.256,44.605 L-32.764,45.95 L252.764,45.95 L253.256,44.605 Z" fill="rgba(92,164,197,1)"/>
<path d="M253.13,44.95 L-33.13,44.95 L-31.655,48.98 L251.655,48.98 Z" fill="rgba(89,163,194,1)"/>
<path d="M252.021,47.98 L-32.021,47.98 L-30.546,52.01 L250.546,52.01 Z" fill="rgba(86,162,191,1)"/>
<path d="M250.912,51.01 L-30.912,51.01 L-29.437,55.04 L249.437,55.04 Z" fill="rgba(83,161,189,1)"/>
<path d="M249.803,54.04 L-29.803,54.04 L-28.328,58.07 L248.328,58.07 Z" fill="rgba(79,159,186,1)"/>
<path d="M248.694,57.07 L-28.694,57.07 L-28.212,58.387 L-26.905,61.1 L246.905,61.1 L248.212,58.387 Z" fill="rgba(76,158,183,1)"/>
<path d="M247.387,60.1 L-27.387,60.1 L-25.446,64.13 L245.446,64.13 Z" fill="rgba(73,157,180,1)"/>
<path d="M245.927,63.13 L-25.927,63.13 L-23.986,67.16 L243.986,67.16 Z" fill="rgba(69,156,178,1)"/>
<path d="M244.468,66.16 L-24.468,66.16 L-22.526,70.19 L242.526,70.19 Z" fill="rgba(66,154,175,1)"/>
<path d="M243.008,69.19 L-23.008,69.19 L-21.896,71.499 L-20.85,73.22 L240.85,73.22 L241.896,71.499 Z" fill="rgba(62,153,172,1)"/>
<path d="M241.458,72.22 L-21.458,72.22 L-19.009,76.25 L239.009,76.25 Z" fill="rgba(58,152,170,1)"/>
<path d="M239.617,75.25 L-19.617,75.25 L-17.169,79.28 L237.169,79.28 Z" fill="rgba(54,151,167,1)"/>
<path d="M237.776,78.28 L-17.776,78.28 L-15.328,82.31 L235.328,82.31 Z" fill="rgba(50,149,164,1)"/>
<path d="M235.935,81.31 L-15.935,81.31 L-14.382,83.866 L-13.28,85.34 L233.28,85.34 L234.382,83.866 Z" fill="rgba(45,148,161,1)"/>
<path d="M234.028,84.34 L-14.028,84.34 L-11.015,88.37 L231.015,88.37 Z" fill="rgba(41,147,159,1)"/>
<path d="M231.762,87.37 L-11.762,87.37 L-8.749,91.4 L228.749,91.4 Z" fill="rgba(35,145,156,1)"/>
<path d="M229.497,90.4 L-9.497,90.4 L-6.483,94.43 L226.483,94.43 Z" fill="rgba(29,144,153,1)"/>
<path d="M227.231,93.43 L-7.231,93.43 L-5.747,95.414 L-3.888,97.46 L223.888,97.46 L225.747,95.414 Z" fill="rgba(27,142,150,1)"/>
<path d="M224.797,96.46 L-4.797,96.46 L-1.134,100.49 L221.134,100.49 Z" fill="rgba(26,141,147,1)"/>
<path d="M222.043,99.49 L-2.043,99.49 L1.62,103.52 L218.38,103.52 Z" fill="rgba(24,139,144,1)"/>
<path d="M219.289,102.52 L0.711,102.52 L3.934,106.066 L4.466,106.55 L215.534,106.55 L216.066,106.066 Z" fill="rgba(23,137,140,1)"/>
<path d="M216.535,105.55 L3.465,105.55 L3.934,106.066 L7.8,109.58 L212.2,109.58 L216.066,106.066 Z" fill="rgba(22,135,137,1)"/>
<path d="M213.3,108.58 L6.7,108.58 L11.134,112.61 L208.866,112.61 Z" fill="rgba(20,133,134,1)"/>
<path d="M209.966,111.61 L10.034,111.61 L14.468,115.64 L205.532,115.64 Z" fill="rgba(19,131,131,1)"/>
<path d="M206.632,114.64 L13.368,114.64 L14.586,115.747 L18.495,118.67 L201.505,118.67 L205.414,115.747 Z" fill="rgba(17,130,127,1)"/>
<path d="M202.843,117.67 L17.157,117.67 L22.547,121.7 L197.453,121.7 Z" fill="rgba(16,128,124,1)"/>
<path d="M198.791,120.7 L21.209,120.7 L26.134,124.382 L26.706,124.73 L193.294,124.73 L193.866,124.382 Z" fill="rgba(15,126,121,1)"/>
<path d="M194.739,123.73 L25.261,123.73 L26.134,124.382 L31.693,127.76 L188.307,127.76 L193.866,124.382 Z" fill="rgba(13,124,118,1)"/>
<path d="M189.953,126.76 L30.047,126.76 L36.681,130.79 L183.319,130.79 Z" fill="rgba(12,122,114,1)"/>
<path d="M184.965,129.79 L35.035,129.79 L38.501,131.896 L42.495,133.82 L177.505,133.82 L181.499,131.896 Z" fill="rgba(10,121,111,1)"/>
<path d="M179.58,132.82 L40.42,132.82 L48.785,136.85 L171.215,136.85 Z" fill="rgba(9,119,108,1)"/>
<path d="M173.291,135.85 L46.709,135.85 L51.613,138.212 L56.17,139.88 L163.83,139.88 L168.387,138.212 Z" fill="rgba(7,117,105,1)"/>
<path d="M166.562,138.88 L53.438,138.88 L64.448,142.91 L155.552,142.91 Z" fill="rgba(6,115,102,1)"/>
<path d="M158.284,141.91 L61.716,141.91 L65.395,143.256 L75.832,145.94 L144.168,145.94 L154.605,143.256 Z" fill="rgba(4,113,98,1)"/>
<path d="M148.057,144.94 L71.943,144.94 L79.77,146.953 L92.989,148.97 L127.011,148.97 L140.23,146.953 Z" fill="rgba(3,112,95,1)"/>
<path d="M133.563,147.97 L86.437,147.97 L94.663,149.226 L110,150 L125.337,149.226 Z" fill="rgba(1,108,89,1)"/>
<path d="M-137.921,-5.3 L-115,-45 L-92.079,-5.3 Z" fill="rgba(246,239,247,1)"/>
<path d="M-161.246,35.1 L-137.343,-6.3 L-92.657,-6.3 L-68.754,35.1 Z" fill="rgba(208,209,230,1)"/>
<path d="M-184.571,75.5 L-160.668,34.1 L-69.332,34.1 L-45.429,75.5 Z" fill="rgba(166,189,219,1)"/>
<path d="M-207.896,115.9 L-183.993,74.5 L-46.007,74.5 L-22.104,115.9 Z" fill="rgba(103,169,207,1)"/>
<path d="M-231.221,156.3 L-207.318,114.9 L-22.682,114.9 L1.221,156.3 Z" fill="rgba(28,144,153,1)"/>
<path d="M-253.564,195 L-230.643,155.3 L0.643,155.3 L23.564,195 Z" fill="rgba(1,108,89,1)"/>
<path d="M-197.46,250 L-197.46,220 L-200,220 L-200,250 Z" fill="rgba(215,48,39,1)"/>
<path d="M-193.42,250 L-193.42,220 L-198.46,220 L-198.46,250 Z" fill="rgba(215,48,39,1)"/>
<path d="M-189.38,250 L-189.38,220 L-194.42,220 L-194.42,250 Z" fill="rgba(217,54,42,1)"/>
<path d="M-185.34,250 L-185.34,220 L-190.38,220 L-190.38,250 Z" fill="rgba(219,60,44,1)"/>
<path d="M-181.3,250 L-181.3,220 L-186.34,220 L-186.34,250 Z" fill="rgba(221,66,47,1)"/>
<path d="M-177.26,250 L-177.26,220 L-182.3,220 L-182.3,250 Z" fill="rgba(223,71,49,1)"/>
<path d="M-173.22,250 L-173.22,220 L-178.26,220 L-178.26,250 Z" fill="rgba(225,76,52,1)"/>
<path d="M-169.18,250 L-169.18,220 L-174.22,220 L-174.22,250 Z" fill="rgba(227,81,54,1)"/>
<path d="M-165.14,250 L-165.14,220 L-170.18,220 L-170.18,250 Z" fill="rgba(229,86,57,1)"/>
<path d="M-161.1,250 L-161.1,220 L-166.14,220 L-166.14,250 Z" fill="rgba(231,90,59,1)"/>
<path d="M-157.06,250 L-157.06,220 L-162.1,220 L-162.1,250 Z" fill="rgba(233,95,62,1)"/>
<path d="M-153.02,250 L-153.02,220 L-158.06,220 L-158.06,250 Z" fill="rgba(235,99,64,1)"/>
<path d="M-148.98,250 L-148.98,220 L-154.02,220 L-154.02,250 Z" fill="rgba(236,104,67,1)"/>
<path d="M-144.94,250 L-144.94,220 L-149.98,220 L-149.98,250 Z" fill="rgba(238,108,69,1)"/>
<path d="M-140.9,250 L-140.9,220 L-145.94,220 L-145.94,250 Z" fill="rgba(240,113,72,1)"/>
<path d="M-136.86,250 L-136.86,220 L-141.9,220 L-141.9,250 Z" fill="rgba(242,117,74,1)"/>
<path d="M-132.82,250 L-132.82,220 L-137.86,220 L-137.86,250 Z" fill="rgba(244,121,77,1)"/>
<path d="M-128.78,250 L-128.78,220 L-133.82,220 L-133.82,250 Z" fill="rgba(245,125,79,1)"/>
<path d="M-124.74,250 L-124.74,220 L-129.78,220 L-129.78,250 Z" fill="rgba(247,129,82,1)"/>
<path d="M-120.7,250 L-120.7,220 L-125.74,220 L-125.74,250 Z" fill="rgba(249,134,84,1)"/>
<path d="M-116.66,250 L-116.66,220 L-121.7,220 L-121.7,250 Z" fill="rgba(251,138,87,1)"/>
<path d="M-112.62,250 L-112.62,220 L-117.66,220 L-117.66,250 Z" fill="rgba(252,142,90,1)"/>
<path d="M-108.58,250 L-108.58,220 L-113.62,220 L-113.62,250 Z" fill="rgba(253,146,92,1)"/>
<path d="M-104.54,250 L-104.54,220 L-109.58,220 L-109.58,250 Z" fill="rgba(253,151,95,1)"/>
<path d="M-100.5,250 L-100.5,220 L-105.54,220 L-105.54,250 Z" fill="rgba(253,155,98,1)"/>
<path d="M-96.46,250 L-96.46,220 L-101.5,220 L-101.5,250 Z" fill="rgba(254,159,101,1)"/>
<path d="M-92.42,250 L-92.42,220 L-97.46,220 L-97.46,250 Z" fill="rgba(254,163,103,1)"/>
<path d="M-88.38,250 L-88.38,220 L-93.42,220 L-93.42,250 Z" fill="rgba(254,168,106,1)"/>
<path d="M-84.34,250 L-84.34,220 L-89.38,220 L-89.38,250 Z" fill="rgba(255,172,109,1)"/>
<path d="M-80.3,250 L-80.3,220 L-85.34,220 L-85.34,250 Z" fill="rgba(255,176,112,1)"/>
<path d="M-76.26,250 L-76.26,220 L-81.3,220 L-81.3,250 Z" fill="rgba(255,180,114,1)"/>
<path d="M-72.22,250 L-72.22,220 L-77.26,220 L-77.26,250 Z" fill="rgba(255,184,117,1)"/>
<path d="M-68.18,250 L-68.18,220 L-73.22,220 L-73.22,250 Z" fill="rgba(255,189,120,1)"/>
<path d="M-64.14,250 L-64.14,220 L-69.18,220 L-69.18,250 Z" fill="rgba(255,193,123,1)"/>
<path d="M-60.1,250 L-60.1,220 L-65.14,220 L-65.14,250 Z" fill="rgba(255,197,126,1)"/>
<path d="M-56.06,250 L-56.06,220 L-61.1,220 L-61.1,250 Z" fill="rgba(255,201,128,1)"/>
<path d="M-52.02,250 L-52.02,220 L-57.06,220 L-57.06,250 Z" fill="rgba(255,205,131,1)"/>
<path d="M-47.98,250 L-47.98,220 L-53.02,220 L-53.02,250 Z" fill="rgba(255,209,134,1)"/>
<path d="M-43.94,250 L-43.94,220 L-48.98,220 L-48.98,250 Z" fill="rgba(255,213,137,1)"/>
<path d="M-39.9,250 L-39.9,220 L-44.94,220 L-44.94,250 Z" fill="rgba(255,217,139,1)"/>
<path d="M-35.86,250 L-35.86,220 L-40.9,220 L-40.9,250 Z" fill="rgba(254,221,142,1)"/>
<path d="M-31.82,250 L-31.82,220 L-36.86,220 L-36.86,250 Z" fill="rgba(253,224,147,1)"/>
<path d="M-27.78,250 L-27.78,220 L-32.82,220 L-32.82,250 Z" fill="rgba(252,226,153,1)"/>
<path d="M-23.74,250 L-23.74,220 L-28.78,220 L-28.78,250 Z" fill="rgba(251,227,158,1)"/>
<path d="M-19.7,250 L-19.7,220 L-24.74,220 L-24.74,250 Z" fill="rgba(249,228,164,1)"/>
<path d="M-15.66,250 L-15.66,220 L-20.7,220 L-20.7,250 Z" fill="rgba(248,229,170,1)"/>
<path d="M-11.62,250 L-11.62,220 L-16.66,220 L-16.66,250 Z" fill="rgba(246,230,175,1)"/>
<path d="M-7.58,250 L-7.58,220 L-12.62,220 L-12.62,250 Z" fill="rgba(245,231,181,1)"/>
<path d="M-3.54,250 L-3.54,220 L-8.58,220 L-8.58,250 Z" fill="rgba(243,232,186,1)"/>
<path d="M0.5,250 L0.5,220 L-4.54,220 L-4.54,250 Z" fill="rgba(242,233,191,1)"/>
<path d="M4.54,250 L4.54,220 L-0.5,220 L-0.5,250 Z" fill="rgba(240,234,196,1)"/>
<path d="M8.58,250 L8.58,220 L3.54,220 L3.54,250 Z" fill="rgba(239,235,201,1)"/>
<path d="M12.62,250 L12.62,220 L7.58,220 L7.58,250 Z" fill="rgba(237,236,207,1)"/>
<path d="M16.66,250 L16.66,220 L11.62,220 L11.62,250 Z" fill="rgba(236,237,212,1)"/>
<path d="M20.7,250 L20.7,220 L15.66,220 L15.66,250 Z" fill="rgba(234,238,217,1)"/>
<path d="M24.74,250 L24.74,220 L19.7,220 L19.7,250 Z" fill="rgba(233,238,222,1)"/>
<path d="M28.78,250 L28.78,220 L23.74,220 L23.74,250 Z" fill="rgba(231,239,227,1)"/>
<path d="M32.82,250 L32.82,220 L27.78,220 L27.78,250 Z" fill="rgba(230,240,232,1)"/>
<path d="M36.86,250 L36.86,220 L31.82,220 L31.82,250 Z" fill="rgba(228,241,236,1)"/>
<path d="M40.9,250 L40.9,220 L35.86,220 L35.86,250 Z" fill="rgba(226,242,241,1)"/>
<path d="M44.94,250 L44.94,220 L39.9,220 L39.9,250 Z" fill="rgba(225,243,246,1)"/>
<path d="M48.98,250 L48.98,220 L43.94,220 L43.94,250 Z" fill="rgba(221,241,247,1)"/>
<path d="M53.02,250 L53.02,220 L47.98,220 L47.98,250 Z" fill="rgba(217,238,245,1)"/>
<path d="M57.06,250 L57.06,220 L52.02,220 L52.02,250 Z" fill="rgba(213,236,244,1)"/>
<path d="M61.1,250 L61.1,220 L56.06,220 L56.06,250 Z" fill="rgba(209,233,242,1)"/>
<path d="M65.14,250 L65.14,220 L60.1,220 L60.1,250 Z" fill="rgba(205,230,241,1)"/>
<path d="M69.18,250 L69.18,220 L64.14,220 L64.14,250 Z" fill="rgba(201,228,239,1)"/>
<path d="M73.22,250 L73.22,220 L68.18,220 L68.18,250 Z" fill="rgba(197,225,238,1)"/>
<path d="M77.26,250 L77.26,220 L72.22,220 L72.22,250 Z" fill="rgba(193,222,237,1)"/>
<path d="M81.3,250 L81.3,220 L76.26,220 L76.26,250 Z" fill="rgba(189,220,235,1)"/>
<path d="M85.34,250 L85.34,220 L80.3,220 L80.3,250 Z" fill="rgba(185,217,234,1)"/>
<path d="M89.38,250 L89.38,220 L84.34,220 L84.34,250 Z" fill="rgba(181,215,232,1)"/>
<path d="M93.42,250 L93.42,220 L88.38,220 L88.38,250 Z" fill="rgba(177,212,231,1)"/>
<path d="M97.46,250 L97.46,220 L92.42,220 L92.42,250 Z" fill="rgba(173,209,229,1)"/>
<path d="M101.5,250 L101.5,220 L96.46,220 L96.46,250 Z" fill="rgba(169,207,228,1)"/>
<path d="M105.54,250 L105.54,220 L100.5,220 L100.5,250 Z" fill="rgba(165,204,226,1)"/>
<path d="M109.58,250 L109.58,220 L104.54,220 L104.54,250 Z" fill="rgba(161,201,225,1)"/>
<path d="M113.62,250 L113.62,220 L108.58,220 L108.58,250 Z" fill="rgba(157,199,223,1)"/>
<path d="M117.66,250 L117.66,220 L112.62,220 L112.62,250 Z" fill="rgba(153,196,222,1)"/>
<path d="M121.7,250 L121.7,220 L116.66,220 L116.66,250 Z" fill="rgba(149,194,220,1)"/>
<path d="M125.74,250 L125.74,220 L120.7,220 L120.7,250 Z" fill="rgba(145,191,219,1)"/>
<path d="M129.78,250 L129.78,220 L124.74,220 L124.74,250 Z" fill="rgba(141,187,217,1)"/>
<path d="M133.82,250 L133.82,220 L128.78,220 L128.78,250 Z" fill="rgba(137,184,215,1)"/>
<path d="M137.86,250 L137.86,220 L132.82,220 L132.82,250 Z" fill="rgba(133,180,213,1)"/>
<path d="M141.9,250 L141.9,220 L136.86,220 L136.86,250 Z" fill="rgba(129,176,211,1)"/>
<path d="M145.94,250 L145.94,220 L140.9,220 L140.9,250 Z" fill="rgba(126,172,209,1)"/>
<path d="M149.98,250 L149.98,220 L144.94,220 L144.94,250 Z" fill="rgba(122,169,208,1)"/>
<path d="M154.02,250 L154.02,220 L148.98,220 L148.98,250 Z" fill="rgba(118,165,206,1)"/>
<path d="M158.06,250 L158.06,220 L153.02,220 L153.02,250 Z" fill="rgba(114,161,204,1)"/>
<path d="M162.1,250 L162.1,220 L157.06,220 L157.06,250 Z" fill="rgba(110,158,202,1)"/>
<path d="M166.14,250 L166.14,220 L161.1,220 L161.1,250 Z" fill="rgba(106,154,200,1)"/>
<path d="M170.18,250 L170.18,220 L165.14,220 L165.14,250 Z" fill="rgba(102,150,198,1)"/>
<path d="M174.22,250 L174.22,220 L169.18,220 L169.18,250 Z" fill="rgba(99,146,196,1)"/>
<path d="M178.26,250 L178.26,220 L173.22,220 L173.22,250 Z" fill="rgba(95,143,194,1)"/>
<path d="M182.3,250 L182.3,220 L177.26,220 L177.26,250 Z" fill="rgba(91,139,192,1)"/>
<path d="M186.34,250 L186.34,220 L181.3,220 L181.3,250 Z" fill="rgba(87,135,190,1)"/>
<path d="M190.38,250 L190.38,220 L185.34,220 L185.34,250 Z" fill="rgba(84,132,188,1)"/>
<path d="M194.42,250 L194.42,220 L189.38,220 L189.38,250 Z" fill="rgba(80,128,186,1)"/>
<path d="M198.46,250 L198.46,220 L193.42,220 L193.42,250 Z" fill="rgba(76,124,184,1)"/>
<path d="M200,250 L200,220 L197.46,220 L197.46,250 Z" fill="rgba(69,117,180,1)"/>
<path d="M-200,220 L200,220 L200,250 L-200,250 Z" fill="rgba(0,0,0,0)" stroke="rgba(104,104,104,1)" stroke-width="1"/>
</svg>