<svg xmlns="http://www.w3.org/2000/svg" viewBox="-244.8 -135.8 489.6 379.6">
<path d="M-215,-106 L-115,-106 L-115,-6 L-215,-6 Z" fill="rgba(0,0,0,0.050980392156862744)" stroke="rgba(0,0,0,1)" stroke-width="1"/>
<path d="M-105,-106 L-5,-106 L-5,-6 L-105,-6 Z" fill="rgba(0,0,0,0.050980392156862744)" stroke="rgba(0,0,0,1)" stroke-width="1"/>
<path d="M5,-106 L105,-106 L105,-6 L5,-6 Z" fill="rgba(0,0,0,0.050980392156862744)" stroke="rgba(0,0,0,1)" stroke-width="1"/>
<path d="M115,-106 L215,-106 L215,-6 L115,-6 Z" fill="rgba(0,0,0,0.050980392156862744)" stroke="rgba(0,0,0,1)" stroke-width="1"/>
<path d="M-215,4 L-115,4 L-115,104 L-215,104 Z" fill="rgba(0,0,0,0.050980392156862744)" stroke="rgba(0,0,0,1)" stroke-width="1"/>
<path d="M-105,4 L-5,4 L-5,104 L-105,104 Z" fill="rgba(0,0,0,0.050980392156862744)" stroke="rgba(0,0,0,1)" stroke-width="1"/>
<path d="M5,4 L105,4 L105,104 L5,104 Z" fill="rgba(0,0,0,0.050980392156862744)" stroke="rgba(0,0,0,1)" stroke-width="1"/>
<path d="M115,4 L215,4 L215,104 L115,104 Z" fill="rgba(0,0,0,0.050980392156862744)" stroke="rgba(0,0,0,1)" stroke-width="1"/>
<path d="M-215,114 L-115,114 L-115,214 L-215,214 Z" fill="rgba(0,0,0,0.050980392156862744)" stroke="rgba(0,0,0,1)" stroke-width="1"/>
<path d="M-105,114 L-5,114 L-5,214 L-105,214 Z" fill="rgba(0,0,0,0.050980392156862744)" stroke="rgba(0,0,0,1)" stroke-width="1"/>
<path d="M5,114 L105,114 L105,214 L5,214 Z" fill="rgba(0,0,0,0.050980392156862744)" stroke="rgba(0,0,0,1)" stroke-width="1"/>
<text x="-171.672" y="-56" text-anchor="start" font-family="Verdana, Helvetica, Arial, sans-serif" font-size="24" fill="rgba(0,0,0,1)" transform="matrix(1 0 0 1 0 9)">1</text>
<text x="-61.672" y="-56" text-anchor="start" font-family="Verdana, Helvetica, Arial, sans-serif" font-size="24" fill="rgba(0,0,0,1)" transform="matrix(1 0 0 1 0 9)">2</text>
<text x="48.328" y="-56" text-anchor="start" font-family="Verdana, Helvetica, Arial, sans-serif" font-size="24" fill="rgba(0,0,0,1)" transform="matrix(1 0 0 1 0 9)">3</text>
<text x="158.328" y="-56" text-anchor="start" font-family="Verdana, Helvetica, Arial, sans-serif" font-size="24" fill="rgba(0,0,0,1)" transform="matrix(1 0 0 1 0 9)">4</text>
<text x="-171.672" y="54" text-anchor="start" font-family="Verdana, Helvetica, Arial, sans-serif" font-size="24" fill="rgba(0,0,0,1)" transform="matrix(1 0 0 1 0 9)">5</text>
<text x="-61.672" y="54" text-anchor="start" font-family="Verdana, Helvetica, Arial, sans-serif" font-size="24" fill="rgba(0,0,0,1)" transform="matrix(1 0 0 1 0 9)">6</text>
<text x="48.328" y="54" text-anchor="start" font-family="Verdana, Helvetica, Arial, sans-serif" font-size="24" fill="rgba(0,0,0,1)" transform="matrix(1 0 0 1 0 9)">7</text>
<text x="158.328" y="54" text-anchor="start" font-family="Verdana, Helvetica, Arial, sans-serif" font-size="24" fill="rgba(0,0,0,1)" transform="matrix(1 0 0 1 0 9)">8</text>
<text x="-171.672" y="164" text-anchor="start" font-family="Verdana, Helvetica, Arial, sans-serif" font-size="24" fill="rgba(0,0,0,1)" transform="matrix(1 0 0 1 0 9)">9</text>
<text x="-68.344" y="164" text-anchor="start" font-family="Verdana, Helvetica, Arial, sans-serif" font-size="24" fill="rgba(0,0,0,1)" transform="matrix(1 0 0 1 0 9)">10</text>
<text x="41.656" y="164" text-anchor="start" font-family="Verdana, Helvetica, Arial, sans-serif" font-size="24" fill="rgba(0,0,0,1)" transform="matrix(1 0 0 1 0 9)">11</text>
</svg>