<svg xmlns="http://www.w3.org/2000/svg" viewBox="-228 -178 456 456">
<path d="M100,50 L99.803,56.279 L199.605,62.558 L200,50 Z" fill="rgba(255,157,201,0.9999999999999999)"/>
<path d="M99.803,56.279 L99.211,62.533 L198.423,75.067 L199.605,62.558 Z" fill="rgba(255,157,195,0.9999999999999999)"/>
<path d="M99.211,62.533 L98.229,68.738 L196.457,87.476 L198.423,75.067 Z" fill="rgba(255,157,189,0.9999999999999999)"/>
<path d="M98.229,68.738 L96.858,74.869 L193.717,99.738 L196.457,87.476 Z" fill="rgba(255,157,183,0.9999999999999999)"/>
<path d="M96.858,74.869 L95.106,80.902 L190.211,111.803 L193.717,99.738 Z" fill="rgba(255,158,177,0.9999999999999999)"/>
<path d="M95.106,80.902 L92.978,86.812 L185.955,123.625 L190.211,111.803 Z" fill="rgba(255,159,171,0.9999999999999999)"/>
<path d="M92.978,86.812 L90.483,92.578 L180.965,135.156 L185.955,123.625 Z" fill="rgba(255,160,165,0.9999999999999999)"/>
<path d="M90.483,92.578 L87.631,98.175 L175.261,146.351 L180.965,135.156 Z" fill="rgba(255,161,160,0.9999999999999999)"/>
<path d="M87.631,98.175 L84.433,103.583 L168.866,157.165 L175.261,146.351 Z" fill="rgba(255,162,154,0.9999999999999999)"/>
<path d="M84.433,103.583 L80.902,108.779 L161.803,167.557 L168.866,157.165 Z" fill="rgba(255,164,149,0.9999999999999999)"/>
<path d="M80.902,108.779 L77.051,113.742 L154.103,177.485 L161.803,167.557 Z" fill="rgba(255,165,144,0.9999999999999999)"/>
<path d="M77.051,113.742 L72.897,118.455 L145.794,186.909 L154.103,177.485 Z" fill="rgba(255,167,139,0.9999999999999999)"/>
<path d="M72.897,118.455 L68.455,122.897 L136.909,195.794 L145.794,186.909 Z" fill="rgba(255,169,134,0.9999999999999999)"/>
<path d="M68.455,122.897 L63.742,127.051 L127.485,204.103 L136.909,195.794 Z" fill="rgba(255,171,129,0.9999999999999999)"/>
<path d="M63.742,127.051 L58.779,130.902 L117.557,211.803 L127.485,204.103 Z" fill="rgba(255,173,125,0.9999999999999999)"/>
<path d="M58.779,130.902 L53.583,134.433 L107.165,218.866 L117.557,211.803 Z" fill="rgba(255,175,121,0.9999999999999999)"/>
<path d="M53.583,134.433 L48.175,137.631 L96.351,225.261 L107.165,218.866 Z" fill="rgba(255,177,117,0.9999999999999999)"/>
<path d="M48.175,137.631 L42.578,140.483 L85.156,230.965 L96.351,225.261 Z" fill="rgba(255,179,113,0.9999999999999999)"/>
<path d="M42.578,140.483 L36.812,142.978 L73.625,235.955 L85.156,230.965 Z" fill="rgba(255,182,110,0.9999999999999999)"/>
<path d="M36.812,142.978 L30.902,145.106 L61.803,240.211 L73.625,235.955 Z" fill="rgba(251,184,107,0.9999999999999999)"/>
<path d="M30.902,145.106 L24.869,146.858 L49.738,243.717 L61.803,240.211 Z" fill="rgba(247,186,104,0.9999999999999999)"/>
<path d="M24.869,146.858 L18.738,148.229 L37.476,246.457 L49.738,243.717 Z" fill="rgba(242,188,102,0.9999999999999999)"/>
<path d="M18.738,148.229 L12.533,149.211 L25.067,248.423 L37.476,246.457 Z" fill="rgba(237,190,100,0.9999999999999999)"/>
<path d="M12.533,149.211 L6.279,149.803 L12.558,249.605 L25.067,248.423 Z" fill="rgba(232,193,99,0.9999999999999999)"/>
<path d="M6.279,149.803 L0,150 L0,250 L12.558,249.605 Z" fill="rgba(226,195,98,0.9999999999999999)"/>
<path d="M0,150 L-6.279,149.803 L-12.558,249.605 L0,250 Z" fill="rgba(221,197,97,0.9999999999999999)"/>
<path d="M-6.279,149.803 L-12.533,149.211 L-25.067,248.423 L-12.558,249.605 Z" fill="rgba(215,199,97,0.9999999999999999)"/>
<path d="M-12.533,149.211 L-18.738,148.229 L-37.476,246.457 L-25.067,248.423 Z" fill="rgba(210,201,97,0.9999999999999999)"/>
<path d="M-18.738,148.229 L-24.869,146.858 L-49.738,243.717 L-37.476,246.457 Z" fill="rgba(204,202,98,0.9999999999999999)"/>
<path d="M-24.869,146.858 L-30.902,145.106 L-61.803,240.211 L-49.738,243.717 Z" fill="rgba(198,204,99,0.9999999999999999)"/>
<path d="M-30.902,145.106 L-36.812,142.978 L-73.625,235.955 L-61.803,240.211 Z" fill="rgba(192,206,101,0.9999999999999999)"/>
<path d="M-36.812,142.978 L-42.578,140.483 L-85.156,230.965 L-73.625,235.955 Z" fill="rgba(185,208,103,0.9999999999999999)"/>
<path d="M-42.578,140.483 L-48.175,137.631 L-96.351,225.261 L-85.156,230.965 Z" fill="rgba(179,209,105,0.9999999999999999)"/>
<path d="M-48.175,137.631 L-53.583,134.433 L-107.165,218.866 L-96.351,225.261 Z" fill="rgba(172,211,108,0.9999999999999999)"/>
<path d="M-53.583,134.433 L-58.779,130.902 L-117.557,211.803 L-107.165,218.866 Z" fill="rgba(166,212,112,0.9999999999999999)"/>
<path d="M-58.779,130.902 L-63.742,127.051 L-127.485,204.103 L-117.557,211.803 Z" fill="rgba(159,213,115,0.9999999999999999)"/>
<path d="M-63.742,127.051 L-68.455,122.897 L-136.909,195.794 L-127.485,204.103 Z" fill="rgba(152,215,119,0.9999999999999999)"/>
<path d="M-68.455,122.897 L-72.897,118.455 L-145.794,186.909 L-136.909,195.794 Z" fill="rgba(145,216,123,0.9999999999999999)"/>
<path d="M-72.897,118.455 L-77.051,113.742 L-154.103,177.485 L-145.794,186.909 Z" fill="rgba(138,217,128,0.9999999999999999)"/>
<path d="M-77.051,113.742 L-80.902,108.779 L-161.803,167.557 L-154.103,177.485 Z" fill="rgba(131,218,133,0.9999999999999999)"/>
<path d="M-80.902,108.779 L-84.433,103.583 L-168.866,157.165 L-161.803,167.557 Z" fill="rgba(123,219,138,0.9999999999999999)"/>
<path d="M-84.433,103.583 L-87.631,98.175 L-175.261,146.351 L-168.866,157.165 Z" fill="rgba(115,220,143,0.9999999999999999)"/>
<path d="M-87.631,98.175 L-90.483,92.578 L-180.965,135.156 L-175.261,146.351 Z" fill="rgba(107,221,148,0.9999999999999999)"/>
<path d="M-90.483,92.578 L-92.978,86.812 L-185.955,123.625 L-180.965,135.156 Z" fill="rgba(99,221,154,0.9999999999999999)"/>
<path d="M-92.978,86.812 L-95.106,80.902 L-190.211,111.803 L-185.955,123.625 Z" fill="rgba(90,222,160,0.9999999999999999)"/>
<path d="M-95.106,80.902 L-96.858,74.869 L-193.717,99.738 L-190.211,111.803 Z" fill="rgba(80,222,166,0.9999999999999999)"/>
<path d="M-96.858,74.869 L-98.229,68.738 L-196.457,87.476 L-193.717,99.738 Z" fill="rgba(70,223,172,0.9999999999999999)"/>
<path d="M-98.229,68.738 L-99.211,62.533 L-198.423,75.067 L-196.457,87.476 Z" fill="rgba(58,223,178,0.9999999999999999)"/>
<path d="M-99.211,62.533 L-99.803,56.279 L-199.605,62.558 L-198.423,75.067 Z" fill="rgba(44,224,184,0.9999999999999999)"/>
<path d="M-99.803,56.279 L-100,50 L-200,50 L-199.605,62.558 Z" fill="rgba(24,224,190,0.9999999999999999)"/>
<path d="M-100,50 L-99.803,43.721 L-199.605,37.442 L-200,50 Z" fill="rgba(0,224,196,0.9999999999999999)"/>
<path d="M-99.803,43.721 L-99.211,37.467 L-198.423,24.933 L-199.605,37.442 Z" fill="rgba(0,224,202,0.9999999999999999)"/>
<path d="M-99.211,37.467 L-98.229,31.262 L-196.457,12.524 L-198.423,24.933 Z" fill="rgba(0,224,209,0.9999999999999999)"/>
<path d="M-98.229,31.262 L-96.858,25.131 L-193.717,0.262 L-196.457,12.524 Z" fill="rgba(0,224,215,0.9999999999999999)"/>
<path d="M-96.858,25.131 L-95.106,19.098 L-190.211,-11.803 L-193.717,0.262 Z" fill="rgba(0,224,221,0.9999999999999999)"/>
<path d="M-95.106,19.098 L-92.978,13.188 L-185.955,-23.625 L-190.211,-11.803 Z" fill="rgba(0,224,227,0.9999999999999999)"/>
<path d="M-92.978,13.188 L-90.483,7.422 L-180.965,-35.156 L-185.955,-23.625 Z" fill="rgba(0,223,233,0.9999999999999999)"/>
<path d="M-90.483,7.422 L-87.631,1.825 L-175.261,-46.351 L-180.965,-35.156 Z" fill="rgba(0,223,238,0.9999999999999999)"/>
<path d="M-87.631,1.825 L-84.433,-3.583 L-168.866,-57.165 L-175.261,-46.351 Z" fill="rgba(0,223,244,0.9999999999999999)"/>
<path d="M-84.433,-3.583 L-80.902,-8.779 L-161.803,-67.557 L-168.866,-57.165 Z" fill="rgba(0,222,249,0.9999999999999999)"/>
<path d="M-80.902,-8.779 L-77.051,-13.742 L-154.103,-77.485 L-161.803,-67.557 Z" fill="rgba(0,221,254,0.9999999999999999)"/>
<path d="M-77.051,-13.742 L-72.897,-18.455 L-145.794,-86.909 L-154.103,-77.485 Z" fill="rgba(0,221,255,0.9999999999999999)"/>
<path d="M-72.897,-18.455 L-68.455,-22.897 L-136.909,-95.794 L-145.794,-86.909 Z" fill="rgba(0,220,255,0.9999999999999999)"/>
<path d="M-68.455,-22.897 L-63.742,-27.051 L-127.485,-104.103 L-136.909,-95.794 Z" fill="rgba(0,219,255,0.9999999999999999)"/>
<path d="M-63.742,-27.051 L-58.779,-30.902 L-117.557,-111.803 L-127.485,-104.103 Z" fill="rgba(0,218,255,0.9999999999999999)"/>
<path d="M-58.779,-30.902 L-53.583,-34.433 L-107.165,-118.866 L-117.557,-111.803 Z" fill="rgba(0,217,255,0.9999999999999999)"/>
<path d="M-53.583,-34.433 L-48.175,-37.631 L-96.351,-125.261 L-107.165,-118.866 Z" fill="rgba(11,216,255,0.9999999999999999)"/>
<path d="M-48.175,-37.631 L-42.578,-40.483 L-85.156,-130.965 L-96.351,-125.261 Z" fill="rgba(42,214,255,0.9999999999999999)"/>
<path d="M-42.578,-40.483 L-36.812,-42.978 L-73.625,-135.955 L-85.156,-130.965 Z" fill="rgba(60,213,255,0.9999999999999999)"/>
<path d="M-36.812,-42.978 L-30.902,-45.106 L-61.803,-140.211 L-73.625,-135.955 Z" fill="rgba(75,212,255,0.9999999999999999)"/>
<path d="M-30.902,-45.106 L-24.869,-46.858 L-49.738,-143.717 L-61.803,-140.211 Z" fill="rgba(88,210,255,0.9999999999999999)"/>
<path d="M-24.869,-46.858 L-18.738,-48.229 L-37.476,-146.457 L-49.738,-143.717 Z" fill="rgba(100,209,255,0.9999999999999999)"/>
<path d="M-18.738,-48.229 L-12.533,-49.211 L-25.067,-148.423 L-37.476,-146.457 Z" fill="rgba(111,207,255,0.9999999999999999)"/>
<path d="M-12.533,-49.211 L-6.279,-49.803 L-12.558,-149.605 L-25.067,-148.423 Z" fill="rgba(122,205,255,0.9999999999999999)"/>
<path d="M-6.279,-49.803 L0,-50 L0,-150 L-12.558,-149.605 Z" fill="rgba(132,203,255,0.9999999999999999)"/>
<path d="M0,-50 L6.279,-49.803 L12.558,-149.605 L0,-150 Z" fill="rgba(142,201,255,0.9999999999999999)"/>
<path d="M6.279,-49.803 L12.533,-49.211 L25.067,-148.423 L12.558,-149.605 Z" fill="rgba(152,199,255,0.9999999999999999)"/>
<path d="M12.533,-49.211 L18.738,-48.229 L37.476,-146.457 L25.067,-148.423 Z" fill="rgba(161,197,255,0.9999999999999999)"/>
<path d="M18.738,-48.229 L24.869,-46.858 L49.738,-143.717 L37.476,-146.457 Z" fill="rgba(170,195,255,0.9999999999999999)"/>
<path d="M24.869,-46.858 L30.902,-45.106 L61.803,-140.211 L49.738,-143.717 Z" fill="rgba(179,193,255,0.9999999999999999)"/>
<path d="M30.902,-45.106 L36.812,-42.978 L73.625,-135.955 L61.803,-140.211 Z" fill="rgba(187,191,255,0.9999999999999999)"/>
<path d="M36.812,-42.978 L42.578,-40.483 L85.156,-130.965 L73.625,-135.955 Z" fill="rgba(196,189,255,0.9999999999999999)"/>
<path d="M42.578,-40.483 L48.175,-37.631 L96.351,-125.261 L85.156,-130.965 Z" fill="rgba(203,186,255,0.9999999999999999)"/>
<path d="M48.175,-37.631 L53.583,-34.433 L107.165,-118.866 L96.351,-125.261 Z" fill="rgba(211,184,255,0.9999999999999999)"/>
<path d="M53.583,-34.433 L58.779,-30.902 L117.557,-111.803 L107.165,-118.866 Z" fill="rgba(218,182,255,0.9999999999999999)"/>
<path d="M58.779,-30.902 L63.742,-27.051 L127.485,-104.103 L117.557,-111.803 Z" fill="rgba(225,180,255,0.9999999999999999)"/>
<path d="M63.742,-27.051 L68.455,-22.897 L136.909,-95.794 L127.485,-104.103 Z" fill="rgba(232,177,255,0.9999999999999999)"/>
<path d="M68.455,-22.897 L72.897,-18.455 L145.794,-86.909 L136.909,-95.794 Z" fill="rgba(238,175,255,0.9999999999999999)"/>
<path d="M72.897,-18.455 L77.051,-13.742 L154.103,-77.485 L145.794,-86.909 Z" fill="rgba(244,173,255,0.9999999999999999)"/>
<path d="M77.051,-13.742 L80.902,-8.779 L161.803,-67.557 L154.103,-77.485 Z" fill="rgba(249,171,255,0.9999999999999999)"/>
<path d="M80.902,-8.779 L84.433,-3.583 L168.866,-57.165 L161.803,-67.557 Z" fill="rgba(254,169,255,0.9999999999999999)"/>
<path d="M84.433,-3.583 L87.631,1.825 L175.261,-46.351 L168.866,-57.165 Z" fill="rgba(255,167,252,0.9999999999999999)"/>
<path d="M87.631,1.825 L90.483,7.422 L180.965,-35.156 L175.261,-46.351 Z" fill="rgba(255,165,247,0.9999999999999999)"/>
<path d="M90.483,7.422 L92.978,13.188 L185.955,-23.625 L180.965,-35.156 Z" fill="rgba(255,163,242,0.9999999999999999)"/>
<path d="M92.978,13.188 L95.106,19.098 L190.211,-11.803 L185.955,-23.625 Z" fill="rgba(255,162,236,0.9999999999999999)"/>
<path d="M95.106,19.098 L96.858,25.131 L193.717,0.262 L190.211,-11.803 Z" fill="rgba(255,161,231,0.9999999999999999)"/>
<path d="M96.858,25.131 L98.229,31.262 L196.457,12.524 L193.717,0.262 Z" fill="rgba(255,159,225,0.9999999999999999)"/>
<path d="M98.229,31.262 L99.211,37.467 L198.423,24.933 L196.457,12.524 Z" fill="rgba(255,159,219,0.9999999999999999)"/>
<path d="M99.211,37.467 L99.803,43.721 L199.605,37.442 L198.423,24.933 Z" fill="rgba(255,158,213,0.9999999999999999)"/>
<path d="M99.803,43.721 L100,50 L200,50 L199.605,37.442 Z" fill="rgba(255,157,207,0.9999999999999999)"/>
</svg>