<svg xmlns="http://www.w3.org/2000/svg" viewBox="-253.3 -135.92 503.55 403.99">
<path d="M-190.35,-88.739 L-198.45,-74.709 L-214.65,-74.709 L-222.75,-88.739 L-214.65,-102.768 L-198.45,-102.768 Z" fill="rgba(255,127,127,1)" stroke="rgba(0,0,0,1)" stroke-width="2"/>
<path d="M-162,-72.684 L-170.1,-58.655 L-186.3,-58.655 L-194.4,-72.684 L-186.3,-86.714 L-170.1,-86.714 Z" fill="rgba(255,200,127,1)" stroke="rgba(0,0,0,1)" stroke-width="2"/>
<path d="M-133.65,-88.739 L-141.75,-74.709 L-157.95,-74.709 L-166.05,-88.739 L-157.95,-102.768 L-141.75,-102.768 Z" fill="rgba(238,255,127,1)" stroke="rgba(0,0,0,1)" stroke-width="2"/>
<path d="M-105.3,-72.684 L-113.4,-58.655 L-129.6,-58.655 L-137.7,-72.684 L-129.6,-86.714 L-113.4,-86.714 Z" fill="rgba(165,255,127,1)" stroke="rgba(0,0,0,1)" stroke-width="2"/>
<path d="M-76.95,-88.739 L-85.05,-74.709 L-101.25,-74.709 L-109.35,-88.739 L-101.25,-102.768 L-85.05,-102.768 Z" fill="rgba(127,255,162,1)" stroke="rgba(0,0,0,1)" stroke-width="2"/>
<path d="M-48.6,-72.684 L-56.7,-58.655 L-72.9,-58.655 L-81,-72.684 L-72.9,-86.714 L-56.7,-86.714 Z" fill="rgba(127,255,235,1)" stroke="rgba(0,0,0,1)" stroke-width="2"/>
<path d="M-20.25,-88.739 L-28.35,-74.709 L-44.55,-74.709 L-52.65,-88.739 L-44.55,-102.768 L-28.35,-102.768 Z" fill="rgba(127,203,255,1)" stroke="rgba(0,0,0,1)" stroke-width="2"/>
<path d="M-190.35,-56.63 L-198.45,-42.6 L-214.65,-42.6 L-222.75,-56.63 L-214.65,-70.659 L-198.45,-70.659 Z" fill="rgba(255,127,127,1)" stroke="rgba(0,0,0,1)" stroke-width="2"/>
<path d="M-162,-40.575 L-170.1,-26.545 L-186.3,-26.545 L-194.4,-40.575 L-186.3,-54.605 L-170.1,-54.605 Z" fill="rgba(255,200,127,1)" stroke="rgba(0,0,0,1)" stroke-width="2"/>
<path d="M-133.65,-56.63 L-141.75,-42.6 L-157.95,-42.6 L-166.05,-56.63 L-157.95,-70.659 L-141.75,-70.659 Z" fill="rgba(238,255,127,1)" stroke="rgba(0,0,0,1)" stroke-width="2"/>
<path d="M-105.3,-40.575 L-113.4,-26.545 L-129.6,-26.545 L-137.7,-40.575 L-129.6,-54.605 L-113.4,-54.605 Z" fill="rgba(165,255,127,1)" stroke="rgba(0,0,0,1)" stroke-width="2"/>
<path d="M-76.95,-56.63 L-85.05,-42.6 L-101.25,-42.6 L-109.35,-56.63 L-101.25,-70.659 L-85.05,-70.659 Z" fill="rgba(127,255,162,1)" stroke="rgba(0,0,0,1)" stroke-width="2"/>
<path d="M-48.6,-40.575 L-56.7,-26.545 L-72.9,-26.545 L-81,-40.575 L-72.9,-54.605 L-56.7,-54.605 Z" fill="rgba(127,255,235,1)" stroke="rgba(0,0,0,1)" stroke-width="2"/>
<path d="M-20.25,-56.63 L-28.35,-42.6 L-44.55,-42.6 L-52.65,-56.63 L-44.55,-70.659 L-28.35,-70.659 Z" fill="rgba(127,203,255,1)" stroke="rgba(0,0,0,1)" stroke-width="2"/>
<path d="M-190.35,-24.52 L-198.45,-10.491 L-214.65,-10.491 L-222.75,-24.52 L-214.65,-38.55 L-198.45,-38.55 Z" fill="rgba(255,127,127,1)" stroke="rgba(0,0,0,1)" stroke-width="2"/>
<path d="M-162,-8.466 L-170.1,5.564 L-186.3,5.564 L-194.4,-8.466 L-186.3,-22.495 L-170.1,-22.495 Z" fill="rgba(255,200,127,1)" stroke="rgba(0,0,0,1)" stroke-width="2"/>
<path d="M-133.65,-24.52 L-141.75,-10.491 L-157.95,-10.491 L-166.05,-24.52 L-157.95,-38.55 L-141.75,-38.55 Z" fill="rgba(238,255,127,1)" stroke="rgba(0,0,0,1)" stroke-width="2"/>
<path d="M-105.3,-8.466 L-113.4,5.564 L-129.6,5.564 L-137.7,-8.466 L-129.6,-22.495 L-113.4,-22.495 Z" fill="rgba(165,255,127,1)" stroke="rgba(0,0,0,1)" stroke-width="2"/>
<path d="M-76.95,-24.52 L-85.05,-10.491 L-101.25,-10.491 L-109.35,-24.52 L-101.25,-38.55 L-85.05,-38.55 Z" fill="rgba(127,255,162,1)" stroke="rgba(0,0,0,1)" stroke-width="2"/>
<path d="M-48.6,-8.466 L-56.7,5.564 L-72.9,5.564 L-81,-8.466 L-72.9,-22.495 L-56.7,-22.495 Z" fill="rgba(127,255,235,1)" stroke="rgba(0,0,0,1)" stroke-width="2"/>
<path d="M-20.25,-24.52 L-28.35,-10.491 L-44.55,-10.491 L-52.65,-24.52 L-44.55,-38.55 L-28.35,-38.55 Z" fill="rgba(127,203,255,1)" stroke="rgba(0,0,0,1)" stroke-width="2"/>
<path d="M-190.35,7.589 L-198.45,21.618 L-214.65,21.618 L-222.75,7.589 L-214.65,-6.441 L-198.45,-6.441 Z" fill="rgba(255,127,127,1)" stroke="rgba(0,0,0,1)" stroke-width="2"/>
<path d="M-162,23.643 L-170.1,37.673 L-186.3,37.673 L-194.4,23.643 L-186.3,9.614 L-170.1,9.614 Z" fill="rgba(255,200,127,1)" stroke="rgba(0,0,0,1)" stroke-width="2"/>
<path d="M-133.65,7.589 L-141.75,21.618 L-157.95,21.618 L-166.05,7.589 L-157.95,-6.441 L-141.75,-6.441 Z" fill="rgba(238,255,127,1)" stroke="rgba(0,0,0,1)" stroke-width="2"/>
<path d="M-105.3,23.643 L-113.4,37.673 L-129.6,37.673 L-137.7,23.643 L-129.6,9.614 L-113.4,9.614 Z" fill="rgba(165,255,127,1)" stroke="rgba(0,0,0,1)" stroke-width="2"/>
<path d="M-76.95,7.589 L-85.05,21.618 L-101.25,21.618 L-109.35,7.589 L-101.25,-6.441 L-85.05,-6.441 Z" fill="rgba(127,255,162,1)" stroke="rgba(0,0,0,1)" stroke-width="2"/>
<path d="M-48.6,23.643 L-56.7,37.673 L-72.9,37.673 L-81,23.643 L-72.9,9.614 L-56.7,9.614 Z" fill="rgba(127,255,235,1)" stroke="rgba(0,0,0,1)" stroke-width="2"/>
<path d="M-20.25,7.589 L-28.35,21.618 L-44.55,21.618 L-52.65,7.589 L-44.55,-6.441 L-28.35,-6.441 Z" fill="rgba(127,203,255,1)" stroke="rgba(0,0,0,1)" stroke-width="2"/>
<path d="M65.382,-81.075 L51.352,-72.975 L37.322,-81.075 L51.352,-89.175 Z" fill="rgba(136,131,131,1)" stroke="rgba(0,0,0,1)" stroke-width="1"/>
<path d="M37.322,-81.075 L37.322,-97.275 L51.352,-105.375 L51.352,-89.175 Z" fill="rgba(176,171,171,1)" stroke="rgba(0,0,0,1)" stroke-width="1"/>
<path d="M51.352,-105.375 L65.382,-97.275 L65.382,-81.075 L51.352,-89.175 Z" fill="rgba(215,213,213,1)" stroke="rgba(0,0,0,1)" stroke-width="1"/>
<path d="M93.441,-81.075 L79.411,-72.975 L65.382,-81.075 L79.411,-89.175 Z" fill="rgba(136,131,131,1)" stroke="rgba(0,0,0,1)" stroke-width="1"/>
<path d="M65.382,-81.075 L65.382,-97.275 L79.411,-105.375 L79.411,-89.175 Z" fill="rgba(176,171,171,1)" stroke="rgba(0,0,0,1)" stroke-width="1"/>
<path d="M79.411,-105.375 L93.441,-97.275 L93.441,-81.075 L79.411,-89.175 Z" fill="rgba(215,213,213,1)" stroke="rgba(0,0,0,1)" stroke-width="1"/>
<path d="M121.5,-81.075 L107.47,-72.975 L93.441,-81.075 L107.47,-89.175 Z" fill="rgba(136,131,131,1)" stroke="rgba(0,0,0,1)" stroke-width="1"/>
<path d="M93.441,-81.075 L93.441,-97.275 L107.47,-105.375 L107.47,-89.175 Z" fill="rgba(176,171,171,1)" stroke="rgba(0,0,0,1)" stroke-width="1"/>
<path d="M107.47,-105.375 L121.5,-97.275 L121.5,-81.075 L107.47,-89.175 Z" fill="rgba(215,213,213,1)" stroke="rgba(0,0,0,1)" stroke-width="1"/>
<path d="M149.559,-81.075 L135.53,-72.975 L121.5,-81.075 L135.53,-89.175 Z" fill="rgba(136,131,131,1)" stroke="rgba(0,0,0,1)" stroke-width="1"/>
<path d="M121.5,-81.075 L121.5,-97.275 L135.53,-105.375 L135.53,-89.175 Z" fill="rgba(176,171,171,1)" stroke="rgba(0,0,0,1)" stroke-width="1"/>
<path d="M135.53,-105.375 L149.559,-97.275 L149.559,-81.075 L135.53,-89.175 Z" fill="rgba(215,213,213,1)" stroke="rgba(0,0,0,1)" stroke-width="1"/>
<path d="M177.618,-81.075 L163.589,-72.975 L149.559,-81.075 L163.589,-89.175 Z" fill="rgba(136,131,131,1)" stroke="rgba(0,0,0,1)" stroke-width="1"/>
<path d="M149.559,-81.075 L149.559,-97.275 L163.589,-105.375 L163.589,-89.175 Z" fill="rgba(176,171,171,1)" stroke="rgba(0,0,0,1)" stroke-width="1"/>
<path d="M163.589,-105.375 L177.618,-97.275 L177.618,-81.075 L163.589,-89.175 Z" fill="rgba(215,213,213,1)" stroke="rgba(0,0,0,1)" stroke-width="1"/>
<path d="M205.678,-81.075 L191.648,-72.975 L177.618,-81.075 L191.648,-89.175 Z" fill="rgba(136,131,131,1)" stroke="rgba(0,0,0,1)" stroke-width="1"/>
<path d="M177.618,-81.075 L177.618,-97.275 L191.648,-105.375 L191.648,-89.175 Z" fill="rgba(176,171,171,1)" stroke="rgba(0,0,0,1)" stroke-width="1"/>
<path d="M191.648,-105.375 L205.678,-97.275 L205.678,-81.075 L191.648,-89.175 Z" fill="rgba(215,213,213,1)" stroke="rgba(0,0,0,1)" stroke-width="1"/>
<path d="M79.411,-56.775 L65.382,-48.675 L51.352,-56.775 L65.382,-64.875 Z" fill="rgba(136,131,131,1)" stroke="rgba(0,0,0,1)" stroke-width="1"/>
<path d="M51.352,-56.775 L51.352,-72.975 L65.382,-81.075 L65.382,-64.875 Z" fill="rgba(176,171,171,1)" stroke="rgba(0,0,0,1)" stroke-width="1"/>
<path d="M65.382,-81.075 L79.411,-72.975 L79.411,-56.775 L65.382,-64.875 Z" fill="rgba(215,213,213,1)" stroke="rgba(0,0,0,1)" stroke-width="1"/>
<path d="M107.47,-56.775 L93.441,-48.675 L79.411,-56.775 L93.441,-64.875 Z" fill="rgba(136,131,131,1)" stroke="rgba(0,0,0,1)" stroke-width="1"/>
<path d="M79.411,-56.775 L79.411,-72.975 L93.441,-81.075 L93.441,-64.875 Z" fill="rgba(176,171,171,1)" stroke="rgba(0,0,0,1)" stroke-width="1"/>
<path d="M93.441,-81.075 L107.47,-72.975 L107.47,-56.775 L93.441,-64.875 Z" fill="rgba(215,213,213,1)" stroke="rgba(0,0,0,1)" stroke-width="1"/>
<path d="M135.53,-56.775 L121.5,-48.675 L107.47,-56.775 L121.5,-64.875 Z" fill="rgba(136,131,131,1)" stroke="rgba(0,0,0,1)" stroke-width="1"/>
<path d="M107.47,-56.775 L107.47,-72.975 L121.5,-81.075 L121.5,-64.875 Z" fill="rgba(176,171,171,1)" stroke="rgba(0,0,0,1)" stroke-width="1"/>
<path d="M121.5,-81.075 L135.53,-72.975 L135.53,-56.775 L121.5,-64.875 Z" fill="rgba(215,213,213,1)" stroke="rgba(0,0,0,1)" stroke-width="1"/>
<path d="M163.589,-56.775 L149.559,-48.675 L135.53,-56.775 L149.559,-64.875 Z" fill="rgba(136,131,131,1)" stroke="rgba(0,0,0,1)" stroke-width="1"/>
<path d="M135.53,-56.775 L135.53,-72.975 L149.559,-81.075 L149.559,-64.875 Z" fill="rgba(176,171,171,1)" stroke="rgba(0,0,0,1)" stroke-width="1"/>
<path d="M149.559,-81.075 L163.589,-72.975 L163.589,-56.775 L149.559,-64.875 Z" fill="rgba(215,213,213,1)" stroke="rgba(0,0,0,1)" stroke-width="1"/>
<path d="M191.648,-56.775 L177.618,-48.675 L163.589,-56.775 L177.618,-64.875 Z" fill="rgba(136,131,131,1)" stroke="rgba(0,0,0,1)" stroke-width="1"/>
<path d="M163.589,-56.775 L163.589,-72.975 L177.618,-81.075 L177.618,-64.875 Z" fill="rgba(176,171,171,1)" stroke="rgba(0,0,0,1)" stroke-width="1"/>
<path d="M177.618,-81.075 L191.648,-72.975 L191.648,-56.775 L177.618,-64.875 Z" fill="rgba(215,213,213,1)" stroke="rgba(0,0,0,1)" stroke-width="1"/>
<path d="M219.707,-56.775 L205.678,-48.675 L191.648,-56.775 L205.678,-64.875 Z" fill="rgba(136,131,131,1)" stroke="rgba(0,0,0,1)" stroke-width="1"/>
<path d="M191.648,-56.775 L191.648,-72.975 L205.678,-81.075 L205.678,-64.875 Z" fill="rgba(176,171,171,1)" stroke="rgba(0,0,0,1)" stroke-width="1"/>
<path d="M205.678,-81.075 L219.707,-72.975 L219.707,-56.775 L205.678,-64.875 Z" fill="rgba(215,213,213,1)" stroke="rgba(0,0,0,1)" stroke-width="1"/>
<path d="M65.382,-32.475 L51.352,-24.375 L37.322,-32.475 L51.352,-40.575 Z" fill="rgba(136,131,131,1)" stroke="rgba(0,0,0,1)" stroke-width="1"/>
<path d="M37.322,-32.475 L37.322,-48.675 L51.352,-56.775 L51.352,-40.575 Z" fill="rgba(176,171,171,1)" stroke="rgba(0,0,0,1)" stroke-width="1"/>
<path d="M51.352,-56.775 L65.382,-48.675 L65.382,-32.475 L51.352,-40.575 Z" fill="rgba(215,213,213,1)" stroke="rgba(0,0,0,1)" stroke-width="1"/>
<path d="M93.441,-32.475 L79.411,-24.375 L65.382,-32.475 L79.411,-40.575 Z" fill="rgba(136,131,131,1)" stroke="rgba(0,0,0,1)" stroke-width="1"/>
<path d="M65.382,-32.475 L65.382,-48.675 L79.411,-56.775 L79.411,-40.575 Z" fill="rgba(176,171,171,1)" stroke="rgba(0,0,0,1)" stroke-width="1"/>
<path d="M79.411,-56.775 L93.441,-48.675 L93.441,-32.475 L79.411,-40.575 Z" fill="rgba(215,213,213,1)" stroke="rgba(0,0,0,1)" stroke-width="1"/>
<path d="M121.5,-32.475 L107.47,-24.375 L93.441,-32.475 L107.47,-40.575 Z" fill="rgba(136,131,131,1)" stroke="rgba(0,0,0,1)" stroke-width="1"/>
<path d="M93.441,-32.475 L93.441,-48.675 L107.47,-56.775 L107.47,-40.575 Z" fill="rgba(176,171,171,1)" stroke="rgba(0,0,0,1)" stroke-width="1"/>
<path d="M107.47,-56.775 L121.5,-48.675 L121.5,-32.475 L107.47,-40.575 Z" fill="rgba(215,213,213,1)" stroke="rgba(0,0,0,1)" stroke-width="1"/>
<path d="M149.559,-32.475 L135.53,-24.375 L121.5,-32.475 L135.53,-40.575 Z" fill="rgba(136,131,131,1)" stroke="rgba(0,0,0,1)" stroke-width="1"/>
<path d="M121.5,-32.475 L121.5,-48.675 L135.53,-56.775 L135.53,-40.575 Z" fill="rgba(176,171,171,1)" stroke="rgba(0,0,0,1)" stroke-width="1"/>
<path d="M135.53,-56.775 L149.559,-48.675 L149.559,-32.475 L135.53,-40.575 Z" fill="rgba(215,213,213,1)" stroke="rgba(0,0,0,1)" stroke-width="1"/>
<path d="M177.618,-32.475 L163.589,-24.375 L149.559,-32.475 L163.589,-40.575 Z" fill="rgba(136,131,131,1)" stroke="rgba(0,0,0,1)" stroke-width="1"/>
<path d="M149.559,-32.475 L149.559,-48.675 L163.589,-56.775 L163.589,-40.575 Z" fill="rgba(176,171,171,1)" stroke="rgba(0,0,0,1)" stroke-width="1"/>
<path d="M163.589,-56.775 L177.618,-48.675 L177.618,-32.475 L163.589,-40.575 Z" fill="rgba(215,213,213,1)" stroke="rgba(0,0,0,1)" stroke-width="1"/>
<path d="M205.678,-32.475 L191.648,-24.375 L177.618,-32.475 L191.648,-40.575 Z" fill="rgba(136,131,131,1)" stroke="rgba(0,0,0,1)" stroke-width="1"/>
<path d="M177.618,-32.475 L177.618,-48.675 L191.648,-56.775 L191.648,-40.575 Z" fill="rgba(176,171,171,1)" stroke="rgba(0,0,0,1)" stroke-width="1"/>
<path d="M191.648,-56.775 L205.678,-48.675 L205.678,-32.475 L191.648,-40.575 Z" fill="rgba(215,213,213,1)" stroke="rgba(0,0,0,1)" stroke-width="1"/>
<path d="M79.411,-8.175 L65.382,-0.075 L51.352,-8.175 L65.382,-16.275 Z" fill="rgba(136,131,131,1)" stroke="rgba(0,0,0,1)" stroke-width="1"/>
<path d="M51.352,-8.175 L51.352,-24.375 L65.382,-32.475 L65.382,-16.275 Z" fill="rgba(176,171,171,1)" stroke="rgba(0,0,0,1)" stroke-width="1"/>
<path d="M65.382,-32.475 L79.411,-24.375 L79.411,-8.175 L65.382,-16.275 Z" fill="rgba(215,213,213,1)" stroke="rgba(0,0,0,1)" stroke-width="1"/>
<path d="M107.47,-8.175 L93.441,-0.075 L79.411,-8.175 L93.441,-16.275 Z" fill="rgba(136,131,131,1)" stroke="rgba(0,0,0,1)" stroke-width="1"/>
<path d="M79.411,-8.175 L79.411,-24.375 L93.441,-32.475 L93.441,-16.275 Z" fill="rgba(176,171,171,1)" stroke="rgba(0,0,0,1)" stroke-width="1"/>
<path d="M93.441,-32.475 L107.47,-24.375 L107.47,-8.175 L93.441,-16.275 Z" fill="rgba(215,213,213,1)" stroke="rgba(0,0,0,1)" stroke-width="1"/>
<path d="M135.53,-8.175 L121.5,-0.075 L107.47,-8.175 L121.5,-16.275 Z" fill="rgba(136,131,131,1)" stroke="rgba(0,0,0,1)" stroke-width="1"/>
<path d="M107.47,-8.175 L107.47,-24.375 L121.5,-32.475 L121.5,-16.275 Z" fill="rgba(176,171,171,1)" stroke="rgba(0,0,0,1)" stroke-width="1"/>
<path d="M121.5,-32.475 L135.53,-24.375 L135.53,-8.175 L121.5,-16.275 Z" fill="rgba(215,213,213,1)" stroke="rgba(0,0,0,1)" stroke-width="1"/>
<path d="M163.589,-8.175 L149.559,-0.075 L135.53,-8.175 L149.559,-16.275 Z" fill="rgba(136,131,131,1)" stroke="rgba(0,0,0,1)" stroke-width="1"/>
<path d="M135.53,-8.175 L135.53,-24.375 L149.559,-32.475 L149.559,-16.275 Z" fill="rgba(176,171,171,1)" stroke="rgba(0,0,0,1)" stroke-width="1"/>
<path d="M149.559,-32.475 L163.589,-24.375 L163.589,-8.175 L149.559,-16.275 Z" fill="rgba(215,213,213,1)" stroke="rgba(0,0,0,1)" stroke-width="1"/>
<path d="M191.648,-8.175 L177.618,-0.075 L163.589,-8.175 L177.618,-16.275 Z" fill="rgba(136,131,131,1)" stroke="rgba(0,0,0,1)" stroke-width="1"/>
<path d="M163.589,-8.175 L163.589,-24.375 L177.618,-32.475 L177.618,-16.275 Z" fill="rgba(176,171,171,1)" stroke="rgba(0,0,0,1)" stroke-width="1"/>
<path d="M177.618,-32.475 L191.648,-24.375 L191.648,-8.175 L177.618,-16.275 Z" fill="rgba(215,213,213,1)" stroke="rgba(0,0,0,1)" stroke-width="1"/>
<path d="M219.707,-8.175 L205.678,-0.075 L191.648,-8.175 L205.678,-16.275 Z" fill="rgba(136,131,131,1)" stroke="rgba(0,0,0,1)" stroke-width="1"/>
<path d="M191.648,-8.175 L191.648,-24.375 L205.678,-32.475 L205.678,-16.275 Z" fill="rgba(176,171,171,1)" stroke="rgba(0,0,0,1)" stroke-width="1"/>
<path d="M205.678,-32.475 L219.707,-24.375 L219.707,-8.175 L205.678,-16.275 Z" fill="rgba(215,213,213,1)" stroke="rgba(0,0,0,1)" stroke-width="1"/>
<path d="M65.382,16.125 L51.352,24.225 L37.322,16.125 L51.352,8.025 Z" fill="rgba(136,131,131,1)" stroke="rgba(0,0,0,1)" stroke-width="1"/>
<path d="M37.322,16.125 L37.322,-0.075 L51.352,-8.175 L51.352,8.025 Z" fill="rgba(176,171,171,1)" stroke="rgba(0,0,0,1)" stroke-width="1"/>
<path d="M51.352,-8.175 L65.382,-0.075 L65.382,16.125 L51.352,8.025 Z" fill="rgba(215,213,213,1)" stroke="rgba(0,0,0,1)" stroke-width="1"/>
<path d="M93.441,16.125 L79.411,24.225 L65.382,16.125 L79.411,8.025 Z" fill="rgba(136,131,131,1)" stroke="rgba(0,0,0,1)" stroke-width="1"/>
<path d="M65.382,16.125 L65.382,-0.075 L79.411,-8.175 L79.411,8.025 Z" fill="rgba(176,171,171,1)" stroke="rgba(0,0,0,1)" stroke-width="1"/>
<path d="M79.411,-8.175 L93.441,-0.075 L93.441,16.125 L79.411,8.025 Z" fill="rgba(215,213,213,1)" stroke="rgba(0,0,0,1)" stroke-width="1"/>
<path d="M121.5,16.125 L107.47,24.225 L93.441,16.125 L107.47,8.025 Z" fill="rgba(136,131,131,1)" stroke="rgba(0,0,0,1)" stroke-width="1"/>
<path d="M93.441,16.125 L93.441,-0.075 L107.47,-8.175 L107.47,8.025 Z" fill="rgba(176,171,171,1)" stroke="rgba(0,0,0,1)" stroke-width="1"/>
<path d="M107.47,-8.175 L121.5,-0.075 L121.5,16.125 L107.47,8.025 Z" fill="rgba(215,213,213,1)" stroke="rgba(0,0,0,1)" stroke-width="1"/>
<path d="M149.559,16.125 L135.53,24.225 L121.5,16.125 L135.53,8.025 Z" fill="rgba(136,131,131,1)" stroke="rgba(0,0,0,1)" stroke-width="1"/>
<path d="M121.5,16.125 L121.5,-0.075 L135.53,-8.175 L135.53,8.025 Z" fill="rgba(176,171,171,1)" stroke="rgba(0,0,0,1)" stroke-width="1"/>
<path d="M135.53,-8.175 L149.559,-0.075 L149.559,16.125 L135.53,8.025 Z" fill="rgba(215,213,213,1)" stroke="rgba(0,0,0,1)" stroke-width="1"/>
<path d="M177.618,16.125 L163.589,24.225 L149.559,16.125 L163.589,8.025 Z" fill="rgba(136,131,131,1)" stroke="rgba(0,0,0,1)" stroke-width="1"/>
<path d="M149.559,16.125 L149.559,-0.075 L163.589,-8.175 L163.589,8.025 Z" fill="rgba(176,171,171,1)" stroke="rgba(0,0,0,1)" stroke-width="1"/>
<path d="M163.589,-8.175 L177.618,-0.075 L177.618,16.125 L163.589,8.025 Z" fill="rgba(215,213,213,1)" stroke="rgba(0,0,0,1)" stroke-width="1"/>
<path d="M205.678,16.125 L191.648,24.225 L177.618,16.125 L191.648,8.025 Z" fill="rgba(136,131,131,1)" stroke="rgba(0,0,0,1)" stroke-width="1"/>
<path d="M177.618,16.125 L177.618,-0.075 L191.648,-8.175 L191.648,8.025 Z" fill="rgba(176,171,171,1)" stroke="rgba(0,0,0,1)" stroke-width="1"/>
<path d="M191.648,-8.175 L205.678,-0.075 L205.678,16.125 L191.648,8.025 Z" fill="rgba(215,213,213,1)" stroke="rgba(0,0,0,1)" stroke-width="1"/>
<path d="M-131.048,183.073 L-145.078,191.173 L-159.108,183.073 L-159.108,166.873 L-145.078,158.773 L-131.048,166.873 Z" fill="rgba(50,50,50,0.5019607843137255)" stroke="rgba(0,0,0,1)" stroke-width="1"/>
<path d="M-110.509,162.533 L-124.538,170.633 L-138.568,162.533 L-138.568,146.333 L-124.538,138.233 L-110.509,146.333 Z" fill="rgba(150,150,150,0.5019607843137255)" stroke="rgba(0,0,0,1)" stroke-width="1"/>
<path d="M-89.969,141.994 L-103.999,150.094 L-118.028,141.994 L-118.028,125.794 L-103.999,117.694 L-89.969,125.794 Z" fill="rgba(50,50,50,0.5019607843137255)" stroke="rgba(0,0,0,1)" stroke-width="1"/>
<path d="M-69.429,121.454 L-83.459,129.554 L-97.488,121.454 L-97.488,105.254 L-83.459,97.154 L-69.429,105.254 Z" fill="rgba(150,150,150,0.5019607843137255)" stroke="rgba(0,0,0,1)" stroke-width="1"/>
<path d="M-48.89,100.914 L-62.919,109.014 L-76.949,100.914 L-76.949,84.714 L-62.919,76.614 L-48.89,84.714 Z" fill="rgba(50,50,50,0.5019607843137255)" stroke="rgba(0,0,0,1)" stroke-width="1"/>
<path d="M-138.566,190.591 L-152.596,198.691 L-166.625,190.591 L-166.625,174.391 L-152.596,166.291 L-138.566,174.391 Z" fill="rgba(150,150,150,0.5019607843137255)" stroke="rgba(0,0,0,1)" stroke-width="1"/>
<path d="M-118.026,170.051 L-132.056,178.151 L-146.086,170.051 L-146.086,153.851 L-132.056,145.751 L-118.026,153.851 Z" fill="rgba(50,50,50,0.5019607843137255)" stroke="rgba(0,0,0,1)" stroke-width="1"/>
<path d="M-97.487,149.511 L-111.516,157.611 L-125.546,149.511 L-125.546,133.311 L-111.516,125.211 L-97.487,133.311 Z" fill="rgba(150,150,150,0.5019607843137255)" stroke="rgba(0,0,0,1)" stroke-width="1"/>
<path d="M-76.947,128.972 L-90.977,137.072 L-105.006,128.972 L-105.006,112.772 L-90.977,104.672 L-76.947,112.772 Z" fill="rgba(50,50,50,0.5019607843137255)" stroke="rgba(0,0,0,1)" stroke-width="1"/>
<path d="M-56.407,108.432 L-70.437,116.532 L-84.467,108.432 L-84.467,92.232 L-70.437,84.132 L-56.407,92.232 Z" fill="rgba(150,150,150,0.5019607843137255)" stroke="rgba(0,0,0,1)" stroke-width="1"/>
<path d="M-166.624,218.648 L-180.653,226.748 L-194.683,218.648 L-194.683,202.448 L-180.653,194.348 L-166.624,202.448 Z" fill="rgba(50,50,50,0.5019607843137255)" stroke="rgba(0,0,0,1)" stroke-width="1"/>
<path d="M-146.084,198.109 L-160.114,206.209 L-174.143,198.109 L-174.143,181.909 L-160.114,173.809 L-146.084,181.909 Z" fill="rgba(150,150,150,0.5019607843137255)" stroke="rgba(0,0,0,1)" stroke-width="1"/>
<path d="M-125.544,177.569 L-139.574,185.669 L-153.603,177.569 L-153.603,161.369 L-139.574,153.269 L-125.544,161.369 Z" fill="rgba(50,50,50,0.5019607843137255)" stroke="rgba(0,0,0,1)" stroke-width="1"/>
<path d="M-105.004,157.029 L-119.034,165.129 L-133.064,157.029 L-133.064,140.829 L-119.034,132.729 L-105.004,140.829 Z" fill="rgba(150,150,150,0.5019607843137255)" stroke="rgba(0,0,0,1)" stroke-width="1"/>
<path d="M-84.465,136.489 L-98.494,144.589 L-112.524,136.489 L-112.524,120.289 L-98.494,112.189 L-84.465,120.289 Z" fill="rgba(50,50,50,0.5019607843137255)" stroke="rgba(0,0,0,1)" stroke-width="1"/>
<path d="M-174.141,226.166 L-188.171,234.266 L-202.201,226.166 L-202.201,209.966 L-188.171,201.866 L-174.141,209.966 Z" fill="rgba(150,150,150,0.5019607843137255)" stroke="rgba(0,0,0,1)" stroke-width="1"/>
<path d="M-153.602,205.626 L-167.631,213.726 L-181.661,205.626 L-181.661,189.426 L-167.631,181.326 L-153.602,189.426 Z" fill="rgba(50,50,50,0.5019607843137255)" stroke="rgba(0,0,0,1)" stroke-width="1"/>
<path d="M-133.062,185.087 L-147.092,193.187 L-161.121,185.087 L-161.121,168.887 L-147.092,160.787 L-133.062,168.887 Z" fill="rgba(150,150,150,0.5019607843137255)" stroke="rgba(0,0,0,1)" stroke-width="1"/>
<path d="M-112.522,164.547 L-126.552,172.647 L-140.581,164.547 L-140.581,148.347 L-126.552,140.247 L-112.522,148.347 Z" fill="rgba(50,50,50,0.5019607843137255)" stroke="rgba(0,0,0,1)" stroke-width="1"/>
<path d="M-91.982,144.007 L-106.012,152.107 L-120.042,144.007 L-120.042,127.807 L-106.012,119.707 L-91.982,127.807 Z" fill="rgba(150,150,150,0.5019607843137255)" stroke="rgba(0,0,0,1)" stroke-width="1"/>
<path d="M66.022,107.925 L61.393,116.025 L56.763,107.925 L56.763,91.725 L61.393,83.625 L66.022,91.725 Z" fill="rgba(50,50,50,0.5019607843137255)" stroke="rgba(0,0,0,1)" stroke-width="1"/>
<path d="M75.282,107.925 L70.652,116.025 L66.022,107.925 L66.022,91.725 L70.652,83.625 L75.282,91.725 Z" fill="rgba(150,150,150,0.5019607843137255)" stroke="rgba(0,0,0,1)" stroke-width="1"/>
<path d="M84.541,107.925 L79.912,116.025 L75.282,107.925 L75.282,91.725 L79.912,83.625 L84.541,91.725 Z" fill="rgba(50,50,50,0.5019607843137255)" stroke="rgba(0,0,0,1)" stroke-width="1"/>
<path d="M93.801,107.925 L89.171,116.025 L84.541,107.925 L84.541,91.725 L89.171,83.625 L93.801,91.725 Z" fill="rgba(150,150,150,0.5019607843137255)" stroke="rgba(0,0,0,1)" stroke-width="1"/>
<path d="M103.06,107.925 L98.431,116.025 L93.801,107.925 L93.801,91.725 L98.431,83.625 L103.06,91.725 Z" fill="rgba(50,50,50,0.5019607843137255)" stroke="rgba(0,0,0,1)" stroke-width="1"/>
<path d="M112.32,107.925 L107.69,116.025 L103.06,107.925 L103.06,91.725 L107.69,83.625 L112.32,91.725 Z" fill="rgba(150,150,150,0.5019607843137255)" stroke="rgba(0,0,0,1)" stroke-width="1"/>
<path d="M121.58,107.925 L116.95,116.025 L112.32,107.925 L112.32,91.725 L116.95,83.625 L121.58,91.725 Z" fill="rgba(50,50,50,0.5019607843137255)" stroke="rgba(0,0,0,1)" stroke-width="1"/>
<path d="M130.839,107.925 L126.209,116.025 L121.58,107.925 L121.58,91.725 L126.209,83.625 L130.839,91.725 Z" fill="rgba(150,150,150,0.5019607843137255)" stroke="rgba(0,0,0,1)" stroke-width="1"/>
<path d="M140.099,107.925 L135.469,116.025 L130.839,107.925 L130.839,91.725 L135.469,83.625 L140.099,91.725 Z" fill="rgba(50,50,50,0.5019607843137255)" stroke="rgba(0,0,0,1)" stroke-width="1"/>
<path d="M149.358,107.925 L144.728,116.025 L140.099,107.925 L140.099,91.725 L144.728,83.625 L149.358,91.725 Z" fill="rgba(150,150,150,0.5019607843137255)" stroke="rgba(0,0,0,1)" stroke-width="1"/>
<path d="M158.618,107.925 L153.988,116.025 L149.358,107.925 L149.358,91.725 L153.988,83.625 L158.618,91.725 Z" fill="rgba(50,50,50,0.5019607843137255)" stroke="rgba(0,0,0,1)" stroke-width="1"/>
<path d="M167.877,107.925 L163.247,116.025 L158.618,107.925 L158.618,91.725 L163.247,83.625 L167.877,91.725 Z" fill="rgba(150,150,150,0.5019607843137255)" stroke="rgba(0,0,0,1)" stroke-width="1"/>
<path d="M172.507,132.225 L167.877,140.325 L163.247,132.225 L163.247,116.025 L167.877,107.925 L172.507,116.025 Z" fill="rgba(50,50,50,0.5019607843137255)" stroke="rgba(0,0,0,1)" stroke-width="1"/>
<path d="M163.247,132.225 L158.618,140.325 L153.988,132.225 L153.988,116.025 L158.618,107.925 L163.247,116.025 Z" fill="rgba(150,150,150,0.5019607843137255)" stroke="rgba(0,0,0,1)" stroke-width="1"/>
<path d="M153.988,132.225 L149.358,140.325 L144.728,132.225 L144.728,116.025 L149.358,107.925 L153.988,116.025 Z" fill="rgba(50,50,50,0.5019607843137255)" stroke="rgba(0,0,0,1)" stroke-width="1"/>
<path d="M144.728,132.225 L140.099,140.325 L135.469,132.225 L135.469,116.025 L140.099,107.925 L144.728,116.025 Z" fill="rgba(150,150,150,0.5019607843137255)" stroke="rgba(0,0,0,1)" stroke-width="1"/>
<path d="M135.469,132.225 L130.839,140.325 L126.209,132.225 L126.209,116.025 L130.839,107.925 L135.469,116.025 Z" fill="rgba(50,50,50,0.5019607843137255)" stroke="rgba(0,0,0,1)" stroke-width="1"/>
<path d="M126.209,132.225 L121.58,140.325 L116.95,132.225 L116.95,116.025 L121.58,107.925 L126.209,116.025 Z" fill="rgba(150,150,150,0.5019607843137255)" stroke="rgba(0,0,0,1)" stroke-width="1"/>
<path d="M116.95,132.225 L112.32,140.325 L107.69,132.225 L107.69,116.025 L112.32,107.925 L116.95,116.025 Z" fill="rgba(50,50,50,0.5019607843137255)" stroke="rgba(0,0,0,1)" stroke-width="1"/>
<path d="M107.69,132.225 L103.06,140.325 L98.431,132.225 L98.431,116.025 L103.06,107.925 L107.69,116.025 Z" fill="rgba(150,150,150,0.5019607843137255)" stroke="rgba(0,0,0,1)" stroke-width="1"/>
<path d="M98.431,132.225 L93.801,140.325 L89.171,132.225 L89.171,116.025 L93.801,107.925 L98.431,116.025 Z" fill="rgba(50,50,50,0.5019607843137255)" stroke="rgba(0,0,0,1)" stroke-width="1"/>
<path d="M89.171,132.225 L84.541,140.325 L79.912,132.225 L79.912,116.025 L84.541,107.925 L89.171,116.025 Z" fill="rgba(150,150,150,0.5019607843137255)" stroke="rgba(0,0,0,1)" stroke-width="1"/>
<path d="M79.912,132.225 L75.282,140.325 L70.652,132.225 L70.652,116.025 L75.282,107.925 L79.912,116.025 Z" fill="rgba(50,50,50,0.5019607843137255)" stroke="rgba(0,0,0,1)" stroke-width="1"/>
<path d="M70.652,132.225 L66.022,140.325 L61.393,132.225 L61.393,116.025 L66.022,107.925 L70.652,116.025 Z" fill="rgba(150,150,150,0.5019607843137255)" stroke="rgba(0,0,0,1)" stroke-width="1"/>
<path d="M66.022,156.525 L61.393,164.625 L56.763,156.525 L56.763,140.325 L61.393,132.225 L66.022,140.325 Z" fill="rgba(50,50,50,0.5019607843137255)" stroke="rgba(0,0,0,1)" stroke-width="1"/>
<path d="M75.282,156.525 L70.652,164.625 L66.022,156.525 L66.022,140.325 L70.652,132.225 L75.282,140.325 Z" fill="rgba(150,150,150,0.5019607843137255)" stroke="rgba(0,0,0,1)" stroke-width="1"/>
<path d="M84.541,156.525 L79.912,164.625 L75.282,156.525 L75.282,140.325 L79.912,132.225 L84.541,140.325 Z" fill="rgba(50,50,50,0.5019607843137255)" stroke="rgba(0,0,0,1)" stroke-width="1"/>
<path d="M93.801,156.525 L89.171,164.625 L84.541,156.525 L84.541,140.325 L89.171,132.225 L93.801,140.325 Z" fill="rgba(150,150,150,0.5019607843137255)" stroke="rgba(0,0,0,1)" stroke-width="1"/>
<path d="M103.06,156.525 L98.431,164.625 L93.801,156.525 L93.801,140.325 L98.431,132.225 L103.06,140.325 Z" fill="rgba(50,50,50,0.5019607843137255)" stroke="rgba(0,0,0,1)" stroke-width="1"/>
<path d="M112.32,156.525 L107.69,164.625 L103.06,156.525 L103.06,140.325 L107.69,132.225 L112.32,140.325 Z" fill="rgba(150,150,150,0.5019607843137255)" stroke="rgba(0,0,0,1)" stroke-width="1"/>
<path d="M121.58,156.525 L116.95,164.625 L112.32,156.525 L112.32,140.325 L116.95,132.225 L121.58,140.325 Z" fill="rgba(50,50,50,0.5019607843137255)" stroke="rgba(0,0,0,1)" stroke-width="1"/>
<path d="M130.839,156.525 L126.209,164.625 L121.58,156.525 L121.58,140.325 L126.209,132.225 L130.839,140.325 Z" fill="rgba(150,150,150,0.5019607843137255)" stroke="rgba(0,0,0,1)" stroke-width="1"/>
<path d="M140.099,156.525 L135.469,164.625 L130.839,156.525 L130.839,140.325 L135.469,132.225 L140.099,140.325 Z" fill="rgba(50,50,50,0.5019607843137255)" stroke="rgba(0,0,0,1)" stroke-width="1"/>
<path d="M149.358,156.525 L144.728,164.625 L140.099,156.525 L140.099,140.325 L144.728,132.225 L149.358,140.325 Z" fill="rgba(150,150,150,0.5019607843137255)" stroke="rgba(0,0,0,1)" stroke-width="1"/>
<path d="M158.618,156.525 L153.988,164.625 L149.358,156.525 L149.358,140.325 L153.988,132.225 L158.618,140.325 Z" fill="rgba(50,50,50,0.5019607843137255)" stroke="rgba(0,0,0,1)" stroke-width="1"/>
<path d="M167.877,156.525 L163.247,164.625 L158.618,156.525 L158.618,140.325 L163.247,132.225 L167.877,140.325 Z" fill="rgba(150,150,150,0.5019607843137255)" stroke="rgba(0,0,0,1)" stroke-width="1"/>
<path d="M172.507,180.825 L167.877,188.925 L163.247,180.825 L163.247,164.625 L167.877,156.525 L172.507,164.625 Z" fill="rgba(50,50,50,0.5019607843137255)" stroke="rgba(0,0,0,1)" stroke-width="1"/>
<path d="M163.247,180.825 L158.618,188.925 L153.988,180.825 L153.988,164.625 L158.618,156.525 L163.247,164.625 Z" fill="rgba(150,150,150,0.5019607843137255)" stroke="rgba(0,0,0,1)" stroke-width="1"/>
<path d="M153.988,180.825 L149.358,188.925 L144.728,180.825 L144.728,164.625 L149.358,156.525 L153.988,164.625 Z" fill="rgba(50,50,50,0.5019607843137255)" stroke="rgba(0,0,0,1)" stroke-width="1"/>
<path d="M144.728,180.825 L140.099,188.925 L135.469,180.825 L135.469,164.625 L140.099,156.525 L144.728,164.625 Z" fill="rgba(150,150,150,0.5019607843137255)" stroke="rgba(0,0,0,1)" stroke-width="1"/>
<path d="M135.469,180.825 L130.839,188.925 L126.209,180.825 L126.209,164.625 L130.839,156.525 L135.469,164.625 Z" fill="rgba(50,50,50,0.5019607843137255)" stroke="rgba(0,0,0,1)" stroke-width="1"/>
<path d="M126.209,180.825 L121.58,188.925 L116.95,180.825 L116.95,164.625 L121.58,156.525 L126.209,164.625 Z" fill="rgba(150,150,150,0.5019607843137255)" stroke="rgba(0,0,0,1)" stroke-width="1"/>
<path d="M116.95,180.825 L112.32,188.925 L107.69,180.825 L107.69,164.625 L112.32,156.525 L116.95,164.625 Z" fill="rgba(50,50,50,0.5019607843137255)" stroke="rgba(0,0,0,1)" stroke-width="1"/>
<path d="M107.69,180.825 L103.06,188.925 L98.431,180.825 L98.431,164.625 L103.06,156.525 L107.69,164.625 Z" fill="rgba(150,150,150,0.5019607843137255)" stroke="rgba(0,0,0,1)" stroke-width="1"/>
<path d="M98.431,180.825 L93.801,188.925 L89.171,180.825 L89.171,164.625 L93.801,156.525 L98.431,164.625 Z" fill="rgba(50,50,50,0.5019607843137255)" stroke="rgba(0,0,0,1)" stroke-width="1"/>
<path d="M89.171,180.825 L84.541,188.925 L79.912,180.825 L79.912,164.625 L84.541,156.525 L89.171,164.625 Z" fill="rgba(150,150,150,0.5019607843137255)" stroke="rgba(0,0,0,1)" stroke-width="1"/>
<path d="M79.912,180.825 L75.282,188.925 L70.652,180.825 L70.652,164.625 L75.282,156.525 L79.912,164.625 Z" fill="rgba(50,50,50,0.5019607843137255)" stroke="rgba(0,0,0,1)" stroke-width="1"/>
<path d="M70.652,180.825 L66.022,188.925 L61.393,180.825 L61.393,164.625 L66.022,156.525 L70.652,164.625 Z" fill="rgba(150,150,150,0.5019607843137255)" stroke="rgba(0,0,0,1)" stroke-width="1"/>
<path d="M66.022,205.125 L61.393,213.225 L56.763,205.125 L56.763,188.925 L61.393,180.825 L66.022,188.925 Z" fill="rgba(50,50,50,0.5019607843137255)" stroke="rgba(0,0,0,1)" stroke-width="1"/>
<path d="M75.282,205.125 L70.652,213.225 L66.022,205.125 L66.022,188.925 L70.652,180.825 L75.282,188.925 Z" fill="rgba(150,150,150,0.5019607843137255)" stroke="rgba(0,0,0,1)" stroke-width="1"/>
<path d="M84.541,205.125 L79.912,213.225 L75.282,205.125 L75.282,188.925 L79.912,180.825 L84.541,188.925 Z" fill="rgba(50,50,50,0.5019607843137255)" stroke="rgba(0,0,0,1)" stroke-width="1"/>
<path d="M93.801,205.125 L89.171,213.225 L84.541,205.125 L84.541,188.925 L89.171,180.825 L93.801,188.925 Z" fill="rgba(150,150,150,0.5019607843137255)" stroke="rgba(0,0,0,1)" stroke-width="1"/>
<path d="M103.06,205.125 L98.431,213.225 L93.801,205.125 L93.801,188.925 L98.431,180.825 L103.06,188.925 Z" fill="rgba(50,50,50,0.5019607843137255)" stroke="rgba(0,0,0,1)" stroke-width="1"/>
<path d="M112.32,205.125 L107.69,213.225 L103.06,205.125 L103.06,188.925 L107.69,180.825 L112.32,188.925 Z" fill="rgba(150,150,150,0.5019607843137255)" stroke="rgba(0,0,0,1)" stroke-width="1"/>
<path d="M121.58,205.125 L116.95,213.225 L112.32,205.125 L112.32,188.925 L116.95,180.825 L121.58,188.925 Z" fill="rgba(50,50,50,0.5019607843137255)" stroke="rgba(0,0,0,1)" stroke-width="1"/>
<path d="M130.839,205.125 L126.209,213.225 L121.58,205.125 L121.58,188.925 L126.209,180.825 L130.839,188.925 Z" fill="rgba(150,150,150,0.5019607843137255)" stroke="rgba(0,0,0,1)" stroke-width="1"/>
<path d="M140.099,205.125 L135.469,213.225 L130.839,205.125 L130.839,188.925 L135.469,180.825 L140.099,188.925 Z" fill="rgba(50,50,50,0.5019607843137255)" stroke="rgba(0,0,0,1)" stroke-width="1"/>
<path d="M149.358,205.125 L144.728,213.225 L140.099,205.125 L140.099,188.925 L144.728,180.825 L149.358,188.925 Z" fill="rgba(150,150,150,0.5019607843137255)" stroke="rgba(0,0,0,1)" stroke-width="1"/>
<path d="M158.618,205.125 L153.988,213.225 L149.358,205.125 L149.358,188.925 L153.988,180.825 L158.618,188.925 Z" fill="rgba(50,50,50,0.5019607843137255)" stroke="rgba(0,0,0,1)" stroke-width="1"/>
<path d="M167.877,205.125 L163.247,213.225 L158.618,205.125 L158.618,188.925 L163.247,180.825 L167.877,188.925 Z" fill="rgba(150,150,150,0.5019607843137255)" stroke="rgba(0,0,0,1)" stroke-width="1"/>
<path d="M172.507,229.425 L167.877,237.525 L163.247,229.425 L163.247,213.225 L167.877,205.125 L172.507,213.225 Z" fill="rgba(50,50,50,0.5019607843137255)" stroke="rgba(0,0,0,1)" stroke-width="1"/>
<path d="M163.247,229.425 L158.618,237.525 L153.988,229.425 L153.988,213.225 L158.618,205.125 L163.247,213.225 Z" fill="rgba(150,150,150,0.5019607843137255)" stroke="rgba(0,0,0,1)" stroke-width="1"/>
<path d="M153.988,229.425 L149.358,237.525 L144.728,229.425 L144.728,213.225 L149.358,205.125 L153.988,213.225 Z" fill="rgba(50,50,50,0.5019607843137255)" stroke="rgba(0,0,0,1)" stroke-width="1"/>
<path d="M144.728,229.425 L140.099,237.525 L135.469,229.425 L135.469,213.225 L140.099,205.125 L144.728,213.225 Z" fill="rgba(150,150,150,0.5019607843137255)" stroke="rgba(0,0,0,1)" stroke-width="1"/>
<path d="M135.469,229.425 L130.839,237.525 L126.209,229.425 L126.209,213.225 L130.839,205.125 L135.469,213.225 Z" fill="rgba(50,50,50,0.5019607843137255)" stroke="rgba(0,0,0,1)" stroke-width="1"/>
<path d="M126.209,229.425 L121.58,237.525 L116.95,229.425 L116.95,213.225 L121.58,205.125 L126.209,213.225 Z" fill="rgba(150,150,150,0.5019607843137255)" stroke="rgba(0,0,0,1)" stroke-width="1"/>
<path d="M116.95,229.425 L112.32,237.525 L107.69,229.425 L107.69,213.225 L112.32,205.125 L116.95,213.225 Z" fill="rgba(50,50,50,0.5019607843137255)" stroke="rgba(0,0,0,1)" stroke-width="1"/>
<path d="M107.69,229.425 L103.06,237.525 L98.431,229.425 L98.431,213.225 L103.06,205.125 L107.69,213.225 Z" fill="rgba(150,150,150,0.5019607843137255)" stroke="rgba(0,0,0,1)" stroke-width="1"/>
<path d="M98.431,229.425 L93.801,237.525 L89.171,229.425 L89.171,213.225 L93.801,205.125 L98.431,213.225 Z" fill="rgba(50,50,50,0.5019607843137255)" stroke="rgba(0,0,0,1)" stroke-width="1"/>
<path d="M89.171,229.425 L84.541,237.525 L79.912,229.425 L79.912,213.225 L84.541,205.125 L89.171,213.225 Z" fill="rgba(150,150,150,0.5019607843137255)" stroke="rgba(0,0,0,1)" stroke-width="1"/>
<path d="M79.912,229.425 L75.282,237.525 L70.652,229.425 L70.652,213.225 L75.282,205.125 L79.912,213.225 Z" fill="rgba(50,50,50,0.5019607843137255)" stroke="rgba(0,0,0,1)" stroke-width="1"/>
<path d="M70.652,229.425 L66.022,237.525 L61.393,229.425 L61.393,213.225 L66.022,205.125 L70.652,213.225 Z" fill="rgba(150,150,150,0.5019607843137255)" stroke="rgba(0,0,0,1)" stroke-width="1"/>
</svg>