<svg xmlns="http://www.w3.org/2000/svg" viewBox="-227.75 -168 455.5 456">
<path d="M-195,103.95 L-195,95 L-196.747,95 L-195.937,100.307 L-155.989,-65 L-155,-66.322 L-155,-65 L-155,175 L-155,165 L-169.988,165 L-165.843,171.822 L-163.467,175 L-135,-65 L-135,-87.257 L-141.421,-81.421 L-145,-77.484 L-145,-65 L-75.89,-125 L-75,-125.326 L-75,-125 L-75,235 L-75,225 L-105,225 L-105,229.988 L-96.749,235 L-95,235 L-95,236.021 L-85,240.838 L-85,235 L-15,-135 L-15,-139.243 L-20.449,-138.967 L-25,-138.273 L-25,-135 L112.949,225 L95,225 L95,235 L96.749,235 L111.822,225.843 L125,-95 L125,-95.989 L115,-103.467 L115,-95 L137.484,-85 L135,-87.257 L135,-85 L137.484,205 L135,205 L135,207.257 L155.989,-65 L154.33,-67.219 L145,-77.484 L145,-75 L135,-75 L135,-65 L169.988,165 L155,165 L155,175 L163.467,175 L165.843,171.822 L196.747,95 L195,95 L195,103.95 L195.937,100.307 L198.967,80.449 L198.273,85 L195,85 L195,75 L175,75 L175,85 L185,85 L185,95 L155,95 L155,85 L165,85 L165,75 L135,75 L135,85 L145,85 L145,95 L135,95 L135,105 L145,105 L145,115 L135,115 L135,125 L165,125 L165,115 L155,115 L155,105 L185,105 L185,115 L175,115 L175,125 L185,125 L185,135 L175,135 L175,145 L180.838,145 L176.021,155 L155,155 L155,145 L165,145 L165,135 L135,135 L135,145 L145,145 L145,155 L135,155 L135,165 L145,165 L145,175 L135,175 L135,185 L155.989,185 L154.33,187.219 L145,197.484 L145,195 L115,195 L115,205 L125,205 L125,215 L95,215 L95,205 L105,205 L105,195 L75,195 L75,205 L85,205 L85,215 L75,215 L75,225 L85,225 L85,235 L75,235 L75,245 L75.89,245 L59.474,251.008 L40.307,255.937 L35,256.747 L35,255 L25,255 L25,258.273 L20.449,258.967 L15,259.243 L15,245 L25,245 L25,235 L15,235 L15,225 L45,225 L45,235 L35,235 L35,245 L65,245 L65,235 L55,235 L55,225 L65,225 L65,215 L55,215 L55,205 L65,205 L65,195 L35,195 L35,205 L45,205 L45,215 L15,215 L15,205 L25,205 L25,195 L15,195 L15,175 L25,175 L25,185 L35,185 L35,155 L25,155 L25,165 L15,165 L15,135 L25,135 L25,145 L35,145 L35,135 L45,135 L45,145 L55,145 L55,135 L65,135 L65,165 L55,165 L55,155 L45,155 L45,185 L55,185 L55,175 L65,175 L65,185 L85,185 L85,175 L75,175 L75,165 L105,165 L105,175 L95,175 L95,185 L125,185 L125,175 L115,175 L115,165 L125,165 L125,155 L115,155 L115,145 L125,145 L125,135 L95,135 L95,145 L105,145 L105,155 L75,155 L75,145 L85,145 L85,135 L75,135 L75,125 L85,125 L85,115 L75,115 L75,105 L105,105 L105,115 L95,115 L95,125 L125,125 L125,115 L115,115 L115,105 L125,105 L125,95 L115,95 L115,85 L125,85 L125,75 L95,75 L95,85 L105,85 L105,95 L75,95 L75,85 L85,85 L85,75 L65,75 L65,85 L55,85 L55,75 L45,75 L45,105 L55,105 L55,95 L65,95 L65,125 L55,125 L55,115 L45,115 L45,125 L35,125 L35,115 L25,115 L25,125 L15,125 L15,95 L25,95 L25,105 L35,105 L35,75 L25,75 L25,85 L15,85 L15,75 L5,75 L5,85 L-5,85 L-5,75 L-15,75 L-15,105 L-5,105 L-5,95 L5,95 L5,125 L-5,125 L-5,115 L-15,115 L-15,125 L-25,125 L-25,115 L-35,115 L-35,125 L-45,125 L-45,95 L-35,95 L-35,105 L-25,105 L-25,75 L-35,75 L-35,85 L-45,85 L-45,75 L-65,75 L-65,85 L-55,85 L-55,95 L-85,95 L-85,85 L-75,85 L-75,75 L-115,75 L-115,85 L-95,85 L-95,105 L-105,105 L-105,95 L-115,95 L-115,125 L-105,125 L-105,115 L-95,115 L-95,125 L-75,125 L-75,115 L-85,115 L-85,105 L-55,105 L-55,115 L-65,115 L-65,125 L-55,125 L-55,135 L-65,135 L-65,145 L-55,145 L-55,155 L-85,155 L-85,145 L-75,145 L-75,135 L-115,135 L-115,145 L-95,145 L-95,165 L-105,165 L-105,155 L-115,155 L-115,185 L-105,185 L-105,175 L-95,175 L-95,185 L-75,185 L-75,175 L-85,175 L-85,165 L-55,165 L-55,175 L-65,175 L-65,185 L-45,185 L-45,175 L-35,175 L-35,185 L-25,185 L-25,155 L-35,155 L-35,165 L-45,165 L-45,135 L-35,135 L-35,145 L-25,145 L-25,135 L-15,135 L-15,145 L-5,145 L-5,135 L5,135 L5,165 L-5,165 L-5,155 L-15,155 L-15,185 L-5,185 L-5,175 L5,175 L5,195 L-5,195 L-5,205 L5,205 L5,215 L-25,215 L-25,205 L-15,205 L-15,195 L-45,195 L-45,205 L-35,205 L-35,215 L-45,215 L-45,225 L-35,225 L-35,235 L-45,235 L-45,245 L-15,245 L-15,235 L-25,235 L-25,225 L5,225 L5,235 L-5,235 L-5,245 L5,245 L5,259.748 L0,260 L-5,259.748 L-5,255 L-15,255 L-15,259.243 L-20.449,258.967 L-25,258.273 L-25,255 L-35,255 L-35,256.747 L-40.307,255.937 L-59.474,251.008 L-75.89,245 L-55,245 L-55,235 L-65,235 L-65,225 L-55,225 L-55,215 L-65,215 L-65,205 L-55,205 L-55,195 L-85,195 L-85,205 L-75,205 L-75,215 L-105,215 L-105,205 L-95,205 L-95,195 L-125,195 L-125,205 L-115,205 L-115,215 L-126.322,215 L-127.219,214.33 L-137.484,205 L-135,205 L-135,195 L-147.257,195 L-154.33,187.219 L-155.989,185 L-125,185 L-125,175 L-145,175 L-145,155 L-135,155 L-135,165 L-125,165 L-125,135 L-135,135 L-135,145 L-145,145 L-145,135 L-165,135 L-165,145 L-155,145 L-155,155 L-176.021,155 L-180.838,145 L-175,145 L-175,135 L-185,135 L-185,125 L-175,125 L-175,115 L-185,115 L-185,105 L-155,105 L-155,115 L-165,115 L-165,125 L-125,125 L-125,115 L-145,115 L-145,95 L-135,95 L-135,105 L-125,105 L-125,75 L-135,75 L-135,85 L-145,85 L-145,75 L-165,75 L-165,85 L-155,85 L-155,95 L-185,95 L-185,85 L-175,85 L-175,75 L-195,75 L-195,85 L-198.273,85 L-198.967,80.449 L-199.748,65 L-195,65 L-195,55 L-199.748,55 L-199.243,45 L-195,45 L-195,35 L-198.273,35 L-196.747,25 L-195,25 L-195,16.05 L-192.159,5 L-185,5 L-185,-5 L-175,-5 L-175,5 L-165,5 L-165,-25 L-175,-25 L-175,-15 L-185,-15 L-185,-15.89 L-184.283,-17.849 L-175.861,-35.332 L-175,-36.749 L-175,-35 L-155,-35 L-155,-45 L-165,-45 L-165,-52.949 L-163.467,-55 L-135,-55 L-135,-45 L-145,-45 L-145,-35 L-135,-35 L-135,-15 L-145,-15 L-145,-25 L-155,-25 L-155,5 L-145,5 L-145,-5 L-135,-5 L-135,15 L-145,15 L-145,25 L-135,25 L-135,35 L-165,35 L-165,25 L-155,25 L-155,15 L-185,15 L-185,25 L-175,25 L-175,35 L-185,35 L-185,45 L-175,45 L-175,55 L-185,55 L-185,65 L-155,65 L-155,55 L-165,55 L-165,45 L-135,45 L-135,55 L-145,55 L-145,65 L-125,65 L-125,55 L-115,55 L-115,65 L-105,65 L-105,35 L-115,35 L-115,45 L-125,45 L-125,15 L-115,15 L-115,25 L-105,25 L-105,15 L-95,15 L-95,25 L-85,25 L-85,15 L-75,15 L-75,45 L-85,45 L-85,35 L-95,35 L-95,65 L-85,65 L-85,55 L-75,55 L-75,65 L-55,65 L-55,55 L-65,55 L-65,45 L-35,45 L-35,55 L-45,55 L-45,65 L-5,65 L-5,55 L-25,55 L-25,35 L-15,35 L-15,45 L-5,45 L-5,15 L-15,15 L-15,25 L-25,25 L-25,15 L-45,15 L-45,25 L-35,25 L-35,35 L-65,35 L-65,25 L-55,25 L-55,15 L-65,15 L-65,5 L-55,5 L-55,-5 L-65,-5 L-65,-15 L-35,-15 L-35,-5 L-45,-5 L-45,5 L-5,5 L-5,-5 L-25,-5 L-25,-25 L-15,-25 L-15,-15 L-5,-15 L-5,-45 L-15,-45 L-15,-35 L-25,-35 L-25,-45 L-45,-45 L-45,-35 L-35,-35 L-35,-25 L-65,-25 L-65,-35 L-55,-35 L-55,-45 L-75,-45 L-75,-35 L-85,-35 L-85,-45 L-95,-45 L-95,-15 L-85,-15 L-85,-25 L-75,-25 L-75,5 L-85,5 L-85,-5 L-95,-5 L-95,5 L-105,5 L-105,-5 L-115,-5 L-115,5 L-125,5 L-125,-25 L-115,-25 L-115,-15 L-105,-15 L-105,-45 L-115,-45 L-115,-35 L-125,-35 L-125,-65 L-115,-65 L-115,-55 L-105,-55 L-105,-85 L-115,-85 L-115,-75 L-125,-75 L-125,-95.989 L-115,-103.467 L-115,-95 L-95,-95 L-95,-105 L-105,-105 L-105,-109.988 L-96.749,-115 L-75,-115 L-75,-105 L-85,-105 L-85,-95 L-75,-95 L-75,-75 L-85,-75 L-85,-85 L-95,-85 L-95,-55 L-85,-55 L-85,-65 L-75,-65 L-75,-55 L-55,-55 L-55,-65 L-65,-65 L-65,-75 L-35,-75 L-35,-65 L-45,-65 L-45,-55 L-5,-55 L-5,-65 L-25,-65 L-25,-85 L-15,-85 L-15,-75 L-5,-75 L-5,-105 L-15,-105 L-15,-95 L-25,-95 L-25,-105 L-45,-105 L-45,-95 L-35,-95 L-35,-85 L-65,-85 L-65,-95 L-55,-95 L-55,-105 L-65,-105 L-65,-115 L-55,-115 L-55,-125 L-65,-125 L-65,-128.986 L-59.474,-131.008 L-40.307,-135.937 L-35,-136.747 L-35,-125 L-45,-125 L-45,-115 L-25,-115 L-25,-125 L-15,-125 L-15,-115 L-5,-115 L-5,-139.748 L0,-140 L5,-139.748 L5,-135 L15,-135 L15,-139.243 L20.449,-138.967 L25,-138.273 L25,-135 L43.95,-135 L59.474,-131.008 L65,-128.986 L65,-125 L55,-125 L55,-115 L65,-115 L65,-105 L35,-105 L35,-115 L45,-115 L45,-125 L5,-125 L5,-115 L25,-115 L25,-95 L15,-95 L15,-105 L5,-105 L5,-75 L15,-75 L15,-85 L25,-85 L25,-75 L45,-75 L45,-85 L35,-85 L35,-95 L65,-95 L65,-85 L55,-85 L55,-75 L75,-75 L75,-85 L85,-85 L85,-75 L95,-75 L95,-105 L85,-105 L85,-95 L75,-95 L75,-125 L75.89,-125 L77.849,-124.283 L85,-120.838 L85,-115 L95,-115 L95,-116.021 L95.332,-115.861 L111.822,-105.843 L112.949,-105 L105,-105 L105,-75 L115,-75 L115,-85 L125,-85 L125,-55 L115,-55 L115,-65 L105,-65 L105,-35 L115,-35 L115,-45 L125,-45 L125,-5 L115,-5 L115,-25 L95,-25 L95,-15 L105,-15 L105,-5 L75,-5 L75,-15 L85,-15 L85,-25 L75,-25 L75,-45 L85,-45 L85,-35 L95,-35 L95,-65 L85,-65 L85,-55 L75,-55 L75,-65 L55,-65 L55,-55 L65,-55 L65,-45 L35,-45 L35,-55 L45,-55 L45,-65 L5,-65 L5,-55 L25,-55 L25,-35 L15,-35 L15,-45 L5,-45 L5,-15 L15,-15 L15,-25 L25,-25 L25,-15 L45,-15 L45,-25 L35,-25 L35,-35 L65,-35 L65,-25 L55,-25 L55,-15 L65,-15 L65,-5 L55,-5 L55,5 L65,5 L65,25 L55,25 L55,15 L45,15 L45,25 L35,25 L35,5 L45,5 L45,-5 L25,-5 L25,5 L15,5 L15,-5 L5,-5 L5,25 L15,25 L15,15 L25,15 L25,45 L15,45 L15,35 L5,35 L5,65 L15,65 L15,55 L25,55 L25,65 L45,65 L45,55 L35,55 L35,35 L45,35 L45,45 L55,45 L55,35 L65,35 L65,55 L55,55 L55,65 L75,65 L75,55 L85,55 L85,65 L95,65 L95,35 L85,35 L85,45 L75,45 L75,5 L85,5 L85,25 L105,25 L105,15 L95,15 L95,5 L125,5 L125,15 L115,15 L115,25 L125,25 L125,45 L115,45 L115,35 L105,35 L105,65 L115,65 L115,55 L125,55 L125,65 L145,65 L145,55 L135,55 L135,45 L165,45 L165,55 L155,55 L155,65 L185,65 L185,55 L175,55 L175,45 L185,45 L185,35 L175,35 L175,25 L185,25 L185,15 L155,15 L155,25 L165,25 L165,35 L135,35 L135,25 L145,25 L145,15 L135,15 L135,-5 L145,-5 L145,5 L155,5 L155,-25 L145,-25 L145,-15 L135,-15 L135,-55 L145,-55 L145,-35 L165,-35 L165,-45 L155,-45 L155,-55 L163.467,-55 L165.843,-51.822 L175,-36.749 L175,-35 L176.021,-35 L184.283,-17.849 L185,-15.89 L185,-15 L175,-15 L175,-25 L165,-25 L165,5 L175,5 L175,-5 L185,-5 L185,5 L192.159,5 L195,16.05 L195,25 L196.747,25 L198.273,35 L195,35 L195,45 L199.243,45 L199.748,55 L195,55 L195,65 L199.748,65" fill="rgba(0,0,226,0)" stroke="rgba(0,0,255,1)" stroke-width="1.5"/>
</svg>