<svg xmlns="http://www.w3.org/2000/svg" viewBox="-252.75 -166.99 498.02 434.52">
<path d="M-209.458,-136.735 L-150.542,-136.735 L-150.542,-20 L-209.458,-20 Z" fill="rgba(246,246,219,1)" stroke="rgba(0,0,0,1)" stroke-width="0.75"/>
<path d="M-44.127,-37.905 L-44.369,-35.925 L-44.762,-34.013 L-45.299,-32.181 L-45.971,-30.437 L-46.77,-28.793 L-47.688,-27.258 L-48.718,-25.841 L-49.851,-24.554 L-51.079,-23.406 L-52.395,-22.407 L-53.79,-21.567 L-55.255,-20.897 L-56.784,-20.405 L-58.369,-20.103 L-60,-20 L-61.631,-20.103 L-63.216,-20.405 L-64.745,-20.897 L-66.21,-21.567 L-67.605,-22.407 L-68.921,-23.406 L-70.149,-24.554 L-71.282,-25.841 L-72.312,-27.258 L-73.23,-28.793 L-74.029,-30.437 L-74.701,-32.181 L-75.238,-34.013 L-75.631,-35.925 L-75.873,-37.905 L-75.955,-39.944 L-75.873,-41.575 L-75.631,-43.159 L-75.238,-44.688 L-74.701,-46.154 L-74.029,-47.549 L-73.23,-48.865 L-72.312,-50.093 L-71.282,-51.226 L-70.149,-52.256 L-68.921,-53.174 L-67.605,-53.973 L-66.21,-54.645 L-64.745,-55.182 L-63.216,-55.575 L-61.631,-55.817 L-60,-55.899 L-58.369,-55.817 L-56.784,-55.575 L-55.255,-55.182 L-53.79,-54.645 L-52.395,-53.973 L-51.079,-53.174 L-49.851,-52.256 L-48.718,-51.226 L-47.688,-50.093 L-46.77,-48.865 L-45.971,-47.549 L-45.299,-46.154 L-44.762,-44.688 L-44.369,-43.159 L-44.127,-41.575 L-44.045,-39.944 Z" fill="rgba(94,99,255,0.96)" stroke="rgba(75,130,0,0.96)" stroke-width="0.15955115432152525"/>
<path d="M60,-51.91 L60,-20" fill="rgba(0,0,0,0)" stroke="rgba(128,128,128,1)" stroke-width="0.25"/>
<path d="M182.764,-20 L177.236,-20 L180,-24.787 Z" fill="rgba(94,99,255,0.96)" stroke="rgba(75,130,0,0.96)" stroke-width="0.15955115432152525"/>
<path d="M-182.645,91.209 L-178.498,94.306 L-175.774,98.707 L-179.142,100 L-184.226,94.452 L-182.645,91.209 Z" fill="rgba(255,255,255,0.11372549019607843)"/>
<path d="M-61.005,96.66 L-59.429,97.836 L-58.394,99.509 L-59.674,100 L-61.606,97.892 L-61.005,96.66 Z" fill="rgba(255,255,255,0.6549019607843137)"/>
<path d="M73.62,84.636 L73.413,86.335 L73.075,87.975 L72.615,89.548 L72.039,91.044 L71.353,92.455 L70.565,93.772 L69.681,94.988 L68.709,96.092 L67.655,97.077 L66.526,97.934 L65.329,98.655 L64.071,99.231 L62.759,99.652 L61.4,99.912 L60,100 L58.6,99.912 L57.241,99.652 L55.929,99.231 L54.671,98.655 L53.474,97.934 L52.345,97.077 L51.291,96.092 L50.319,94.988 L49.435,93.772 L48.647,92.455 L47.961,91.044 L47.385,89.548 L46.925,87.975 L46.587,86.335 L46.38,84.636 L46.309,82.886 L46.38,81.487 L46.587,80.127 L46.925,78.815 L47.385,77.557 L47.961,76.36 L48.647,75.232 L49.435,74.178 L50.319,73.205 L51.291,72.322 L52.345,71.534 L53.474,70.848 L54.671,70.271 L55.929,69.811 L57.241,69.474 L58.6,69.266 L60,69.195 L61.4,69.266 L62.759,69.474 L64.071,69.811 L65.329,70.271 L66.526,70.848 L67.655,71.534 L68.709,72.322 L69.681,73.205 L70.565,74.178 L71.353,75.232 L72.039,76.36 L72.615,77.557 L73.075,78.815 L73.413,80.127 L73.62,81.487 L73.691,82.886 Z" fill="rgba(255,94,117,0.96)" stroke="rgba(0,180,190,0.96)" stroke-width="0.1369092361361254"/>
<path d="M180,72.618 L180,100" fill="rgba(0,0,0,0)" stroke="rgba(128,128,128,1)" stroke-width="0.25"/>
<path d="M-177.629,220 L-182.371,220 L-180,215.893 Z" fill="rgba(255,94,117,0.96)" stroke="rgba(0,180,190,0.96)" stroke-width="0.1369092361361254"/>
<path d="M-62.269,212.457 L-58.711,215.114 L-56.374,218.891 L-59.264,220 L-63.626,215.239 L-62.269,212.457 Z" fill="rgba(255,255,255,0.11372549019607843)"/>
<path d="M-180.862,-22.866 L-179.51,-21.857 L-178.622,-20.422 L-179.72,-20 L-181.378,-21.809 L-180.862,-22.866 Z" fill="rgba(255,255,255,0.6549019607843137)"/>
<path d="M-48.04,-33.491 L-48.222,-31.999 L-48.519,-30.559 L-48.923,-29.178 L-49.429,-27.864 L-50.031,-26.625 L-50.723,-25.469 L-51.499,-24.401 L-52.353,-23.432 L-53.278,-22.566 L-54.27,-21.814 L-55.321,-21.181 L-56.425,-20.676 L-57.577,-20.305 L-58.771,-20.078 L-60,-20 L-61.229,-20.078 L-62.423,-20.305 L-63.575,-20.676 L-64.679,-21.181 L-65.73,-21.814 L-66.722,-22.566 L-67.647,-23.432 L-68.501,-24.401 L-69.277,-25.469 L-69.969,-26.625 L-70.571,-27.864 L-71.077,-29.178 L-71.481,-30.559 L-71.778,-31.999 L-71.96,-33.491 L-72.022,-35.027 L-71.96,-36.257 L-71.778,-37.45 L-71.481,-38.602 L-71.077,-39.707 L-70.571,-40.758 L-69.969,-41.749 L-69.277,-42.674 L-68.501,-43.528 L-67.647,-44.304 L-66.722,-44.996 L-65.73,-45.598 L-64.679,-46.104 L-63.575,-46.509 L-62.423,-46.805 L-61.229,-46.987 L-60,-47.049 L-58.771,-46.987 L-57.577,-46.805 L-56.425,-46.509 L-55.321,-46.104 L-54.27,-45.598 L-53.278,-44.996 L-52.353,-44.304 L-51.499,-43.528 L-50.723,-42.674 L-50.031,-41.749 L-49.429,-40.758 L-48.923,-39.707 L-48.519,-38.602 L-48.222,-37.45 L-48.04,-36.257 L-47.978,-35.027 Z" fill="rgba(94,185,255,0.96)" stroke="rgba(214,167,96,0.96)" stroke-width="0.12021872377372347"/>
<path d="M60,-44.044 L60,-20" fill="rgba(0,0,0,0)" stroke="rgba(128,128,128,1)" stroke-width="0.25"/>
<path d="M182.082,-20 L177.918,-20 L180,-23.607 Z" fill="rgba(94,185,255,0.96)" stroke="rgba(214,167,96,0.96)" stroke-width="0.12021872377372347"/>
<path d="M-181.993,93.376 L-178.868,95.71 L-176.816,99.026 L-179.353,100 L-183.184,95.819 L-181.993,93.376 Z" fill="rgba(255,255,255,0.11372549019607843)"/>
<path d="M-60.757,97.483 L-59.57,98.37 L-58.79,99.63 L-59.754,100 L-61.21,98.411 L-60.757,97.483 Z" fill="rgba(255,255,255,0.6549019607843137)"/>
<path d="M70.852,87.759 L70.686,89.113 L70.417,90.42 L70.051,91.672 L69.591,92.864 L69.045,93.989 L68.417,95.038 L67.713,96.006 L66.938,96.886 L66.099,97.671 L65.199,98.354 L64.246,98.929 L63.244,99.387 L62.198,99.723 L61.115,99.93 L60,100 L58.885,99.93 L57.802,99.723 L56.756,99.387 L55.754,98.929 L54.801,98.354 L53.901,97.671 L53.062,96.886 L52.287,96.006 L51.583,95.038 L50.955,93.989 L50.409,92.864 L49.949,91.672 L49.583,90.42 L49.314,89.113 L49.148,87.759 L49.092,86.365 L49.148,85.25 L49.314,84.167 L49.583,83.122 L49.949,82.119 L50.409,81.166 L50.955,80.266 L51.583,79.427 L52.287,78.652 L53.062,77.948 L53.901,77.32 L54.801,76.774 L55.754,76.315 L56.756,75.948 L57.802,75.679 L58.885,75.514 L60,75.457 L61.115,75.514 L62.198,75.679 L63.244,75.948 L64.246,76.315 L65.199,76.774 L66.099,77.32 L66.938,77.948 L67.713,78.652 L68.417,79.427 L69.045,80.266 L69.591,81.166 L70.051,82.119 L70.417,83.122 L70.686,84.167 L70.852,85.25 L70.908,86.365 Z" fill="rgba(218,94,255,0.96)" stroke="rgba(0,175,10,0.96)" stroke-width="0.1090785269276239"/>
<path d="M180,78.184 L180,100" fill="rgba(0,0,0,0)" stroke="rgba(128,128,128,1)" stroke-width="0.25"/>
<path d="M-178.111,220 L-181.889,220 L-180,216.728 Z" fill="rgba(218,94,255,0.96)" stroke="rgba(0,175,10,0.96)" stroke-width="0.1090785269276239"/>
<path d="M-61.808,213.99 L-58.973,216.107 L-57.111,219.116 L-59.413,220 L-62.889,216.207 L-61.808,213.99 Z" fill="rgba(255,255,255,0.11372549019607843)"/>
<path d="M-180.687,-22.284 L-179.61,-21.479 L-178.902,-20.336 L-179.777,-20 L-181.098,-21.441 L-180.687,-22.284 Z" fill="rgba(255,255,255,0.6549019607843137)"/>
<path d="M-51.984,-29.042 L-52.107,-28.042 L-52.305,-27.077 L-52.576,-26.151 L-52.915,-25.271 L-53.319,-24.44 L-53.783,-23.665 L-54.303,-22.95 L-54.875,-22.3 L-55.495,-21.72 L-56.159,-21.216 L-56.864,-20.791 L-57.604,-20.453 L-58.376,-20.205 L-59.176,-20.052 L-60,-20 L-60.824,-20.052 L-61.624,-20.205 L-62.396,-20.453 L-63.136,-20.791 L-63.841,-21.216 L-64.505,-21.72 L-65.125,-22.3 L-65.697,-22.95 L-66.217,-23.665 L-66.681,-24.44 L-67.085,-25.271 L-67.424,-26.151 L-67.695,-27.077 L-67.893,-28.042 L-68.016,-29.042 L-68.057,-30.071 L-68.016,-30.895 L-67.893,-31.695 L-67.695,-32.467 L-67.424,-33.208 L-67.085,-33.912 L-66.681,-34.576 L-66.217,-35.197 L-65.697,-35.769 L-65.125,-36.289 L-64.505,-36.753 L-63.841,-37.156 L-63.136,-37.495 L-62.396,-37.766 L-61.624,-37.965 L-60.824,-38.087 L-60,-38.129 L-59.176,-38.087 L-58.376,-37.965 L-57.604,-37.766 L-56.864,-37.495 L-56.159,-37.156 L-55.495,-36.753 L-54.875,-36.289 L-54.303,-35.769 L-53.783,-35.197 L-53.319,-34.576 L-52.915,-33.912 L-52.576,-33.208 L-52.305,-32.467 L-52.107,-31.695 L-51.984,-30.895 L-51.943,-30.071 Z" fill="rgba(94,255,105,0.96)" stroke="rgba(255,175,255,0.96)" stroke-width="0.08057187150698156"/>
<path d="M60,-36.114 L60,-20" fill="rgba(0,0,0,0)" stroke="rgba(128,128,128,1)" stroke-width="0.25"/>
<path d="M181.396,-20 L178.604,-20 L180,-22.417 Z" fill="rgba(94,255,105,0.96)" stroke="rgba(255,175,255,0.96)" stroke-width="0.08057187150698156"/>
<path d="M-181.336,95.561 L-179.241,97.125 L-177.866,99.347 L-179.567,100 L-182.134,97.198 L-181.336,95.561 Z" fill="rgba(255,255,255,0.11372549019607843)"/>
<path d="M-60.507,98.313 L-59.712,98.907 L-59.189,99.752 L-59.835,100 L-60.811,98.935 L-60.507,98.313 Z" fill="rgba(255,255,255,0.6549019607843137)"/>
<path d="M18.214,19.954 L101.786,19.954 L101.786,100 L18.214,100 Z" fill="rgba(246,246,219,1)" stroke="rgba(0,0,0,1)" stroke-width="0.75"/>
<path d="M187.5,91.34 L172.5,100 L172.5,82.679 Z" fill="rgba(0,0,255,0.12549019607843137)" stroke="rgba(0,0,0,1)" stroke-width="0.5"/>
<path d="M-170,210 L-180,220 L-190,210 L-180,200 Z" fill="rgba(0,0,255,0.12549019607843137)" stroke="rgba(0,0,0,1)" stroke-width="0.5"/>
<path d="M-50.955,210.489 L-57.865,220 L-69.045,216.367 L-69.045,204.612 L-57.865,200.979 Z" fill="rgba(0,0,255,0.12549019607843137)" stroke="rgba(0,0,0,1)" stroke-width="0.5"/>
<path d="M-170,-28.66 L-175,-20 L-185,-20 L-190,-28.66 L-185,-37.321 L-175,-37.321 Z" fill="rgba(0,0,255,0.12549019607843137)" stroke="rgba(0,0,0,1)" stroke-width="0.5"/>
<path d="M-50.495,-29.749 L-54.26,-21.931 L-62.72,-20 L-69.505,-25.41 L-69.505,-34.088 L-62.72,-39.499 L-54.26,-37.568 Z" fill="rgba(0,0,255,0.12549019607843137)" stroke="rgba(0,0,0,1)" stroke-width="0.5"/>
<path d="M70,-30 L67.071,-22.929 L60,-20 L52.929,-22.929 L50,-30 L52.929,-37.071 L60,-40 L67.071,-37.071 Z" fill="rgba(0,0,255,0.12549019607843137)" stroke="rgba(0,0,0,1)" stroke-width="0.5"/>
<path d="M172.5,-35 L187.5,-35 L187.5,-20 L172.5,-20 Z" fill="rgba(246,246,219,1)" stroke="rgba(0,0,0,1)" stroke-width="0.75"/>
<path d="M-222.5,40 L-137.5,40 L-137.5,100 L-222.5,100 Z" fill="rgba(246,246,219,1)" stroke="rgba(0,0,0,1)" stroke-width="0.75"/>
<path d="M-70,80 L-50,80 L-50,100 L-70,100 Z" fill="rgba(223,168,55,1)" stroke="rgba(0,0,0,1)" stroke-width="0.5"/>
<path d="M50,80 L70,80 L70,100 L50,100 Z" fill="rgba(235,188,113,1)" stroke="rgba(0,0,0,1)" stroke-width="0.5"/>
<path d="M170,80 L190,80 L190,100 L170,100 Z" fill="rgba(209,124,63,1)" stroke="rgba(0,0,0,1)" stroke-width="0.5"/>
<path d="M-190,200 L-170,200 L-170,220 L-190,220 Z" fill="rgba(146,70,47,1)" stroke="rgba(0,0,0,1)" stroke-width="0.5"/>
<path d="M-70,200 L-50,200 L-50,220 L-70,220 Z" fill="rgba(190,114,73,1)" stroke="rgba(0,0,0,1)" stroke-width="0.5"/>
<path d="M-190,-40 L-170,-40 L-170,-20 L-190,-20 Z" fill="rgba(187,96,60,1)" stroke="rgba(0,0,0,1)" stroke-width="0.5"/>
<path d="M-84.17,-79.65 L-35.83,-79.65 L-35.83,-20 L-84.17,-20 Z" fill="rgba(246,246,219,1)" stroke="rgba(0,0,0,1)" stroke-width="0.75"/>
<text x="0" y="0" text-anchor="start" font-family="Verdana, Helvetica, Arial, sans-serif" font-size="40" fill="rgba(0,0,0,1)" transform="matrix(0.25 0 0 0.25 43.33 -21.89999999999999)">semper</text>
<text x="0" y="0" text-anchor="start" font-family="Verdana, Helvetica, Arial, sans-serif" font-size="40" fill="rgba(0,0,0,1)" transform="matrix(0.25 0 0 0.25 173.33 -21.900000000000006)">ubi</text>
<text x="0" y="0" text-anchor="start" font-family="Verdana, Helvetica, Arial, sans-serif" font-size="40" fill="rgba(0,0,0,1)" transform="matrix(0.25 0 0 0.25 -188.06 98.1)">sub</text>
<text x="0" y="0" text-anchor="start" font-family="Verdana, Helvetica, Arial, sans-serif" font-size="40" fill="rgba(0,0,0,1)" transform="matrix(0.25 0 0 0.25 -66.67 98.1)">ubi</text>
<path d="M22.657,44.65 L97.343,44.65 L97.343,100 L22.657,100 Z" fill="rgba(246,246,219,1)" stroke="rgba(0,0,0,1)" stroke-width="0.75"/>
<text x="-11.120000000000001" y="0" text-anchor="start" font-family="Verdana, Helvetica, Arial, sans-serif" font-size="40" fill="rgba(0,0,0,1)" transform="matrix(0.25 0 0 0.25 180 98.1)">3</text>
<text x="32.181270189221934" y="25" text-anchor="start" font-family="Verdana, Helvetica, Arial, sans-serif" font-size="40" fill="rgba(0,0,0,1)" transform="matrix(0.25 0 0 0.25 -190.8253175473055 211.85000000000002)">4</text>
<text x="75.48254037844387" y="50" text-anchor="start" font-family="Verdana, Helvetica, Arial, sans-serif" font-size="40" fill="rgba(0,0,0,1)" transform="matrix(0.25 0 0 0.25 -81.65063509461098 205.60000000000002)">5</text>
<text x="118.7838105676658" y="74.99999999999999" text-anchor="start" font-family="Verdana, Helvetica, Arial, sans-serif" font-size="40" fill="rgba(0,0,0,1)" transform="matrix(0.25 0 0 0.25 -212.47595264191645 -40.650000000000006)">6</text>
<text x="162.08508075688775" y="100" text-anchor="start" font-family="Verdana, Helvetica, Arial, sans-serif" font-size="40" fill="rgba(0,0,0,1)" transform="matrix(0.25 0 0 0.25 -103.30127018922194 -46.900000000000006)">7</text>
<text x="205.38635094610967" y="124.99999999999999" text-anchor="start" font-family="Verdana, Helvetica, Arial, sans-serif" font-size="40" fill="rgba(0,0,0,1)" transform="matrix(0.25 0 0 0.25 5.873412263472577 -53.14999999999998)">8</text>
<path d="M144.978,-40.46 L215.022,-40.46 L215.022,-20 L144.978,-20 Z" fill="rgba(246,246,219,1)" stroke="rgba(0,0,0,1)" stroke-width="0.75"/>
<text x="-110.088" y="0" text-anchor="start" font-family="Verdana, Helvetica, Arial, sans-serif" font-size="24" fill="rgba(0,0,0,1)" transform="matrix(0.25 0 0 0.25 -180 98.86)">3.141592653589793</text>
<path d="M-100.623,39.457 L-19.377,39.457 L-19.377,100 L-100.623,100 Z" fill="rgba(246,246,219,1)" stroke="rgba(0,0,0,1)" stroke-width="0.75"/>
<path d="M50.711,81.112 L67.704,73.187 C69.52,77.081 69.943,81.479 68.904,85.648 C67.865,89.816 65.426,93.501 61.995,96.086 C58.564,98.671 54.35,100 50.057,99.85 Z" fill="rgba(0,0,0,0.06274509803921569)" stroke="rgba(0,0,232,1)" stroke-width="0.375"/>
<path d="M187.704,73.187 C189.52,77.081 189.943,81.479 188.904,85.648 C187.865,89.816 185.426,93.501 181.995,96.086 C178.564,98.671 174.35,100 170.057,99.85 Z" fill="rgba(0,0,0,0.06274509803921569)" stroke="rgba(0,0,232,1)" stroke-width="0.375"/>
<path d="M-172.296,193.187 C-170.48,197.081 -170.057,201.479 -171.096,205.648 C-172.135,209.816 -174.574,213.501 -178.005,216.086 C-181.436,218.671 -185.65,220 -189.943,219.85" fill="rgba(0,0,0,0.06274509803921569)" stroke="rgba(0,0,232,1)" stroke-width="0.375"/>
<text x="16.479847834123056" y="21.928812713642056" text-anchor="start" font-family="Verdana, Helvetica, Arial, sans-serif" font-size="24" fill="rgba(0,0,0,1)" transform="matrix(0.25 0 0 0.25 -69.28896195853076 213.37779682158947)">true</text>
<text x="109.19823329080181" y="59.389472055233256" text-anchor="start" font-family="Verdana, Helvetica, Arial, sans-serif" font-size="24" fill="rgba(0,0,0,1)" transform="matrix(0.25 0 0 0.25 -212.46855832270046 -35.98736801380829)">true</text>
<text x="197.24861874748058" y="96.85013139682448" text-anchor="start" font-family="Verdana, Helvetica, Arial, sans-serif" font-size="24" fill="rgba(0,0,0,1)" transform="matrix(0.25 0 0 0.25 -115.64815468687013 -45.35253284920611)">false</text>
<path d="M49.904,-42 L70.096,-42 L70.096,-20 L49.904,-20 Z" fill="rgba(246,246,219,1)" stroke="rgba(0,0,0,1)" stroke-width="0.75"/>
<path d="M182.011,-27 C182.485,-25.984 182.596,-24.835 182.325,-23.747 C182.053,-22.659 181.417,-21.697 180.521,-21.022 C179.625,-20.347 178.525,-20 177.404,-20.039" fill="rgba(0,0,0,0.06274509803921569)" stroke="rgba(0,0,232,1)" stroke-width="0.25"/>
<path d="M-218,50.25 L-142,50.25 L-142,100 L-218,100 Z" fill="rgba(246,246,219,1)" stroke="rgba(0,0,0,1)" stroke-width="0.75"/>
<path d="M-90.5,65.25 L-76.25,95.5 L-49.25,100 L-29.5,80.75" fill="rgba(0,0,0,0)" stroke="rgba(0,0,0,1)" stroke-width="0.25"/>
<text x="-206.34" y="-105" text-anchor="start" font-family="Verdana-Bold, Helvetica, Arial, sans-serif" font-size="12" fill="rgba(78,78,199,1)" transform="matrix(1 0 0 1 0 100)">Geometry</text>
<text x="-72.342" y="-105" text-anchor="start" font-family="Verdana-Bold, Helvetica, Arial, sans-serif" font-size="12" fill="rgba(78,78,199,1)" transform="matrix(1 0 0 1 0 100)">Path</text>
<text x="46.326" y="-105" text-anchor="start" font-family="Verdana-Bold, Helvetica, Arial, sans-serif" font-size="12" fill="rgba(78,78,199,1)" transform="matrix(1 0 0 1 0 100)">Point</text>
<text x="165.666" y="-105" text-anchor="start" font-family="Verdana-Bold, Helvetica, Arial, sans-serif" font-size="12" fill="rgba(78,78,199,1)" transform="matrix(1 0 0 1 0 100)">Color</text>
<text x="-195.672" y="15" text-anchor="start" font-family="Verdana-Bold, Helvetica, Arial, sans-serif" font-size="12" fill="rgba(78,78,199,1)" transform="matrix(1 0 0 1 0 100)">String</text>
<text x="-78.678" y="15" text-anchor="start" font-family="Verdana-Bold, Helvetica, Arial, sans-serif" font-size="12" fill="rgba(78,78,199,1)" transform="matrix(1 0 0 1 0 100)">Integer</text>
<text x="38.664" y="15" text-anchor="start" font-family="Verdana-Bold, Helvetica, Arial, sans-serif" font-size="12" fill="rgba(78,78,199,1)" transform="matrix(1 0 0 1 0 100)">Number</text>
<text x="157.986" y="15" text-anchor="start" font-family="Verdana-Bold, Helvetica, Arial, sans-serif" font-size="12" fill="rgba(78,78,199,1)" transform="matrix(1 0 0 1 0 100)">Boolean</text>
<text x="-205.674" y="135" text-anchor="start" font-family="Verdana-Bold, Helvetica, Arial, sans-serif" font-size="12" fill="rgba(78,78,199,1)" transform="matrix(1 0 0 1 0 100)">HashMap</text>
<text x="-78.678" y="135" text-anchor="start" font-family="Verdana-Bold, Helvetica, Arial, sans-serif" font-size="12" fill="rgba(78,78,199,1)" transform="matrix(1 0 0 1 0 100)">Integer</text>
</svg>