<svg xmlns="http://www.w3.org/2000/svg" viewBox="-324.24 -209.25 592.31 544.71">
<path d="M-137.579,-54.128 L-155.835,-3.969 L-202.062,22.72 L-254.629,13.451 L-288.94,-27.439 L-288.94,-80.817 L-254.629,-121.707 L-202.062,-130.976 L-155.835,-104.287 Z" fill="rgba(255,164,218,1)" stroke="rgba(0,0,0,1)" stroke-width="1"/>
<path d="M42.793,8.54 L21.548,59.829 L-29.74,81.073 L-81.029,59.829 L-102.274,8.54 L-81.029,-42.749 L-29.74,-63.993 L21.548,-42.749 Z" fill="rgba(249,255,164,1)" stroke="rgba(0,0,0,1)" stroke-width="1"/>
<path d="M50.083,-109.77 L25.297,-58.301 L-30.398,-45.589 L-75.062,-81.207 L-75.062,-138.334 L-30.398,-173.952 L25.297,-161.24 Z" fill="rgba(255,164,182,1)" stroke="rgba(0,0,0,1)" stroke-width="1"/>
<path d="M232.764,-9.784 L210.322,36.817 L159.896,48.326 L119.457,16.077 L119.457,-35.646 L159.896,-67.895 L210.322,-56.385 Z" fill="rgba(173,164,255,1)" stroke="rgba(0,0,0,1)" stroke-width="1"/>
<path d="M-179.759,264.723 L-215.189,300.153 L-250.619,264.723 L-215.189,229.293 Z" fill="rgba(255,164,247,1)" stroke="rgba(0,0,0,1)" stroke-width="1"/>
<path d="M-19.132,119.316 L-40.68,171.338 L-92.702,192.886 L-144.725,171.338 L-166.273,119.316 L-144.725,67.294 L-92.702,45.745 L-40.68,67.294 Z" fill="rgba(164,179,255,1)" stroke="rgba(0,0,0,1)" stroke-width="1"/>
<path d="M141.569,115.07 L120.498,165.941 L69.627,187.013 L18.756,165.941 L-2.315,115.07 L18.756,64.2 L69.627,43.128 L120.498,64.2 Z" fill="rgba(255,164,246,1)" stroke="rgba(0,0,0,1)" stroke-width="1"/>
<text x="-222.28425763708353" y="-54.128226067405194" text-anchor="start" font-family="Verdana, Helvetica, Arial, sans-serif" font-size="24" fill="rgba(0,0,0,1)" transform="matrix(1 0 0 1 0 8)">1</text>
<text x="-36.41232592447474" y="8.53994837263599" text-anchor="start" font-family="Verdana, Helvetica, Arial, sans-serif" font-size="24" fill="rgba(0,0,0,1)" transform="matrix(1 0 0 1 0 8)">2</text>
<text x="-22.420996377922595" y="-109.77008308283985" text-anchor="start" font-family="Verdana, Helvetica, Arial, sans-serif" font-size="24" fill="rgba(0,0,0,1)" transform="matrix(1 0 0 1 0 8)">3</text>
<text x="166.48725289224834" y="-9.784233884420246" text-anchor="start" font-family="Verdana, Helvetica, Arial, sans-serif" font-size="24" fill="rgba(0,0,0,1)" transform="matrix(1 0 0 1 0 8)">4</text>
<text x="-221.8609509866014" y="264.7230237349868" text-anchor="start" font-family="Verdana, Helvetica, Arial, sans-serif" font-size="24" fill="rgba(0,0,0,1)" transform="matrix(1 0 0 1 0 8)">5</text>
<text x="-99.37449614911154" y="119.31575218681246" text-anchor="start" font-family="Verdana, Helvetica, Arial, sans-serif" font-size="24" fill="rgba(0,0,0,1)" transform="matrix(1 0 0 1 0 8)">6</text>
<text x="62.95487106849626" y="115.07049651117995" text-anchor="start" font-family="Verdana, Helvetica, Arial, sans-serif" font-size="24" fill="rgba(0,0,0,1)" transform="matrix(1 0 0 1 0 8)">7</text>
</svg>