<svg xmlns="http://www.w3.org/2000/svg" viewBox="-181.77 -143.15 363.53 386.29">
<path d="M-157.5,218.88 L157.5,218.88 L0,-118.88 Z" fill="rgba(184,184,184,0.5019607843137255)" stroke="rgba(0,0,0,1)" stroke-width="3.2185"/>
<path d="M0,74.365 L0,74.338 L0.003,74.259 L0.01,74.127 L0.023,73.943 L0.045,73.708 L0.077,73.423 L0.123,73.088 L0.183,72.704 L0.259,72.274 L0.355,71.798 L0.471,71.279 L0.609,70.718 L0.771,70.117 L0.96,69.478 L1.175,68.805 L1.419,68.098 L1.694,67.361 L2,66.596 L2.339,65.807 L2.711,64.995 L3.119,64.164 L3.562,63.317 L4.043,62.457 L4.56,61.586 L5.115,60.709 L5.709,59.828 L6.341,58.946 L7.012,58.067 L7.722,57.193 L8.471,56.329 L9.259,55.476 L10.084,54.638 L10.948,53.818 L11.85,53.019 L12.788,52.245 L13.762,51.496 L14.771,50.778 L15.814,50.091 L16.89,49.439 L17.998,48.825 L19.136,48.249 L20.303,47.715 L21.497,47.225 L22.716,46.78 L23.96,46.382 L25.225,46.034 L26.51,45.736 L27.813,45.489 L29.131,45.296 L30.464,45.156 L31.808,45.071 L33.16,45.041 L34.52,45.068 L35.884,45.151 L37.249,45.29 L38.614,45.486 L39.976,45.739 L41.332,46.048 L42.68,46.413 L44.016,46.834 L45.34,47.309 L46.647,47.839 L47.936,48.421 L49.204,49.056 L50.449,49.742 L51.667,50.477 L52.857,51.261 L54.016,52.091 L55.141,52.967 L56.232,53.887 L57.284,54.848 L58.296,55.85 L59.267,56.89 L60.193,57.967 L61.074,59.079 L61.906,60.223 L62.69,61.398 L63.421,62.603 L64.101,63.834 L64.726,65.09 L65.295,66.368 L65.808,67.668 L66.264,68.987 L66.66,70.324 L66.997,71.675 L67.274,73.04 L67.49,74.417 L67.644,75.803 L67.737,77.198 L67.768,78.6 L67.737,80.007 L67.644,81.418 L67.49,82.83 L67.274,84.244 L66.997,85.658 L66.66,87.07 L66.264,88.479 L65.808,89.885 L65.295,91.287 L64.726,92.683 L64.101,94.073 L63.421,95.457 L62.69,96.833 L61.906,98.201 L61.074,99.56 L60.193,100.911 L59.267,102.253 L58.296,103.586 L57.284,104.909 L56.232,106.223 L55.141,107.527 L54.016,108.821 L52.857,110.106 L51.667,111.381 L50.449,112.646 L49.204,113.902 L47.936,115.149 L46.647,116.387 L45.34,117.617 L44.016,118.837 L42.68,120.049 L41.332,121.253 L39.976,122.45 L38.614,123.638 L37.249,124.819 L35.884,125.992 L34.52,127.158 L33.16,128.317 L31.808,129.469 L30.464,130.613 L29.131,131.751 L27.813,132.882 L26.51,134.005 L25.225,135.122 L23.96,136.231 L22.716,137.332 L21.497,138.425 L20.303,139.51 L19.136,140.587 L17.998,141.654 L16.89,142.712 L15.814,143.76 L14.771,144.797 L13.762,145.823 L12.788,146.837 L11.85,147.838 L10.948,148.825 L10.084,149.798 L9.259,150.756 L8.471,151.698 L7.722,152.622 L7.012,153.528 L6.341,154.416 L5.709,155.283 L5.115,156.129 L4.56,156.953 L4.043,157.754 L3.562,158.53 L3.119,159.281 L2.711,160.006 L2.339,160.703 L2,161.371 L1.694,162.01 L1.419,162.618 L1.175,163.195 L0.96,163.74 L0.771,164.251 L0.609,164.728 L0.471,165.169 L0.355,165.576 L0.259,165.945 L0.183,166.278 L0.123,166.573 L0.077,166.829 L0.045,167.047 L0.023,167.226 L0.01,167.366 L0.003,167.465 L0,167.525 L0,167.545 L0,167.525 L-0.003,167.465 L-0.01,167.366 L-0.023,167.226 L-0.045,167.047 L-0.077,166.829 L-0.123,166.573 L-0.183,166.278 L-0.259,165.945 L-0.355,165.576 L-0.471,165.169 L-0.609,164.728 L-0.771,164.251 L-0.96,163.74 L-1.175,163.195 L-1.419,162.618 L-1.694,162.01 L-2,161.371 L-2.339,160.703 L-2.711,160.006 L-3.119,159.281 L-3.562,158.53 L-4.043,157.754 L-4.56,156.953 L-5.115,156.129 L-5.709,155.283 L-6.341,154.416 L-7.012,153.528 L-7.722,152.622 L-8.471,151.698 L-9.259,150.756 L-10.084,149.798 L-10.948,148.825 L-11.85,147.838 L-12.788,146.837 L-13.762,145.823 L-14.771,144.797 L-15.814,143.76 L-16.89,142.712 L-17.998,141.654 L-19.136,140.587 L-20.303,139.51 L-21.497,138.425 L-22.716,137.332 L-23.96,136.231 L-25.225,135.122 L-26.51,134.005 L-27.813,132.882 L-29.131,131.751 L-30.464,130.613 L-31.808,129.469 L-33.16,128.317 L-34.52,127.158 L-35.884,125.992 L-37.249,124.819 L-38.614,123.638 L-39.976,122.45 L-41.332,121.253 L-42.68,120.049 L-44.016,118.837 L-45.34,117.617 L-46.647,116.387 L-47.936,115.149 L-49.204,113.902 L-50.449,112.646 L-51.667,111.381 L-52.857,110.106 L-54.016,108.821 L-55.141,107.527 L-56.232,106.223 L-57.284,104.909 L-58.296,103.586 L-59.267,102.253 L-60.193,100.911 L-61.074,99.56 L-61.906,98.201 L-62.69,96.833 L-63.421,95.457 L-64.101,94.073 L-64.726,92.683 L-65.295,91.287 L-65.808,89.885 L-66.264,88.479 L-66.66,87.07 L-66.997,85.658 L-67.274,84.244 L-67.49,82.83 L-67.644,81.418 L-67.737,80.007 L-67.768,78.6 L-67.737,77.198 L-67.644,75.803 L-67.49,74.417 L-67.274,73.04 L-66.997,71.675 L-66.66,70.324 L-66.264,68.987 L-65.808,67.668 L-65.295,66.368 L-64.726,65.09 L-64.101,63.834 L-63.421,62.603 L-62.69,61.398 L-61.906,60.223 L-61.074,59.079 L-60.193,57.967 L-59.267,56.89 L-58.296,55.85 L-57.284,54.848 L-56.232,53.887 L-55.141,52.967 L-54.016,52.091 L-52.857,51.261 L-51.667,50.477 L-50.449,49.742 L-49.204,49.056 L-47.936,48.421 L-46.647,47.839 L-45.34,47.309 L-44.016,46.834 L-42.68,46.413 L-41.332,46.048 L-39.976,45.739 L-38.614,45.486 L-37.249,45.29 L-35.884,45.151 L-34.52,45.068 L-33.16,45.041 L-31.808,45.071 L-30.464,45.156 L-29.131,45.296 L-27.813,45.489 L-26.51,45.736 L-25.225,46.034 L-23.96,46.382 L-22.716,46.78 L-21.497,47.225 L-20.303,47.715 L-19.136,48.249 L-17.998,48.825 L-16.89,49.439 L-15.814,50.091 L-14.771,50.778 L-13.762,51.496 L-12.788,52.245 L-11.85,53.019 L-10.948,53.818 L-10.084,54.638 L-9.259,55.476 L-8.471,56.329 L-7.722,57.193 L-7.012,58.067 L-6.341,58.946 L-5.709,59.828 L-5.115,60.709 L-4.56,61.586 L-4.043,62.457 L-3.562,63.317 L-3.119,64.164 L-2.711,64.995 L-2.339,65.807 L-2,66.596 L-1.694,67.361 L-1.419,68.098 L-1.175,68.805 L-0.96,69.478 L-0.771,70.117 L-0.609,70.718 L-0.471,71.279 L-0.355,71.798 L-0.259,72.274 L-0.183,72.704 L-0.123,73.088 L-0.077,73.423 L-0.045,73.708 L-0.023,73.943 L-0.01,74.127 L-0.003,74.259 L0,74.338 Z" fill="rgba(255,0,0,1)"/>
</svg>