<svg xmlns="http://www.w3.org/2000/svg" viewBox="-234.72 -135.22 469.44 390.44">
<path d="M-206,-106.5 L-188,-106.5 L-188,-81.5 L-206,-81.5 Z" fill="rgba(253,155,255,1)" stroke="rgba(0,0,0,1)" stroke-width="2"/>
<path d="M-188,-106.5 L-170,-106.5 L-170,-81.5 L-188,-81.5 Z" fill="rgba(253,155,255,1)" stroke="rgba(0,0,0,1)" stroke-width="2"/>
<path d="M-170,-106.5 L-152,-106.5 L-152,-81.5 L-170,-81.5 Z" fill="rgba(253,155,255,1)" stroke="rgba(0,0,0,1)" stroke-width="2"/>
<path d="M-152,-106.5 L-134,-106.5 L-134,-81.5 L-152,-81.5 Z" fill="rgba(253,155,255,1)" stroke="rgba(0,0,0,1)" stroke-width="2"/>
<path d="M-134,-106.5 L-116,-106.5 L-116,-81.5 L-134,-81.5 Z" fill="rgba(253,155,255,1)" stroke="rgba(0,0,0,1)" stroke-width="2"/>
<path d="M-116,-106.5 L-98,-106.5 L-98,-81.5 L-116,-81.5 Z" fill="rgba(253,155,255,1)" stroke="rgba(0,0,0,1)" stroke-width="2"/>
<path d="M-98,-106.5 L-80,-106.5 L-80,-81.5 L-98,-81.5 Z" fill="rgba(253,155,255,1)" stroke="rgba(0,0,0,1)" stroke-width="2"/>
<path d="M-206,-62.5 L-188,-62.5 L-188,-37.5 L-206,-37.5 Z" fill="rgba(170,155,255,1)" stroke="rgba(0,0,0,1)" stroke-width="2"/>
<path d="M-188,-62.5 L-170,-62.5 L-170,-37.5 L-188,-37.5 Z" fill="rgba(170,155,255,1)" stroke="rgba(0,0,0,1)" stroke-width="2"/>
<path d="M-170,-62.5 L-152,-62.5 L-152,-37.5 L-170,-37.5 Z" fill="rgba(170,155,255,1)" stroke="rgba(0,0,0,1)" stroke-width="2"/>
<path d="M-152,-62.5 L-134,-62.5 L-134,-37.5 L-152,-37.5 Z" fill="rgba(170,155,255,1)" stroke="rgba(0,0,0,1)" stroke-width="2"/>
<path d="M-134,-62.5 L-116,-62.5 L-116,-37.5 L-134,-37.5 Z" fill="rgba(170,155,255,1)" stroke="rgba(0,0,0,1)" stroke-width="2"/>
<path d="M-116,-62.5 L-98,-62.5 L-98,-37.5 L-116,-37.5 Z" fill="rgba(170,155,255,1)" stroke="rgba(0,0,0,1)" stroke-width="2"/>
<path d="M-87,-62.5 L-69,-62.5 L-69,-37.5 L-87,-37.5 Z" fill="rgba(155,223,255,1)" stroke="rgba(0,0,0,1)" stroke-width="2"/>
<path d="M-206,-18.5 L-188,-18.5 L-188,6.5 L-206,6.5 Z" fill="rgba(155,255,204,1)" stroke="rgba(0,0,0,1)" stroke-width="2"/>
<path d="M-188,-18.5 L-170,-18.5 L-170,6.5 L-188,6.5 Z" fill="rgba(155,255,204,1)" stroke="rgba(0,0,0,1)" stroke-width="2"/>
<path d="M-170,-18.5 L-152,-18.5 L-152,6.5 L-170,6.5 Z" fill="rgba(155,255,204,1)" stroke="rgba(0,0,0,1)" stroke-width="2"/>
<path d="M-152,-18.5 L-134,-18.5 L-134,6.5 L-152,6.5 Z" fill="rgba(155,255,204,1)" stroke="rgba(0,0,0,1)" stroke-width="2"/>
<path d="M-134,-18.5 L-116,-18.5 L-116,6.5 L-134,6.5 Z" fill="rgba(155,255,204,1)" stroke="rgba(0,0,0,1)" stroke-width="2"/>
<path d="M-105,-18.5 L-87,-18.5 L-87,6.5 L-105,6.5 Z" fill="rgba(255,238,155,1)" stroke="rgba(0,0,0,1)" stroke-width="2"/>
<path d="M-87,-18.5 L-69,-18.5 L-69,6.5 L-87,6.5 Z" fill="rgba(255,238,155,1)" stroke="rgba(0,0,0,1)" stroke-width="2"/>
<path d="M-206,25.5 L-188,25.5 L-188,50.5 L-206,50.5 Z" fill="rgba(155,255,204,1)" stroke="rgba(0,0,0,1)" stroke-width="2"/>
<path d="M-188,25.5 L-170,25.5 L-170,50.5 L-188,50.5 Z" fill="rgba(155,255,204,1)" stroke="rgba(0,0,0,1)" stroke-width="2"/>
<path d="M-170,25.5 L-152,25.5 L-152,50.5 L-170,50.5 Z" fill="rgba(155,255,204,1)" stroke="rgba(0,0,0,1)" stroke-width="2"/>
<path d="M-152,25.5 L-134,25.5 L-134,50.5 L-152,50.5 Z" fill="rgba(155,255,204,1)" stroke="rgba(0,0,0,1)" stroke-width="2"/>
<path d="M-134,25.5 L-116,25.5 L-116,50.5 L-134,50.5 Z" fill="rgba(155,255,204,1)" stroke="rgba(0,0,0,1)" stroke-width="2"/>
<path d="M-105,25.5 L-87,25.5 L-87,50.5 L-105,50.5 Z" fill="rgba(155,223,255,1)" stroke="rgba(0,0,0,1)" stroke-width="2"/>
<path d="M-76,25.5 L-58,25.5 L-58,50.5 L-76,50.5 Z" fill="rgba(155,223,255,1)" stroke="rgba(0,0,0,1)" stroke-width="2"/>
<path d="M-206,69.5 L-188,69.5 L-188,94.5 L-206,94.5 Z" fill="rgba(189,255,155,1)" stroke="rgba(0,0,0,1)" stroke-width="2"/>
<path d="M-188,69.5 L-170,69.5 L-170,94.5 L-188,94.5 Z" fill="rgba(189,255,155,1)" stroke="rgba(0,0,0,1)" stroke-width="2"/>
<path d="M-170,69.5 L-152,69.5 L-152,94.5 L-170,94.5 Z" fill="rgba(189,255,155,1)" stroke="rgba(0,0,0,1)" stroke-width="2"/>
<path d="M-152,69.5 L-134,69.5 L-134,94.5 L-152,94.5 Z" fill="rgba(189,255,155,1)" stroke="rgba(0,0,0,1)" stroke-width="2"/>
<path d="M-123,69.5 L-105,69.5 L-105,94.5 L-123,94.5 Z" fill="rgba(255,155,155,1)" stroke="rgba(0,0,0,1)" stroke-width="2"/>
<path d="M-105,69.5 L-87,69.5 L-87,94.5 L-105,94.5 Z" fill="rgba(255,155,155,1)" stroke="rgba(0,0,0,1)" stroke-width="2"/>
<path d="M-87,69.5 L-69,69.5 L-69,94.5 L-87,94.5 Z" fill="rgba(255,155,155,1)" stroke="rgba(0,0,0,1)" stroke-width="2"/>
<path d="M-206,113.5 L-188,113.5 L-188,138.5 L-206,138.5 Z" fill="rgba(189,255,155,1)" stroke="rgba(0,0,0,1)" stroke-width="2"/>
<path d="M-188,113.5 L-170,113.5 L-170,138.5 L-188,138.5 Z" fill="rgba(189,255,155,1)" stroke="rgba(0,0,0,1)" stroke-width="2"/>
<path d="M-170,113.5 L-152,113.5 L-152,138.5 L-170,138.5 Z" fill="rgba(189,255,155,1)" stroke="rgba(0,0,0,1)" stroke-width="2"/>
<path d="M-152,113.5 L-134,113.5 L-134,138.5 L-152,138.5 Z" fill="rgba(189,255,155,1)" stroke="rgba(0,0,0,1)" stroke-width="2"/>
<path d="M-123,113.5 L-105,113.5 L-105,138.5 L-123,138.5 Z" fill="rgba(255,238,155,1)" stroke="rgba(0,0,0,1)" stroke-width="2"/>
<path d="M-105,113.5 L-87,113.5 L-87,138.5 L-105,138.5 Z" fill="rgba(255,238,155,1)" stroke="rgba(0,0,0,1)" stroke-width="2"/>
<path d="M-76,113.5 L-58,113.5 L-58,138.5 L-76,138.5 Z" fill="rgba(155,223,255,1)" stroke="rgba(0,0,0,1)" stroke-width="2"/>
<path d="M-206,157.5 L-188,157.5 L-188,182.5 L-206,182.5 Z" fill="rgba(189,255,155,1)" stroke="rgba(0,0,0,1)" stroke-width="2"/>
<path d="M-188,157.5 L-170,157.5 L-170,182.5 L-188,182.5 Z" fill="rgba(189,255,155,1)" stroke="rgba(0,0,0,1)" stroke-width="2"/>
<path d="M-170,157.5 L-152,157.5 L-152,182.5 L-170,182.5 Z" fill="rgba(189,255,155,1)" stroke="rgba(0,0,0,1)" stroke-width="2"/>
<path d="M-152,157.5 L-134,157.5 L-134,182.5 L-152,182.5 Z" fill="rgba(189,255,155,1)" stroke="rgba(0,0,0,1)" stroke-width="2"/>
<path d="M-123,157.5 L-105,157.5 L-105,182.5 L-123,182.5 Z" fill="rgba(155,223,255,1)" stroke="rgba(0,0,0,1)" stroke-width="2"/>
<path d="M-94,157.5 L-76,157.5 L-76,182.5 L-94,182.5 Z" fill="rgba(155,223,255,1)" stroke="rgba(0,0,0,1)" stroke-width="2"/>
<path d="M-65,157.5 L-47,157.5 L-47,182.5 L-65,182.5 Z" fill="rgba(155,223,255,1)" stroke="rgba(0,0,0,1)" stroke-width="2"/>
<path d="M-206,201.5 L-188,201.5 L-188,226.5 L-206,226.5 Z" fill="rgba(255,155,155,1)" stroke="rgba(0,0,0,1)" stroke-width="2"/>
<path d="M-188,201.5 L-170,201.5 L-170,226.5 L-188,226.5 Z" fill="rgba(255,155,155,1)" stroke="rgba(0,0,0,1)" stroke-width="2"/>
<path d="M-170,201.5 L-152,201.5 L-152,226.5 L-170,226.5 Z" fill="rgba(255,155,155,1)" stroke="rgba(0,0,0,1)" stroke-width="2"/>
<path d="M-141,201.5 L-123,201.5 L-123,226.5 L-141,226.5 Z" fill="rgba(255,155,155,1)" stroke="rgba(0,0,0,1)" stroke-width="2"/>
<path d="M-123,201.5 L-105,201.5 L-105,226.5 L-123,226.5 Z" fill="rgba(255,155,155,1)" stroke="rgba(0,0,0,1)" stroke-width="2"/>
<path d="M-105,201.5 L-87,201.5 L-87,226.5 L-105,226.5 Z" fill="rgba(255,155,155,1)" stroke="rgba(0,0,0,1)" stroke-width="2"/>
<path d="M-76,201.5 L-58,201.5 L-58,226.5 L-76,226.5 Z" fill="rgba(155,223,255,1)" stroke="rgba(0,0,0,1)" stroke-width="2"/>
<path d="M14,-106.5 L32,-106.5 L32,-81.5 L14,-81.5 Z" fill="rgba(255,155,155,1)" stroke="rgba(0,0,0,1)" stroke-width="2"/>
<path d="M32,-106.5 L50,-106.5 L50,-81.5 L32,-81.5 Z" fill="rgba(255,155,155,1)" stroke="rgba(0,0,0,1)" stroke-width="2"/>
<path d="M50,-106.5 L68,-106.5 L68,-81.5 L50,-81.5 Z" fill="rgba(255,155,155,1)" stroke="rgba(0,0,0,1)" stroke-width="2"/>
<path d="M79,-106.5 L97,-106.5 L97,-81.5 L79,-81.5 Z" fill="rgba(255,238,155,1)" stroke="rgba(0,0,0,1)" stroke-width="2"/>
<path d="M97,-106.5 L115,-106.5 L115,-81.5 L97,-81.5 Z" fill="rgba(255,238,155,1)" stroke="rgba(0,0,0,1)" stroke-width="2"/>
<path d="M126,-106.5 L144,-106.5 L144,-81.5 L126,-81.5 Z" fill="rgba(255,238,155,1)" stroke="rgba(0,0,0,1)" stroke-width="2"/>
<path d="M144,-106.5 L162,-106.5 L162,-81.5 L144,-81.5 Z" fill="rgba(255,238,155,1)" stroke="rgba(0,0,0,1)" stroke-width="2"/>
<path d="M14,-62.5 L32,-62.5 L32,-37.5 L14,-37.5 Z" fill="rgba(255,155,155,1)" stroke="rgba(0,0,0,1)" stroke-width="2"/>
<path d="M32,-62.5 L50,-62.5 L50,-37.5 L32,-37.5 Z" fill="rgba(255,155,155,1)" stroke="rgba(0,0,0,1)" stroke-width="2"/>
<path d="M50,-62.5 L68,-62.5 L68,-37.5 L50,-37.5 Z" fill="rgba(255,155,155,1)" stroke="rgba(0,0,0,1)" stroke-width="2"/>
<path d="M79,-62.5 L97,-62.5 L97,-37.5 L79,-37.5 Z" fill="rgba(255,238,155,1)" stroke="rgba(0,0,0,1)" stroke-width="2"/>
<path d="M97,-62.5 L115,-62.5 L115,-37.5 L97,-37.5 Z" fill="rgba(255,238,155,1)" stroke="rgba(0,0,0,1)" stroke-width="2"/>
<path d="M126,-62.5 L144,-62.5 L144,-37.5 L126,-37.5 Z" fill="rgba(155,223,255,1)" stroke="rgba(0,0,0,1)" stroke-width="2"/>
<path d="M155,-62.5 L173,-62.5 L173,-37.5 L155,-37.5 Z" fill="rgba(155,223,255,1)" stroke="rgba(0,0,0,1)" stroke-width="2"/>
<path d="M14,-18.5 L32,-18.5 L32,6.5 L14,6.5 Z" fill="rgba(255,155,155,1)" stroke="rgba(0,0,0,1)" stroke-width="2"/>
<path d="M32,-18.5 L50,-18.5 L50,6.5 L32,6.5 Z" fill="rgba(255,155,155,1)" stroke="rgba(0,0,0,1)" stroke-width="2"/>
<path d="M50,-18.5 L68,-18.5 L68,6.5 L50,6.5 Z" fill="rgba(255,155,155,1)" stroke="rgba(0,0,0,1)" stroke-width="2"/>
<path d="M79,-18.5 L97,-18.5 L97,6.5 L79,6.5 Z" fill="rgba(155,223,255,1)" stroke="rgba(0,0,0,1)" stroke-width="2"/>
<path d="M108,-18.5 L126,-18.5 L126,6.5 L108,6.5 Z" fill="rgba(155,223,255,1)" stroke="rgba(0,0,0,1)" stroke-width="2"/>
<path d="M137,-18.5 L155,-18.5 L155,6.5 L137,6.5 Z" fill="rgba(155,223,255,1)" stroke="rgba(0,0,0,1)" stroke-width="2"/>
<path d="M166,-18.5 L184,-18.5 L184,6.5 L166,6.5 Z" fill="rgba(155,223,255,1)" stroke="rgba(0,0,0,1)" stroke-width="2"/>
<path d="M14,25.5 L32,25.5 L32,50.5 L14,50.5 Z" fill="rgba(255,238,155,1)" stroke="rgba(0,0,0,1)" stroke-width="2"/>
<path d="M32,25.5 L50,25.5 L50,50.5 L32,50.5 Z" fill="rgba(255,238,155,1)" stroke="rgba(0,0,0,1)" stroke-width="2"/>
<path d="M61,25.5 L79,25.5 L79,50.5 L61,50.5 Z" fill="rgba(255,238,155,1)" stroke="rgba(0,0,0,1)" stroke-width="2"/>
<path d="M79,25.5 L97,25.5 L97,50.5 L79,50.5 Z" fill="rgba(255,238,155,1)" stroke="rgba(0,0,0,1)" stroke-width="2"/>
<path d="M108,25.5 L126,25.5 L126,50.5 L108,50.5 Z" fill="rgba(255,238,155,1)" stroke="rgba(0,0,0,1)" stroke-width="2"/>
<path d="M126,25.5 L144,25.5 L144,50.5 L126,50.5 Z" fill="rgba(255,238,155,1)" stroke="rgba(0,0,0,1)" stroke-width="2"/>
<path d="M155,25.5 L173,25.5 L173,50.5 L155,50.5 Z" fill="rgba(155,223,255,1)" stroke="rgba(0,0,0,1)" stroke-width="2"/>
<path d="M14,69.5 L32,69.5 L32,94.5 L14,94.5 Z" fill="rgba(255,238,155,1)" stroke="rgba(0,0,0,1)" stroke-width="2"/>
<path d="M32,69.5 L50,69.5 L50,94.5 L32,94.5 Z" fill="rgba(255,238,155,1)" stroke="rgba(0,0,0,1)" stroke-width="2"/>
<path d="M61,69.5 L79,69.5 L79,94.5 L61,94.5 Z" fill="rgba(255,238,155,1)" stroke="rgba(0,0,0,1)" stroke-width="2"/>
<path d="M79,69.5 L97,69.5 L97,94.5 L79,94.5 Z" fill="rgba(255,238,155,1)" stroke="rgba(0,0,0,1)" stroke-width="2"/>
<path d="M108,69.5 L126,69.5 L126,94.5 L108,94.5 Z" fill="rgba(155,223,255,1)" stroke="rgba(0,0,0,1)" stroke-width="2"/>
<path d="M137,69.5 L155,69.5 L155,94.5 L137,94.5 Z" fill="rgba(155,223,255,1)" stroke="rgba(0,0,0,1)" stroke-width="2"/>
<path d="M166,69.5 L184,69.5 L184,94.5 L166,94.5 Z" fill="rgba(155,223,255,1)" stroke="rgba(0,0,0,1)" stroke-width="2"/>
<path d="M14,113.5 L32,113.5 L32,138.5 L14,138.5 Z" fill="rgba(255,238,155,1)" stroke="rgba(0,0,0,1)" stroke-width="2"/>
<path d="M32,113.5 L50,113.5 L50,138.5 L32,138.5 Z" fill="rgba(255,238,155,1)" stroke="rgba(0,0,0,1)" stroke-width="2"/>
<path d="M61,113.5 L79,113.5 L79,138.5 L61,138.5 Z" fill="rgba(155,223,255,1)" stroke="rgba(0,0,0,1)" stroke-width="2"/>
<path d="M90,113.5 L108,113.5 L108,138.5 L90,138.5 Z" fill="rgba(155,223,255,1)" stroke="rgba(0,0,0,1)" stroke-width="2"/>
<path d="M119,113.5 L137,113.5 L137,138.5 L119,138.5 Z" fill="rgba(155,223,255,1)" stroke="rgba(0,0,0,1)" stroke-width="2"/>
<path d="M148,113.5 L166,113.5 L166,138.5 L148,138.5 Z" fill="rgba(155,223,255,1)" stroke="rgba(0,0,0,1)" stroke-width="2"/>
<path d="M177,113.5 L195,113.5 L195,138.5 L177,138.5 Z" fill="rgba(155,223,255,1)" stroke="rgba(0,0,0,1)" stroke-width="2"/>
<path d="M14,157.5 L32,157.5 L32,182.5 L14,182.5 Z" fill="rgba(155,223,255,1)" stroke="rgba(0,0,0,1)" stroke-width="2"/>
<path d="M43,157.5 L61,157.5 L61,182.5 L43,182.5 Z" fill="rgba(155,223,255,1)" stroke="rgba(0,0,0,1)" stroke-width="2"/>
<path d="M72,157.5 L90,157.5 L90,182.5 L72,182.5 Z" fill="rgba(155,223,255,1)" stroke="rgba(0,0,0,1)" stroke-width="2"/>
<path d="M101,157.5 L119,157.5 L119,182.5 L101,182.5 Z" fill="rgba(155,223,255,1)" stroke="rgba(0,0,0,1)" stroke-width="2"/>
<path d="M130,157.5 L148,157.5 L148,182.5 L130,182.5 Z" fill="rgba(155,223,255,1)" stroke="rgba(0,0,0,1)" stroke-width="2"/>
<path d="M159,157.5 L177,157.5 L177,182.5 L159,182.5 Z" fill="rgba(155,223,255,1)" stroke="rgba(0,0,0,1)" stroke-width="2"/>
<path d="M188,157.5 L206,157.5 L206,182.5 L188,182.5 Z" fill="rgba(155,223,255,1)" stroke="rgba(0,0,0,1)" stroke-width="2"/>
</svg>