<svg xmlns="http://www.w3.org/2000/svg" viewBox="-273.92 -92.92 547.84 345.84">
<path d="M-225,-40 L225,-40" fill="none" stroke="rgba(0,0,0,1)" stroke-width="1"/>
<path d="M-225,40 L225,40" fill="none" stroke="rgba(0,0,0,1)" stroke-width="1"/>
<path d="M-225,120 L225,120" fill="none" stroke="rgba(0,0,0,1)" stroke-width="1"/>
<path d="M-225,200 L225,200" fill="none" stroke="rgba(0,0,0,1)" stroke-width="1"/>
<path d="M-211.144,-32 L-238.856,-32 L-225,-56 Z" fill="rgba(253,191,104,1)" stroke="rgba(0,0,0,1)" stroke-width="1"/>
<path d="M236.314,-28.686 L213.686,-28.686 L213.686,-51.314 L236.314,-51.314 Z" fill="rgba(255,242,0,1)" stroke="rgba(0,0,0,1)" stroke-width="1"/>
<path d="M-213.686,51.314 L-236.314,51.314 L-236.314,28.686 L-213.686,28.686 Z" fill="rgba(255,242,0,1)" stroke="rgba(0,0,0,1)" stroke-width="1"/>
<path d="M234.405,52.944 L215.595,52.944 L209.783,35.056 L225,24 L240.217,35.056 Z" fill="rgba(0,110,184,1)" stroke="rgba(0,0,0,1)" stroke-width="1"/>
<path d="M-215.595,132.944 L-234.405,132.944 L-240.217,115.056 L-225,104 L-209.783,115.056 Z" fill="rgba(0,110,184,1)" stroke="rgba(0,0,0,1)" stroke-width="1"/>
<path d="M233,133.856 L217,133.856 L209,120 L217,106.144 L233,106.144 L241,120 Z" fill="rgba(30,14,63,1)" stroke="rgba(0,0,0,1)" stroke-width="1"/>
<path d="M-217,213.856 L-233,213.856 L-241,200 L-233,186.144 L-217,186.144 L-209,200 Z" fill="rgba(30,14,63,1)" stroke="rgba(0,0,0,1)" stroke-width="1"/>
<path d="M238.856,208 L211.144,208 L225,184 Z" fill="rgba(253,191,104,1)" stroke="rgba(0,0,0,1)" stroke-width="1"/>
<path d="M-87,-40 C-87,-28.954 -100.431,-20 -117,-20 C-133.569,-20 -147,-28.954 -147,-40 C-147,-51.046 -133.569,-60 -117,-60 C-100.431,-60 -87,-51.046 -87,-40 Z" fill="rgba(254,203,93,1)" stroke="rgba(0,0,0,1)" stroke-width="2"/>
<path d="M-9,40 C-9,51.046 -22.431,60 -39,60 C-55.569,60 -69,51.046 -69,40 C-69,28.954 -55.569,20 -39,20 C-22.431,20 -9,28.954 -9,40 Z" fill="rgba(161,191,139,1)" stroke="rgba(0,0,0,1)" stroke-width="2"/>
<path d="M69,120 C69,131.046 55.569,140 39,140 C22.431,140 9,131.046 9,120 C9,108.954 22.431,100 39,100 C55.569,100 69,108.954 69,120 Z" fill="rgba(36,52,110,1)" stroke="rgba(0,0,0,1)" stroke-width="2"/>
<path d="M147,200 C147,211.046 133.569,220 117,220 C100.431,220 87,211.046 87,200 C87,188.954 100.431,180 117,180 C133.569,180 147,188.954 147,200 Z" fill="rgba(192,146,103,1)" stroke="rgba(0,0,0,1)" stroke-width="2"/>
</svg>