<svg xmlns="http://www.w3.org/2000/svg" viewBox="-328.46 -342.8 656.93 685.6">
<path d="M27.835,116.83 L113.835,-95.17" fill="none" stroke="rgba(0,0,0,1)" stroke-width="1"/>
<path d="M-288.165,189.83 L-63.495,-302.5 L288.165,302.5 L-45.165,143.83" fill="none" stroke="rgba(0,0,0,1)" stroke-width="1"/>
<path d="M16.388,164.769 C16.388,169.187 12.806,172.769 8.388,172.769 C3.97,172.769 0.388,169.187 0.388,164.769 C0.388,160.35 3.97,156.769 8.388,156.769 C12.806,156.769 16.388,160.35 16.388,164.769 Z" fill="rgba(249,0,0,1)"/>
<path d="M61.713,53.037 C61.713,57.456 58.131,61.037 53.713,61.037 C49.295,61.037 45.713,57.456 45.713,53.037 C45.713,48.619 49.295,45.037 53.713,45.037 C58.131,45.037 61.713,48.619 61.713,53.037 Z" fill="rgba(249,0,0,1)"/>
</svg>