<svg xmlns="http://www.w3.org/2000/svg" viewBox="-214.19 -76.52 428.39 196.74">
<path d="M-35.826,16.825 C-35.826,34.683 -42.198,51.955 -53.796,65.534 C-65.393,79.113 -81.456,88.109 -99.094,90.902 C-116.731,93.696 -134.787,90.104 -150.014,80.774 C-165.24,71.443 -176.637,56.985 -182.155,40.002 C-187.674,23.018 -186.951,4.623 -180.117,-11.876 C-173.283,-28.374 -160.787,-41.893 -144.875,-50" fill="rgba(0,0,0,0)" stroke="rgba(0,0,0,1)" stroke-width="3"/>
<text x="-54.344" y="12" text-anchor="start" font-family="Verdana, Helvetica, Arial, sans-serif" font-size="24" fill="rgba(0,0,0,1)" transform="matrix(1.5 0 0 1.5 -65.82620896434875 16.82548931412758)">false</text>
<path d="M187.674,16.825 C187.674,34.683 181.302,51.955 169.704,65.534 C158.107,79.113 142.044,88.109 124.406,90.902 C106.769,93.696 88.713,90.104 73.486,80.774 C58.26,71.443 46.863,56.985 41.345,40.002 C35.826,23.018 36.549,4.623 43.383,-11.876 C50.217,-28.374 62.713,-41.893 78.625,-50 Z" fill="rgba(0,0,0,0)" stroke="rgba(0,0,0,1)" stroke-width="3"/>
<text x="93.324" y="12" text-anchor="start" font-family="Verdana, Helvetica, Arial, sans-serif" font-size="24" fill="rgba(0,0,0,1)" transform="matrix(1.5 0 0 1.5 -65.82620896434875 16.82548931412758)">true</text>
</svg>