<svg xmlns="http://www.w3.org/2000/svg" viewBox="-284 -194 568 488">
<path d="M-250,-160 L250,-160 L250,260 L-250,260 Z" fill="rgba(255,255,255,0)"/>
<path d="M-249.415,-160 L-249.415,258.998" fill="rgba(0,0,0,0)" stroke="rgba(117,156,156,0.6941176470588235)" stroke-width="1"/>
<path d="M-221.703,-160 L-221.703,258.998" fill="rgba(0,0,0,0)" stroke="rgba(117,156,156,0.6941176470588235)" stroke-width="1"/>
<path d="M-193.99,-160 L-193.99,258.998" fill="rgba(0,0,0,0)" stroke="rgba(117,156,156,0.6941176470588235)" stroke-width="1"/>
<path d="M-166.277,-160 L-166.277,258.998" fill="rgba(0,0,0,0)" stroke="rgba(117,156,156,0.6941176470588235)" stroke-width="1"/>
<path d="M-138.564,-160 L-138.564,258.998" fill="rgba(0,0,0,0)" stroke="rgba(117,156,156,0.6941176470588235)" stroke-width="1"/>
<path d="M-110.851,-160 L-110.851,258.998" fill="rgba(0,0,0,0)" stroke="rgba(117,156,156,0.6941176470588235)" stroke-width="1"/>
<path d="M-83.138,-160 L-83.138,258.998" fill="rgba(0,0,0,0)" stroke="rgba(117,156,156,0.6941176470588235)" stroke-width="1"/>
<path d="M-55.426,-160 L-55.426,258.998" fill="rgba(0,0,0,0)" stroke="rgba(117,156,156,0.6941176470588235)" stroke-width="1"/>
<path d="M-27.713,-160 L-27.713,258.998" fill="rgba(0,0,0,0)" stroke="rgba(117,156,156,0.6941176470588235)" stroke-width="1"/>
<path d="M0,-160 L0,258.998" fill="rgba(0,0,0,0)" stroke="rgba(117,156,156,0.6941176470588235)" stroke-width="1"/>
<path d="M27.713,-160 L27.713,258.998" fill="rgba(0,0,0,0)" stroke="rgba(117,156,156,0.6941176470588235)" stroke-width="1"/>
<path d="M55.426,-160 L55.426,258.998" fill="rgba(0,0,0,0)" stroke="rgba(117,156,156,0.6941176470588235)" stroke-width="1"/>
<path d="M83.138,-160 L83.138,258.998" fill="rgba(0,0,0,0)" stroke="rgba(117,156,156,0.6941176470588235)" stroke-width="1"/>
<path d="M110.851,-160 L110.851,258.998" fill="rgba(0,0,0,0)" stroke="rgba(117,156,156,0.6941176470588235)" stroke-width="1"/>
<path d="M138.564,-160 L138.564,258.998" fill="rgba(0,0,0,0)" stroke="rgba(117,156,156,0.6941176470588235)" stroke-width="1"/>
<path d="M166.277,-160 L166.277,258.998" fill="rgba(0,0,0,0)" stroke="rgba(117,156,156,0.6941176470588235)" stroke-width="1"/>
<path d="M193.99,-160 L193.99,258.998" fill="rgba(0,0,0,0)" stroke="rgba(117,156,156,0.6941176470588235)" stroke-width="1"/>
<path d="M221.703,-160 L221.703,258.998" fill="rgba(0,0,0,0)" stroke="rgba(117,156,156,0.6941176470588235)" stroke-width="1"/>
<path d="M249.415,-160 L249.415,258.998" fill="rgba(0,0,0,0)" stroke="rgba(117,156,156,0.6941176470588235)" stroke-width="1"/>
<path d="M-249.563,257.915 L-246.094,259.918" fill="rgba(0,0,0,0)" stroke="rgba(117,156,156,0.6941176470588235)" stroke-width="1"/>
<path d="M-249.574,241.909 L-218.349,259.936" fill="rgba(0,0,0,0)" stroke="rgba(117,156,156,0.6941176470588235)" stroke-width="1"/>
<path d="M-249.584,225.903 L-190.605,259.954" fill="rgba(0,0,0,0)" stroke="rgba(117,156,156,0.6941176470588235)" stroke-width="1"/>
<path d="M-249.595,209.896 L-162.86,259.973" fill="rgba(0,0,0,0)" stroke="rgba(117,156,156,0.6941176470588235)" stroke-width="1"/>
<path d="M-249.605,193.89 L-135.116,259.991" fill="rgba(0,0,0,0)" stroke="rgba(117,156,156,0.6941176470588235)" stroke-width="1"/>
<path d="M-249.616,177.884 L-108.239,259.508" fill="rgba(0,0,0,0)" stroke="rgba(117,156,156,0.6941176470588235)" stroke-width="1"/>
<path d="M-249.626,161.878 L-80.494,259.527" fill="rgba(0,0,0,0)" stroke="rgba(117,156,156,0.6941176470588235)" stroke-width="1"/>
<path d="M-249.637,145.872 L-52.75,259.545" fill="rgba(0,0,0,0)" stroke="rgba(117,156,156,0.6941176470588235)" stroke-width="1"/>
<path d="M-249.647,129.866 L-25.005,259.563" fill="rgba(0,0,0,0)" stroke="rgba(117,156,156,0.6941176470588235)" stroke-width="1"/>
<path d="M-249.658,113.86 L2.739,259.581" fill="rgba(0,0,0,0)" stroke="rgba(117,156,156,0.6941176470588235)" stroke-width="1"/>
<path d="M-249.669,97.854 L30.484,259.6" fill="rgba(0,0,0,0)" stroke="rgba(117,156,156,0.6941176470588235)" stroke-width="1"/>
<path d="M-249.679,81.848 L58.228,259.618" fill="rgba(0,0,0,0)" stroke="rgba(117,156,156,0.6941176470588235)" stroke-width="1"/>
<path d="M-249.69,65.842 L85.973,259.636" fill="rgba(0,0,0,0)" stroke="rgba(117,156,156,0.6941176470588235)" stroke-width="1"/>
<path d="M-249.7,49.835 L113.717,259.655" fill="rgba(0,0,0,0)" stroke="rgba(117,156,156,0.6941176470588235)" stroke-width="1"/>
<path d="M-249.711,33.829 L141.462,259.673" fill="rgba(0,0,0,0)" stroke="rgba(117,156,156,0.6941176470588235)" stroke-width="1"/>
<path d="M-249.721,17.823 L169.206,259.691" fill="rgba(0,0,0,0)" stroke="rgba(117,156,156,0.6941176470588235)" stroke-width="1"/>
<path d="M-249.732,1.817 L196.951,259.709" fill="rgba(0,0,0,0)" stroke="rgba(117,156,156,0.6941176470588235)" stroke-width="1"/>
<path d="M-249.742,-14.189 L224.695,259.728" fill="rgba(0,0,0,0)" stroke="rgba(117,156,156,0.6941176470588235)" stroke-width="1"/>
<path d="M-249.753,-30.195 L249.837,258.244" fill="rgba(0,0,0,0)" stroke="rgba(117,156,156,0.6941176470588235)" stroke-width="1"/>
<path d="M-249.764,-46.201 L249.827,242.238" fill="rgba(0,0,0,0)" stroke="rgba(117,156,156,0.6941176470588235)" stroke-width="1"/>
<path d="M-249.774,-62.207 L249.816,226.232" fill="rgba(0,0,0,0)" stroke="rgba(117,156,156,0.6941176470588235)" stroke-width="1"/>
<path d="M-249.785,-78.213 L249.806,210.225" fill="rgba(0,0,0,0)" stroke="rgba(117,156,156,0.6941176470588235)" stroke-width="1"/>
<path d="M-249.795,-94.219 L249.795,194.219" fill="rgba(0,0,0,0)" stroke="rgba(117,156,156,0.6941176470588235)" stroke-width="1"/>
<path d="M-249.806,-110.225 L249.785,178.213" fill="rgba(0,0,0,0)" stroke="rgba(117,156,156,0.6941176470588235)" stroke-width="1"/>
<path d="M-249.816,-126.232 L249.774,162.207" fill="rgba(0,0,0,0)" stroke="rgba(117,156,156,0.6941176470588235)" stroke-width="1"/>
<path d="M-249.827,-142.238 L249.764,146.201" fill="rgba(0,0,0,0)" stroke="rgba(117,156,156,0.6941176470588235)" stroke-width="1"/>
<path d="M-249.837,-158.244 L249.753,130.195" fill="rgba(0,0,0,0)" stroke="rgba(117,156,156,0.6941176470588235)" stroke-width="1"/>
<path d="M-224.695,-159.728 L249.742,114.189" fill="rgba(0,0,0,0)" stroke="rgba(117,156,156,0.6941176470588235)" stroke-width="1"/>
<path d="M-196.951,-159.709 L249.732,98.183" fill="rgba(0,0,0,0)" stroke="rgba(117,156,156,0.6941176470588235)" stroke-width="1"/>
<path d="M-169.206,-159.691 L249.721,82.177" fill="rgba(0,0,0,0)" stroke="rgba(117,156,156,0.6941176470588235)" stroke-width="1"/>
<path d="M-141.462,-159.673 L249.711,66.171" fill="rgba(0,0,0,0)" stroke="rgba(117,156,156,0.6941176470588235)" stroke-width="1"/>
<path d="M-113.717,-159.655 L249.7,50.165" fill="rgba(0,0,0,0)" stroke="rgba(117,156,156,0.6941176470588235)" stroke-width="1"/>
<path d="M-85.973,-159.636 L249.69,34.158" fill="rgba(0,0,0,0)" stroke="rgba(117,156,156,0.6941176470588235)" stroke-width="1"/>
<path d="M-58.228,-159.618 L249.679,18.152" fill="rgba(0,0,0,0)" stroke="rgba(117,156,156,0.6941176470588235)" stroke-width="1"/>
<path d="M-30.484,-159.6 L249.669,2.146" fill="rgba(0,0,0,0)" stroke="rgba(117,156,156,0.6941176470588235)" stroke-width="1"/>
<path d="M-2.739,-159.581 L249.658,-13.86" fill="rgba(0,0,0,0)" stroke="rgba(117,156,156,0.6941176470588235)" stroke-width="1"/>
<path d="M25.005,-159.563 L249.647,-29.866" fill="rgba(0,0,0,0)" stroke="rgba(117,156,156,0.6941176470588235)" stroke-width="1"/>
<path d="M52.75,-159.545 L249.637,-45.872" fill="rgba(0,0,0,0)" stroke="rgba(117,156,156,0.6941176470588235)" stroke-width="1"/>
<path d="M80.494,-159.527 L249.626,-61.878" fill="rgba(0,0,0,0)" stroke="rgba(117,156,156,0.6941176470588235)" stroke-width="1"/>
<path d="M108.239,-159.508 L249.616,-77.884" fill="rgba(0,0,0,0)" stroke="rgba(117,156,156,0.6941176470588235)" stroke-width="1"/>
<path d="M135.116,-159.991 L249.605,-93.89" fill="rgba(0,0,0,0)" stroke="rgba(117,156,156,0.6941176470588235)" stroke-width="1"/>
<path d="M162.86,-159.973 L249.595,-109.896" fill="rgba(0,0,0,0)" stroke="rgba(117,156,156,0.6941176470588235)" stroke-width="1"/>
<path d="M190.605,-159.954 L249.584,-125.903" fill="rgba(0,0,0,0)" stroke="rgba(117,156,156,0.6941176470588235)" stroke-width="1"/>
<path d="M218.349,-159.936 L249.574,-141.909" fill="rgba(0,0,0,0)" stroke="rgba(117,156,156,0.6941176470588235)" stroke-width="1"/>
<path d="M246.094,-159.918 L249.563,-157.915" fill="rgba(0,0,0,0)" stroke="rgba(117,156,156,0.6941176470588235)" stroke-width="1"/>
<path d="M-246.094,-159.918 L-249.563,-157.915" fill="rgba(0,0,0,0)" stroke="rgba(117,156,156,0.6941176470588235)" stroke-width="1"/>
<path d="M-218.349,-159.936 L-249.574,-141.909" fill="rgba(0,0,0,0)" stroke="rgba(117,156,156,0.6941176470588235)" stroke-width="1"/>
<path d="M-190.605,-159.954 L-249.584,-125.903" fill="rgba(0,0,0,0)" stroke="rgba(117,156,156,0.6941176470588235)" stroke-width="1"/>
<path d="M-162.86,-159.973 L-249.595,-109.896" fill="rgba(0,0,0,0)" stroke="rgba(117,156,156,0.6941176470588235)" stroke-width="1"/>
<path d="M-135.116,-159.991 L-249.605,-93.89" fill="rgba(0,0,0,0)" stroke="rgba(117,156,156,0.6941176470588235)" stroke-width="1"/>
<path d="M-108.239,-159.508 L-249.616,-77.884" fill="rgba(0,0,0,0)" stroke="rgba(117,156,156,0.6941176470588235)" stroke-width="1"/>
<path d="M-80.494,-159.527 L-249.626,-61.878" fill="rgba(0,0,0,0)" stroke="rgba(117,156,156,0.6941176470588235)" stroke-width="1"/>
<path d="M-52.75,-159.545 L-249.637,-45.872" fill="rgba(0,0,0,0)" stroke="rgba(117,156,156,0.6941176470588235)" stroke-width="1"/>
<path d="M-25.005,-159.563 L-249.647,-29.866" fill="rgba(0,0,0,0)" stroke="rgba(117,156,156,0.6941176470588235)" stroke-width="1"/>
<path d="M2.739,-159.581 L-249.658,-13.86" fill="rgba(0,0,0,0)" stroke="rgba(117,156,156,0.6941176470588235)" stroke-width="1"/>
<path d="M30.484,-159.6 L-249.669,2.146" fill="rgba(0,0,0,0)" stroke="rgba(117,156,156,0.6941176470588235)" stroke-width="1"/>
<path d="M58.228,-159.618 L-249.679,18.152" fill="rgba(0,0,0,0)" stroke="rgba(117,156,156,0.6941176470588235)" stroke-width="1"/>
<path d="M85.973,-159.636 L-249.69,34.158" fill="rgba(0,0,0,0)" stroke="rgba(117,156,156,0.6941176470588235)" stroke-width="1"/>
<path d="M113.717,-159.655 L-249.7,50.165" fill="rgba(0,0,0,0)" stroke="rgba(117,156,156,0.6941176470588235)" stroke-width="1"/>
<path d="M141.462,-159.673 L-249.711,66.171" fill="rgba(0,0,0,0)" stroke="rgba(117,156,156,0.6941176470588235)" stroke-width="1"/>
<path d="M169.206,-159.691 L-249.721,82.177" fill="rgba(0,0,0,0)" stroke="rgba(117,156,156,0.6941176470588235)" stroke-width="1"/>
<path d="M196.951,-159.709 L-249.732,98.183" fill="rgba(0,0,0,0)" stroke="rgba(117,156,156,0.6941176470588235)" stroke-width="1"/>
<path d="M224.695,-159.728 L-249.742,114.189" fill="rgba(0,0,0,0)" stroke="rgba(117,156,156,0.6941176470588235)" stroke-width="1"/>
<path d="M249.837,-158.244 L-249.753,130.195" fill="rgba(0,0,0,0)" stroke="rgba(117,156,156,0.6941176470588235)" stroke-width="1"/>
<path d="M249.827,-142.238 L-249.764,146.201" fill="rgba(0,0,0,0)" stroke="rgba(117,156,156,0.6941176470588235)" stroke-width="1"/>
<path d="M249.816,-126.232 L-249.774,162.207" fill="rgba(0,0,0,0)" stroke="rgba(117,156,156,0.6941176470588235)" stroke-width="1"/>
<path d="M249.806,-110.225 L-249.785,178.213" fill="rgba(0,0,0,0)" stroke="rgba(117,156,156,0.6941176470588235)" stroke-width="1"/>
<path d="M249.795,-94.219 L-249.795,194.219" fill="rgba(0,0,0,0)" stroke="rgba(117,156,156,0.6941176470588235)" stroke-width="1"/>
<path d="M249.785,-78.213 L-249.806,210.225" fill="rgba(0,0,0,0)" stroke="rgba(117,156,156,0.6941176470588235)" stroke-width="1"/>
<path d="M249.774,-62.207 L-249.816,226.232" fill="rgba(0,0,0,0)" stroke="rgba(117,156,156,0.6941176470588235)" stroke-width="1"/>
<path d="M249.764,-46.201 L-249.827,242.238" fill="rgba(0,0,0,0)" stroke="rgba(117,156,156,0.6941176470588235)" stroke-width="1"/>
<path d="M249.753,-30.195 L-249.837,258.244" fill="rgba(0,0,0,0)" stroke="rgba(117,156,156,0.6941176470588235)" stroke-width="1"/>
<path d="M249.742,-14.189 L-224.695,259.728" fill="rgba(0,0,0,0)" stroke="rgba(117,156,156,0.6941176470588235)" stroke-width="1"/>
<path d="M249.732,1.817 L-196.951,259.709" fill="rgba(0,0,0,0)" stroke="rgba(117,156,156,0.6941176470588235)" stroke-width="1"/>
<path d="M249.721,17.823 L-169.206,259.691" fill="rgba(0,0,0,0)" stroke="rgba(117,156,156,0.6941176470588235)" stroke-width="1"/>
<path d="M249.711,33.829 L-141.462,259.673" fill="rgba(0,0,0,0)" stroke="rgba(117,156,156,0.6941176470588235)" stroke-width="1"/>
<path d="M249.7,49.835 L-113.717,259.655" fill="rgba(0,0,0,0)" stroke="rgba(117,156,156,0.6941176470588235)" stroke-width="1"/>
<path d="M249.69,65.842 L-85.973,259.636" fill="rgba(0,0,0,0)" stroke="rgba(117,156,156,0.6941176470588235)" stroke-width="1"/>
<path d="M249.679,81.848 L-58.228,259.618" fill="rgba(0,0,0,0)" stroke="rgba(117,156,156,0.6941176470588235)" stroke-width="1"/>
<path d="M249.669,97.854 L-30.484,259.6" fill="rgba(0,0,0,0)" stroke="rgba(117,156,156,0.6941176470588235)" stroke-width="1"/>
<path d="M249.658,113.86 L-2.739,259.581" fill="rgba(0,0,0,0)" stroke="rgba(117,156,156,0.6941176470588235)" stroke-width="1"/>
<path d="M249.647,129.866 L25.005,259.563" fill="rgba(0,0,0,0)" stroke="rgba(117,156,156,0.6941176470588235)" stroke-width="1"/>
<path d="M249.637,145.872 L52.75,259.545" fill="rgba(0,0,0,0)" stroke="rgba(117,156,156,0.6941176470588235)" stroke-width="1"/>
<path d="M249.626,161.878 L80.494,259.527" fill="rgba(0,0,0,0)" stroke="rgba(117,156,156,0.6941176470588235)" stroke-width="1"/>
<path d="M249.616,177.884 L108.239,259.508" fill="rgba(0,0,0,0)" stroke="rgba(117,156,156,0.6941176470588235)" stroke-width="1"/>
<path d="M249.605,193.89 L135.116,259.991" fill="rgba(0,0,0,0)" stroke="rgba(117,156,156,0.6941176470588235)" stroke-width="1"/>
<path d="M249.595,209.896 L162.86,259.973" fill="rgba(0,0,0,0)" stroke="rgba(117,156,156,0.6941176470588235)" stroke-width="1"/>
<path d="M249.584,225.903 L190.605,259.954" fill="rgba(0,0,0,0)" stroke="rgba(117,156,156,0.6941176470588235)" stroke-width="1"/>
<path d="M249.574,241.909 L218.349,259.936" fill="rgba(0,0,0,0)" stroke="rgba(117,156,156,0.6941176470588235)" stroke-width="1"/>
<path d="M249.563,257.915 L246.094,259.918" fill="rgba(0,0,0,0)" stroke="rgba(117,156,156,0.6941176470588235)" stroke-width="1"/>
<path d="M130.708,250 L124.708,256 L118.708,250 L124.708,244 L130.708,250 L-174.133,74 L-174.133,42 L-35.569,122 L-35.569,26 L-7.856,10 L-7.856,138 L102.995,202 L102.995,106 L130.708,90 L130.708,250 Z" fill="rgba(217,212,179,0.7215686274509804)" stroke="rgba(121,121,121,1)" stroke-width="1"/>
<path d="M-174.133,42 L-180.133,48 L-186.133,42 L-180.133,36 L-174.133,42 L130.708,-134 L158.42,-118 L19.856,-38 L102.995,10 L102.995,42 L-7.856,-22 L-118.708,42 L-35.569,90 L-35.569,122 L-174.133,42 Z" fill="rgba(192,188,159,0.7215686274509804)" stroke="rgba(121,121,121,1)" stroke-width="1"/>
<path d="M-118.708,42 L-124.708,48 L-130.708,42 L-124.708,36 L-118.708,42 L-7.856,-22 L-7.856,10 L-90.995,58 L-118.708,42 Z" fill="rgba(161,158,133,0.7215686274509804)" stroke="rgba(121,121,121,1)" stroke-width="1"/>
<path d="M-7.856,-22 L-13.856,-16 L-19.856,-22 L-13.856,-28 L-7.856,-22 L102.995,42 L75.282,58 L-7.856,10 L-7.856,-22" fill="rgba(177,173,146,0.7215686274509804)" stroke="rgba(121,121,121,1)" stroke-width="1"/>
<path d="M19.856,-38 L13.856,-32 L7.856,-38 L13.856,-44 L19.856,-38 L158.42,-118 L158.42,234 L130.708,250 L130.708,90 L47.569,138 L19.856,122 L130.708,58 L130.708,-70 L47.569,-22 L19.856,-38 Z" fill="rgba(128,125,105,0.7215686274509804)" stroke="rgba(121,121,121,1)" stroke-width="1"/>
<path d="M102.995,-54 L96.995,-48 L90.995,-54 L96.995,-60 L102.995,-54 L130.708,-70 L130.708,58 L19.856,122 L19.856,90 L102.995,42 L102.995,-54 Z" fill="rgba(222,217,182,0.7215686274509804)" stroke="rgba(121,121,121,1)" stroke-width="1"/>
<path d="M19.856,122 L13.856,128 L7.856,122 L13.856,116 L19.856,122 L102.995,170 L102.995,202 L-7.856,138 L19.856,122 Z" fill="rgba(229,223,187,0.7215686274509804)" stroke="rgba(121,121,121,1)" stroke-width="1"/>
<path d="M19.856,122 L13.856,128 L7.856,122 L13.856,116 L19.856,122 L-7.856,138 L-7.856,10 L19.856,26 L19.856,122 Z" fill="rgba(156,153,129,0.7215686274509804)" stroke="rgba(121,121,121,1)" stroke-width="1"/>
</svg>