<svg xmlns="http://www.w3.org/2000/svg" viewBox="-390.57 -319.03 781.15 3368.6">
<path d="M-179.046,-135 L179.046,-135 L179.046,-15 L-179.046,-15 Z" fill="rgba(0,0,0,0)" stroke="rgba(0,0,0,1)" stroke-width="3"/>
<path d="M-179.046,25 L179.046,25 L179.046,55 L-179.046,55 Z" fill="rgba(246,246,246,1)"/>
<path d="M-179.046,95 L179.046,95 L179.046,125 L-179.046,125 Z" fill="rgba(255,255,255,1)"/>
<path d="M-179.046,165 L179.046,165 L179.046,195 L-179.046,195 Z" fill="rgba(243,246,250,1)"/>
<path d="M-179.046,235 L179.046,235 L179.046,265 L-179.046,265 Z" fill="rgba(255,255,255,1)"/>
<text x="0" y="0" text-anchor="start" font-family="Verdana-Bold, Helvetica, Arial, sans-serif" font-size="12" fill="rgba(0,0,0,1)" transform="matrix(1.5 0 0 1.5 -149.046 317.96)">Index</text>
<text x="0" y="0" text-anchor="start" font-family="Verdana, Helvetica, Arial, sans-serif" font-size="12" fill="rgba(0,0,0,1)" transform="matrix(1.5 0 0 1.5 -149.046 374.34)">0</text>
<text x="0" y="0" text-anchor="start" font-family="Verdana, Helvetica, Arial, sans-serif" font-size="12" fill="rgba(0,0,0,1)" transform="matrix(1.5 0 0 1.5 -149.046 430.71999999999997)">1</text>
<text x="0" y="0" text-anchor="start" font-family="Verdana, Helvetica, Arial, sans-serif" font-size="12" fill="rgba(0,0,0,1)" transform="matrix(1.5 0 0 1.5 -149.046 487.1)">2</text>
<text x="0" y="0" text-anchor="start" font-family="Verdana-Bold, Helvetica, Arial, sans-serif" font-size="12" fill="rgba(0,0,0,1)" transform="matrix(1.5 0 0 1.5 -45.01799999999998 543.48)">fruit</text>
<text x="0" y="0" text-anchor="start" font-family="Verdana, Helvetica, Arial, sans-serif" font-size="12" fill="rgba(0,0,0,1)" transform="matrix(1.5 0 0 1.5 -45.01799999999998 599.86)">apple</text>
<text x="0" y="0" text-anchor="start" font-family="Verdana, Helvetica, Arial, sans-serif" font-size="12" fill="rgba(0,0,0,1)" transform="matrix(1.5 0 0 1.5 -45.01799999999998 656.24)">banana</text>
<text x="0" y="0" text-anchor="start" font-family="Verdana, Helvetica, Arial, sans-serif" font-size="12" fill="rgba(0,0,0,1)" transform="matrix(1.5 0 0 1.5 -45.01799999999998 712.62)">cucumber</text>
<text x="-13.001999999999999" y="0" text-anchor="start" font-family="Verdana-Bold, Helvetica, Arial, sans-serif" font-size="12" fill="rgba(0,0,0,1)" transform="matrix(1.5 0 0 1.5 124.02599999999998 769)">price</text>
<text x="-30.023999999999997" y="0" text-anchor="start" font-family="Verdana, Helvetica, Arial, sans-serif" font-size="12" fill="rgba(0,0,0,1)" transform="matrix(1.5 0 0 1.5 149.046 825.38)">11.45</text>
<text x="-13.344000000000001" y="0" text-anchor="start" font-family="Verdana, Helvetica, Arial, sans-serif" font-size="12" fill="rgba(0,0,0,1)" transform="matrix(1.5 0 0 1.5 124.02599999999998 881.76)">20</text>
<text x="-36.696" y="0" text-anchor="start" font-family="Verdana, Helvetica, Arial, sans-serif" font-size="12" fill="rgba(0,0,0,1)" transform="matrix(1.5 0 0 1.5 149.046 938.14)">105.12</text>
<path d="M-206.541,981.56 L206.541,981.56 L206.541,1191.56 L-206.541,1191.56 Z" fill="rgba(0,0,0,0)" stroke="rgba(0,0,0,1)" stroke-width="3"/>
<path d="M-206.541,1231.56 L206.541,1231.56 L206.541,1261.56 L-206.541,1261.56 Z" fill="rgba(246,246,246,1)"/>
<path d="M-206.541,1301.56 L206.541,1301.56 L206.541,1331.56 L-206.541,1331.56 Z" fill="rgba(255,255,255,1)"/>
<path d="M-206.541,1371.56 L206.541,1371.56 L206.541,1401.56 L-206.541,1401.56 Z" fill="rgba(243,246,250,1)"/>
<path d="M-206.541,1441.56 L206.541,1441.56 L206.541,1471.56 L-206.541,1471.56 Z" fill="rgba(255,255,255,1)"/>
<path d="M-206.541,1511.56 L206.541,1511.56 L206.541,1541.56 L-206.541,1541.56 Z" fill="rgba(243,246,250,1)"/>
<path d="M-206.541,1581.56 L206.541,1581.56 L206.541,1611.56 L-206.541,1611.56 Z" fill="rgba(255,255,255,1)"/>
<path d="M-206.541,1651.56 L206.541,1651.56 L206.541,1681.56 L-206.541,1681.56 Z" fill="rgba(243,246,250,1)"/>
<text x="0" y="0" text-anchor="start" font-family="Verdana-Bold, Helvetica, Arial, sans-serif" font-size="12" fill="rgba(0,0,0,1)" transform="matrix(1.5 0 0 1.5 -176.541 1734.52)">key</text>
<text x="0" y="0" text-anchor="start" font-family="Verdana, Helvetica, Arial, sans-serif" font-size="12" fill="rgba(0,0,0,1)" transform="matrix(1.5 0 0 1.5 -176.541 1790.9)">fruit</text>
<text x="0" y="0" text-anchor="start" font-family="Verdana, Helvetica, Arial, sans-serif" font-size="12" fill="rgba(0,0,0,1)" transform="matrix(1.5 0 0 1.5 -176.541 1847.2800000000002)">fruit</text>
<text x="0" y="0" text-anchor="start" font-family="Verdana, Helvetica, Arial, sans-serif" font-size="12" fill="rgba(0,0,0,1)" transform="matrix(1.5 0 0 1.5 -176.541 1903.6600000000003)">fruit</text>
<text x="0" y="0" text-anchor="start" font-family="Verdana, Helvetica, Arial, sans-serif" font-size="12" fill="rgba(0,0,0,1)" transform="matrix(1.5 0 0 1.5 -176.541 1960.0400000000004)">price</text>
<text x="0" y="0" text-anchor="start" font-family="Verdana, Helvetica, Arial, sans-serif" font-size="12" fill="rgba(0,0,0,1)" transform="matrix(1.5 0 0 1.5 -176.541 2016.4200000000005)">price</text>
<text x="0" y="0" text-anchor="start" font-family="Verdana, Helvetica, Arial, sans-serif" font-size="12" fill="rgba(0,0,0,1)" transform="matrix(1.5 0 0 1.5 -176.541 2072.8000000000006)">price</text>
<text x="0" y="0" text-anchor="start" font-family="Verdana-Bold, Helvetica, Arial, sans-serif" font-size="12" fill="rgba(0,0,0,1)" transform="matrix(1.5 0 0 1.5 -77.535 2129.1800000000007)">value</text>
<text x="0" y="0" text-anchor="start" font-family="Verdana, Helvetica, Arial, sans-serif" font-size="12" fill="rgba(0,0,0,1)" transform="matrix(1.5 0 0 1.5 -77.535 2185.560000000001)">apple</text>
<text x="0" y="0" text-anchor="start" font-family="Verdana, Helvetica, Arial, sans-serif" font-size="12" fill="rgba(0,0,0,1)" transform="matrix(1.5 0 0 1.5 -77.535 2241.940000000001)">banana</text>
<text x="0" y="0" text-anchor="start" font-family="Verdana, Helvetica, Arial, sans-serif" font-size="12" fill="rgba(0,0,0,1)" transform="matrix(1.5 0 0 1.5 -77.535 2298.320000000001)">cucumber</text>
<text x="0" y="0" text-anchor="start" font-family="Verdana, Helvetica, Arial, sans-serif" font-size="12" fill="rgba(0,0,0,1)" transform="matrix(1.5 0 0 1.5 -77.535 2354.700000000001)">11.45</text>
<text x="0" y="0" text-anchor="start" font-family="Verdana, Helvetica, Arial, sans-serif" font-size="12" fill="rgba(0,0,0,1)" transform="matrix(1.5 0 0 1.5 -77.535 2411.0800000000013)">20</text>
<text x="0" y="0" text-anchor="start" font-family="Verdana, Helvetica, Arial, sans-serif" font-size="12" fill="rgba(0,0,0,1)" transform="matrix(1.5 0 0 1.5 -77.535 2467.4600000000014)">105.12</text>
<text x="0" y="0" text-anchor="start" font-family="Verdana-Bold, Helvetica, Arial, sans-serif" font-size="12" fill="rgba(0,0,0,1)" transform="matrix(1.5 0 0 1.5 61.48499999999997 2523.8400000000015)">class</text>
<text x="0" y="0" text-anchor="start" font-family="Verdana, Helvetica, Arial, sans-serif" font-size="12" fill="rgba(0,0,0,1)" transform="matrix(1.5 0 0 1.5 61.48499999999997 2580.2200000000016)">[object Object]</text>
<text x="0" y="0" text-anchor="start" font-family="Verdana, Helvetica, Arial, sans-serif" font-size="12" fill="rgba(0,0,0,1)" transform="matrix(1.5 0 0 1.5 61.48499999999997 2636.6000000000017)">[object Object]</text>
<text x="0" y="0" text-anchor="start" font-family="Verdana, Helvetica, Arial, sans-serif" font-size="12" fill="rgba(0,0,0,1)" transform="matrix(1.5 0 0 1.5 61.48499999999997 2692.980000000002)">[object Object]</text>
<text x="0" y="0" text-anchor="start" font-family="Verdana, Helvetica, Arial, sans-serif" font-size="12" fill="rgba(0,0,0,1)" transform="matrix(1.5 0 0 1.5 61.48499999999997 2749.360000000002)">[object Object]</text>
<text x="0" y="0" text-anchor="start" font-family="Verdana, Helvetica, Arial, sans-serif" font-size="12" fill="rgba(0,0,0,1)" transform="matrix(1.5 0 0 1.5 61.48499999999997 2805.740000000002)">[object Object]</text>
<text x="0" y="0" text-anchor="start" font-family="Verdana, Helvetica, Arial, sans-serif" font-size="12" fill="rgba(0,0,0,1)" transform="matrix(1.5 0 0 1.5 61.48499999999997 2862.120000000002)">[object Object]</text>
</svg>