<svg xmlns="http://www.w3.org/2000/svg" viewBox="-357.34 -160.58 717.83 466.66">
<path d="M0,0 L0,0" fill="none" stroke="rgba(0,0,0,1)" stroke-width="1"/>
<path d="M0,0 L0,0" fill="none" stroke="rgba(0,0,0,1)" stroke-width="1"/>
<path d="M0,0 L0,0" fill="none" stroke="rgba(0,0,0,1)" stroke-width="1"/>
<path d="M0,0 L0,0" fill="none" stroke="rgba(0,0,0,1)" stroke-width="1"/>
<path d="M0,0 L0,0" fill="none" stroke="rgba(0,0,0,1)" stroke-width="1"/>
<path d="M0,0 L0,0" fill="none" stroke="rgba(0,0,0,1)" stroke-width="1"/>
<path d="M0,0 L0,0" fill="none" stroke="rgba(0,0,0,1)" stroke-width="1"/>
<path d="M0,0 L0,0" fill="none" stroke="rgba(0,0,0,1)" stroke-width="1"/>
<path d="M0,0 L0,0" fill="none" stroke="rgba(0,0,0,1)" stroke-width="1"/>
<path d="M0,0 L0,0" fill="none" stroke="rgba(0,0,0,1)" stroke-width="1"/>
<path d="M0,0 L0,0" fill="none" stroke="rgba(0,0,0,1)" stroke-width="1"/>
<path d="M309.946,165.2 C309.946,195.763 265.35,220.538 210.337,220.538 C155.325,220.538 110.728,195.763 110.728,165.2 C110.728,134.637 155.325,109.862 210.337,109.862 C265.35,109.862 309.946,134.637 309.946,165.2 Z" fill="rgba(0,147,165,1)" stroke="rgba(0,0,0,1)" stroke-width="3.3203039251889273"/>
<text x="-26.0645" y="0" text-anchor="start" font-family="Verdana-Bold, Helvetica, Arial, sans-serif" font-size="7" fill="rgba(255,239,174,1)" transform="matrix(1 0 0 1 210.3372424794361 167.05500760443508)">The Slithy Toves</text>
<path d="M187.929,87.63 C187.929,118.193 143.332,142.969 88.32,142.969 C33.307,142.969 -11.289,118.193 -11.289,87.63 C-11.289,57.068 33.307,32.292 88.32,32.292 C143.332,32.292 187.929,57.068 187.929,87.63 Z" fill="rgba(0,147,165,1)" stroke="rgba(0,0,0,1)" stroke-width="3.3203039251889273"/>
<text x="-16.145500000000002" y="0" text-anchor="start" font-family="Verdana-Bold, Helvetica, Arial, sans-serif" font-size="7" fill="rgba(255,239,174,1)" transform="matrix(1 0 0 1 88.31966414116323 89.48540575664491)">The Wabe</text>
<path d="M-116.094,171.422 C-116.094,201.984 -160.69,226.76 -215.703,226.76 C-270.715,226.76 -315.312,201.984 -315.312,171.422 C-315.312,140.859 -270.715,116.083 -215.703,116.083 C-160.69,116.083 -116.094,140.859 -116.094,171.422 Z" fill="rgba(0,147,165,1)" stroke="rgba(0,0,0,1)" stroke-width="3.3203039251889273"/>
<text x="-24.899" y="0" text-anchor="start" font-family="Verdana-Bold, Helvetica, Arial, sans-serif" font-size="7" fill="rgba(255,239,174,1)" transform="matrix(1 0 0 1 -215.70279400795698 173.27653753899037)">The Borogroves</text>
<path d="M249.032,-63.212 C249.032,-32.65 204.436,-7.874 149.423,-7.874 C94.411,-7.874 49.814,-32.65 49.814,-63.212 C49.814,-93.775 94.411,-118.551 149.423,-118.551 C204.436,-118.551 249.032,-93.775 249.032,-63.212 Z" fill="rgba(0,147,165,1)" stroke="rgba(0,0,0,1)" stroke-width="3.3203039251889273"/>
<text x="-26.8415" y="0" text-anchor="start" font-family="Verdana-Bold, Helvetica, Arial, sans-serif" font-size="7" fill="rgba(255,239,174,1)" transform="matrix(1 0 0 1 149.4231501314789 -61.35743819314987)">The Mome Raths</text>
<path d="M303.116,82.106 C303.116,112.669 258.52,137.445 203.507,137.445 C148.495,137.445 103.898,112.669 103.898,82.106 C103.898,51.544 148.495,26.768 203.507,26.768 C258.52,26.768 303.116,51.544 303.116,82.106 Z" fill="rgba(0,147,165,1)" stroke="rgba(0,0,0,1)" stroke-width="3.3203039251889273"/>
<text x="-25.676000000000002" y="0" text-anchor="start" font-family="Verdana-Bold, Helvetica, Arial, sans-serif" font-size="7" fill="rgba(255,239,174,1)" transform="matrix(1 0 0 1 203.5070978058502 83.96133014328778)">The Jabberwock</text>
<path d="M318.468,145.39 C318.468,175.953 273.872,200.729 218.859,200.729 C163.847,200.729 119.25,175.953 119.25,145.39 C119.25,114.828 163.847,90.052 218.859,90.052 C273.872,90.052 318.468,114.828 318.468,145.39 Z" fill="rgba(0,147,165,1)" stroke="rgba(0,0,0,1)" stroke-width="3.3203039251889273"/>
<text x="-24.5105" y="0" text-anchor="start" font-family="Verdana-Bold, Helvetica, Arial, sans-serif" font-size="7" fill="rgba(255,239,174,1)" transform="matrix(1 0 0 1 218.85910166427493 147.24534980349242)">The Jubjub Bird</text>
<path d="M297.366,174.065 C297.366,204.627 252.769,229.403 197.757,229.403 C142.744,229.403 98.148,204.627 98.148,174.065 C98.148,143.502 142.744,118.726 197.757,118.726 C252.769,118.726 297.366,143.502 297.366,174.065 Z" fill="rgba(0,147,165,1)" stroke="rgba(0,0,0,1)" stroke-width="3.3203039251889273"/>
<text x="-44.156" y="0" text-anchor="start" font-family="Verdana-Bold, Helvetica, Arial, sans-serif" font-size="7" fill="rgba(255,239,174,1)" transform="matrix(1 0 0 1 197.75662514846772 175.9198797387257)">The Frumious Bandersnatch</text>
<path d="M-93.969,97.148 C-93.969,127.711 -138.566,152.487 -193.579,152.487 C-248.591,152.487 -293.188,127.711 -293.188,97.148 C-293.188,66.586 -248.591,41.81 -193.579,41.81 C-138.566,41.81 -93.969,66.586 -93.969,97.148 Z" fill="rgba(0,147,165,1)" stroke="rgba(0,0,0,1)" stroke-width="3.3203039251889273"/>
<text x="-29.372" y="0" text-anchor="start" font-family="Verdana-Bold, Helvetica, Arial, sans-serif" font-size="7" fill="rgba(255,239,174,1)" transform="matrix(1 0 0 1 -193.57860645279288 99.0033714086935)">The Manxome Foe</text>
<path d="M149.612,80.533 C149.612,111.096 105.015,135.872 50.003,135.872 C-5.01,135.872 -49.606,111.096 -49.606,80.533 C-49.606,49.971 -5.01,25.195 50.003,25.195 C105.015,25.195 149.612,49.971 149.612,80.533 Z" fill="rgba(0,147,165,1)" stroke="rgba(0,0,0,1)" stroke-width="3.3203039251889273"/>
<text x="-28.007" y="0" text-anchor="start" font-family="Verdana-Bold, Helvetica, Arial, sans-serif" font-size="7" fill="rgba(255,239,174,1)" transform="matrix(1 0 0 1 50.002684369683266 82.38849087946117)">The Tumtum Tree</text>
<path d="M293.593,208.721 C293.593,239.283 248.996,264.059 193.983,264.059 C138.971,264.059 94.374,239.283 94.374,208.721 C94.374,178.158 138.971,153.382 193.983,153.382 C248.996,153.382 293.593,178.158 293.593,208.721 Z" fill="rgba(0,147,165,1)" stroke="rgba(0,0,0,1)" stroke-width="3.3203039251889273"/>
<text x="-27.622" y="0" text-anchor="start" font-family="Verdana-Bold, Helvetica, Arial, sans-serif" font-size="7" fill="rgba(255,239,174,1)" transform="matrix(1 0 0 1 193.9834207482636 210.57559524059295)">The Tulgey Wood</text>
<path d="M-104.166,169.012 C-104.166,199.575 -148.762,224.35 -203.775,224.35 C-258.787,224.35 -303.384,199.575 -303.384,169.012 C-303.384,138.449 -258.787,113.674 -203.775,113.674 C-148.762,113.674 -104.166,138.449 -104.166,169.012 Z" fill="rgba(0,147,165,1)" stroke="rgba(0,0,0,1)" stroke-width="3.3203039251889273"/>
<text x="-27.041" y="0" text-anchor="start" font-family="Verdana-Bold, Helvetica, Arial, sans-serif" font-size="7" fill="rgba(255,239,174,1)" transform="matrix(1 0 0 1 -203.7748895632103 170.86694964535533)">The Vorpal Blade</text>
</svg>