<svg xmlns="http://www.w3.org/2000/svg" viewBox="-219.04 -169.04 438.08 438.08">
<path d="M67.882,-113.882 L72,-112.177 L72,-103.941 Z" fill="rgba(92,42,228,1)" stroke="rgba(0,0,0,1)" stroke-width="1"/>
<path d="M96,-94 L96,-102.235 L72,-112.177 L72,-103.941 L76.118,-94 Z" fill="rgba(11,8,38,1)" stroke="rgba(0,0,0,1)" stroke-width="1"/>
<path d="M115.882,-94 L96,-102.235 L96,-94 Z" fill="rgba(47,49,202,1)" stroke="rgba(0,0,0,1)" stroke-width="1"/>
<path d="M96,-70 L96,-94 L76.118,-94 L86.059,-70 Z" fill="rgba(105,72,173,1)" stroke="rgba(0,0,0,1)" stroke-width="1"/>
<path d="M120,-70 L120,-92.294 L115.882,-94 L96,-94 L96,-70 Z" fill="rgba(145,55,60,1)" stroke="rgba(0,0,0,1)" stroke-width="1"/>
<path d="M142.294,-70 L135.765,-85.765 L120,-92.294 L120,-70 Z" fill="rgba(67,63,113,1)" stroke="rgba(0,0,0,1)" stroke-width="1"/>
<path d="M86.059,-70 L96,-70 L96,-46 Z" fill="rgba(117,44,24,1)" stroke="rgba(0,0,0,1)" stroke-width="1"/>
<path d="M120,-46 L120,-70 L96,-70 L96,-46 Z" fill="rgba(128,105,12,1)" stroke="rgba(0,0,0,1)" stroke-width="1"/>
<path d="M144,-46 L144,-65.882 L142.294,-70 L120,-70 L120,-46 Z" fill="rgba(9,137,3,1)" stroke="rgba(0,0,0,1)" stroke-width="1"/>
<path d="M152.235,-46 L144,-65.882 L144,-46 Z" fill="rgba(101,67,109,1)" stroke="rgba(0,0,0,1)" stroke-width="1"/>
<path d="M86.059,-22 L96,-46 L96,-22 Z" fill="rgba(85,57,233,1)" stroke="rgba(0,0,0,1)" stroke-width="1"/>
<path d="M120,-22 L120,-46 L96,-46 L96,-22 Z" fill="rgba(125,87,100,1)" stroke="rgba(0,0,0,1)" stroke-width="1"/>
<path d="M144,-22 L144,-46 L120,-46 L120,-22 Z" fill="rgba(130,68,58,1)" stroke="rgba(0,0,0,1)" stroke-width="1"/>
<path d="M162.177,-22 L152.235,-46 L144,-46 L144,-22 Z" fill="rgba(132,31,148,1)" stroke="rgba(0,0,0,1)" stroke-width="1"/>
<path d="M76.118,2 L86.059,-22 L96,-22 L96,2 Z" fill="rgba(16,32,15,1)" stroke="rgba(0,0,0,1)" stroke-width="1"/>
<path d="M120,2 L120,-22 L96,-22 L96,2 Z" fill="rgba(108,104,79,1)" stroke="rgba(0,0,0,1)" stroke-width="1"/>
<path d="M144,2 L144,-22 L120,-22 L120,2 Z" fill="rgba(168,25,89,1)" stroke="rgba(0,0,0,1)" stroke-width="1"/>
<path d="M168,2 L168,-7.941 L162.177,-22 L144,-22 L144,2 Z" fill="rgba(77,88,199,1)" stroke="rgba(0,0,0,1)" stroke-width="1"/>
<path d="M172.118,2 L168,-7.941 L168,2 Z" fill="rgba(62,21,19,1)" stroke="rgba(0,0,0,1)" stroke-width="1"/>
<path d="M57.941,26 L67.882,21.882 L72,11.941 L72,26 Z" fill="rgba(175,35,72,1)" stroke="rgba(0,0,0,1)" stroke-width="1"/>
<path d="M96,26 L96,2 L76.118,2 L72,11.941 L72,26 Z" fill="rgba(32,32,37,1)" stroke="rgba(0,0,0,1)" stroke-width="1"/>
<path d="M120,26 L120,2 L96,2 L96,26 Z" fill="rgba(118,24,196,1)" stroke="rgba(0,0,0,1)" stroke-width="1"/>
<path d="M144,26 L144,2 L120,2 L120,26 Z" fill="rgba(126,96,33,1)" stroke="rgba(0,0,0,1)" stroke-width="1"/>
<path d="M168,26 L168,2 L144,2 L144,26 Z" fill="rgba(66,19,213,1)" stroke="rgba(0,0,0,1)" stroke-width="1"/>
<path d="M182.059,26 L172.118,2 L168,2 L168,26 Z" fill="rgba(19,66,253,1)" stroke="rgba(0,0,0,1)" stroke-width="1"/>
<path d="M0,50 L24,40.059 L24,50 Z" fill="rgba(84,36,23,1)" stroke="rgba(0,0,0,1)" stroke-width="1"/>
<path d="M48,50 L48,30.118 L24,40.059 L24,50 Z" fill="rgba(49,9,250,1)" stroke="rgba(0,0,0,1)" stroke-width="1"/>
<path d="M72,50 L72,26 L57.941,26 L48,30.118 L48,50 Z" fill="rgba(22,76,219,1)" stroke="rgba(0,0,0,1)" stroke-width="1"/>
<path d="M96,50 L96,26 L72,26 L72,50 Z" fill="rgba(77,13,211,1)" stroke="rgba(0,0,0,1)" stroke-width="1"/>
<path d="M120,50 L120,26 L96,26 L96,50 Z" fill="rgba(2,38,190,1)" stroke="rgba(0,0,0,1)" stroke-width="1"/>
<path d="M144,50 L144,26 L120,26 L120,50 Z" fill="rgba(81,79,167,1)" stroke="rgba(0,0,0,1)" stroke-width="1"/>
<path d="M168,50 L168,26 L144,26 L144,50 Z" fill="rgba(128,28,5,1)" stroke="rgba(0,0,0,1)" stroke-width="1"/>
<path d="M192,50 L182.059,26 L168,26 L168,50 Z" fill="rgba(74,5,137,1)" stroke="rgba(0,0,0,1)" stroke-width="1"/>
<path d="M-57.941,74 L-48,69.882 L-48,74 Z" fill="rgba(34,39,135,1)" stroke="rgba(0,0,0,1)" stroke-width="1"/>
<path d="M-24,74 L-24,59.941 L-48,69.882 L-48,74 Z" fill="rgba(83,78,189,1)" stroke="rgba(0,0,0,1)" stroke-width="1"/>
<path d="M0,74 L0,50 L-24,59.941 L-24,74 Z" fill="rgba(76,98,12,1)" stroke="rgba(0,0,0,1)" stroke-width="1"/>
<path d="M24,74 L24,50 L0,50 L0,74 Z" fill="rgba(4,5,118,1)" stroke="rgba(0,0,0,1)" stroke-width="1"/>
<path d="M48,74 L48,50 L24,50 L24,74 Z" fill="rgba(7,12,118,1)" stroke="rgba(0,0,0,1)" stroke-width="1"/>
<path d="M72,74 L72,50 L48,50 L48,74 Z" fill="rgba(28,116,26,1)" stroke="rgba(0,0,0,1)" stroke-width="1"/>
<path d="M96,74 L96,50 L72,50 L72,74 Z" fill="rgba(125,76,82,1)" stroke="rgba(0,0,0,1)" stroke-width="1"/>
<path d="M120,74 L120,50 L96,50 L96,74 Z" fill="rgba(32,120,22,1)" stroke="rgba(0,0,0,1)" stroke-width="1"/>
<path d="M144,74 L144,50 L120,50 L120,74 Z" fill="rgba(87,55,87,1)" stroke="rgba(0,0,0,1)" stroke-width="1"/>
<path d="M168,74 L168,50 L144,50 L144,74 Z" fill="rgba(121,8,148,1)" stroke="rgba(0,0,0,1)" stroke-width="1"/>
<path d="M192,50 L168,50 L168,74 L182.059,74 Z" fill="rgba(64,63,212,1)" stroke="rgba(0,0,0,1)" stroke-width="1"/>
<path d="M-76.118,98 L-72,88.059 L-72,98 Z" fill="rgba(126,30,34,1)" stroke="rgba(0,0,0,1)" stroke-width="1"/>
<path d="M-48,98 L-48,74 L-57.941,74 L-67.882,78.118 L-72,88.059 L-72,98 Z" fill="rgba(131,16,125,1)" stroke="rgba(0,0,0,1)" stroke-width="1"/>
<path d="M-24,98 L-24,74 L-48,74 L-48,98 Z" fill="rgba(179,3,76,1)" stroke="rgba(0,0,0,1)" stroke-width="1"/>
<path d="M0,98 L0,74 L-24,74 L-24,98 Z" fill="rgba(81,17,139,1)" stroke="rgba(0,0,0,1)" stroke-width="1"/>
<path d="M24,98 L24,74 L0,74 L0,98 Z" fill="rgba(120,62,39,1)" stroke="rgba(0,0,0,1)" stroke-width="1"/>
<path d="M48,98 L48,74 L24,74 L24,98 Z" fill="rgba(96,121,12,1)" stroke="rgba(0,0,0,1)" stroke-width="1"/>
<path d="M72,98 L72,74 L48,74 L48,98 Z" fill="rgba(49,70,77,1)" stroke="rgba(0,0,0,1)" stroke-width="1"/>
<path d="M96,98 L96,74 L72,74 L72,98 Z" fill="rgba(16,56,237,1)" stroke="rgba(0,0,0,1)" stroke-width="1"/>
<path d="M120,98 L120,74 L96,74 L96,98 Z" fill="rgba(130,71,61,1)" stroke="rgba(0,0,0,1)" stroke-width="1"/>
<path d="M144,98 L144,74 L120,74 L120,98 Z" fill="rgba(76,54,162,1)" stroke="rgba(0,0,0,1)" stroke-width="1"/>
<path d="M168,98 L168,74 L144,74 L144,98 Z" fill="rgba(25,34,213,1)" stroke="rgba(0,0,0,1)" stroke-width="1"/>
<path d="M182.059,74 L168,74 L168,98 L172.118,98 Z" fill="rgba(17,89,82,1)" stroke="rgba(0,0,0,1)" stroke-width="1"/>
<path d="M-86.059,122 L-76.118,98 L-72,98 L-72,122 Z" fill="rgba(123,14,208,1)" stroke="rgba(0,0,0,1)" stroke-width="1"/>
<path d="M-48,122 L-48,98 L-72,98 L-72,122 Z" fill="rgba(162,6,63,1)" stroke="rgba(0,0,0,1)" stroke-width="1"/>
<path d="M-24,122 L-24,98 L-48,98 L-48,122 Z" fill="rgba(139,29,31,1)" stroke="rgba(0,0,0,1)" stroke-width="1"/>
<path d="M0,122 L0,98 L-24,98 L-24,122 Z" fill="rgba(9,114,146,1)" stroke="rgba(0,0,0,1)" stroke-width="1"/>
<path d="M24,122 L24,98 L0,98 L0,122 Z" fill="rgba(84,92,132,1)" stroke="rgba(0,0,0,1)" stroke-width="1"/>
<path d="M48,122 L48,98 L24,98 L24,122 Z" fill="rgba(145,70,104,1)" stroke="rgba(0,0,0,1)" stroke-width="1"/>
<path d="M72,122 L72,98 L48,98 L48,122 Z" fill="rgba(68,32,30,1)" stroke="rgba(0,0,0,1)" stroke-width="1"/>
<path d="M96,122 L96,98 L72,98 L72,122 Z" fill="rgba(104,93,103,1)" stroke="rgba(0,0,0,1)" stroke-width="1"/>
<path d="M120,122 L120,98 L96,98 L96,122 Z" fill="rgba(165,60,73,1)" stroke="rgba(0,0,0,1)" stroke-width="1"/>
<path d="M144,122 L144,98 L120,98 L120,122 Z" fill="rgba(13,78,105,1)" stroke="rgba(0,0,0,1)" stroke-width="1"/>
<path d="M168,107.941 L168,98 L144,98 L144,122 L162.177,122 Z" fill="rgba(157,41,126,1)" stroke="rgba(0,0,0,1)" stroke-width="1"/>
<path d="M172.118,98 L168,98 L168,107.941 Z" fill="rgba(43,115,143,1)" stroke="rgba(0,0,0,1)" stroke-width="1"/>
<path d="M-96,146 L-86.059,122 L-72,122 L-72,146 Z" fill="rgba(94,76,165,1)" stroke="rgba(0,0,0,1)" stroke-width="1"/>
<path d="M-48,146 L-48,122 L-72,122 L-72,146 Z" fill="rgba(76,23,251,1)" stroke="rgba(0,0,0,1)" stroke-width="1"/>
<path d="M-24,146 L-24,122 L-48,122 L-48,146 Z" fill="rgba(127,83,83,1)" stroke="rgba(0,0,0,1)" stroke-width="1"/>
<path d="M0,146 L0,122 L-24,122 L-24,146 Z" fill="rgba(79,77,60,1)" stroke="rgba(0,0,0,1)" stroke-width="1"/>
<path d="M24,146 L24,122 L0,122 L0,146 Z" fill="rgba(18,76,237,1)" stroke="rgba(0,0,0,1)" stroke-width="1"/>
<path d="M48,146 L48,122 L24,122 L24,146 Z" fill="rgba(154,4,177,1)" stroke="rgba(0,0,0,1)" stroke-width="1"/>
<path d="M72,146 L72,122 L48,122 L48,146 Z" fill="rgba(31,15,128,1)" stroke="rgba(0,0,0,1)" stroke-width="1"/>
<path d="M96,146 L96,122 L72,122 L72,146 Z" fill="rgba(125,18,224,1)" stroke="rgba(0,0,0,1)" stroke-width="1"/>
<path d="M120,146 L120,122 L96,122 L96,146 Z" fill="rgba(127,72,75,1)" stroke="rgba(0,0,0,1)" stroke-width="1"/>
<path d="M144,146 L144,122 L120,122 L120,146 Z" fill="rgba(21,92,207,1)" stroke="rgba(0,0,0,1)" stroke-width="1"/>
<path d="M162.177,122 L144,122 L144,146 L152.235,146 Z" fill="rgba(115,52,187,1)" stroke="rgba(0,0,0,1)" stroke-width="1"/>
<path d="M-72,170 L-72,146 L-96,146 L-86.059,170 Z" fill="rgba(161,23,153,1)" stroke="rgba(0,0,0,1)" stroke-width="1"/>
<path d="M-48,170 L-48,146 L-72,146 L-72,170 Z" fill="rgba(112,48,204,1)" stroke="rgba(0,0,0,1)" stroke-width="1"/>
<path d="M-24,170 L-24,146 L-48,146 L-48,170 Z" fill="rgba(89,90,29,1)" stroke="rgba(0,0,0,1)" stroke-width="1"/>
<path d="M0,170 L0,146 L-24,146 L-24,170 Z" fill="rgba(135,28,3,1)" stroke="rgba(0,0,0,1)" stroke-width="1"/>
<path d="M24,170 L24,146 L0,146 L0,170 Z" fill="rgba(97,108,84,1)" stroke="rgba(0,0,0,1)" stroke-width="1"/>
<path d="M48,170 L48,146 L24,146 L24,170 Z" fill="rgba(57,36,114,1)" stroke="rgba(0,0,0,1)" stroke-width="1"/>
<path d="M72,170 L72,146 L48,146 L48,170 Z" fill="rgba(179,13,83,1)" stroke="rgba(0,0,0,1)" stroke-width="1"/>
<path d="M96,170 L96,146 L72,146 L72,170 Z" fill="rgba(59,6,221,1)" stroke="rgba(0,0,0,1)" stroke-width="1"/>
<path d="M120,170 L120,146 L96,146 L96,170 Z" fill="rgba(61,14,68,1)" stroke="rgba(0,0,0,1)" stroke-width="1"/>
<path d="M144,165.882 L144,146 L120,146 L120,170 L142.294,170 Z" fill="rgba(1,136,32,1)" stroke="rgba(0,0,0,1)" stroke-width="1"/>
<path d="M152.235,146 L144,146 L144,165.882 Z" fill="rgba(109,38,71,1)" stroke="rgba(0,0,0,1)" stroke-width="1"/>
<path d="M-72,194 L-72,170 L-86.059,170 L-76.118,194 Z" fill="rgba(169,64,7,1)" stroke="rgba(0,0,0,1)" stroke-width="1"/>
<path d="M-48,194 L-48,170 L-72,170 L-72,194 Z" fill="rgba(1,43,117,1)" stroke="rgba(0,0,0,1)" stroke-width="1"/>
<path d="M-24,194 L-24,170 L-48,170 L-48,194 Z" fill="rgba(26,98,2,1)" stroke="rgba(0,0,0,1)" stroke-width="1"/>
<path d="M0,194 L0,170 L-24,170 L-24,194 Z" fill="rgba(28,24,40,1)" stroke="rgba(0,0,0,1)" stroke-width="1"/>
<path d="M24,194 L24,170 L0,170 L0,194 Z" fill="rgba(68,6,65,1)" stroke="rgba(0,0,0,1)" stroke-width="1"/>
<path d="M48,194 L48,170 L24,170 L24,194 Z" fill="rgba(29,41,246,1)" stroke="rgba(0,0,0,1)" stroke-width="1"/>
<path d="M72,194 L72,170 L48,170 L48,194 Z" fill="rgba(8,76,61,1)" stroke="rgba(0,0,0,1)" stroke-width="1"/>
<path d="M96,194 L96,170 L72,170 L72,194 Z" fill="rgba(79,13,174,1)" stroke="rgba(0,0,0,1)" stroke-width="1"/>
<path d="M120,192.294 L120,170 L96,170 L96,194 L115.882,194 Z" fill="rgba(135,37,16,1)" stroke="rgba(0,0,0,1)" stroke-width="1"/>
<path d="M142.294,170 L120,170 L120,192.294 L135.765,185.765 Z" fill="rgba(49,87,47,1)" stroke="rgba(0,0,0,1)" stroke-width="1"/>
<path d="M-76.118,194 L-72,194 L-72,203.941 Z" fill="rgba(129,85,133,1)" stroke="rgba(0,0,0,1)" stroke-width="1"/>
<path d="M-48,218 L-48,194 L-72,194 L-72,203.941 L-67.882,213.882 L-57.941,218 Z" fill="rgba(53,25,197,1)" stroke="rgba(0,0,0,1)" stroke-width="1"/>
<path d="M-24,218 L-24,194 L-48,194 L-48,218 Z" fill="rgba(11,62,200,1)" stroke="rgba(0,0,0,1)" stroke-width="1"/>
<path d="M0,218 L0,194 L-24,194 L-24,218 Z" fill="rgba(65,0,52,1)" stroke="rgba(0,0,0,1)" stroke-width="1"/>
<path d="M24,218 L24,194 L0,194 L0,218 Z" fill="rgba(125,70,105,1)" stroke="rgba(0,0,0,1)" stroke-width="1"/>
<path d="M48,218 L48,194 L24,194 L24,218 Z" fill="rgba(5,86,78,1)" stroke="rgba(0,0,0,1)" stroke-width="1"/>
<path d="M72,212.177 L72,194 L48,194 L48,218 L57.941,218 Z" fill="rgba(27,46,120,1)" stroke="rgba(0,0,0,1)" stroke-width="1"/>
<path d="M96,202.235 L96,194 L72,194 L72,212.177 Z" fill="rgba(103,87,160,1)" stroke="rgba(0,0,0,1)" stroke-width="1"/>
<path d="M115.882,194 L96,194 L96,202.235 Z" fill="rgba(149,21,110,1)" stroke="rgba(0,0,0,1)" stroke-width="1"/>
<path d="M-57.941,218 L-48,218 L-48,222.118 Z" fill="rgba(186,0,6,1)" stroke="rgba(0,0,0,1)" stroke-width="1"/>
<path d="M-24,232.059 L-24,218 L-48,218 L-48,222.118 Z" fill="rgba(13,106,20,1)" stroke="rgba(0,0,0,1)" stroke-width="1"/>
<path d="M0,242 L0,218 L-24,218 L-24,232.059 Z" fill="rgba(102,73,200,1)" stroke="rgba(0,0,0,1)" stroke-width="1"/>
<path d="M24,232.059 L24,218 L0,218 L0,242 Z" fill="rgba(34,117,80,1)" stroke="rgba(0,0,0,1)" stroke-width="1"/>
<path d="M48,222.118 L48,218 L24,218 L24,232.059 Z" fill="rgba(97,50,53,1)" stroke="rgba(0,0,0,1)" stroke-width="1"/>
<path d="M57.941,218 L48,218 L48,222.118 Z" fill="rgba(161,24,150,1)" stroke="rgba(0,0,0,1)" stroke-width="1"/>
<path d="M-67.882,213.882 L-72,212.177 L-72,203.941 Z" fill="rgba(234,184,251,1)" stroke="rgba(255,255,255,1)" stroke-width="1"/>
<path d="M-96,194 L-96,202.235 L-72,212.177 L-72,203.941 L-76.118,194 Z" fill="rgba(70,254,38,1)" stroke="rgba(255,255,255,1)" stroke-width="1"/>
<path d="M-115.882,194 L-96,202.235 L-96,194 Z" fill="rgba(237,188,202,1)" stroke="rgba(255,255,255,1)" stroke-width="1"/>
<path d="M-96,170 L-96,194 L-76.118,194 L-86.059,170 Z" fill="rgba(172,248,173,1)" stroke="rgba(255,255,255,1)" stroke-width="1"/>
<path d="M-120,170 L-120,192.294 L-115.882,194 L-96,194 L-96,170 Z" fill="rgba(198,241,78,1)" stroke="rgba(255,255,255,1)" stroke-width="1"/>
<path d="M-142.294,170 L-135.765,185.765 L-120,192.294 L-120,170 Z" fill="rgba(92,251,113,1)" stroke="rgba(255,255,255,1)" stroke-width="1"/>
<path d="M-86.059,170 L-96,170 L-96,146 Z" fill="rgba(160,227,167,1)" stroke="rgba(255,255,255,1)" stroke-width="1"/>
<path d="M-120,146 L-120,170 L-96,170 L-96,146 Z" fill="rgba(175,255,84,1)" stroke="rgba(255,255,255,1)" stroke-width="1"/>
<path d="M-144,146 L-144,165.882 L-142.294,170 L-120,170 L-120,146 Z" fill="rgba(120,255,28,1)" stroke="rgba(255,255,255,1)" stroke-width="1"/>
<path d="M-152.235,146 L-144,165.882 L-144,146 Z" fill="rgba(232,220,109,1)" stroke="rgba(255,255,255,1)" stroke-width="1"/>
<path d="M-86.059,122 L-96,146 L-96,122 Z" fill="rgba(235,221,233,1)" stroke="rgba(255,255,255,1)" stroke-width="1"/>
<path d="M-120,122 L-120,146 L-96,146 L-96,122 Z" fill="rgba(249,217,109,1)" stroke="rgba(255,255,255,1)" stroke-width="1"/>
<path d="M-144,122 L-144,146 L-120,146 L-120,122 Z" fill="rgba(178,246,68,1)" stroke="rgba(255,255,255,1)" stroke-width="1"/>
<path d="M-162.177,122 L-152.235,146 L-144,146 L-144,122 Z" fill="rgba(203,228,148,1)" stroke="rgba(255,255,255,1)" stroke-width="1"/>
<path d="M-76.118,98 L-86.059,122 L-96,122 L-96,98 Z" fill="rgba(22,255,100,1)" stroke="rgba(255,255,255,1)" stroke-width="1"/>
<path d="M-120,98 L-120,122 L-96,122 L-96,98 Z" fill="rgba(167,253,79,1)" stroke="rgba(255,255,255,1)" stroke-width="1"/>
<path d="M-144,98 L-144,122 L-120,122 L-120,98 Z" fill="rgba(254,198,89,1)" stroke="rgba(255,255,255,1)" stroke-width="1"/>
<path d="M-168,98 L-168,107.941 L-162.177,122 L-144,122 L-144,98 Z" fill="rgba(137,254,199,1)" stroke="rgba(255,255,255,1)" stroke-width="1"/>
<path d="M-172.118,98 L-168,107.941 L-168,98 Z" fill="rgba(126,246,19,1)" stroke="rgba(255,255,255,1)" stroke-width="1"/>
<path d="M-57.941,74 L-67.882,78.118 L-72,88.059 L-72,74 Z" fill="rgba(254,178,233,1)" stroke="rgba(255,255,255,1)" stroke-width="1"/>
<path d="M-96,74 L-96,98 L-76.118,98 L-72,88.059 L-72,74 Z" fill="rgba(92,252,37,1)" stroke="rgba(255,255,255,1)" stroke-width="1"/>
<path d="M-120,74 L-120,98 L-96,98 L-96,74 Z" fill="rgba(247,170,249,1)" stroke="rgba(255,255,255,1)" stroke-width="1"/>
<path d="M-144,74 L-144,98 L-120,98 L-120,74 Z" fill="rgba(172,250,74,1)" stroke="rgba(255,255,255,1)" stroke-width="1"/>
<path d="M-168,74 L-168,98 L-144,98 L-144,74 Z" fill="rgba(245,166,253,1)" stroke="rgba(255,255,255,1)" stroke-width="1"/>
<path d="M-182.059,74 L-172.118,98 L-168,98 L-168,74 Z" fill="rgba(71,244,253,1)" stroke="rgba(255,255,255,1)" stroke-width="1"/>
<path d="M0,50 L-24,59.941 L-24,50 Z" fill="rgba(236,179,218,1)" stroke="rgba(255,255,255,1)" stroke-width="1"/>
<path d="M-48,50 L-48,69.882 L-24,59.941 L-24,50 Z" fill="rgba(67,235,250,1)" stroke="rgba(255,255,255,1)" stroke-width="1"/>
<path d="M-72,50 L-72,74 L-57.941,74 L-48,69.882 L-48,50 Z" fill="rgba(199,209,223,1)" stroke="rgba(255,255,255,1)" stroke-width="1"/>
<path d="M-96,50 L-96,74 L-72,74 L-72,50 Z" fill="rgba(248,162,253,1)" stroke="rgba(255,255,255,1)" stroke-width="1"/>
<path d="M-120,50 L-120,74 L-96,74 L-96,50 Z" fill="rgba(231,181,223,1)" stroke="rgba(255,255,255,1)" stroke-width="1"/>
<path d="M-144,50 L-144,74 L-120,74 L-120,50 Z" fill="rgba(111,243,224,1)" stroke="rgba(255,255,255,1)" stroke-width="1"/>
<path d="M-168,50 L-168,74 L-144,74 L-144,50 Z" fill="rgba(194,231,5,1)" stroke="rgba(255,255,255,1)" stroke-width="1"/>
<path d="M-192,50 L-182.059,74 L-168,74 L-168,50 Z" fill="rgba(253,183,137,1)" stroke="rgba(255,255,255,1)" stroke-width="1"/>
<path d="M57.941,26 L48,30.118 L48,26 Z" fill="rgba(51,252,135,1)" stroke="rgba(255,255,255,1)" stroke-width="1"/>
<path d="M24,26 L24,40.059 L48,30.118 L48,26 Z" fill="rgba(114,243,237,1)" stroke="rgba(255,255,255,1)" stroke-width="1"/>
<path d="M0,26 L0,50 L24,40.059 L24,26 Z" fill="rgba(185,226,74,1)" stroke="rgba(255,255,255,1)" stroke-width="1"/>
<path d="M-24,26 L-24,50 L0,50 L0,26 Z" fill="rgba(253,155,249,1)" stroke="rgba(255,255,255,1)" stroke-width="1"/>
<path d="M-48,26 L-48,50 L-24,50 L-24,26 Z" fill="rgba(246,160,255,1)" stroke="rgba(255,255,255,1)" stroke-width="1"/>
<path d="M-72,26 L-72,50 L-48,50 L-48,26 Z" fill="rgba(64,239,219,1)" stroke="rgba(255,255,255,1)" stroke-width="1"/>
<path d="M-96,26 L-96,50 L-72,50 L-72,26 Z" fill="rgba(187,247,82,1)" stroke="rgba(255,255,255,1)" stroke-width="1"/>
<path d="M-120,26 L-120,50 L-96,50 L-96,26 Z" fill="rgba(94,255,22,1)" stroke="rgba(255,255,255,1)" stroke-width="1"/>
<path d="M-144,26 L-144,50 L-120,50 L-120,26 Z" fill="rgba(225,193,207,1)" stroke="rgba(255,255,255,1)" stroke-width="1"/>
<path d="M-168,26 L-168,50 L-144,50 L-144,26 Z" fill="rgba(187,221,148,1)" stroke="rgba(255,255,255,1)" stroke-width="1"/>
<path d="M-192,50 L-168,50 L-168,26 L-182.059,26 Z" fill="rgba(209,222,212,1)" stroke="rgba(255,255,255,1)" stroke-width="1"/>
<path d="M76.118,2 L72,11.941 L72,2 Z" fill="rgba(254,174,181,1)" stroke="rgba(255,255,255,1)" stroke-width="1"/>
<path d="M48,2 L48,26 L57.941,26 L67.882,21.882 L72,11.941 L72,2 Z" fill="rgba(251,164,244,1)" stroke="rgba(255,255,255,1)" stroke-width="1"/>
<path d="M24,2 L24,26 L48,26 L48,2 Z" fill="rgba(245,180,203,1)" stroke="rgba(255,255,255,1)" stroke-width="1"/>
<path d="M0,2 L0,26 L24,26 L24,2 Z" fill="rgba(247,164,247,1)" stroke="rgba(255,255,255,1)" stroke-width="1"/>
<path d="M-24,2 L-24,26 L0,26 L0,2 Z" fill="rgba(164,246,43,1)" stroke="rgba(255,255,255,1)" stroke-width="1"/>
<path d="M-48,2 L-48,26 L-24,26 L-24,2 Z" fill="rgba(132,255,101,1)" stroke="rgba(255,255,255,1)" stroke-width="1"/>
<path d="M-72,2 L-72,26 L-48,26 L-48,2 Z" fill="rgba(67,243,205,1)" stroke="rgba(255,255,255,1)" stroke-width="1"/>
<path d="M-96,2 L-96,26 L-72,26 L-72,2 Z" fill="rgba(36,249,237,1)" stroke="rgba(255,255,255,1)" stroke-width="1"/>
<path d="M-120,2 L-120,26 L-96,26 L-96,2 Z" fill="rgba(177,238,91,1)" stroke="rgba(255,255,255,1)" stroke-width="1"/>
<path d="M-144,2 L-144,26 L-120,26 L-120,2 Z" fill="rgba(121,246,162,1)" stroke="rgba(255,255,255,1)" stroke-width="1"/>
<path d="M-168,2 L-168,26 L-144,26 L-144,2 Z" fill="rgba(34,239,251,1)" stroke="rgba(255,255,255,1)" stroke-width="1"/>
<path d="M-182.059,26 L-168,26 L-168,2 L-172.118,2 Z" fill="rgba(23,248,202,1)" stroke="rgba(255,255,255,1)" stroke-width="1"/>
<path d="M86.059,-22 L76.118,2 L72,2 L72,-22 Z" fill="rgba(168,223,231,1)" stroke="rgba(255,255,255,1)" stroke-width="1"/>
<path d="M48,-22 L48,2 L72,2 L72,-22 Z" fill="rgba(255,190,63,1)" stroke="rgba(255,255,255,1)" stroke-width="1"/>
<path d="M24,-22 L24,2 L48,2 L48,-22 Z" fill="rgba(206,229,31,1)" stroke="rgba(255,255,255,1)" stroke-width="1"/>
<path d="M0,-22 L0,2 L24,2 L24,-22 Z" fill="rgba(65,250,146,1)" stroke="rgba(255,255,255,1)" stroke-width="1"/>
<path d="M-24,-22 L-24,2 L0,2 L0,-22 Z" fill="rgba(199,221,182,1)" stroke="rgba(255,255,255,1)" stroke-width="1"/>
<path d="M-48,-22 L-48,2 L-24,2 L-24,-22 Z" fill="rgba(198,249,136,1)" stroke="rgba(255,255,255,1)" stroke-width="1"/>
<path d="M-72,-22 L-72,2 L-48,2 L-48,-22 Z" fill="rgba(93,234,225,1)" stroke="rgba(255,255,255,1)" stroke-width="1"/>
<path d="M-96,-22 L-96,2 L-72,2 L-72,-22 Z" fill="rgba(149,252,103,1)" stroke="rgba(255,255,255,1)" stroke-width="1"/>
<path d="M-120,-22 L-120,2 L-96,2 L-96,-22 Z" fill="rgba(226,240,156,1)" stroke="rgba(255,255,255,1)" stroke-width="1"/>
<path d="M-144,-22 L-144,2 L-120,2 L-120,-22 Z" fill="rgba(19,255,105,1)" stroke="rgba(255,255,255,1)" stroke-width="1"/>
<path d="M-168,-7.941 L-168,2 L-144,2 L-144,-22 L-162.177,-22 Z" fill="rgba(215,219,210,1)" stroke="rgba(255,255,255,1)" stroke-width="1"/>
<path d="M-172.118,2 L-168,2 L-168,-7.941 Z" fill="rgba(152,250,143,1)" stroke="rgba(255,255,255,1)" stroke-width="1"/>
<path d="M96,-46 L86.059,-22 L72,-22 L72,-46 Z" fill="rgba(229,227,165,1)" stroke="rgba(255,255,255,1)" stroke-width="1"/>
<path d="M48,-46 L48,-22 L72,-22 L72,-46 Z" fill="rgba(190,218,251,1)" stroke="rgba(255,255,255,1)" stroke-width="1"/>
<path d="M24,-46 L24,-22 L48,-22 L48,-46 Z" fill="rgba(243,229,83,1)" stroke="rgba(255,255,255,1)" stroke-width="1"/>
<path d="M0,-46 L0,-22 L24,-22 L24,-46 Z" fill="rgba(108,243,168,1)" stroke="rgba(255,255,255,1)" stroke-width="1"/>
<path d="M-24,-46 L-24,-22 L0,-22 L0,-46 Z" fill="rgba(59,244,237,1)" stroke="rgba(255,255,255,1)" stroke-width="1"/>
<path d="M-48,-46 L-48,-22 L-24,-22 L-24,-46 Z" fill="rgba(211,229,255,1)" stroke="rgba(255,255,255,1)" stroke-width="1"/>
<path d="M-72,-46 L-72,-22 L-48,-22 L-48,-46 Z" fill="rgba(245,190,128,1)" stroke="rgba(255,255,255,1)" stroke-width="1"/>
<path d="M-96,-46 L-96,-22 L-72,-22 L-72,-46 Z" fill="rgba(171,249,252,1)" stroke="rgba(255,255,255,1)" stroke-width="1"/>
<path d="M-120,-46 L-120,-22 L-96,-22 L-96,-46 Z" fill="rgba(235,206,111,1)" stroke="rgba(255,255,255,1)" stroke-width="1"/>
<path d="M-144,-46 L-144,-22 L-120,-22 L-120,-46 Z" fill="rgba(140,221,253,1)" stroke="rgba(255,255,255,1)" stroke-width="1"/>
<path d="M-162.177,-22 L-144,-22 L-144,-46 L-152.235,-46 Z" fill="rgba(157,231,238,1)" stroke="rgba(255,255,255,1)" stroke-width="1"/>
<path d="M72,-70 L72,-46 L96,-46 L86.059,-70 Z" fill="rgba(221,229,245,1)" stroke="rgba(255,255,255,1)" stroke-width="1"/>
<path d="M48,-70 L48,-46 L72,-46 L72,-70 Z" fill="rgba(247,208,204,1)" stroke="rgba(255,255,255,1)" stroke-width="1"/>
<path d="M24,-70 L24,-46 L48,-46 L48,-70 Z" fill="rgba(121,246,67,1)" stroke="rgba(255,255,255,1)" stroke-width="1"/>
<path d="M0,-70 L0,-46 L24,-46 L24,-70 Z" fill="rgba(185,234,3,1)" stroke="rgba(255,255,255,1)" stroke-width="1"/>
<path d="M-24,-70 L-24,-46 L0,-46 L0,-70 Z" fill="rgba(151,254,84,1)" stroke="rgba(255,255,255,1)" stroke-width="1"/>
<path d="M-48,-70 L-48,-46 L-24,-46 L-24,-70 Z" fill="rgba(235,203,114,1)" stroke="rgba(255,255,255,1)" stroke-width="1"/>
<path d="M-72,-70 L-72,-46 L-48,-46 L-48,-70 Z" fill="rgba(253,213,83,1)" stroke="rgba(255,255,255,1)" stroke-width="1"/>
<path d="M-96,-70 L-96,-46 L-72,-46 L-72,-70 Z" fill="rgba(80,230,254,1)" stroke="rgba(255,255,255,1)" stroke-width="1"/>
<path d="M-120,-70 L-120,-46 L-96,-46 L-96,-70 Z" fill="rgba(253,162,231,1)" stroke="rgba(255,255,255,1)" stroke-width="1"/>
<path d="M-144,-65.882 L-144,-46 L-120,-46 L-120,-70 L-142.294,-70 Z" fill="rgba(1,255,204,1)" stroke="rgba(255,255,255,1)" stroke-width="1"/>
<path d="M-152.235,-46 L-144,-46 L-144,-65.882 Z" fill="rgba(240,181,213,1)" stroke="rgba(255,255,255,1)" stroke-width="1"/>
<path d="M72,-94 L72,-70 L86.059,-70 L76.118,-94 Z" fill="rgba(231,248,16,1)" stroke="rgba(255,255,255,1)" stroke-width="1"/>
<path d="M48,-94 L48,-70 L72,-70 L72,-94 Z" fill="rgba(2,251,168,1)" stroke="rgba(255,255,255,1)" stroke-width="1"/>
<path d="M24,-94 L24,-70 L48,-70 L48,-94 Z" fill="rgba(88,254,2,1)" stroke="rgba(255,255,255,1)" stroke-width="1"/>
<path d="M0,-94 L0,-70 L24,-70 L24,-94 Z" fill="rgba(86,252,40,1)" stroke="rgba(255,255,255,1)" stroke-width="1"/>
<path d="M-24,-94 L-24,-70 L0,-70 L0,-94 Z" fill="rgba(254,156,246,1)" stroke="rgba(255,255,255,1)" stroke-width="1"/>
<path d="M-48,-94 L-48,-70 L-24,-70 L-24,-94 Z" fill="rgba(69,244,246,1)" stroke="rgba(255,255,255,1)" stroke-width="1"/>
<path d="M-72,-94 L-72,-70 L-48,-70 L-48,-94 Z" fill="rgba(189,225,61,1)" stroke="rgba(255,255,255,1)" stroke-width="1"/>
<path d="M-96,-94 L-96,-70 L-72,-70 L-72,-94 Z" fill="rgba(249,183,174,1)" stroke="rgba(255,255,255,1)" stroke-width="1"/>
<path d="M-120,-92.294 L-120,-70 L-96,-70 L-96,-94 L-115.882,-94 Z" fill="rgba(185,219,149,1)" stroke="rgba(255,255,255,1)" stroke-width="1"/>
<path d="M-142.294,-70 L-120,-70 L-120,-92.294 L-135.765,-85.765 Z" fill="rgba(221,217,52,1)" stroke="rgba(255,255,255,1)" stroke-width="1"/>
<path d="M76.118,-94 L72,-94 L72,-103.941 Z" fill="rgba(252,231,133,1)" stroke="rgba(255,255,255,1)" stroke-width="1"/>
<path d="M48,-118 L48,-94 L72,-94 L72,-103.941 L67.882,-113.882 L57.941,-118 Z" fill="rgba(237,189,197,1)" stroke="rgba(255,255,255,1)" stroke-width="1"/>
<path d="M24,-118 L24,-94 L48,-94 L48,-118 Z" fill="rgba(21,251,200,1)" stroke="rgba(255,255,255,1)" stroke-width="1"/>
<path d="M0,-118 L0,-94 L24,-94 L24,-118 Z" fill="rgba(124,244,52,1)" stroke="rgba(255,255,255,1)" stroke-width="1"/>
<path d="M-24,-118 L-24,-94 L0,-94 L0,-118 Z" fill="rgba(249,204,105,1)" stroke="rgba(255,255,255,1)" stroke-width="1"/>
<path d="M-48,-118 L-48,-94 L-24,-94 L-24,-118 Z" fill="rgba(7,254,144,1)" stroke="rgba(255,255,255,1)" stroke-width="1"/>
<path d="M-72,-112.177 L-72,-94 L-48,-94 L-48,-118 L-57.941,-118 Z" fill="rgba(244,186,157,1)" stroke="rgba(255,255,255,1)" stroke-width="1"/>
<path d="M-96,-102.235 L-96,-94 L-72,-94 L-72,-112.177 Z" fill="rgba(246,217,174,1)" stroke="rgba(255,255,255,1)" stroke-width="1"/>
<path d="M-115.882,-94 L-96,-94 L-96,-102.235 Z" fill="rgba(251,167,238,1)" stroke="rgba(255,255,255,1)" stroke-width="1"/>
<path d="M57.941,-118 L48,-118 L48,-122.118 Z" fill="rgba(255,187,87,1)" stroke="rgba(255,255,255,1)" stroke-width="1"/>
<path d="M24,-132.059 L24,-118 L48,-118 L48,-122.118 Z" fill="rgba(78,232,245,1)" stroke="rgba(255,255,255,1)" stroke-width="1"/>
<path d="M0,-142 L0,-118 L24,-118 L24,-132.059 Z" fill="rgba(251,206,201,1)" stroke="rgba(255,255,255,1)" stroke-width="1"/>
<path d="M-24,-132.059 L-24,-118 L0,-118 L0,-142 Z" fill="rgba(77,255,80,1)" stroke="rgba(255,255,255,1)" stroke-width="1"/>
<path d="M-48,-122.118 L-48,-118 L-24,-118 L-24,-132.059 Z" fill="rgba(232,189,197,1)" stroke="rgba(255,255,255,1)" stroke-width="1"/>
<path d="M-57.941,-118 L-48,-118 L-48,-122.118 Z" fill="rgba(255,193,150,1)" stroke="rgba(255,255,255,1)" stroke-width="1"/>
<path d="M-24,146 L-23.876,143.546 L-23.512,141.163 L-22.921,138.863 L-22.114,136.658 L-21.103,134.56 L-19.901,132.581 L-18.52,130.734 L-16.971,129.029 L-15.266,127.48 L-13.419,126.099 L-11.44,124.897 L-9.342,123.886 L-7.137,123.079 L-4.837,122.488 L-2.454,122.124 L0,122 L0,146 Z" fill="rgba(234,184,251,1)" stroke="rgba(255,255,255,1)" stroke-width="1"/>
<path d="M24,146 L23.876,143.546 L23.512,141.163 L22.921,138.863 L22.114,136.658 L21.103,134.56 L19.901,132.581 L18.52,130.734 L16.971,129.029 L15.266,127.48 L13.419,126.099 L11.44,124.897 L9.342,123.886 L7.137,123.079 L4.837,122.488 L2.454,122.124 L0,122 L0,146 Z" fill="rgba(70,254,38,1)" stroke="rgba(255,255,255,1)" stroke-width="1"/>
<path d="M0,170 L0,146 L-24,146 L-23.876,148.454 L-23.512,150.837 L-22.921,153.137 L-22.114,155.342 L-21.103,157.44 L-19.901,159.419 L-18.52,161.266 L-16.971,162.971 L-15.266,164.52 L-13.419,165.901 L-11.44,167.103 L-9.342,168.114 L-7.137,168.921 L-4.837,169.512 L-2.454,169.876 Z" fill="rgba(237,188,202,1)" stroke="rgba(255,255,255,1)" stroke-width="1"/>
<path d="M24,146 L0,146 L0,170 L2.454,169.876 L4.837,169.512 L7.137,168.921 L9.342,168.114 L11.44,167.103 L13.419,165.901 L15.266,164.52 L16.971,162.971 L18.52,161.266 L19.901,159.419 L21.103,157.44 L22.114,155.342 L22.921,153.137 L23.512,150.837 L23.876,148.454 Z" fill="rgba(172,248,173,1)" stroke="rgba(255,255,255,1)" stroke-width="1"/>
<path d="M24,-46 L23.876,-43.546 L23.512,-41.163 L22.921,-38.863 L22.114,-36.658 L21.103,-34.56 L19.901,-32.581 L18.52,-30.734 L16.971,-29.029 L15.266,-27.48 L13.419,-26.099 L11.44,-24.897 L9.342,-23.886 L7.137,-23.079 L4.837,-22.488 L2.454,-22.124 L0,-22 L0,-46 Z" fill="rgba(92,42,228,1)" stroke="rgba(0,0,0,1)" stroke-width="1"/>
<path d="M-24,-46 L-23.876,-43.546 L-23.512,-41.163 L-22.921,-38.863 L-22.114,-36.658 L-21.103,-34.56 L-19.901,-32.581 L-18.52,-30.734 L-16.971,-29.029 L-15.266,-27.48 L-13.419,-26.099 L-11.44,-24.897 L-9.342,-23.886 L-7.137,-23.079 L-4.837,-22.488 L-2.454,-22.124 L0,-22 L0,-46 Z" fill="rgba(11,8,38,1)" stroke="rgba(0,0,0,1)" stroke-width="1"/>
<path d="M0,-70 L0,-46 L24,-46 L23.876,-48.454 L23.512,-50.837 L22.921,-53.137 L22.114,-55.342 L21.103,-57.44 L19.901,-59.419 L18.52,-61.266 L16.971,-62.971 L15.266,-64.52 L13.419,-65.901 L11.44,-67.103 L9.342,-68.114 L7.137,-68.921 L4.837,-69.512 L2.454,-69.876 Z" fill="rgba(47,49,202,1)" stroke="rgba(0,0,0,1)" stroke-width="1"/>
<path d="M-24,-46 L0,-46 L0,-70 L-2.454,-69.876 L-4.837,-69.512 L-7.137,-68.921 L-9.342,-68.114 L-11.44,-67.103 L-13.419,-65.901 L-15.266,-64.52 L-16.971,-62.971 L-18.52,-61.266 L-19.901,-59.419 L-21.103,-57.44 L-22.114,-55.342 L-22.921,-53.137 L-23.512,-50.837 L-23.876,-48.454 Z" fill="rgba(105,72,173,1)" stroke="rgba(0,0,0,1)" stroke-width="1"/>
<path d="M192,50 C192,156.039 106.039,242 0,242 C-106.039,242 -192,156.039 -192,50 C-192,-56.039 -106.039,-142 0,-142 C106.039,-142 192,-56.039 192,50 Z" fill="rgba(0,0,0,0)" stroke="rgba(0,0,0,1)" stroke-width="2"/>
</svg>