<svg xmlns="http://www.w3.org/2000/svg" viewBox="-233.6 -161.1 467.2 382.2">
<path d="M-205,-132.5 L-135,-132.5 L-135,-62.5 L-205,-62.5 Z" fill="rgba(16,9,75,0.75)" stroke="rgba(0,0,0,0.75)" stroke-width="1"/>
<text x="-22.517999999999997" y="6" text-anchor="start" font-family="Verdana, Helvetica, Arial, sans-serif" font-size="18" fill="rgba(255,250,222,1)" transform="matrix(1 0 0 1 -170 -97.5)">0.077</text>
<path d="M-120,-132.5 L-50,-132.5 L-50,-62.5 L-120,-62.5 Z" fill="rgba(14,57,26,0.75)" stroke="rgba(0,0,0,0.75)" stroke-width="1"/>
<text x="-22.517999999999997" y="6" text-anchor="start" font-family="Verdana, Helvetica, Arial, sans-serif" font-size="18" fill="rgba(255,250,222,1)" transform="matrix(1 0 0 1 -85 -97.5)">0.116</text>
<path d="M-35,-132.5 L35,-132.5 L35,-62.5 L-35,-62.5 Z" fill="rgba(51,50,24,0.75)" stroke="rgba(0,0,0,0.75)" stroke-width="1"/>
<text x="-22.517999999999997" y="6" text-anchor="start" font-family="Verdana, Helvetica, Arial, sans-serif" font-size="18" fill="rgba(255,250,222,1)" transform="matrix(1 0 0 1 0 -97.5)">0.125</text>
<path d="M50,-132.5 L120,-132.5 L120,-62.5 L50,-62.5 Z" fill="rgba(43,44,73,0.75)" stroke="rgba(0,0,0,0.75)" stroke-width="1"/>
<text x="-22.517999999999997" y="6" text-anchor="start" font-family="Verdana, Helvetica, Arial, sans-serif" font-size="18" fill="rgba(255,250,222,1)" transform="matrix(1 0 0 1 85 -97.5)">0.126</text>
<path d="M135,-132.5 L205,-132.5 L205,-62.5 L135,-62.5 Z" fill="rgba(14,66,19,0.75)" stroke="rgba(0,0,0,0.75)" stroke-width="1"/>
<text x="-22.517999999999997" y="6" text-anchor="start" font-family="Verdana, Helvetica, Arial, sans-serif" font-size="18" fill="rgba(255,250,222,1)" transform="matrix(1 0 0 1 170 -97.5)">0.127</text>
<path d="M-205,-47.5 L-135,-47.5 L-135,22.5 L-205,22.5 Z" fill="rgba(121,22,12,0.75)" stroke="rgba(0,0,0,0.75)" stroke-width="1"/>
<text x="-22.517999999999997" y="6" text-anchor="start" font-family="Verdana, Helvetica, Arial, sans-serif" font-size="18" fill="rgba(255,250,222,1)" transform="matrix(1 0 0 1 -170 -12.5)">0.153</text>
<path d="M-120,-47.5 L-50,-47.5 L-50,22.5 L-120,22.5 Z" fill="rgba(145,9,53,0.75)" stroke="rgba(0,0,0,0.75)" stroke-width="1"/>
<text x="-22.517999999999997" y="6" text-anchor="start" font-family="Verdana, Helvetica, Arial, sans-serif" font-size="18" fill="rgba(255,250,222,1)" transform="matrix(1 0 0 1 -85 -12.5)">0.178</text>
<path d="M-35,-47.5 L35,-47.5 L35,22.5 L-35,22.5 Z" fill="rgba(75,111,3,0.75)" stroke="rgba(0,0,0,0.75)" stroke-width="1"/>
<text x="-22.517999999999997" y="6" text-anchor="start" font-family="Verdana, Helvetica, Arial, sans-serif" font-size="18" fill="rgba(255,250,222,1)" transform="matrix(1 0 0 1 0 -12.5)">0.238</text>
<path d="M50,-47.5 L120,-47.5 L120,22.5 L50,22.5 Z" fill="rgba(43,110,137,0.75)" stroke="rgba(0,0,0,0.75)" stroke-width="1"/>
<text x="-22.517999999999997" y="6" text-anchor="start" font-family="Verdana, Helvetica, Arial, sans-serif" font-size="18" fill="rgba(255,250,222,1)" transform="matrix(1 0 0 1 85 -12.5)">0.252</text>
<path d="M135,-47.5 L205,-47.5 L205,22.5 L135,22.5 Z" fill="rgba(73,134,9,0.75)" stroke="rgba(0,0,0,0.75)" stroke-width="1"/>
<text x="-22.517999999999997" y="6" text-anchor="start" font-family="Verdana, Helvetica, Arial, sans-serif" font-size="18" fill="rgba(255,250,222,1)" transform="matrix(1 0 0 1 170 -12.5)">0.285</text>
<path d="M-205,37.5 L-135,37.5 L-135,107.5 L-205,107.5 Z" fill="rgba(116,137,10,0.75)" stroke="rgba(0,0,0,0.75)" stroke-width="1"/>
<text x="-22.517999999999997" y="6" text-anchor="start" font-family="Verdana, Helvetica, Arial, sans-serif" font-size="18" fill="rgba(255,250,222,1)" transform="matrix(1 0 0 1 -170 72.5)">0.331</text>
<path d="M-120,37.5 L-50,37.5 L-50,107.5 L-120,107.5 Z" fill="rgba(96,157,63,0.75)" stroke="rgba(0,0,0,0.75)" stroke-width="1"/>
<text x="-17.514" y="6" text-anchor="start" font-family="Verdana, Helvetica, Arial, sans-serif" font-size="18" fill="rgba(255,250,222,1)" transform="matrix(1 0 0 1 -85 72.5)">0.37</text>
<path d="M-35,37.5 L35,37.5 L35,107.5 L-35,107.5 Z" fill="rgba(165,150,46,0.75)" stroke="rgba(0,0,0,0.75)" stroke-width="1"/>
<text x="-22.517999999999997" y="6" text-anchor="start" font-family="Verdana, Helvetica, Arial, sans-serif" font-size="18" fill="rgba(13,13,13,1)" transform="matrix(1 0 0 1 0 72.5)">0.425</text>
<path d="M50,37.5 L120,37.5 L120,107.5 L50,107.5 Z" fill="rgba(206,137,35,0.75)" stroke="rgba(0,0,0,0.75)" stroke-width="1"/>
<text x="-22.517999999999997" y="6" text-anchor="start" font-family="Verdana, Helvetica, Arial, sans-serif" font-size="18" fill="rgba(13,13,13,1)" transform="matrix(1 0 0 1 85 72.5)">0.453</text>
<path d="M135,37.5 L205,37.5 L205,107.5 L135,107.5 Z" fill="rgba(96,189,128,0.75)" stroke="rgba(0,0,0,0.75)" stroke-width="1"/>
<text x="-22.517999999999997" y="6" text-anchor="start" font-family="Verdana, Helvetica, Arial, sans-serif" font-size="18" fill="rgba(13,13,13,1)" transform="matrix(1 0 0 1 170 72.5)">0.481</text>
<path d="M-205,122.5 L-135,122.5 L-135,192.5 L-205,192.5 Z" fill="rgba(32,213,42,0.75)" stroke="rgba(0,0,0,0.75)" stroke-width="1"/>
<text x="-22.517999999999997" y="6" text-anchor="start" font-family="Verdana, Helvetica, Arial, sans-serif" font-size="18" fill="rgba(13,13,13,1)" transform="matrix(1 0 0 1 -170 157.5)">0.482</text>
<path d="M-120,122.5 L-50,122.5 L-50,192.5 L-120,192.5 Z" fill="rgba(183,170,244,0.75)" stroke="rgba(0,0,0,0.75)" stroke-width="1"/>
<text x="-22.517999999999997" y="6" text-anchor="start" font-family="Verdana, Helvetica, Arial, sans-serif" font-size="18" fill="rgba(13,13,13,1)" transform="matrix(1 0 0 1 -85 157.5)">0.594</text>
<path d="M-35,122.5 L35,122.5 L35,192.5 L-35,192.5 Z" fill="rgba(3,247,114,0.75)" stroke="rgba(0,0,0,0.75)" stroke-width="1"/>
<text x="-22.517999999999997" y="6" text-anchor="start" font-family="Verdana, Helvetica, Arial, sans-serif" font-size="18" fill="rgba(13,13,13,1)" transform="matrix(1 0 0 1 0 157.5)">0.608</text>
<path d="M50,122.5 L120,122.5 L120,192.5 L50,192.5 Z" fill="rgba(242,177,33,0.75)" stroke="rgba(0,0,0,0.75)" stroke-width="1"/>
<text x="-22.517999999999997" y="6" text-anchor="start" font-family="Verdana, Helvetica, Arial, sans-serif" font-size="18" fill="rgba(13,13,13,1)" transform="matrix(1 0 0 1 85 157.5)">0.614</text>
<path d="M135,122.5 L205,122.5 L205,192.5 L135,192.5 Z" fill="rgba(231,216,127,0.75)" stroke="rgba(0,0,0,0.75)" stroke-width="1"/>
<text x="-22.517999999999997" y="6" text-anchor="start" font-family="Verdana, Helvetica, Arial, sans-serif" font-size="18" fill="rgba(13,13,13,1)" transform="matrix(1 0 0 1 170 157.5)">0.744</text>
</svg>