<svg xmlns="http://www.w3.org/2000/svg" viewBox="-110.74 -110.24 221.48 320.48">
<path d="M-90,-89.5 L-20,-72.972" fill="rgba(0,0,0,0)" stroke="rgba(0,0,0,1)" stroke-width="2"/>
<path d="M89.982,-47.004 L90,-47" fill="rgba(0,0,0,0)" stroke="rgba(255,0,0,1)" stroke-width="2"/>
<path d="M-90,-84 L-40,-72.194" fill="rgba(0,0,0,0)" stroke="rgba(0,0,0,1)" stroke-width="2"/>
<path d="M89.982,-41.504 L90,-41.5" fill="rgba(0,0,0,0)" stroke="rgba(255,0,0,1)" stroke-width="2"/>
<path d="M-90,-78.5 L-60,-71.417" fill="rgba(0,0,0,0)" stroke="rgba(0,0,0,1)" stroke-width="2"/>
<path d="M89.982,-36.004 L90,-36" fill="rgba(0,0,0,0)" stroke="rgba(255,0,0,1)" stroke-width="2"/>
<path d="M-90,-73 L-80,-70.639" fill="rgba(0,0,0,0)" stroke="rgba(0,0,0,1)" stroke-width="2"/>
<path d="M89.982,-30.504 L90,-30.5" fill="rgba(0,0,0,0)" stroke="rgba(255,0,0,1)" stroke-width="2"/>
<path d="M-90,-67.5 L-80,-65.139" fill="rgba(0,0,0,0)" stroke="rgba(0,0,0,1)" stroke-width="2"/>
<path d="M89.982,-25.004 L90,-25" fill="rgba(0,0,0,0)" stroke="rgba(255,0,0,1)" stroke-width="2"/>
<path d="M-90,-62 L-80,-59.639" fill="rgba(0,0,0,0)" stroke="rgba(0,0,0,1)" stroke-width="2"/>
<path d="M89.982,-19.504 L90,-19.5" fill="rgba(0,0,0,0)" stroke="rgba(255,0,0,1)" stroke-width="2"/>
<path d="M-90,-56.5 L-80,-54.139" fill="rgba(0,0,0,0)" stroke="rgba(0,0,0,1)" stroke-width="2"/>
<path d="M89.982,-14.004 L90,-14" fill="rgba(0,0,0,0)" stroke="rgba(255,0,0,1)" stroke-width="2"/>
<path d="M-90,-51 L-80,-48.639" fill="rgba(0,0,0,0)" stroke="rgba(0,0,0,1)" stroke-width="2"/>
<path d="M89.982,-8.504 L90,-8.5" fill="rgba(0,0,0,0)" stroke="rgba(255,0,0,1)" stroke-width="2"/>
<path d="M-90,-45.5 L-80,-43.139" fill="rgba(0,0,0,0)" stroke="rgba(0,0,0,1)" stroke-width="2"/>
<path d="M89.982,-3.004 L90,-3" fill="rgba(0,0,0,0)" stroke="rgba(255,0,0,1)" stroke-width="2"/>
<path d="M-90,-40 L-80,-37.639" fill="rgba(0,0,0,0)" stroke="rgba(0,0,0,1)" stroke-width="2"/>
<path d="M89.982,2.496 L90,2.5" fill="rgba(0,0,0,0)" stroke="rgba(255,0,0,1)" stroke-width="2"/>
<path d="M-90,-34.5 L-80,-32.139" fill="rgba(0,0,0,0)" stroke="rgba(0,0,0,1)" stroke-width="2"/>
<path d="M89.982,7.996 L90,8" fill="rgba(0,0,0,0)" stroke="rgba(255,0,0,1)" stroke-width="2"/>
<path d="M-90,-29 L-80,-26.639" fill="rgba(0,0,0,0)" stroke="rgba(0,0,0,1)" stroke-width="2"/>
<path d="M89.982,13.496 L90,13.5" fill="rgba(0,0,0,0)" stroke="rgba(255,0,0,1)" stroke-width="2"/>
<path d="M-90,-23.5 L-80,-21.139" fill="rgba(0,0,0,0)" stroke="rgba(0,0,0,1)" stroke-width="2"/>
<path d="M89.982,18.996 L90,19" fill="rgba(0,0,0,0)" stroke="rgba(255,0,0,1)" stroke-width="2"/>
<path d="M-90,-18 L-80,-15.639" fill="rgba(0,0,0,0)" stroke="rgba(0,0,0,1)" stroke-width="2"/>
<path d="M89.982,24.496 L90,24.5" fill="rgba(0,0,0,0)" stroke="rgba(255,0,0,1)" stroke-width="2"/>
<path d="M-90,-12.5 L-80,-10.139" fill="rgba(0,0,0,0)" stroke="rgba(0,0,0,1)" stroke-width="2"/>
<path d="M89.982,29.996 L90,30" fill="rgba(0,0,0,0)" stroke="rgba(255,0,0,1)" stroke-width="2"/>
<path d="M-90,-7 L-80,-4.639" fill="rgba(0,0,0,0)" stroke="rgba(0,0,0,1)" stroke-width="2"/>
<path d="M89.982,35.496 L90,35.5" fill="rgba(0,0,0,0)" stroke="rgba(255,0,0,1)" stroke-width="2"/>
<path d="M-90,-1.5 L-80,0.861" fill="rgba(0,0,0,0)" stroke="rgba(0,0,0,1)" stroke-width="2"/>
<path d="M89.982,40.996 L90,41" fill="rgba(0,0,0,0)" stroke="rgba(255,0,0,1)" stroke-width="2"/>
<path d="M-90,4 L-80,6.361" fill="rgba(0,0,0,0)" stroke="rgba(0,0,0,1)" stroke-width="2"/>
<path d="M89.982,46.496 L90,46.5" fill="rgba(0,0,0,0)" stroke="rgba(255,0,0,1)" stroke-width="2"/>
<path d="M-90,9.5 L-80,11.861" fill="rgba(0,0,0,0)" stroke="rgba(0,0,0,1)" stroke-width="2"/>
<path d="M89.982,51.996 L90,52" fill="rgba(0,0,0,0)" stroke="rgba(255,0,0,1)" stroke-width="2"/>
<path d="M-90,15 L-80,17.361" fill="rgba(0,0,0,0)" stroke="rgba(0,0,0,1)" stroke-width="2"/>
<path d="M89.982,57.496 L90,57.5" fill="rgba(0,0,0,0)" stroke="rgba(255,0,0,1)" stroke-width="2"/>
<path d="M-90,20.5 L-80,22.861" fill="rgba(0,0,0,0)" stroke="rgba(0,0,0,1)" stroke-width="2"/>
<path d="M89.982,62.996 L90,63" fill="rgba(0,0,0,0)" stroke="rgba(255,0,0,1)" stroke-width="2"/>
<path d="M-90,26 L-80,28.361" fill="rgba(0,0,0,0)" stroke="rgba(0,0,0,1)" stroke-width="2"/>
<path d="M89.982,68.496 L90,68.5" fill="rgba(0,0,0,0)" stroke="rgba(255,0,0,1)" stroke-width="2"/>
<path d="M-90,31.5 L-80,33.861" fill="rgba(0,0,0,0)" stroke="rgba(0,0,0,1)" stroke-width="2"/>
<path d="M89.982,73.996 L90,74" fill="rgba(0,0,0,0)" stroke="rgba(255,0,0,1)" stroke-width="2"/>
<path d="M-90,37 L-80,39.361" fill="rgba(0,0,0,0)" stroke="rgba(0,0,0,1)" stroke-width="2"/>
<path d="M89.982,79.496 L90,79.5" fill="rgba(0,0,0,0)" stroke="rgba(255,0,0,1)" stroke-width="2"/>
<path d="M-90,42.5 L-80,44.861" fill="rgba(0,0,0,0)" stroke="rgba(0,0,0,1)" stroke-width="2"/>
<path d="M89.982,84.996 L90,85" fill="rgba(0,0,0,0)" stroke="rgba(255,0,0,1)" stroke-width="2"/>
<path d="M-90,48 L-80,50.361" fill="rgba(0,0,0,0)" stroke="rgba(0,0,0,1)" stroke-width="2"/>
<path d="M89.982,90.496 L90,90.5" fill="rgba(0,0,0,0)" stroke="rgba(255,0,0,1)" stroke-width="2"/>
<path d="M-90,53.5 L-80,55.861" fill="rgba(0,0,0,0)" stroke="rgba(0,0,0,1)" stroke-width="2"/>
<path d="M89.982,95.996 L90,96" fill="rgba(0,0,0,0)" stroke="rgba(255,0,0,1)" stroke-width="2"/>
<path d="M-90,59 L-80,61.361" fill="rgba(0,0,0,0)" stroke="rgba(0,0,0,1)" stroke-width="2"/>
<path d="M89.982,101.496 L90,101.5" fill="rgba(0,0,0,0)" stroke="rgba(255,0,0,1)" stroke-width="2"/>
<path d="M-90,64.5 L-80,66.861" fill="rgba(0,0,0,0)" stroke="rgba(0,0,0,1)" stroke-width="2"/>
<path d="M89.982,106.996 L90,107" fill="rgba(0,0,0,0)" stroke="rgba(255,0,0,1)" stroke-width="2"/>
<path d="M-90,70 L-80,72.361" fill="rgba(0,0,0,0)" stroke="rgba(0,0,0,1)" stroke-width="2"/>
<path d="M89.982,112.496 L90,112.5" fill="rgba(0,0,0,0)" stroke="rgba(255,0,0,1)" stroke-width="2"/>
<path d="M-90,75.5 L-80,77.861" fill="rgba(0,0,0,0)" stroke="rgba(0,0,0,1)" stroke-width="2"/>
<path d="M89.982,117.996 L90,118" fill="rgba(0,0,0,0)" stroke="rgba(255,0,0,1)" stroke-width="2"/>
<path d="M-90,81 L-80,83.361" fill="rgba(0,0,0,0)" stroke="rgba(0,0,0,1)" stroke-width="2"/>
<path d="M89.982,123.496 L90,123.5" fill="rgba(0,0,0,0)" stroke="rgba(255,0,0,1)" stroke-width="2"/>
<path d="M-90,86.5 L-80,88.861" fill="rgba(0,0,0,0)" stroke="rgba(0,0,0,1)" stroke-width="2"/>
<path d="M89.982,128.996 L90,129" fill="rgba(0,0,0,0)" stroke="rgba(255,0,0,1)" stroke-width="2"/>
<path d="M-90,92 L-80,94.361" fill="rgba(0,0,0,0)" stroke="rgba(0,0,0,1)" stroke-width="2"/>
<path d="M89.982,134.496 L90,134.5" fill="rgba(0,0,0,0)" stroke="rgba(255,0,0,1)" stroke-width="2"/>
<path d="M-90,97.5 L-80,99.861" fill="rgba(0,0,0,0)" stroke="rgba(0,0,0,1)" stroke-width="2"/>
<path d="M89.982,139.996 L90,140" fill="rgba(0,0,0,0)" stroke="rgba(255,0,0,1)" stroke-width="2"/>
<path d="M-90,103 L-80,105.361" fill="rgba(0,0,0,0)" stroke="rgba(0,0,0,1)" stroke-width="2"/>
<path d="M89.982,145.496 L90,145.5" fill="rgba(0,0,0,0)" stroke="rgba(255,0,0,1)" stroke-width="2"/>
<path d="M-90,108.5 L-80,110.861" fill="rgba(0,0,0,0)" stroke="rgba(0,0,0,1)" stroke-width="2"/>
<path d="M89.982,150.996 L90,151" fill="rgba(0,0,0,0)" stroke="rgba(255,0,0,1)" stroke-width="2"/>
<path d="M-90,114 L-80,116.361" fill="rgba(0,0,0,0)" stroke="rgba(0,0,0,1)" stroke-width="2"/>
<path d="M89.982,156.496 L90,156.5" fill="rgba(0,0,0,0)" stroke="rgba(255,0,0,1)" stroke-width="2"/>
<path d="M-90,119.5 L-80,121.861" fill="rgba(0,0,0,0)" stroke="rgba(0,0,0,1)" stroke-width="2"/>
<path d="M89.982,161.996 L90,162" fill="rgba(0,0,0,0)" stroke="rgba(255,0,0,1)" stroke-width="2"/>
<path d="M-90,125 L-80,127.361" fill="rgba(0,0,0,0)" stroke="rgba(0,0,0,1)" stroke-width="2"/>
<path d="M89.982,167.496 L90,167.5" fill="rgba(0,0,0,0)" stroke="rgba(255,0,0,1)" stroke-width="2"/>
<path d="M-90,130.5 L-80,132.861" fill="rgba(0,0,0,0)" stroke="rgba(0,0,0,1)" stroke-width="2"/>
<path d="M89.982,172.996 L90,173" fill="rgba(0,0,0,0)" stroke="rgba(255,0,0,1)" stroke-width="2"/>
<path d="M-90,136 L-80,138.361" fill="rgba(0,0,0,0)" stroke="rgba(0,0,0,1)" stroke-width="2"/>
<path d="M89.982,178.496 L90,178.5" fill="rgba(0,0,0,0)" stroke="rgba(255,0,0,1)" stroke-width="2"/>
<path d="M-90,141.5 L-80,143.861" fill="rgba(0,0,0,0)" stroke="rgba(0,0,0,1)" stroke-width="2"/>
<path d="M89.982,183.996 L90,184" fill="rgba(0,0,0,0)" stroke="rgba(255,0,0,1)" stroke-width="2"/>
<path d="M-90,147 L-80,149.361" fill="rgba(0,0,0,0)" stroke="rgba(0,0,0,1)" stroke-width="2"/>
<path d="M89.982,189.496 L90,189.5" fill="rgba(0,0,0,0)" stroke="rgba(255,0,0,1)" stroke-width="2"/>
</svg>