<svg xmlns="http://www.w3.org/2000/svg" viewBox="-218.73 -117.01 437.46 344.01">
<path d="M-117.03,-90 L117.03,-90 L117.03,-10 L-117.03,-10 Z" fill="rgba(0,0,0,0)" stroke="rgba(0,0,0,1)" stroke-width="2"/>
<path d="M-117.03,-90 L117.03,-90 L117.03,-70 L-117.03,-70 Z" fill="rgba(246,246,246,1)"/>
<path d="M-117.03,-70 L117.03,-70 L117.03,-50 L-117.03,-50 Z" fill="rgba(255,255,255,1)"/>
<path d="M-117.03,-50 L117.03,-50 L117.03,-30 L-117.03,-30 Z" fill="rgba(243,246,250,1)"/>
<path d="M-117.03,-30 L117.03,-30 L117.03,-10 L-117.03,-10 Z" fill="rgba(255,255,255,1)"/>
<text x="0" y="0" text-anchor="start" font-family="Verdana-Bold, Helvetica, Arial, sans-serif" font-size="12" fill="rgba(0,0,0,1)" transform="matrix(1 0 0 1 -97.03 -76.82)">animal</text>
<text x="0" y="0" text-anchor="start" font-family="Verdana, Helvetica, Arial, sans-serif" font-size="12" fill="rgba(0,0,0,1)" transform="matrix(1 0 0 1 -97.03 -56.82)">cat</text>
<text x="0" y="0" text-anchor="start" font-family="Verdana, Helvetica, Arial, sans-serif" font-size="12" fill="rgba(0,0,0,1)" transform="matrix(1 0 0 1 -97.03 -36.82)">dog</text>
<text x="0" y="0" text-anchor="start" font-family="Verdana, Helvetica, Arial, sans-serif" font-size="12" fill="rgba(0,0,0,1)" transform="matrix(1 0 0 1 -97.03 -16.82)">penguin</text>
<text x="0" y="0" text-anchor="start" font-family="Verdana-Bold, Helvetica, Arial, sans-serif" font-size="12" fill="rgba(0,0,0,1)" transform="matrix(1 0 0 1 -14.334000000000003 -76.82)">color</text>
<text x="0" y="0" text-anchor="start" font-family="Verdana, Helvetica, Arial, sans-serif" font-size="12" fill="rgba(0,0,0,1)" transform="matrix(1 0 0 1 -14.334000000000003 -56.82)">red</text>
<text x="0" y="0" text-anchor="start" font-family="Verdana, Helvetica, Arial, sans-serif" font-size="12" fill="rgba(0,0,0,1)" transform="matrix(1 0 0 1 -14.334000000000003 -36.82)">blue</text>
<text x="0" y="0" text-anchor="start" font-family="Verdana, Helvetica, Arial, sans-serif" font-size="12" fill="rgba(0,0,0,1)" transform="matrix(1 0 0 1 -14.334000000000003 -16.82)">green</text>
<text x="0" y="0" text-anchor="start" font-family="Verdana-Bold, Helvetica, Arial, sans-serif" font-size="12" fill="rgba(0,0,0,1)" transform="matrix(1 0 0 1 56.349999999999994 -76.82)">number</text>
<text x="0" y="0" text-anchor="start" font-family="Verdana, Helvetica, Arial, sans-serif" font-size="12" fill="rgba(0,0,0,1)" transform="matrix(1 0 0 1 56.349999999999994 -56.82)">0</text>
<text x="0" y="0" text-anchor="start" font-family="Verdana, Helvetica, Arial, sans-serif" font-size="12" fill="rgba(0,0,0,1)" transform="matrix(1 0 0 1 56.349999999999994 -36.82)">1</text>
<text x="0" y="0" text-anchor="start" font-family="Verdana, Helvetica, Arial, sans-serif" font-size="12" fill="rgba(0,0,0,1)" transform="matrix(1 0 0 1 56.349999999999994 -16.82)">2</text>
<path d="M-74.692,15 L74.692,15 L74.692,95 L-74.692,95 Z" fill="rgba(0,0,0,0)" stroke="rgba(0,0,0,1)" stroke-width="2"/>
<path d="M-74.692,15 L74.692,15 L74.692,35 L-74.692,35 Z" fill="rgba(246,246,246,1)"/>
<path d="M-74.692,35 L74.692,35 L74.692,55 L-74.692,55 Z" fill="rgba(255,255,255,1)"/>
<path d="M-74.692,55 L74.692,55 L74.692,75 L-74.692,75 Z" fill="rgba(243,246,250,1)"/>
<path d="M-74.692,75 L74.692,75 L74.692,95 L-74.692,95 Z" fill="rgba(255,255,255,1)"/>
<text x="0" y="0" text-anchor="start" font-family="Verdana-Bold, Helvetica, Arial, sans-serif" font-size="12" fill="rgba(0,0,0,1)" transform="matrix(1 0 0 1 -54.692 28.180000000000007)">weight</text>
<text x="0" y="0" text-anchor="start" font-family="Verdana, Helvetica, Arial, sans-serif" font-size="12" fill="rgba(0,0,0,1)" transform="matrix(1 0 0 1 -54.692 48.18000000000001)">192.13</text>
<text x="0" y="0" text-anchor="start" font-family="Verdana, Helvetica, Arial, sans-serif" font-size="12" fill="rgba(0,0,0,1)" transform="matrix(1 0 0 1 -54.692 68.18)">170.13</text>
<text x="0" y="0" text-anchor="start" font-family="Verdana, Helvetica, Arial, sans-serif" font-size="12" fill="rgba(0,0,0,1)" transform="matrix(1 0 0 1 -54.692 88.18)">143.33</text>
<text x="0" y="0" text-anchor="start" font-family="Verdana-Bold, Helvetica, Arial, sans-serif" font-size="12" fill="rgba(0,0,0,1)" transform="matrix(1 0 0 1 22.003999999999998 28.180000000000007)">height</text>
<text x="0" y="0" text-anchor="start" font-family="Verdana, Helvetica, Arial, sans-serif" font-size="12" fill="rgba(0,0,0,1)" transform="matrix(1 0 0 1 22.003999999999998 48.18000000000001)">5.76</text>
<text x="0" y="0" text-anchor="start" font-family="Verdana, Helvetica, Arial, sans-serif" font-size="12" fill="rgba(0,0,0,1)" transform="matrix(1 0 0 1 22.003999999999998 68.18)">5.10</text>
<text x="0" y="0" text-anchor="start" font-family="Verdana, Helvetica, Arial, sans-serif" font-size="12" fill="rgba(0,0,0,1)" transform="matrix(1 0 0 1 22.003999999999998 88.18)">4.30</text>
<path d="M-191.722,120 L191.722,120 L191.722,200 L-191.722,200 Z" fill="rgba(0,0,0,0)" stroke="rgba(0,0,0,1)" stroke-width="2"/>
<path d="M-191.722,120 L191.722,120 L191.722,140 L-191.722,140 Z" fill="rgba(246,246,246,1)"/>
<path d="M-191.722,140 L191.722,140 L191.722,160 L-191.722,160 Z" fill="rgba(255,255,255,1)"/>
<path d="M-191.722,160 L191.722,160 L191.722,180 L-191.722,180 Z" fill="rgba(243,246,250,1)"/>
<path d="M-191.722,180 L191.722,180 L191.722,200 L-191.722,200 Z" fill="rgba(255,255,255,1)"/>
<text x="0" y="0" text-anchor="start" font-family="Verdana-Bold, Helvetica, Arial, sans-serif" font-size="12" fill="rgba(0,0,0,1)" transform="matrix(1 0 0 1 -171.72199999999998 133.18)">animal</text>
<text x="0" y="0" text-anchor="start" font-family="Verdana, Helvetica, Arial, sans-serif" font-size="12" fill="rgba(0,0,0,1)" transform="matrix(1 0 0 1 -171.72199999999998 153.18)">cat</text>
<text x="0" y="0" text-anchor="start" font-family="Verdana, Helvetica, Arial, sans-serif" font-size="12" fill="rgba(0,0,0,1)" transform="matrix(1 0 0 1 -171.72199999999998 173.18)">dog</text>
<text x="0" y="0" text-anchor="start" font-family="Verdana, Helvetica, Arial, sans-serif" font-size="12" fill="rgba(0,0,0,1)" transform="matrix(1 0 0 1 -171.72199999999998 193.18)">penguin</text>
<text x="0" y="0" text-anchor="start" font-family="Verdana-Bold, Helvetica, Arial, sans-serif" font-size="12" fill="rgba(0,0,0,1)" transform="matrix(1 0 0 1 -89.02599999999998 133.18)">color</text>
<text x="0" y="0" text-anchor="start" font-family="Verdana, Helvetica, Arial, sans-serif" font-size="12" fill="rgba(0,0,0,1)" transform="matrix(1 0 0 1 -89.02599999999998 153.18)">red</text>
<text x="0" y="0" text-anchor="start" font-family="Verdana, Helvetica, Arial, sans-serif" font-size="12" fill="rgba(0,0,0,1)" transform="matrix(1 0 0 1 -89.02599999999998 173.18)">blue</text>
<text x="0" y="0" text-anchor="start" font-family="Verdana, Helvetica, Arial, sans-serif" font-size="12" fill="rgba(0,0,0,1)" transform="matrix(1 0 0 1 -89.02599999999998 193.18)">green</text>
<text x="0" y="0" text-anchor="start" font-family="Verdana-Bold, Helvetica, Arial, sans-serif" font-size="12" fill="rgba(0,0,0,1)" transform="matrix(1 0 0 1 -18.341999999999985 133.18)">number</text>
<text x="0" y="0" text-anchor="start" font-family="Verdana, Helvetica, Arial, sans-serif" font-size="12" fill="rgba(0,0,0,1)" transform="matrix(1 0 0 1 -18.341999999999985 153.18)">0</text>
<text x="0" y="0" text-anchor="start" font-family="Verdana, Helvetica, Arial, sans-serif" font-size="12" fill="rgba(0,0,0,1)" transform="matrix(1 0 0 1 -18.341999999999985 173.18)">1</text>
<text x="0" y="0" text-anchor="start" font-family="Verdana, Helvetica, Arial, sans-serif" font-size="12" fill="rgba(0,0,0,1)" transform="matrix(1 0 0 1 -18.341999999999985 193.18)">2</text>
<text x="0" y="0" text-anchor="start" font-family="Verdana-Bold, Helvetica, Arial, sans-serif" font-size="12" fill="rgba(0,0,0,1)" transform="matrix(1 0 0 1 62.33800000000002 133.18)">weight</text>
<text x="0" y="0" text-anchor="start" font-family="Verdana, Helvetica, Arial, sans-serif" font-size="12" fill="rgba(0,0,0,1)" transform="matrix(1 0 0 1 62.33800000000002 153.18)">192.13</text>
<text x="0" y="0" text-anchor="start" font-family="Verdana, Helvetica, Arial, sans-serif" font-size="12" fill="rgba(0,0,0,1)" transform="matrix(1 0 0 1 62.33800000000002 173.18)">170.13</text>
<text x="0" y="0" text-anchor="start" font-family="Verdana, Helvetica, Arial, sans-serif" font-size="12" fill="rgba(0,0,0,1)" transform="matrix(1 0 0 1 62.33800000000002 193.18)">143.33</text>
<text x="0" y="0" text-anchor="start" font-family="Verdana-Bold, Helvetica, Arial, sans-serif" font-size="12" fill="rgba(0,0,0,1)" transform="matrix(1 0 0 1 139.034 133.18)">height</text>
<text x="0" y="0" text-anchor="start" font-family="Verdana, Helvetica, Arial, sans-serif" font-size="12" fill="rgba(0,0,0,1)" transform="matrix(1 0 0 1 139.034 153.18)">5.76</text>
<text x="0" y="0" text-anchor="start" font-family="Verdana, Helvetica, Arial, sans-serif" font-size="12" fill="rgba(0,0,0,1)" transform="matrix(1 0 0 1 139.034 173.18)">5.10</text>
<text x="0" y="0" text-anchor="start" font-family="Verdana, Helvetica, Arial, sans-serif" font-size="12" fill="rgba(0,0,0,1)" transform="matrix(1 0 0 1 139.034 193.18)">4.30</text>
</svg>