<svg xmlns="http://www.w3.org/2000/svg" viewBox="-242.18 -172.48 484.36 404.96">
<text x="-72.018" y="-25" text-anchor="start" font-family="Verdana, Helvetica, Arial, sans-serif" font-size="36" fill="rgba(67,67,67,1)" transform="matrix(1 0 0 1 -120.66025403784437 -92.04)">Combine</text>
<path d="M-175.34,-62.04 L-209.981,-62.04 L-192.66,-92.04 Z" fill="rgba(102,194,165,1)" stroke="rgba(0,0,0,1)" stroke-width="1"/>
<path d="M-127.34,-62.04 L-161.981,-62.04 L-144.66,-92.04 Z" fill="rgba(252,141,98,1)" stroke="rgba(0,0,0,1)" stroke-width="1"/>
<path d="M-79.34,-62.04 L-113.981,-62.04 L-96.66,-92.04 Z" fill="rgba(141,160,203,1)" stroke="rgba(0,0,0,1)" stroke-width="1"/>
<path d="M-34.518,-62.04 L-62.802,-62.04 L-62.802,-90.324 L-34.518,-90.324 Z" fill="rgba(102,194,165,1)" stroke="rgba(0,0,0,1)" stroke-width="1"/>
<path d="M-178.518,-9.04 L-206.802,-9.04 L-206.802,-37.324 L-178.518,-37.324 Z" fill="rgba(252,141,98,1)" stroke="rgba(0,0,0,1)" stroke-width="1"/>
<path d="M-130.518,-9.04 L-158.802,-9.04 L-158.802,-37.324 L-130.518,-37.324 Z" fill="rgba(141,160,203,1)" stroke="rgba(0,0,0,1)" stroke-width="1"/>
<path d="M-82.518,-9.04 L-110.802,-9.04 L-110.802,-37.324 L-82.518,-37.324 Z" fill="rgba(231,138,195,1)" stroke="rgba(0,0,0,1)" stroke-width="1"/>
<path d="M-36.905,-9.04 L-60.416,-9.04 L-67.681,-31.401 L-48.66,-45.22 L-29.639,-31.401 Z" fill="rgba(102,194,165,1)" stroke="rgba(0,0,0,1)" stroke-width="1"/>
<path d="M-180.905,43.96 L-204.416,43.96 L-211.681,21.599 L-192.66,7.78 L-173.639,21.599 Z" fill="rgba(252,141,98,1)" stroke="rgba(0,0,0,1)" stroke-width="1"/>
<path d="M-132.905,43.96 L-156.416,43.96 L-163.681,21.599 L-144.66,7.78 L-125.639,21.599 Z" fill="rgba(141,160,203,1)" stroke="rgba(0,0,0,1)" stroke-width="1"/>
<path d="M-84.905,43.96 L-108.416,43.96 L-115.681,21.599 L-96.66,7.78 L-77.639,21.599 Z" fill="rgba(231,138,195,1)" stroke="rgba(0,0,0,1)" stroke-width="1"/>
<path d="M-36.905,43.96 L-60.416,43.96 L-67.681,21.599 L-48.66,7.78 L-29.639,21.599 Z" fill="rgba(166,216,84,1)" stroke="rgba(0,0,0,1)" stroke-width="1"/>
<path d="M-182.66,96.96 L-202.66,96.96 L-212.66,79.639 L-202.66,62.319 L-182.66,62.319 L-172.66,79.639 Z" fill="rgba(102,194,165,1)" stroke="rgba(0,0,0,1)" stroke-width="1"/>
<path d="M-134.66,96.96 L-154.66,96.96 L-164.66,79.639 L-154.66,62.319 L-134.66,62.319 L-124.66,79.639 Z" fill="rgba(252,141,98,1)" stroke="rgba(0,0,0,1)" stroke-width="1"/>
<path d="M-86.66,96.96 L-106.66,96.96 L-116.66,79.639 L-106.66,62.319 L-86.66,62.319 L-76.66,79.639 Z" fill="rgba(141,160,203,1)" stroke="rgba(0,0,0,1)" stroke-width="1"/>
<path d="M-38.66,96.96 L-58.66,96.96 L-68.66,79.639 L-58.66,62.319 L-38.66,62.319 L-28.66,79.639 Z" fill="rgba(231,138,195,1)" stroke="rgba(0,0,0,1)" stroke-width="1"/>
<path d="M-182.66,149.96 L-202.66,149.96 L-212.66,132.639 L-202.66,115.319 L-182.66,115.319 L-172.66,132.639 Z" fill="rgba(166,216,84,1)" stroke="rgba(0,0,0,1)" stroke-width="1"/>
<path d="M-134.66,149.96 L-154.66,149.96 L-164.66,132.639 L-154.66,115.319 L-134.66,115.319 L-124.66,132.639 Z" fill="rgba(255,217,47,1)" stroke="rgba(0,0,0,1)" stroke-width="1"/>
<text x="-27.99" y="-25" text-anchor="start" font-family="Verdana, Helvetica, Arial, sans-serif" font-size="36" fill="rgba(67,67,67,1)" transform="matrix(1 0 0 1 126.84059392534334 -92.04)">Mix</text>
<path d="M65.981,-62.04 L31.34,-62.04 L48.66,-92.04 Z" fill="rgba(102,194,165,1)" stroke="rgba(0,0,0,1)" stroke-width="1"/>
<path d="M110.802,-62.04 L82.518,-62.04 L82.518,-90.324 L110.802,-90.324 Z" fill="rgba(102,194,165,1)" stroke="rgba(0,0,0,1)" stroke-width="1"/>
<path d="M156.416,-62.04 L132.905,-62.04 L125.639,-84.401 L144.66,-98.22 L163.681,-84.401 Z" fill="rgba(102,194,165,1)" stroke="rgba(0,0,0,1)" stroke-width="1"/>
<path d="M202.66,-62.04 L182.66,-62.04 L172.66,-79.361 L182.66,-96.681 L202.66,-96.681 L212.66,-79.361 Z" fill="rgba(102,194,165,1)" stroke="rgba(0,0,0,1)" stroke-width="1"/>
<path d="M65.981,-9.04 L31.34,-9.04 L48.66,-39.04 Z" fill="rgba(252,141,98,1)" stroke="rgba(0,0,0,1)" stroke-width="1"/>
<path d="M110.802,-9.04 L82.518,-9.04 L82.518,-37.324 L110.802,-37.324 Z" fill="rgba(252,141,98,1)" stroke="rgba(0,0,0,1)" stroke-width="1"/>
<path d="M156.416,-9.04 L132.905,-9.04 L125.639,-31.401 L144.66,-45.22 L163.681,-31.401 Z" fill="rgba(252,141,98,1)" stroke="rgba(0,0,0,1)" stroke-width="1"/>
<path d="M202.66,-9.04 L182.66,-9.04 L172.66,-26.361 L182.66,-43.681 L202.66,-43.681 L212.66,-26.361 Z" fill="rgba(252,141,98,1)" stroke="rgba(0,0,0,1)" stroke-width="1"/>
<path d="M65.981,43.96 L31.34,43.96 L48.66,13.96 Z" fill="rgba(141,160,203,1)" stroke="rgba(0,0,0,1)" stroke-width="1"/>
<path d="M110.802,43.96 L82.518,43.96 L82.518,15.676 L110.802,15.676 Z" fill="rgba(141,160,203,1)" stroke="rgba(0,0,0,1)" stroke-width="1"/>
<path d="M156.416,43.96 L132.905,43.96 L125.639,21.599 L144.66,7.78 L163.681,21.599 Z" fill="rgba(141,160,203,1)" stroke="rgba(0,0,0,1)" stroke-width="1"/>
<path d="M202.66,43.96 L182.66,43.96 L172.66,26.639 L182.66,9.319 L202.66,9.319 L212.66,26.639 Z" fill="rgba(141,160,203,1)" stroke="rgba(0,0,0,1)" stroke-width="1"/>
<path d="M65.981,96.96 L31.34,96.96 L48.66,66.96 Z" fill="rgba(102,194,165,1)" stroke="rgba(0,0,0,1)" stroke-width="1"/>
<path d="M110.802,96.96 L82.518,96.96 L82.518,68.676 L110.802,68.676 Z" fill="rgba(231,138,195,1)" stroke="rgba(0,0,0,1)" stroke-width="1"/>
<path d="M156.416,96.96 L132.905,96.96 L125.639,74.599 L144.66,60.78 L163.681,74.599 Z" fill="rgba(231,138,195,1)" stroke="rgba(0,0,0,1)" stroke-width="1"/>
<path d="M202.66,96.96 L182.66,96.96 L172.66,79.639 L182.66,62.319 L202.66,62.319 L212.66,79.639 Z" fill="rgba(231,138,195,1)" stroke="rgba(0,0,0,1)" stroke-width="1"/>
<path d="M65.981,149.96 L31.34,149.96 L48.66,119.96 Z" fill="rgba(252,141,98,1)" stroke="rgba(0,0,0,1)" stroke-width="1"/>
<path d="M110.802,149.96 L82.518,149.96 L82.518,121.676 L110.802,121.676 Z" fill="rgba(102,194,165,1)" stroke="rgba(0,0,0,1)" stroke-width="1"/>
<path d="M156.416,149.96 L132.905,149.96 L125.639,127.599 L144.66,113.78 L163.681,127.599 Z" fill="rgba(166,216,84,1)" stroke="rgba(0,0,0,1)" stroke-width="1"/>
<path d="M202.66,149.96 L182.66,149.96 L172.66,132.639 L182.66,115.319 L202.66,115.319 L212.66,132.639 Z" fill="rgba(166,216,84,1)" stroke="rgba(0,0,0,1)" stroke-width="1"/>
<path d="M65.981,202.96 L31.34,202.96 L48.66,172.96 Z" fill="rgba(141,160,203,1)" stroke="rgba(0,0,0,1)" stroke-width="1"/>
<path d="M110.802,202.96 L82.518,202.96 L82.518,174.676 L110.802,174.676 Z" fill="rgba(252,141,98,1)" stroke="rgba(0,0,0,1)" stroke-width="1"/>
<path d="M156.416,202.96 L132.905,202.96 L125.639,180.599 L144.66,166.78 L163.681,180.599 Z" fill="rgba(102,194,165,1)" stroke="rgba(0,0,0,1)" stroke-width="1"/>
<path d="M202.66,202.96 L182.66,202.96 L172.66,185.639 L182.66,168.319 L202.66,168.319 L212.66,185.639 Z" fill="rgba(255,217,47,1)" stroke="rgba(0,0,0,1)" stroke-width="1"/>
</svg>