<svg xmlns="http://www.w3.org/2000/svg" viewBox="-280.16 -173.16 757.74 454.33">
<path d="M-164,-93 C-164,-73.118 -180.118,-57 -200,-57 C-219.882,-57 -236,-73.118 -236,-93 C-236,-112.882 -219.882,-129 -200,-129 C-180.118,-129 -164,-112.882 -164,-93 Z" fill="rgba(80,19,69,1)" stroke="rgba(248,237,67,1)" stroke-width="3"/>
<path d="M27.009,-47.099 C27.009,-27.216 10.891,-11.099 -8.991,-11.099 C-28.873,-11.099 -44.991,-27.216 -44.991,-47.099 C-44.991,-66.981 -28.873,-83.099 -8.991,-83.099 C10.891,-83.099 27.009,-66.981 27.009,-47.099 Z" fill="rgba(118,48,80,1)" stroke="rgba(173,241,107,1)" stroke-width="4"/>
<path d="M230.21,1.733 C230.21,21.615 214.093,37.733 194.21,37.733 C174.328,37.733 158.21,21.615 158.21,1.733 C158.21,-18.15 174.328,-34.267 194.21,-34.267 C214.093,-34.267 230.21,-18.15 230.21,1.733 Z" fill="rgba(151,81,91,1)" stroke="rgba(107,236,156,1)" stroke-width="5"/>
<path d="M433.411,50.564 C433.411,70.446 417.294,86.564 397.411,86.564 C377.529,86.564 361.411,70.446 361.411,50.564 C361.411,30.682 377.529,14.564 397.411,14.564 C417.294,14.564 433.411,30.682 433.411,50.564 Z" fill="rgba(179,117,107,1)" stroke="rgba(64,225,197,1)" stroke-width="6"/>
<path d="M341.572,140.572 C341.572,160.455 325.455,176.572 305.572,176.572 C285.69,176.572 269.572,160.455 269.572,140.572 C269.572,120.69 285.69,104.572 305.572,104.572 C325.455,104.572 341.572,120.69 341.572,140.572 Z" fill="rgba(203,156,128,1)" stroke="rgba(82,209,220,1)" stroke-width="7"/>
<path d="M139.488,179.588 C139.488,199.47 123.37,215.588 103.488,215.588 C83.606,215.588 67.488,199.47 67.488,179.588 C67.488,159.706 83.606,143.588 103.488,143.588 C123.37,143.588 139.488,159.706 139.488,179.588 Z" fill="rgba(225,196,157,1)" stroke="rgba(123,190,219,1)" stroke-width="8"/>
<path d="M-81,201 C-81,220.882 -97.118,237 -117,237 C-136.882,237 -153,220.882 -153,201 C-153,181.118 -136.882,165 -117,165 C-97.118,165 -81,181.118 -81,201 Z" fill="rgba(245,236,194,1)" stroke="rgba(151,172,200,1)" stroke-width="9"/>
<text x="-213.9" y="-75" text-anchor="start" font-family="Verdana-Bold, Helvetica, Arial, sans-serif" font-size="50" fill="rgba(246,140,80,1)">1</text>
<text x="-22.890898714937432" y="-29.098588063279536" text-anchor="start" font-family="Verdana-Bold, Helvetica, Arial, sans-serif" font-size="50" fill="rgba(198,131,57,1)">2</text>
<text x="180.3102728649163" y="19.732701231103917" text-anchor="start" font-family="Verdana-Bold, Helvetica, Arial, sans-serif" font-size="50" fill="rgba(153,119,45,1)">3</text>
<text x="383.5114444447702" y="68.56399052548741" text-anchor="start" font-family="Verdana-Bold, Helvetica, Arial, sans-serif" font-size="50" fill="rgba(114,105,40,1)">4</text>
<text x="291.6723832375816" y="158.57246911473305" text-anchor="start" font-family="Verdana-Bold, Helvetica, Arial, sans-serif" font-size="50" fill="rgba(81,87,39,1)">5</text>
<text x="89.58805771035236" y="197.58777392314164" text-anchor="start" font-family="Verdana-Bold, Helvetica, Arial, sans-serif" font-size="50" fill="rgba(55,69,38,1)">6</text>
<text x="-130.9" y="219" text-anchor="start" font-family="Verdana-Bold, Helvetica, Arial, sans-serif" font-size="50" fill="rgba(37,49,34,1)">7</text>
</svg>