<svg xmlns="http://www.w3.org/2000/svg" viewBox="-272.31 -151.85 544.61 407.69">
<text x="-5.5600000000000005" y="0" text-anchor="start" font-family="Verdana, Helvetica, Arial, sans-serif" font-size="20" fill="rgba(0,0,0,1)" transform="matrix(1 0 0 1 0 -104.7)">1</text>
<text x="-5.5600000000000005" y="0" text-anchor="start" font-family="Verdana, Helvetica, Arial, sans-serif" font-size="20" fill="rgba(0,0,0,1)" transform="matrix(1 0 0 1 -26 -68.7)">1</text>
<text x="-5.5600000000000005" y="0" text-anchor="start" font-family="Verdana, Helvetica, Arial, sans-serif" font-size="20" fill="rgba(0,0,0,1)" transform="matrix(1 0 0 1 26 -68.7)">1</text>
<text x="-5.5600000000000005" y="0" text-anchor="start" font-family="Verdana, Helvetica, Arial, sans-serif" font-size="20" fill="rgba(0,0,0,1)" transform="matrix(1 0 0 1 -52 -32.69999999999999)">1</text>
<text x="-5.5600000000000005" y="0" text-anchor="start" font-family="Verdana, Helvetica, Arial, sans-serif" font-size="20" fill="rgba(0,0,0,1)" transform="matrix(1 0 0 1 0 -32.69999999999999)">2</text>
<text x="-5.5600000000000005" y="0" text-anchor="start" font-family="Verdana, Helvetica, Arial, sans-serif" font-size="20" fill="rgba(0,0,0,1)" transform="matrix(1 0 0 1 52 -32.69999999999999)">1</text>
<text x="-5.5600000000000005" y="0" text-anchor="start" font-family="Verdana, Helvetica, Arial, sans-serif" font-size="20" fill="rgba(0,0,0,1)" transform="matrix(1 0 0 1 -78 3.3000000000000114)">1</text>
<text x="-5.5600000000000005" y="0" text-anchor="start" font-family="Verdana, Helvetica, Arial, sans-serif" font-size="20" fill="rgba(0,0,0,1)" transform="matrix(1 0 0 1 -26 3.3000000000000114)">3</text>
<text x="-5.5600000000000005" y="0" text-anchor="start" font-family="Verdana, Helvetica, Arial, sans-serif" font-size="20" fill="rgba(0,0,0,1)" transform="matrix(1 0 0 1 26 3.3000000000000114)">3</text>
<text x="-5.5600000000000005" y="0" text-anchor="start" font-family="Verdana, Helvetica, Arial, sans-serif" font-size="20" fill="rgba(0,0,0,1)" transform="matrix(1 0 0 1 78 3.3000000000000114)">1</text>
<text x="-5.5600000000000005" y="0" text-anchor="start" font-family="Verdana, Helvetica, Arial, sans-serif" font-size="20" fill="rgba(0,0,0,1)" transform="matrix(1 0 0 1 -104 39.30000000000001)">1</text>
<text x="-5.5600000000000005" y="0" text-anchor="start" font-family="Verdana, Helvetica, Arial, sans-serif" font-size="20" fill="rgba(0,0,0,1)" transform="matrix(1 0 0 1 -52 39.30000000000001)">4</text>
<text x="-5.5600000000000005" y="0" text-anchor="start" font-family="Verdana, Helvetica, Arial, sans-serif" font-size="20" fill="rgba(0,0,0,1)" transform="matrix(1 0 0 1 0 39.30000000000001)">6</text>
<text x="-5.5600000000000005" y="0" text-anchor="start" font-family="Verdana, Helvetica, Arial, sans-serif" font-size="20" fill="rgba(0,0,0,1)" transform="matrix(1 0 0 1 52 39.30000000000001)">4</text>
<text x="-5.5600000000000005" y="0" text-anchor="start" font-family="Verdana, Helvetica, Arial, sans-serif" font-size="20" fill="rgba(0,0,0,1)" transform="matrix(1 0 0 1 104 39.30000000000001)">1</text>
<text x="-5.5600000000000005" y="0" text-anchor="start" font-family="Verdana, Helvetica, Arial, sans-serif" font-size="20" fill="rgba(0,0,0,1)" transform="matrix(1 0 0 1 -130 75.30000000000001)">1</text>
<text x="-5.5600000000000005" y="0" text-anchor="start" font-family="Verdana, Helvetica, Arial, sans-serif" font-size="20" fill="rgba(0,0,0,1)" transform="matrix(1 0 0 1 -78 75.30000000000001)">5</text>
<text x="-11.120000000000001" y="0" text-anchor="start" font-family="Verdana, Helvetica, Arial, sans-serif" font-size="20" fill="rgba(0,0,0,1)" transform="matrix(1 0 0 1 -26 75.30000000000001)">10</text>
<text x="-11.120000000000001" y="0" text-anchor="start" font-family="Verdana, Helvetica, Arial, sans-serif" font-size="20" fill="rgba(0,0,0,1)" transform="matrix(1 0 0 1 26.000000000000004 75.30000000000001)">10</text>
<text x="-5.5600000000000005" y="0" text-anchor="start" font-family="Verdana, Helvetica, Arial, sans-serif" font-size="20" fill="rgba(0,0,0,1)" transform="matrix(1 0 0 1 78 75.30000000000001)">5</text>
<text x="-5.5600000000000005" y="0" text-anchor="start" font-family="Verdana, Helvetica, Arial, sans-serif" font-size="20" fill="rgba(0,0,0,1)" transform="matrix(1 0 0 1 130 75.30000000000001)">1</text>
<text x="-5.5600000000000005" y="0" text-anchor="start" font-family="Verdana, Helvetica, Arial, sans-serif" font-size="20" fill="rgba(0,0,0,1)" transform="matrix(1 0 0 1 -156 111.30000000000001)">1</text>
<text x="-5.5600000000000005" y="0" text-anchor="start" font-family="Verdana, Helvetica, Arial, sans-serif" font-size="20" fill="rgba(0,0,0,1)" transform="matrix(1 0 0 1 -104 111.30000000000001)">6</text>
<text x="-11.120000000000001" y="0" text-anchor="start" font-family="Verdana, Helvetica, Arial, sans-serif" font-size="20" fill="rgba(0,0,0,1)" transform="matrix(1 0 0 1 -52 111.30000000000001)">15</text>
<text x="-11.120000000000001" y="0" text-anchor="start" font-family="Verdana, Helvetica, Arial, sans-serif" font-size="20" fill="rgba(0,0,0,1)" transform="matrix(1 0 0 1 0 111.30000000000001)">20</text>
<text x="-11.120000000000001" y="0" text-anchor="start" font-family="Verdana, Helvetica, Arial, sans-serif" font-size="20" fill="rgba(0,0,0,1)" transform="matrix(1 0 0 1 52 111.30000000000001)">15</text>
<text x="-5.5600000000000005" y="0" text-anchor="start" font-family="Verdana, Helvetica, Arial, sans-serif" font-size="20" fill="rgba(0,0,0,1)" transform="matrix(1 0 0 1 104 111.30000000000001)">6</text>
<text x="-5.5600000000000005" y="0" text-anchor="start" font-family="Verdana, Helvetica, Arial, sans-serif" font-size="20" fill="rgba(0,0,0,1)" transform="matrix(1 0 0 1 156 111.30000000000001)">1</text>
<text x="-5.5600000000000005" y="0" text-anchor="start" font-family="Verdana, Helvetica, Arial, sans-serif" font-size="20" fill="rgba(0,0,0,1)" transform="matrix(1 0 0 1 -182 147.29999999999995)">1</text>
<text x="-5.5600000000000005" y="0" text-anchor="start" font-family="Verdana, Helvetica, Arial, sans-serif" font-size="20" fill="rgba(0,0,0,1)" transform="matrix(1 0 0 1 -130 147.29999999999995)">7</text>
<text x="-11.120000000000001" y="0" text-anchor="start" font-family="Verdana, Helvetica, Arial, sans-serif" font-size="20" fill="rgba(0,0,0,1)" transform="matrix(1 0 0 1 -78 147.29999999999995)">21</text>
<text x="-11.120000000000001" y="0" text-anchor="start" font-family="Verdana, Helvetica, Arial, sans-serif" font-size="20" fill="rgba(0,0,0,1)" transform="matrix(1 0 0 1 -26 147.29999999999995)">35</text>
<text x="-11.120000000000001" y="0" text-anchor="start" font-family="Verdana, Helvetica, Arial, sans-serif" font-size="20" fill="rgba(0,0,0,1)" transform="matrix(1 0 0 1 26.000000000000004 147.29999999999995)">35</text>
<text x="-11.120000000000001" y="0" text-anchor="start" font-family="Verdana, Helvetica, Arial, sans-serif" font-size="20" fill="rgba(0,0,0,1)" transform="matrix(1 0 0 1 78 147.29999999999995)">21</text>
<text x="-5.5600000000000005" y="0" text-anchor="start" font-family="Verdana, Helvetica, Arial, sans-serif" font-size="20" fill="rgba(0,0,0,1)" transform="matrix(1 0 0 1 130 147.29999999999995)">7</text>
<text x="-5.5600000000000005" y="0" text-anchor="start" font-family="Verdana, Helvetica, Arial, sans-serif" font-size="20" fill="rgba(0,0,0,1)" transform="matrix(1 0 0 1 182 147.29999999999995)">1</text>
<text x="-5.5600000000000005" y="0" text-anchor="start" font-family="Verdana, Helvetica, Arial, sans-serif" font-size="20" fill="rgba(0,0,0,1)" transform="matrix(1 0 0 1 -208 183.29999999999995)">1</text>
<text x="-5.5600000000000005" y="0" text-anchor="start" font-family="Verdana, Helvetica, Arial, sans-serif" font-size="20" fill="rgba(0,0,0,1)" transform="matrix(1 0 0 1 -156 183.29999999999995)">8</text>
<text x="-11.120000000000001" y="0" text-anchor="start" font-family="Verdana, Helvetica, Arial, sans-serif" font-size="20" fill="rgba(0,0,0,1)" transform="matrix(1 0 0 1 -104 183.29999999999995)">28</text>
<text x="-11.120000000000001" y="0" text-anchor="start" font-family="Verdana, Helvetica, Arial, sans-serif" font-size="20" fill="rgba(0,0,0,1)" transform="matrix(1 0 0 1 -52 183.29999999999995)">56</text>
<text x="-11.120000000000001" y="0" text-anchor="start" font-family="Verdana, Helvetica, Arial, sans-serif" font-size="20" fill="rgba(0,0,0,1)" transform="matrix(1 0 0 1 0 183.29999999999995)">70</text>
<text x="-11.120000000000001" y="0" text-anchor="start" font-family="Verdana, Helvetica, Arial, sans-serif" font-size="20" fill="rgba(0,0,0,1)" transform="matrix(1 0 0 1 52 183.29999999999995)">56</text>
<text x="-11.120000000000001" y="0" text-anchor="start" font-family="Verdana, Helvetica, Arial, sans-serif" font-size="20" fill="rgba(0,0,0,1)" transform="matrix(1 0 0 1 104 183.29999999999995)">28</text>
<text x="-5.5600000000000005" y="0" text-anchor="start" font-family="Verdana, Helvetica, Arial, sans-serif" font-size="20" fill="rgba(0,0,0,1)" transform="matrix(1 0 0 1 156 183.29999999999995)">8</text>
<text x="-5.5600000000000005" y="0" text-anchor="start" font-family="Verdana, Helvetica, Arial, sans-serif" font-size="20" fill="rgba(0,0,0,1)" transform="matrix(1 0 0 1 208 183.29999999999995)">1</text>
<text x="-5.5600000000000005" y="0" text-anchor="start" font-family="Verdana, Helvetica, Arial, sans-serif" font-size="20" fill="rgba(0,0,0,1)" transform="matrix(1 0 0 1 -234 219.29999999999995)">1</text>
<text x="-5.5600000000000005" y="0" text-anchor="start" font-family="Verdana, Helvetica, Arial, sans-serif" font-size="20" fill="rgba(0,0,0,1)" transform="matrix(1 0 0 1 -182 219.29999999999995)">9</text>
<text x="-11.120000000000001" y="0" text-anchor="start" font-family="Verdana, Helvetica, Arial, sans-serif" font-size="20" fill="rgba(0,0,0,1)" transform="matrix(1 0 0 1 -130 219.29999999999995)">36</text>
<text x="-11.120000000000001" y="0" text-anchor="start" font-family="Verdana, Helvetica, Arial, sans-serif" font-size="20" fill="rgba(0,0,0,1)" transform="matrix(1 0 0 1 -78 219.29999999999995)">84</text>
<text x="-16.68" y="0" text-anchor="start" font-family="Verdana, Helvetica, Arial, sans-serif" font-size="20" fill="rgba(0,0,0,1)" transform="matrix(1 0 0 1 -26 219.29999999999995)">126</text>
<text x="-16.68" y="0" text-anchor="start" font-family="Verdana, Helvetica, Arial, sans-serif" font-size="20" fill="rgba(0,0,0,1)" transform="matrix(1 0 0 1 26 219.29999999999995)">126</text>
<text x="-11.120000000000001" y="0" text-anchor="start" font-family="Verdana, Helvetica, Arial, sans-serif" font-size="20" fill="rgba(0,0,0,1)" transform="matrix(1 0 0 1 78 219.29999999999995)">84</text>
<text x="-11.120000000000001" y="0" text-anchor="start" font-family="Verdana, Helvetica, Arial, sans-serif" font-size="20" fill="rgba(0,0,0,1)" transform="matrix(1 0 0 1 130 219.29999999999995)">36</text>
<text x="-5.5600000000000005" y="0" text-anchor="start" font-family="Verdana, Helvetica, Arial, sans-serif" font-size="20" fill="rgba(0,0,0,1)" transform="matrix(1 0 0 1 182 219.29999999999995)">9</text>
<text x="-5.5600000000000005" y="0" text-anchor="start" font-family="Verdana, Helvetica, Arial, sans-serif" font-size="20" fill="rgba(0,0,0,1)" transform="matrix(1 0 0 1 234 219.29999999999995)">1</text>
</svg>