<svg xmlns="http://www.w3.org/2000/svg" viewBox="-205.6 -165.6 411.2 411.2">
<path d="M-180,-140 L-168,-140 L-168,-128 L-180,-128 Z" fill="rgba(50,100,101,1)"/>
<path d="M-168,-140 L-156,-140 L-156,-128 L-168,-128 Z" fill="rgba(59,118,118,1)"/>
<path d="M-156,-140 L-144,-140 L-144,-128 L-156,-128 Z" fill="rgba(74,147,148,1)"/>
<path d="M-144,-140 L-132,-140 L-132,-128 L-144,-128 Z" fill="rgba(88,176,177,1)"/>
<path d="M-132,-140 L-120,-140 L-120,-128 L-132,-128 Z" fill="rgba(97,194,195,1)"/>
<path d="M-120,-140 L-108,-140 L-108,-128 L-120,-128 Z" fill="rgba(97,193,194,1)"/>
<path d="M-108,-140 L-96,-140 L-96,-128 L-108,-128 Z" fill="rgba(88,176,177,1)"/>
<path d="M-96,-140 L-84,-140 L-84,-128 L-96,-128 Z" fill="rgba(76,152,153,1)"/>
<path d="M-84,-140 L-72,-140 L-72,-128 L-84,-128 Z" fill="rgba(62,123,124,1)"/>
<path d="M-72,-140 L-60,-140 L-60,-128 L-72,-128 Z" fill="rgba(48,96,96,1)"/>
<path d="M-60,-140 L-48,-140 L-48,-128 L-60,-128 Z" fill="rgba(40,80,80,1)"/>
<path d="M-48,-140 L-36,-140 L-36,-128 L-48,-128 Z" fill="rgba(42,83,84,1)"/>
<path d="M-36,-140 L-24,-140 L-24,-128 L-36,-128 Z" fill="rgba(52,104,105,1)"/>
<path d="M-24,-140 L-12,-140 L-12,-128 L-24,-128 Z" fill="rgba(67,133,134,1)"/>
<path d="M-12,-140 L0,-140 L0,-128 L-12,-128 Z" fill="rgba(81,161,162,1)"/>
<path d="M0,-140 L12,-140 L12,-128 L0,-128 Z" fill="rgba(92,184,185,1)"/>
<path d="M12,-140 L24,-140 L24,-128 L12,-128 Z" fill="rgba(104,209,210,1)"/>
<path d="M24,-140 L36,-140 L36,-128 L24,-128 Z" fill="rgba(115,230,231,1)"/>
<path d="M36,-140 L48,-140 L48,-128 L36,-128 Z" fill="rgba(119,237,239,1)"/>
<path d="M48,-140 L60,-140 L60,-128 L48,-128 Z" fill="rgba(112,224,225,1)"/>
<path d="M60,-140 L72,-140 L72,-128 L60,-128 Z" fill="rgba(96,191,192,1)"/>
<path d="M72,-140 L84,-140 L84,-128 L72,-128 Z" fill="rgba(75,150,151,1)"/>
<path d="M84,-140 L96,-140 L96,-128 L84,-128 Z" fill="rgba(56,113,113,1)"/>
<path d="M96,-140 L108,-140 L108,-128 L96,-128 Z" fill="rgba(43,85,86,1)"/>
<path d="M108,-140 L120,-140 L120,-128 L108,-128 Z" fill="rgba(30,59,59,1)"/>
<path d="M120,-140 L132,-140 L132,-128 L120,-128 Z" fill="rgba(17,35,35,1)"/>
<path d="M132,-140 L144,-140 L144,-128 L132,-128 Z" fill="rgba(11,22,22,1)"/>
<path d="M144,-140 L156,-140 L156,-128 L144,-128 Z" fill="rgba(14,29,29,1)"/>
<path d="M156,-140 L168,-140 L168,-128 L156,-128 Z" fill="rgba(27,55,55,1)"/>
<path d="M168,-140 L180,-140 L180,-128 L168,-128 Z" fill="rgba(46,92,92,1)"/>
<path d="M-180,-128 L-168,-128 L-168,-116 L-180,-116 Z" fill="rgba(63,125,126,1)"/>
<path d="M-168,-128 L-156,-128 L-156,-116 L-168,-116 Z" fill="rgba(72,143,144,1)"/>
<path d="M-156,-128 L-144,-128 L-144,-116 L-156,-116 Z" fill="rgba(86,171,172,1)"/>
<path d="M-144,-128 L-132,-128 L-132,-116 L-144,-116 Z" fill="rgba(99,198,200,1)"/>
<path d="M-132,-128 L-120,-128 L-120,-116 L-132,-116 Z" fill="rgba(108,216,217,1)"/>
<path d="M-120,-128 L-108,-128 L-108,-116 L-120,-116 Z" fill="rgba(109,217,219,1)"/>
<path d="M-108,-128 L-96,-128 L-96,-116 L-108,-116 Z" fill="rgba(102,204,205,1)"/>
<path d="M-96,-128 L-84,-128 L-84,-116 L-96,-116 Z" fill="rgba(93,185,186,1)"/>
<path d="M-84,-128 L-72,-128 L-72,-116 L-84,-116 Z" fill="rgba(81,161,162,1)"/>
<path d="M-72,-128 L-60,-128 L-60,-116 L-72,-116 Z" fill="rgba(70,139,140,1)"/>
<path d="M-60,-128 L-48,-128 L-48,-116 L-60,-116 Z" fill="rgba(63,126,127,1)"/>
<path d="M-48,-128 L-36,-128 L-36,-116 L-48,-116 Z" fill="rgba(65,129,130,1)"/>
<path d="M-36,-128 L-24,-128 L-24,-116 L-36,-116 Z" fill="rgba(73,146,146,1)"/>
<path d="M-24,-128 L-12,-128 L-12,-116 L-24,-116 Z" fill="rgba(85,169,170,1)"/>
<path d="M-12,-128 L0,-128 L0,-116 L-12,-116 Z" fill="rgba(96,192,193,1)"/>
<path d="M0,-128 L12,-128 L12,-116 L0,-116 Z" fill="rgba(105,210,211,1)"/>
<path d="M12,-128 L24,-128 L24,-116 L12,-116 Z" fill="rgba(115,229,230,1)"/>
<path d="M24,-128 L36,-128 L36,-116 L24,-116 Z" fill="rgba(121,242,243,1)"/>
<path d="M36,-128 L48,-128 L48,-116 L36,-116 Z" fill="rgba(120,239,241,1)"/>
<path d="M48,-128 L60,-128 L60,-116 L48,-116 Z" fill="rgba(108,216,218,1)"/>
<path d="M60,-128 L72,-128 L72,-116 L60,-116 Z" fill="rgba(89,177,178,1)"/>
<path d="M72,-128 L84,-128 L84,-116 L72,-116 Z" fill="rgba(66,132,132,1)"/>
<path d="M84,-128 L96,-128 L96,-116 L84,-116 Z" fill="rgba(47,93,94,1)"/>
<path d="M96,-128 L108,-128 L108,-116 L96,-116 Z" fill="rgba(33,66,66,1)"/>
<path d="M108,-128 L120,-128 L120,-116 L108,-116 Z" fill="rgba(21,41,42,1)"/>
<path d="M120,-128 L132,-128 L132,-116 L120,-116 Z" fill="rgba(12,24,24,1)"/>
<path d="M132,-128 L144,-128 L144,-116 L132,-116 Z" fill="rgba(12,23,23,1)"/>
<path d="M144,-128 L156,-128 L156,-116 L144,-116 Z" fill="rgba(21,41,41,1)"/>
<path d="M156,-128 L168,-128 L168,-116 L156,-116 Z" fill="rgba(38,75,76,1)"/>
<path d="M168,-128 L180,-128 L180,-116 L168,-116 Z" fill="rgba(57,114,115,1)"/>
<path d="M-180,-116 L-168,-116 L-168,-104 L-180,-104 Z" fill="rgba(74,147,148,1)"/>
<path d="M-168,-116 L-156,-116 L-156,-104 L-168,-104 Z" fill="rgba(81,162,163,1)"/>
<path d="M-156,-116 L-144,-116 L-144,-104 L-156,-104 Z" fill="rgba(92,184,185,1)"/>
<path d="M-144,-116 L-132,-116 L-132,-104 L-144,-104 Z" fill="rgba(104,207,208,1)"/>
<path d="M-132,-116 L-120,-116 L-120,-104 L-132,-104 Z" fill="rgba(111,221,223,1)"/>
<path d="M-120,-116 L-108,-116 L-108,-104 L-120,-104 Z" fill="rgba(112,224,225,1)"/>
<path d="M-108,-116 L-96,-116 L-96,-104 L-108,-104 Z" fill="rgba(107,214,216,1)"/>
<path d="M-96,-116 L-84,-116 L-84,-104 L-96,-104 Z" fill="rgba(101,201,202,1)"/>
<path d="M-84,-116 L-72,-116 L-72,-104 L-84,-104 Z" fill="rgba(93,185,186,1)"/>
<path d="M-72,-116 L-60,-116 L-60,-104 L-72,-104 Z" fill="rgba(85,169,170,1)"/>
<path d="M-60,-116 L-48,-116 L-48,-104 L-60,-104 Z" fill="rgba(80,160,161,1)"/>
<path d="M-48,-116 L-36,-116 L-36,-104 L-48,-104 Z" fill="rgba(81,162,163,1)"/>
<path d="M-36,-116 L-24,-116 L-24,-104 L-36,-104 Z" fill="rgba(87,174,175,1)"/>
<path d="M-24,-116 L-12,-116 L-12,-104 L-24,-104 Z" fill="rgba(95,190,191,1)"/>
<path d="M-12,-116 L0,-116 L0,-104 L-12,-104 Z" fill="rgba(103,206,207,1)"/>
<path d="M0,-116 L12,-116 L12,-104 L0,-104 Z" fill="rgba(110,219,220,1)"/>
<path d="M12,-116 L24,-116 L24,-104 L12,-104 Z" fill="rgba(116,231,232,1)"/>
<path d="M24,-116 L36,-116 L36,-104 L24,-104 Z" fill="rgba(119,237,239,1)"/>
<path d="M36,-116 L48,-116 L48,-104 L36,-104 Z" fill="rgba(114,228,230,1)"/>
<path d="M48,-116 L60,-116 L60,-104 L48,-104 Z" fill="rgba(101,201,203,1)"/>
<path d="M60,-116 L72,-116 L72,-104 L60,-104 Z" fill="rgba(80,160,161,1)"/>
<path d="M72,-116 L84,-116 L84,-104 L72,-104 Z" fill="rgba(58,115,115,1)"/>
<path d="M84,-116 L96,-116 L96,-104 L84,-104 Z" fill="rgba(39,77,77,1)"/>
<path d="M96,-116 L108,-116 L108,-104 L96,-104 Z" fill="rgba(25,50,50,1)"/>
<path d="M108,-116 L120,-116 L120,-104 L108,-104 Z" fill="rgba(14,27,27,1)"/>
<path d="M120,-116 L132,-116 L132,-104 L120,-104 Z" fill="rgba(9,17,17,1)"/>
<path d="M132,-116 L144,-116 L144,-104 L132,-104 Z" fill="rgba(13,26,26,1)"/>
<path d="M144,-116 L156,-116 L156,-104 L144,-104 Z" fill="rgba(27,54,54,1)"/>
<path d="M156,-116 L168,-116 L168,-104 L156,-104 Z" fill="rgba(46,92,93,1)"/>
<path d="M168,-116 L180,-116 L180,-104 L168,-104 Z" fill="rgba(65,130,130,1)"/>
<path d="M-180,-104 L-168,-104 L-168,-92 L-180,-92 Z" fill="rgba(79,157,158,1)"/>
<path d="M-168,-104 L-156,-104 L-156,-92 L-168,-92 Z" fill="rgba(84,167,168,1)"/>
<path d="M-156,-104 L-144,-104 L-144,-92 L-156,-92 Z" fill="rgba(91,181,182,1)"/>
<path d="M-144,-104 L-132,-104 L-132,-92 L-144,-92 Z" fill="rgba(98,196,197,1)"/>
<path d="M-132,-104 L-120,-104 L-120,-92 L-132,-92 Z" fill="rgba(103,206,207,1)"/>
<path d="M-120,-104 L-108,-104 L-108,-92 L-120,-92 Z" fill="rgba(104,208,209,1)"/>
<path d="M-108,-104 L-96,-104 L-96,-92 L-108,-92 Z" fill="rgba(102,203,204,1)"/>
<path d="M-96,-104 L-84,-104 L-84,-92 L-96,-92 Z" fill="rgba(98,195,197,1)"/>
<path d="M-84,-104 L-72,-104 L-72,-92 L-84,-92 Z" fill="rgba(93,186,187,1)"/>
<path d="M-72,-104 L-60,-104 L-60,-92 L-72,-92 Z" fill="rgba(89,177,178,1)"/>
<path d="M-60,-104 L-48,-104 L-48,-92 L-60,-92 Z" fill="rgba(86,172,173,1)"/>
<path d="M-48,-104 L-36,-104 L-36,-92 L-48,-92 Z" fill="rgba(87,173,174,1)"/>
<path d="M-36,-104 L-24,-104 L-24,-92 L-36,-92 Z" fill="rgba(90,180,181,1)"/>
<path d="M-24,-104 L-12,-104 L-12,-92 L-24,-92 Z" fill="rgba(95,189,190,1)"/>
<path d="M-12,-104 L0,-104 L0,-92 L-12,-92 Z" fill="rgba(99,198,199,1)"/>
<path d="M0,-104 L12,-104 L12,-92 L0,-92 Z" fill="rgba(103,205,207,1)"/>
<path d="M12,-104 L24,-104 L24,-92 L12,-92 Z" fill="rgba(107,213,214,1)"/>
<path d="M24,-104 L36,-104 L36,-92 L24,-92 Z" fill="rgba(108,216,217,1)"/>
<path d="M36,-104 L48,-104 L48,-92 L36,-92 Z" fill="rgba(104,207,209,1)"/>
<path d="M48,-104 L60,-104 L60,-92 L48,-92 Z" fill="rgba(92,183,184,1)"/>
<path d="M60,-104 L72,-104 L72,-92 L60,-92 Z" fill="rgba(74,147,148,1)"/>
<path d="M72,-104 L84,-104 L84,-92 L72,-92 Z" fill="rgba(53,107,107,1)"/>
<path d="M84,-104 L96,-104 L96,-92 L84,-92 Z" fill="rgba(36,71,72,1)"/>
<path d="M96,-104 L108,-104 L108,-92 L96,-92 Z" fill="rgba(22,44,45,1)"/>
<path d="M108,-104 L120,-104 L120,-92 L108,-92 Z" fill="rgba(12,24,24,1)"/>
<path d="M120,-104 L132,-104 L132,-92 L120,-92 Z" fill="rgba(9,19,19,1)"/>
<path d="M132,-104 L144,-104 L144,-92 L132,-92 Z" fill="rgba(17,34,35,1)"/>
<path d="M144,-104 L156,-104 L156,-92 L144,-92 Z" fill="rgba(33,67,67,1)"/>
<path d="M156,-104 L168,-104 L168,-92 L156,-92 Z" fill="rgba(53,105,106,1)"/>
<path d="M168,-104 L180,-104 L180,-92 L168,-92 Z" fill="rgba(68,137,137,1)"/>
<path d="M-180,-92 L-168,-92 L-168,-80 L-180,-80 Z" fill="rgba(76,151,152,1)"/>
<path d="M-168,-92 L-156,-92 L-156,-80 L-168,-80 Z" fill="rgba(78,156,157,1)"/>
<path d="M-156,-92 L-144,-92 L-144,-80 L-156,-80 Z" fill="rgba(82,163,164,1)"/>
<path d="M-144,-92 L-132,-92 L-132,-80 L-144,-80 Z" fill="rgba(85,170,171,1)"/>
<path d="M-132,-92 L-120,-92 L-120,-80 L-132,-80 Z" fill="rgba(88,175,176,1)"/>
<path d="M-120,-92 L-108,-92 L-108,-80 L-120,-80 Z" fill="rgba(88,176,177,1)"/>
<path d="M-108,-92 L-96,-92 L-96,-80 L-108,-80 Z" fill="rgba(87,174,176,1)"/>
<path d="M-96,-92 L-84,-92 L-84,-80 L-96,-80 Z" fill="rgba(86,171,172,1)"/>
<path d="M-84,-92 L-72,-92 L-72,-80 L-84,-80 Z" fill="rgba(84,168,169,1)"/>
<path d="M-72,-92 L-60,-92 L-60,-80 L-72,-80 Z" fill="rgba(82,164,165,1)"/>
<path d="M-60,-92 L-48,-92 L-48,-80 L-60,-80 Z" fill="rgba(81,162,163,1)"/>
<path d="M-48,-92 L-36,-92 L-36,-80 L-48,-80 Z" fill="rgba(81,163,163,1)"/>
<path d="M-36,-92 L-24,-92 L-24,-80 L-36,-80 Z" fill="rgba(83,165,166,1)"/>
<path d="M-24,-92 L-12,-92 L-12,-80 L-24,-80 Z" fill="rgba(85,169,170,1)"/>
<path d="M-12,-92 L0,-92 L0,-80 L-12,-80 Z" fill="rgba(86,173,174,1)"/>
<path d="M0,-92 L12,-92 L12,-80 L0,-80 Z" fill="rgba(88,176,177,1)"/>
<path d="M12,-92 L24,-92 L24,-80 L12,-80 Z" fill="rgba(90,181,182,1)"/>
<path d="M24,-92 L36,-92 L36,-80 L24,-80 Z" fill="rgba(93,185,186,1)"/>
<path d="M36,-92 L48,-92 L48,-80 L36,-80 Z" fill="rgba(91,183,184,1)"/>
<path d="M48,-92 L60,-92 L60,-80 L48,-80 Z" fill="rgba(84,168,169,1)"/>
<path d="M60,-92 L72,-92 L72,-80 L60,-80 Z" fill="rgba(71,142,143,1)"/>
<path d="M72,-92 L84,-92 L84,-80 L72,-80 Z" fill="rgba(55,110,111,1)"/>
<path d="M84,-92 L96,-92 L96,-80 L84,-80 Z" fill="rgba(40,79,80,1)"/>
<path d="M96,-92 L108,-92 L108,-80 L96,-80 Z" fill="rgba(27,53,53,1)"/>
<path d="M108,-92 L120,-92 L120,-80 L108,-80 Z" fill="rgba(16,33,33,1)"/>
<path d="M120,-92 L132,-92 L132,-80 L120,-80 Z" fill="rgba(15,30,30,1)"/>
<path d="M132,-92 L144,-92 L144,-80 L132,-80 Z" fill="rgba(24,48,48,1)"/>
<path d="M144,-92 L156,-92 L156,-80 L144,-80 Z" fill="rgba(40,79,80,1)"/>
<path d="M156,-92 L168,-92 L168,-80 L156,-80 Z" fill="rgba(57,113,114,1)"/>
<path d="M168,-92 L180,-92 L180,-80 L168,-80 Z" fill="rgba(69,137,138,1)"/>
<path d="M-180,-80 L-168,-80 L-168,-68 L-180,-68 Z" fill="rgba(66,133,133,1)"/>
<path d="M-168,-80 L-156,-80 L-156,-68 L-168,-68 Z" fill="rgba(67,134,135,1)"/>
<path d="M-156,-80 L-144,-80 L-144,-68 L-156,-68 Z" fill="rgba(68,137,137,1)"/>
<path d="M-144,-80 L-132,-80 L-132,-68 L-144,-68 Z" fill="rgba(70,139,140,1)"/>
<path d="M-132,-80 L-120,-80 L-120,-68 L-132,-68 Z" fill="rgba(70,140,141,1)"/>
<path d="M-120,-80 L-108,-80 L-108,-68 L-120,-68 Z" fill="rgba(71,141,142,1)"/>
<path d="M-108,-80 L-96,-80 L-96,-68 L-108,-68 Z" fill="rgba(70,141,142,1)"/>
<path d="M-96,-80 L-84,-80 L-84,-68 L-96,-68 Z" fill="rgba(70,140,141,1)"/>
<path d="M-84,-80 L-72,-80 L-72,-68 L-84,-68 Z" fill="rgba(70,139,140,1)"/>
<path d="M-72,-80 L-60,-80 L-60,-68 L-72,-68 Z" fill="rgba(69,139,140,1)"/>
<path d="M-60,-80 L-48,-80 L-48,-68 L-60,-68 Z" fill="rgba(69,138,139,1)"/>
<path d="M-48,-80 L-36,-80 L-36,-68 L-48,-68 Z" fill="rgba(69,138,139,1)"/>
<path d="M-36,-80 L-24,-80 L-24,-68 L-36,-68 Z" fill="rgba(70,139,140,1)"/>
<path d="M-24,-80 L-12,-80 L-12,-68 L-24,-68 Z" fill="rgba(70,140,140,1)"/>
<path d="M-12,-80 L0,-80 L0,-68 L-12,-68 Z" fill="rgba(70,140,141,1)"/>
<path d="M0,-80 L12,-80 L12,-68 L0,-68 Z" fill="rgba(71,141,142,1)"/>
<path d="M12,-80 L24,-80 L24,-68 L12,-68 Z" fill="rgba(73,146,147,1)"/>
<path d="M24,-80 L36,-80 L36,-68 L24,-68 Z" fill="rgba(78,155,156,1)"/>
<path d="M36,-80 L48,-80 L48,-68 L36,-68 Z" fill="rgba(81,163,164,1)"/>
<path d="M48,-80 L60,-80 L60,-68 L48,-68 Z" fill="rgba(81,161,162,1)"/>
<path d="M60,-80 L72,-80 L72,-68 L60,-68 Z" fill="rgba(74,147,148,1)"/>
<path d="M72,-80 L84,-80 L84,-68 L72,-68 Z" fill="rgba(63,125,126,1)"/>
<path d="M84,-80 L96,-80 L96,-68 L84,-68 Z" fill="rgba(49,98,99,1)"/>
<path d="M96,-80 L108,-80 L108,-68 L96,-68 Z" fill="rgba(36,73,73,1)"/>
<path d="M108,-80 L120,-80 L120,-68 L108,-68 Z" fill="rgba(26,52,53,1)"/>
<path d="M120,-80 L132,-80 L132,-68 L120,-68 Z" fill="rgba(25,49,49,1)"/>
<path d="M132,-80 L144,-80 L144,-68 L132,-68 Z" fill="rgba(32,65,65,1)"/>
<path d="M144,-80 L156,-80 L156,-68 L144,-68 Z" fill="rgba(46,92,92,1)"/>
<path d="M156,-80 L168,-80 L168,-68 L156,-68 Z" fill="rgba(60,120,120,1)"/>
<path d="M168,-80 L180,-80 L180,-68 L168,-68 Z" fill="rgba(68,136,137,1)"/>
<path d="M-180,-68 L-168,-68 L-168,-56 L-180,-56 Z" fill="rgba(54,108,109,1)"/>
<path d="M-168,-68 L-156,-68 L-156,-56 L-168,-56 Z" fill="rgba(55,109,110,1)"/>
<path d="M-156,-68 L-144,-68 L-144,-56 L-156,-56 Z" fill="rgba(55,110,111,1)"/>
<path d="M-144,-68 L-132,-68 L-132,-56 L-144,-56 Z" fill="rgba(55,111,111,1)"/>
<path d="M-132,-68 L-120,-68 L-120,-56 L-132,-56 Z" fill="rgba(56,111,112,1)"/>
<path d="M-120,-68 L-108,-68 L-108,-56 L-120,-56 Z" fill="rgba(56,112,113,1)"/>
<path d="M-108,-68 L-96,-68 L-96,-56 L-108,-56 Z" fill="rgba(56,112,113,1)"/>
<path d="M-96,-68 L-84,-68 L-84,-56 L-96,-56 Z" fill="rgba(56,112,113,1)"/>
<path d="M-84,-68 L-72,-68 L-72,-56 L-84,-56 Z" fill="rgba(56,112,113,1)"/>
<path d="M-72,-68 L-60,-68 L-60,-56 L-72,-56 Z" fill="rgba(56,112,113,1)"/>
<path d="M-60,-68 L-48,-68 L-48,-56 L-60,-56 Z" fill="rgba(56,112,113,1)"/>
<path d="M-48,-68 L-36,-68 L-36,-56 L-48,-56 Z" fill="rgba(56,112,113,1)"/>
<path d="M-36,-68 L-24,-68 L-24,-56 L-36,-56 Z" fill="rgba(56,112,113,1)"/>
<path d="M-24,-68 L-12,-68 L-12,-56 L-24,-56 Z" fill="rgba(56,112,113,1)"/>
<path d="M-12,-68 L0,-68 L0,-56 L-12,-56 Z" fill="rgba(56,112,113,1)"/>
<path d="M0,-68 L12,-68 L12,-56 L0,-56 Z" fill="rgba(56,112,113,1)"/>
<path d="M12,-68 L24,-68 L24,-56 L12,-56 Z" fill="rgba(60,119,120,1)"/>
<path d="M24,-68 L36,-68 L36,-56 L24,-56 Z" fill="rgba(67,134,135,1)"/>
<path d="M36,-68 L48,-68 L48,-56 L36,-56 Z" fill="rgba(76,151,152,1)"/>
<path d="M48,-68 L60,-68 L60,-56 L48,-56 Z" fill="rgba(81,162,163,1)"/>
<path d="M60,-68 L72,-68 L72,-56 L60,-56 Z" fill="rgba(80,160,161,1)"/>
<path d="M72,-68 L84,-68 L84,-56 L72,-56 Z" fill="rgba(73,145,146,1)"/>
<path d="M84,-68 L96,-68 L96,-56 L84,-56 Z" fill="rgba(61,122,123,1)"/>
<path d="M96,-68 L108,-68 L108,-56 L96,-56 Z" fill="rgba(49,97,98,1)"/>
<path d="M108,-68 L120,-68 L120,-56 L108,-56 Z" fill="rgba(38,77,77,1)"/>
<path d="M120,-68 L132,-68 L132,-56 L120,-56 Z" fill="rgba(36,71,72,1)"/>
<path d="M132,-68 L144,-68 L144,-56 L132,-56 Z" fill="rgba(41,83,83,1)"/>
<path d="M144,-68 L156,-68 L156,-56 L144,-56 Z" fill="rgba(52,105,105,1)"/>
<path d="M156,-68 L168,-68 L168,-56 L156,-56 Z" fill="rgba(63,126,127,1)"/>
<path d="M168,-68 L180,-68 L180,-56 L168,-56 Z" fill="rgba(69,138,139,1)"/>
<path d="M-180,-56 L-168,-56 L-168,-44 L-180,-44 Z" fill="rgba(42,84,85,1)"/>
<path d="M-168,-56 L-156,-56 L-156,-44 L-168,-44 Z" fill="rgba(42,85,85,1)"/>
<path d="M-156,-56 L-144,-56 L-144,-44 L-156,-44 Z" fill="rgba(43,85,86,1)"/>
<path d="M-144,-56 L-132,-56 L-132,-44 L-144,-44 Z" fill="rgba(43,85,86,1)"/>
<path d="M-132,-56 L-120,-56 L-120,-44 L-132,-44 Z" fill="rgba(43,85,86,1)"/>
<path d="M-120,-56 L-108,-56 L-108,-44 L-120,-44 Z" fill="rgba(43,85,86,1)"/>
<path d="M-108,-56 L-96,-56 L-96,-44 L-108,-44 Z" fill="rgba(43,85,86,1)"/>
<path d="M-96,-56 L-84,-56 L-84,-44 L-96,-44 Z" fill="rgba(43,85,85,1)"/>
<path d="M-84,-56 L-72,-56 L-72,-44 L-84,-44 Z" fill="rgba(42,85,85,1)"/>
<path d="M-72,-56 L-60,-56 L-60,-44 L-72,-44 Z" fill="rgba(42,85,85,1)"/>
<path d="M-60,-56 L-48,-56 L-48,-44 L-60,-44 Z" fill="rgba(43,85,85,1)"/>
<path d="M-48,-56 L-36,-56 L-36,-44 L-48,-44 Z" fill="rgba(43,85,86,1)"/>
<path d="M-36,-56 L-24,-56 L-24,-44 L-36,-44 Z" fill="rgba(43,86,86,1)"/>
<path d="M-24,-56 L-12,-56 L-12,-44 L-24,-44 Z" fill="rgba(43,86,87,1)"/>
<path d="M-12,-56 L0,-56 L0,-44 L-12,-44 Z" fill="rgba(43,87,87,1)"/>
<path d="M0,-56 L12,-56 L12,-44 L0,-44 Z" fill="rgba(44,87,88,1)"/>
<path d="M12,-56 L24,-56 L24,-44 L12,-44 Z" fill="rgba(48,96,97,1)"/>
<path d="M24,-56 L36,-56 L36,-44 L24,-44 Z" fill="rgba(59,117,118,1)"/>
<path d="M36,-56 L48,-56 L48,-44 L36,-44 Z" fill="rgba(72,144,145,1)"/>
<path d="M48,-56 L60,-56 L60,-44 L48,-44 Z" fill="rgba(83,165,166,1)"/>
<path d="M60,-56 L72,-56 L72,-44 L60,-44 Z" fill="rgba(87,173,174,1)"/>
<path d="M72,-56 L84,-56 L84,-44 L72,-44 Z" fill="rgba(83,166,167,1)"/>
<path d="M84,-56 L96,-56 L96,-44 L84,-44 Z" fill="rgba(74,147,148,1)"/>
<path d="M96,-56 L108,-56 L108,-44 L96,-44 Z" fill="rgba(61,122,123,1)"/>
<path d="M108,-56 L120,-56 L120,-44 L108,-44 Z" fill="rgba(51,102,102,1)"/>
<path d="M120,-56 L132,-56 L132,-44 L120,-44 Z" fill="rgba(47,95,95,1)"/>
<path d="M132,-56 L144,-56 L144,-44 L132,-44 Z" fill="rgba(51,102,103,1)"/>
<path d="M144,-56 L156,-56 L156,-44 L144,-44 Z" fill="rgba(60,119,120,1)"/>
<path d="M156,-56 L168,-56 L168,-44 L156,-44 Z" fill="rgba(68,135,136,1)"/>
<path d="M168,-56 L180,-56 L180,-44 L168,-44 Z" fill="rgba(71,142,143,1)"/>
<path d="M-180,-44 L-168,-44 L-168,-32 L-180,-32 Z" fill="rgba(36,72,72,1)"/>
<path d="M-168,-44 L-156,-44 L-156,-32 L-168,-32 Z" fill="rgba(35,70,70,1)"/>
<path d="M-156,-44 L-144,-44 L-144,-32 L-156,-32 Z" fill="rgba(33,67,67,1)"/>
<path d="M-144,-44 L-132,-44 L-132,-32 L-144,-32 Z" fill="rgba(31,62,63,1)"/>
<path d="M-132,-44 L-120,-44 L-120,-32 L-132,-32 Z" fill="rgba(29,58,59,1)"/>
<path d="M-120,-44 L-108,-44 L-108,-32 L-120,-32 Z" fill="rgba(28,55,55,1)"/>
<path d="M-108,-44 L-96,-44 L-96,-32 L-108,-32 Z" fill="rgba(26,53,53,1)"/>
<path d="M-96,-44 L-84,-44 L-84,-32 L-96,-32 Z" fill="rgba(25,51,51,1)"/>
<path d="M-84,-44 L-72,-44 L-72,-32 L-84,-32 Z" fill="rgba(25,49,49,1)"/>
<path d="M-72,-44 L-60,-44 L-60,-32 L-72,-32 Z" fill="rgba(24,49,49,1)"/>
<path d="M-60,-44 L-48,-44 L-48,-32 L-60,-32 Z" fill="rgba(25,50,50,1)"/>
<path d="M-48,-44 L-36,-44 L-36,-32 L-48,-32 Z" fill="rgba(26,53,53,1)"/>
<path d="M-36,-44 L-24,-44 L-24,-32 L-36,-32 Z" fill="rgba(29,57,57,1)"/>
<path d="M-24,-44 L-12,-44 L-12,-32 L-24,-32 Z" fill="rgba(31,61,61,1)"/>
<path d="M-12,-44 L0,-44 L0,-32 L-12,-32 Z" fill="rgba(32,64,64,1)"/>
<path d="M0,-44 L12,-44 L12,-32 L0,-32 Z" fill="rgba(33,66,67,1)"/>
<path d="M12,-44 L24,-44 L24,-32 L12,-32 Z" fill="rgba(39,78,78,1)"/>
<path d="M24,-44 L36,-44 L36,-32 L24,-32 Z" fill="rgba(52,103,103,1)"/>
<path d="M36,-44 L48,-44 L48,-32 L36,-32 Z" fill="rgba(68,135,136,1)"/>
<path d="M48,-44 L60,-44 L60,-32 L48,-32 Z" fill="rgba(82,164,165,1)"/>
<path d="M60,-44 L72,-44 L72,-32 L60,-32 Z" fill="rgba(90,180,181,1)"/>
<path d="M72,-44 L84,-44 L84,-32 L72,-32 Z" fill="rgba(90,180,181,1)"/>
<path d="M84,-44 L96,-44 L96,-32 L84,-32 Z" fill="rgba(83,166,167,1)"/>
<path d="M96,-44 L108,-44 L108,-32 L96,-32 Z" fill="rgba(73,145,146,1)"/>
<path d="M108,-44 L120,-44 L120,-32 L108,-32 Z" fill="rgba(64,127,128,1)"/>
<path d="M120,-44 L132,-44 L132,-32 L120,-32 Z" fill="rgba(61,122,122,1)"/>
<path d="M132,-44 L144,-44 L144,-32 L132,-32 Z" fill="rgba(64,129,129,1)"/>
<path d="M144,-44 L156,-44 L156,-32 L144,-32 Z" fill="rgba(71,142,143,1)"/>
<path d="M156,-44 L168,-44 L168,-32 L156,-32 Z" fill="rgba(77,154,155,1)"/>
<path d="M168,-44 L180,-44 L180,-32 L168,-32 Z" fill="rgba(78,157,157,1)"/>
<path d="M-180,-32 L-168,-32 L-168,-20 L-180,-20 Z" fill="rgba(38,76,77,1)"/>
<path d="M-168,-32 L-156,-32 L-156,-20 L-168,-20 Z" fill="rgba(35,71,71,1)"/>
<path d="M-156,-32 L-144,-32 L-144,-20 L-156,-20 Z" fill="rgba(31,61,62,1)"/>
<path d="M-144,-32 L-132,-32 L-132,-20 L-144,-20 Z" fill="rgba(25,50,50,1)"/>
<path d="M-132,-32 L-120,-32 L-120,-20 L-132,-20 Z" fill="rgba(19,38,38,1)"/>
<path d="M-120,-32 L-108,-32 L-108,-20 L-120,-20 Z" fill="rgba(14,28,28,1)"/>
<path d="M-108,-32 L-96,-32 L-96,-20 L-108,-20 Z" fill="rgba(11,22,22,1)"/>
<path d="M-96,-32 L-84,-32 L-84,-20 L-96,-20 Z" fill="rgba(8,16,16,1)"/>
<path d="M-84,-32 L-72,-32 L-72,-20 L-84,-20 Z" fill="rgba(5,11,11,1)"/>
<path d="M-72,-32 L-60,-32 L-60,-20 L-72,-20 Z" fill="rgba(4,8,8,1)"/>
<path d="M-60,-32 L-48,-32 L-48,-20 L-60,-20 Z" fill="rgba(5,11,11,1)"/>
<path d="M-48,-32 L-36,-32 L-36,-20 L-48,-20 Z" fill="rgba(9,19,19,1)"/>
<path d="M-36,-32 L-24,-32 L-24,-20 L-36,-20 Z" fill="rgba(15,30,30,1)"/>
<path d="M-24,-32 L-12,-32 L-12,-20 L-24,-20 Z" fill="rgba(20,41,41,1)"/>
<path d="M-12,-32 L0,-32 L0,-20 L-12,-20 Z" fill="rgba(24,49,49,1)"/>
<path d="M0,-32 L12,-32 L12,-20 L0,-20 Z" fill="rgba(28,55,55,1)"/>
<path d="M12,-32 L24,-32 L24,-20 L12,-20 Z" fill="rgba(34,69,69,1)"/>
<path d="M24,-32 L36,-32 L36,-20 L24,-20 Z" fill="rgba(47,95,95,1)"/>
<path d="M36,-32 L48,-32 L48,-20 L36,-20 Z" fill="rgba(64,127,128,1)"/>
<path d="M48,-32 L60,-32 L60,-20 L48,-20 Z" fill="rgba(78,157,158,1)"/>
<path d="M60,-32 L72,-32 L72,-20 L60,-20 Z" fill="rgba(88,175,176,1)"/>
<path d="M72,-32 L84,-32 L84,-20 L72,-20 Z" fill="rgba(90,180,181,1)"/>
<path d="M84,-32 L96,-32 L96,-20 L84,-20 Z" fill="rgba(86,172,173,1)"/>
<path d="M96,-32 L108,-32 L108,-20 L96,-20 Z" fill="rgba(80,159,160,1)"/>
<path d="M108,-32 L120,-32 L120,-20 L108,-20 Z" fill="rgba(74,148,149,1)"/>
<path d="M120,-32 L132,-32 L132,-20 L120,-20 Z" fill="rgba(75,149,150,1)"/>
<path d="M132,-32 L144,-32 L144,-20 L132,-20 Z" fill="rgba(80,159,160,1)"/>
<path d="M144,-32 L156,-32 L156,-20 L144,-20 Z" fill="rgba(87,173,174,1)"/>
<path d="M156,-32 L168,-32 L168,-20 L156,-20 Z" fill="rgba(91,181,182,1)"/>
<path d="M168,-32 L180,-32 L180,-20 L168,-20 Z" fill="rgba(90,179,180,1)"/>
<path d="M-180,-20 L-168,-20 L-168,-8 L-180,-8 Z" fill="rgba(47,95,95,1)"/>
<path d="M-168,-20 L-156,-20 L-156,-8 L-168,-8 Z" fill="rgba(43,87,87,1)"/>
<path d="M-156,-20 L-144,-20 L-144,-8 L-156,-8 Z" fill="rgba(36,73,73,1)"/>
<path d="M-144,-20 L-132,-20 L-132,-8 L-144,-8 Z" fill="rgba(27,54,54,1)"/>
<path d="M-132,-20 L-120,-20 L-120,-8 L-132,-8 Z" fill="rgba(17,34,34,1)"/>
<path d="M-120,-20 L-108,-20 L-108,-8 L-120,-8 Z" fill="rgba(8,17,17,1)"/>
<path d="M-108,-20 L-96,-20 L-96,-8 L-108,-8 Z" fill="rgba(2,4,4,1)"/>
<path d="M-96,-20 L-84,-20 L-84,-8 L-96,-8 Z" fill="rgba(0,0,0,1)"/>
<path d="M-84,-20 L-72,-20 L-72,-8 L-84,-8 Z" fill="rgba(0,0,0,1)"/>
<path d="M-72,-20 L-60,-20 L-60,-8 L-72,-8 Z" fill="rgba(0,0,0,1)"/>
<path d="M-60,-20 L-48,-20 L-48,-8 L-60,-8 Z" fill="rgba(0,0,0,1)"/>
<path d="M-48,-20 L-36,-20 L-36,-8 L-48,-8 Z" fill="rgba(0,0,0,1)"/>
<path d="M-36,-20 L-24,-20 L-24,-8 L-36,-8 Z" fill="rgba(6,11,11,1)"/>
<path d="M-24,-20 L-12,-20 L-12,-8 L-24,-8 Z" fill="rgba(16,31,31,1)"/>
<path d="M-12,-20 L0,-20 L0,-8 L-12,-8 Z" fill="rgba(23,46,47,1)"/>
<path d="M0,-20 L12,-20 L12,-8 L0,-8 Z" fill="rgba(29,58,58,1)"/>
<path d="M12,-20 L24,-20 L24,-8 L12,-8 Z" fill="rgba(37,73,74,1)"/>
<path d="M24,-20 L36,-20 L36,-8 L24,-8 Z" fill="rgba(48,96,96,1)"/>
<path d="M36,-20 L48,-20 L48,-8 L36,-8 Z" fill="rgba(61,121,122,1)"/>
<path d="M48,-20 L60,-20 L60,-8 L48,-8 Z" fill="rgba(72,143,144,1)"/>
<path d="M60,-20 L72,-20 L72,-8 L60,-8 Z" fill="rgba(79,158,159,1)"/>
<path d="M72,-20 L84,-20 L84,-8 L72,-8 Z" fill="rgba(82,164,165,1)"/>
<path d="M84,-20 L96,-20 L96,-8 L84,-8 Z" fill="rgba(82,163,164,1)"/>
<path d="M96,-20 L108,-20 L108,-8 L96,-8 Z" fill="rgba(80,160,161,1)"/>
<path d="M108,-20 L120,-20 L120,-8 L108,-8 Z" fill="rgba(80,160,161,1)"/>
<path d="M120,-20 L132,-20 L132,-8 L120,-8 Z" fill="rgba(85,171,172,1)"/>
<path d="M132,-20 L144,-20 L144,-8 L132,-8 Z" fill="rgba(94,188,189,1)"/>
<path d="M144,-20 L156,-20 L156,-8 L144,-8 Z" fill="rgba(102,203,204,1)"/>
<path d="M156,-20 L168,-20 L168,-8 L156,-8 Z" fill="rgba(105,209,210,1)"/>
<path d="M168,-20 L180,-20 L180,-8 L168,-8 Z" fill="rgba(101,202,203,1)"/>
<path d="M-180,-8 L-168,-8 L-168,4 L-180,4 Z" fill="rgba(60,119,120,1)"/>
<path d="M-168,-8 L-156,-8 L-156,4 L-168,4 Z" fill="rgba(56,112,113,1)"/>
<path d="M-156,-8 L-144,-8 L-144,4 L-156,4 Z" fill="rgba(49,97,98,1)"/>
<path d="M-144,-8 L-132,-8 L-132,4 L-144,4 Z" fill="rgba(38,76,76,1)"/>
<path d="M-132,-8 L-120,-8 L-120,4 L-132,4 Z" fill="rgba(25,50,51,1)"/>
<path d="M-120,-8 L-108,-8 L-108,4 L-120,4 Z" fill="rgba(14,27,27,1)"/>
<path d="M-108,-8 L-96,-8 L-96,4 L-108,4 Z" fill="rgba(4,8,9,1)"/>
<path d="M-96,-8 L-84,-8 L-84,4 L-96,4 Z" fill="rgba(0,0,0,1)"/>
<path d="M-84,-8 L-72,-8 L-72,4 L-84,4 Z" fill="rgba(0,0,0,1)"/>
<path d="M-72,-8 L-60,-8 L-60,4 L-72,4 Z" fill="rgba(0,0,0,1)"/>
<path d="M-60,-8 L-48,-8 L-48,4 L-60,4 Z" fill="rgba(0,0,0,1)"/>
<path d="M-48,-8 L-36,-8 L-36,4 L-48,4 Z" fill="rgba(0,0,0,1)"/>
<path d="M-36,-8 L-24,-8 L-24,4 L-36,4 Z" fill="rgba(3,5,5,1)"/>
<path d="M-24,-8 L-12,-8 L-12,4 L-24,4 Z" fill="rgba(17,34,34,1)"/>
<path d="M-12,-8 L0,-8 L0,4 L-12,4 Z" fill="rgba(28,56,56,1)"/>
<path d="M0,-8 L12,-8 L12,4 L0,4 Z" fill="rgba(36,73,73,1)"/>
<path d="M12,-8 L24,-8 L24,4 L12,4 Z" fill="rgba(45,89,90,1)"/>
<path d="M24,-8 L36,-8 L36,4 L24,4 Z" fill="rgba(53,105,106,1)"/>
<path d="M36,-8 L48,-8 L48,4 L36,4 Z" fill="rgba(59,118,119,1)"/>
<path d="M48,-8 L60,-8 L60,4 L48,4 Z" fill="rgba(64,127,128,1)"/>
<path d="M60,-8 L72,-8 L72,4 L60,4 Z" fill="rgba(66,133,133,1)"/>
<path d="M72,-8 L84,-8 L84,4 L72,4 Z" fill="rgba(68,137,137,1)"/>
<path d="M84,-8 L96,-8 L96,4 L84,4 Z" fill="rgba(71,142,142,1)"/>
<path d="M96,-8 L108,-8 L108,4 L96,4 Z" fill="rgba(75,149,150,1)"/>
<path d="M108,-8 L120,-8 L120,4 L108,4 Z" fill="rgba(80,160,161,1)"/>
<path d="M120,-8 L132,-8 L132,4 L120,4 Z" fill="rgba(91,182,183,1)"/>
<path d="M132,-8 L144,-8 L144,4 L132,4 Z" fill="rgba(103,206,207,1)"/>
<path d="M144,-8 L156,-8 L156,4 L144,4 Z" fill="rgba(112,224,225,1)"/>
<path d="M156,-8 L168,-8 L168,4 L156,4 Z" fill="rgba(114,228,229,1)"/>
<path d="M168,-8 L180,-8 L180,4 L168,4 Z" fill="rgba(108,216,217,1)"/>
<path d="M-180,4 L-168,4 L-168,16 L-180,16 Z" fill="rgba(69,139,139,1)"/>
<path d="M-168,4 L-156,4 L-156,16 L-168,16 Z" fill="rgba(68,137,137,1)"/>
<path d="M-156,4 L-144,4 L-144,16 L-156,16 Z" fill="rgba(63,127,127,1)"/>
<path d="M-144,4 L-132,4 L-132,16 L-144,16 Z" fill="rgba(54,107,108,1)"/>
<path d="M-132,4 L-120,4 L-120,16 L-132,16 Z" fill="rgba(41,82,82,1)"/>
<path d="M-120,4 L-108,4 L-108,16 L-120,16 Z" fill="rgba(28,55,56,1)"/>
<path d="M-108,4 L-96,4 L-96,16 L-108,16 Z" fill="rgba(16,32,33,1)"/>
<path d="M-96,4 L-84,4 L-84,16 L-96,16 Z" fill="rgba(5,10,10,1)"/>
<path d="M-84,4 L-72,4 L-72,16 L-84,16 Z" fill="rgba(0,0,0,1)"/>
<path d="M-72,4 L-60,4 L-60,16 L-72,16 Z" fill="rgba(0,0,0,1)"/>
<path d="M-60,4 L-48,4 L-48,16 L-60,16 Z" fill="rgba(0,0,0,1)"/>
<path d="M-48,4 L-36,4 L-36,16 L-48,16 Z" fill="rgba(0,0,0,1)"/>
<path d="M-36,4 L-24,4 L-24,16 L-36,16 Z" fill="rgba(5,10,10,1)"/>
<path d="M-24,4 L-12,4 L-12,16 L-24,16 Z" fill="rgba(22,44,45,1)"/>
<path d="M-12,4 L0,4 L0,16 L-12,16 Z" fill="rgba(36,73,73,1)"/>
<path d="M0,4 L12,4 L12,16 L0,16 Z" fill="rgba(47,94,95,1)"/>
<path d="M12,4 L24,4 L24,16 L12,16 Z" fill="rgba(56,111,112,1)"/>
<path d="M24,4 L36,4 L36,16 L24,16 Z" fill="rgba(60,119,120,1)"/>
<path d="M36,4 L48,4 L48,16 L36,16 Z" fill="rgba(59,118,119,1)"/>
<path d="M48,4 L60,4 L60,16 L48,16 Z" fill="rgba(56,112,113,1)"/>
<path d="M60,4 L72,4 L72,16 L60,16 Z" fill="rgba(53,106,107,1)"/>
<path d="M72,4 L84,4 L84,16 L72,16 Z" fill="rgba(53,106,107,1)"/>
<path d="M84,4 L96,4 L96,16 L84,16 Z" fill="rgba(58,115,116,1)"/>
<path d="M96,4 L108,4 L108,16 L96,16 Z" fill="rgba(66,131,132,1)"/>
<path d="M108,4 L120,4 L120,16 L108,16 Z" fill="rgba(76,152,153,1)"/>
<path d="M120,4 L132,4 L132,16 L120,16 Z" fill="rgba(91,182,183,1)"/>
<path d="M132,4 L144,4 L144,16 L132,16 Z" fill="rgba(107,213,214,1)"/>
<path d="M144,4 L156,4 L156,16 L144,16 Z" fill="rgba(116,232,233,1)"/>
<path d="M156,4 L168,4 L168,16 L156,16 Z" fill="rgba(117,233,234,1)"/>
<path d="M168,4 L180,4 L180,16 L168,16 Z" fill="rgba(108,216,217,1)"/>
<path d="M-180,16 L-168,16 L-168,28 L-180,28 Z" fill="rgba(73,145,146,1)"/>
<path d="M-168,16 L-156,16 L-156,28 L-168,28 Z" fill="rgba(76,151,152,1)"/>
<path d="M-156,16 L-144,16 L-144,28 L-156,28 Z" fill="rgba(75,150,150,1)"/>
<path d="M-144,16 L-132,16 L-132,28 L-144,28 Z" fill="rgba(69,138,139,1)"/>
<path d="M-132,16 L-120,16 L-120,28 L-132,28 Z" fill="rgba(59,117,118,1)"/>
<path d="M-120,16 L-108,16 L-108,28 L-120,28 Z" fill="rgba(46,91,92,1)"/>
<path d="M-108,16 L-96,16 L-96,28 L-108,28 Z" fill="rgba(33,66,66,1)"/>
<path d="M-96,16 L-84,16 L-84,28 L-96,28 Z" fill="rgba(20,41,41,1)"/>
<path d="M-84,16 L-72,16 L-72,28 L-84,28 Z" fill="rgba(6,12,12,1)"/>
<path d="M-72,16 L-60,16 L-60,28 L-72,28 Z" fill="rgba(0,0,0,1)"/>
<path d="M-60,16 L-48,16 L-48,28 L-60,28 Z" fill="rgba(0,0,0,1)"/>
<path d="M-48,16 L-36,16 L-36,28 L-48,28 Z" fill="rgba(0,0,0,1)"/>
<path d="M-36,16 L-24,16 L-24,28 L-36,28 Z" fill="rgba(10,20,20,1)"/>
<path d="M-24,16 L-12,16 L-12,28 L-24,28 Z" fill="rgba(28,56,57,1)"/>
<path d="M-12,16 L0,16 L0,28 L-12,28 Z" fill="rgba(44,88,88,1)"/>
<path d="M0,16 L12,16 L12,28 L0,28 Z" fill="rgba(56,112,113,1)"/>
<path d="M12,16 L24,16 L24,28 L12,28 Z" fill="rgba(64,129,129,1)"/>
<path d="M24,16 L36,16 L36,28 L24,28 Z" fill="rgba(65,131,131,1)"/>
<path d="M36,16 L48,16 L48,28 L36,28 Z" fill="rgba(60,120,120,1)"/>
<path d="M48,16 L60,16 L60,28 L48,28 Z" fill="rgba(51,102,103,1)"/>
<path d="M60,16 L72,16 L72,28 L60,28 Z" fill="rgba(44,87,87,1)"/>
<path d="M72,16 L84,16 L84,28 L72,28 Z" fill="rgba(41,83,83,1)"/>
<path d="M84,16 L96,16 L96,28 L84,28 Z" fill="rgba(47,94,94,1)"/>
<path d="M96,16 L108,16 L108,28 L96,28 Z" fill="rgba(58,115,116,1)"/>
<path d="M108,16 L120,16 L120,28 L108,28 Z" fill="rgba(71,142,143,1)"/>
<path d="M120,16 L132,16 L132,28 L120,28 Z" fill="rgba(89,177,178,1)"/>
<path d="M132,16 L144,16 L144,28 L132,28 Z" fill="rgba(105,210,211,1)"/>
<path d="M144,16 L156,16 L156,28 L144,28 Z" fill="rgba(114,228,229,1)"/>
<path d="M156,16 L168,16 L168,28 L156,28 Z" fill="rgba(113,225,226,1)"/>
<path d="M168,16 L180,16 L180,28 L168,28 Z" fill="rgba(102,203,205,1)"/>
<path d="M-180,28 L-168,28 L-168,40 L-180,40 Z" fill="rgba(67,135,135,1)"/>
<path d="M-168,28 L-156,28 L-156,40 L-168,40 Z" fill="rgba(75,149,150,1)"/>
<path d="M-156,28 L-144,28 L-144,40 L-156,40 Z" fill="rgba(80,159,160,1)"/>
<path d="M-144,28 L-132,28 L-132,40 L-144,40 Z" fill="rgba(79,158,159,1)"/>
<path d="M-132,28 L-120,28 L-120,40 L-132,40 Z" fill="rgba(72,144,145,1)"/>
<path d="M-120,28 L-108,28 L-108,40 L-120,40 Z" fill="rgba(61,122,123,1)"/>
<path d="M-108,28 L-96,28 L-96,40 L-108,40 Z" fill="rgba(48,97,97,1)"/>
<path d="M-96,28 L-84,28 L-84,40 L-96,40 Z" fill="rgba(35,70,71,1)"/>
<path d="M-84,28 L-72,28 L-72,40 L-84,40 Z" fill="rgba(19,39,39,1)"/>
<path d="M-72,28 L-60,28 L-60,40 L-72,40 Z" fill="rgba(5,9,9,1)"/>
<path d="M-60,28 L-48,28 L-48,40 L-60,40 Z" fill="rgba(0,0,0,1)"/>
<path d="M-48,28 L-36,28 L-36,40 L-48,40 Z" fill="rgba(1,2,2,1)"/>
<path d="M-36,28 L-24,28 L-24,40 L-36,40 Z" fill="rgba(14,28,28,1)"/>
<path d="M-24,28 L-12,28 L-12,40 L-24,40 Z" fill="rgba(31,63,63,1)"/>
<path d="M-12,28 L0,28 L0,40 L-12,40 Z" fill="rgba(47,94,95,1)"/>
<path d="M0,28 L12,28 L12,40 L0,40 Z" fill="rgba(60,120,120,1)"/>
<path d="M12,28 L24,28 L24,40 L12,40 Z" fill="rgba(68,136,137,1)"/>
<path d="M24,28 L36,28 L36,40 L24,40 Z" fill="rgba(68,136,137,1)"/>
<path d="M36,28 L48,28 L48,40 L36,40 Z" fill="rgba(60,120,121,1)"/>
<path d="M48,28 L60,28 L60,40 L48,40 Z" fill="rgba(49,98,99,1)"/>
<path d="M60,28 L72,28 L72,40 L60,40 Z" fill="rgba(40,79,80,1)"/>
<path d="M72,28 L84,28 L84,40 L72,40 Z" fill="rgba(37,74,74,1)"/>
<path d="M84,28 L96,28 L96,40 L84,40 Z" fill="rgba(42,85,85,1)"/>
<path d="M96,28 L108,28 L108,40 L96,40 Z" fill="rgba(54,108,109,1)"/>
<path d="M108,28 L120,28 L120,40 L108,40 Z" fill="rgba(69,137,138,1)"/>
<path d="M120,28 L132,28 L132,40 L120,40 Z" fill="rgba(86,172,173,1)"/>
<path d="M132,28 L144,28 L144,40 L132,40 Z" fill="rgba(101,202,204,1)"/>
<path d="M144,28 L156,28 L156,40 L144,40 Z" fill="rgba(108,217,218,1)"/>
<path d="M156,28 L168,28 L168,40 L156,40 Z" fill="rgba(105,209,210,1)"/>
<path d="M168,28 L180,28 L180,40 L168,40 Z" fill="rgba(92,183,184,1)"/>
<path d="M-180,40 L-168,40 L-168,52 L-180,52 Z" fill="rgba(58,115,116,1)"/>
<path d="M-168,40 L-156,40 L-156,52 L-168,52 Z" fill="rgba(69,138,139,1)"/>
<path d="M-156,40 L-144,40 L-144,52 L-156,52 Z" fill="rgba(80,159,160,1)"/>
<path d="M-144,40 L-132,40 L-132,52 L-144,52 Z" fill="rgba(85,169,170,1)"/>
<path d="M-132,40 L-120,40 L-120,52 L-132,52 Z" fill="rgba(82,164,165,1)"/>
<path d="M-120,40 L-108,40 L-108,52 L-120,52 Z" fill="rgba(74,147,148,1)"/>
<path d="M-108,40 L-96,40 L-96,52 L-108,52 Z" fill="rgba(62,123,124,1)"/>
<path d="M-96,40 L-84,40 L-84,52 L-96,52 Z" fill="rgba(48,96,97,1)"/>
<path d="M-84,40 L-72,40 L-72,52 L-84,52 Z" fill="rgba(31,63,63,1)"/>
<path d="M-72,40 L-60,40 L-60,52 L-72,52 Z" fill="rgba(15,30,30,1)"/>
<path d="M-60,40 L-48,40 L-48,52 L-60,52 Z" fill="rgba(5,10,10,1)"/>
<path d="M-48,40 L-36,40 L-36,52 L-48,52 Z" fill="rgba(5,11,11,1)"/>
<path d="M-36,40 L-24,40 L-24,52 L-36,52 Z" fill="rgba(16,32,32,1)"/>
<path d="M-24,40 L-12,40 L-12,52 L-24,52 Z" fill="rgba(32,64,64,1)"/>
<path d="M-12,40 L0,40 L0,52 L-12,52 Z" fill="rgba(47,94,95,1)"/>
<path d="M0,40 L12,40 L12,52 L0,52 Z" fill="rgba(60,120,120,1)"/>
<path d="M12,40 L24,40 L24,52 L12,52 Z" fill="rgba(68,136,137,1)"/>
<path d="M24,40 L36,40 L36,52 L24,52 Z" fill="rgba(68,136,136,1)"/>
<path d="M36,40 L48,40 L48,52 L36,52 Z" fill="rgba(60,120,121,1)"/>
<path d="M48,40 L60,40 L60,52 L48,52 Z" fill="rgba(49,98,98,1)"/>
<path d="M60,40 L72,40 L72,52 L60,52 Z" fill="rgba(39,79,79,1)"/>
<path d="M72,40 L84,40 L84,52 L72,52 Z" fill="rgba(36,73,73,1)"/>
<path d="M84,40 L96,40 L96,52 L84,52 Z" fill="rgba(42,84,84,1)"/>
<path d="M96,40 L108,40 L108,52 L96,52 Z" fill="rgba(54,107,108,1)"/>
<path d="M108,40 L120,40 L120,52 L108,52 Z" fill="rgba(68,136,137,1)"/>
<path d="M120,40 L132,40 L132,52 L120,52 Z" fill="rgba(84,168,169,1)"/>
<path d="M132,40 L144,40 L144,52 L132,52 Z" fill="rgba(98,195,196,1)"/>
<path d="M144,40 L156,40 L156,52 L144,52 Z" fill="rgba(102,204,205,1)"/>
<path d="M156,40 L168,40 L168,52 L156,52 Z" fill="rgba(96,191,192,1)"/>
<path d="M168,40 L180,40 L180,52 L168,52 Z" fill="rgba(81,161,162,1)"/>
<path d="M-180,52 L-168,52 L-168,64 L-180,64 Z" fill="rgba(44,88,89,1)"/>
<path d="M-168,52 L-156,52 L-156,64 L-168,64 Z" fill="rgba(61,121,122,1)"/>
<path d="M-156,52 L-144,52 L-144,64 L-156,64 Z" fill="rgba(78,155,156,1)"/>
<path d="M-144,52 L-132,52 L-132,64 L-144,64 Z" fill="rgba(89,179,180,1)"/>
<path d="M-132,52 L-120,52 L-120,64 L-132,64 Z" fill="rgba(93,185,186,1)"/>
<path d="M-120,52 L-108,52 L-108,64 L-120,64 Z" fill="rgba(88,175,176,1)"/>
<path d="M-108,52 L-96,52 L-96,64 L-108,64 Z" fill="rgba(77,153,154,1)"/>
<path d="M-96,52 L-84,52 L-84,64 L-96,64 Z" fill="rgba(64,127,128,1)"/>
<path d="M-84,52 L-72,52 L-72,64 L-84,64 Z" fill="rgba(46,92,93,1)"/>
<path d="M-72,52 L-60,52 L-60,64 L-72,64 Z" fill="rgba(27,54,55,1)"/>
<path d="M-60,52 L-48,52 L-48,64 L-60,64 Z" fill="rgba(13,27,27,1)"/>
<path d="M-48,52 L-36,52 L-36,64 L-48,64 Z" fill="rgba(9,19,19,1)"/>
<path d="M-36,52 L-24,52 L-24,64 L-36,64 Z" fill="rgba(16,32,32,1)"/>
<path d="M-24,52 L-12,52 L-12,64 L-24,64 Z" fill="rgba(29,59,59,1)"/>
<path d="M-12,52 L0,52 L0,64 L-12,64 Z" fill="rgba(44,87,88,1)"/>
<path d="M0,52 L12,52 L12,64 L0,64 Z" fill="rgba(56,112,113,1)"/>
<path d="M12,52 L24,52 L24,64 L12,64 Z" fill="rgba(64,129,129,1)"/>
<path d="M24,52 L36,52 L36,64 L24,64 Z" fill="rgba(64,128,129,1)"/>
<path d="M36,52 L48,52 L48,64 L36,64 Z" fill="rgba(57,113,114,1)"/>
<path d="M48,52 L60,52 L60,64 L48,64 Z" fill="rgba(45,90,91,1)"/>
<path d="M60,52 L72,52 L72,64 L60,64 Z" fill="rgba(36,72,72,1)"/>
<path d="M72,52 L84,52 L84,64 L72,64 Z" fill="rgba(33,66,66,1)"/>
<path d="M84,52 L96,52 L96,64 L84,64 Z" fill="rgba(38,77,77,1)"/>
<path d="M96,52 L108,52 L108,64 L96,64 Z" fill="rgba(50,100,101,1)"/>
<path d="M108,52 L120,52 L120,64 L108,64 Z" fill="rgba(64,128,129,1)"/>
<path d="M120,52 L132,52 L132,64 L120,64 Z" fill="rgba(80,160,161,1)"/>
<path d="M132,52 L144,52 L144,64 L132,64 Z" fill="rgba(92,184,185,1)"/>
<path d="M144,52 L156,52 L156,64 L144,64 Z" fill="rgba(95,190,191,1)"/>
<path d="M156,52 L168,52 L168,64 L156,64 Z" fill="rgba(87,174,175,1)"/>
<path d="M168,52 L180,52 L180,64 L168,64 Z" fill="rgba(72,143,144,1)"/>
<path d="M-180,64 L-168,64 L-168,76 L-180,76 Z" fill="rgba(27,55,55,1)"/>
<path d="M-168,64 L-156,64 L-156,76 L-168,76 Z" fill="rgba(48,95,96,1)"/>
<path d="M-156,64 L-144,64 L-144,76 L-156,76 Z" fill="rgba(71,142,143,1)"/>
<path d="M-144,64 L-132,64 L-132,76 L-144,76 Z" fill="rgba(91,181,182,1)"/>
<path d="M-132,64 L-120,64 L-120,76 L-132,76 Z" fill="rgba(102,203,204,1)"/>
<path d="M-120,64 L-108,64 L-108,76 L-120,76 Z" fill="rgba(102,203,204,1)"/>
<path d="M-108,64 L-96,64 L-96,76 L-108,76 Z" fill="rgba(93,186,187,1)"/>
<path d="M-96,64 L-84,64 L-84,76 L-96,76 Z" fill="rgba(81,162,163,1)"/>
<path d="M-84,64 L-72,64 L-72,76 L-84,76 Z" fill="rgba(64,127,128,1)"/>
<path d="M-72,64 L-60,64 L-60,76 L-72,76 Z" fill="rgba(42,83,84,1)"/>
<path d="M-60,64 L-48,64 L-48,76 L-60,76 Z" fill="rgba(23,45,45,1)"/>
<path d="M-48,64 L-36,64 L-36,76 L-48,76 Z" fill="rgba(12,25,25,1)"/>
<path d="M-36,64 L-24,64 L-24,76 L-36,76 Z" fill="rgba(13,26,26,1)"/>
<path d="M-24,64 L-12,64 L-12,76 L-24,76 Z" fill="rgba(23,45,45,1)"/>
<path d="M-12,64 L0,64 L0,76 L-12,76 Z" fill="rgba(35,70,71,1)"/>
<path d="M0,64 L12,64 L12,76 L0,76 Z" fill="rgba(48,96,96,1)"/>
<path d="M12,64 L24,64 L24,76 L12,76 Z" fill="rgba(56,112,113,1)"/>
<path d="M24,64 L36,64 L36,76 L24,76 Z" fill="rgba(56,112,112,1)"/>
<path d="M36,64 L48,64 L48,76 L36,76 Z" fill="rgba(48,96,97,1)"/>
<path d="M48,64 L60,64 L60,76 L48,76 Z" fill="rgba(37,74,74,1)"/>
<path d="M60,64 L72,64 L72,76 L60,76 Z" fill="rgba(28,55,55,1)"/>
<path d="M72,64 L84,64 L84,76 L72,76 Z" fill="rgba(25,49,50,1)"/>
<path d="M84,64 L96,64 L96,76 L84,76 Z" fill="rgba(30,60,61,1)"/>
<path d="M96,64 L108,64 L108,76 L96,76 Z" fill="rgba(42,84,84,1)"/>
<path d="M108,64 L120,64 L120,76 L108,76 Z" fill="rgba(56,112,113,1)"/>
<path d="M120,64 L132,64 L132,76 L120,76 Z" fill="rgba(72,143,144,1)"/>
<path d="M132,64 L144,64 L144,76 L132,76 Z" fill="rgba(84,167,168,1)"/>
<path d="M144,64 L156,64 L156,76 L144,76 Z" fill="rgba(88,175,176,1)"/>
<path d="M156,64 L168,64 L168,76 L156,76 Z" fill="rgba(81,163,164,1)"/>
<path d="M168,64 L180,64 L180,76 L168,76 Z" fill="rgba(68,135,136,1)"/>
<path d="M-180,76 L-168,76 L-168,88 L-180,88 Z" fill="rgba(12,24,24,1)"/>
<path d="M-168,76 L-156,76 L-156,88 L-168,88 Z" fill="rgba(33,67,67,1)"/>
<path d="M-156,76 L-144,76 L-144,88 L-156,88 Z" fill="rgba(61,122,122,1)"/>
<path d="M-144,76 L-132,76 L-132,88 L-144,88 Z" fill="rgba(87,173,174,1)"/>
<path d="M-132,76 L-120,76 L-120,88 L-132,88 Z" fill="rgba(104,208,209,1)"/>
<path d="M-120,76 L-108,76 L-108,88 L-120,88 Z" fill="rgba(109,218,220,1)"/>
<path d="M-108,76 L-96,76 L-96,88 L-108,88 Z" fill="rgba(104,208,209,1)"/>
<path d="M-96,76 L-84,76 L-84,88 L-96,88 Z" fill="rgba(95,189,190,1)"/>
<path d="M-84,76 L-72,76 L-72,88 L-84,88 Z" fill="rgba(78,155,156,1)"/>
<path d="M-72,76 L-60,76 L-60,88 L-72,88 Z" fill="rgba(54,107,108,1)"/>
<path d="M-60,76 L-48,76 L-48,88 L-60,88 Z" fill="rgba(30,61,61,1)"/>
<path d="M-48,76 L-36,76 L-36,88 L-48,88 Z" fill="rgba(14,28,29,1)"/>
<path d="M-36,76 L-24,76 L-24,88 L-36,88 Z" fill="rgba(9,18,18,1)"/>
<path d="M-24,76 L-12,76 L-12,88 L-24,88 Z" fill="rgba(14,29,29,1)"/>
<path d="M-12,76 L0,76 L0,88 L-12,88 Z" fill="rgba(26,51,51,1)"/>
<path d="M0,76 L12,76 L12,88 L0,88 Z" fill="rgba(38,76,77,1)"/>
<path d="M12,76 L24,76 L24,88 L12,88 Z" fill="rgba(46,92,93,1)"/>
<path d="M24,76 L36,76 L36,88 L24,88 Z" fill="rgba(46,92,93,1)"/>
<path d="M36,76 L48,76 L48,88 L36,88 Z" fill="rgba(39,77,78,1)"/>
<path d="M48,76 L60,76 L60,88 L48,88 Z" fill="rgba(28,55,55,1)"/>
<path d="M60,76 L72,76 L72,88 L60,88 Z" fill="rgba(18,36,36,1)"/>
<path d="M72,76 L84,76 L84,88 L72,88 Z" fill="rgba(15,31,31,1)"/>
<path d="M84,76 L96,76 L96,88 L84,88 Z" fill="rgba(21,42,42,1)"/>
<path d="M96,76 L108,76 L108,88 L96,88 Z" fill="rgba(33,65,66,1)"/>
<path d="M108,76 L120,76 L120,88 L108,88 Z" fill="rgba(47,93,94,1)"/>
<path d="M120,76 L132,76 L132,88 L120,88 Z" fill="rgba(62,125,125,1)"/>
<path d="M132,76 L144,76 L144,88 L132,88 Z" fill="rgba(76,151,152,1)"/>
<path d="M144,76 L156,76 L156,88 L144,88 Z" fill="rgba(82,163,164,1)"/>
<path d="M156,76 L168,76 L168,88 L156,88 Z" fill="rgba(78,157,158,1)"/>
<path d="M168,76 L180,76 L180,88 L168,88 Z" fill="rgba(68,137,137,1)"/>
<path d="M-180,88 L-168,88 L-168,100 L-180,100 Z" fill="rgba(3,5,5,1)"/>
<path d="M-168,88 L-156,88 L-156,100 L-168,100 Z" fill="rgba(22,43,44,1)"/>
<path d="M-156,88 L-144,88 L-144,100 L-156,100 Z" fill="rgba(49,98,98,1)"/>
<path d="M-144,88 L-132,88 L-132,100 L-144,100 Z" fill="rgba(77,153,154,1)"/>
<path d="M-132,88 L-120,88 L-120,100 L-132,100 Z" fill="rgba(98,196,197,1)"/>
<path d="M-120,88 L-108,88 L-108,100 L-120,100 Z" fill="rgba(107,214,215,1)"/>
<path d="M-108,88 L-96,88 L-96,100 L-108,100 Z" fill="rgba(105,211,212,1)"/>
<path d="M-96,88 L-84,88 L-84,100 L-96,100 Z" fill="rgba(99,197,198,1)"/>
<path d="M-84,88 L-72,88 L-72,100 L-84,100 Z" fill="rgba(83,166,167,1)"/>
<path d="M-72,88 L-60,88 L-60,100 L-72,100 Z" fill="rgba(60,120,120,1)"/>
<path d="M-60,88 L-48,88 L-48,100 L-60,100 Z" fill="rgba(35,69,70,1)"/>
<path d="M-48,88 L-36,88 L-36,100 L-48,100 Z" fill="rgba(15,31,31,1)"/>
<path d="M-36,88 L-24,88 L-24,100 L-36,100 Z" fill="rgba(7,13,13,1)"/>
<path d="M-24,88 L-12,88 L-12,100 L-24,100 Z" fill="rgba(9,18,18,1)"/>
<path d="M-12,88 L0,88 L0,100 L-12,100 Z" fill="rgba(19,38,38,1)"/>
<path d="M0,88 L12,88 L12,100 L0,100 Z" fill="rgba(32,63,63,1)"/>
<path d="M12,88 L24,88 L24,100 L12,100 Z" fill="rgba(40,79,80,1)"/>
<path d="M24,88 L36,88 L36,100 L24,100 Z" fill="rgba(40,79,80,1)"/>
<path d="M36,88 L48,88 L48,100 L36,100 Z" fill="rgba(32,64,65,1)"/>
<path d="M48,88 L60,88 L60,100 L48,100 Z" fill="rgba(21,42,43,1)"/>
<path d="M60,88 L72,88 L72,100 L60,100 Z" fill="rgba(12,24,24,1)"/>
<path d="M72,88 L84,88 L84,100 L72,100 Z" fill="rgba(9,18,18,1)"/>
<path d="M84,88 L96,88 L96,100 L84,100 Z" fill="rgba(15,30,30,1)"/>
<path d="M96,88 L108,88 L108,100 L96,100 Z" fill="rgba(27,53,53,1)"/>
<path d="M108,88 L120,88 L120,100 L108,100 Z" fill="rgba(41,81,81,1)"/>
<path d="M120,88 L132,88 L132,100 L120,100 Z" fill="rgba(56,112,113,1)"/>
<path d="M132,88 L144,88 L144,100 L132,100 Z" fill="rgba(70,140,141,1)"/>
<path d="M144,88 L156,88 L156,100 L144,100 Z" fill="rgba(78,156,157,1)"/>
<path d="M156,88 L168,88 L168,100 L156,100 Z" fill="rgba(78,156,156,1)"/>
<path d="M168,88 L180,88 L180,100 L168,100 Z" fill="rgba(72,143,144,1)"/>
<path d="M-180,100 L-168,100 L-168,112 L-180,112 Z" fill="rgba(2,5,5,1)"/>
<path d="M-168,100 L-156,100 L-156,112 L-168,112 Z" fill="rgba(16,31,31,1)"/>
<path d="M-156,100 L-144,100 L-144,112 L-156,112 Z" fill="rgba(38,75,76,1)"/>
<path d="M-144,100 L-132,100 L-132,112 L-144,112 Z" fill="rgba(63,126,127,1)"/>
<path d="M-132,100 L-120,100 L-120,112 L-132,112 Z" fill="rgba(84,168,169,1)"/>
<path d="M-120,100 L-108,100 L-108,112 L-120,112 Z" fill="rgba(95,190,191,1)"/>
<path d="M-108,100 L-96,100 L-96,112 L-108,112 Z" fill="rgba(96,192,193,1)"/>
<path d="M-96,100 L-84,100 L-84,112 L-96,112 Z" fill="rgba(92,183,184,1)"/>
<path d="M-84,100 L-72,100 L-72,112 L-84,112 Z" fill="rgba(79,158,159,1)"/>
<path d="M-72,100 L-60,100 L-60,112 L-72,112 Z" fill="rgba(59,117,117,1)"/>
<path d="M-60,100 L-48,100 L-48,112 L-60,112 Z" fill="rgba(35,70,70,1)"/>
<path d="M-48,100 L-36,100 L-36,112 L-48,112 Z" fill="rgba(16,33,33,1)"/>
<path d="M-36,100 L-24,100 L-24,112 L-36,112 Z" fill="rgba(7,15,15,1)"/>
<path d="M-24,100 L-12,100 L-12,112 L-24,112 Z" fill="rgba(9,18,18,1)"/>
<path d="M-12,100 L0,100 L0,112 L-12,112 Z" fill="rgba(19,38,38,1)"/>
<path d="M0,100 L12,100 L12,112 L0,112 Z" fill="rgba(31,62,63,1)"/>
<path d="M12,100 L24,100 L24,112 L12,112 Z" fill="rgba(39,79,79,1)"/>
<path d="M24,100 L36,100 L36,112 L24,112 Z" fill="rgba(39,79,79,1)"/>
<path d="M36,100 L48,100 L48,112 L36,112 Z" fill="rgba(32,64,64,1)"/>
<path d="M48,100 L60,100 L60,112 L48,112 Z" fill="rgba(21,42,42,1)"/>
<path d="M60,100 L72,100 L72,112 L60,112 Z" fill="rgba(12,24,24,1)"/>
<path d="M72,100 L84,100 L84,112 L72,112 Z" fill="rgba(9,18,19,1)"/>
<path d="M84,100 L96,100 L96,112 L84,112 Z" fill="rgba(15,30,30,1)"/>
<path d="M96,100 L108,100 L108,112 L96,112 Z" fill="rgba(27,53,54,1)"/>
<path d="M108,100 L120,100 L120,112 L108,112 Z" fill="rgba(40,81,81,1)"/>
<path d="M120,100 L132,100 L132,112 L120,112 Z" fill="rgba(56,111,112,1)"/>
<path d="M132,100 L144,100 L144,112 L132,112 Z" fill="rgba(69,138,138,1)"/>
<path d="M144,100 L156,100 L156,112 L144,112 Z" fill="rgba(77,154,155,1)"/>
<path d="M156,100 L168,100 L168,112 L156,112 Z" fill="rgba(78,156,157,1)"/>
<path d="M168,100 L180,100 L180,112 L168,112 Z" fill="rgba(75,149,150,1)"/>
<path d="M-180,112 L-168,112 L-168,124 L-180,124 Z" fill="rgba(10,19,19,1)"/>
<path d="M-168,112 L-156,112 L-156,124 L-168,124 Z" fill="rgba(15,31,31,1)"/>
<path d="M-156,112 L-144,112 L-144,124 L-156,124 Z" fill="rgba(30,60,60,1)"/>
<path d="M-144,112 L-132,112 L-132,124 L-144,124 Z" fill="rgba(49,98,99,1)"/>
<path d="M-132,112 L-120,112 L-120,124 L-132,124 Z" fill="rgba(67,134,134,1)"/>
<path d="M-120,112 L-108,112 L-108,124 L-120,124 Z" fill="rgba(78,155,156,1)"/>
<path d="M-108,112 L-96,112 L-96,124 L-108,124 Z" fill="rgba(80,159,160,1)"/>
<path d="M-96,112 L-84,112 L-84,124 L-96,124 Z" fill="rgba(78,155,156,1)"/>
<path d="M-84,112 L-72,112 L-72,124 L-84,124 Z" fill="rgba(68,136,137,1)"/>
<path d="M-72,112 L-60,112 L-60,124 L-72,124 Z" fill="rgba(52,103,104,1)"/>
<path d="M-60,112 L-48,112 L-48,124 L-60,124 Z" fill="rgba(33,65,66,1)"/>
<path d="M-48,112 L-36,112 L-36,124 L-48,124 Z" fill="rgba(18,36,36,1)"/>
<path d="M-36,112 L-24,112 L-24,124 L-36,124 Z" fill="rgba(12,24,24,1)"/>
<path d="M-24,112 L-12,112 L-12,124 L-24,124 Z" fill="rgba(15,30,30,1)"/>
<path d="M-12,112 L0,112 L0,124 L-12,124 Z" fill="rgba(25,50,51,1)"/>
<path d="M0,112 L12,112 L12,124 L0,124 Z" fill="rgba(38,75,75,1)"/>
<path d="M12,112 L24,112 L24,124 L12,124 Z" fill="rgba(46,92,92,1)"/>
<path d="M24,112 L36,112 L36,124 L24,124 Z" fill="rgba(46,92,92,1)"/>
<path d="M36,112 L48,112 L48,124 L36,124 Z" fill="rgba(39,77,77,1)"/>
<path d="M48,112 L60,112 L60,124 L48,124 Z" fill="rgba(28,55,56,1)"/>
<path d="M60,112 L72,112 L72,124 L60,124 Z" fill="rgba(19,37,37,1)"/>
<path d="M72,112 L84,112 L84,124 L72,124 Z" fill="rgba(16,32,32,1)"/>
<path d="M84,112 L96,112 L96,124 L84,124 Z" fill="rgba(22,43,43,1)"/>
<path d="M96,112 L108,112 L108,124 L96,124 Z" fill="rgba(33,67,67,1)"/>
<path d="M108,112 L120,112 L120,124 L108,124 Z" fill="rgba(47,93,94,1)"/>
<path d="M120,112 L132,112 L132,124 L120,124 Z" fill="rgba(60,121,121,1)"/>
<path d="M132,112 L144,112 L144,124 L132,124 Z" fill="rgba(72,143,144,1)"/>
<path d="M144,112 L156,112 L156,124 L144,124 Z" fill="rgba(78,155,156,1)"/>
<path d="M156,112 L168,112 L168,124 L156,124 Z" fill="rgba(78,155,156,1)"/>
<path d="M168,112 L180,112 L180,124 L168,124 Z" fill="rgba(74,148,149,1)"/>
<path d="M-180,124 L-168,124 L-168,136 L-180,136 Z" fill="rgba(20,40,40,1)"/>
<path d="M-168,124 L-156,124 L-156,136 L-168,136 Z" fill="rgba(19,39,39,1)"/>
<path d="M-156,124 L-144,124 L-144,136 L-156,136 Z" fill="rgba(26,53,53,1)"/>
<path d="M-144,124 L-132,124 L-132,136 L-144,136 Z" fill="rgba(39,78,78,1)"/>
<path d="M-132,124 L-120,124 L-120,136 L-132,136 Z" fill="rgba(52,104,104,1)"/>
<path d="M-120,124 L-108,124 L-108,136 L-120,136 Z" fill="rgba(61,121,122,1)"/>
<path d="M-108,124 L-96,124 L-96,136 L-108,136 Z" fill="rgba(63,126,127,1)"/>
<path d="M-96,124 L-84,124 L-84,136 L-96,136 Z" fill="rgba(62,124,125,1)"/>
<path d="M-84,124 L-72,124 L-72,136 L-84,136 Z" fill="rgba(55,110,111,1)"/>
<path d="M-72,124 L-60,124 L-60,136 L-72,136 Z" fill="rgba(43,86,86,1)"/>
<path d="M-60,124 L-48,124 L-48,136 L-60,136 Z" fill="rgba(30,59,60,1)"/>
<path d="M-48,124 L-36,124 L-36,136 L-48,136 Z" fill="rgba(21,41,42,1)"/>
<path d="M-36,124 L-24,124 L-24,136 L-36,136 Z" fill="rgba(19,38,38,1)"/>
<path d="M-24,124 L-12,124 L-12,136 L-24,136 Z" fill="rgba(25,50,50,1)"/>
<path d="M-12,124 L0,124 L0,136 L-12,136 Z" fill="rgba(36,72,73,1)"/>
<path d="M0,124 L12,124 L12,136 L0,136 Z" fill="rgba(49,97,98,1)"/>
<path d="M12,124 L24,124 L24,136 L12,136 Z" fill="rgba(57,113,114,1)"/>
<path d="M24,124 L36,124 L36,136 L24,136 Z" fill="rgba(57,114,114,1)"/>
<path d="M36,124 L48,124 L48,136 L36,136 Z" fill="rgba(50,99,100,1)"/>
<path d="M48,124 L60,124 L60,136 L48,136 Z" fill="rgba(39,77,78,1)"/>
<path d="M60,124 L72,124 L72,136 L60,136 Z" fill="rgba(30,59,60,1)"/>
<path d="M72,124 L84,124 L84,136 L72,136 Z" fill="rgba(27,54,54,1)"/>
<path d="M84,124 L96,124 L96,136 L84,136 Z" fill="rgba(33,65,66,1)"/>
<path d="M96,124 L108,124 L108,136 L96,136 Z" fill="rgba(45,89,89,1)"/>
<path d="M108,124 L120,124 L120,136 L108,136 Z" fill="rgba(57,114,115,1)"/>
<path d="M120,124 L132,124 L132,136 L120,136 Z" fill="rgba(69,138,139,1)"/>
<path d="M132,124 L144,124 L144,136 L132,136 Z" fill="rgba(77,153,154,1)"/>
<path d="M144,124 L156,124 L156,136 L144,136 Z" fill="rgba(79,157,158,1)"/>
<path d="M156,124 L168,124 L168,136 L156,136 Z" fill="rgba(75,150,151,1)"/>
<path d="M168,124 L180,124 L180,136 L168,136 Z" fill="rgba(69,137,138,1)"/>
<path d="M-180,136 L-168,136 L-168,148 L-180,148 Z" fill="rgba(30,60,60,1)"/>
<path d="M-168,136 L-156,136 L-156,148 L-168,148 Z" fill="rgba(25,49,50,1)"/>
<path d="M-156,136 L-144,136 L-144,148 L-156,148 Z" fill="rgba(26,52,52,1)"/>
<path d="M-144,136 L-132,136 L-132,148 L-144,148 Z" fill="rgba(33,65,66,1)"/>
<path d="M-132,136 L-120,136 L-120,148 L-132,148 Z" fill="rgba(41,83,83,1)"/>
<path d="M-120,136 L-108,136 L-108,148 L-120,148 Z" fill="rgba(48,96,96,1)"/>
<path d="M-108,136 L-96,136 L-96,148 L-108,148 Z" fill="rgba(50,99,100,1)"/>
<path d="M-96,136 L-84,136 L-84,148 L-96,148 Z" fill="rgba(49,98,98,1)"/>
<path d="M-84,136 L-72,136 L-72,148 L-84,148 Z" fill="rgba(44,88,88,1)"/>
<path d="M-72,136 L-60,136 L-60,148 L-72,148 Z" fill="rgba(36,71,71,1)"/>
<path d="M-60,136 L-48,136 L-48,148 L-60,148 Z" fill="rgba(28,55,56,1)"/>
<path d="M-48,136 L-36,136 L-36,148 L-48,148 Z" fill="rgba(24,49,49,1)"/>
<path d="M-36,136 L-24,136 L-24,148 L-36,148 Z" fill="rgba(28,55,55,1)"/>
<path d="M-24,136 L-12,136 L-12,148 L-24,148 Z" fill="rgba(37,73,73,1)"/>
<path d="M-12,136 L0,136 L0,148 L-12,148 Z" fill="rgba(49,97,98,1)"/>
<path d="M0,136 L12,136 L12,148 L0,148 Z" fill="rgba(61,122,123,1)"/>
<path d="M12,136 L24,136 L24,148 L12,148 Z" fill="rgba(69,139,139,1)"/>
<path d="M24,136 L36,136 L36,148 L24,148 Z" fill="rgba(70,139,140,1)"/>
<path d="M36,136 L48,136 L48,148 L36,148 Z" fill="rgba(62,124,125,1)"/>
<path d="M48,136 L60,136 L60,148 L48,148 Z" fill="rgba(51,103,103,1)"/>
<path d="M60,136 L72,136 L72,148 L60,148 Z" fill="rgba(42,84,85,1)"/>
<path d="M72,136 L84,136 L84,148 L72,148 Z" fill="rgba(40,79,80,1)"/>
<path d="M84,136 L96,136 L96,148 L84,148 Z" fill="rgba(45,91,91,1)"/>
<path d="M96,136 L108,136 L108,148 L96,148 Z" fill="rgba(57,114,115,1)"/>
<path d="M108,136 L120,136 L120,148 L108,148 Z" fill="rgba(69,139,139,1)"/>
<path d="M120,136 L132,136 L132,148 L120,148 Z" fill="rgba(79,157,158,1)"/>
<path d="M132,136 L144,136 L144,148 L132,148 Z" fill="rgba(82,164,165,1)"/>
<path d="M144,136 L156,136 L156,148 L144,148 Z" fill="rgba(79,157,158,1)"/>
<path d="M156,136 L168,136 L168,148 L156,148 Z" fill="rgba(70,139,140,1)"/>
<path d="M168,136 L180,136 L180,148 L168,148 Z" fill="rgba(59,118,119,1)"/>
<path d="M-180,148 L-168,148 L-168,160 L-180,160 Z" fill="rgba(39,78,79,1)"/>
<path d="M-168,148 L-156,148 L-156,160 L-168,160 Z" fill="rgba(29,58,58,1)"/>
<path d="M-156,148 L-144,148 L-144,160 L-156,160 Z" fill="rgba(24,49,49,1)"/>
<path d="M-144,148 L-132,148 L-132,160 L-144,160 Z" fill="rgba(25,50,51,1)"/>
<path d="M-132,148 L-120,148 L-120,160 L-132,160 Z" fill="rgba(30,59,59,1)"/>
<path d="M-120,148 L-108,148 L-108,160 L-120,160 Z" fill="rgba(34,67,68,1)"/>
<path d="M-108,148 L-96,148 L-96,160 L-108,160 Z" fill="rgba(35,71,71,1)"/>
<path d="M-96,148 L-84,148 L-84,160 L-96,160 Z" fill="rgba(35,70,71,1)"/>
<path d="M-84,148 L-72,148 L-72,160 L-84,160 Z" fill="rgba(32,65,65,1)"/>
<path d="M-72,148 L-60,148 L-60,160 L-72,160 Z" fill="rgba(28,57,57,1)"/>
<path d="M-60,148 L-48,148 L-48,160 L-60,160 Z" fill="rgba(27,53,54,1)"/>
<path d="M-48,148 L-36,148 L-36,160 L-48,160 Z" fill="rgba(30,59,60,1)"/>
<path d="M-36,148 L-24,148 L-24,160 L-36,160 Z" fill="rgba(38,76,77,1)"/>
<path d="M-24,148 L-12,148 L-12,160 L-24,160 Z" fill="rgba(50,100,101,1)"/>
<path d="M-12,148 L0,148 L0,160 L-12,160 Z" fill="rgba(63,126,127,1)"/>
<path d="M0,148 L12,148 L12,160 L0,160 Z" fill="rgba(75,151,151,1)"/>
<path d="M12,148 L24,148 L24,160 L12,160 Z" fill="rgba(83,166,167,1)"/>
<path d="M24,148 L36,148 L36,160 L24,160 Z" fill="rgba(83,166,167,1)"/>
<path d="M36,148 L48,148 L48,160 L36,160 Z" fill="rgba(75,150,151,1)"/>
<path d="M48,148 L60,148 L60,160 L48,160 Z" fill="rgba(64,128,129,1)"/>
<path d="M60,148 L72,148 L72,160 L60,160 Z" fill="rgba(55,109,110,1)"/>
<path d="M72,148 L84,148 L84,160 L72,160 Z" fill="rgba(52,104,104,1)"/>
<path d="M84,148 L96,148 L96,160 L84,160 Z" fill="rgba(58,115,116,1)"/>
<path d="M96,148 L108,148 L108,160 L96,160 Z" fill="rgba(69,139,140,1)"/>
<path d="M108,148 L120,148 L120,160 L108,160 Z" fill="rgba(81,162,163,1)"/>
<path d="M120,148 L132,148 L132,160 L120,160 Z" fill="rgba(89,177,178,1)"/>
<path d="M132,148 L144,148 L144,160 L132,160 Z" fill="rgba(89,177,178,1)"/>
<path d="M144,148 L156,148 L156,160 L144,160 Z" fill="rgba(80,161,161,1)"/>
<path d="M156,148 L168,148 L168,160 L156,160 Z" fill="rgba(67,133,134,1)"/>
<path d="M168,148 L180,148 L180,160 L168,160 Z" fill="rgba(52,104,105,1)"/>
<path d="M-180,160 L-168,160 L-168,172 L-180,172 Z" fill="rgba(45,90,91,1)"/>
<path d="M-168,160 L-156,160 L-156,172 L-168,172 Z" fill="rgba(30,60,60,1)"/>
<path d="M-156,160 L-144,160 L-144,172 L-156,172 Z" fill="rgba(19,37,37,1)"/>
<path d="M-144,160 L-132,160 L-132,172 L-144,172 Z" fill="rgba(13,27,27,1)"/>
<path d="M-132,160 L-120,160 L-120,172 L-132,172 Z" fill="rgba(14,27,27,1)"/>
<path d="M-120,160 L-108,160 L-108,172 L-120,172 Z" fill="rgba(16,33,33,1)"/>
<path d="M-108,160 L-96,160 L-96,172 L-108,172 Z" fill="rgba(18,37,37,1)"/>
<path d="M-96,160 L-84,160 L-84,172 L-96,172 Z" fill="rgba(20,39,40,1)"/>
<path d="M-84,160 L-72,160 L-72,172 L-84,172 Z" fill="rgba(21,41,42,1)"/>
<path d="M-72,160 L-60,160 L-60,172 L-72,172 Z" fill="rgba(23,46,46,1)"/>
<path d="M-60,160 L-48,160 L-48,172 L-60,172 Z" fill="rgba(29,58,58,1)"/>
<path d="M-48,160 L-36,160 L-36,172 L-48,172 Z" fill="rgba(39,79,79,1)"/>
<path d="M-36,160 L-24,160 L-24,172 L-36,172 Z" fill="rgba(53,106,107,1)"/>
<path d="M-24,160 L-12,160 L-12,172 L-24,172 Z" fill="rgba(68,135,136,1)"/>
<path d="M-12,160 L0,160 L0,172 L-12,172 Z" fill="rgba(81,161,162,1)"/>
<path d="M0,160 L12,160 L12,172 L0,172 Z" fill="rgba(92,183,184,1)"/>
<path d="M12,160 L24,160 L24,172 L12,172 Z" fill="rgba(98,196,197,1)"/>
<path d="M24,160 L36,160 L36,172 L24,172 Z" fill="rgba(96,192,193,1)"/>
<path d="M36,160 L48,160 L48,172 L36,172 Z" fill="rgba(87,174,175,1)"/>
<path d="M48,160 L60,160 L60,172 L48,172 Z" fill="rgba(75,149,150,1)"/>
<path d="M60,160 L72,160 L72,172 L60,172 Z" fill="rgba(65,129,130,1)"/>
<path d="M72,160 L84,160 L84,172 L72,172 Z" fill="rgba(62,123,124,1)"/>
<path d="M84,160 L96,160 L96,172 L84,172 Z" fill="rgba(67,135,135,1)"/>
<path d="M96,160 L108,160 L108,172 L96,172 Z" fill="rgba(79,158,159,1)"/>
<path d="M108,160 L120,160 L120,172 L108,172 Z" fill="rgba(91,182,183,1)"/>
<path d="M120,160 L132,160 L132,172 L120,172 Z" fill="rgba(98,195,197,1)"/>
<path d="M132,160 L144,160 L144,172 L132,172 Z" fill="rgba(97,193,194,1)"/>
<path d="M144,160 L156,160 L156,172 L144,172 Z" fill="rgba(86,172,173,1)"/>
<path d="M156,160 L168,160 L168,172 L156,172 Z" fill="rgba(70,140,140,1)"/>
<path d="M168,160 L180,160 L180,172 L168,172 Z" fill="rgba(53,106,106,1)"/>
<path d="M-180,172 L-168,172 L-168,184 L-180,184 Z" fill="rgba(46,92,93,1)"/>
<path d="M-168,172 L-156,172 L-156,184 L-168,184 Z" fill="rgba(26,52,52,1)"/>
<path d="M-156,172 L-144,172 L-144,184 L-156,184 Z" fill="rgba(9,19,19,1)"/>
<path d="M-144,172 L-132,172 L-132,184 L-144,184 Z" fill="rgba(0,0,0,1)"/>
<path d="M-132,172 L-120,172 L-120,184 L-132,184 Z" fill="rgba(0,0,0,1)"/>
<path d="M-120,172 L-108,172 L-108,184 L-120,184 Z" fill="rgba(0,1,1,1)"/>
<path d="M-108,172 L-96,172 L-96,184 L-108,184 Z" fill="rgba(4,8,8,1)"/>
<path d="M-96,172 L-84,172 L-84,184 L-96,184 Z" fill="rgba(8,16,16,1)"/>
<path d="M-84,172 L-72,172 L-72,184 L-84,184 Z" fill="rgba(14,27,27,1)"/>
<path d="M-72,172 L-60,172 L-60,184 L-72,184 Z" fill="rgba(23,45,46,1)"/>
<path d="M-60,172 L-48,172 L-48,184 L-60,184 Z" fill="rgba(36,72,72,1)"/>
<path d="M-48,172 L-36,172 L-36,184 L-48,184 Z" fill="rgba(52,104,105,1)"/>
<path d="M-36,172 L-24,172 L-24,184 L-36,184 Z" fill="rgba(69,138,139,1)"/>
<path d="M-24,172 L-12,172 L-12,184 L-24,184 Z" fill="rgba(84,169,170,1)"/>
<path d="M-12,172 L0,172 L0,184 L-12,184 Z" fill="rgba(96,192,193,1)"/>
<path d="M0,172 L12,172 L12,184 L0,184 Z" fill="rgba(105,209,211,1)"/>
<path d="M12,172 L24,172 L24,184 L12,184 Z" fill="rgba(109,218,219,1)"/>
<path d="M24,172 L36,172 L36,184 L24,184 Z" fill="rgba(104,209,210,1)"/>
<path d="M36,172 L48,172 L48,184 L36,184 Z" fill="rgba(93,185,186,1)"/>
<path d="M48,172 L60,172 L60,184 L48,184 Z" fill="rgba(79,158,159,1)"/>
<path d="M60,172 L72,172 L72,184 L60,184 Z" fill="rgba(69,137,138,1)"/>
<path d="M72,172 L84,172 L84,184 L72,184 Z" fill="rgba(66,131,132,1)"/>
<path d="M84,172 L96,172 L96,184 L84,184 Z" fill="rgba(72,143,144,1)"/>
<path d="M96,172 L108,172 L108,184 L96,184 Z" fill="rgba(84,167,168,1)"/>
<path d="M108,172 L120,172 L120,184 L108,184 Z" fill="rgba(96,191,192,1)"/>
<path d="M120,172 L132,172 L132,184 L120,184 Z" fill="rgba(104,207,208,1)"/>
<path d="M132,172 L144,172 L144,184 L132,184 Z" fill="rgba(104,208,209,1)"/>
<path d="M144,172 L156,172 L156,184 L144,184 Z" fill="rgba(96,191,192,1)"/>
<path d="M156,172 L168,172 L168,184 L156,184 Z" fill="rgba(80,159,160,1)"/>
<path d="M168,172 L180,172 L180,184 L168,184 Z" fill="rgba(62,124,125,1)"/>
<path d="M-180,184 L-168,184 L-168,196 L-180,196 Z" fill="rgba(42,84,84,1)"/>
<path d="M-168,184 L-156,184 L-156,196 L-168,196 Z" fill="rgba(19,38,38,1)"/>
<path d="M-156,184 L-144,184 L-144,196 L-156,196 Z" fill="rgba(0,0,0,1)"/>
<path d="M-144,184 L-132,184 L-132,196 L-144,196 Z" fill="rgba(0,0,0,1)"/>
<path d="M-132,184 L-120,184 L-120,196 L-132,196 Z" fill="rgba(0,0,0,1)"/>
<path d="M-120,184 L-108,184 L-108,196 L-120,196 Z" fill="rgba(0,0,0,1)"/>
<path d="M-108,184 L-96,184 L-96,196 L-108,196 Z" fill="rgba(0,0,0,1)"/>
<path d="M-96,184 L-84,184 L-84,196 L-96,196 Z" fill="rgba(5,10,10,1)"/>
<path d="M-84,184 L-72,184 L-72,196 L-84,196 Z" fill="rgba(15,30,30,1)"/>
<path d="M-72,184 L-60,184 L-60,196 L-72,196 Z" fill="rgba(29,59,59,1)"/>
<path d="M-60,184 L-48,184 L-48,196 L-60,196 Z" fill="rgba(47,93,94,1)"/>
<path d="M-48,184 L-36,184 L-36,196 L-48,196 Z" fill="rgba(65,130,131,1)"/>
<path d="M-36,184 L-24,184 L-24,196 L-36,196 Z" fill="rgba(82,163,164,1)"/>
<path d="M-24,184 L-12,184 L-12,196 L-24,196 Z" fill="rgba(94,189,190,1)"/>
<path d="M-12,184 L0,184 L0,196 L-12,196 Z" fill="rgba(103,206,207,1)"/>
<path d="M0,184 L12,184 L12,196 L0,196 Z" fill="rgba(109,218,219,1)"/>
<path d="M12,184 L24,184 L24,196 L12,196 Z" fill="rgba(110,221,222,1)"/>
<path d="M24,184 L36,184 L36,196 L24,196 Z" fill="rgba(103,206,207,1)"/>
<path d="M36,184 L48,184 L48,196 L36,196 Z" fill="rgba(89,178,180,1)"/>
<path d="M48,184 L60,184 L60,196 L48,196 Z" fill="rgba(75,149,150,1)"/>
<path d="M60,184 L72,184 L72,196 L60,196 Z" fill="rgba(65,129,130,1)"/>
<path d="M72,184 L84,184 L84,196 L72,196 Z" fill="rgba(62,125,125,1)"/>
<path d="M84,184 L96,184 L96,196 L84,196 Z" fill="rgba(69,138,139,1)"/>
<path d="M96,184 L108,184 L108,196 L96,196 Z" fill="rgba(81,162,163,1)"/>
<path d="M108,184 L120,184 L120,196 L108,196 Z" fill="rgba(94,187,188,1)"/>
<path d="M120,184 L132,184 L132,196 L120,196 Z" fill="rgba(105,209,210,1)"/>
<path d="M132,184 L144,184 L144,196 L132,196 Z" fill="rgba(109,218,220,1)"/>
<path d="M144,184 L156,184 L156,196 L144,196 Z" fill="rgba(105,210,211,1)"/>
<path d="M156,184 L168,184 L168,196 L156,196 Z" fill="rgba(93,185,187,1)"/>
<path d="M168,184 L180,184 L180,196 L168,196 Z" fill="rgba(77,153,154,1)"/>
<path d="M-180,196 L-168,196 L-168,208 L-180,208 Z" fill="rgba(34,68,68,1)"/>
<path d="M-168,196 L-156,196 L-156,208 L-168,208 Z" fill="rgba(11,22,22,1)"/>
<path d="M-156,196 L-144,196 L-144,208 L-156,208 Z" fill="rgba(0,0,0,1)"/>
<path d="M-144,196 L-132,196 L-132,208 L-144,208 Z" fill="rgba(0,0,0,1)"/>
<path d="M-132,196 L-120,196 L-120,208 L-132,208 Z" fill="rgba(0,0,0,1)"/>
<path d="M-120,196 L-108,196 L-108,208 L-120,208 Z" fill="rgba(0,0,0,1)"/>
<path d="M-108,196 L-96,196 L-96,208 L-108,208 Z" fill="rgba(4,7,7,1)"/>
<path d="M-96,196 L-84,196 L-84,208 L-96,208 Z" fill="rgba(13,27,27,1)"/>
<path d="M-84,196 L-72,196 L-72,208 L-84,208 Z" fill="rgba(26,52,52,1)"/>
<path d="M-72,196 L-60,196 L-60,208 L-72,208 Z" fill="rgba(42,84,84,1)"/>
<path d="M-60,196 L-48,196 L-48,208 L-60,208 Z" fill="rgba(59,118,119,1)"/>
<path d="M-48,196 L-36,196 L-36,208 L-48,208 Z" fill="rgba(75,149,150,1)"/>
<path d="M-36,196 L-24,196 L-24,208 L-36,208 Z" fill="rgba(87,173,174,1)"/>
<path d="M-24,196 L-12,196 L-12,208 L-24,208 Z" fill="rgba(94,189,190,1)"/>
<path d="M-12,196 L0,196 L0,208 L-12,208 Z" fill="rgba(99,198,199,1)"/>
<path d="M0,196 L12,196 L12,208 L0,208 Z" fill="rgba(103,205,206,1)"/>
<path d="M12,196 L24,196 L24,208 L12,208 Z" fill="rgba(101,202,203,1)"/>
<path d="M24,196 L36,196 L36,208 L24,208 Z" fill="rgba(92,183,184,1)"/>
<path d="M36,196 L48,196 L48,208 L36,208 Z" fill="rgba(77,154,154,1)"/>
<path d="M48,196 L60,196 L60,208 L48,208 Z" fill="rgba(63,125,126,1)"/>
<path d="M60,196 L72,196 L72,208 L60,208 Z" fill="rgba(54,107,108,1)"/>
<path d="M72,196 L84,196 L84,208 L72,208 Z" fill="rgba(53,106,107,1)"/>
<path d="M84,196 L96,196 L96,208 L84,208 Z" fill="rgba(61,121,122,1)"/>
<path d="M96,196 L108,196 L108,208 L96,208 Z" fill="rgba(73,145,146,1)"/>
<path d="M108,196 L120,196 L120,208 L108,208 Z" fill="rgba(87,173,174,1)"/>
<path d="M120,196 L132,196 L132,208 L120,208 Z" fill="rgba(101,201,202,1)"/>
<path d="M132,196 L144,196 L144,208 L132,208 Z" fill="rgba(111,221,222,1)"/>
<path d="M144,196 L156,196 L156,208 L144,208 Z" fill="rgba(112,224,225,1)"/>
<path d="M156,196 L168,196 L168,208 L156,208 Z" fill="rgba(104,208,209,1)"/>
<path d="M168,196 L180,196 L180,208 L168,208 Z" fill="rgba(90,180,181,1)"/>
<path d="M-180,208 L-168,208 L-168,220 L-180,220 Z" fill="rgba(26,51,51,1)"/>
<path d="M-168,208 L-156,208 L-156,220 L-168,220 Z" fill="rgba(5,10,11,1)"/>
<path d="M-156,208 L-144,208 L-144,220 L-156,220 Z" fill="rgba(0,0,0,1)"/>
<path d="M-144,208 L-132,208 L-132,220 L-144,220 Z" fill="rgba(0,0,0,1)"/>
<path d="M-132,208 L-120,208 L-120,220 L-132,220 Z" fill="rgba(0,0,0,1)"/>
<path d="M-120,208 L-108,208 L-108,220 L-120,220 Z" fill="rgba(6,11,11,1)"/>
<path d="M-108,208 L-96,208 L-96,220 L-108,220 Z" fill="rgba(18,35,35,1)"/>
<path d="M-96,208 L-84,208 L-84,220 L-96,220 Z" fill="rgba(29,58,59,1)"/>
<path d="M-84,208 L-72,208 L-72,220 L-84,220 Z" fill="rgba(43,86,86,1)"/>
<path d="M-72,208 L-60,208 L-60,220 L-72,220 Z" fill="rgba(57,115,115,1)"/>
<path d="M-60,208 L-48,208 L-48,220 L-60,220 Z" fill="rgba(70,140,141,1)"/>
<path d="M-48,208 L-36,208 L-36,220 L-48,220 Z" fill="rgba(79,158,159,1)"/>
<path d="M-36,208 L-24,208 L-24,220 L-36,220 Z" fill="rgba(84,167,168,1)"/>
<path d="M-24,208 L-12,208 L-12,220 L-24,220 Z" fill="rgba(85,171,172,1)"/>
<path d="M-12,208 L0,208 L0,220 L-12,220 Z" fill="rgba(86,173,174,1)"/>
<path d="M0,208 L12,208 L12,220 L0,220 Z" fill="rgba(88,175,176,1)"/>
<path d="M12,208 L24,208 L24,220 L12,220 Z" fill="rgba(84,168,169,1)"/>
<path d="M24,208 L36,208 L36,220 L24,220 Z" fill="rgba(74,147,148,1)"/>
<path d="M36,208 L48,208 L48,220 L36,220 Z" fill="rgba(60,119,120,1)"/>
<path d="M48,208 L60,208 L60,220 L48,220 Z" fill="rgba(47,94,94,1)"/>
<path d="M60,208 L72,208 L72,220 L60,220 Z" fill="rgba(40,81,81,1)"/>
<path d="M72,208 L84,208 L84,220 L72,220 Z" fill="rgba(42,84,84,1)"/>
<path d="M84,208 L96,208 L96,220 L84,220 Z" fill="rgba(51,101,102,1)"/>
<path d="M96,208 L108,208 L108,220 L96,220 Z" fill="rgba(63,126,127,1)"/>
<path d="M108,208 L120,208 L120,220 L108,220 Z" fill="rgba(77,154,155,1)"/>
<path d="M120,208 L132,208 L132,220 L120,220 Z" fill="rgba(94,188,189,1)"/>
<path d="M132,208 L144,208 L144,220 L132,220 Z" fill="rgba(108,216,217,1)"/>
<path d="M144,208 L156,208 L156,220 L144,220 Z" fill="rgba(114,228,230,1)"/>
<path d="M156,208 L168,208 L168,220 L156,220 Z" fill="rgba(110,220,221,1)"/>
<path d="M168,208 L180,208 L180,220 L168,220 Z" fill="rgba(98,195,197,1)"/>
</svg>