<svg xmlns="http://www.w3.org/2000/svg" viewBox="-275.22 -73.56 550.43 323.11">
<path d="M-98.569,-32.499 L-137.588,-32.499 L-125.588,-24.499 L-143.588,-32.499 L-125.588,-40.499 L-137.588,-32.499 Z" fill="rgba(0,0,0,1)" stroke="rgba(0,0,0,1)" stroke-width="4"/>
<path d="M-62.522,-17.567 L-173.636,-17.567 L-161.636,-9.567 L-179.636,-17.567 L-161.636,-25.567 L-173.636,-17.567 Z" fill="rgba(0,0,0,1)" stroke="rgba(0,0,0,1)" stroke-width="4"/>
<path d="M-227.225,10.023 L-60.932,10.023 L-72.932,2.023 L-54.932,10.023 L-72.932,18.023 L-60.932,10.023 Z" fill="rgba(0,0,0,1)" stroke="rgba(0,0,0,1)" stroke-width="4"/>
<path d="M-20,46.071 L-216.157,46.071 L-204.157,54.071 L-222.157,46.071 L-204.157,38.071 L-216.157,46.071 Z" fill="rgba(0,0,0,1)" stroke="rgba(0,0,0,1)" stroke-width="4"/>
<path d="M-242.157,85.089 L-46,85.089 L-58,77.089 L-40,85.089 L-58,93.089 L-46,85.089 Z" fill="rgba(0,0,0,1)" stroke="rgba(0,0,0,1)" stroke-width="4"/>
<path d="M-34.932,121.137 L-201.225,121.137 L-189.225,129.137 L-207.225,121.137 L-189.225,113.137 L-201.225,121.137 Z" fill="rgba(0,0,0,1)" stroke="rgba(0,0,0,1)" stroke-width="4"/>
<path d="M-199.636,148.727 L-88.522,148.727 L-100.522,140.727 L-82.522,148.727 L-100.522,156.727 L-88.522,148.727 Z" fill="rgba(0,0,0,1)" stroke="rgba(0,0,0,1)" stroke-width="4"/>
<path d="M-163.588,163.659 L-124.569,163.659 L-136.569,155.659 L-118.569,163.659 L-136.569,171.659 L-124.569,163.659 Z" fill="rgba(0,0,0,1)" stroke="rgba(0,0,0,1)" stroke-width="4"/>
<text x="-80.376" y="0" text-anchor="start" font-family="Verdana, Helvetica, Arial, sans-serif" font-size="24" fill="rgba(0,0,0,1)" transform="matrix(1 0 0 1 -131.07852804032305 211.93852804032306)">Sort X + Sort Y</text>
<path d="M118.569,-32.499 L157.588,-32.499 L145.588,-40.499 L163.588,-32.499 L145.588,-24.499 L157.588,-32.499 Z" fill="rgba(0,0,0,1)" stroke="rgba(0,0,0,1)" stroke-width="4"/>
<path d="M82.522,-17.567 L193.636,-17.567 L181.636,-25.567 L199.636,-17.567 L181.636,-9.567 L193.636,-17.567 Z" fill="rgba(0,0,0,1)" stroke="rgba(0,0,0,1)" stroke-width="4"/>
<path d="M54.932,10.023 L221.225,10.023 L209.225,2.023 L227.225,10.023 L209.225,18.023 L221.225,10.023 Z" fill="rgba(0,0,0,1)" stroke="rgba(0,0,0,1)" stroke-width="4"/>
<path d="M40,46.071 L236.157,46.071 L224.157,38.071 L242.157,46.071 L224.157,54.071 L236.157,46.071 Z" fill="rgba(0,0,0,1)" stroke="rgba(0,0,0,1)" stroke-width="4"/>
<path d="M40,85.089 L236.157,85.089 L224.157,77.089 L242.157,85.089 L224.157,93.089 L236.157,85.089 Z" fill="rgba(0,0,0,1)" stroke="rgba(0,0,0,1)" stroke-width="4"/>
<path d="M54.932,121.137 L221.225,121.137 L209.225,113.137 L227.225,121.137 L209.225,129.137 L221.225,121.137 Z" fill="rgba(0,0,0,1)" stroke="rgba(0,0,0,1)" stroke-width="4"/>
<path d="M82.522,148.727 L193.636,148.727 L181.636,140.727 L199.636,148.727 L181.636,156.727 L193.636,148.727 Z" fill="rgba(0,0,0,1)" stroke="rgba(0,0,0,1)" stroke-width="4"/>
<path d="M118.569,163.659 L157.588,163.659 L145.588,155.659 L163.588,163.659 L145.588,171.659 L157.588,163.659 Z" fill="rgba(0,0,0,1)" stroke="rgba(0,0,0,1)" stroke-width="4"/>
<text x="-68.016" y="0" text-anchor="start" font-family="Verdana, Helvetica, Arial, sans-serif" font-size="24" fill="rgba(0,0,0,1)" transform="matrix(1 0 0 1 141.07852804032305 211.93852804032306)">Order_LRTB</text>
</svg>