<svg xmlns="http://www.w3.org/2000/svg" viewBox="-283.26 -175.25 566.82 393.52">
<path d="M-155,-58.453 L-195,-58.453 L-175,-93.094 Z" fill="rgba(0,0,0,0.12941176470588237)" stroke="rgba(0,0,0,1)" stroke-width="1"/>
<path d="M-171.667,-64.226 L-191.667,-98.868 L-157.026,-118.868 L-137.026,-84.226 Z" fill="rgba(0,0,0,0.12941176470588237)" stroke="rgba(0,0,0,1)" stroke-width="1"/>
<path d="M-177.233,-107.201 L-188.78,-100.534 L-198.689,-109.456 L-193.265,-121.637 L-180.005,-120.243 Z" fill="rgba(0,0,0,0.12941176470588237)" stroke="rgba(0,0,0,1)" stroke-width="1"/>
<path d="M-153.692,-113.094 L-160.359,-124.641 L-151.437,-134.55 L-139.257,-129.126 L-140.65,-115.866 Z" fill="rgba(0,0,0,0.12941176470588237)" stroke="rgba(0,0,0,1)" stroke-width="1"/>
<path d="M-147.799,-89.553 L-136.252,-96.22 L-126.344,-87.298 L-131.767,-75.118 L-145.027,-76.511 Z" fill="rgba(0,0,0,0.12941176470588237)" stroke="rgba(0,0,0,1)" stroke-width="1"/>
<path d="M-181.667,-70 L-141.667,-70 L-141.667,-30 L-181.667,-30 Z" fill="rgba(0,0,0,0.12941176470588237)" stroke="rgba(0,0,0,1)" stroke-width="1"/>
<path d="M-141.667,-53.333 L-141.667,-66.667 L-128.986,-70.787 L-121.149,-60 L-128.986,-49.213 Z" fill="rgba(0,0,0,0.12941176470588237)" stroke="rgba(0,0,0,1)" stroke-width="1"/>
<path d="M-148.333,-30 L-135,-30 L-130.88,-17.319 L-141.667,-9.482 L-152.454,-17.319 Z" fill="rgba(0,0,0,0.12941176470588237)" stroke="rgba(0,0,0,1)" stroke-width="1"/>
<path d="M-171.667,-36.667 L-171.667,-23.333 L-184.347,-19.213 L-192.185,-30 L-184.347,-40.787 Z" fill="rgba(0,0,0,0.12941176470588237)" stroke="rgba(0,0,0,1)" stroke-width="1"/>
<path d="M-171.667,-75.774 L-191.667,-41.132 L-226.308,-61.132 L-206.308,-95.774 Z" fill="rgba(0,0,0,0.12941176470588237)" stroke="rgba(0,0,0,1)" stroke-width="1"/>
<path d="M-206.1,-49.466 L-194.553,-42.799 L-197.326,-29.757 L-210.586,-28.363 L-216.009,-40.544 Z" fill="rgba(0,0,0,0.12941176470588237)" stroke="rgba(0,0,0,1)" stroke-width="1"/>
<path d="M-222.974,-66.906 L-229.641,-55.359 L-242.683,-58.131 L-244.077,-71.391 L-231.896,-76.815 Z" fill="rgba(0,0,0,0.12941176470588237)" stroke="rgba(0,0,0,1)" stroke-width="1"/>
<path d="M-205.534,-83.78 L-217.081,-90.447 L-214.309,-103.489 L-201.049,-104.882 L-195.626,-92.702 Z" fill="rgba(0,0,0,0.12941176470588237)" stroke="rgba(0,0,0,1)" stroke-width="1"/>
<path d="M20,-58.453 L-20,-58.453 L0,-93.094 Z" fill="rgba(0,0,0,0.12941176470588237)" stroke="rgba(0,0,0,1)" stroke-width="1"/>
<path d="M3.333,-64.226 L-16.667,-98.868 L10.099,-128.593 L46.64,-112.324 L42.459,-72.543 Z" fill="rgba(0,0,0,0.12941176470588237)" stroke="rgba(0,0,0,1)" stroke-width="1"/>
<path d="M-3.284,-113.73 L-12.206,-103.822 L-22.114,-112.744 L-13.193,-122.652 Z" fill="rgba(0,0,0,0.12941176470588237)" stroke="rgba(0,0,0,1)" stroke-width="1"/>
<path d="M21.061,-123.712 L8.88,-129.136 L14.304,-141.316 L26.484,-135.893 Z" fill="rgba(0,0,0,0.12941176470588237)" stroke="rgba(0,0,0,1)" stroke-width="1"/>
<path d="M43.507,-106.778 L44.901,-120.039 L58.161,-118.645 L56.768,-105.385 Z" fill="rgba(0,0,0,0.12941176470588237)" stroke="rgba(0,0,0,1)" stroke-width="1"/>
<path d="M37.053,-81.765 L50.095,-84.537 L52.867,-71.495 L39.825,-68.723 Z" fill="rgba(0,0,0,0.12941176470588237)" stroke="rgba(0,0,0,1)" stroke-width="1"/>
<path d="M-6.667,-70 L33.333,-70 L45.694,-31.958 L13.333,-8.446 L-19.027,-31.958 Z" fill="rgba(0,0,0,0.12941176470588237)" stroke="rgba(0,0,0,1)" stroke-width="1"/>
<path d="M39.514,-50.979 L35.393,-63.66 L48.074,-67.78 L52.194,-55.099 Z" fill="rgba(0,0,0,0.12941176470588237)" stroke="rgba(0,0,0,1)" stroke-width="1"/>
<path d="M35.986,-24.904 L46.773,-32.741 L54.61,-21.955 L43.823,-14.117 Z" fill="rgba(0,0,0,0.12941176470588237)" stroke="rgba(0,0,0,1)" stroke-width="1"/>
<path d="M10.097,-13.932 L20.884,-6.095 L13.047,4.692 L2.26,-3.145 Z" fill="rgba(0,0,0,0.12941176470588237)" stroke="rgba(0,0,0,1)" stroke-width="1"/>
<path d="M-8.338,-32.028 L-12.458,-19.348 L-25.139,-23.468 L-21.018,-36.149 Z" fill="rgba(0,0,0,0.12941176470588237)" stroke="rgba(0,0,0,1)" stroke-width="1"/>
<path d="M3.333,-75.774 L-16.667,-41.132 L-55.793,-49.449 L-59.974,-89.23 L-23.432,-105.499 Z" fill="rgba(0,0,0,0.12941176470588237)" stroke="rgba(0,0,0,1)" stroke-width="1"/>
<path d="M-36.23,-45.291 L-23.188,-42.519 L-25.96,-29.477 L-39.002,-32.249 Z" fill="rgba(0,0,0,0.12941176470588237)" stroke="rgba(0,0,0,1)" stroke-width="1"/>
<path d="M-57.047,-61.383 L-55.653,-48.123 L-68.913,-46.729 L-70.307,-59.99 Z" fill="rgba(0,0,0,0.12941176470588237)" stroke="rgba(0,0,0,1)" stroke-width="1"/>
<path d="M-53.605,-89.289 L-65.785,-83.866 L-71.208,-96.047 L-59.028,-101.47 Z" fill="rgba(0,0,0,0.12941176470588237)" stroke="rgba(0,0,0,1)" stroke-width="1"/>
<path d="M-28.716,-96.206 L-37.637,-106.115 L-27.729,-115.037 L-18.807,-105.128 Z" fill="rgba(0,0,0,0.12941176470588237)" stroke="rgba(0,0,0,1)" stroke-width="1"/>
<path d="M195,-50 L155,-50 L155,-90 L195,-90 Z" fill="rgba(0,0,0,0.12941176470588237)" stroke="rgba(0,0,0,1)" stroke-width="1"/>
<path d="M180,-70 L180,-110 L214.641,-90 Z" fill="rgba(0,0,0,0.12941176470588237)" stroke="rgba(0,0,0,1)" stroke-width="1"/>
<path d="M189.623,-104.444 L178.075,-111.111 L180.848,-124.153 L194.108,-125.547 L199.531,-113.366 Z" fill="rgba(0,0,0,0.12941176470588237)" stroke="rgba(0,0,0,1)" stroke-width="1"/>
<path d="M201.17,-91.111 L212.717,-97.778 L222.625,-88.856 L217.202,-76.675 L203.942,-78.069 Z" fill="rgba(0,0,0,0.12941176470588237)" stroke="rgba(0,0,0,1)" stroke-width="1"/>
<path d="M175,-65 L215,-65 L195,-30.359 Z" fill="rgba(0,0,0,0.12941176470588237)" stroke="rgba(0,0,0,1)" stroke-width="1"/>
<path d="M209.444,-55.377 L216.111,-66.925 L229.153,-64.152 L230.547,-50.892 L218.366,-45.469 Z" fill="rgba(0,0,0,0.12941176470588237)" stroke="rgba(0,0,0,1)" stroke-width="1"/>
<path d="M196.111,-43.83 L202.778,-32.283 L193.856,-22.375 L181.675,-27.798 L183.069,-41.058 Z" fill="rgba(0,0,0,0.12941176470588237)" stroke="rgba(0,0,0,1)" stroke-width="1"/>
<path d="M170,-70 L170,-30 L135.359,-50 Z" fill="rgba(0,0,0,0.12941176470588237)" stroke="rgba(0,0,0,1)" stroke-width="1"/>
<path d="M160.377,-35.556 L171.925,-28.889 L169.152,-15.847 L155.892,-14.453 L150.469,-26.634 Z" fill="rgba(0,0,0,0.12941176470588237)" stroke="rgba(0,0,0,1)" stroke-width="1"/>
<path d="M148.83,-48.889 L137.283,-42.222 L127.375,-51.144 L132.798,-63.325 L146.058,-61.931 Z" fill="rgba(0,0,0,0.12941176470588237)" stroke="rgba(0,0,0,1)" stroke-width="1"/>
<path d="M175,-75 L135,-75 L155,-109.641 Z" fill="rgba(0,0,0,0.12941176470588237)" stroke="rgba(0,0,0,1)" stroke-width="1"/>
<path d="M140.556,-84.623 L133.889,-73.075 L120.847,-75.848 L119.453,-89.108 L131.634,-94.531 Z" fill="rgba(0,0,0,0.12941176470588237)" stroke="rgba(0,0,0,1)" stroke-width="1"/>
<path d="M153.889,-96.17 L147.222,-107.717 L156.144,-117.625 L168.325,-112.202 L166.931,-98.942 Z" fill="rgba(0,0,0,0.12941176470588237)" stroke="rgba(0,0,0,1)" stroke-width="1"/>
<path d="M-155,130 L-195,130 L-195,90 L-155,90 Z" fill="rgba(0,0,0,0.12941176470588237)" stroke="rgba(0,0,0,1)" stroke-width="1"/>
<path d="M-170,110 L-170,70 L-131.958,57.639 L-108.446,90 L-131.958,122.361 Z" fill="rgba(0,0,0,0.12941176470588237)" stroke="rgba(0,0,0,1)" stroke-width="1"/>
<path d="M-150.979,63.82 L-163.66,67.94 L-160.887,54.898 Z" fill="rgba(0,0,0,0.12941176470588237)" stroke="rgba(0,0,0,1)" stroke-width="1"/>
<path d="M-124.904,67.348 L-132.741,56.561 L-119.481,55.167 Z" fill="rgba(0,0,0,0.12941176470588237)" stroke="rgba(0,0,0,1)" stroke-width="1"/>
<path d="M-113.932,93.236 L-106.095,82.449 L-100.672,94.63 Z" fill="rgba(0,0,0,0.12941176470588237)" stroke="rgba(0,0,0,1)" stroke-width="1"/>
<path d="M-132.028,111.671 L-119.348,115.791 L-129.256,124.713 Z" fill="rgba(0,0,0,0.12941176470588237)" stroke="rgba(0,0,0,1)" stroke-width="1"/>
<path d="M-175,115 L-135,115 L-122.639,153.042 L-155,176.554 L-187.361,153.042 Z" fill="rgba(0,0,0,0.12941176470588237)" stroke="rgba(0,0,0,1)" stroke-width="1"/>
<path d="M-128.82,134.021 L-132.94,121.34 L-119.898,124.113 Z" fill="rgba(0,0,0,0.12941176470588237)" stroke="rgba(0,0,0,1)" stroke-width="1"/>
<path d="M-132.348,160.096 L-121.561,152.259 L-120.167,165.519 Z" fill="rgba(0,0,0,0.12941176470588237)" stroke="rgba(0,0,0,1)" stroke-width="1"/>
<path d="M-158.236,171.068 L-147.449,178.905 L-159.63,184.328 Z" fill="rgba(0,0,0,0.12941176470588237)" stroke="rgba(0,0,0,1)" stroke-width="1"/>
<path d="M-176.671,152.972 L-180.791,165.652 L-189.713,155.744 Z" fill="rgba(0,0,0,0.12941176470588237)" stroke="rgba(0,0,0,1)" stroke-width="1"/>
<path d="M-180,110 L-180,150 L-218.042,162.361 L-241.554,130 L-218.042,97.639 Z" fill="rgba(0,0,0,0.12941176470588237)" stroke="rgba(0,0,0,1)" stroke-width="1"/>
<path d="M-199.021,156.18 L-186.34,152.06 L-189.113,165.102 Z" fill="rgba(0,0,0,0.12941176470588237)" stroke="rgba(0,0,0,1)" stroke-width="1"/>
<path d="M-225.096,152.652 L-217.259,163.439 L-230.519,164.833 Z" fill="rgba(0,0,0,0.12941176470588237)" stroke="rgba(0,0,0,1)" stroke-width="1"/>
<path d="M-236.068,126.764 L-243.905,137.551 L-249.328,125.37 Z" fill="rgba(0,0,0,0.12941176470588237)" stroke="rgba(0,0,0,1)" stroke-width="1"/>
<path d="M-217.972,108.329 L-230.652,104.209 L-220.744,95.287 Z" fill="rgba(0,0,0,0.12941176470588237)" stroke="rgba(0,0,0,1)" stroke-width="1"/>
<path d="M-175,105 L-215,105 L-227.361,66.958 L-195,43.446 L-162.639,66.958 Z" fill="rgba(0,0,0,0.12941176470588237)" stroke="rgba(0,0,0,1)" stroke-width="1"/>
<path d="M-221.18,85.979 L-217.06,98.66 L-230.102,95.887 Z" fill="rgba(0,0,0,0.12941176470588237)" stroke="rgba(0,0,0,1)" stroke-width="1"/>
<path d="M-217.652,59.904 L-228.439,67.741 L-229.833,54.481 Z" fill="rgba(0,0,0,0.12941176470588237)" stroke="rgba(0,0,0,1)" stroke-width="1"/>
<path d="M-191.764,48.932 L-202.551,41.095 L-190.37,35.672 Z" fill="rgba(0,0,0,0.12941176470588237)" stroke="rgba(0,0,0,1)" stroke-width="1"/>
<path d="M-173.329,67.028 L-169.209,54.348 L-160.287,64.256 Z" fill="rgba(0,0,0,0.12941176470588237)" stroke="rgba(0,0,0,1)" stroke-width="1"/>
<path d="M20,137.528 L-20,137.528 L-32.361,99.485 L0,75.974 L32.361,99.485 Z" fill="rgba(0,0,0,0.12941176470588237)" stroke="rgba(0,0,0,1)" stroke-width="1"/>
<path d="M13.236,109.102 L25.597,71.06 L52.362,100.785 Z" fill="rgba(0,0,0,0.12941176470588237)" stroke="rgba(0,0,0,1)" stroke-width="1"/>
<path d="M33.032,79.317 L24.11,69.408 L34.018,60.487 L42.94,70.395 Z" fill="rgba(0,0,0,0.12941176470588237)" stroke="rgba(0,0,0,1)" stroke-width="1"/>
<path d="M39.893,95.566 L52.935,92.794 L55.707,105.836 L42.665,108.608 Z" fill="rgba(0,0,0,0.12941176470588237)" stroke="rgba(0,0,0,1)" stroke-width="1"/>
<path d="M4.944,122.311 L44.944,122.311 L24.944,156.952 Z" fill="rgba(0,0,0,0.12941176470588237)" stroke="rgba(0,0,0,1)" stroke-width="1"/>
<path d="M39.389,131.933 L46.055,120.386 L57.602,127.053 L50.936,138.6 Z" fill="rgba(0,0,0,0.12941176470588237)" stroke="rgba(0,0,0,1)" stroke-width="1"/>
<path d="M26.055,143.48 L32.722,155.027 L21.175,161.694 L14.508,150.147 Z" fill="rgba(0,0,0,0.12941176470588237)" stroke="rgba(0,0,0,1)" stroke-width="1"/>
<path d="M-10.18,118.507 L2.18,156.549 L-36.946,148.232 Z" fill="rgba(0,0,0,0.12941176470588237)" stroke="rgba(0,0,0,1)" stroke-width="1"/>
<path d="M-8.688,154.239 L4.354,157.011 L1.582,170.053 L-11.46,167.281 Z" fill="rgba(0,0,0,0.12941176470588237)" stroke="rgba(0,0,0,1)" stroke-width="1"/>
<path d="M-23.79,145.126 L-32.712,155.035 L-42.62,146.113 L-33.699,136.204 Z" fill="rgba(0,0,0,0.12941176470588237)" stroke="rgba(0,0,0,1)" stroke-width="1"/>
<path d="M-11.236,102.947 L-43.597,126.458 L-47.778,86.677 Z" fill="rgba(0,0,0,0.12941176470588237)" stroke="rgba(0,0,0,1)" stroke-width="1"/>
<path d="M-44.758,115.408 L-43.364,128.668 L-56.625,130.062 L-58.018,116.801 Z" fill="rgba(0,0,0,0.12941176470588237)" stroke="rgba(0,0,0,1)" stroke-width="1"/>
<path d="M-40.758,98.229 L-52.939,92.806 L-47.516,80.625 L-35.335,86.048 Z" fill="rgba(0,0,0,0.12941176470588237)" stroke="rgba(0,0,0,1)" stroke-width="1"/>
<path d="M3.236,97.134 L-29.125,73.623 L7.417,57.353 Z" fill="rgba(0,0,0,0.12941176470588237)" stroke="rgba(0,0,0,1)" stroke-width="1"/>
<path d="M-18.974,69.104 L-31.155,74.527 L-36.578,62.346 L-24.397,56.923 Z" fill="rgba(0,0,0,0.12941176470588237)" stroke="rgba(0,0,0,1)" stroke-width="1"/>
<path d="M-1.4,67.599 L-0.006,54.339 L13.254,55.732 L11.86,68.993 Z" fill="rgba(0,0,0,0.12941176470588237)" stroke="rgba(0,0,0,1)" stroke-width="1"/>
<path d="M195,137.528 L155,137.528 L142.639,99.485 L175,75.974 L207.361,99.485 Z" fill="rgba(0,0,0,0.12941176470588237)" stroke="rgba(0,0,0,1)" stroke-width="1"/>
<path d="M188.236,109.102 L200.597,71.06 L238.639,83.42 L226.278,121.463 Z" fill="rgba(0,0,0,0.12941176470588237)" stroke="rgba(0,0,0,1)" stroke-width="1"/>
<path d="M216.448,76.21 L203.767,72.09 L213.676,63.168 Z" fill="rgba(0,0,0,0.12941176470588237)" stroke="rgba(0,0,0,1)" stroke-width="1"/>
<path d="M236.579,89.761 L240.699,77.08 L249.621,86.989 Z" fill="rgba(0,0,0,0.12941176470588237)" stroke="rgba(0,0,0,1)" stroke-width="1"/>
<path d="M223.028,109.892 L235.709,114.012 L225.8,122.934 Z" fill="rgba(0,0,0,0.12941176470588237)" stroke="rgba(0,0,0,1)" stroke-width="1"/>
<path d="M179.944,122.311 L219.944,122.311 L219.944,162.311 L179.944,162.311 Z" fill="rgba(0,0,0,0.12941176470588237)" stroke="rgba(0,0,0,1)" stroke-width="1"/>
<path d="M219.944,138.977 L219.944,125.644 L231.491,132.311 Z" fill="rgba(0,0,0,0.12941176470588237)" stroke="rgba(0,0,0,1)" stroke-width="1"/>
<path d="M213.278,162.311 L226.611,162.311 L219.944,173.858 Z" fill="rgba(0,0,0,0.12941176470588237)" stroke="rgba(0,0,0,1)" stroke-width="1"/>
<path d="M189.944,155.644 L189.944,168.977 L178.397,162.311 Z" fill="rgba(0,0,0,0.12941176470588237)" stroke="rgba(0,0,0,1)" stroke-width="1"/>
<path d="M164.82,118.507 L177.18,156.549 L139.138,168.909 L126.777,130.867 Z" fill="rgba(0,0,0,0.12941176470588237)" stroke="rgba(0,0,0,1)" stroke-width="1"/>
<path d="M161.329,161.699 L174.01,157.579 L171.238,170.621 Z" fill="rgba(0,0,0,0.12941176470588237)" stroke="rgba(0,0,0,1)" stroke-width="1"/>
<path d="M137.078,162.569 L141.198,175.25 L128.156,172.478 Z" fill="rgba(0,0,0,0.12941176470588237)" stroke="rgba(0,0,0,1)" stroke-width="1"/>
<path d="M136.208,138.318 L123.527,142.438 L126.299,129.396 Z" fill="rgba(0,0,0,0.12941176470588237)" stroke="rgba(0,0,0,1)" stroke-width="1"/>
<path d="M163.764,102.947 L131.403,126.458 L107.892,94.097 L140.253,70.586 Z" fill="rgba(0,0,0,0.12941176470588237)" stroke="rgba(0,0,0,1)" stroke-width="1"/>
<path d="M121.607,112.974 L129.444,123.761 L116.184,125.155 Z" fill="rgba(0,0,0,0.12941176470588237)" stroke="rgba(0,0,0,1)" stroke-width="1"/>
<path d="M113.285,90.179 L102.498,98.016 L101.105,84.756 Z" fill="rgba(0,0,0,0.12941176470588237)" stroke="rgba(0,0,0,1)" stroke-width="1"/>
<path d="M136.081,81.857 L128.244,71.07 L141.504,69.677 Z" fill="rgba(0,0,0,0.12941176470588237)" stroke="rgba(0,0,0,1)" stroke-width="1"/>
<path d="M178.236,97.134 L145.875,73.623 L169.387,41.262 L201.747,64.774 Z" fill="rgba(0,0,0,0.12941176470588237)" stroke="rgba(0,0,0,1)" stroke-width="1"/>
<path d="M155.672,60.139 L147.835,70.926 L142.412,58.745 Z" fill="rgba(0,0,0,0.12941176470588237)" stroke="rgba(0,0,0,1)" stroke-width="1"/>
<path d="M174.78,45.181 L163.993,37.344 L176.174,31.92 Z" fill="rgba(0,0,0,0.12941176470588237)" stroke="rgba(0,0,0,1)" stroke-width="1"/>
<path d="M189.739,64.289 L197.576,53.502 L202.999,65.683 Z" fill="rgba(0,0,0,0.12941176470588237)" stroke="rgba(0,0,0,1)" stroke-width="1"/>
</svg>