<svg xmlns="http://www.w3.org/2000/svg" viewBox="-222.2 -119.17 457.24 386.24">
<path d="M199.304,183.733 C199.304,186.219 197.065,188.233 194.304,188.233 C191.542,188.233 189.304,186.219 189.304,183.733 C189.304,181.248 191.542,179.233 194.304,179.233 C197.065,179.233 199.304,181.248 199.304,183.733 Z" fill="rgba(0,0,0,1)"/>
<path d="M89.488,93.235 C89.488,95.721 87.249,97.735 84.488,97.735 C81.726,97.735 79.488,95.721 79.488,93.235 C79.488,90.75 81.726,88.735 84.488,88.735 C87.249,88.735 89.488,90.75 89.488,93.235 Z" fill="rgba(0,0,0,1)"/>
<path d="M-184.133,190.992 C-184.133,193.477 -186.371,195.492 -189.133,195.492 C-191.894,195.492 -194.133,193.477 -194.133,190.992 C-194.133,188.507 -191.894,186.492 -189.133,186.492 C-186.371,186.492 -184.133,188.507 -184.133,190.992 Z" fill="rgba(0,0,0,1)"/>
<path d="M144.481,-82.748 C144.481,-80.263 142.242,-78.248 139.481,-78.248 C136.719,-78.248 134.481,-80.263 134.481,-82.748 C134.481,-85.233 136.719,-87.248 139.481,-87.248 C142.242,-87.248 144.481,-85.233 144.481,-82.748 Z" fill="rgba(0,0,0,1)"/>
<path d="M193.156,86.791 C193.156,89.276 190.918,91.291 188.156,91.291 C185.395,91.291 183.156,89.276 183.156,86.791 C183.156,84.305 185.395,82.291 188.156,82.291 C190.918,82.291 193.156,84.305 193.156,86.791 Z" fill="rgba(0,0,0,1)"/>
<path d="M206.973,160.622 C206.973,163.107 204.735,165.122 201.973,165.122 C199.212,165.122 196.973,163.107 196.973,160.622 C196.973,158.137 199.212,156.122 201.973,156.122 C204.735,156.122 206.973,158.137 206.973,160.622 Z" fill="rgba(0,0,0,1)"/>
<path d="M187.981,194.076 C187.981,196.561 185.742,198.576 182.981,198.576 C180.22,198.576 177.981,196.561 177.981,194.076 C177.981,191.59 180.22,189.576 182.981,189.576 C185.742,189.576 187.981,191.59 187.981,194.076 Z" fill="rgba(0,0,0,1)"/>
<path d="M-164.221,104.34 C-164.221,106.825 -166.459,108.84 -169.221,108.84 C-171.982,108.84 -174.221,106.825 -174.221,104.34 C-174.221,101.854 -171.982,99.84 -169.221,99.84 C-166.459,99.84 -164.221,101.854 -164.221,104.34 Z" fill="rgba(0,0,0,1)"/>
<path d="M55.002,84.956 C55.002,87.441 52.764,89.456 50.002,89.456 C47.241,89.456 45.002,87.441 45.002,84.956 C45.002,82.47 47.241,80.456 50.002,80.456 C52.764,80.456 55.002,82.47 55.002,84.956 Z" fill="rgba(0,0,0,1)"/>
<path d="M184.585,234.507 C184.585,236.993 182.347,239.007 179.585,239.007 C176.824,239.007 174.585,236.993 174.585,234.507 C174.585,232.022 176.824,230.007 179.585,230.007 C182.347,230.007 184.585,232.022 184.585,234.507 Z" fill="rgba(0,0,0,1)"/>
<path d="M-173.397,188.181 C-173.397,190.666 -175.636,192.681 -178.397,192.681 C-181.159,192.681 -183.397,190.666 -183.397,188.181 C-183.397,185.695 -181.159,183.681 -178.397,183.681 C-175.636,183.681 -173.397,185.695 -173.397,188.181 Z" fill="rgba(0,0,0,1)"/>
<path d="M-30.553,-67.025 C-30.553,-64.54 -32.791,-62.525 -35.553,-62.525 C-38.314,-62.525 -40.553,-64.54 -40.553,-67.025 C-40.553,-69.51 -38.314,-71.525 -35.553,-71.525 C-32.791,-71.525 -30.553,-69.51 -30.553,-67.025 Z" fill="rgba(0,0,0,1)"/>
<path d="M-66.237,52.502 C-66.237,54.988 -68.475,57.002 -71.237,57.002 C-73.998,57.002 -76.237,54.988 -76.237,52.502 C-76.237,50.017 -73.998,48.002 -71.237,48.002 C-68.475,48.002 -66.237,50.017 -66.237,52.502 Z" fill="rgba(0,0,0,1)"/>
<path d="M28.969,-86.603 C28.969,-84.117 26.73,-82.103 23.969,-82.103 C21.207,-82.103 18.969,-84.117 18.969,-86.603 C18.969,-89.088 21.207,-91.103 23.969,-91.103 C26.73,-91.103 28.969,-89.088 28.969,-86.603 Z" fill="rgba(0,0,0,1)"/>
<path d="M-146.878,212.158 C-146.878,214.643 -149.117,216.658 -151.878,216.658 C-154.64,216.658 -156.878,214.643 -156.878,212.158 C-156.878,209.672 -154.64,207.658 -151.878,207.658 C-149.117,207.658 -146.878,209.672 -146.878,212.158 Z" fill="rgba(0,0,0,1)"/>
<path d="M136.651,-32.427 C136.651,-29.941 134.412,-27.927 131.651,-27.927 C128.889,-27.927 126.651,-29.941 126.651,-32.427 C126.651,-34.912 128.889,-36.927 131.651,-36.927 C134.412,-36.927 136.651,-34.912 136.651,-32.427 Z" fill="rgba(0,0,0,1)"/>
<path d="M79.179,138.754 C79.179,141.239 76.941,143.254 74.179,143.254 C71.418,143.254 69.179,141.239 69.179,138.754 C69.179,136.268 71.418,134.254 74.179,134.254 C76.941,134.254 79.179,136.268 79.179,138.754 Z" fill="rgba(0,0,0,1)"/>
<path d="M39.696,54.107 C39.696,56.593 37.457,58.607 34.696,58.607 C31.934,58.607 29.696,56.593 29.696,54.107 C29.696,51.622 31.934,49.607 34.696,49.607 C37.457,49.607 39.696,51.622 39.696,54.107 Z" fill="rgba(0,0,0,1)"/>
<path d="M116.848,-69.405 C116.848,-66.92 114.609,-64.905 111.848,-64.905 C109.087,-64.905 106.848,-66.92 106.848,-69.405 C106.848,-71.891 109.087,-73.905 111.848,-73.905 C114.609,-73.905 116.848,-71.891 116.848,-69.405 Z" fill="rgba(0,0,0,1)"/>
<path d="M-51.719,-79.147 C-51.719,-76.662 -53.958,-74.647 -56.719,-74.647 C-59.481,-74.647 -61.719,-76.662 -61.719,-79.147 C-61.719,-81.632 -59.481,-83.647 -56.719,-83.647 C-53.958,-83.647 -51.719,-81.632 -51.719,-79.147 Z" fill="rgba(0,0,0,1)"/>
<path d="M-189.133,190.992 L-169.221,104.34 L-56.719,-79.147 L23.969,-86.603 L139.481,-82.748 L188.156,86.791 L201.973,160.622 L179.585,234.507 L-151.878,212.158 Z" fill="none" stroke="rgba(0,0,0,1)" stroke-width="1"/>
</svg>