<svg xmlns="http://www.w3.org/2000/svg" viewBox="-219.18 -162.92 446.18 440.3">
<path d="M-69.081,-49.099 L-72.996,-34.675 L-73.11,-34.123 L-76.723,-32.747 L-84.912,-27.85 L-92.1,-21.575 L-98.097,-14.127 L-102.914,-5.602 L-106.561,3.906 L-109.051,14.303 L-110.393,25.494 L-110.599,37.385 L-110.404,40.029 L-117.267,50.062 L-125.757,64.145 L-133.198,78.284 L-139.335,91.843 L-143.739,88.537 L-154.166,79.523 L-163.456,70.197 L-171.545,60.628 L-178.367,50.888 L-183.859,41.045 L-187.956,31.171 L-190.594,21.334 L-191.708,11.606 L-191.234,2.056 L-189.108,-7.246 L-185.361,-16.021 L-180.131,-24.026 L-173.511,-31.241 L-165.596,-37.649 L-156.477,-43.229 L-146.248,-47.964 L-135.003,-51.834 L-122.835,-54.821 L-109.838,-56.905 L-96.104,-58.069 L-81.727,-58.293 L-66.8,-57.559 L-66.209,-57.493 Z" fill="rgba(222,75,255,1)" stroke="rgba(0,0,0,1)" stroke-width="2"/>
<path d="M-19.905,207.538 L-30.905,197.511 L-42.052,186.065 L-52.821,173.639 L-60.243,164.011 L-62.818,163.379 L-74.063,159.509 L-84.292,154.775 L-93.41,149.194 L-101.326,142.787 L-107.946,135.571 L-113.176,127.567 L-116.923,118.791 L-119.049,109.49 L-119.241,105.628 L-119.731,105.349 L-132.239,97.169 L-139.335,91.843 L-139.58,92.385 L-144.891,106.354 L-149.121,120.097 L-152.258,133.519 L-154.292,146.524 L-155.212,159.02 L-155.006,170.91 L-153.663,182.101 L-151.174,192.498 L-147.526,202.006 L-142.71,210.532 L-136.713,217.979 L-129.525,224.255 L-121.336,229.151 L-112.4,232.553 L-102.803,234.5 L-92.633,235.031 L-81.976,234.185 L-70.918,232.004 L-59.546,228.525 L-47.946,223.789 L-36.205,217.836 L-24.41,210.705 Z" fill="rgba(75,140,255,1)" stroke="rgba(0,0,0,1)" stroke-width="2"/>
<path d="M-111.674,70.5 L-115.771,80.375 L-118.409,90.211 L-119.523,99.94 L-119.241,105.628 L-119.731,105.349 L-132.239,97.169 L-139.335,91.843 L-133.198,78.284 L-125.757,64.145 L-117.267,50.062 L-110.404,40.029 L-109.679,49.88 L-107.645,62.886 L-107.58,63.164 Z" fill="rgba(148,107,255,1)" stroke="rgba(0,0,0,1)" stroke-width="2"/>
<path d="M134.743,173.891 L133.824,161.395 L131.79,148.39 L128.653,134.968 L127.033,129.705 L114.098,137.068 L99.767,144.133 L84.621,150.535 L73.172,154.618 L71.775,156.872 L64.619,166.371 L56.955,174.635 L48.83,181.583 L40.29,187.132 L31.383,191.198 L22.154,193.698 L12.65,194.55 L3.146,193.698 L-0.585,192.687 L-1.003,193.067 L-12.647,202.435 L-19.905,207.538 L-19.466,207.938 L-7.821,217.306 L3.942,225.576 L15.737,232.707 L27.478,238.66 L39.077,243.396 L50.45,246.875 L61.508,249.056 L72.165,249.902 L82.335,249.371 L91.932,247.424 L100.868,244.022 L109.057,239.125 L116.245,232.85 L122.242,225.403 L127.058,216.877 L130.706,207.369 L133.195,196.972 L134.538,185.781 Z" fill="rgba(75,255,158,1)" stroke="rgba(0,0,0,1)" stroke-width="2"/>
<path d="M-73.11,-34.123 L-76.723,-32.747 L-84.912,-27.85 L-92.1,-21.575 L-98.097,-14.127 L-102.914,-5.602 L-106.561,3.906 L-109.051,14.303 L-110.393,25.494 L-110.599,37.385 L-110.404,40.029 L-107.739,36.132 L-97.434,22.766 L-86.665,10.34 L-78.937,2.404 L-78.412,-3.703 L-76.121,-19.516 Z" fill="rgba(148,165,207,1)" stroke="rgba(0,0,0,1)" stroke-width="2"/>
<path d="M-0.585,192.687 L-6.083,191.198 L-14.99,187.132 L-23.53,181.583 L-31.655,174.635 L-37.368,168.475 L-37.653,168.451 L-50.65,166.366 L-60.243,164.011 L-52.821,173.639 L-42.052,186.065 L-30.905,197.511 L-19.905,207.538 L-12.647,202.435 L-1.003,193.067 Z" fill="rgba(75,197,207,1)" stroke="rgba(0,0,0,1)" stroke-width="2"/>
<path d="M-78.937,2.404 L-86.665,10.34 L-97.434,22.766 L-107.739,36.132 L-110.404,40.029 L-109.679,49.88 L-107.645,62.886 L-107.58,63.164 L-106.182,60.658 L-99.359,50.917 L-91.271,41.349 L-81.981,32.022 L-80.272,30.545 L-80.3,29.55 L-79.82,12.68 Z" fill="rgba(124,157,223,1)" stroke="rgba(0,0,0,1)" stroke-width="2"/>
<path d="M199.527,35.668 L199.053,26.118 L196.926,16.816 L193.179,8.041 L187.949,0.036 L181.33,-7.179 L173.414,-13.587 L164.295,-19.167 L154.066,-23.902 L142.822,-27.772 L130.654,-30.759 L117.656,-32.844 L103.922,-34.007 L98.416,-34.093 L101.421,-19.516 L103.712,-3.703 L105.12,12.68 L105.466,24.831 L107.177,26.856 L114,36.596 L119.492,46.439 L123.589,56.313 L126.227,66.15 L127.341,75.878 L126.867,85.428 L124.741,94.73 L120.994,103.505 L118.879,106.742 L119.112,107.256 L124.423,121.225 L127.033,129.705 L127.55,129.411 L140.058,121.231 L151.557,112.599 L161.984,103.585 L171.274,94.259 L179.363,84.69 L186.185,74.949 L191.677,65.107 L195.774,55.232 L198.412,45.396 Z" fill="rgba(203,255,75,1)" stroke="rgba(0,0,0,1)" stroke-width="2"/>
<path d="M126.867,85.428 L124.741,94.73 L120.994,103.505 L118.879,106.742 L112.73,93.154 L105.289,79.015 L102.124,73.766 L103.712,62.803 L105.12,46.42 L105.6,29.55 L105.466,24.831 L107.177,26.856 L114,36.596 L119.492,46.439 L123.589,56.313 L126.227,66.15 L127.341,75.878 Z" fill="rgba(213,165,165,1)" stroke="rgba(0,0,0,1)" stroke-width="2"/>
<path d="M-60.243,164.011 L-63.126,160.272 L-72.654,146.342 L-81.144,132.26 L-86.303,122.457 L-91.949,120.071 L-106.28,113.006 L-119.241,105.628 L-119.049,109.49 L-116.923,118.791 L-113.176,127.567 L-107.946,135.571 L-101.326,142.787 L-93.41,149.194 L-84.292,154.775 L-74.063,159.509 L-62.818,163.379 Z" fill="rgba(139,197,165,1)" stroke="rgba(0,0,0,1)" stroke-width="2"/>
<path d="M-86.303,122.457 L-88.585,118.121 L-94.967,104.019 L-100.278,90.05 L-104.508,76.307 L-107.58,63.164 L-111.674,70.5 L-115.771,80.375 L-118.409,90.211 L-119.523,99.94 L-119.241,105.628 L-106.28,113.006 L-91.949,120.071 Z" fill="rgba(167,157,195,1)" stroke="rgba(0,0,0,1)" stroke-width="2"/>
<path d="M114.098,137.068 L99.767,144.133 L84.621,150.535 L73.172,154.618 L78.376,146.223 L84.375,134.505 L84.486,134.242 L92.11,130.713 L101.229,125.132 L109.144,118.725 L115.764,111.51 L118.879,106.742 L119.112,107.256 L124.423,121.225 L127.033,129.705 Z" fill="rgba(139,255,117,1)" stroke="rgba(0,0,0,1)" stroke-width="2"/>
<path d="M115.764,111.51 L109.144,118.725 L101.229,125.132 L92.11,130.713 L84.486,134.242 L89.726,121.803 L94.381,108.199 L98.296,93.775 L101.421,78.616 L102.124,73.766 L105.289,79.015 L112.73,93.154 L118.879,106.742 Z" fill="rgba(167,195,163,1)" stroke="rgba(0,0,0,1)" stroke-width="2"/>
<path d="M-37.368,168.475 L-39.319,166.371 L-46.475,156.872 L-53.076,146.223 L-59.075,134.505 L-59.952,132.423 L-60.907,132.143 L-76.803,126.473 L-86.303,122.457 L-81.144,132.26 L-72.654,146.342 L-63.126,160.272 L-60.243,164.011 L-50.65,166.366 L-37.653,168.451 Z" fill="rgba(118,217,163,1)" stroke="rgba(0,0,0,1)" stroke-width="2"/>
<path d="M-60.907,132.143 L-76.803,126.473 L-86.303,122.457 L-88.585,118.121 L-94.967,104.019 L-100.278,90.05 L-104.508,76.307 L-107.58,63.164 L-106.182,60.658 L-99.359,50.917 L-91.271,41.349 L-81.981,32.022 L-80.272,30.545 L-79.82,46.42 L-78.412,62.803 L-76.121,78.616 L-72.996,93.775 L-69.081,108.199 L-64.426,121.803 L-59.952,132.423 Z" fill="rgba(144,181,186,1)" stroke="rgba(0,0,0,1)" stroke-width="2"/>
<path d="M89.545,-34.231 L74.618,-33.497 L74.057,-33.434 L71.632,-36.446 L64.444,-42.721 L56.255,-47.618 L47.319,-51.02 L37.722,-52.966 L27.552,-53.497 L16.895,-52.652 L5.837,-50.47 L-5.536,-46.992 L-7.99,-45.989 L-19.653,-49.416 L-35.67,-53.139 L-51.416,-55.847 L-66.209,-57.493 L-64.426,-62.703 L-59.075,-75.405 L-53.076,-87.123 L-46.475,-97.772 L-39.319,-107.271 L-31.655,-115.535 L-23.53,-122.483 L-14.99,-128.032 L-6.083,-132.098 L3.146,-134.598 L12.65,-135.45 L22.154,-134.598 L31.383,-132.098 L40.29,-128.032 L48.83,-122.483 L56.955,-115.535 L64.619,-107.271 L71.775,-97.772 L78.376,-87.123 L84.375,-75.405 L89.726,-62.703 L94.381,-49.099 L98.296,-34.675 L98.416,-34.093 Z" fill="rgba(255,95,75,1)" stroke="rgba(0,0,0,1)" stroke-width="2"/>
<path d="M-17.135,-42.256 L-28.876,-36.303 L-29.12,-36.155 L-37.363,-37.781 L-48.02,-38.626 L-58.19,-38.095 L-67.787,-36.149 L-73.11,-34.123 L-72.996,-34.675 L-69.081,-49.099 L-66.209,-57.493 L-51.416,-55.847 L-35.67,-53.139 L-19.653,-49.416 L-7.99,-45.989 Z" fill="rgba(238,85,165,1)" stroke="rgba(0,0,0,1)" stroke-width="2"/>
<path d="M59.234,-31.785 L43.488,-29.077 L37.517,-27.689 L27.582,-32.587 L12.436,-38.989 L-3.46,-44.659 L-7.99,-45.989 L-5.536,-46.992 L5.837,-50.47 L16.895,-52.652 L27.552,-53.497 L37.722,-52.966 L47.319,-51.02 L56.255,-47.618 L64.444,-42.721 L71.632,-36.446 L74.057,-33.434 Z" fill="rgba(165,117,165,1)" stroke="rgba(0,0,0,1)" stroke-width="2"/>
<path d="M27.471,-25.354 L11.279,-20.597 L10.341,-20.263 L8.408,-21.432 L-3.333,-27.385 L-14.933,-32.121 L-26.305,-35.599 L-29.12,-36.155 L-28.876,-36.303 L-17.135,-42.256 L-7.99,-45.989 L-3.46,-44.659 L12.436,-38.989 L27.582,-32.587 L37.517,-27.689 Z" fill="rgba(184,103,195,1)" stroke="rgba(0,0,0,1)" stroke-width="2"/>
<path d="M73.172,154.618 L68.725,156.204 L52.532,160.961 L36.516,164.684 L25.599,166.562 L21.584,171.194 L10.437,182.64 L-0.585,192.687 L3.146,193.698 L12.65,194.55 L22.154,193.698 L31.383,191.198 L40.29,187.132 L48.83,181.583 L56.955,174.635 L64.619,166.371 L71.775,156.872 Z" fill="rgba(165,175,117,1)" stroke="rgba(0,0,0,1)" stroke-width="2"/>
<path d="M-40.671,-29.171 L-52.434,-20.902 L-64.078,-11.534 L-75.518,-1.107 L-78.937,2.404 L-78.412,-3.703 L-76.121,-19.516 L-73.11,-34.123 L-67.787,-36.149 L-58.19,-38.095 L-48.02,-38.626 L-37.363,-37.781 L-29.12,-36.155 Z" fill="rgba(184,142,163,1)" stroke="rgba(0,0,0,1)" stroke-width="2"/>
<path d="M25.599,166.562 L20.769,167.392 L5.386,169.104 L-9.541,169.839 L-23.919,169.615 L-37.368,168.475 L-31.655,174.635 L-23.53,181.583 L-14.99,187.132 L-6.083,191.198 L-0.585,192.687 L10.437,182.64 L21.584,171.194 Z" fill="rgba(135,163,163,1)" stroke="rgba(0,0,0,1)" stroke-width="2"/>
<path d="M10.341,-20.263 L8.408,-21.432 L-3.333,-27.385 L-14.933,-32.121 L-26.305,-35.599 L-29.12,-36.155 L-40.671,-29.171 L-52.434,-20.902 L-64.078,-11.534 L-75.518,-1.107 L-78.937,2.404 L-79.82,12.68 L-80.3,29.55 L-80.272,30.545 L-71.554,23.008 L-60.054,14.376 L-47.546,6.197 L-34.095,-1.46 L-19.764,-8.525 L-4.618,-14.927 Z" fill="rgba(157,141,186,1)" stroke="rgba(0,0,0,1)" stroke-width="2"/>
<path d="M99.089,17.287 L89.799,7.961 L89.583,7.774 L88.582,-0.568 L86.093,-10.965 L82.445,-20.473 L77.629,-28.998 L74.057,-33.434 L74.618,-33.497 L89.545,-34.231 L98.416,-34.093 L101.421,-19.516 L103.712,-3.703 L105.12,12.68 L105.466,24.831 Z" fill="rgba(229,175,75,1)" stroke="rgba(0,0,0,1)" stroke-width="2"/>
<path d="M105.12,46.42 L103.712,62.803 L102.124,73.766 L96.798,64.933 L87.271,51.003 L86.663,50.215 L87.177,48.015 L89.211,35.009 L90.13,22.514 L89.925,10.623 L89.583,7.774 L89.799,7.961 L99.089,17.287 L105.466,24.831 L105.6,29.55 Z" fill="rgba(227,142,135,1)" stroke="rgba(0,0,0,1)" stroke-width="2"/>
<path d="M89.583,7.774 L88.582,-0.568 L86.093,-10.965 L82.445,-20.473 L77.629,-28.998 L74.057,-33.434 L59.234,-31.785 L43.488,-29.077 L37.517,-27.689 L41.913,-25.522 L55.364,-17.865 L67.872,-9.685 L79.372,-1.054 Z" fill="rgba(178,163,135,1)" stroke="rgba(0,0,0,1)" stroke-width="2"/>
<path d="M89.211,35.009 L87.177,48.015 L86.663,50.215 L76.966,37.637 L66.197,25.211 L55.05,13.764 L43.61,3.337 L31.966,-6.031 L20.203,-14.301 L10.341,-20.263 L11.279,-20.597 L27.471,-25.354 L37.517,-27.689 L41.913,-25.522 L55.364,-17.865 L67.872,-9.685 L79.372,-1.054 L89.583,7.774 L89.925,10.623 L90.13,22.514 Z" fill="rgba(189,141,165,1)" stroke="rgba(0,0,0,1)" stroke-width="2"/>
<path d="M84.375,134.505 L78.376,146.223 L73.172,154.618 L68.725,156.204 L52.532,160.961 L36.516,164.684 L25.599,166.562 L32.353,158.768 L42.658,145.401 L43.219,144.58 L45.471,144.389 L58.468,142.304 L70.636,139.318 L81.881,135.448 L84.486,134.242 Z" fill="rgba(178,202,103,1)" stroke="rgba(0,0,0,1)" stroke-width="2"/>
<path d="M102.124,73.766 L96.798,64.933 L87.271,51.003 L86.663,50.215 L84.04,61.436 L79.81,75.179 L74.499,89.148 L68.117,103.25 L60.676,117.389 L52.185,131.471 L43.219,144.58 L45.471,144.389 L58.468,142.304 L70.636,139.318 L81.881,135.448 L84.486,134.242 L89.726,121.803 L94.381,108.199 L98.296,93.775 L101.421,78.616 Z" fill="rgba(189,170,141,1)" stroke="rgba(0,0,0,1)" stroke-width="2"/>
<path d="M43.219,144.58 L31.737,145.553 L17.36,145.777 L2.433,145.042 L-12.951,143.331 L-28.697,140.622 L-44.714,136.899 L-59.952,132.423 L-59.075,134.505 L-53.076,146.223 L-46.475,156.872 L-39.319,166.371 L-37.368,168.475 L-23.919,169.615 L-9.541,169.839 L5.386,169.104 L20.769,167.392 L25.599,166.562 L32.353,158.768 L42.658,145.401 Z" fill="rgba(152,186,141,1)" stroke="rgba(0,0,0,1)" stroke-width="2"/>
<path d="M86.663,50.215 L76.966,37.637 L66.197,25.211 L55.05,13.764 L43.61,3.337 L31.966,-6.031 L20.203,-14.301 L10.341,-20.263 L-4.618,-14.927 L-19.764,-8.525 L-34.095,-1.46 L-47.546,6.197 L-60.054,14.376 L-71.554,23.008 L-80.272,30.545 L-79.82,46.42 L-78.412,62.803 L-76.121,78.616 L-72.996,93.775 L-69.081,108.199 L-64.426,121.803 L-59.952,132.423 L-44.714,136.899 L-28.697,140.622 L-12.951,143.331 L2.433,145.042 L17.36,145.777 L31.737,145.553 L43.219,144.58 L52.185,131.471 L60.676,117.389 L68.117,103.25 L74.499,89.148 L79.81,75.179 L84.04,61.436 Z" fill="rgba(166,164,164,1)" stroke="rgba(0,0,0,1)" stroke-width="2"/>
</svg>