<svg xmlns="http://www.w3.org/2000/svg" viewBox="-271.12 -162.62 542.24 432.24">
<path d="M-88.5,-100 C-88.5,-83.431 -101.931,-70 -118.5,-70 C-135.069,-70 -148.5,-83.431 -148.5,-100 C-148.5,-116.569 -135.069,-130 -118.5,-130 C-101.931,-130 -88.5,-116.569 -88.5,-100 Z" fill="rgba(127,201,127,1)" stroke="rgba(0,0,0,1)" stroke-width="1"/>
<path d="M-9.5,-100 C-9.5,-83.431 -22.931,-70 -39.5,-70 C-56.069,-70 -69.5,-83.431 -69.5,-100 C-69.5,-116.569 -56.069,-130 -39.5,-130 C-22.931,-130 -9.5,-116.569 -9.5,-100 Z" fill="rgba(190,174,212,1)" stroke="rgba(0,0,0,1)" stroke-width="1"/>
<path d="M69.5,-100 C69.5,-83.431 56.069,-70 39.5,-70 C22.931,-70 9.5,-83.431 9.5,-100 C9.5,-116.569 22.931,-130 39.5,-130 C56.069,-130 69.5,-116.569 69.5,-100 Z" fill="rgba(253,192,134,1)" stroke="rgba(0,0,0,1)" stroke-width="1"/>
<path d="M148.5,-100 C148.5,-83.431 135.069,-70 118.5,-70 C101.931,-70 88.5,-83.431 88.5,-100 C88.5,-116.569 101.931,-130 118.5,-130 C135.069,-130 148.5,-116.569 148.5,-100 Z" fill="rgba(255,255,153,1)" stroke="rgba(0,0,0,1)" stroke-width="1"/>
<path d="M-238.5,-30 L-180.75,-30 L-161.5,-10.75 L-161.5,27.75 L-180.75,47 L-219.25,47 L-238.5,27.75 L-238.5,-10.75 L-219.25,-30 Z" fill="rgba(127,201,127,1)" stroke="rgba(0,0,0,1)" stroke-width="1"/>
<path d="M-138.5,-30 L-80.75,-30 L-61.5,-10.75 L-61.5,27.75 L-80.75,47 L-119.25,47 L-138.5,27.75 L-138.5,-10.75 L-119.25,-30 Z" fill="rgba(88,203,168,1)" stroke="rgba(0,0,0,1)" stroke-width="1"/>
<path d="M-38.5,-30 L19.25,-30 L38.5,-10.75 L38.5,27.75 L19.25,47 L-19.25,47 L-38.5,27.75 L-38.5,-10.75 L-19.25,-30 Z" fill="rgba(81,200,208,1)" stroke="rgba(0,0,0,1)" stroke-width="1"/>
<path d="M61.5,-30 L119.25,-30 L138.5,-10.75 L138.5,27.75 L119.25,47 L80.75,47 L61.5,27.75 L61.5,-10.75 L80.75,-30 Z" fill="rgba(119,192,228,1)" stroke="rgba(0,0,0,1)" stroke-width="1"/>
<path d="M161.5,-30 L219.25,-30 L238.5,-10.75 L238.5,27.75 L219.25,47 L180.75,47 L161.5,27.75 L161.5,-10.75 L180.75,-30 Z" fill="rgba(163,182,227,1)" stroke="rgba(0,0,0,1)" stroke-width="1"/>
<path d="M-238.5,65 L-180.75,65 L-161.5,84.25 L-161.5,122.75 L-180.75,142 L-219.25,142 L-238.5,122.75 L-238.5,84.25 L-219.25,65 Z" fill="rgba(193,174,214,1)" stroke="rgba(0,0,0,1)" stroke-width="1"/>
<path d="M-138.5,65 L-80.75,65 L-61.5,84.25 L-61.5,122.75 L-80.75,142 L-119.25,142 L-138.5,122.75 L-138.5,84.25 L-119.25,65 Z" fill="rgba(220,172,210,1)" stroke="rgba(0,0,0,1)" stroke-width="1"/>
<path d="M-38.5,65 L19.25,65 L38.5,84.25 L38.5,122.75 L19.25,142 L-19.25,142 L-38.5,122.75 L-38.5,84.25 L-19.25,65 Z" fill="rgba(245,171,196,1)" stroke="rgba(0,0,0,1)" stroke-width="1"/>
<path d="M61.5,65 L119.25,65 L138.5,84.25 L138.5,122.75 L119.25,142 L80.75,142 L61.5,122.75 L61.5,84.25 L80.75,65 Z" fill="rgba(255,174,173,1)" stroke="rgba(0,0,0,1)" stroke-width="1"/>
<path d="M161.5,65 L219.25,65 L238.5,84.25 L238.5,122.75 L219.25,142 L180.75,142 L161.5,122.75 L161.5,84.25 L180.75,65 Z" fill="rgba(255,184,147,1)" stroke="rgba(0,0,0,1)" stroke-width="1"/>
<path d="M-238.5,160 L-180.75,160 L-161.5,179.25 L-161.5,217.75 L-180.75,237 L-219.25,237 L-238.5,217.75 L-238.5,179.25 L-219.25,160 Z" fill="rgba(255,198,135,1)" stroke="rgba(0,0,0,1)" stroke-width="1"/>
<path d="M-138.5,160 L-80.75,160 L-61.5,179.25 L-61.5,217.75 L-80.75,237 L-119.25,237 L-138.5,217.75 L-138.5,179.25 L-119.25,160 Z" fill="rgba(255,212,137,1)" stroke="rgba(0,0,0,1)" stroke-width="1"/>
<path d="M-38.5,160 L19.25,160 L38.5,179.25 L38.5,217.75 L19.25,237 L-19.25,237 L-38.5,217.75 L-38.5,179.25 L-19.25,160 Z" fill="rgba(255,225,140,1)" stroke="rgba(0,0,0,1)" stroke-width="1"/>
<path d="M61.5,160 L119.25,160 L138.5,179.25 L138.5,217.75 L119.25,237 L80.75,237 L61.5,217.75 L61.5,179.25 L80.75,160 Z" fill="rgba(255,239,145,1)" stroke="rgba(0,0,0,1)" stroke-width="1"/>
<path d="M161.5,160 L219.25,160 L238.5,179.25 L238.5,217.75 L219.25,237 L180.75,237 L161.5,217.75 L161.5,179.25 L180.75,160 Z" fill="rgba(255,255,153,1)" stroke="rgba(0,0,0,1)" stroke-width="1"/>
</svg>