<svg xmlns="http://www.w3.org/2000/svg" viewBox="-288.36 -169.25 576.72 438.49">
<path d="M-253.891,-134.78 L-210.453,-134.78 L-210.453,-104.78 L-253.891,-104.78 Z" fill="rgba(218,218,218,1)"/>
<text x="0" y="12" text-anchor="start" font-family="Verdana, Helvetica, Arial, sans-serif" font-size="32" fill="rgba(0,0,0,1)" transform="matrix(1 0 0 1 -195.45313219814003 -119.77999999999997)">10.86%</text>
<path d="M-253.891,-78.7 L-17.05,-78.7 L-17.05,-48.7 L-253.891,-48.7 Z" fill="rgba(218,218,218,1)"/>
<text x="0" y="12" text-anchor="start" font-family="Verdana, Helvetica, Arial, sans-serif" font-size="32" fill="rgba(0,0,0,1)" transform="matrix(1 0 0 1 -2.050355982914567 -63.699999999999974)">59.21%</text>
<path d="M-253.891,-22.62 L32.765,-22.62 L32.765,7.38 L-253.891,7.38 Z" fill="rgba(218,218,218,1)"/>
<text x="0" y="12" text-anchor="start" font-family="Verdana, Helvetica, Arial, sans-serif" font-size="32" fill="rgba(0,0,0,1)" transform="matrix(1 0 0 1 47.764834321156144 -7.619999999999976)">71.66%</text>
<path d="M-253.891,33.46 L81.648,33.46 L81.648,63.46 L-253.891,63.46 Z" fill="rgba(218,218,218,1)"/>
<text x="0" y="12" text-anchor="start" font-family="Verdana, Helvetica, Arial, sans-serif" font-size="32" fill="rgba(0,0,0,1)" transform="matrix(1 0 0 1 96.64762311340868 48.460000000000036)">83.88%</text>
<path d="M-253.891,89.54 L86.376,89.54 L86.376,119.54 L-253.891,119.54 Z" fill="rgba(218,218,218,1)"/>
<text x="0" y="12" text-anchor="start" font-family="Verdana, Helvetica, Arial, sans-serif" font-size="32" fill="rgba(0,0,0,1)" transform="matrix(1 0 0 1 101.37577981413901 104.54000000000002)">85.07%</text>
<path d="M-253.891,145.62 L94.671,145.62 L94.671,175.62 L-253.891,175.62 Z" fill="rgba(218,218,218,1)"/>
<text x="0" y="12" text-anchor="start" font-family="Verdana, Helvetica, Arial, sans-serif" font-size="32" fill="rgba(0,0,0,1)" transform="matrix(1 0 0 1 109.67115306021273 160.62)">87.14%</text>
<path d="M-253.891,201.7 L130.379,201.7 L130.379,231.7 L-253.891,231.7 Z" fill="rgba(218,218,218,1)"/>
<text x="0" y="12" text-anchor="start" font-family="Verdana, Helvetica, Arial, sans-serif" font-size="32" fill="rgba(0,0,0,1)" transform="matrix(1 0 0 1 145.37889699177444 216.7)">96.07%</text>
</svg>