<svg xmlns="http://www.w3.org/2000/svg" viewBox="-269.32 -314.65 538.94 648.64">
<path d="M-225,200 L-180,200 L-135,200 L-90,200 L-45,200 L0,200 L45,200 L90,200 L135,200 L180,200 L225,200" fill="none" stroke="rgba(0,0,0,1)" stroke-width="1"/>
<path d="M-219,200 C-219,203.314 -221.686,206 -225,206 C-228.314,206 -231,203.314 -231,200 C-231,196.686 -228.314,194 -225,194 C-221.686,194 -219,196.686 -219,200 Z" fill="rgba(0,0,0,1)"/>
<path d="M-174,200 C-174,203.314 -176.686,206 -180,206 C-183.314,206 -186,203.314 -186,200 C-186,196.686 -183.314,194 -180,194 C-176.686,194 -174,196.686 -174,200 Z" fill="rgba(0,0,0,1)"/>
<path d="M-129,200 C-129,203.314 -131.686,206 -135,206 C-138.314,206 -141,203.314 -141,200 C-141,196.686 -138.314,194 -135,194 C-131.686,194 -129,196.686 -129,200 Z" fill="rgba(0,0,0,1)"/>
<path d="M-84,200 C-84,203.314 -86.686,206 -90,206 C-93.314,206 -96,203.314 -96,200 C-96,196.686 -93.314,194 -90,194 C-86.686,194 -84,196.686 -84,200 Z" fill="rgba(0,0,0,1)"/>
<path d="M-39,200 C-39,203.314 -41.686,206 -45,206 C-48.314,206 -51,203.314 -51,200 C-51,196.686 -48.314,194 -45,194 C-41.686,194 -39,196.686 -39,200 Z" fill="rgba(0,0,0,1)"/>
<path d="M6,200 C6,203.314 3.314,206 0,206 C-3.314,206 -6,203.314 -6,200 C-6,196.686 -3.314,194 0,194 C3.314,194 6,196.686 6,200 Z" fill="rgba(0,0,0,1)"/>
<path d="M51,200 C51,203.314 48.314,206 45,206 C41.686,206 39,203.314 39,200 C39,196.686 41.686,194 45,194 C48.314,194 51,196.686 51,200 Z" fill="rgba(0,0,0,1)"/>
<path d="M96,200 C96,203.314 93.314,206 90,206 C86.686,206 84,203.314 84,200 C84,196.686 86.686,194 90,194 C93.314,194 96,196.686 96,200 Z" fill="rgba(0,0,0,1)"/>
<path d="M141,200 C141,203.314 138.314,206 135,206 C131.686,206 129,203.314 129,200 C129,196.686 131.686,194 135,194 C138.314,194 141,196.686 141,200 Z" fill="rgba(0,0,0,1)"/>
<path d="M186,200 C186,203.314 183.314,206 180,206 C176.686,206 174,203.314 174,200 C174,196.686 176.686,194 180,194 C183.314,194 186,196.686 186,200 Z" fill="rgba(0,0,0,1)"/>
<path d="M231,200 C231,203.314 228.314,206 225,206 C221.686,206 219,203.314 219,200 C219,196.686 221.686,194 225,194 C228.314,194 231,196.686 231,200 Z" fill="rgba(0,0,0,1)"/>
<path d="M-225,0 L-24.23,295.67 L225.33,-276.33 L225,0" fill="none" stroke="rgba(0,0,0,1)" stroke-width="1"/>
<path d="M-219,0 C-219,3.314 -221.686,6 -225,6 C-228.314,6 -231,3.314 -231,0 C-231,-3.314 -228.314,-6 -225,-6 C-221.686,-6 -219,-3.314 -219,0 Z" fill="rgba(0,0,0,1)"/>
<path d="M-148.342,104.057 C-148.342,107.371 -151.028,110.057 -154.342,110.057 C-157.655,110.057 -160.342,107.371 -160.342,104.057 C-160.342,100.743 -157.655,98.057 -154.342,98.057 C-151.028,98.057 -148.342,100.743 -148.342,104.057 Z" fill="rgba(0,0,0,1)"/>
<path d="M-77.684,208.114 C-77.684,211.428 -80.37,214.114 -83.684,214.114 C-86.997,214.114 -89.684,211.428 -89.684,208.114 C-89.684,204.8 -86.997,202.114 -83.684,202.114 C-80.37,202.114 -77.684,204.8 -77.684,208.114 Z" fill="rgba(0,0,0,1)"/>
<path d="M-10.254,277.389 C-10.254,280.702 -12.94,283.389 -16.254,283.389 C-19.568,283.389 -22.254,280.702 -22.254,277.389 C-22.254,274.075 -19.568,271.389 -16.254,271.389 C-12.94,271.389 -10.254,274.075 -10.254,277.389 Z" fill="rgba(0,0,0,1)"/>
<path d="M40.044,162.104 C40.044,165.418 37.358,168.104 34.044,168.104 C30.73,168.104 28.044,165.418 28.044,162.104 C28.044,158.79 30.73,156.104 34.044,156.104 C37.358,156.104 40.044,158.79 40.044,162.104 Z" fill="rgba(0,0,0,1)"/>
<path d="M90.342,46.819 C90.342,50.133 87.656,52.819 84.342,52.819 C81.028,52.819 78.342,50.133 78.342,46.819 C78.342,43.506 81.028,40.819 84.342,40.819 C87.656,40.819 90.342,43.506 90.342,46.819 Z" fill="rgba(0,0,0,1)"/>
<path d="M140.64,-68.465 C140.64,-65.152 137.954,-62.465 134.64,-62.465 C131.326,-62.465 128.64,-65.152 128.64,-68.465 C128.64,-71.779 131.326,-74.465 134.64,-74.465 C137.954,-74.465 140.64,-71.779 140.64,-68.465 Z" fill="rgba(0,0,0,1)"/>
<path d="M190.938,-183.75 C190.938,-180.436 188.252,-177.75 184.938,-177.75 C181.624,-177.75 178.938,-180.436 178.938,-183.75 C178.938,-187.064 181.624,-189.75 184.938,-189.75 C188.252,-189.75 190.938,-187.064 190.938,-183.75 Z" fill="rgba(0,0,0,1)"/>
<path d="M231.3,-251.558 C231.3,-248.245 228.614,-245.558 225.3,-245.558 C221.987,-245.558 219.3,-248.245 219.3,-251.558 C219.3,-254.872 221.987,-257.558 225.3,-257.558 C228.614,-257.558 231.3,-254.872 231.3,-251.558 Z" fill="rgba(0,0,0,1)"/>
<path d="M231.15,-125.779 C231.15,-122.466 228.464,-119.779 225.15,-119.779 C221.837,-119.779 219.15,-122.466 219.15,-125.779 C219.15,-129.093 221.837,-131.779 225.15,-131.779 C228.464,-131.779 231.15,-129.093 231.15,-125.779 Z" fill="rgba(0,0,0,1)"/>
<path d="M231,0 C231,3.314 228.314,6 225,6 C221.686,6 219,3.314 219,0 C219,-3.314 221.686,-6 225,-6 C228.314,-6 231,-3.314 231,0 Z" fill="rgba(0,0,0,1)"/>
</svg>