<svg xmlns="http://www.w3.org/2000/svg" viewBox="-223.85 -109.96 449.35 373.71">
<path d="M49.721,101.507 L78.942,233.525 L60.455,234.784 L52.627,227.252 L-16.093,150.944 L-196.207,-82.319 L-76.415,-3.738 L28.157,31.105 L59.627,32.576 L197.859,32.426 Z" fill="rgba(0,0,0,0)" stroke="rgba(0,0,0,1)" stroke-width="0.207514"/>
<text x="-18.348" y="0" text-anchor="start" font-family="Verdana, Helvetica, Arial, sans-serif" font-size="12" fill="rgba(214,0,0,1)" transform="matrix(0.023460798023882613 0.10599293699201706 -0.10599293699201706 0.023460798023882613 65.21052504295965 167.32134725537585)">135.21</text>
<text x="-15.011999999999999" y="0" text-anchor="start" font-family="Verdana, Helvetica, Arial, sans-serif" font-size="12" fill="rgba(214,0,0,1)" transform="matrix(0.10830755214037945 -0.0073746786689387715 0.0073746786689387715 0.10830755214037945 69.80651971614591 235.7415202882374)">18.53</text>
<text x="-15.011999999999999" y="0" text-anchor="start" font-family="Verdana, Helvetica, Arial, sans-serif" font-size="12" fill="rgba(214,0,0,1)" transform="matrix(0.0782247432427189 0.0752715170613813 -0.0752715170613813 0.0782247432427189 55.438012051912736 232.16404759168265)">10.86</text>
<text x="-18.348" y="0" text-anchor="start" font-family="Verdana, Helvetica, Arial, sans-serif" font-size="12" fill="rgba(214,0,0,1)" transform="matrix(0.07264677641900613 0.08066819455050452 -0.08066819455050452 0.07264677641900613 17.085067927655636 190.16227953708955)">102.69</text>
<text x="-18.348" y="0" text-anchor="start" font-family="Verdana, Helvetica, Arial, sans-serif" font-size="12" fill="rgba(214,0,0,1)" transform="matrix(0.06634663337096625 0.08592459471216433 -0.08592459471216433 0.06634663337096625 -107.40900693874474 35.284431139868914)">294.71</text>
<text x="-18.348" y="0" text-anchor="start" font-family="Verdana, Helvetica, Arial, sans-serif" font-size="12" fill="rgba(214,0,0,1)" transform="matrix(0.0907710407632014 0.059544352334006824 -0.059544352334006824 0.0907710407632014 -135.81687826674712 -43.78130507195368)">143.27</text>
<text x="-18.348" y="0" text-anchor="start" font-family="Verdana, Helvetica, Arial, sans-serif" font-size="12" fill="rgba(214,0,0,1)" transform="matrix(0.1029919187026015 0.03431583334363067 -0.03431583334363067 0.1029919187026015 -23.84433091297245 12.829272398097572)">110.22</text>
<text x="-11.676" y="0" text-anchor="start" font-family="Verdana, Helvetica, Arial, sans-serif" font-size="12" fill="rgba(214,0,0,1)" transform="matrix(0.10843984235584588 0.005070732289364831 -0.005070732289364831 0.10843984235584588 43.93406863947277 30.94092359598291)">31.5</text>
<text x="-18.348" y="0" text-anchor="start" font-family="Verdana, Helvetica, Arial, sans-serif" font-size="12" fill="rgba(214,0,0,1)" transform="matrix(0.10855826934083673 -0.00011787210636573265 0.00011787210636573265 0.10855826934083673 128.74229324955687 31.600689679754538)">138.23</text>
<text x="-18.348" y="0" text-anchor="start" font-family="Verdana, Helvetica, Arial, sans-serif" font-size="12" fill="rgba(214,0,0,1)" transform="matrix(0.0983865633248473 -0.04588023423258565 0.04588023423258565 0.0983865633248473 124.46234076053702 68.40820382043242)">163.45</text>
<text x="-47.232" y="0" text-anchor="start" font-family="Verdana, Helvetica, Arial, sans-serif" font-size="24" fill="rgba(0,0,246,1)" transform="matrix(0.054720738309851344 0 0 0.054720738309851344 27.337433645385573 33.12119120310166)">195.75° </text>
<text x="-47.232" y="0" text-anchor="start" font-family="Verdana, Helvetica, Arial, sans-serif" font-size="24" fill="rgba(0,0,246,1)" transform="matrix(0.060950733116304924 0 0 0.060950733116304924 59.35579388847947 34.706431844852986)">182.74° </text>
<path d="M49.721,101.507 L50.776,106.276 L50.706,106.295 L50.22,106.369 L49.721,106.394 L49.221,106.369 L48.736,106.295 L48.268,106.174 L47.819,106.01 L47.391,105.804 L46.988,105.559 L46.612,105.278 L46.265,104.963 L45.95,104.615 L45.668,104.239 L45.424,103.836 L45.218,103.409 L45.053,102.96 L44.933,102.492 L44.859,102.007 L44.834,101.507 L44.859,101.007 L44.933,100.522 L45.053,100.054 L45.218,99.605 L45.424,99.177 L45.668,98.775 L45.95,98.398 L46.265,98.051 L46.612,97.736 L46.988,97.454 L47.391,97.21 L47.819,97.004 L48.268,96.84 L48.736,96.719 L49.221,96.645 L49.721,96.62 L50.22,96.645 L50.706,96.719 L51.174,96.84 L51.623,97.004 L52.05,97.21 L52.453,97.454 L52.829,97.736 L53.176,98.051 L53.492,98.398 L53.773,98.775 L54.018,99.177 L54.146,99.443 Z" fill="rgba(0,81,175,0.12549019607843137)"/>
<path d="M78.942,233.525 L77.886,228.755 L77.489,228.858 L77.04,229.022 L76.613,229.228 L76.21,229.473 L75.833,229.754 L75.486,230.069 L75.171,230.416 L74.89,230.793 L74.645,231.196 L74.439,231.623 L74.275,232.072 L74.154,232.54 L74.08,233.025 L74.055,233.525 L74.072,233.857 Z" fill="rgba(0,81,175,0.12549019607843137)"/>
<path d="M60.455,234.784 L56.936,231.398 L56.999,231.328 L57.346,231.013 L57.722,230.731 L58.125,230.487 L58.553,230.281 L59.002,230.116 L59.47,229.996 L59.955,229.922 L60.455,229.897 L60.955,229.922 L61.44,229.996 L61.908,230.116 L62.357,230.281 L62.784,230.487 L63.187,230.731 L63.563,231.013 L63.91,231.328 L64.226,231.675 L64.507,232.051 L64.752,232.454 L64.958,232.882 L65.122,233.331 L65.243,233.799 L65.317,234.284 L65.325,234.452 Z" fill="rgba(0,81,175,0.12549019607843137)"/>
<path d="M57.489,227.751 L57.415,228.237 L57.295,228.705 L57.13,229.154 L56.924,229.581 L56.68,229.984 L56.398,230.36 L56.146,230.638 L52.627,227.252 L49.361,223.624 L49.519,223.481 L49.895,223.199 L50.298,222.955 L50.725,222.749 L51.174,222.584 L51.642,222.464 L52.128,222.39 L52.627,222.365 L53.127,222.39 L53.612,222.464 L54.08,222.584 L54.529,222.749 L54.957,222.955 L55.36,223.199 L55.736,223.481 L56.083,223.796 L56.398,224.143 L56.68,224.519 L56.924,224.922 L57.13,225.349 L57.295,225.798 L57.415,226.267 L57.489,226.752 L57.514,227.252 Z" fill="rgba(0,81,175,0.12549019607843137)"/>
<path d="M-11.231,151.443 L-11.305,151.929 L-11.426,152.397 L-11.59,152.846 L-11.796,153.273 L-12.041,153.676 L-12.322,154.052 L-12.637,154.399 L-12.826,154.571 L-16.093,150.944 L-19.077,147.079 L-18.825,146.891 L-18.422,146.647 L-17.995,146.441 L-17.546,146.276 L-17.078,146.156 L-16.593,146.082 L-16.093,146.057 L-15.593,146.082 L-15.108,146.156 L-14.64,146.276 L-14.191,146.441 L-13.763,146.647 L-13.361,146.891 L-12.984,147.173 L-12.637,147.488 L-12.322,147.835 L-12.041,148.211 L-11.796,148.614 L-11.59,149.041 L-11.426,149.49 L-11.305,149.959 L-11.231,150.444 L-11.206,150.944 Z" fill="rgba(0,81,175,0.12549019607843137)"/>
<path d="M-192.122,-79.64 L-196.207,-82.319 L-193.223,-78.455 L-193.098,-78.548 L-192.751,-78.864 L-192.436,-79.211 L-192.154,-79.587 Z" fill="rgba(0,81,175,0.12549019607843137)"/>
<path d="M-71.912,-1.835 L-72.117,-1.408 L-72.362,-1.005 L-72.644,-0.629 L-72.959,-0.282 L-73.306,0.033 L-73.682,0.315 L-74.085,0.56 L-74.512,0.765 L-74.961,0.93 L-75.43,1.05 L-75.915,1.124 L-76.415,1.149 L-76.914,1.124 L-77.4,1.05 L-77.868,0.93 L-78.317,0.765 L-78.744,0.56 L-79.147,0.315 L-79.523,0.033 L-79.87,-0.282 L-80.186,-0.629 L-80.467,-1.005 L-80.712,-1.408 L-80.918,-1.835 L-81.082,-2.284 L-81.202,-2.753 L-81.276,-3.238 L-81.302,-3.738 L-81.276,-4.237 L-81.202,-4.722 L-81.082,-5.191 L-80.918,-5.64 L-80.712,-6.067 L-80.499,-6.417 L-76.415,-3.738 L-71.781,-2.194 Z" fill="rgba(0,81,175,0.12549019607843137)"/>
<path d="M33.018,31.604 L32.944,32.089 L32.824,32.558 L32.66,33.007 L32.454,33.434 L32.209,33.837 L31.928,34.213 L31.612,34.56 L31.265,34.876 L30.889,35.157 L30.486,35.402 L30.059,35.607 L29.61,35.772 L29.142,35.892 L28.656,35.966 L28.157,35.992 L27.657,35.966 L27.172,35.892 L26.703,35.772 L26.254,35.607 L25.827,35.402 L25.424,35.157 L25.048,34.876 L24.701,34.56 L24.386,34.213 L24.104,33.837 L23.86,33.434 L23.654,33.007 L23.489,32.558 L23.369,32.089 L23.295,31.604 L23.27,31.105 L23.295,30.605 L23.369,30.12 L23.489,29.651 L23.523,29.561 L28.157,31.105 L33.032,31.333 Z" fill="rgba(0,81,175,0.12549019607843137)"/>
<path d="M64.489,33.076 L64.415,33.561 L64.295,34.029 L64.13,34.478 L63.924,34.906 L63.68,35.308 L63.398,35.685 L63.083,36.032 L62.736,36.347 L62.36,36.628 L61.957,36.873 L61.53,37.079 L61.081,37.243 L60.612,37.364 L60.127,37.438 L59.627,37.463 L59.128,37.438 L58.642,37.364 L58.174,37.243 L57.725,37.079 L57.298,36.873 L56.895,36.628 L56.519,36.347 L56.172,36.032 L55.856,35.685 L55.575,35.308 L55.33,34.906 L55.124,34.478 L54.96,34.029 L54.84,33.561 L54.766,33.076 L54.74,32.576 L54.752,32.348 L59.627,32.576 L64.514,32.571 L64.514,32.576 Z" fill="rgba(0,81,175,0.12549019607843137)"/>
<path d="M197.859,32.426 L192.973,32.431 L192.997,32.926 L193.072,33.411 L193.192,33.879 L193.356,34.328 L193.434,34.49 Z" fill="rgba(0,81,175,0.12549019607843137)"/>
</svg>