<svg xmlns="http://www.w3.org/2000/svg" viewBox="-125.78 -82.65 251.57 265.3">
<path d="M100,56.867 L0,156.867 L-100,56.867 L0,-43.133 L100,56.867 Z" fill="none" stroke="rgba(0,0,0,1)" stroke-width="1"/>
<path d="M108,56.867 C108,61.285 104.418,64.867 100,64.867 C95.582,64.867 92,61.285 92,56.867 C92,52.449 95.582,48.867 100,48.867 C104.418,48.867 108,52.449 108,56.867 Z" fill="rgba(0,90,255,0.7843137254901961)" stroke="rgba(0,90,255,0.7843137254901961)" stroke-width="0.5"/>
<path d="M8,156.867 C8,161.285 4.418,164.867 0,164.867 C-4.418,164.867 -8,161.285 -8,156.867 C-8,152.449 -4.418,148.867 0,148.867 C4.418,148.867 8,152.449 8,156.867 Z" fill="rgba(0,90,255,0.7843137254901961)" stroke="rgba(0,90,255,0.7843137254901961)" stroke-width="0.5"/>
<path d="M-92,56.867 C-92,61.285 -95.582,64.867 -100,64.867 C-104.418,64.867 -108,61.285 -108,56.867 C-108,52.449 -104.418,48.867 -100,48.867 C-95.582,48.867 -92,52.449 -92,56.867 Z" fill="rgba(0,90,255,0.7843137254901961)" stroke="rgba(0,90,255,0.7843137254901961)" stroke-width="0.5"/>
<path d="M8,-43.133 C8,-38.715 4.418,-35.133 0,-35.133 C-4.418,-35.133 -8,-38.715 -8,-43.133 C-8,-47.551 -4.418,-51.133 0,-51.133 C4.418,-51.133 8,-47.551 8,-43.133 Z" fill="rgba(0,90,255,0.7843137254901961)" stroke="rgba(0,90,255,0.7843137254901961)" stroke-width="0.5"/>
<path d="M108,56.867 C108,61.285 104.418,64.867 100,64.867 C95.582,64.867 92,61.285 92,56.867 C92,52.449 95.582,48.867 100,48.867 C104.418,48.867 108,52.449 108,56.867 Z" fill="rgba(0,90,255,0.7843137254901961)" stroke="rgba(0,90,255,0.7843137254901961)" stroke-width="0.5"/>
<path d="M50.204,-64.867 L-104.345,-23.456" fill="none" stroke="rgba(0,0,0,1)" stroke-width="1"/>
<path d="M13.459,107.095 L9.317,91.64" fill="rgba(0,0,0,0)" stroke="rgba(0,126,0,0.7843137254901961)" stroke-width="1"/>
<path d="M28.913,102.954 L13.459,107.095 L-1.996,111.236" fill="rgba(0,0,0,0)" stroke="rgba(0,126,0,0.7843137254901961)" stroke-width="1"/>
</svg>