<svg xmlns="http://www.w3.org/2000/svg" viewBox="-233.6 -147.6 467.2 420.2">
<path d="M-24.084,36.676 C-24.084,47.722 -33.038,56.676 -44.084,56.676 C-55.13,56.676 -64.084,47.722 -64.084,36.676 C-64.084,25.631 -55.13,16.676 -44.084,16.676 C-33.038,16.676 -24.084,25.631 -24.084,36.676 Z" fill="rgba(0,0,0,0.07058823529411765)" stroke="rgba(0,0,0,1)" stroke-width="1"/>
<path d="M64.084,36.676 C64.084,47.722 55.13,56.676 44.084,56.676 C33.038,56.676 24.084,47.722 24.084,36.676 C24.084,25.631 33.038,16.676 44.084,16.676 C55.13,16.676 64.084,25.631 64.084,36.676 Z" fill="rgba(0,0,0,0.07058823529411765)" stroke="rgba(0,0,0,1)" stroke-width="1"/>
<path d="M20,-99 C20,-87.954 11.046,-79 0,-79 C-11.046,-79 -20,-87.954 -20,-99 C-20,-110.046 -11.046,-119 0,-119 C11.046,-119 20,-110.046 20,-99 Z" fill="rgba(0,0,0,0.07058823529411765)" stroke="rgba(0,0,0,1)" stroke-width="1"/>
<path d="M-51.329,-47.176 C-51.329,-36.131 -60.284,-27.176 -71.329,-27.176 C-82.375,-27.176 -91.329,-36.131 -91.329,-47.176 C-91.329,-58.222 -82.375,-67.176 -71.329,-67.176 C-60.284,-67.176 -51.329,-58.222 -51.329,-47.176 Z" fill="rgba(0,0,0,0.07058823529411765)" stroke="rgba(0,0,0,1)" stroke-width="1"/>
<path d="M91.329,-47.176 C91.329,-36.131 82.375,-27.176 71.329,-27.176 C60.284,-27.176 51.329,-36.131 51.329,-47.176 C51.329,-58.222 60.284,-67.176 71.329,-67.176 C82.375,-67.176 91.329,-58.222 91.329,-47.176 Z" fill="rgba(0,0,0,0.07058823529411765)" stroke="rgba(0,0,0,1)" stroke-width="1"/>
<path d="M-48.549,57.075 C-48.549,68.12 -57.503,77.075 -68.549,77.075 C-79.594,77.075 -88.549,68.12 -88.549,57.075 C-88.549,46.029 -79.594,37.075 -68.549,37.075 C-57.503,37.075 -48.549,46.029 -48.549,57.075 Z" fill="rgba(0,0,0,0.07058823529411765)" stroke="rgba(0,0,0,1)" stroke-width="1"/>
<path d="M38.955,65.961 C38.955,77.007 30,85.961 18.955,85.961 C7.909,85.961 -1.045,77.007 -1.045,65.961 C-1.045,54.915 7.909,45.961 18.955,45.961 C30,45.961 38.955,54.915 38.955,65.961 Z" fill="rgba(0,0,0,0.07058823529411765)" stroke="rgba(0,0,0,1)" stroke-width="1"/>
<path d="M20,-41.76 C20,-30.714 11.046,-21.76 0,-21.76 C-11.046,-21.76 -20,-30.714 -20,-41.76 C-20,-52.806 -11.046,-61.76 0,-61.76 C11.046,-61.76 20,-52.806 20,-41.76 Z" fill="rgba(0,0,0,0.07058823529411765)" stroke="rgba(0,0,0,1)" stroke-width="1"/>
<path d="M-21.296,-2.798 C-21.296,8.247 -30.25,17.202 -41.296,17.202 C-52.342,17.202 -61.296,8.247 -61.296,-2.798 C-61.296,-13.844 -52.342,-22.798 -41.296,-22.798 C-30.25,-22.798 -21.296,-13.844 -21.296,-2.798 Z" fill="rgba(0,0,0,0.07058823529411765)" stroke="rgba(0,0,0,1)" stroke-width="1"/>
<path d="M110.89,-11.685 C110.89,-0.639 101.936,8.315 90.89,8.315 C79.844,8.315 70.89,-0.639 70.89,-11.685 C70.89,-22.73 79.844,-31.685 90.89,-31.685 C101.936,-31.685 110.89,-22.73 110.89,-11.685 Z" fill="rgba(0,0,0,0.07058823529411765)" stroke="rgba(0,0,0,1)" stroke-width="1"/>
<path d="M-73.014,77.473 C-73.014,88.519 -81.968,97.473 -93.014,97.473 C-104.059,97.473 -113.014,88.519 -113.014,77.473 C-113.014,66.427 -104.059,57.473 -93.014,57.473 C-81.968,57.473 -73.014,66.427 -73.014,77.473 Z" fill="rgba(0,0,0,0.07058823529411765)" stroke="rgba(0,0,0,1)" stroke-width="1"/>
<path d="M13.826,95.245 C13.826,106.291 4.871,115.245 -6.174,115.245 C-17.22,115.245 -26.174,106.291 -26.174,95.245 C-26.174,84.2 -17.22,75.245 -6.174,75.245 C4.871,75.245 13.826,84.2 13.826,95.245 Z" fill="rgba(0,0,0,0.07058823529411765)" stroke="rgba(0,0,0,1)" stroke-width="1"/>
<path d="M20,15.48 C20,26.526 11.046,35.48 0,35.48 C-11.046,35.48 -20,26.526 -20,15.48 C-20,4.434 -11.046,-4.52 0,-4.52 C11.046,-4.52 20,4.434 20,15.48 Z" fill="rgba(0,0,0,0.07058823529411765)" stroke="rgba(0,0,0,1)" stroke-width="1"/>
<path d="M8.737,41.58 C8.737,52.625 -0.217,61.58 -11.263,61.58 C-22.308,61.58 -31.263,52.625 -31.263,41.58 C-31.263,30.534 -22.308,21.58 -11.263,21.58 C-0.217,21.58 8.737,30.534 8.737,41.58 Z" fill="rgba(0,0,0,0.07058823529411765)" stroke="rgba(0,0,0,1)" stroke-width="1"/>
<path d="M130.451,23.807 C130.451,34.853 121.496,43.807 110.451,43.807 C99.405,43.807 90.451,34.853 90.451,23.807 C90.451,12.761 99.405,3.807 110.451,3.807 C121.496,3.807 130.451,12.761 130.451,23.807 Z" fill="rgba(0,0,0,0.07058823529411765)" stroke="rgba(0,0,0,1)" stroke-width="1"/>
<path d="M-97.479,97.871 C-97.479,108.917 -106.433,117.871 -117.479,117.871 C-128.524,117.871 -137.479,108.917 -137.479,97.871 C-137.479,86.825 -128.524,77.871 -117.479,77.871 C-106.433,77.871 -97.479,86.825 -97.479,97.871 Z" fill="rgba(0,0,0,0.07058823529411765)" stroke="rgba(0,0,0,1)" stroke-width="1"/>
<path d="M-11.304,124.53 C-11.304,135.576 -20.258,144.53 -31.304,144.53 C-42.349,144.53 -51.304,135.576 -51.304,124.53 C-51.304,113.484 -42.349,104.53 -31.304,104.53 C-20.258,104.53 -11.304,113.484 -11.304,124.53 Z" fill="rgba(0,0,0,0.07058823529411765)" stroke="rgba(0,0,0,1)" stroke-width="1"/>
<path d="M20,72.72 C20,83.766 11.046,92.72 0,92.72 C-11.046,92.72 -20,83.766 -20,72.72 C-20,61.674 -11.046,52.72 0,52.72 C11.046,52.72 20,61.674 20,72.72 Z" fill="rgba(0,0,0,0.07058823529411765)" stroke="rgba(0,0,0,1)" stroke-width="1"/>
<path d="M38.771,85.958 C38.771,97.004 29.816,105.958 18.771,105.958 C7.725,105.958 -1.229,97.004 -1.229,85.958 C-1.229,74.912 7.725,65.958 18.771,65.958 C29.816,65.958 38.771,74.912 38.771,85.958 Z" fill="rgba(0,0,0,0.07058823529411765)" stroke="rgba(0,0,0,1)" stroke-width="1"/>
<path d="M150.011,59.299 C150.011,70.345 141.057,79.299 130.011,79.299 C118.966,79.299 110.011,70.345 110.011,59.299 C110.011,48.253 118.966,39.299 130.011,39.299 C141.057,39.299 150.011,48.253 150.011,59.299 Z" fill="rgba(0,0,0,0.07058823529411765)" stroke="rgba(0,0,0,1)" stroke-width="1"/>
<path d="M-121.943,118.269 C-121.943,129.315 -130.898,138.269 -141.943,138.269 C-152.989,138.269 -161.943,129.315 -161.943,118.269 C-161.943,107.224 -152.989,98.269 -141.943,98.269 C-130.898,98.269 -121.943,107.224 -121.943,118.269 Z" fill="rgba(0,0,0,0.07058823529411765)" stroke="rgba(0,0,0,1)" stroke-width="1"/>
<path d="M-36.433,153.815 C-36.433,164.86 -45.387,173.815 -56.433,173.815 C-67.478,173.815 -76.433,164.86 -76.433,153.815 C-76.433,142.769 -67.478,133.815 -56.433,133.815 C-45.387,133.815 -36.433,142.769 -36.433,153.815 Z" fill="rgba(0,0,0,0.07058823529411765)" stroke="rgba(0,0,0,1)" stroke-width="1"/>
<path d="M20,129.96 C20,141.006 11.046,149.96 0,149.96 C-11.046,149.96 -20,141.006 -20,129.96 C-20,118.914 -11.046,109.96 0,109.96 C11.046,109.96 20,118.914 20,129.96 Z" fill="rgba(0,0,0,0.07058823529411765)" stroke="rgba(0,0,0,1)" stroke-width="1"/>
<path d="M68.804,130.336 C68.804,141.382 59.85,150.336 48.804,150.336 C37.758,150.336 28.804,141.382 28.804,130.336 C28.804,119.29 37.758,110.336 48.804,110.336 C59.85,110.336 68.804,119.29 68.804,130.336 Z" fill="rgba(0,0,0,0.07058823529411765)" stroke="rgba(0,0,0,1)" stroke-width="1"/>
<path d="M169.572,94.791 C169.572,105.836 160.618,114.791 149.572,114.791 C138.526,114.791 129.572,105.836 129.572,94.791 C129.572,83.745 138.526,74.791 149.572,74.791 C160.618,74.791 169.572,83.745 169.572,94.791 Z" fill="rgba(0,0,0,0.07058823529411765)" stroke="rgba(0,0,0,1)" stroke-width="1"/>
<path d="M-146.408,138.668 C-146.408,149.713 -155.363,158.668 -166.408,158.668 C-177.454,158.668 -186.408,149.713 -186.408,138.668 C-186.408,127.622 -177.454,118.668 -166.408,118.668 C-155.363,118.668 -146.408,127.622 -146.408,138.668 Z" fill="rgba(0,0,0,0.07058823529411765)" stroke="rgba(0,0,0,1)" stroke-width="1"/>
<path d="M-61.562,183.099 C-61.562,194.145 -70.516,203.099 -81.562,203.099 C-92.608,203.099 -101.562,194.145 -101.562,183.099 C-101.562,172.053 -92.608,163.099 -81.562,163.099 C-70.516,163.099 -61.562,172.053 -61.562,183.099 Z" fill="rgba(0,0,0,0.07058823529411765)" stroke="rgba(0,0,0,1)" stroke-width="1"/>
<path d="M20,187.2 C20,198.246 11.046,207.2 0,207.2 C-11.046,207.2 -20,198.246 -20,187.2 C-20,176.154 -11.046,167.2 0,167.2 C11.046,167.2 20,176.154 20,187.2 Z" fill="rgba(0,0,0,0.07058823529411765)" stroke="rgba(0,0,0,1)" stroke-width="1"/>
<path d="M98.837,174.714 C98.837,185.76 89.883,194.714 78.837,194.714 C67.792,194.714 58.837,185.76 58.837,174.714 C58.837,163.668 67.792,154.714 78.837,154.714 C89.883,154.714 98.837,163.668 98.837,174.714 Z" fill="rgba(0,0,0,0.07058823529411765)" stroke="rgba(0,0,0,1)" stroke-width="1"/>
<path d="M189.133,130.282 C189.133,141.328 180.179,150.282 169.133,150.282 C158.087,150.282 149.133,141.328 149.133,130.282 C149.133,119.237 158.087,110.282 169.133,110.282 C180.179,110.282 189.133,119.237 189.133,130.282 Z" fill="rgba(0,0,0,0.07058823529411765)" stroke="rgba(0,0,0,1)" stroke-width="1"/>
<path d="M-24.084,36.676 C-24.084,47.722 -33.038,56.676 -44.084,56.676 C-55.13,56.676 -64.084,47.722 -64.084,36.676 C-64.084,25.631 -55.13,16.676 -44.084,16.676 C-33.038,16.676 -24.084,25.631 -24.084,36.676 Z" fill="rgba(0,172,0,1)" stroke="rgba(0,0,0,1)" stroke-width="1"/>
<path d="M64.084,36.676 C64.084,47.722 55.13,56.676 44.084,56.676 C33.038,56.676 24.084,47.722 24.084,36.676 C24.084,25.631 33.038,16.676 44.084,16.676 C55.13,16.676 64.084,25.631 64.084,36.676 Z" fill="rgba(0,172,0,1)" stroke="rgba(0,0,0,1)" stroke-width="1"/>
<path d="M20,-99 C20,-87.954 11.046,-79 0,-79 C-11.046,-79 -20,-87.954 -20,-99 C-20,-110.046 -11.046,-119 0,-119 C11.046,-119 20,-110.046 20,-99 Z" fill="rgba(0,172,0,1)" stroke="rgba(0,0,0,1)" stroke-width="1"/>
<path d="M-51.329,-47.176 C-51.329,-36.131 -60.284,-27.176 -71.329,-27.176 C-82.375,-27.176 -91.329,-36.131 -91.329,-47.176 C-91.329,-58.222 -82.375,-67.176 -71.329,-67.176 C-60.284,-67.176 -51.329,-58.222 -51.329,-47.176 Z" fill="rgba(0,172,0,1)" stroke="rgba(0,0,0,1)" stroke-width="1"/>
<path d="M91.329,-47.176 C91.329,-36.131 82.375,-27.176 71.329,-27.176 C60.284,-27.176 51.329,-36.131 51.329,-47.176 C51.329,-58.222 60.284,-67.176 71.329,-67.176 C82.375,-67.176 91.329,-58.222 91.329,-47.176 Z" fill="rgba(0,172,0,1)" stroke="rgba(0,0,0,1)" stroke-width="1"/>
<path d="M-155,150 C-155,163.807 -166.193,175 -180,175 C-193.807,175 -205,163.807 -205,150 C-205,136.193 -193.807,125 -180,125 C-166.193,125 -155,136.193 -155,150 Z" fill="rgba(245,54,0,1)" stroke="rgba(0,0,0,1)" stroke-width="1"/>
<path d="M-70.523,199.368 C-70.523,213.175 -81.715,224.368 -95.523,224.368 C-109.33,224.368 -120.523,213.175 -120.523,199.368 C-120.523,185.561 -109.33,174.368 -95.523,174.368 C-81.715,174.368 -70.523,185.561 -70.523,199.368 Z" fill="rgba(245,54,0,1)" stroke="rgba(0,0,0,1)" stroke-width="1"/>
<path d="M25,219 C25,232.807 13.807,244 0,244 C-13.807,244 -25,232.807 -25,219 C-25,205.193 -13.807,194 0,194 C13.807,194 25,205.193 25,219 Z" fill="rgba(245,54,0,1)" stroke="rgba(0,0,0,1)" stroke-width="1"/>
<path d="M120.523,199.368 C120.523,213.175 109.33,224.368 95.523,224.368 C81.715,224.368 70.523,213.175 70.523,199.368 C70.523,185.561 81.715,174.368 95.523,174.368 C109.33,174.368 120.523,185.561 120.523,199.368 Z" fill="rgba(245,54,0,1)" stroke="rgba(0,0,0,1)" stroke-width="1"/>
<path d="M205,150 C205,163.807 193.807,175 180,175 C166.193,175 155,163.807 155,150 C155,136.193 166.193,125 180,125 C193.807,125 205,136.193 205,150 Z" fill="rgba(245,54,0,1)" stroke="rgba(0,0,0,1)" stroke-width="1"/>
</svg>