<svg xmlns="http://www.w3.org/2000/svg" viewBox="-176.42 -126.42 407.84 309.84">
<path d="M-135,150 C-135,154.418 -138.582,158 -143,158 C-147.418,158 -151,154.418 -151,150 C-151,145.582 -147.418,142 -143,142 C-138.582,142 -135,145.582 -135,150 Z" fill="rgba(0,0,0,1)"/>
<path d="M63,67 C63,71.418 59.418,75 55,75 C50.582,75 47,71.418 47,67 C47,62.582 50.582,59 55,59 C59.418,59 63,62.582 63,67 Z" fill="rgba(0,0,0,1)"/>
<path d="M-99,0 C-99,0.552 -99.448,1 -100,1 C-100.552,1 -101,0.552 -101,0 C-101,-0.552 -100.552,-1 -100,-1 C-99.448,-1 -99,-0.552 -99,0 Z" fill="rgba(0,0,0,1)"/>
<path d="M-92.939,0 C-92.939,0.552 -93.387,1 -93.939,1 C-94.492,1 -94.939,0.552 -94.939,0 C-94.939,-0.552 -94.492,-1 -93.939,-1 C-93.387,-1 -92.939,-0.552 -92.939,0 Z" fill="rgba(0,0,0,1)"/>
<path d="M-86.879,0 C-86.879,0.552 -87.327,1 -87.879,1 C-88.431,1 -88.879,0.552 -88.879,0 C-88.879,-0.552 -88.431,-1 -87.879,-1 C-87.327,-1 -86.879,-0.552 -86.879,0 Z" fill="rgba(0,0,0,1)"/>
<path d="M-80.818,0 C-80.818,0.552 -81.266,1 -81.818,1 C-82.37,1 -82.818,0.552 -82.818,0 C-82.818,-0.552 -82.37,-1 -81.818,-1 C-81.266,-1 -80.818,-0.552 -80.818,0 Z" fill="rgba(0,0,0,1)"/>
<path d="M-74.758,0 C-74.758,0.552 -75.205,1 -75.758,1 C-76.31,1 -76.758,0.552 -76.758,0 C-76.758,-0.552 -76.31,-1 -75.758,-1 C-75.205,-1 -74.758,-0.552 -74.758,0 Z" fill="rgba(0,0,0,1)"/>
<path d="M-68.697,0 C-68.697,0.552 -69.145,1 -69.697,1 C-70.249,1 -70.697,0.552 -70.697,0 C-70.697,-0.552 -70.249,-1 -69.697,-1 C-69.145,-1 -68.697,-0.552 -68.697,0 Z" fill="rgba(0,0,0,1)"/>
<path d="M-62.636,0 C-62.636,0.552 -63.084,1 -63.636,1 C-64.189,1 -64.636,0.552 -64.636,0 C-64.636,-0.552 -64.189,-1 -63.636,-1 C-63.084,-1 -62.636,-0.552 -62.636,0 Z" fill="rgba(0,0,0,1)"/>
<path d="M-56.576,0 C-56.576,0.552 -57.023,1 -57.576,1 C-58.128,1 -58.576,0.552 -58.576,0 C-58.576,-0.552 -58.128,-1 -57.576,-1 C-57.023,-1 -56.576,-0.552 -56.576,0 Z" fill="rgba(0,0,0,1)"/>
<path d="M-50.515,0 C-50.515,0.552 -50.963,1 -51.515,1 C-52.067,1 -52.515,0.552 -52.515,0 C-52.515,-0.552 -52.067,-1 -51.515,-1 C-50.963,-1 -50.515,-0.552 -50.515,0 Z" fill="rgba(0,0,0,1)"/>
<path d="M-44.455,0 C-44.455,0.552 -44.902,1 -45.455,1 C-46.007,1 -46.455,0.552 -46.455,0 C-46.455,-0.552 -46.007,-1 -45.455,-1 C-44.902,-1 -44.455,-0.552 -44.455,0 Z" fill="rgba(0,0,0,1)"/>
<path d="M-38.394,0 C-38.394,0.552 -38.842,1 -39.394,1 C-39.946,1 -40.394,0.552 -40.394,0 C-40.394,-0.552 -39.946,-1 -39.394,-1 C-38.842,-1 -38.394,-0.552 -38.394,0 Z" fill="rgba(0,0,0,1)"/>
<path d="M-32.333,0 C-32.333,0.552 -32.781,1 -33.333,1 C-33.886,1 -34.333,0.552 -34.333,0 C-34.333,-0.552 -33.886,-1 -33.333,-1 C-32.781,-1 -32.333,-0.552 -32.333,0 Z" fill="rgba(0,0,0,1)"/>
<path d="M-26.273,0 C-26.273,0.552 -26.72,1 -27.273,1 C-27.825,1 -28.273,0.552 -28.273,0 C-28.273,-0.552 -27.825,-1 -27.273,-1 C-26.72,-1 -26.273,-0.552 -26.273,0 Z" fill="rgba(0,0,0,1)"/>
<path d="M-20.212,0 C-20.212,0.552 -20.66,1 -21.212,1 C-21.764,1 -22.212,0.552 -22.212,0 C-22.212,-0.552 -21.764,-1 -21.212,-1 C-20.66,-1 -20.212,-0.552 -20.212,0 Z" fill="rgba(0,0,0,1)"/>
<path d="M-14.152,0 C-14.152,0.552 -14.599,1 -15.152,1 C-15.704,1 -16.152,0.552 -16.152,0 C-16.152,-0.552 -15.704,-1 -15.152,-1 C-14.599,-1 -14.152,-0.552 -14.152,0 Z" fill="rgba(0,0,0,1)"/>
<path d="M-8.091,0 C-8.091,0.552 -8.539,1 -9.091,1 C-9.643,1 -10.091,0.552 -10.091,0 C-10.091,-0.552 -9.643,-1 -9.091,-1 C-8.539,-1 -8.091,-0.552 -8.091,0 Z" fill="rgba(0,0,0,1)"/>
<path d="M-2.03,0 C-2.03,0.552 -2.478,1 -3.03,1 C-3.583,1 -4.03,0.552 -4.03,0 C-4.03,-0.552 -3.583,-1 -3.03,-1 C-2.478,-1 -2.03,-0.552 -2.03,0 Z" fill="rgba(0,0,0,1)"/>
<path d="M4.03,0 C4.03,0.552 3.583,1 3.03,1 C2.478,1 2.03,0.552 2.03,0 C2.03,-0.552 2.478,-1 3.03,-1 C3.583,-1 4.03,-0.552 4.03,0 Z" fill="rgba(0,0,0,1)"/>
<path d="M10.091,0 C10.091,0.552 9.643,1 9.091,1 C8.539,1 8.091,0.552 8.091,0 C8.091,-0.552 8.539,-1 9.091,-1 C9.643,-1 10.091,-0.552 10.091,0 Z" fill="rgba(0,0,0,1)"/>
<path d="M16.152,0 C16.152,0.552 15.704,1 15.152,1 C14.599,1 14.152,0.552 14.152,0 C14.152,-0.552 14.599,-1 15.152,-1 C15.704,-1 16.152,-0.552 16.152,0 Z" fill="rgba(0,0,0,1)"/>
<path d="M22.212,0 C22.212,0.552 21.764,1 21.212,1 C20.66,1 20.212,0.552 20.212,0 C20.212,-0.552 20.66,-1 21.212,-1 C21.764,-1 22.212,-0.552 22.212,0 Z" fill="rgba(0,0,0,1)"/>
<path d="M28.273,0 C28.273,0.552 27.825,1 27.273,1 C26.72,1 26.273,0.552 26.273,0 C26.273,-0.552 26.72,-1 27.273,-1 C27.825,-1 28.273,-0.552 28.273,0 Z" fill="rgba(0,0,0,1)"/>
<path d="M34.333,0 C34.333,0.552 33.886,1 33.333,1 C32.781,1 32.333,0.552 32.333,0 C32.333,-0.552 32.781,-1 33.333,-1 C33.886,-1 34.333,-0.552 34.333,0 Z" fill="rgba(0,0,0,1)"/>
<path d="M40.394,0 C40.394,0.552 39.946,1 39.394,1 C38.842,1 38.394,0.552 38.394,0 C38.394,-0.552 38.842,-1 39.394,-1 C39.946,-1 40.394,-0.552 40.394,0 Z" fill="rgba(0,0,0,1)"/>
<path d="M46.455,0 C46.455,0.552 46.007,1 45.455,1 C44.902,1 44.455,0.552 44.455,0 C44.455,-0.552 44.902,-1 45.455,-1 C46.007,-1 46.455,-0.552 46.455,0 Z" fill="rgba(0,0,0,1)"/>
<path d="M52.515,0 C52.515,0.552 52.067,1 51.515,1 C50.963,1 50.515,0.552 50.515,0 C50.515,-0.552 50.963,-1 51.515,-1 C52.067,-1 52.515,-0.552 52.515,0 Z" fill="rgba(0,0,0,1)"/>
<path d="M58.576,0 C58.576,0.552 58.128,1 57.576,1 C57.023,1 56.576,0.552 56.576,0 C56.576,-0.552 57.023,-1 57.576,-1 C58.128,-1 58.576,-0.552 58.576,0 Z" fill="rgba(0,0,0,1)"/>
<path d="M64.636,0 C64.636,0.552 64.189,1 63.636,1 C63.084,1 62.636,0.552 62.636,0 C62.636,-0.552 63.084,-1 63.636,-1 C64.189,-1 64.636,-0.552 64.636,0 Z" fill="rgba(0,0,0,1)"/>
<path d="M70.697,0 C70.697,0.552 70.249,1 69.697,1 C69.145,1 68.697,0.552 68.697,0 C68.697,-0.552 69.145,-1 69.697,-1 C70.249,-1 70.697,-0.552 70.697,0 Z" fill="rgba(0,0,0,1)"/>
<path d="M76.758,0 C76.758,0.552 76.31,1 75.758,1 C75.205,1 74.758,0.552 74.758,0 C74.758,-0.552 75.205,-1 75.758,-1 C76.31,-1 76.758,-0.552 76.758,0 Z" fill="rgba(0,0,0,1)"/>
<path d="M82.818,0 C82.818,0.552 82.37,1 81.818,1 C81.266,1 80.818,0.552 80.818,0 C80.818,-0.552 81.266,-1 81.818,-1 C82.37,-1 82.818,-0.552 82.818,0 Z" fill="rgba(0,0,0,1)"/>
<path d="M88.879,0 C88.879,0.552 88.431,1 87.879,1 C87.327,1 86.879,0.552 86.879,0 C86.879,-0.552 87.327,-1 87.879,-1 C88.431,-1 88.879,-0.552 88.879,0 Z" fill="rgba(0,0,0,1)"/>
<path d="M94.939,0 C94.939,0.552 94.492,1 93.939,1 C93.387,1 92.939,0.552 92.939,0 C92.939,-0.552 93.387,-1 93.939,-1 C94.492,-1 94.939,-0.552 94.939,0 Z" fill="rgba(0,0,0,1)"/>
<path d="M101,0 C101,0.552 100.552,1 100,1 C99.448,1 99,0.552 99,0 C99,-0.552 99.448,-1 100,-1 C100.552,-1 101,-0.552 101,0 Z" fill="rgba(0,0,0,1)"/>
<path d="M1,-100 C1,-99.448 0.552,-99 0,-99 C-0.552,-99 -1,-99.448 -1,-100 C-1,-100.552 -0.552,-101 0,-101 C0.552,-101 1,-100.552 1,-100 Z" fill="rgba(0,0,0,1)"/>
<path d="M1,-93.939 C1,-93.387 0.552,-92.939 0,-92.939 C-0.552,-92.939 -1,-93.387 -1,-93.939 C-1,-94.492 -0.552,-94.939 0,-94.939 C0.552,-94.939 1,-94.492 1,-93.939 Z" fill="rgba(0,0,0,1)"/>
<path d="M1,-87.879 C1,-87.327 0.552,-86.879 0,-86.879 C-0.552,-86.879 -1,-87.327 -1,-87.879 C-1,-88.431 -0.552,-88.879 0,-88.879 C0.552,-88.879 1,-88.431 1,-87.879 Z" fill="rgba(0,0,0,1)"/>
<path d="M1,-81.818 C1,-81.266 0.552,-80.818 0,-80.818 C-0.552,-80.818 -1,-81.266 -1,-81.818 C-1,-82.37 -0.552,-82.818 0,-82.818 C0.552,-82.818 1,-82.37 1,-81.818 Z" fill="rgba(0,0,0,1)"/>
<path d="M1,-75.758 C1,-75.205 0.552,-74.758 0,-74.758 C-0.552,-74.758 -1,-75.205 -1,-75.758 C-1,-76.31 -0.552,-76.758 0,-76.758 C0.552,-76.758 1,-76.31 1,-75.758 Z" fill="rgba(0,0,0,1)"/>
<path d="M1,-69.697 C1,-69.145 0.552,-68.697 0,-68.697 C-0.552,-68.697 -1,-69.145 -1,-69.697 C-1,-70.249 -0.552,-70.697 0,-70.697 C0.552,-70.697 1,-70.249 1,-69.697 Z" fill="rgba(0,0,0,1)"/>
<path d="M1,-63.636 C1,-63.084 0.552,-62.636 0,-62.636 C-0.552,-62.636 -1,-63.084 -1,-63.636 C-1,-64.189 -0.552,-64.636 0,-64.636 C0.552,-64.636 1,-64.189 1,-63.636 Z" fill="rgba(0,0,0,1)"/>
<path d="M1,-57.576 C1,-57.023 0.552,-56.576 0,-56.576 C-0.552,-56.576 -1,-57.023 -1,-57.576 C-1,-58.128 -0.552,-58.576 0,-58.576 C0.552,-58.576 1,-58.128 1,-57.576 Z" fill="rgba(0,0,0,1)"/>
<path d="M1,-51.515 C1,-50.963 0.552,-50.515 0,-50.515 C-0.552,-50.515 -1,-50.963 -1,-51.515 C-1,-52.067 -0.552,-52.515 0,-52.515 C0.552,-52.515 1,-52.067 1,-51.515 Z" fill="rgba(0,0,0,1)"/>
<path d="M1,-45.455 C1,-44.902 0.552,-44.455 0,-44.455 C-0.552,-44.455 -1,-44.902 -1,-45.455 C-1,-46.007 -0.552,-46.455 0,-46.455 C0.552,-46.455 1,-46.007 1,-45.455 Z" fill="rgba(0,0,0,1)"/>
<path d="M1,-39.394 C1,-38.842 0.552,-38.394 0,-38.394 C-0.552,-38.394 -1,-38.842 -1,-39.394 C-1,-39.946 -0.552,-40.394 0,-40.394 C0.552,-40.394 1,-39.946 1,-39.394 Z" fill="rgba(0,0,0,1)"/>
<path d="M1,-33.333 C1,-32.781 0.552,-32.333 0,-32.333 C-0.552,-32.333 -1,-32.781 -1,-33.333 C-1,-33.886 -0.552,-34.333 0,-34.333 C0.552,-34.333 1,-33.886 1,-33.333 Z" fill="rgba(0,0,0,1)"/>
<path d="M1,-27.273 C1,-26.72 0.552,-26.273 0,-26.273 C-0.552,-26.273 -1,-26.72 -1,-27.273 C-1,-27.825 -0.552,-28.273 0,-28.273 C0.552,-28.273 1,-27.825 1,-27.273 Z" fill="rgba(0,0,0,1)"/>
<path d="M1,-21.212 C1,-20.66 0.552,-20.212 0,-20.212 C-0.552,-20.212 -1,-20.66 -1,-21.212 C-1,-21.764 -0.552,-22.212 0,-22.212 C0.552,-22.212 1,-21.764 1,-21.212 Z" fill="rgba(0,0,0,1)"/>
<path d="M1,-15.152 C1,-14.599 0.552,-14.152 0,-14.152 C-0.552,-14.152 -1,-14.599 -1,-15.152 C-1,-15.704 -0.552,-16.152 0,-16.152 C0.552,-16.152 1,-15.704 1,-15.152 Z" fill="rgba(0,0,0,1)"/>
<path d="M1,-9.091 C1,-8.539 0.552,-8.091 0,-8.091 C-0.552,-8.091 -1,-8.539 -1,-9.091 C-1,-9.643 -0.552,-10.091 0,-10.091 C0.552,-10.091 1,-9.643 1,-9.091 Z" fill="rgba(0,0,0,1)"/>
<path d="M1,-3.03 C1,-2.478 0.552,-2.03 0,-2.03 C-0.552,-2.03 -1,-2.478 -1,-3.03 C-1,-3.583 -0.552,-4.03 0,-4.03 C0.552,-4.03 1,-3.583 1,-3.03 Z" fill="rgba(0,0,0,1)"/>
<path d="M1,3.03 C1,3.583 0.552,4.03 0,4.03 C-0.552,4.03 -1,3.583 -1,3.03 C-1,2.478 -0.552,2.03 0,2.03 C0.552,2.03 1,2.478 1,3.03 Z" fill="rgba(0,0,0,1)"/>
<path d="M1,9.091 C1,9.643 0.552,10.091 0,10.091 C-0.552,10.091 -1,9.643 -1,9.091 C-1,8.539 -0.552,8.091 0,8.091 C0.552,8.091 1,8.539 1,9.091 Z" fill="rgba(0,0,0,1)"/>
<path d="M1,15.152 C1,15.704 0.552,16.152 0,16.152 C-0.552,16.152 -1,15.704 -1,15.152 C-1,14.599 -0.552,14.152 0,14.152 C0.552,14.152 1,14.599 1,15.152 Z" fill="rgba(0,0,0,1)"/>
<path d="M1,21.212 C1,21.764 0.552,22.212 0,22.212 C-0.552,22.212 -1,21.764 -1,21.212 C-1,20.66 -0.552,20.212 0,20.212 C0.552,20.212 1,20.66 1,21.212 Z" fill="rgba(0,0,0,1)"/>
<path d="M1,27.273 C1,27.825 0.552,28.273 0,28.273 C-0.552,28.273 -1,27.825 -1,27.273 C-1,26.72 -0.552,26.273 0,26.273 C0.552,26.273 1,26.72 1,27.273 Z" fill="rgba(0,0,0,1)"/>
<path d="M1,33.333 C1,33.886 0.552,34.333 0,34.333 C-0.552,34.333 -1,33.886 -1,33.333 C-1,32.781 -0.552,32.333 0,32.333 C0.552,32.333 1,32.781 1,33.333 Z" fill="rgba(0,0,0,1)"/>
<path d="M1,39.394 C1,39.946 0.552,40.394 0,40.394 C-0.552,40.394 -1,39.946 -1,39.394 C-1,38.842 -0.552,38.394 0,38.394 C0.552,38.394 1,38.842 1,39.394 Z" fill="rgba(0,0,0,1)"/>
<path d="M1,45.455 C1,46.007 0.552,46.455 0,46.455 C-0.552,46.455 -1,46.007 -1,45.455 C-1,44.902 -0.552,44.455 0,44.455 C0.552,44.455 1,44.902 1,45.455 Z" fill="rgba(0,0,0,1)"/>
<path d="M1,51.515 C1,52.067 0.552,52.515 0,52.515 C-0.552,52.515 -1,52.067 -1,51.515 C-1,50.963 -0.552,50.515 0,50.515 C0.552,50.515 1,50.963 1,51.515 Z" fill="rgba(0,0,0,1)"/>
<path d="M1,57.576 C1,58.128 0.552,58.576 0,58.576 C-0.552,58.576 -1,58.128 -1,57.576 C-1,57.023 -0.552,56.576 0,56.576 C0.552,56.576 1,57.023 1,57.576 Z" fill="rgba(0,0,0,1)"/>
<path d="M1,63.636 C1,64.189 0.552,64.636 0,64.636 C-0.552,64.636 -1,64.189 -1,63.636 C-1,63.084 -0.552,62.636 0,62.636 C0.552,62.636 1,63.084 1,63.636 Z" fill="rgba(0,0,0,1)"/>
<path d="M1,69.697 C1,70.249 0.552,70.697 0,70.697 C-0.552,70.697 -1,70.249 -1,69.697 C-1,69.145 -0.552,68.697 0,68.697 C0.552,68.697 1,69.145 1,69.697 Z" fill="rgba(0,0,0,1)"/>
<path d="M1,75.758 C1,76.31 0.552,76.758 0,76.758 C-0.552,76.758 -1,76.31 -1,75.758 C-1,75.205 -0.552,74.758 0,74.758 C0.552,74.758 1,75.205 1,75.758 Z" fill="rgba(0,0,0,1)"/>
<path d="M1,81.818 C1,82.37 0.552,82.818 0,82.818 C-0.552,82.818 -1,82.37 -1,81.818 C-1,81.266 -0.552,80.818 0,80.818 C0.552,80.818 1,81.266 1,81.818 Z" fill="rgba(0,0,0,1)"/>
<path d="M1,87.879 C1,88.431 0.552,88.879 0,88.879 C-0.552,88.879 -1,88.431 -1,87.879 C-1,87.327 -0.552,86.879 0,86.879 C0.552,86.879 1,87.327 1,87.879 Z" fill="rgba(0,0,0,1)"/>
<path d="M1,93.939 C1,94.492 0.552,94.939 0,94.939 C-0.552,94.939 -1,94.492 -1,93.939 C-1,93.387 -0.552,92.939 0,92.939 C0.552,92.939 1,93.387 1,93.939 Z" fill="rgba(0,0,0,1)"/>
<path d="M1,100 C1,100.552 0.552,101 0,101 C-0.552,101 -1,100.552 -1,100 C-1,99.448 -0.552,99 0,99 C0.552,99 1,99.448 1,100 Z" fill="rgba(0,0,0,1)"/>
<path d="M-0.193,-0.461 L176.595,-74.569 L173.889,-81.025 L190.622,-79.907 L179.688,-67.191 L176.982,-73.647 L0.193,0.461 Z" fill="rgba(13,125,179,1)"/>
<path d="M206,-83 C206,-78.582 202.418,-75 198,-75 C193.582,-75 190,-78.582 190,-83 C190,-87.418 193.582,-91 198,-91 C202.418,-91 206,-87.418 206,-83 Z" fill="rgba(254,0,0,1)"/>
</svg>