<svg xmlns="http://www.w3.org/2000/svg" viewBox="-219.78 -159.12 439.55 428.24">
<path d="M-117.158,-102 C-117.158,-90.954 -126.112,-82 -137.158,-82 C-148.204,-82 -157.158,-90.954 -157.158,-102 C-157.158,-113.046 -148.204,-122 -137.158,-122 C-126.112,-122 -117.158,-113.046 -117.158,-102 Z" fill="rgba(0,151,0,0.0784313725490196)" stroke="rgba(75,98,168,1)" stroke-width="1"/>
<path d="M-132.158,-132 L-72.158,-132 L-72.158,-72 L-132.158,-72 Z" fill="rgba(0,151,0,0.0784313725490196)" stroke="rgba(75,98,168,1)" stroke-width="1"/>
<text x="-104.03999999999999" y="0" text-anchor="start" font-family="Verdana, Helvetica, Arial, sans-serif" font-size="48" fill="rgba(51,94,51,1)" transform="matrix(1 0 0 1 61.88199999999998 -89.28)">0:Overlap</text>
<path d="M-82.158,-26 C-82.158,-14.954 -91.112,-6 -102.158,-6 C-113.204,-6 -122.158,-14.954 -122.158,-26 C-122.158,-37.046 -113.204,-46 -102.158,-46 C-91.112,-46 -82.158,-37.046 -82.158,-26 Z" fill="rgba(0,151,0,0.0784313725490196)" stroke="rgba(75,98,168,1)" stroke-width="1"/>
<path d="M-132.158,-56 L-72.158,-56 L-72.158,4 L-132.158,4 Z" fill="rgba(0,151,0,0.0784313725490196)" stroke="rgba(75,98,168,1)" stroke-width="1"/>
<text x="-84.048" y="0" text-anchor="start" font-family="Verdana, Helvetica, Arial, sans-serif" font-size="48" fill="rgba(51,94,51,1)" transform="matrix(1 0 0 1 41.889999999999986 -13.280000000000001)">1:A in B</text>
<path d="M-72.158,55 C-72.158,74.33 -87.828,90 -107.158,90 C-126.488,90 -142.158,74.33 -142.158,55 C-142.158,35.67 -126.488,20 -107.158,20 C-87.828,20 -72.158,35.67 -72.158,55 Z" fill="rgba(0,151,0,0.0784313725490196)" stroke="rgba(75,98,168,1)" stroke-width="1"/>
<path d="M-122.158,40 L-92.158,40 L-92.158,70 L-122.158,70 Z" fill="rgba(0,151,0,0.0784313725490196)" stroke="rgba(75,98,168,1)" stroke-width="1"/>
<text x="-84.048" y="0" text-anchor="start" font-family="Verdana, Helvetica, Arial, sans-serif" font-size="48" fill="rgba(51,94,51,1)" transform="matrix(1 0 0 1 41.889999999999986 67.72)">2:B in A</text>
<path d="M-147.658,136 C-147.658,148.426 -157.732,158.5 -170.158,158.5 C-182.584,158.5 -192.658,148.426 -192.658,136 C-192.658,123.574 -182.584,113.5 -170.158,113.5 C-157.732,113.5 -147.658,123.574 -147.658,136 Z" fill="rgba(0,151,0,0.0784313725490196)" stroke="rgba(75,98,168,1)" stroke-width="1"/>
<path d="M-132.158,106 L-72.158,106 L-72.158,166 L-132.158,166 Z" fill="rgba(0,151,0,0.0784313725490196)" stroke="rgba(75,98,168,1)" stroke-width="1"/>
<text x="-117.40800000000002" y="0" text-anchor="start" font-family="Verdana, Helvetica, Arial, sans-serif" font-size="48" fill="rgba(51,94,51,1)" transform="matrix(1 0 0 1 75.25 148.72)">3:Separate</text>
<path d="M-116.158,182 L-88.158,182 C-79.321,182 -72.158,189.163 -72.158,198 L-72.158,226 C-72.158,234.837 -79.321,242 -88.158,242 L-116.158,242 C-124.995,242 -132.158,234.837 -132.158,226 L-132.158,198 C-132.158,189.163 -124.995,182 -116.158,182 Z" fill="rgba(0,151,0,0.0784313725490196)" stroke="rgba(75,98,168,1)" stroke-width="1"/>
<path d="M-116.158,182 L-88.158,182 C-79.321,182 -72.158,189.163 -72.158,198 L-72.158,226 C-72.158,234.837 -79.321,242 -88.158,242 L-116.158,242 C-124.995,242 -132.158,234.837 -132.158,226 L-132.158,198 C-132.158,189.163 -124.995,182 -116.158,182 Z" fill="rgba(0,151,0,0.0784313725490196)" stroke="rgba(75,98,168,1)" stroke-width="1"/>
<text x="-82.70400000000001" y="0" text-anchor="start" font-family="Verdana, Helvetica, Arial, sans-serif" font-size="48" fill="rgba(51,94,51,1)" transform="matrix(1 0 0 1 40.54599999999999 224.72000000000003)">4:Same</text>
</svg>