<svg xmlns="http://www.w3.org/2000/svg" viewBox="-270.26 -171.3 540.52 422.61">
<path d="M-207.874,-109.833 L-235.587,-109.833 L-221.73,-133.833 Z" fill="rgba(227,31,38,1)" stroke="rgba(0,0,0,1)" stroke-width="0.5"/>
<path d="M-179.246,-109.833 L-201.874,-109.833 L-201.874,-132.46 L-179.246,-132.46 Z" fill="rgba(252,179,21,1)" stroke="rgba(0,0,0,1)" stroke-width="0.5"/>
<path d="M-148.625,-109.833 L-167.434,-109.833 L-173.246,-127.721 L-158.029,-138.777 L-142.813,-127.721 Z" fill="rgba(0,110,184,1)" stroke="rgba(0,0,0,1)" stroke-width="0.5"/>
<path d="M-112.813,-109.833 L-128.813,-109.833 L-136.813,-123.689 L-128.813,-137.546 L-112.813,-137.546 L-104.813,-123.689 Z" fill="rgba(163,106,165,1)" stroke="rgba(0,0,0,1)" stroke-width="0.5"/>
<path d="M-37.874,-109.833 L-65.587,-109.833 L-51.73,-133.833 Z" fill="rgba(227,31,38,1)" stroke="rgba(0,0,0,1)" stroke-width="0.5"/>
<path d="M-9.246,-109.833 L-31.874,-109.833 L-31.874,-132.46 L-9.246,-132.46 Z" fill="rgba(252,179,21,1)" stroke="rgba(0,0,0,1)" stroke-width="0.5"/>
<path d="M20.754,-109.833 L4.754,-109.833 L-3.246,-123.689 L4.754,-137.546 L20.754,-137.546 L28.754,-123.689 Z" fill="rgba(163,106,165,1)" stroke="rgba(0,0,0,1)" stroke-width="0.5"/>
<path d="M59.375,-109.833 L40.566,-109.833 L34.754,-127.721 L49.971,-138.777 L65.187,-127.721 Z" fill="rgba(0,110,184,1)" stroke="rgba(0,0,0,1)" stroke-width="0.5"/>
<path d="M132.126,-109.833 L104.413,-109.833 L118.27,-133.833 Z" fill="rgba(227,31,38,1)" stroke="rgba(0,0,0,1)" stroke-width="0.5"/>
<path d="M162.748,-109.833 L143.939,-109.833 L138.126,-127.721 L153.343,-138.777 L168.56,-127.721 Z" fill="rgba(0,110,184,1)" stroke="rgba(0,0,0,1)" stroke-width="0.5"/>
<path d="M197.187,-109.833 L174.56,-109.833 L174.56,-132.46 L197.187,-132.46 Z" fill="rgba(252,179,21,1)" stroke="rgba(0,0,0,1)" stroke-width="0.5"/>
<path d="M227.187,-109.833 L211.187,-109.833 L203.187,-123.689 L211.187,-137.546 L227.187,-137.546 L235.187,-123.689 Z" fill="rgba(163,106,165,1)" stroke="rgba(0,0,0,1)" stroke-width="0.5"/>
<path d="M-207.874,-62.889 L-235.587,-62.889 L-221.73,-86.889 Z" fill="rgba(227,31,38,1)" stroke="rgba(0,0,0,1)" stroke-width="0.5"/>
<path d="M-177.252,-62.889 L-196.061,-62.889 L-201.874,-80.777 L-186.657,-91.833 L-171.44,-80.777 Z" fill="rgba(0,110,184,1)" stroke="rgba(0,0,0,1)" stroke-width="0.5"/>
<path d="M-141.44,-62.889 L-157.44,-62.889 L-165.44,-76.745 L-157.44,-90.601 L-141.44,-90.601 L-133.44,-76.745 Z" fill="rgba(163,106,165,1)" stroke="rgba(0,0,0,1)" stroke-width="0.5"/>
<path d="M-104.813,-62.889 L-127.44,-62.889 L-127.44,-85.516 L-104.813,-85.516 Z" fill="rgba(252,179,21,1)" stroke="rgba(0,0,0,1)" stroke-width="0.5"/>
<path d="M-37.874,-62.889 L-65.587,-62.889 L-51.73,-86.889 Z" fill="rgba(227,31,38,1)" stroke="rgba(0,0,0,1)" stroke-width="0.5"/>
<path d="M-7.874,-62.889 L-23.874,-62.889 L-31.874,-76.745 L-23.874,-90.601 L-7.874,-90.601 L0.126,-76.745 Z" fill="rgba(163,106,165,1)" stroke="rgba(0,0,0,1)" stroke-width="0.5"/>
<path d="M28.754,-62.889 L6.126,-62.889 L6.126,-85.516 L28.754,-85.516 Z" fill="rgba(252,179,21,1)" stroke="rgba(0,0,0,1)" stroke-width="0.5"/>
<path d="M59.375,-62.889 L40.566,-62.889 L34.754,-80.777 L49.971,-91.833 L65.187,-80.777 Z" fill="rgba(0,110,184,1)" stroke="rgba(0,0,0,1)" stroke-width="0.5"/>
<path d="M132.126,-62.889 L104.413,-62.889 L118.27,-86.889 Z" fill="rgba(227,31,38,1)" stroke="rgba(0,0,0,1)" stroke-width="0.5"/>
<path d="M162.126,-62.889 L146.126,-62.889 L138.126,-76.745 L146.126,-90.601 L162.126,-90.601 L170.126,-76.745 Z" fill="rgba(163,106,165,1)" stroke="rgba(0,0,0,1)" stroke-width="0.5"/>
<path d="M200.748,-62.889 L181.939,-62.889 L176.126,-80.777 L191.343,-91.833 L206.56,-80.777 Z" fill="rgba(0,110,184,1)" stroke="rgba(0,0,0,1)" stroke-width="0.5"/>
<path d="M235.187,-62.889 L212.56,-62.889 L212.56,-85.516 L235.187,-85.516 Z" fill="rgba(252,179,21,1)" stroke="rgba(0,0,0,1)" stroke-width="0.5"/>
<path d="M-210.416,-15.944 L-233.044,-15.944 L-233.044,-38.572 L-210.416,-38.572 Z" fill="rgba(252,179,21,1)" stroke="rgba(0,0,0,1)" stroke-width="0.5"/>
<path d="M-176.704,-15.944 L-204.416,-15.944 L-190.56,-39.944 Z" fill="rgba(227,31,38,1)" stroke="rgba(0,0,0,1)" stroke-width="0.5"/>
<path d="M-146.082,-15.944 L-164.891,-15.944 L-170.704,-33.833 L-155.487,-44.889 L-140.27,-33.833 Z" fill="rgba(0,110,184,1)" stroke="rgba(0,0,0,1)" stroke-width="0.5"/>
<path d="M-110.27,-15.944 L-126.27,-15.944 L-134.27,-29.801 L-126.27,-43.657 L-110.27,-43.657 L-102.27,-29.801 Z" fill="rgba(163,106,165,1)" stroke="rgba(0,0,0,1)" stroke-width="0.5"/>
<path d="M-40.416,-15.944 L-63.044,-15.944 L-63.044,-38.572 L-40.416,-38.572 Z" fill="rgba(252,179,21,1)" stroke="rgba(0,0,0,1)" stroke-width="0.5"/>
<path d="M-6.704,-15.944 L-34.416,-15.944 L-20.56,-39.944 Z" fill="rgba(227,31,38,1)" stroke="rgba(0,0,0,1)" stroke-width="0.5"/>
<path d="M23.296,-15.944 L7.296,-15.944 L-0.704,-29.801 L7.296,-43.657 L23.296,-43.657 L31.296,-29.801 Z" fill="rgba(163,106,165,1)" stroke="rgba(0,0,0,1)" stroke-width="0.5"/>
<path d="M61.918,-15.944 L43.109,-15.944 L37.296,-33.833 L52.513,-44.889 L67.73,-33.833 Z" fill="rgba(0,110,184,1)" stroke="rgba(0,0,0,1)" stroke-width="0.5"/>
<path d="M129.584,-15.944 L106.956,-15.944 L106.956,-38.572 L129.584,-38.572 Z" fill="rgba(252,179,21,1)" stroke="rgba(0,0,0,1)" stroke-width="0.5"/>
<path d="M160.205,-15.944 L141.396,-15.944 L135.584,-33.833 L150.8,-44.889 L166.017,-33.833 Z" fill="rgba(0,110,184,1)" stroke="rgba(0,0,0,1)" stroke-width="0.5"/>
<path d="M199.73,-15.944 L172.017,-15.944 L185.874,-39.944 Z" fill="rgba(227,31,38,1)" stroke="rgba(0,0,0,1)" stroke-width="0.5"/>
<path d="M229.73,-15.944 L213.73,-15.944 L205.73,-29.801 L213.73,-43.657 L229.73,-43.657 L237.73,-29.801 Z" fill="rgba(163,106,165,1)" stroke="rgba(0,0,0,1)" stroke-width="0.5"/>
<path d="M-210.416,31 L-233.044,31 L-233.044,8.373 L-210.416,8.373 Z" fill="rgba(252,179,21,1)" stroke="rgba(0,0,0,1)" stroke-width="0.5"/>
<path d="M-179.795,31 L-198.604,31 L-204.416,13.111 L-189.2,2.056 L-173.983,13.111 Z" fill="rgba(0,110,184,1)" stroke="rgba(0,0,0,1)" stroke-width="0.5"/>
<path d="M-143.983,31 L-159.983,31 L-167.983,17.144 L-159.983,3.287 L-143.983,3.287 L-135.983,17.144 Z" fill="rgba(163,106,165,1)" stroke="rgba(0,0,0,1)" stroke-width="0.5"/>
<path d="M-102.27,31 L-129.983,31 L-116.126,7 Z" fill="rgba(227,31,38,1)" stroke="rgba(0,0,0,1)" stroke-width="0.5"/>
<path d="M-40.416,31 L-63.044,31 L-63.044,8.373 L-40.416,8.373 Z" fill="rgba(252,179,21,1)" stroke="rgba(0,0,0,1)" stroke-width="0.5"/>
<path d="M-10.416,31 L-26.416,31 L-34.416,17.144 L-26.416,3.287 L-10.416,3.287 L-2.416,17.144 Z" fill="rgba(163,106,165,1)" stroke="rgba(0,0,0,1)" stroke-width="0.5"/>
<path d="M31.296,31 L3.584,31 L17.44,7 Z" fill="rgba(227,31,38,1)" stroke="rgba(0,0,0,1)" stroke-width="0.5"/>
<path d="M61.918,31 L43.109,31 L37.296,13.111 L52.513,2.056 L67.73,13.111 Z" fill="rgba(0,110,184,1)" stroke="rgba(0,0,0,1)" stroke-width="0.5"/>
<path d="M129.584,31 L106.956,31 L106.956,8.373 L129.584,8.373 Z" fill="rgba(252,179,21,1)" stroke="rgba(0,0,0,1)" stroke-width="0.5"/>
<path d="M159.584,31 L143.584,31 L135.584,17.144 L143.584,3.287 L159.584,3.287 L167.584,17.144 Z" fill="rgba(163,106,165,1)" stroke="rgba(0,0,0,1)" stroke-width="0.5"/>
<path d="M198.205,31 L179.396,31 L173.584,13.111 L188.8,2.056 L204.017,13.111 Z" fill="rgba(0,110,184,1)" stroke="rgba(0,0,0,1)" stroke-width="0.5"/>
<path d="M237.73,31 L210.017,31 L223.874,7 Z" fill="rgba(227,31,38,1)" stroke="rgba(0,0,0,1)" stroke-width="0.5"/>
<path d="M-212.326,77.944 L-231.135,77.944 L-236.947,60.056 L-221.73,49 L-206.513,60.056 Z" fill="rgba(0,110,184,1)" stroke="rgba(0,0,0,1)" stroke-width="0.5"/>
<path d="M-172.8,77.944 L-200.513,77.944 L-186.657,53.944 Z" fill="rgba(227,31,38,1)" stroke="rgba(0,0,0,1)" stroke-width="0.5"/>
<path d="M-144.173,77.944 L-166.8,77.944 L-166.8,55.317 L-144.173,55.317 Z" fill="rgba(252,179,21,1)" stroke="rgba(0,0,0,1)" stroke-width="0.5"/>
<path d="M-114.173,77.944 L-130.173,77.944 L-138.173,64.088 L-130.173,50.231 L-114.173,50.231 L-106.173,64.088 Z" fill="rgba(163,106,165,1)" stroke="rgba(0,0,0,1)" stroke-width="0.5"/>
<path d="M-42.326,77.944 L-61.135,77.944 L-66.947,60.056 L-51.73,49 L-36.513,60.056 Z" fill="rgba(0,110,184,1)" stroke="rgba(0,0,0,1)" stroke-width="0.5"/>
<path d="M-2.8,77.944 L-30.513,77.944 L-16.657,53.944 Z" fill="rgba(227,31,38,1)" stroke="rgba(0,0,0,1)" stroke-width="0.5"/>
<path d="M27.2,77.944 L11.2,77.944 L3.2,64.088 L11.2,50.231 L27.2,50.231 L35.2,64.088 Z" fill="rgba(163,106,165,1)" stroke="rgba(0,0,0,1)" stroke-width="0.5"/>
<path d="M63.827,77.944 L41.2,77.944 L41.2,55.317 L63.827,55.317 Z" fill="rgba(252,179,21,1)" stroke="rgba(0,0,0,1)" stroke-width="0.5"/>
<path d="M127.674,77.944 L108.865,77.944 L103.053,60.056 L118.27,49 L133.487,60.056 Z" fill="rgba(0,110,184,1)" stroke="rgba(0,0,0,1)" stroke-width="0.5"/>
<path d="M162.114,77.944 L139.487,77.944 L139.487,55.317 L162.114,55.317 Z" fill="rgba(252,179,21,1)" stroke="rgba(0,0,0,1)" stroke-width="0.5"/>
<path d="M195.827,77.944 L168.114,77.944 L181.971,53.944 Z" fill="rgba(227,31,38,1)" stroke="rgba(0,0,0,1)" stroke-width="0.5"/>
<path d="M225.827,77.944 L209.827,77.944 L201.827,64.088 L209.827,50.231 L225.827,50.231 L233.827,64.088 Z" fill="rgba(163,106,165,1)" stroke="rgba(0,0,0,1)" stroke-width="0.5"/>
<path d="M-212.326,124.889 L-231.135,124.889 L-236.947,107 L-221.73,95.944 L-206.513,107 Z" fill="rgba(0,110,184,1)" stroke="rgba(0,0,0,1)" stroke-width="0.5"/>
<path d="M-177.886,124.889 L-200.513,124.889 L-200.513,102.261 L-177.886,102.261 Z" fill="rgba(252,179,21,1)" stroke="rgba(0,0,0,1)" stroke-width="0.5"/>
<path d="M-147.886,124.889 L-163.886,124.889 L-171.886,111.032 L-163.886,97.176 L-147.886,97.176 L-139.886,111.032 Z" fill="rgba(163,106,165,1)" stroke="rgba(0,0,0,1)" stroke-width="0.5"/>
<path d="M-106.173,124.889 L-133.886,124.889 L-120.029,100.889 Z" fill="rgba(227,31,38,1)" stroke="rgba(0,0,0,1)" stroke-width="0.5"/>
<path d="M-42.326,124.889 L-61.135,124.889 L-66.947,107 L-51.73,95.944 L-36.513,107 Z" fill="rgba(0,110,184,1)" stroke="rgba(0,0,0,1)" stroke-width="0.5"/>
<path d="M-6.513,124.889 L-22.513,124.889 L-30.513,111.032 L-22.513,97.176 L-6.513,97.176 L1.487,111.032 Z" fill="rgba(163,106,165,1)" stroke="rgba(0,0,0,1)" stroke-width="0.5"/>
<path d="M35.2,124.889 L7.487,124.889 L21.343,100.889 Z" fill="rgba(227,31,38,1)" stroke="rgba(0,0,0,1)" stroke-width="0.5"/>
<path d="M63.827,124.889 L41.2,124.889 L41.2,102.261 L63.827,102.261 Z" fill="rgba(252,179,21,1)" stroke="rgba(0,0,0,1)" stroke-width="0.5"/>
<path d="M127.674,124.889 L108.865,124.889 L103.053,107 L118.27,95.944 L133.487,107 Z" fill="rgba(0,110,184,1)" stroke="rgba(0,0,0,1)" stroke-width="0.5"/>
<path d="M163.487,124.889 L147.487,124.889 L139.487,111.032 L147.487,97.176 L163.487,97.176 L171.487,111.032 Z" fill="rgba(163,106,165,1)" stroke="rgba(0,0,0,1)" stroke-width="0.5"/>
<path d="M200.114,124.889 L177.487,124.889 L177.487,102.261 L200.114,102.261 Z" fill="rgba(252,179,21,1)" stroke="rgba(0,0,0,1)" stroke-width="0.5"/>
<path d="M233.827,124.889 L206.114,124.889 L219.971,100.889 Z" fill="rgba(227,31,38,1)" stroke="rgba(0,0,0,1)" stroke-width="0.5"/>
<path d="M-213.73,171.833 L-229.73,171.833 L-237.73,157.976 L-229.73,144.12 L-213.73,144.12 L-205.73,157.976 Z" fill="rgba(163,106,165,1)" stroke="rgba(0,0,0,1)" stroke-width="0.5"/>
<path d="M-172.017,171.833 L-199.73,171.833 L-185.874,147.833 Z" fill="rgba(227,31,38,1)" stroke="rgba(0,0,0,1)" stroke-width="0.5"/>
<path d="M-143.39,171.833 L-166.017,171.833 L-166.017,149.205 L-143.39,149.205 Z" fill="rgba(252,179,21,1)" stroke="rgba(0,0,0,1)" stroke-width="0.5"/>
<path d="M-112.768,171.833 L-131.578,171.833 L-137.39,153.944 L-122.173,142.889 L-106.956,153.944 Z" fill="rgba(0,110,184,1)" stroke="rgba(0,0,0,1)" stroke-width="0.5"/>
<path d="M-43.73,171.833 L-59.73,171.833 L-67.73,157.976 L-59.73,144.12 L-43.73,144.12 L-35.73,157.976 Z" fill="rgba(163,106,165,1)" stroke="rgba(0,0,0,1)" stroke-width="0.5"/>
<path d="M-2.017,171.833 L-29.73,171.833 L-15.874,147.833 Z" fill="rgba(227,31,38,1)" stroke="rgba(0,0,0,1)" stroke-width="0.5"/>
<path d="M28.604,171.833 L9.795,171.833 L3.983,153.944 L19.2,142.889 L34.416,153.944 Z" fill="rgba(0,110,184,1)" stroke="rgba(0,0,0,1)" stroke-width="0.5"/>
<path d="M63.044,171.833 L40.416,171.833 L40.416,149.205 L63.044,149.205 Z" fill="rgba(252,179,21,1)" stroke="rgba(0,0,0,1)" stroke-width="0.5"/>
<path d="M126.27,171.833 L110.27,171.833 L102.27,157.976 L110.27,144.12 L126.27,144.12 L134.27,157.976 Z" fill="rgba(163,106,165,1)" stroke="rgba(0,0,0,1)" stroke-width="0.5"/>
<path d="M162.897,171.833 L140.27,171.833 L140.27,149.205 L162.897,149.205 Z" fill="rgba(252,179,21,1)" stroke="rgba(0,0,0,1)" stroke-width="0.5"/>
<path d="M196.61,171.833 L168.897,171.833 L182.754,147.833 Z" fill="rgba(227,31,38,1)" stroke="rgba(0,0,0,1)" stroke-width="0.5"/>
<path d="M227.232,171.833 L208.422,171.833 L202.61,153.944 L217.827,142.889 L233.044,153.944 Z" fill="rgba(0,110,184,1)" stroke="rgba(0,0,0,1)" stroke-width="0.5"/>
<path d="M-213.73,218.777 L-229.73,218.777 L-237.73,204.921 L-229.73,191.064 L-213.73,191.064 L-205.73,204.921 Z" fill="rgba(163,106,165,1)" stroke="rgba(0,0,0,1)" stroke-width="0.5"/>
<path d="M-177.103,218.777 L-199.73,218.777 L-199.73,196.15 L-177.103,196.15 Z" fill="rgba(252,179,21,1)" stroke="rgba(0,0,0,1)" stroke-width="0.5"/>
<path d="M-146.481,218.777 L-165.29,218.777 L-171.103,200.889 L-155.886,189.833 L-140.669,200.889 Z" fill="rgba(0,110,184,1)" stroke="rgba(0,0,0,1)" stroke-width="0.5"/>
<path d="M-106.956,218.777 L-134.669,218.777 L-120.813,194.777 Z" fill="rgba(227,31,38,1)" stroke="rgba(0,0,0,1)" stroke-width="0.5"/>
<path d="M-43.73,218.777 L-59.73,218.777 L-67.73,204.921 L-59.73,191.064 L-43.73,191.064 L-35.73,204.921 Z" fill="rgba(163,106,165,1)" stroke="rgba(0,0,0,1)" stroke-width="0.5"/>
<path d="M-5.109,218.777 L-23.918,218.777 L-29.73,200.889 L-14.513,189.833 L0.704,200.889 Z" fill="rgba(0,110,184,1)" stroke="rgba(0,0,0,1)" stroke-width="0.5"/>
<path d="M34.416,218.777 L6.704,218.777 L20.56,194.777 Z" fill="rgba(227,31,38,1)" stroke="rgba(0,0,0,1)" stroke-width="0.5"/>
<path d="M63.044,218.777 L40.416,218.777 L40.416,196.15 L63.044,196.15 Z" fill="rgba(252,179,21,1)" stroke="rgba(0,0,0,1)" stroke-width="0.5"/>
<path d="M126.27,218.777 L110.27,218.777 L102.27,204.921 L110.27,191.064 L126.27,191.064 L134.27,204.921 Z" fill="rgba(163,106,165,1)" stroke="rgba(0,0,0,1)" stroke-width="0.5"/>
<path d="M164.891,218.777 L146.082,218.777 L140.27,200.889 L155.487,189.833 L170.704,200.889 Z" fill="rgba(0,110,184,1)" stroke="rgba(0,0,0,1)" stroke-width="0.5"/>
<path d="M199.331,218.777 L176.704,218.777 L176.704,196.15 L199.331,196.15 Z" fill="rgba(252,179,21,1)" stroke="rgba(0,0,0,1)" stroke-width="0.5"/>
<path d="M233.044,218.777 L205.331,218.777 L219.187,194.777 Z" fill="rgba(227,31,38,1)" stroke="rgba(0,0,0,1)" stroke-width="0.5"/>
</svg>