<svg xmlns="http://www.w3.org/2000/svg" viewBox="-217.76 -167.28 437.52 402.04">
<text x="-83.375" y="0" text-anchor="start" font-family="Verdana, Helvetica, Arial, sans-serif" font-size="250" fill="rgba(197,219,197,1)" transform="matrix(1 0 0 1 -90.375 65.25)">B</text>
<path d="M-170.75,-114.75 C-170.75,-113.093 -172.093,-111.75 -173.75,-111.75 C-175.407,-111.75 -176.75,-113.093 -176.75,-114.75 C-176.75,-116.407 -175.407,-117.75 -173.75,-117.75 C-172.093,-117.75 -170.75,-116.407 -170.75,-114.75 Z" fill="rgba(0,0,255,0.7843137254901961)" stroke="rgba(71,71,71,1)" stroke-width="0.375"/>
<path d="M-4,-114.75 C-4,-113.093 -5.343,-111.75 -7,-111.75 C-8.657,-111.75 -10,-113.093 -10,-114.75 C-10,-116.407 -8.657,-117.75 -7,-117.75 C-5.343,-117.75 -4,-116.407 -4,-114.75 Z" fill="rgba(0,0,255,0.7843137254901961)" stroke="rgba(71,71,71,1)" stroke-width="0.375"/>
<path d="M-4,112.75 C-4,114.407 -5.343,115.75 -7,115.75 C-8.657,115.75 -10,114.407 -10,112.75 C-10,111.093 -8.657,109.75 -7,109.75 C-5.343,109.75 -4,111.093 -4,112.75 Z" fill="rgba(0,0,255,0.7843137254901961)" stroke="rgba(71,71,71,1)" stroke-width="0.375"/>
<path d="M-170.75,112.75 C-170.75,114.407 -172.093,115.75 -173.75,115.75 C-175.407,115.75 -176.75,114.407 -176.75,112.75 C-176.75,111.093 -175.407,109.75 -173.75,109.75 C-172.093,109.75 -170.75,111.093 -170.75,112.75 Z" fill="rgba(0,0,255,0.7843137254901961)" stroke="rgba(71,71,71,1)" stroke-width="0.375"/>
<text x="-174.306" y="-114.15" text-anchor="start" font-family="Verdana, Helvetica, Arial, sans-serif" font-size="2" fill="rgba(255,255,0,0.7843137254901961)">0</text>
<text x="-7.556" y="-114.15" text-anchor="start" font-family="Verdana, Helvetica, Arial, sans-serif" font-size="2" fill="rgba(255,255,0,0.7843137254901961)">1</text>
<text x="-7.556" y="113.35" text-anchor="start" font-family="Verdana, Helvetica, Arial, sans-serif" font-size="2" fill="rgba(255,255,0,0.7843137254901961)">2</text>
<text x="-174.306" y="113.35" text-anchor="start" font-family="Verdana, Helvetica, Arial, sans-serif" font-size="2" fill="rgba(255,255,0,0.7843137254901961)">3</text>
<text x="-83.375" y="0" text-anchor="start" font-family="Verdana, Helvetica, Arial, sans-serif" font-size="250" fill="rgba(197,219,197,1)" transform="matrix(1 0 0 1 106.375 65.25)">B</text>
<path d="M26,-114.75 C26,-113.093 24.657,-111.75 23,-111.75 C21.343,-111.75 20,-113.093 20,-114.75 C20,-116.407 21.343,-117.75 23,-117.75 C24.657,-117.75 26,-116.407 26,-114.75 Z" fill="rgba(0,0,255,0.7843137254901961)" stroke="rgba(71,71,71,1)" stroke-width="0.375"/>
<path d="M192.75,-114.75 C192.75,-113.093 191.407,-111.75 189.75,-111.75 C188.093,-111.75 186.75,-113.093 186.75,-114.75 C186.75,-116.407 188.093,-117.75 189.75,-117.75 C191.407,-117.75 192.75,-116.407 192.75,-114.75 Z" fill="rgba(0,0,255,0.7843137254901961)" stroke="rgba(71,71,71,1)" stroke-width="0.375"/>
<path d="M192.75,112.75 C192.75,114.407 191.407,115.75 189.75,115.75 C188.093,115.75 186.75,114.407 186.75,112.75 C186.75,111.093 188.093,109.75 189.75,109.75 C191.407,109.75 192.75,111.093 192.75,112.75 Z" fill="rgba(0,0,255,0.7843137254901961)" stroke="rgba(71,71,71,1)" stroke-width="0.375"/>
<path d="M26,112.75 C26,114.407 24.657,115.75 23,115.75 C21.343,115.75 20,114.407 20,112.75 C20,111.093 21.343,109.75 23,109.75 C24.657,109.75 26,111.093 26,112.75 Z" fill="rgba(0,0,255,0.7843137254901961)" stroke="rgba(71,71,71,1)" stroke-width="0.375"/>
<text x="22.444" y="-114.15" text-anchor="start" font-family="Verdana, Helvetica, Arial, sans-serif" font-size="2" fill="rgba(255,255,0,0.7843137254901961)">0</text>
<text x="189.194" y="-114.15" text-anchor="start" font-family="Verdana, Helvetica, Arial, sans-serif" font-size="2" fill="rgba(255,255,0,0.7843137254901961)">1</text>
<text x="189.194" y="113.35" text-anchor="start" font-family="Verdana, Helvetica, Arial, sans-serif" font-size="2" fill="rgba(255,255,0,0.7843137254901961)">2</text>
<text x="22.444" y="113.35" text-anchor="start" font-family="Verdana, Helvetica, Arial, sans-serif" font-size="2" fill="rgba(255,255,0,0.7843137254901961)">3</text>
<path d="M-110.75,167.75 C-110.75,189.841 -128.659,207.75 -150.75,207.75 C-172.841,207.75 -190.75,189.841 -190.75,167.75 C-190.75,145.659 -172.841,127.75 -150.75,127.75 C-128.659,127.75 -110.75,145.659 -110.75,167.75 Z" fill="rgba(0,0,0,0)" stroke="rgba(0,0,0,1)" stroke-width="2"/>
<path d="M86,167.75 C86,189.841 68.091,207.75 46,207.75 C23.909,207.75 6,189.841 6,167.75 C6,145.659 23.909,127.75 46,127.75 C68.091,127.75 86,145.659 86,167.75 Z" fill="rgba(0,0,0,0)" stroke="rgba(0,0,0,1)" stroke-width="2"/>
<text x="-173.75" y="-114.75" text-anchor="start" font-family="Verdana-Italic, Helvetica, Arial, sans-serif" font-size="16" fill="rgba(41,41,41,1)" transform="matrix(1 0 0 1 2 -14)">Original</text>
<text x="23" y="-114.75" text-anchor="start" font-family="Verdana-Italic, Helvetica, Arial, sans-serif" font-size="16" fill="rgba(41,41,41,1)" transform="matrix(1 0 0 1 2 -14)">Resample</text>
<text x="-173.75" y="-114.75" text-anchor="start" font-family="Verdana-Italic, Helvetica, Arial, sans-serif" font-size="16" fill="rgba(41,41,41,1)" transform="matrix(1 0 0 1 2 -14)">Resamp_curv</text>
</svg>