<svg xmlns="http://www.w3.org/2000/svg" viewBox="-199.02 -158.25 431.57 443.77">
<path d="M0,50 L22.451,-19.098 L-36.327,-61.803 L36.327,-61.803 L58.779,-130.902 L81.23,-61.803 L153.884,-61.803 L95.106,-19.098 L117.557,50 L58.779,7.295 Z" fill="rgba(0,255,0,0.12549019607843137)" stroke="rgba(0,0,0,0.1843137254901961)" stroke-width="1"/>
<path d="M0,50 L33.287,-12.869 L-12.913,-66.962 L57.115,-56.996 L94.284,-117.651 L108.71,-47.991 L177.882,-31.384 L116.09,3.861 L123.852,74.168 L71.236,26.291 Z" fill="rgba(72,247,0,0.1323529411764706)" stroke="rgba(0,0,0,0.1843137254901961)" stroke-width="1"/>
<path d="M0,50 L42.671,-5.011 L11.064,-67.044 L77.144,-47.846 L126.374,-97.075 L132.926,-27.763 L194.958,3.844 L131.063,31.494 L124.588,100.001 L78.546,47.778 Z" fill="rgba(100,239,0,0.1392156862745098)" stroke="rgba(0,0,0,0.1843137254901961)" stroke-width="1"/>
<path d="M0,50 L50.372,4.165 L34.473,-62.057 L95.439,-34.53 L153.507,-70.115 L152.438,-2.019 L204.224,42.211 L139.131,62.236 L119.462,126.171 L80.302,70.452 Z" fill="rgba(120,230,0,0.14607843137254903)" stroke="rgba(0,0,0,0.1843137254901961)" stroke-width="1"/>
<path d="M0,50 L56.222,14.321 L56.222,-52.267 L111.079,-17.454 L174.407,-38.03 L166.061,28.032 L205.201,81.903 L139.792,94.38 L108.492,151.314 L76.414,92.963 Z" fill="rgba(136,222,0,0.15294117647058825)" stroke="rgba(0,0,0,0.1843137254901961)" stroke-width="1"/>
<path d="M0,50 L60.118,25.098 L75.308,-38.175 L123.252,2.773 L188.122,-2.332 L172.932,60.941 L197.833,121.059 L132.963,126.164 L92.015,174.108 L67.114,113.99 Z" fill="rgba(149,213,0,0.15980392156862744)" stroke="rgba(0,0,0,0.1843137254901961)" stroke-width="1"/>
<path d="M0,50 L62.024,36.136 L90.877,-20.491 L131.302,25.363 L194.074,35.305 L172.546,95.102 L182.488,157.873 L118.965,155.877 L70.663,193.344 L52.932,132.313 Z" fill="rgba(161,205,0,0.16666666666666669)" stroke="rgba(0,0,0,0.1843137254901961)" stroke-width="1"/>
<path d="M0,50 L61.969,47.078 L102.259,-0.096 L134.766,49.391 L192.081,73.132 L164.788,128.843 L159.921,190.689 L98.502,181.948 L45.331,207.996 L34.665,146.883 Z" fill="rgba(171,196,0,0.17352941176470588)" stroke="rgba(0,0,0,0.1843137254901961)" stroke-width="1"/>
<path d="M0,50 L60.044,57.585 L109.006,22.012 L133.398,73.848 L182.36,109.421 L149.932,160.52 L131.23,218.079 L72.61,203.028 L17.122,217.275 L13.322,156.874 Z" fill="rgba(179,187,0,0.1803921568627451)" stroke="rgba(0,0,0,0.1843137254901961)" stroke-width="1"/>
<path d="M0,50 L56.396,67.35 L110.908,44.77 L127.189,97.689 L165.509,142.556 L128.617,188.605 L97.787,238.914 L42.592,218.058 L-12.713,220.666 L-9.934,161.727 Z" fill="rgba(187,178,0,0.18725490196078431)" stroke="rgba(0,0,0,0.1843137254901961)" stroke-width="1"/>
<path d="M0,50 L51.222,76.099 L108.001,67.106 L116.362,119.894 L142.461,171.116 L101.811,211.765 L61.161,252.415 L9.94,226.316 L-42.848,217.955 L-33.855,161.176 Z" fill="rgba(193,169,0,0.19411764705882356)" stroke="rgba(0,0,0,0.1843137254901961)" stroke-width="1"/>
<path d="M0,50 L44.759,83.606 L100.557,87.997 L101.366,139.516 L114.432,193.941 L70.751,228.936 L23.028,258.18 L-23.752,227.451 L-71.951,209.238 L-57.182,155.251 Z" fill="rgba(199,159,0,0.20098039215686278)" stroke="rgba(0,0,0,0.1843137254901961)" stroke-width="1"/>
<path d="M0,50 L37.276,89.695 L89.065,106.522 L82.848,155.736 L82.848,210.19 L36.871,239.368 L-14.918,256.195 L-56.875,221.485 L-98.758,194.905 L-78.712,144.275 Z" fill="rgba(204,150,0,0.20784313725490197)" stroke="rgba(0,0,0,0.1843137254901961)" stroke-width="1"/>
<path d="M0,50 L29.064,94.245 L74.2,121.905 L61.618,167.899 L49.26,219.373 L1.721,242.663 L-51.053,246.816 L-87.893,208.8 L-122.136,175.617 L-97.365,128.832 Z" fill="rgba(208,140,0,0.2147058823529412)" stroke="rgba(0,0,0,0.1843137254901961)" stroke-width="1"/>
<path d="M0,50 L20.422,97.191 L56.781,133.551 L38.607,175.55 L15.262,221.367 L-33.118,238.785 L-83.906,230.741 L-115.422,190.11 L-141.144,152.261 L-112.242,109.732 Z" fill="rgba(211,130,0,0.22156862745098038)" stroke="rgba(0,0,0,0.1843137254901961)" stroke-width="1"/>
<path d="M0,50 L11.65,98.525 L37.725,141.075 L14.817,178.457 L-17.593,216.404 L-66.118,228.054 L-112.223,208.957 L-138.298,166.406 L-155.076,125.902 L-122.666,87.954 Z" fill="rgba(214,120,0,0.22843137254901966)" stroke="rgba(0,0,0,0.1843137254901961)" stroke-width="1"/>
<path d="M0,50 L3.038,98.292 L17.991,144.311 L-8.731,176.612 L-47.877,205.053 L-95.883,211.118 L-135.029,182.676 L-155.631,138.894 L-163.487,97.715 L-128.214,64.592 Z" fill="rgba(216,110,0,0.23529411764705885)" stroke="rgba(0,0,0,0.1843137254901961)" stroke-width="1"/>
<path d="M0,50 L-5.143,96.588 L-1.466,143.314 L-31.051,170.234 L-74.354,188.171 L-121.219,188.907 L-151.659,153.267 L-166.841,108.923 L-166.213,68.928 L-128.731,40.785 Z" fill="rgba(216,100,0,0.24215686274509807)" stroke="rgba(0,0,0,0.1843137254901961)" stroke-width="1"/>
<path d="M0,50 L-12.653,93.553 L-19.748,138.349 L-51.243,159.752 L-96.039,166.847 L-141.191,162.579 L-161.782,122.169 L-171.675,77.907 L-163.368,40.744 L-124.33,17.657 Z" fill="rgba(217,90,0,0.2490196078431373)" stroke="rgba(0,0,0,0.1843137254901961)" stroke-width="1"/>
<path d="M0,50 L-19.286,89.367 L-36.061,129.867 L-68.533,145.775 L-112.235,142.336 L-155.162,133.446 L-165.395,90.82 L-170.206,47.247 L-155.326,14.292 L-115.372,-3.747 Z" fill="rgba(216,79,0,0.2558823529411765)" stroke="rgba(0,0,0,0.1843137254901961)" stroke-width="1"/>
<path d="M0,50 L-24.875,84.238 L-49.751,118.476 L-82.313,129.056 L-122.562,115.978 L-162.811,102.901 L-162.811,60.58 L-162.811,18.26 L-142.687,-9.44 L-102.438,-22.517 Z" fill="rgba(215,68,0,0.2627450980392157)" stroke="rgba(0,0,0,0.1843137254901961)" stroke-width="1"/>
<path d="M0,50 L22.451,-19.098 L-36.327,-61.803 L36.327,-61.803 L58.779,-130.902 L81.23,-61.803 L153.884,-61.803 L95.106,-19.098 L117.557,50 L58.779,7.295 Z" fill="rgba(0,127,0,0.5019607843137255)" stroke="rgba(0,0,0,1)" stroke-width="1"/>
<path d="M0,50 L-24.875,84.238 L-49.751,118.476 L-82.313,129.056 L-122.562,115.978 L-162.811,102.901 L-162.811,60.58 L-162.811,18.26 L-142.687,-9.44 L-102.438,-22.517 Z" fill="rgba(160,0,0,0.4470588235294118)" stroke="rgba(0,0,0,1)" stroke-width="1"/>
</svg>