<svg xmlns="http://www.w3.org/2000/svg" viewBox="-292.62 -16.92 585.23 295.2">
<path d="M-133.072,116.434 L-130.985,110.723" fill="rgba(0,0,0,0)" stroke="rgba(255,195,0,1)" stroke-width="9"/>
<path d="M-130.985,110.723 L-126.055,97.231" fill="rgba(0,0,0,0)" stroke="rgba(255,186,0,1)" stroke-width="9"/>
<path d="M-126.055,97.231 L-140.443,82.869" fill="rgba(0,0,0,0)" stroke="rgba(255,176,0,1)" stroke-width="9"/>
<path d="M-140.443,82.869 L-154.776,83.822" fill="rgba(0,0,0,0)" stroke="rgba(255,167,0,1)" stroke-width="9"/>
<path d="M-154.776,83.822 L-178.072,85.37" fill="rgba(0,0,0,0)" stroke="rgba(255,158,0,1)" stroke-width="9"/>
<path d="M-178.072,85.37 L-194.02,109.912" fill="rgba(0,0,0,0)" stroke="rgba(255,149,0,1)" stroke-width="9"/>
<path d="M-194.02,109.912 L-187.318,132.277" fill="rgba(0,0,0,0)" stroke="rgba(255,139,0,1)" stroke-width="9"/>
<path d="M-187.318,132.277 L-178.002,163.365" fill="rgba(0,0,0,0)" stroke="rgba(255,130,0,1)" stroke-width="9"/>
<path d="M-178.002,163.365 L-141.36,178.494" fill="rgba(0,0,0,0)" stroke="rgba(255,121,0,1)" stroke-width="9"/>
<path d="M-141.36,178.494 L-112.497,163.655" fill="rgba(0,0,0,0)" stroke="rgba(255,111,0,1)" stroke-width="9"/>
<path d="M-112.497,163.655 L-75.497,144.634" fill="rgba(0,0,0,0)" stroke="rgba(255,102,0,1)" stroke-width="9"/>
<path d="M-75.497,144.634 L-64.448,95.54" fill="rgba(0,0,0,0)" stroke="rgba(255,93,0,1)" stroke-width="9"/>
<path d="M-64.448,95.54 L-89.395,62.247" fill="rgba(0,0,0,0)" stroke="rgba(255,84,0,1)" stroke-width="9"/>
<path d="M-89.395,62.247 L-119.84,21.618" fill="rgba(0,0,0,0)" stroke="rgba(255,74,0,1)" stroke-width="9"/>
<path d="M-119.84,21.618 L-180.853,18" fill="rgba(0,0,0,0)" stroke="rgba(255,65,0,1)" stroke-width="9"/>
<path d="M-180.853,18 L-216.088,54.553" fill="rgba(0,0,0,0)" stroke="rgba(255,56,0,1)" stroke-width="9"/>
<path d="M-216.088,54.553 L-257.693,97.715" fill="rgba(0,0,0,0)" stroke="rgba(255,46,0,1)" stroke-width="9"/>
<path d="M-257.693,97.715 L-250.634,169.345" fill="rgba(0,0,0,0)" stroke="rgba(255,37,0,1)" stroke-width="9"/>
<path d="M-250.634,169.345 L-201.517,203.717" fill="rgba(0,0,0,0)" stroke="rgba(255,28,0,1)" stroke-width="9"/>
<path d="M-201.517,203.717 L-144.874,243.356" fill="rgba(0,0,0,0)" stroke="rgba(255,19,0,1)" stroke-width="9"/>
<path d="M-144.874,243.356 L-64.641,222.631" fill="rgba(0,0,0,0)" stroke="rgba(255,9,0,1)" stroke-width="9"/>
<path d="M-64.641,222.631 L-34.148,160.584" fill="rgba(0,0,0,0)" stroke="rgba(255,0,0,1)" stroke-width="9"/>
<path d="M-36.368,154.962 L-32.423,146.873 L-45.905,140.297 L-12.597,116.489 L-10.852,157.394 L-24.334,150.818 L-28.279,158.907 Z" fill="rgba(255,0,0,1)"/>
<path d="M257.693,160.584 L227.2,222.631" fill="rgba(0,0,0,0)" stroke="rgba(255,195,0,1)" stroke-width="9"/>
<path d="M227.2,222.631 L146.968,243.356" fill="rgba(0,0,0,0)" stroke="rgba(255,186,0,1)" stroke-width="9"/>
<path d="M146.968,243.356 L90.325,203.717" fill="rgba(0,0,0,0)" stroke="rgba(255,176,0,1)" stroke-width="9"/>
<path d="M90.325,203.717 L41.208,169.345" fill="rgba(0,0,0,0)" stroke="rgba(255,167,0,1)" stroke-width="9"/>
<path d="M41.208,169.345 L34.148,97.715" fill="rgba(0,0,0,0)" stroke="rgba(255,158,0,1)" stroke-width="9"/>
<path d="M34.148,97.715 L75.754,54.553" fill="rgba(0,0,0,0)" stroke="rgba(255,149,0,1)" stroke-width="9"/>
<path d="M75.754,54.553 L110.989,18" fill="rgba(0,0,0,0)" stroke="rgba(255,139,0,1)" stroke-width="9"/>
<path d="M110.989,18 L172.002,21.618" fill="rgba(0,0,0,0)" stroke="rgba(255,130,0,1)" stroke-width="9"/>
<path d="M172.002,21.618 L202.447,62.247" fill="rgba(0,0,0,0)" stroke="rgba(255,121,0,1)" stroke-width="9"/>
<path d="M202.447,62.247 L227.394,95.54" fill="rgba(0,0,0,0)" stroke="rgba(255,111,0,1)" stroke-width="9"/>
<path d="M227.394,95.54 L216.345,144.634" fill="rgba(0,0,0,0)" stroke="rgba(255,102,0,1)" stroke-width="9"/>
<path d="M216.345,144.634 L179.345,163.655" fill="rgba(0,0,0,0)" stroke="rgba(255,93,0,1)" stroke-width="9"/>
<path d="M179.345,163.655 L150.482,178.494" fill="rgba(0,0,0,0)" stroke="rgba(255,84,0,1)" stroke-width="9"/>
<path d="M150.482,178.494 L113.84,163.365" fill="rgba(0,0,0,0)" stroke="rgba(255,74,0,1)" stroke-width="9"/>
<path d="M113.84,163.365 L104.524,132.277" fill="rgba(0,0,0,0)" stroke="rgba(255,65,0,1)" stroke-width="9"/>
<path d="M104.524,132.277 L97.822,109.912" fill="rgba(0,0,0,0)" stroke="rgba(255,56,0,1)" stroke-width="9"/>
<path d="M97.822,109.912 L113.77,85.37" fill="rgba(0,0,0,0)" stroke="rgba(255,46,0,1)" stroke-width="9"/>
<path d="M113.77,85.37 L137.066,83.822" fill="rgba(0,0,0,0)" stroke="rgba(255,37,0,1)" stroke-width="9"/>
<path d="M137.066,83.822 L151.399,82.869" fill="rgba(0,0,0,0)" stroke="rgba(255,28,0,1)" stroke-width="9"/>
<path d="M151.399,82.869 L165.787,97.231" fill="rgba(0,0,0,0)" stroke="rgba(255,19,0,1)" stroke-width="9"/>
<path d="M165.787,97.231 L160.857,110.723" fill="rgba(0,0,0,0)" stroke="rgba(255,9,0,1)" stroke-width="9"/>
<path d="M160.857,110.723 L158.77,116.434" fill="rgba(0,0,0,0)" stroke="rgba(255,0,0,1)" stroke-width="9"/>
<path d="M165.347,111.474 L162.269,119.931 L176.364,125.061 L145.727,152.221 L139.716,111.723 L153.812,116.853 L156.89,108.396 Z" fill="rgba(255,0,0,1)"/>
</svg>