<svg xmlns="http://www.w3.org/2000/svg" viewBox="-356.3 -41.75 712.59 263.49">
<path d="M-314.55,45 L-224.55,45 L-224.55,135 L-314.55,135 Z" fill="rgba(0,0,214,0.1411764705882353)" stroke="rgba(195,0,0,1)" stroke-width="8"/>
<path d="M-165.45,45 C-165.45,69.853 -185.597,90 -210.45,90 C-235.303,90 -255.45,69.853 -255.45,45 C-255.45,20.147 -235.303,0 -210.45,0 C-185.597,0 -165.45,20.147 -165.45,45 Z" fill="rgba(246,161,73,0.4588235294117647)" stroke="rgba(0,195,195,1)" stroke-width="24"/>
<path d="M-269.55,90 L-179.55,180" fill="rgba(0,0,0,1)" stroke="rgba(0,129,0,1)" stroke-width="16"/>
<path d="M-95.45,45 L-5.45,45 L-5.45,135 L-95.45,135 Z" fill="rgba(0,0,214,0.1411764705882353)" stroke="rgba(195,0,0,1)" stroke-width="1.2"/>
<path d="M154.55,45 C154.55,69.853 134.403,90 109.55,90 C84.697,90 64.55,69.853 64.55,45 C64.55,20.147 84.697,0 109.55,0 C134.403,0 154.55,20.147 154.55,45 Z" fill="rgba(246,161,73,0.4588235294117647)" stroke="rgba(0,195,195,1)" stroke-width="3.5999999999999996"/>
<path d="M224.55,90 L314.55,180" fill="rgba(0,0,0,1)" stroke="rgba(0,129,0,1)" stroke-width="2.4"/>
</svg>