<svg xmlns="http://www.w3.org/2000/svg" viewBox="-261.6 -146.6 523.2 393.2">
<path d="M-230,-85 L-30,-85 L-30,215 L-230,215 Z" fill="rgba(226,226,226,1)" stroke="rgba(0,0,0,1)" stroke-width="1"/>
<path d="M-230,-66 L-30,-66 L-30,-46 L-230,-46 Z" fill="rgba(0,0,0,1)"/>
<path d="M-140,-115 L-120,-115 L-120,-65 L-140,-65 Z" fill="rgba(0,0,0,1)"/>
<path d="M-41.192,34.727 C-41.192,36.384 -42.535,37.727 -44.192,37.727 C-45.849,37.727 -47.192,36.384 -47.192,34.727 C-47.192,33.071 -45.849,31.727 -44.192,31.727 C-42.535,31.727 -41.192,33.071 -41.192,34.727 Z" fill="rgba(0,229,255,1)" stroke="rgba(22,22,22,1)" stroke-width="0.5"/>
<path d="M-51.05,56.825 C-51.05,58.482 -52.393,59.825 -54.05,59.825 C-55.707,59.825 -57.05,58.482 -57.05,56.825 C-57.05,55.168 -55.707,53.825 -54.05,53.825 C-52.393,53.825 -51.05,55.168 -51.05,56.825 Z" fill="rgba(0,229,255,1)" stroke="rgba(22,22,22,1)" stroke-width="0.5"/>
<path d="M-43.687,8.048 C-43.687,9.704 -45.03,11.048 -46.687,11.048 C-48.344,11.048 -49.687,9.704 -49.687,8.048 C-49.687,6.391 -48.344,5.048 -46.687,5.048 C-45.03,5.048 -43.687,6.391 -43.687,8.048 Z" fill="rgba(0,229,255,1)" stroke="rgba(22,22,22,1)" stroke-width="0.5"/>
<path d="M-40.967,87.132 C-40.967,88.789 -42.31,90.132 -43.967,90.132 C-45.624,90.132 -46.967,88.789 -46.967,87.132 C-46.967,85.475 -45.624,84.132 -43.967,84.132 C-42.31,84.132 -40.967,85.475 -40.967,87.132 Z" fill="rgba(0,229,255,1)" stroke="rgba(22,22,22,1)" stroke-width="0.5"/>
<path d="M-72.406,29.467 C-72.406,31.124 -73.749,32.467 -75.406,32.467 C-77.062,32.467 -78.406,31.124 -78.406,29.467 C-78.406,27.81 -77.062,26.467 -75.406,26.467 C-73.749,26.467 -72.406,27.81 -72.406,29.467 Z" fill="rgba(0,229,255,1)" stroke="rgba(22,22,22,1)" stroke-width="0.5"/>
<path d="M-58.388,108.916 C-58.388,110.573 -59.731,111.916 -61.388,111.916 C-63.045,111.916 -64.388,110.573 -64.388,108.916 C-64.388,107.259 -63.045,105.916 -61.388,105.916 C-59.731,105.916 -58.388,107.259 -58.388,108.916 Z" fill="rgba(0,229,255,1)" stroke="rgba(22,22,22,1)" stroke-width="0.5"/>
<path d="M-100.558,29.529 C-100.558,31.185 -101.901,32.529 -103.558,32.529 C-105.214,32.529 -106.558,31.185 -106.558,29.529 C-106.558,27.872 -105.214,26.529 -103.558,26.529 C-101.901,26.529 -100.558,27.872 -100.558,29.529 Z" fill="rgba(0,229,255,1)" stroke="rgba(22,22,22,1)" stroke-width="0.5"/>
<path d="M-56.881,76.007 C-56.881,77.664 -58.224,79.007 -59.881,79.007 C-61.538,79.007 -62.881,77.664 -62.881,76.007 C-62.881,74.35 -61.538,73.007 -59.881,73.007 C-58.224,73.007 -56.881,74.35 -56.881,76.007 Z" fill="rgba(0,229,255,1)" stroke="rgba(22,22,22,1)" stroke-width="0.5"/>
<path d="M-32.47,72.943 C-32.47,74.6 -33.813,75.943 -35.47,75.943 C-37.127,75.943 -38.47,74.6 -38.47,72.943 C-38.47,71.286 -37.127,69.943 -35.47,69.943 C-33.813,69.943 -32.47,71.286 -32.47,72.943 Z" fill="rgba(0,229,255,1)" stroke="rgba(22,22,22,1)" stroke-width="0.5"/>
<path d="M-55.492,21.051 C-55.492,22.708 -56.835,24.051 -58.492,24.051 C-60.148,24.051 -61.492,22.708 -61.492,21.051 C-61.492,19.394 -60.148,18.051 -58.492,18.051 C-56.835,18.051 -55.492,19.394 -55.492,21.051 Z" fill="rgba(0,229,255,1)" stroke="rgba(22,22,22,1)" stroke-width="0.5"/>
<path d="M-75.248,10.658 C-75.248,12.315 -76.591,13.658 -78.248,13.658 C-79.905,13.658 -81.248,12.315 -81.248,10.658 C-81.248,9.001 -79.905,7.658 -78.248,7.658 C-76.591,7.658 -75.248,9.001 -75.248,10.658 Z" fill="rgba(0,229,255,1)" stroke="rgba(22,22,22,1)" stroke-width="0.5"/>
<path d="M-57.03,37.718 C-57.03,39.375 -58.373,40.718 -60.03,40.718 C-61.687,40.718 -63.03,39.375 -63.03,37.718 C-63.03,36.061 -61.687,34.718 -60.03,34.718 C-58.373,34.718 -57.03,36.061 -57.03,37.718 Z" fill="rgba(0,229,255,1)" stroke="rgba(22,22,22,1)" stroke-width="0.5"/>
<path d="M-36.815,104.555 C-36.815,106.212 -38.159,107.555 -39.815,107.555 C-41.472,107.555 -42.815,106.212 -42.815,104.555 C-42.815,102.898 -41.472,101.555 -39.815,101.555 C-38.159,101.555 -36.815,102.898 -36.815,104.555 Z" fill="rgba(0,229,255,1)" stroke="rgba(22,22,22,1)" stroke-width="0.5"/>
<path d="M-61.195,93.114 C-61.195,94.771 -62.538,96.114 -64.195,96.114 C-65.852,96.114 -67.195,94.771 -67.195,93.114 C-67.195,91.458 -65.852,90.114 -64.195,90.114 C-62.538,90.114 -61.195,91.458 -61.195,93.114 Z" fill="rgba(0,229,255,1)" stroke="rgba(22,22,22,1)" stroke-width="0.5"/>
<path d="M-48.77,124.223 C-48.77,125.88 -50.114,127.223 -51.77,127.223 C-53.427,127.223 -54.77,125.88 -54.77,124.223 C-54.77,122.566 -53.427,121.223 -51.77,121.223 C-50.114,121.223 -48.77,122.566 -48.77,124.223 Z" fill="rgba(0,229,255,1)" stroke="rgba(22,22,22,1)" stroke-width="0.5"/>
<path d="M-31.075,126.655 C-31.075,128.312 -32.418,129.655 -34.075,129.655 C-35.731,129.655 -37.075,128.312 -37.075,126.655 C-37.075,124.999 -35.731,123.655 -34.075,123.655 C-32.418,123.655 -31.075,124.999 -31.075,126.655 Z" fill="rgba(0,229,255,1)" stroke="rgba(22,22,22,1)" stroke-width="0.5"/>
<path d="M-60.722,-15.008 C-60.722,-13.351 -62.065,-12.008 -63.722,-12.008 C-65.378,-12.008 -66.722,-13.351 -66.722,-15.008 C-66.722,-16.665 -65.378,-18.008 -63.722,-18.008 C-62.065,-18.008 -60.722,-16.665 -60.722,-15.008 Z" fill="rgba(0,229,255,1)" stroke="rgba(22,22,22,1)" stroke-width="0.5"/>
<path d="M-34.18,54.921 C-34.18,56.578 -35.523,57.921 -37.18,57.921 C-38.837,57.921 -40.18,56.578 -40.18,54.921 C-40.18,53.264 -38.837,51.921 -37.18,51.921 C-35.523,51.921 -34.18,53.264 -34.18,54.921 Z" fill="rgba(0,229,255,1)" stroke="rgba(22,22,22,1)" stroke-width="0.5"/>
<path d="M-82.557,95.104 C-82.557,96.761 -83.9,98.104 -85.557,98.104 C-87.214,98.104 -88.557,96.761 -88.557,95.104 C-88.557,93.447 -87.214,92.104 -85.557,92.104 C-83.9,92.104 -82.557,93.447 -82.557,95.104 Z" fill="rgba(0,229,255,1)" stroke="rgba(22,22,22,1)" stroke-width="0.5"/>
<path d="M-81.269,74.447 C-81.269,76.104 -82.612,77.447 -84.269,77.447 C-85.926,77.447 -87.269,76.104 -87.269,74.447 C-87.269,72.79 -85.926,71.447 -84.269,71.447 C-82.612,71.447 -81.269,72.79 -81.269,74.447 Z" fill="rgba(0,229,255,1)" stroke="rgba(22,22,22,1)" stroke-width="0.5"/>
<path d="M-75.155,56.351 C-75.155,58.007 -76.498,59.351 -78.155,59.351 C-79.812,59.351 -81.155,58.007 -81.155,56.351 C-81.155,54.694 -79.812,53.351 -78.155,53.351 C-76.498,53.351 -75.155,54.694 -75.155,56.351 Z" fill="rgba(0,229,255,1)" stroke="rgba(22,22,22,1)" stroke-width="0.5"/>
<path d="M-113.861,11.951 C-113.861,13.608 -115.204,14.951 -116.861,14.951 C-118.518,14.951 -119.861,13.608 -119.861,11.951 C-119.861,10.294 -118.518,8.951 -116.861,8.951 C-115.204,8.951 -113.861,10.294 -113.861,11.951 Z" fill="rgba(0,229,255,1)" stroke="rgba(22,22,22,1)" stroke-width="0.5"/>
<path d="M-99.175,67.81 C-99.175,69.467 -100.518,70.81 -102.175,70.81 C-103.832,70.81 -105.175,69.467 -105.175,67.81 C-105.175,66.153 -103.832,64.81 -102.175,64.81 C-100.518,64.81 -99.175,66.153 -99.175,67.81 Z" fill="rgba(0,229,255,1)" stroke="rgba(22,22,22,1)" stroke-width="0.5"/>
<path d="M-78.737,111.131 C-78.737,112.788 -80.08,114.131 -81.737,114.131 C-83.394,114.131 -84.737,112.788 -84.737,111.131 C-84.737,109.474 -83.394,108.131 -81.737,108.131 C-80.08,108.131 -78.737,109.474 -78.737,111.131 Z" fill="rgba(0,229,255,1)" stroke="rgba(22,22,22,1)" stroke-width="0.5"/>
<path d="M-92.865,44.11 C-92.865,45.766 -94.208,47.11 -95.865,47.11 C-97.522,47.11 -98.865,45.766 -98.865,44.11 C-98.865,42.453 -97.522,41.11 -95.865,41.11 C-94.208,41.11 -92.865,42.453 -92.865,44.11 Z" fill="rgba(0,229,255,1)" stroke="rgba(22,22,22,1)" stroke-width="0.5"/>
<path d="M-101.643,90.603 C-101.643,92.26 -102.986,93.603 -104.643,93.603 C-106.3,93.603 -107.643,92.26 -107.643,90.603 C-107.643,88.946 -106.3,87.603 -104.643,87.603 C-102.986,87.603 -101.643,88.946 -101.643,90.603 Z" fill="rgba(0,229,255,1)" stroke="rgba(22,22,22,1)" stroke-width="0.5"/>
<path d="M-116.684,80.761 C-116.684,82.418 -118.027,83.761 -119.684,83.761 C-121.341,83.761 -122.684,82.418 -122.684,80.761 C-122.684,79.104 -121.341,77.761 -119.684,77.761 C-118.027,77.761 -116.684,79.104 -116.684,80.761 Z" fill="rgba(0,229,255,1)" stroke="rgba(22,22,22,1)" stroke-width="0.5"/>
<path d="M-94.956,7.091 C-94.956,8.748 -96.299,10.091 -97.956,10.091 C-99.612,10.091 -100.956,8.748 -100.956,7.091 C-100.956,5.434 -99.612,4.091 -97.956,4.091 C-96.299,4.091 -94.956,5.434 -94.956,7.091 Z" fill="rgba(0,229,255,1)" stroke="rgba(22,22,22,1)" stroke-width="0.5"/>
<path d="M-45.696,144.105 C-45.696,145.761 -47.039,147.105 -48.696,147.105 C-50.353,147.105 -51.696,145.761 -51.696,144.105 C-51.696,142.448 -50.353,141.105 -48.696,141.105 C-47.039,141.105 -45.696,142.448 -45.696,144.105 Z" fill="rgba(0,229,255,1)" stroke="rgba(22,22,22,1)" stroke-width="0.5"/>
<path d="M-67.487,124.194 C-67.487,125.851 -68.83,127.194 -70.487,127.194 C-72.143,127.194 -73.487,125.851 -73.487,124.194 C-73.487,122.537 -72.143,121.194 -70.487,121.194 C-68.83,121.194 -67.487,122.537 -67.487,124.194 Z" fill="rgba(0,229,255,1)" stroke="rgba(22,22,22,1)" stroke-width="0.5"/>
<path d="M-64.46,169.742 C-64.46,171.399 -65.803,172.742 -67.46,172.742 C-69.117,172.742 -70.46,171.399 -70.46,169.742 C-70.46,168.085 -69.117,166.742 -67.46,166.742 C-65.803,166.742 -64.46,168.085 -64.46,169.742 Z" fill="rgba(0,229,255,1)" stroke="rgba(22,22,22,1)" stroke-width="0.5"/>
<path d="M-129.24,64.466 C-129.24,66.123 -130.583,67.466 -132.24,67.466 C-133.896,67.466 -135.24,66.123 -135.24,64.466 C-135.24,62.809 -133.896,61.466 -132.24,61.466 C-130.583,61.466 -129.24,62.809 -129.24,64.466 Z" fill="rgba(0,229,255,1)" stroke="rgba(22,22,22,1)" stroke-width="0.5"/>
<path d="M-138.05,7.634 C-138.05,9.291 -139.393,10.634 -141.05,10.634 C-142.707,10.634 -144.05,9.291 -144.05,7.634 C-144.05,5.977 -142.707,4.634 -141.05,4.634 C-139.393,4.634 -138.05,5.977 -138.05,7.634 Z" fill="rgba(0,229,255,1)" stroke="rgba(22,22,22,1)" stroke-width="0.5"/>
<path d="M-142.372,80.024 C-142.372,81.681 -143.715,83.024 -145.372,83.024 C-147.029,83.024 -148.372,81.681 -148.372,80.024 C-148.372,78.367 -147.029,77.024 -145.372,77.024 C-143.715,77.024 -142.372,78.367 -142.372,80.024 Z" fill="rgba(0,229,255,1)" stroke="rgba(22,22,22,1)" stroke-width="0.5"/>
<path d="M-95.565,106.403 C-95.565,108.06 -96.908,109.403 -98.565,109.403 C-100.222,109.403 -101.565,108.06 -101.565,106.403 C-101.565,104.746 -100.222,103.403 -98.565,103.403 C-96.908,103.403 -95.565,104.746 -95.565,106.403 Z" fill="rgba(0,229,255,1)" stroke="rgba(22,22,22,1)" stroke-width="0.5"/>
<path d="M-119.567,48.468 C-119.567,50.124 -120.91,51.468 -122.567,51.468 C-124.224,51.468 -125.567,50.124 -125.567,48.468 C-125.567,46.811 -124.224,45.468 -122.567,45.468 C-120.91,45.468 -119.567,46.811 -119.567,48.468 Z" fill="rgba(0,229,255,1)" stroke="rgba(22,22,22,1)" stroke-width="0.5"/>
<path d="M-160.769,81.62 C-160.769,83.277 -162.112,84.62 -163.769,84.62 C-165.426,84.62 -166.769,83.277 -166.769,81.62 C-166.769,79.963 -165.426,78.62 -163.769,78.62 C-162.112,78.62 -160.769,79.963 -160.769,81.62 Z" fill="rgba(0,229,255,1)" stroke="rgba(22,22,22,1)" stroke-width="0.5"/>
<path d="M-140.722,26.083 C-140.722,27.74 -142.065,29.083 -143.722,29.083 C-145.379,29.083 -146.722,27.74 -146.722,26.083 C-146.722,24.426 -145.379,23.083 -143.722,23.083 C-142.065,23.083 -140.722,24.426 -140.722,26.083 Z" fill="rgba(0,229,255,1)" stroke="rgba(22,22,22,1)" stroke-width="0.5"/>
<path d="M-146.262,60.639 C-146.262,62.296 -147.606,63.639 -149.262,63.639 C-150.919,63.639 -152.262,62.296 -152.262,60.639 C-152.262,58.982 -150.919,57.639 -149.262,57.639 C-147.606,57.639 -146.262,58.982 -146.262,60.639 Z" fill="rgba(0,229,255,1)" stroke="rgba(22,22,22,1)" stroke-width="0.5"/>
<path d="M-161.775,56.146 C-161.775,57.802 -163.118,59.146 -164.775,59.146 C-166.432,59.146 -167.775,57.802 -167.775,56.146 C-167.775,54.489 -166.432,53.146 -164.775,53.146 C-163.118,53.146 -161.775,54.489 -161.775,56.146 Z" fill="rgba(0,229,255,1)" stroke="rgba(22,22,22,1)" stroke-width="0.5"/>
<path d="M-137.994,43.178 C-137.994,44.835 -139.338,46.178 -140.994,46.178 C-142.651,46.178 -143.994,44.835 -143.994,43.178 C-143.994,41.522 -142.651,40.178 -140.994,40.178 C-139.338,40.178 -137.994,41.522 -137.994,43.178 Z" fill="rgba(0,229,255,1)" stroke="rgba(22,22,22,1)" stroke-width="0.5"/>
<path d="M-87.846,124.692 C-87.846,126.349 -89.189,127.692 -90.846,127.692 C-92.503,127.692 -93.846,126.349 -93.846,124.692 C-93.846,123.035 -92.503,121.692 -90.846,121.692 C-89.189,121.692 -87.846,123.035 -87.846,124.692 Z" fill="rgba(0,229,255,1)" stroke="rgba(22,22,22,1)" stroke-width="0.5"/>
<path d="M-100.959,-13.829 C-100.959,-12.173 -102.302,-10.829 -103.959,-10.829 C-105.615,-10.829 -106.959,-12.173 -106.959,-13.829 C-106.959,-15.486 -105.615,-16.829 -103.959,-16.829 C-102.302,-16.829 -100.959,-15.486 -100.959,-13.829 Z" fill="rgba(0,229,255,1)" stroke="rgba(22,22,22,1)" stroke-width="0.5"/>
<path d="M-113.03,104.513 C-113.03,106.17 -114.373,107.513 -116.03,107.513 C-117.687,107.513 -119.03,106.17 -119.03,104.513 C-119.03,102.856 -117.687,101.513 -116.03,101.513 C-114.373,101.513 -113.03,102.856 -113.03,104.513 Z" fill="rgba(0,229,255,1)" stroke="rgba(22,22,22,1)" stroke-width="0.5"/>
<path d="M-182.267,74.292 C-182.267,75.949 -183.61,77.292 -185.267,77.292 C-186.924,77.292 -188.267,75.949 -188.267,74.292 C-188.267,72.635 -186.924,71.292 -185.267,71.292 C-183.61,71.292 -182.267,72.635 -182.267,74.292 Z" fill="rgba(0,229,255,1)" stroke="rgba(22,22,22,1)" stroke-width="0.5"/>
<path d="M-123.086,118.701 C-123.086,120.358 -124.429,121.701 -126.086,121.701 C-127.743,121.701 -129.086,120.358 -129.086,118.701 C-129.086,117.045 -127.743,115.701 -126.086,115.701 C-124.429,115.701 -123.086,117.045 -123.086,118.701 Z" fill="rgba(0,229,255,1)" stroke="rgba(22,22,22,1)" stroke-width="0.5"/>
<path d="M-155.04,38.706 C-155.04,40.363 -156.383,41.706 -158.04,41.706 C-159.697,41.706 -161.04,40.363 -161.04,38.706 C-161.04,37.049 -159.697,35.706 -158.04,35.706 C-156.383,35.706 -155.04,37.049 -155.04,38.706 Z" fill="rgba(0,229,255,1)" stroke="rgba(22,22,22,1)" stroke-width="0.5"/>
<path d="M-151.709,102.698 C-151.709,104.355 -153.052,105.698 -154.709,105.698 C-156.366,105.698 -157.709,104.355 -157.709,102.698 C-157.709,101.041 -156.366,99.698 -154.709,99.698 C-153.052,99.698 -151.709,101.041 -151.709,102.698 Z" fill="rgba(0,229,255,1)" stroke="rgba(22,22,22,1)" stroke-width="0.5"/>
<path d="M-159.8,22.846 C-159.8,24.503 -161.143,25.846 -162.8,25.846 C-164.457,25.846 -165.8,24.503 -165.8,22.846 C-165.8,21.189 -164.457,19.846 -162.8,19.846 C-161.143,19.846 -159.8,21.189 -159.8,22.846 Z" fill="rgba(0,229,255,1)" stroke="rgba(22,22,22,1)" stroke-width="0.5"/>
<path d="M-34.052,-16.759 C-34.052,-15.102 -35.395,-13.759 -37.052,-13.759 C-38.709,-13.759 -40.052,-15.102 -40.052,-16.759 C-40.052,-18.416 -38.709,-19.759 -37.052,-19.759 C-35.395,-19.759 -34.052,-18.416 -34.052,-16.759 Z" fill="rgba(0,229,255,1)" stroke="rgba(22,22,22,1)" stroke-width="0.5"/>
<path d="M-120.376,30.784 C-120.376,32.441 -121.719,33.784 -123.376,33.784 C-125.032,33.784 -126.376,32.441 -126.376,30.784 C-126.376,29.127 -125.032,27.784 -123.376,27.784 C-121.719,27.784 -120.376,29.127 -120.376,30.784 Z" fill="rgba(0,229,255,1)" stroke="rgba(22,22,22,1)" stroke-width="0.5"/>
<path d="M-131.061,-10.904 C-131.061,-9.247 -132.404,-7.904 -134.061,-7.904 C-135.718,-7.904 -137.061,-9.247 -137.061,-10.904 C-137.061,-12.561 -135.718,-13.904 -134.061,-13.904 C-132.404,-13.904 -131.061,-12.561 -131.061,-10.904 Z" fill="rgba(0,229,255,1)" stroke="rgba(22,22,22,1)" stroke-width="0.5"/>
<path d="M-156.078,0.148 C-156.078,1.805 -157.421,3.148 -159.078,3.148 C-160.735,3.148 -162.078,1.805 -162.078,0.148 C-162.078,-1.508 -160.735,-2.852 -159.078,-2.852 C-157.421,-2.852 -156.078,-1.508 -156.078,0.148 Z" fill="rgba(0,229,255,1)" stroke="rgba(22,22,22,1)" stroke-width="0.5"/>
<path d="M-129.858,98.762 C-129.858,100.418 -131.202,101.762 -132.858,101.762 C-134.515,101.762 -135.858,100.418 -135.858,98.762 C-135.858,97.105 -134.515,95.762 -132.858,95.762 C-131.202,95.762 -129.858,97.105 -129.858,98.762 Z" fill="rgba(0,229,255,1)" stroke="rgba(22,22,22,1)" stroke-width="0.5"/>
<path d="M-65.639,146.488 C-65.639,148.145 -66.982,149.488 -68.639,149.488 C-70.296,149.488 -71.639,148.145 -71.639,146.488 C-71.639,144.831 -70.296,143.488 -68.639,143.488 C-66.982,143.488 -65.639,144.831 -65.639,146.488 Z" fill="rgba(0,229,255,1)" stroke="rgba(22,22,22,1)" stroke-width="0.5"/>
<path d="M-110.417,-35.922 C-110.417,-34.265 -111.76,-32.922 -113.417,-32.922 C-115.073,-32.922 -116.417,-34.265 -116.417,-35.922 C-116.417,-37.579 -115.073,-38.922 -113.417,-38.922 C-111.76,-38.922 -110.417,-37.579 -110.417,-35.922 Z" fill="rgba(0,229,255,1)" stroke="rgba(22,22,22,1)" stroke-width="0.5"/>
<path d="M-145.029,-23.254 C-145.029,-21.597 -146.373,-20.254 -148.029,-20.254 C-149.686,-20.254 -151.029,-21.597 -151.029,-23.254 C-151.029,-24.911 -149.686,-26.254 -148.029,-26.254 C-146.373,-26.254 -145.029,-24.911 -145.029,-23.254 Z" fill="rgba(0,229,255,1)" stroke="rgba(22,22,22,1)" stroke-width="0.5"/>
<path d="M-91.408,141.654 C-91.408,143.311 -92.752,144.654 -94.408,144.654 C-96.065,144.654 -97.408,143.311 -97.408,141.654 C-97.408,139.997 -96.065,138.654 -94.408,138.654 C-92.752,138.654 -91.408,139.997 -91.408,141.654 Z" fill="rgba(0,229,255,1)" stroke="rgba(22,22,22,1)" stroke-width="0.5"/>
<path d="M-185.378,23.081 C-185.378,24.738 -186.721,26.081 -188.378,26.081 C-190.035,26.081 -191.378,24.738 -191.378,23.081 C-191.378,21.424 -190.035,20.081 -188.378,20.081 C-186.721,20.081 -185.378,21.424 -185.378,23.081 Z" fill="rgba(0,229,255,1)" stroke="rgba(22,22,22,1)" stroke-width="0.5"/>
<path d="M-142.002,118.333 C-142.002,119.99 -143.345,121.333 -145.002,121.333 C-146.659,121.333 -148.002,119.99 -148.002,118.333 C-148.002,116.676 -146.659,115.333 -145.002,115.333 C-143.345,115.333 -142.002,116.676 -142.002,118.333 Z" fill="rgba(0,229,255,1)" stroke="rgba(22,22,22,1)" stroke-width="0.5"/>
<path d="M-79.527,-20.085 C-79.527,-18.428 -80.87,-17.085 -82.527,-17.085 C-84.183,-17.085 -85.527,-18.428 -85.527,-20.085 C-85.527,-21.741 -84.183,-23.085 -82.527,-23.085 C-80.87,-23.085 -79.527,-21.741 -79.527,-20.085 Z" fill="rgba(0,229,255,1)" stroke="rgba(22,22,22,1)" stroke-width="0.5"/>
<path d="M-190.764,58.088 C-190.764,59.745 -192.107,61.088 -193.764,61.088 C-195.42,61.088 -196.764,59.745 -196.764,58.088 C-196.764,56.431 -195.42,55.088 -193.764,55.088 C-192.107,55.088 -190.764,56.431 -190.764,58.088 Z" fill="rgba(0,229,255,1)" stroke="rgba(22,22,22,1)" stroke-width="0.5"/>
<path d="M-181.307,39.341 C-181.307,40.998 -182.65,42.341 -184.307,42.341 C-185.964,42.341 -187.307,40.998 -187.307,39.341 C-187.307,37.684 -185.964,36.341 -184.307,36.341 C-182.65,36.341 -181.307,37.684 -181.307,39.341 Z" fill="rgba(0,229,255,1)" stroke="rgba(22,22,22,1)" stroke-width="0.5"/>
<path d="M-130.822,-31.587 C-130.822,-29.93 -132.165,-28.587 -133.822,-28.587 C-135.478,-28.587 -136.822,-29.93 -136.822,-31.587 C-136.822,-33.244 -135.478,-34.587 -133.822,-34.587 C-132.165,-34.587 -130.822,-33.244 -130.822,-31.587 Z" fill="rgba(0,229,255,1)" stroke="rgba(22,22,22,1)" stroke-width="0.5"/>
<path d="M-189.238,7.467 C-189.238,9.124 -190.582,10.467 -192.238,10.467 C-193.895,10.467 -195.238,9.124 -195.238,7.467 C-195.238,5.81 -193.895,4.467 -192.238,4.467 C-190.582,4.467 -189.238,5.81 -189.238,7.467 Z" fill="rgba(0,229,255,1)" stroke="rgba(22,22,22,1)" stroke-width="0.5"/>
<path d="M-202.73,17.491 C-202.73,19.148 -204.073,20.491 -205.73,20.491 C-207.387,20.491 -208.73,19.148 -208.73,17.491 C-208.73,15.834 -207.387,14.491 -205.73,14.491 C-204.073,14.491 -202.73,15.834 -202.73,17.491 Z" fill="rgba(0,229,255,1)" stroke="rgba(22,22,22,1)" stroke-width="0.5"/>
<path d="M-40.01,177.978 C-40.01,179.635 -41.353,180.978 -43.01,180.978 C-44.667,180.978 -46.01,179.635 -46.01,177.978 C-46.01,176.321 -44.667,174.978 -43.01,174.978 C-41.353,174.978 -40.01,176.321 -40.01,177.978 Z" fill="rgba(0,229,255,1)" stroke="rgba(22,22,22,1)" stroke-width="0.5"/>
<path d="M-198.155,40.546 C-198.155,42.203 -199.498,43.546 -201.155,43.546 C-202.812,43.546 -204.155,42.203 -204.155,40.546 C-204.155,38.889 -202.812,37.546 -201.155,37.546 C-199.498,37.546 -198.155,38.889 -198.155,40.546 Z" fill="rgba(0,229,255,1)" stroke="rgba(22,22,22,1)" stroke-width="0.5"/>
<path d="M-173.202,-1.624 C-173.202,0.033 -174.545,1.376 -176.202,1.376 C-177.858,1.376 -179.202,0.033 -179.202,-1.624 C-179.202,-3.28 -177.858,-4.624 -176.202,-4.624 C-174.545,-4.624 -173.202,-3.28 -173.202,-1.624 Z" fill="rgba(0,229,255,1)" stroke="rgba(22,22,22,1)" stroke-width="0.5"/>
<path d="M-106.739,120.052 C-106.739,121.709 -108.082,123.052 -109.739,123.052 C-111.395,123.052 -112.739,121.709 -112.739,120.052 C-112.739,118.395 -111.395,117.052 -109.739,117.052 C-108.082,117.052 -106.739,118.395 -106.739,120.052 Z" fill="rgba(0,229,255,1)" stroke="rgba(22,22,22,1)" stroke-width="0.5"/>
<path d="M-39.932,-33.464 C-39.932,-31.808 -41.275,-30.464 -42.932,-30.464 C-44.589,-30.464 -45.932,-31.808 -45.932,-33.464 C-45.932,-35.121 -44.589,-36.464 -42.932,-36.464 C-41.275,-36.464 -39.932,-35.121 -39.932,-33.464 Z" fill="rgba(0,229,255,1)" stroke="rgba(22,22,22,1)" stroke-width="0.5"/>
<path d="M-185.408,-19.847 C-185.408,-18.19 -186.751,-16.847 -188.408,-16.847 C-190.065,-16.847 -191.408,-18.19 -191.408,-19.847 C-191.408,-21.503 -190.065,-22.847 -188.408,-22.847 C-186.751,-22.847 -185.408,-21.503 -185.408,-19.847 Z" fill="rgba(0,229,255,1)" stroke="rgba(22,22,22,1)" stroke-width="0.5"/>
<path d="M-127.84,135.562 C-127.84,137.219 -129.183,138.562 -130.84,138.562 C-132.497,138.562 -133.84,137.219 -133.84,135.562 C-133.84,133.906 -132.497,132.562 -130.84,132.562 C-129.183,132.562 -127.84,133.906 -127.84,135.562 Z" fill="rgba(0,229,255,1)" stroke="rgba(22,22,22,1)" stroke-width="0.5"/>
<path d="M-110.852,142.334 C-110.852,143.991 -112.195,145.334 -113.852,145.334 C-115.509,145.334 -116.852,143.991 -116.852,142.334 C-116.852,140.677 -115.509,139.334 -113.852,139.334 C-112.195,139.334 -110.852,140.677 -110.852,142.334 Z" fill="rgba(0,229,255,1)" stroke="rgba(22,22,22,1)" stroke-width="0.5"/>
<path d="M-186.648,94.761 C-186.648,96.418 -187.991,97.761 -189.648,97.761 C-191.305,97.761 -192.648,96.418 -192.648,94.761 C-192.648,93.104 -191.305,91.761 -189.648,91.761 C-187.991,91.761 -186.648,93.104 -186.648,94.761 Z" fill="rgba(0,229,255,1)" stroke="rgba(22,22,22,1)" stroke-width="0.5"/>
<path d="M-65.579,-34.744 C-65.579,-33.088 -66.922,-31.744 -68.579,-31.744 C-70.236,-31.744 -71.579,-33.088 -71.579,-34.744 C-71.579,-36.401 -70.236,-37.744 -68.579,-37.744 C-66.922,-37.744 -65.579,-36.401 -65.579,-34.744 Z" fill="rgba(0,229,255,1)" stroke="rgba(22,22,22,1)" stroke-width="0.5"/>
<path d="M-212.325,76.514 C-212.325,78.171 -213.668,79.514 -215.325,79.514 C-216.982,79.514 -218.325,78.171 -218.325,76.514 C-218.325,74.857 -216.982,73.514 -215.325,73.514 C-213.668,73.514 -212.325,74.857 -212.325,76.514 Z" fill="rgba(0,229,255,1)" stroke="rgba(22,22,22,1)" stroke-width="0.5"/>
<path d="M-168.68,-34.077 C-168.68,-32.42 -170.023,-31.077 -171.68,-31.077 C-173.337,-31.077 -174.68,-32.42 -174.68,-34.077 C-174.68,-35.734 -173.337,-37.077 -171.68,-37.077 C-170.023,-37.077 -168.68,-35.734 -168.68,-34.077 Z" fill="rgba(0,229,255,1)" stroke="rgba(22,22,22,1)" stroke-width="0.5"/>
<path d="M-36.182,159.307 C-36.182,160.964 -37.525,162.307 -39.182,162.307 C-40.839,162.307 -42.182,160.964 -42.182,159.307 C-42.182,157.65 -40.839,156.307 -39.182,156.307 C-37.525,156.307 -36.182,157.65 -36.182,159.307 Z" fill="rgba(0,229,255,1)" stroke="rgba(22,22,22,1)" stroke-width="0.5"/>
<path d="M-153.982,131.077 C-153.982,132.734 -155.325,134.077 -156.982,134.077 C-158.639,134.077 -159.982,132.734 -159.982,131.077 C-159.982,129.42 -158.639,128.077 -156.982,128.077 C-155.325,128.077 -153.982,129.42 -153.982,131.077 Z" fill="rgba(0,229,255,1)" stroke="rgba(22,22,22,1)" stroke-width="0.5"/>
<path d="M-101.193,164.67 C-101.193,166.327 -102.536,167.67 -104.193,167.67 C-105.849,167.67 -107.193,166.327 -107.193,164.67 C-107.193,163.013 -105.849,161.67 -104.193,161.67 C-102.536,161.67 -101.193,163.013 -101.193,164.67 Z" fill="rgba(0,229,255,1)" stroke="rgba(22,22,22,1)" stroke-width="0.5"/>
<path d="M-168.037,-17.132 C-168.037,-15.475 -169.38,-14.132 -171.037,-14.132 C-172.693,-14.132 -174.037,-15.475 -174.037,-17.132 C-174.037,-18.789 -172.693,-20.132 -171.037,-20.132 C-169.38,-20.132 -168.037,-18.789 -168.037,-17.132 Z" fill="rgba(0,229,255,1)" stroke="rgba(22,22,22,1)" stroke-width="0.5"/>
<path d="M-221.044,27.048 C-221.044,28.705 -222.387,30.048 -224.044,30.048 C-225.7,30.048 -227.044,28.705 -227.044,27.048 C-227.044,25.392 -225.7,24.048 -224.044,24.048 C-222.387,24.048 -221.044,25.392 -221.044,27.048 Z" fill="rgba(0,229,255,1)" stroke="rgba(22,22,22,1)" stroke-width="0.5"/>
<path d="M-99.267,185.404 C-99.267,187.06 -100.61,188.404 -102.267,188.404 C-103.924,188.404 -105.267,187.06 -105.267,185.404 C-105.267,183.747 -103.924,182.404 -102.267,182.404 C-100.61,182.404 -99.267,183.747 -99.267,185.404 Z" fill="rgba(0,229,255,1)" stroke="rgba(22,22,22,1)" stroke-width="0.5"/>
<path d="M-125.158,153.11 C-125.158,154.766 -126.501,156.11 -128.158,156.11 C-129.815,156.11 -131.158,154.766 -131.158,153.11 C-131.158,151.453 -129.815,150.11 -128.158,150.11 C-126.501,150.11 -125.158,151.453 -125.158,153.11 Z" fill="rgba(0,229,255,1)" stroke="rgba(22,22,22,1)" stroke-width="0.5"/>
<path d="M-171.587,121.49 C-171.587,123.147 -172.931,124.49 -174.587,124.49 C-176.244,124.49 -177.587,123.147 -177.587,121.49 C-177.587,119.833 -176.244,118.49 -174.587,118.49 C-172.931,118.49 -171.587,119.833 -171.587,121.49 Z" fill="rgba(0,229,255,1)" stroke="rgba(22,22,22,1)" stroke-width="0.5"/>
<path d="M-86.228,157.673 C-86.228,159.33 -87.571,160.673 -89.228,160.673 C-90.884,160.673 -92.228,159.33 -92.228,157.673 C-92.228,156.017 -90.884,154.673 -89.228,154.673 C-87.571,154.673 -86.228,156.017 -86.228,157.673 Z" fill="rgba(0,229,255,1)" stroke="rgba(22,22,22,1)" stroke-width="0.5"/>
<path d="M-223.273,53.258 C-223.273,54.915 -224.616,56.258 -226.273,56.258 C-227.93,56.258 -229.273,54.915 -229.273,53.258 C-229.273,51.601 -227.93,50.258 -226.273,50.258 C-224.616,50.258 -223.273,51.601 -223.273,53.258 Z" fill="rgba(0,229,255,1)" stroke="rgba(22,22,22,1)" stroke-width="0.5"/>
<path d="M-139.499,161.203 C-139.499,162.86 -140.842,164.203 -142.499,164.203 C-144.156,164.203 -145.499,162.86 -145.499,161.203 C-145.499,159.546 -144.156,158.203 -142.499,158.203 C-140.842,158.203 -139.499,159.546 -139.499,161.203 Z" fill="rgba(0,229,255,1)" stroke="rgba(22,22,22,1)" stroke-width="0.5"/>
<path d="M-220.741,100.295 C-220.741,101.952 -222.084,103.295 -223.741,103.295 C-225.398,103.295 -226.741,101.952 -226.741,100.295 C-226.741,98.638 -225.398,97.295 -223.741,97.295 C-222.084,97.295 -220.741,98.638 -220.741,100.295 Z" fill="rgba(0,229,255,1)" stroke="rgba(22,22,22,1)" stroke-width="0.5"/>
<path d="M-124.588,182.881 C-124.588,184.538 -125.931,185.881 -127.588,185.881 C-129.244,185.881 -130.588,184.538 -130.588,182.881 C-130.588,181.225 -129.244,179.881 -127.588,179.881 C-125.931,179.881 -124.588,181.225 -124.588,182.881 Z" fill="rgba(0,229,255,1)" stroke="rgba(22,22,22,1)" stroke-width="0.5"/>
<path d="M-158.65,167.988 C-158.65,169.645 -159.993,170.988 -161.65,170.988 C-163.307,170.988 -164.65,169.645 -164.65,167.988 C-164.65,166.331 -163.307,164.988 -161.65,164.988 C-159.993,164.988 -158.65,166.331 -158.65,167.988 Z" fill="rgba(0,229,255,1)" stroke="rgba(22,22,22,1)" stroke-width="0.5"/>
<path d="M-114.863,-5.144 C-114.863,-3.488 -116.206,-2.144 -117.863,-2.144 C-119.52,-2.144 -120.863,-3.488 -120.863,-5.144 C-120.863,-6.801 -119.52,-8.144 -117.863,-8.144 C-116.206,-8.144 -114.863,-6.801 -114.863,-5.144 Z" fill="rgba(0,229,255,1)" stroke="rgba(22,22,22,1)" stroke-width="0.5"/>
<path d="M-199.091,105.217 C-199.091,106.874 -200.434,108.217 -202.091,108.217 C-203.747,108.217 -205.091,106.874 -205.091,105.217 C-205.091,103.56 -203.747,102.217 -202.091,102.217 C-200.434,102.217 -199.091,103.56 -199.091,105.217 Z" fill="rgba(0,229,255,1)" stroke="rgba(22,22,22,1)" stroke-width="0.5"/>
<path d="M-60.306,3.522 C-60.306,5.179 -61.649,6.522 -63.306,6.522 C-64.962,6.522 -66.306,5.179 -66.306,3.522 C-66.306,1.865 -64.962,0.522 -63.306,0.522 C-61.649,0.522 -60.306,1.865 -60.306,3.522 Z" fill="rgba(0,229,255,1)" stroke="rgba(22,22,22,1)" stroke-width="0.5"/>
<path d="M-116.984,167.694 C-116.984,169.351 -118.327,170.694 -119.984,170.694 C-121.641,170.694 -122.984,169.351 -122.984,167.694 C-122.984,166.037 -121.641,164.694 -119.984,164.694 C-118.327,164.694 -116.984,166.037 -116.984,167.694 Z" fill="rgba(0,229,255,1)" stroke="rgba(22,22,22,1)" stroke-width="0.5"/>
<path d="M-186.321,-39.34 C-186.321,-37.683 -187.664,-36.34 -189.321,-36.34 C-190.978,-36.34 -192.321,-37.683 -192.321,-39.34 C-192.321,-40.997 -190.978,-42.34 -189.321,-42.34 C-187.664,-42.34 -186.321,-40.997 -186.321,-39.34 Z" fill="rgba(0,229,255,1)" stroke="rgba(22,22,22,1)" stroke-width="0.5"/>
<path d="M-216.731,-7.776 C-216.731,-6.119 -218.074,-4.776 -219.731,-4.776 C-221.388,-4.776 -222.731,-6.119 -222.731,-7.776 C-222.731,-9.433 -221.388,-10.776 -219.731,-10.776 C-218.074,-10.776 -216.731,-9.433 -216.731,-7.776 Z" fill="rgba(0,229,255,1)" stroke="rgba(22,22,22,1)" stroke-width="0.5"/>
<path d="M-167.485,106.007 C-167.485,107.664 -168.828,109.007 -170.485,109.007 C-172.141,109.007 -173.485,107.664 -173.485,106.007 C-173.485,104.35 -172.141,103.007 -170.485,103.007 C-168.828,103.007 -167.485,104.35 -167.485,106.007 Z" fill="rgba(0,229,255,1)" stroke="rgba(22,22,22,1)" stroke-width="0.5"/>
<path d="M-163.97,150.729 C-163.97,152.386 -165.313,153.729 -166.97,153.729 C-168.627,153.729 -169.97,152.386 -169.97,150.729 C-169.97,149.072 -168.627,147.729 -166.97,147.729 C-165.313,147.729 -163.97,149.072 -163.97,150.729 Z" fill="rgba(0,229,255,1)" stroke="rgba(22,22,22,1)" stroke-width="0.5"/>
<path d="M-215.488,-27.72 C-215.488,-26.063 -216.831,-24.72 -218.488,-24.72 C-220.145,-24.72 -221.488,-26.063 -221.488,-27.72 C-221.488,-29.377 -220.145,-30.72 -218.488,-30.72 C-216.831,-30.72 -215.488,-29.377 -215.488,-27.72 Z" fill="rgba(0,229,255,1)" stroke="rgba(22,22,22,1)" stroke-width="0.5"/>
<path d="M-145.331,190.883 C-145.331,192.54 -146.674,193.883 -148.331,193.883 C-149.988,193.883 -151.331,192.54 -151.331,190.883 C-151.331,189.226 -149.988,187.883 -148.331,187.883 C-146.674,187.883 -145.331,189.226 -145.331,190.883 Z" fill="rgba(0,229,255,1)" stroke="rgba(22,22,22,1)" stroke-width="0.5"/>
<path d="M-202.997,122.456 C-202.997,124.113 -204.341,125.456 -205.997,125.456 C-207.654,125.456 -208.997,124.113 -208.997,122.456 C-208.997,120.799 -207.654,119.456 -205.997,119.456 C-204.341,119.456 -202.997,120.799 -202.997,122.456 Z" fill="rgba(0,229,255,1)" stroke="rgba(22,22,22,1)" stroke-width="0.5"/>
<path d="M-194.704,141.487 C-194.704,143.144 -196.047,144.487 -197.704,144.487 C-199.361,144.487 -200.704,143.144 -200.704,141.487 C-200.704,139.83 -199.361,138.487 -197.704,138.487 C-196.047,138.487 -194.704,139.83 -194.704,141.487 Z" fill="rgba(0,229,255,1)" stroke="rgba(22,22,22,1)" stroke-width="0.5"/>
<path d="M-221.745,7.583 C-221.745,9.239 -223.088,10.583 -224.745,10.583 C-226.402,10.583 -227.745,9.239 -227.745,7.583 C-227.745,5.926 -226.402,4.583 -224.745,4.583 C-223.088,4.583 -221.745,5.926 -221.745,7.583 Z" fill="rgba(0,229,255,1)" stroke="rgba(22,22,22,1)" stroke-width="0.5"/>
<path d="M-92.034,-31.064 C-92.034,-29.407 -93.377,-28.064 -95.034,-28.064 C-96.691,-28.064 -98.034,-29.407 -98.034,-31.064 C-98.034,-32.721 -96.691,-34.064 -95.034,-34.064 C-93.377,-34.064 -92.034,-32.721 -92.034,-31.064 Z" fill="rgba(0,229,255,1)" stroke="rgba(22,22,22,1)" stroke-width="0.5"/>
<path d="M-199.819,-11.117 C-199.819,-9.46 -201.162,-8.117 -202.819,-8.117 C-204.476,-8.117 -205.819,-9.46 -205.819,-11.117 C-205.819,-12.774 -204.476,-14.117 -202.819,-14.117 C-201.162,-14.117 -199.819,-12.774 -199.819,-11.117 Z" fill="rgba(0,229,255,1)" stroke="rgba(22,22,22,1)" stroke-width="0.5"/>
<path d="M-83.331,173.427 C-83.331,175.084 -84.674,176.427 -86.331,176.427 C-87.988,176.427 -89.331,175.084 -89.331,173.427 C-89.331,171.77 -87.988,170.427 -86.331,170.427 C-84.674,170.427 -83.331,171.77 -83.331,173.427 Z" fill="rgba(0,229,255,1)" stroke="rgba(22,22,22,1)" stroke-width="0.5"/>
<path d="M-62.037,187.034 C-62.037,188.69 -63.38,190.034 -65.037,190.034 C-66.694,190.034 -68.037,188.69 -68.037,187.034 C-68.037,185.377 -66.694,184.034 -65.037,184.034 C-63.38,184.034 -62.037,185.377 -62.037,187.034 Z" fill="rgba(0,229,255,1)" stroke="rgba(22,22,22,1)" stroke-width="0.5"/>
<path d="M-38.22,196.088 C-38.22,197.744 -39.563,199.088 -41.22,199.088 C-42.877,199.088 -44.22,197.744 -44.22,196.088 C-44.22,194.431 -42.877,193.088 -41.22,193.088 C-39.563,193.088 -38.22,194.431 -38.22,196.088 Z" fill="rgba(0,229,255,1)" stroke="rgba(22,22,22,1)" stroke-width="0.5"/>
<path d="M-202.794,-37.886 C-202.794,-36.229 -204.137,-34.886 -205.794,-34.886 C-207.451,-34.886 -208.794,-36.229 -208.794,-37.886 C-208.794,-39.543 -207.451,-40.886 -205.794,-40.886 C-204.137,-40.886 -202.794,-39.543 -202.794,-37.886 Z" fill="rgba(0,229,255,1)" stroke="rgba(22,22,22,1)" stroke-width="0.5"/>
<path d="M-216.772,130.772 C-216.772,132.428 -218.115,133.772 -219.772,133.772 C-221.429,133.772 -222.772,132.428 -222.772,130.772 C-222.772,129.115 -221.429,127.772 -219.772,127.772 C-218.115,127.772 -216.772,129.115 -216.772,130.772 Z" fill="rgba(0,229,255,1)" stroke="rgba(22,22,22,1)" stroke-width="0.5"/>
<path d="M-51.078,208.689 C-51.078,210.346 -52.421,211.689 -54.078,211.689 C-55.735,211.689 -57.078,210.346 -57.078,208.689 C-57.078,207.032 -55.735,205.689 -54.078,205.689 C-52.421,205.689 -51.078,207.032 -51.078,208.689 Z" fill="rgba(0,229,255,1)" stroke="rgba(22,22,22,1)" stroke-width="0.5"/>
<path d="M-79.311,189.313 C-79.311,190.97 -80.654,192.313 -82.311,192.313 C-83.968,192.313 -85.311,190.97 -85.311,189.313 C-85.311,187.656 -83.968,186.313 -82.311,186.313 C-80.654,186.313 -79.311,187.656 -79.311,189.313 Z" fill="rgba(0,229,255,1)" stroke="rgba(22,22,22,1)" stroke-width="0.5"/>
<path d="M-107.783,209.065 C-107.783,210.722 -109.126,212.065 -110.783,212.065 C-112.44,212.065 -113.783,210.722 -113.783,209.065 C-113.783,207.409 -112.44,206.065 -110.783,206.065 C-109.126,206.065 -107.783,207.409 -107.783,209.065 Z" fill="rgba(0,229,255,1)" stroke="rgba(22,22,22,1)" stroke-width="0.5"/>
<path d="M-131.059,208.379 C-131.059,210.036 -132.402,211.379 -134.059,211.379 C-135.716,211.379 -137.059,210.036 -137.059,208.379 C-137.059,206.722 -135.716,205.379 -134.059,205.379 C-132.402,205.379 -131.059,206.722 -131.059,208.379 Z" fill="rgba(0,229,255,1)" stroke="rgba(22,22,22,1)" stroke-width="0.5"/>
<path d="M-77.834,208.186 C-77.834,209.843 -79.177,211.186 -80.834,211.186 C-82.49,211.186 -83.834,209.843 -83.834,208.186 C-83.834,206.529 -82.49,205.186 -80.834,205.186 C-79.177,205.186 -77.834,206.529 -77.834,208.186 Z" fill="rgba(0,229,255,1)" stroke="rgba(22,22,22,1)" stroke-width="0.5"/>
<path d="M-183.052,178.006 C-183.052,179.663 -184.395,181.006 -186.052,181.006 C-187.709,181.006 -189.052,179.663 -189.052,178.006 C-189.052,176.35 -187.709,175.006 -186.052,175.006 C-184.395,175.006 -183.052,176.35 -183.052,178.006 Z" fill="rgba(0,229,255,1)" stroke="rgba(22,22,22,1)" stroke-width="0.5"/>
<path d="M-191.607,157.777 C-191.607,159.434 -192.95,160.777 -194.607,160.777 C-196.264,160.777 -197.607,159.434 -197.607,157.777 C-197.607,156.121 -196.264,154.777 -194.607,154.777 C-192.95,154.777 -191.607,156.121 -191.607,157.777 Z" fill="rgba(0,229,255,1)" stroke="rgba(22,22,22,1)" stroke-width="0.5"/>
<path d="M-221.144,151.162 C-221.144,152.819 -222.487,154.162 -224.144,154.162 C-225.8,154.162 -227.144,152.819 -227.144,151.162 C-227.144,149.505 -225.8,148.162 -224.144,148.162 C-222.487,148.162 -221.144,149.505 -221.144,151.162 Z" fill="rgba(0,229,255,1)" stroke="rgba(22,22,22,1)" stroke-width="0.5"/>
<path d="M-208.552,161.056 C-208.552,162.713 -209.895,164.056 -211.552,164.056 C-213.209,164.056 -214.552,162.713 -214.552,161.056 C-214.552,159.4 -213.209,158.056 -211.552,158.056 C-209.895,158.056 -208.552,159.4 -208.552,161.056 Z" fill="rgba(0,229,255,1)" stroke="rgba(22,22,22,1)" stroke-width="0.5"/>
<path d="M-167.964,184.319 C-167.964,185.976 -169.307,187.319 -170.964,187.319 C-172.621,187.319 -173.964,185.976 -173.964,184.319 C-173.964,182.662 -172.621,181.319 -170.964,181.319 C-169.307,181.319 -167.964,182.662 -167.964,184.319 Z" fill="rgba(0,229,255,1)" stroke="rgba(22,22,22,1)" stroke-width="0.5"/>
<path d="M-92.616,199.998 C-92.616,201.655 -93.96,202.998 -95.616,202.998 C-97.273,202.998 -98.616,201.655 -98.616,199.998 C-98.616,198.341 -97.273,196.998 -95.616,196.998 C-93.96,196.998 -92.616,198.341 -92.616,199.998 Z" fill="rgba(0,229,255,1)" stroke="rgba(22,22,22,1)" stroke-width="0.5"/>
<path d="M-220.138,173.721 C-220.138,175.378 -221.481,176.721 -223.138,176.721 C-224.795,176.721 -226.138,175.378 -226.138,173.721 C-226.138,172.064 -224.795,170.721 -223.138,170.721 C-221.481,170.721 -220.138,172.064 -220.138,173.721 Z" fill="rgba(0,229,255,1)" stroke="rgba(22,22,22,1)" stroke-width="0.5"/>
<path d="M-146.034,146.573 C-146.034,148.23 -147.378,149.573 -149.034,149.573 C-150.691,149.573 -152.034,148.23 -152.034,146.573 C-152.034,144.916 -150.691,143.573 -149.034,143.573 C-147.378,143.573 -146.034,144.916 -146.034,146.573 Z" fill="rgba(0,229,255,1)" stroke="rgba(22,22,22,1)" stroke-width="0.5"/>
<path d="M-159.384,205.085 C-159.384,206.742 -160.728,208.085 -162.384,208.085 C-164.041,208.085 -165.384,206.742 -165.384,205.085 C-165.384,203.429 -164.041,202.085 -162.384,202.085 C-160.728,202.085 -159.384,203.429 -159.384,205.085 Z" fill="rgba(0,229,255,1)" stroke="rgba(22,22,22,1)" stroke-width="0.5"/>
<path d="M-180.415,208.015 C-180.415,209.672 -181.758,211.015 -183.415,211.015 C-185.072,211.015 -186.415,209.672 -186.415,208.015 C-186.415,206.359 -185.072,205.015 -183.415,205.015 C-181.758,205.015 -180.415,206.359 -180.415,208.015 Z" fill="rgba(0,229,255,1)" stroke="rgba(22,22,22,1)" stroke-width="0.5"/>
<path d="M-200.229,195.862 C-200.229,197.519 -201.572,198.862 -203.229,198.862 C-204.886,198.862 -206.229,197.519 -206.229,195.862 C-206.229,194.205 -204.886,192.862 -203.229,192.862 C-201.572,192.862 -200.229,194.205 -200.229,195.862 Z" fill="rgba(0,229,255,1)" stroke="rgba(22,22,22,1)" stroke-width="0.5"/>
<path d="M-216.022,203.406 C-216.022,205.063 -217.365,206.406 -219.022,206.406 C-220.679,206.406 -222.022,205.063 -222.022,203.406 C-222.022,201.75 -220.679,200.406 -219.022,200.406 C-217.365,200.406 -216.022,201.75 -216.022,203.406 Z" fill="rgba(0,229,255,1)" stroke="rgba(22,22,22,1)" stroke-width="0.5"/>
<path d="M-176.038,139.298 C-176.038,140.955 -177.381,142.298 -179.038,142.298 C-180.695,142.298 -182.038,140.955 -182.038,139.298 C-182.038,137.641 -180.695,136.298 -179.038,136.298 C-177.381,136.298 -176.038,137.641 -176.038,139.298 Z" fill="rgba(0,229,255,1)" stroke="rgba(22,22,22,1)" stroke-width="0.5"/>
<path d="M30,-85 L230,-85 L230,215 L30,215 Z" fill="rgba(226,226,226,1)" stroke="rgba(0,0,0,1)" stroke-width="1"/>
<path d="M30,88 L230,88 L230,108 L30,108 Z" fill="rgba(0,0,0,1)"/>
<path d="M120,39 L140,39 L140,89 L120,89 Z" fill="rgba(0,0,0,1)"/>
<path d="M218.808,140.891 C218.808,142.548 217.465,143.891 215.808,143.891 C214.151,143.891 212.808,142.548 212.808,140.891 C212.808,139.234 214.151,137.891 215.808,137.891 C217.465,137.891 218.808,139.234 218.808,140.891 Z" fill="rgba(255,42,0,1)" stroke="rgba(22,22,22,1)" stroke-width="0.5"/>
<path d="M213.879,151.94 C213.879,153.597 212.536,154.94 210.879,154.94 C209.222,154.94 207.879,153.597 207.879,151.94 C207.879,150.283 209.222,148.94 210.879,148.94 C212.536,148.94 213.879,150.283 213.879,151.94 Z" fill="rgba(255,42,0,1)" stroke="rgba(22,22,22,1)" stroke-width="0.5"/>
<path d="M217.561,127.551 C217.561,129.208 216.217,130.551 214.561,130.551 C212.904,130.551 211.561,129.208 211.561,127.551 C211.561,125.894 212.904,124.551 214.561,124.551 C216.217,124.551 217.561,125.894 217.561,127.551 Z" fill="rgba(255,42,0,1)" stroke="rgba(22,22,22,1)" stroke-width="0.5"/>
<path d="M218.921,167.093 C218.921,168.75 217.578,170.093 215.921,170.093 C214.264,170.093 212.921,168.75 212.921,167.093 C212.921,165.437 214.264,164.093 215.921,164.093 C217.578,164.093 218.921,165.437 218.921,167.093 Z" fill="rgba(255,42,0,1)" stroke="rgba(22,22,22,1)" stroke-width="0.5"/>
<path d="M203.201,138.261 C203.201,139.918 201.858,141.261 200.201,141.261 C198.544,141.261 197.201,139.918 197.201,138.261 C197.201,136.604 198.544,135.261 200.201,135.261 C201.858,135.261 203.201,136.604 203.201,138.261 Z" fill="rgba(255,42,0,1)" stroke="rgba(22,22,22,1)" stroke-width="0.5"/>
<path d="M210.21,177.985 C210.21,179.642 208.867,180.985 207.21,180.985 C205.553,180.985 204.21,179.642 204.21,177.985 C204.21,176.329 205.553,174.985 207.21,174.985 C208.867,174.985 210.21,176.329 210.21,177.985 Z" fill="rgba(255,42,0,1)" stroke="rgba(22,22,22,1)" stroke-width="0.5"/>
<path d="M189.125,138.292 C189.125,139.948 187.782,141.292 186.125,141.292 C184.468,141.292 183.125,139.948 183.125,138.292 C183.125,136.635 184.468,135.292 186.125,135.292 C187.782,135.292 189.125,136.635 189.125,138.292 Z" fill="rgba(255,42,0,1)" stroke="rgba(22,22,22,1)" stroke-width="0.5"/>
<path d="M210.964,161.531 C210.964,163.188 209.62,164.531 207.964,164.531 C206.307,164.531 204.964,163.188 204.964,161.531 C204.964,159.874 206.307,158.531 207.964,158.531 C209.62,158.531 210.964,159.874 210.964,161.531 Z" fill="rgba(255,42,0,1)" stroke="rgba(22,22,22,1)" stroke-width="0.5"/>
<path d="M223.169,159.999 C223.169,161.655 221.826,162.999 220.169,162.999 C218.512,162.999 217.169,161.655 217.169,159.999 C217.169,158.342 218.512,156.999 220.169,156.999 C221.826,156.999 223.169,158.342 223.169,159.999 Z" fill="rgba(255,42,0,1)" stroke="rgba(22,22,22,1)" stroke-width="0.5"/>
<path d="M228.543,139.542 C228.543,141.199 227.2,142.542 225.543,142.542 C223.886,142.542 222.543,141.199 222.543,139.542 C222.543,137.885 223.886,136.542 225.543,136.542 C227.2,136.542 228.543,137.885 228.543,139.542 Z" fill="rgba(255,42,0,1)" stroke="rgba(22,22,22,1)" stroke-width="0.5"/>
<path d="M211.159,189.293 C211.159,190.95 209.816,192.293 208.159,192.293 C206.502,192.293 205.159,190.95 205.159,189.293 C205.159,187.637 206.502,186.293 208.159,186.293 C209.816,186.293 211.159,187.637 211.159,189.293 Z" fill="rgba(255,42,0,1)" stroke="rgba(22,22,22,1)" stroke-width="0.5"/>
<path d="M193.539,149.219 C193.539,150.876 192.196,152.219 190.539,152.219 C188.882,152.219 187.539,150.876 187.539,149.219 C187.539,147.562 188.882,146.219 190.539,146.219 C192.196,146.219 193.539,147.562 193.539,149.219 Z" fill="rgba(255,42,0,1)" stroke="rgba(22,22,22,1)" stroke-width="0.5"/>
<path d="M227.252,168.629 C227.252,170.286 225.909,171.629 224.252,171.629 C222.595,171.629 221.252,170.286 221.252,168.629 C221.252,166.972 222.595,165.629 224.252,165.629 C225.909,165.629 227.252,166.972 227.252,168.629 Z" fill="rgba(255,42,0,1)" stroke="rgba(22,22,22,1)" stroke-width="0.5"/>
<path d="M205.932,153.033 C205.932,154.69 204.589,156.033 202.932,156.033 C201.275,156.033 199.932,154.69 199.932,153.033 C199.932,151.376 201.275,150.033 202.932,150.033 C204.589,150.033 205.932,151.376 205.932,153.033 Z" fill="rgba(255,42,0,1)" stroke="rgba(22,22,22,1)" stroke-width="0.5"/>
<path d="M203.462,166.088 C203.462,167.744 202.118,169.088 200.462,169.088 C198.805,169.088 197.462,167.744 197.462,166.088 C197.462,164.431 198.805,163.088 200.462,163.088 C202.118,163.088 203.462,164.431 203.462,166.088 Z" fill="rgba(255,42,0,1)" stroke="rgba(22,22,22,1)" stroke-width="0.5"/>
<path d="M202.693,174.421 C202.693,176.078 201.349,177.421 199.693,177.421 C198.036,177.421 196.693,176.078 196.693,174.421 C196.693,172.764 198.036,171.421 199.693,171.421 C201.349,171.421 202.693,172.764 202.693,174.421 Z" fill="rgba(255,42,0,1)" stroke="rgba(22,22,22,1)" stroke-width="0.5"/>
<path d="M195.232,188.242 C195.232,189.899 193.889,191.242 192.232,191.242 C190.576,191.242 189.232,189.899 189.232,188.242 C189.232,186.585 190.576,185.242 192.232,185.242 C193.889,185.242 195.232,186.585 195.232,188.242 Z" fill="rgba(255,42,0,1)" stroke="rgba(22,22,22,1)" stroke-width="0.5"/>
<path d="M208.82,145.184 C208.82,146.841 207.477,148.184 205.82,148.184 C204.163,148.184 202.82,146.841 202.82,145.184 C202.82,143.527 204.163,142.184 205.82,142.184 C207.477,142.184 208.82,143.527 208.82,145.184 Z" fill="rgba(255,42,0,1)" stroke="rgba(22,22,22,1)" stroke-width="0.5"/>
<path d="M194.687,164.018 C194.687,165.675 193.344,167.018 191.687,167.018 C190.03,167.018 188.687,165.675 188.687,164.018 C188.687,162.361 190.03,161.018 191.687,161.018 C193.344,161.018 194.687,162.361 194.687,164.018 Z" fill="rgba(255,42,0,1)" stroke="rgba(22,22,22,1)" stroke-width="0.5"/>
<path d="M229.452,129.227 C229.452,130.884 228.109,132.227 226.452,132.227 C224.795,132.227 223.452,130.884 223.452,129.227 C223.452,127.57 224.795,126.227 226.452,126.227 C228.109,126.227 229.452,127.57 229.452,129.227 Z" fill="rgba(255,42,0,1)" stroke="rgba(22,22,22,1)" stroke-width="0.5"/>
<path d="M224.177,148.268 C224.177,149.925 222.834,151.268 221.177,151.268 C219.52,151.268 218.177,149.925 218.177,148.268 C218.177,146.611 219.52,145.268 221.177,145.268 C222.834,145.268 224.177,146.611 224.177,148.268 Z" fill="rgba(255,42,0,1)" stroke="rgba(22,22,22,1)" stroke-width="0.5"/>
<path d="M222.23,180.031 C222.23,181.688 220.887,183.031 219.23,183.031 C217.573,183.031 216.23,181.688 216.23,180.031 C216.23,178.374 217.573,177.031 219.23,177.031 C220.887,177.031 222.23,178.374 222.23,180.031 Z" fill="rgba(255,42,0,1)" stroke="rgba(22,22,22,1)" stroke-width="0.5"/>
<path d="M216.469,195.827 C216.469,197.484 215.126,198.827 213.469,198.827 C211.812,198.827 210.469,197.484 210.469,195.827 C210.469,194.17 211.812,192.827 213.469,192.827 C215.126,192.827 216.469,194.17 216.469,195.827 Z" fill="rgba(255,42,0,1)" stroke="rgba(22,22,22,1)" stroke-width="0.5"/>
<path d="M210.179,131.184 C210.179,132.841 208.836,134.184 207.179,134.184 C205.522,134.184 204.179,132.841 204.179,131.184 C204.179,129.527 205.522,128.184 207.179,128.184 C208.836,128.184 210.179,129.527 210.179,131.184 Z" fill="rgba(255,42,0,1)" stroke="rgba(22,22,22,1)" stroke-width="0.5"/>
<path d="M191.355,173.834 C191.355,175.491 190.012,176.834 188.355,176.834 C186.698,176.834 185.355,175.491 185.355,173.834 C185.355,172.178 186.698,170.834 188.355,170.834 C190.012,170.834 191.355,172.178 191.355,173.834 Z" fill="rgba(255,42,0,1)" stroke="rgba(22,22,22,1)" stroke-width="0.5"/>
<path d="M227.006,117.853 C227.006,119.51 225.663,120.853 224.006,120.853 C222.349,120.853 221.006,119.51 221.006,117.853 C221.006,116.197 222.349,114.853 224.006,114.853 C225.663,114.853 227.006,116.197 227.006,117.853 Z" fill="rgba(255,42,0,1)" stroke="rgba(22,22,22,1)" stroke-width="0.5"/>
<path d="M198.306,195.737 C198.306,197.394 196.963,198.737 195.306,198.737 C193.649,198.737 192.306,197.394 192.306,195.737 C192.306,194.08 193.649,192.737 195.306,192.737 C196.963,192.737 198.306,194.08 198.306,195.737 Z" fill="rgba(255,42,0,1)" stroke="rgba(22,22,22,1)" stroke-width="0.5"/>
<path d="M181.831,148.838 C181.831,150.494 180.488,151.838 178.831,151.838 C177.174,151.838 175.831,150.494 175.831,148.838 C175.831,147.181 177.174,145.838 178.831,145.838 C180.488,145.838 181.831,147.181 181.831,148.838 Z" fill="rgba(255,42,0,1)" stroke="rgba(22,22,22,1)" stroke-width="0.5"/>
<path d="M189.782,125.942 C189.782,127.598 188.439,128.942 186.782,128.942 C185.125,128.942 183.782,127.598 183.782,125.942 C183.782,124.285 185.125,122.942 186.782,122.942 C188.439,122.942 189.782,124.285 189.782,125.942 Z" fill="rgba(255,42,0,1)" stroke="rgba(22,22,22,1)" stroke-width="0.5"/>
<path d="M182.261,121.021 C182.261,122.678 180.918,124.021 179.261,124.021 C177.605,124.021 176.261,122.678 176.261,121.021 C176.261,119.364 177.605,118.021 179.261,118.021 C180.918,118.021 182.261,119.364 182.261,121.021 Z" fill="rgba(255,42,0,1)" stroke="rgba(22,22,22,1)" stroke-width="0.5"/>
<path d="M200.09,130.376 C200.09,132.033 198.746,133.376 197.09,133.376 C195.433,133.376 194.09,132.033 194.09,130.376 C194.09,128.719 195.433,127.376 197.09,127.376 C198.746,127.376 200.09,128.719 200.09,130.376 Z" fill="rgba(255,42,0,1)" stroke="rgba(22,22,22,1)" stroke-width="0.5"/>
<path d="M201.394,117.451 C201.394,119.108 200.051,120.451 198.394,120.451 C196.737,120.451 195.394,119.108 195.394,117.451 C195.394,115.794 196.737,114.451 198.394,114.451 C200.051,114.451 201.394,115.794 201.394,117.451 Z" fill="rgba(255,42,0,1)" stroke="rgba(22,22,22,1)" stroke-width="0.5"/>
<path d="M203.355,183.601 C203.355,185.258 202.012,186.601 200.355,186.601 C198.698,186.601 197.355,185.258 197.355,183.601 C197.355,181.944 198.698,180.601 200.355,180.601 C202.012,180.601 203.355,181.944 203.355,183.601 Z" fill="rgba(255,42,0,1)" stroke="rgba(22,22,22,1)" stroke-width="0.5"/>
<path d="M207.402,198.324 C207.402,199.981 206.059,201.324 204.402,201.324 C202.745,201.324 201.402,199.981 201.402,198.324 C201.402,196.667 202.745,195.324 204.402,195.324 C206.059,195.324 207.402,196.667 207.402,198.324 Z" fill="rgba(255,42,0,1)" stroke="rgba(22,22,22,1)" stroke-width="0.5"/>
<path d="M184.157,162.038 C184.157,163.694 182.814,165.038 181.157,165.038 C179.5,165.038 178.157,163.694 178.157,162.038 C178.157,160.381 179.5,159.038 181.157,159.038 C182.814,159.038 184.157,160.381 184.157,162.038 Z" fill="rgba(255,42,0,1)" stroke="rgba(22,22,22,1)" stroke-width="0.5"/>
<path d="M211.973,116.182 C211.973,117.838 210.63,119.182 208.973,119.182 C207.317,119.182 205.973,117.838 205.973,116.182 C205.973,114.525 207.317,113.182 208.973,113.182 C210.63,113.182 211.973,114.525 211.973,116.182 Z" fill="rgba(255,42,0,1)" stroke="rgba(22,22,22,1)" stroke-width="0.5"/>
<path d="M224.512,194.726 C224.512,196.383 223.169,197.726 221.512,197.726 C219.855,197.726 218.512,196.383 218.512,194.726 C218.512,193.069 219.855,191.726 221.512,191.726 C223.169,191.726 224.512,193.069 224.512,194.726 Z" fill="rgba(255,42,0,1)" stroke="rgba(22,22,22,1)" stroke-width="0.5"/>
<path d="M184.016,111.167 C184.016,112.824 182.673,114.167 181.016,114.167 C179.359,114.167 178.016,112.824 178.016,111.167 C178.016,109.51 179.359,108.167 181.016,108.167 C182.673,108.167 184.016,109.51 184.016,111.167 Z" fill="rgba(255,42,0,1)" stroke="rgba(22,22,22,1)" stroke-width="0.5"/>
<path d="M219.443,111.816 C219.443,113.473 218.1,114.816 216.443,114.816 C214.787,114.816 213.443,113.473 213.443,111.816 C213.443,110.159 214.787,108.816 216.443,108.816 C218.1,108.816 219.443,110.159 219.443,111.816 Z" fill="rgba(255,42,0,1)" stroke="rgba(22,22,22,1)" stroke-width="0.5"/>
<path d="M193.157,112.253 C193.157,113.91 191.814,115.253 190.157,115.253 C188.5,115.253 187.157,113.91 187.157,112.253 C187.157,110.596 188.5,109.253 190.157,109.253 C191.814,109.253 193.157,110.596 193.157,112.253 Z" fill="rgba(255,42,0,1)" stroke="rgba(22,22,22,1)" stroke-width="0.5"/>
<path d="M177.673,135.854 C177.673,137.511 176.33,138.854 174.673,138.854 C173.016,138.854 171.673,137.511 171.673,135.854 C171.673,134.197 173.016,132.854 174.673,132.854 C176.33,132.854 177.673,134.197 177.673,135.854 Z" fill="rgba(255,42,0,1)" stroke="rgba(22,22,22,1)" stroke-width="0.5"/>
<path d="M179.069,174.626 C179.069,176.283 177.726,177.626 176.069,177.626 C174.412,177.626 173.069,176.283 173.069,174.626 C173.069,172.969 174.412,171.626 176.069,171.626 C177.726,171.626 179.069,172.969 179.069,174.626 Z" fill="rgba(255,42,0,1)" stroke="rgba(22,22,22,1)" stroke-width="0.5"/>
<path d="M169.847,162.537 C169.847,164.194 168.504,165.537 166.847,165.537 C165.19,165.537 163.847,164.194 163.847,162.537 C163.847,160.88 165.19,159.537 166.847,159.537 C168.504,159.537 169.847,160.88 169.847,162.537 Z" fill="rgba(255,42,0,1)" stroke="rgba(22,22,22,1)" stroke-width="0.5"/>
<path d="M167.749,124.683 C167.749,126.34 166.406,127.683 164.749,127.683 C163.092,127.683 161.749,126.34 161.749,124.683 C161.749,123.026 163.092,121.683 164.749,121.683 C166.406,121.683 167.749,123.026 167.749,124.683 Z" fill="rgba(255,42,0,1)" stroke="rgba(22,22,22,1)" stroke-width="0.5"/>
<path d="M223.908,209.626 C223.908,211.283 222.565,212.626 220.908,212.626 C219.252,212.626 217.908,211.283 217.908,209.626 C217.908,207.969 219.252,206.626 220.908,206.626 C222.565,206.626 223.908,207.969 223.908,209.626 Z" fill="rgba(255,42,0,1)" stroke="rgba(22,22,22,1)" stroke-width="0.5"/>
<path d="M208.155,208.049 C208.155,209.706 206.812,211.049 205.155,211.049 C203.498,211.049 202.155,209.706 202.155,208.049 C202.155,206.392 203.498,205.049 205.155,205.049 C206.812,205.049 208.155,206.392 208.155,208.049 Z" fill="rgba(255,42,0,1)" stroke="rgba(22,22,22,1)" stroke-width="0.5"/>
<path d="M227.844,185.795 C227.844,187.452 226.5,188.795 224.844,188.795 C223.187,188.795 221.844,187.452 221.844,185.795 C221.844,184.138 223.187,182.795 224.844,182.795 C226.5,182.795 227.844,184.138 227.844,185.795 Z" fill="rgba(255,42,0,1)" stroke="rgba(22,22,22,1)" stroke-width="0.5"/>
<path d="M186.734,187.335 C186.734,188.992 185.391,190.335 183.734,190.335 C182.077,190.335 180.734,188.992 180.734,187.335 C180.734,185.678 182.077,184.335 183.734,184.335 C185.391,184.335 186.734,185.678 186.734,187.335 Z" fill="rgba(255,42,0,1)" stroke="rgba(22,22,22,1)" stroke-width="0.5"/>
<path d="M197.823,206.637 C197.823,208.294 196.48,209.637 194.823,209.637 C193.166,209.637 191.823,208.294 191.823,206.637 C191.823,204.98 193.166,203.637 194.823,203.637 C196.48,203.637 197.823,204.98 197.823,206.637 Z" fill="rgba(255,42,0,1)" stroke="rgba(22,22,22,1)" stroke-width="0.5"/>
<path d="M173.777,189.495 C173.777,191.151 172.434,192.495 170.777,192.495 C169.12,192.495 167.777,191.151 167.777,189.495 C167.777,187.838 169.12,186.495 170.777,186.495 C172.434,186.495 173.777,187.838 173.777,189.495 Z" fill="rgba(255,42,0,1)" stroke="rgba(22,22,22,1)" stroke-width="0.5"/>
<path d="M215.685,204.274 C215.685,205.931 214.342,207.274 212.685,207.274 C211.028,207.274 209.685,205.931 209.685,204.274 C209.685,202.617 211.028,201.274 212.685,201.274 C214.342,201.274 215.685,202.617 215.685,204.274 Z" fill="rgba(255,42,0,1)" stroke="rgba(22,22,22,1)" stroke-width="0.5"/>
<path d="M190.674,202.668 C190.674,204.325 189.331,205.668 187.674,205.668 C186.017,205.668 184.674,204.325 184.674,202.668 C184.674,201.011 186.017,199.668 187.674,199.668 C189.331,199.668 190.674,201.011 190.674,202.668 Z" fill="rgba(255,42,0,1)" stroke="rgba(22,22,22,1)" stroke-width="0.5"/>
<path d="M184.3,196.981 C184.3,198.638 182.957,199.981 181.3,199.981 C179.644,199.981 178.3,198.638 178.3,196.981 C178.3,195.324 179.644,193.981 181.3,193.981 C182.957,193.981 184.3,195.324 184.3,196.981 Z" fill="rgba(255,42,0,1)" stroke="rgba(22,22,22,1)" stroke-width="0.5"/>
<path d="M156.495,163.887 C156.495,165.544 155.152,166.887 153.495,166.887 C151.838,166.887 150.495,165.544 150.495,163.887 C150.495,162.23 151.838,160.887 153.495,160.887 C155.152,160.887 156.495,162.23 156.495,163.887 Z" fill="rgba(255,42,0,1)" stroke="rgba(22,22,22,1)" stroke-width="0.5"/>
<path d="M162.506,132.706 C162.506,134.363 161.163,135.706 159.506,135.706 C157.849,135.706 156.506,134.363 156.506,132.706 C156.506,131.049 157.849,129.706 159.506,129.706 C161.163,129.706 162.506,131.049 162.506,132.706 Z" fill="rgba(255,42,0,1)" stroke="rgba(22,22,22,1)" stroke-width="0.5"/>
<path d="M168.743,195.875 C168.743,197.532 167.399,198.875 165.743,198.875 C164.086,198.875 162.743,197.532 162.743,195.875 C162.743,194.219 164.086,192.875 165.743,192.875 C167.399,192.875 168.743,194.219 168.743,195.875 Z" fill="rgba(255,42,0,1)" stroke="rgba(22,22,22,1)" stroke-width="0.5"/>
<path d="M170.905,112.245 C170.905,113.902 169.562,115.245 167.905,115.245 C166.248,115.245 164.905,113.902 164.905,112.245 C164.905,110.589 166.248,109.245 167.905,109.245 C169.562,109.245 170.905,110.589 170.905,112.245 Z" fill="rgba(255,42,0,1)" stroke="rgba(22,22,22,1)" stroke-width="0.5"/>
<path d="M171.325,154.417 C171.325,156.073 169.982,157.417 168.325,157.417 C166.668,157.417 165.325,156.073 165.325,154.417 C165.325,152.76 166.668,151.417 168.325,151.417 C169.982,151.417 171.325,152.76 171.325,154.417 Z" fill="rgba(255,42,0,1)" stroke="rgba(22,22,22,1)" stroke-width="0.5"/>
<path d="M170.299,139.726 C170.299,141.383 168.956,142.726 167.299,142.726 C165.642,142.726 164.299,141.383 164.299,139.726 C164.299,138.069 165.642,136.726 167.299,136.726 C168.956,136.726 170.299,138.069 170.299,139.726 Z" fill="rgba(255,42,0,1)" stroke="rgba(22,22,22,1)" stroke-width="0.5"/>
<path d="M176.153,201.009 C176.153,202.666 174.81,204.009 173.153,204.009 C171.496,204.009 170.153,202.666 170.153,201.009 C170.153,199.352 171.496,198.009 173.153,198.009 C174.81,198.009 176.153,199.352 176.153,201.009 Z" fill="rgba(255,42,0,1)" stroke="rgba(22,22,22,1)" stroke-width="0.5"/>
<path d="M168.879,177.28 C168.879,178.936 167.536,180.28 165.879,180.28 C164.223,180.28 162.879,178.936 162.879,177.28 C162.879,175.623 164.223,174.28 165.879,174.28 C167.536,174.28 168.879,175.623 168.879,177.28 Z" fill="rgba(255,42,0,1)" stroke="rgba(22,22,22,1)" stroke-width="0.5"/>
<path d="M227.642,202.374 C227.642,204.031 226.299,205.374 224.642,205.374 C222.986,205.374 221.642,204.031 221.642,202.374 C221.642,200.717 222.986,199.374 224.642,199.374 C226.299,199.374 227.642,200.717 227.642,202.374 Z" fill="rgba(255,42,0,1)" stroke="rgba(22,22,22,1)" stroke-width="0.5"/>
<path d="M162.042,183.641 C162.042,185.297 160.699,186.641 159.042,186.641 C157.385,186.641 156.042,185.297 156.042,183.641 C156.042,181.984 157.385,180.641 159.042,180.641 C160.699,180.641 162.042,181.984 162.042,183.641 Z" fill="rgba(255,42,0,1)" stroke="rgba(22,22,22,1)" stroke-width="0.5"/>
<path d="M154.773,117.933 C154.773,119.59 153.429,120.933 151.773,120.933 C150.116,120.933 148.773,119.59 148.773,117.933 C148.773,116.276 150.116,114.933 151.773,114.933 C153.429,114.933 154.773,116.276 154.773,117.933 Z" fill="rgba(255,42,0,1)" stroke="rgba(22,22,22,1)" stroke-width="0.5"/>
<path d="M162.285,114.888 C162.285,116.545 160.942,117.888 159.285,117.888 C157.628,117.888 156.285,116.545 156.285,114.888 C156.285,113.231 157.628,111.888 159.285,111.888 C160.942,111.888 162.285,113.231 162.285,114.888 Z" fill="rgba(255,42,0,1)" stroke="rgba(22,22,22,1)" stroke-width="0.5"/>
<path d="M153.755,143.273 C153.755,144.93 152.412,146.273 150.755,146.273 C149.099,146.273 147.755,144.93 147.755,143.273 C147.755,141.616 149.099,140.273 150.755,140.273 C152.412,140.273 153.755,141.616 153.755,143.273 Z" fill="rgba(255,42,0,1)" stroke="rgba(22,22,22,1)" stroke-width="0.5"/>
<path d="M182.372,210.912 C182.372,212.569 181.028,213.912 179.372,213.912 C177.715,213.912 176.372,212.569 176.372,210.912 C176.372,209.255 177.715,207.912 179.372,207.912 C181.028,207.912 182.372,209.255 182.372,210.912 Z" fill="rgba(255,42,0,1)" stroke="rgba(22,22,22,1)" stroke-width="0.5"/>
<path d="M161.983,157.635 C161.983,159.292 160.64,160.635 158.983,160.635 C157.327,160.635 155.983,159.292 155.983,157.635 C155.983,155.979 157.327,154.635 158.983,154.635 C160.64,154.635 161.983,155.979 161.983,157.635 Z" fill="rgba(255,42,0,1)" stroke="rgba(22,22,22,1)" stroke-width="0.5"/>
<path d="M162.272,172.423 C162.272,174.08 160.929,175.423 159.272,175.423 C157.615,175.423 156.272,174.08 156.272,172.423 C156.272,170.766 157.615,169.423 159.272,169.423 C160.929,169.423 162.272,170.766 162.272,172.423 Z" fill="rgba(255,42,0,1)" stroke="rgba(22,22,22,1)" stroke-width="0.5"/>
<path d="M154.723,175.69 C154.723,177.347 153.38,178.69 151.723,178.69 C150.067,178.69 148.723,177.347 148.723,175.69 C148.723,174.033 150.067,172.69 151.723,172.69 C153.38,172.69 154.723,174.033 154.723,175.69 Z" fill="rgba(255,42,0,1)" stroke="rgba(22,22,22,1)" stroke-width="0.5"/>
<path d="M168.383,206.993 C168.383,208.65 167.04,209.993 165.383,209.993 C163.726,209.993 162.383,208.65 162.383,206.993 C162.383,205.336 163.726,203.993 165.383,203.993 C167.04,203.993 168.383,205.336 168.383,206.993 Z" fill="rgba(255,42,0,1)" stroke="rgba(22,22,22,1)" stroke-width="0.5"/>
<path d="M153.291,125.989 C153.291,127.646 151.948,128.989 150.291,128.989 C148.634,128.989 147.291,127.646 147.291,125.989 C147.291,124.332 148.634,122.989 150.291,122.989 C151.948,122.989 153.291,124.332 153.291,125.989 Z" fill="rgba(255,42,0,1)" stroke="rgba(22,22,22,1)" stroke-width="0.5"/>
<path d="M161.715,147.733 C161.715,149.39 160.372,150.733 158.715,150.733 C157.058,150.733 155.715,149.39 155.715,147.733 C155.715,146.076 157.058,144.733 158.715,144.733 C160.372,144.733 161.715,146.076 161.715,147.733 Z" fill="rgba(255,42,0,1)" stroke="rgba(22,22,22,1)" stroke-width="0.5"/>
<path d="M148.208,168.71 C148.208,170.367 146.864,171.71 145.208,171.71 C143.551,171.71 142.208,170.367 142.208,168.71 C142.208,167.053 143.551,165.71 145.208,165.71 C146.864,165.71 148.208,167.053 148.208,168.71 Z" fill="rgba(255,42,0,1)" stroke="rgba(22,22,22,1)" stroke-width="0.5"/>
<path d="M176.109,126.425 C176.109,128.081 174.765,129.425 173.109,129.425 C171.452,129.425 170.109,128.081 170.109,126.425 C170.109,124.768 171.452,123.425 173.109,123.425 C174.765,123.425 176.109,124.768 176.109,126.425 Z" fill="rgba(255,42,0,1)" stroke="rgba(22,22,22,1)" stroke-width="0.5"/>
<path d="M151.015,189.401 C151.015,191.057 149.672,192.401 148.015,192.401 C146.358,192.401 145.015,191.057 145.015,189.401 C145.015,187.744 146.358,186.401 148.015,186.401 C149.672,186.401 151.015,187.744 151.015,189.401 Z" fill="rgba(255,42,0,1)" stroke="rgba(22,22,22,1)" stroke-width="0.5"/>
<path d="M148.61,154.02 C148.61,155.677 147.267,157.02 145.61,157.02 C143.954,157.02 142.61,155.677 142.61,154.02 C142.61,152.363 143.954,151.02 145.61,151.02 C147.267,151.02 148.61,152.363 148.61,154.02 Z" fill="rgba(255,42,0,1)" stroke="rgba(22,22,22,1)" stroke-width="0.5"/>
<path d="M147.193,180.089 C147.193,181.746 145.85,183.089 144.193,183.089 C142.537,183.089 141.193,181.746 141.193,180.089 C141.193,178.432 142.537,177.089 144.193,177.089 C145.85,177.089 147.193,178.432 147.193,180.089 Z" fill="rgba(255,42,0,1)" stroke="rgba(22,22,22,1)" stroke-width="0.5"/>
<path d="M134.272,163.349 C134.272,165.006 132.929,166.349 131.272,166.349 C129.615,166.349 128.272,165.006 128.272,163.349 C128.272,161.693 129.615,160.349 131.272,160.349 C132.929,160.349 134.272,161.693 134.272,163.349 Z" fill="rgba(255,42,0,1)" stroke="rgba(22,22,22,1)" stroke-width="0.5"/>
<path d="M140.187,153.571 C140.187,155.228 138.844,156.571 137.187,156.571 C135.53,156.571 134.187,155.228 134.187,153.571 C134.187,151.914 135.53,150.571 137.187,150.571 C138.844,150.571 140.187,151.914 140.187,153.571 Z" fill="rgba(255,42,0,1)" stroke="rgba(22,22,22,1)" stroke-width="0.5"/>
<path d="M140.759,117.527 C140.759,119.184 139.416,120.527 137.759,120.527 C136.102,120.527 134.759,119.184 134.759,117.527 C134.759,115.87 136.102,114.527 137.759,114.527 C139.416,114.527 140.759,115.87 140.759,117.527 Z" fill="rgba(255,42,0,1)" stroke="rgba(22,22,22,1)" stroke-width="0.5"/>
<path d="M127.218,175.367 C127.218,177.023 125.875,178.367 124.218,178.367 C122.562,178.367 121.218,177.023 121.218,175.367 C121.218,173.71 122.562,172.367 124.218,172.367 C125.875,172.367 127.218,173.71 127.218,175.367 Z" fill="rgba(255,42,0,1)" stroke="rgba(22,22,22,1)" stroke-width="0.5"/>
<path d="M150.509,200.051 C150.509,201.708 149.166,203.051 147.509,203.051 C145.852,203.051 144.509,201.708 144.509,200.051 C144.509,198.395 145.852,197.051 147.509,197.051 C149.166,197.051 150.509,198.395 150.509,200.051 Z" fill="rgba(255,42,0,1)" stroke="rgba(22,22,22,1)" stroke-width="0.5"/>
<path d="M140.048,145.181 C140.048,146.838 138.705,148.181 137.048,148.181 C135.391,148.181 134.048,146.838 134.048,145.181 C134.048,143.524 135.391,142.181 137.048,142.181 C138.705,142.181 140.048,143.524 140.048,145.181 Z" fill="rgba(255,42,0,1)" stroke="rgba(22,22,22,1)" stroke-width="0.5"/>
<path d="M146.38,209.218 C146.38,210.874 145.037,212.218 143.38,212.218 C141.723,212.218 140.38,210.874 140.38,209.218 C140.38,207.561 141.723,206.218 143.38,206.218 C145.037,206.218 146.38,207.561 146.38,209.218 Z" fill="rgba(255,42,0,1)" stroke="rgba(22,22,22,1)" stroke-width="0.5"/>
<path d="M122.112,161.321 C122.112,162.978 120.769,164.321 119.112,164.321 C117.456,164.321 116.112,162.978 116.112,161.321 C116.112,159.665 117.456,158.321 119.112,158.321 C120.769,158.321 122.112,159.665 122.112,161.321 Z" fill="rgba(255,42,0,1)" stroke="rgba(22,22,22,1)" stroke-width="0.5"/>
<path d="M111.134,156.901 C111.134,158.558 109.791,159.901 108.134,159.901 C106.477,159.901 105.134,158.558 105.134,156.901 C105.134,155.245 106.477,153.901 108.134,153.901 C109.791,153.901 111.134,155.245 111.134,156.901 Z" fill="rgba(255,42,0,1)" stroke="rgba(22,22,22,1)" stroke-width="0.5"/>
<path d="M140.22,174.922 C140.22,176.579 138.877,177.922 137.22,177.922 C135.563,177.922 134.22,176.579 134.22,174.922 C134.22,173.265 135.563,171.922 137.22,171.922 C138.877,171.922 140.22,173.265 140.22,174.922 Z" fill="rgba(255,42,0,1)" stroke="rgba(22,22,22,1)" stroke-width="0.5"/>
<path d="M158.499,200.704 C158.499,202.361 157.156,203.704 155.499,203.704 C153.842,203.704 152.499,202.361 152.499,200.704 C152.499,199.048 153.842,197.704 155.499,197.704 C157.156,197.704 158.499,199.048 158.499,200.704 Z" fill="rgba(255,42,0,1)" stroke="rgba(22,22,22,1)" stroke-width="0.5"/>
<path d="M142.247,193.175 C142.247,194.831 140.904,196.175 139.247,196.175 C137.59,196.175 136.247,194.831 136.247,193.175 C136.247,191.518 137.59,190.175 139.247,190.175 C140.904,190.175 142.247,191.518 142.247,193.175 Z" fill="rgba(255,42,0,1)" stroke="rgba(22,22,22,1)" stroke-width="0.5"/>
<path d="M147.752,136.63 C147.752,138.286 146.409,139.63 144.752,139.63 C143.096,139.63 141.752,138.286 141.752,136.63 C141.752,134.973 143.096,133.63 144.752,133.63 C146.409,133.63 147.752,134.973 147.752,136.63 Z" fill="rgba(255,42,0,1)" stroke="rgba(22,22,22,1)" stroke-width="0.5"/>
<path d="M139.647,134.859 C139.647,136.516 138.304,137.859 136.647,137.859 C134.99,137.859 133.647,136.516 133.647,134.859 C133.647,133.202 134.99,131.859 136.647,131.859 C138.304,131.859 139.647,133.202 139.647,134.859 Z" fill="rgba(255,42,0,1)" stroke="rgba(22,22,22,1)" stroke-width="0.5"/>
<path d="M158.473,210.892 C158.473,212.549 157.13,213.892 155.473,213.892 C153.816,213.892 152.473,212.549 152.473,210.892 C152.473,209.235 153.816,207.892 155.473,207.892 C157.13,207.892 158.473,209.235 158.473,210.892 Z" fill="rgba(255,42,0,1)" stroke="rgba(22,22,22,1)" stroke-width="0.5"/>
<path d="M128.047,116.056 C128.047,117.713 126.704,119.056 125.047,119.056 C123.39,119.056 122.047,117.713 122.047,116.056 C122.047,114.399 123.39,113.056 125.047,113.056 C126.704,113.056 128.047,114.399 128.047,116.056 Z" fill="rgba(255,42,0,1)" stroke="rgba(22,22,22,1)" stroke-width="0.5"/>
<path d="M135.577,185.631 C135.577,187.288 134.234,188.631 132.577,188.631 C130.92,188.631 129.577,187.288 129.577,185.631 C129.577,183.974 130.92,182.631 132.577,182.631 C134.234,182.631 135.577,183.974 135.577,185.631 Z" fill="rgba(255,42,0,1)" stroke="rgba(22,22,22,1)" stroke-width="0.5"/>
<path d="M116.223,114.937 C116.223,116.594 114.88,117.937 113.223,117.937 C111.566,117.937 110.223,116.594 110.223,114.937 C110.223,113.28 111.566,111.937 113.223,111.937 C114.88,111.937 116.223,113.28 116.223,114.937 Z" fill="rgba(255,42,0,1)" stroke="rgba(22,22,22,1)" stroke-width="0.5"/>
<path d="M129.226,152.768 C129.226,154.425 127.883,155.768 126.226,155.768 C124.569,155.768 123.226,154.425 123.226,152.768 C123.226,151.111 124.569,149.768 126.226,149.768 C127.883,149.768 129.226,151.111 129.226,152.768 Z" fill="rgba(255,42,0,1)" stroke="rgba(22,22,22,1)" stroke-width="0.5"/>
<path d="M110.571,165.58 C110.571,167.237 109.228,168.58 107.571,168.58 C105.914,168.58 104.571,167.237 104.571,165.58 C104.571,163.923 105.914,162.58 107.571,162.58 C109.228,162.58 110.571,163.923 110.571,165.58 Z" fill="rgba(255,42,0,1)" stroke="rgba(22,22,22,1)" stroke-width="0.5"/>
<path d="M121.121,145.735 C121.121,147.391 119.778,148.735 118.121,148.735 C116.464,148.735 115.121,147.391 115.121,145.735 C115.121,144.078 116.464,142.735 118.121,142.735 C119.778,142.735 121.121,144.078 121.121,145.735 Z" fill="rgba(255,42,0,1)" stroke="rgba(22,22,22,1)" stroke-width="0.5"/>
<path d="M138.862,126.867 C138.862,128.524 137.519,129.867 135.862,129.867 C134.205,129.867 132.862,128.524 132.862,126.867 C132.862,125.21 134.205,123.867 135.862,123.867 C137.519,123.867 138.862,125.21 138.862,126.867 Z" fill="rgba(255,42,0,1)" stroke="rgba(22,22,22,1)" stroke-width="0.5"/>
<path d="M124.218,128.851 C124.218,130.507 122.874,131.851 121.218,131.851 C119.561,131.851 118.218,130.507 118.218,128.851 C118.218,127.194 119.561,125.851 121.218,125.851 C122.874,125.851 124.218,127.194 124.218,128.851 Z" fill="rgba(255,42,0,1)" stroke="rgba(22,22,22,1)" stroke-width="0.5"/>
<path d="M160.008,192.156 C160.008,193.813 158.665,195.156 157.008,195.156 C155.351,195.156 154.008,193.813 154.008,192.156 C154.008,190.5 155.351,189.156 157.008,189.156 C158.665,189.156 160.008,190.5 160.008,192.156 Z" fill="rgba(255,42,0,1)" stroke="rgba(22,22,22,1)" stroke-width="0.5"/>
<path d="M135.501,199.693 C135.501,201.35 134.158,202.693 132.501,202.693 C130.844,202.693 129.501,201.35 129.501,199.693 C129.501,198.036 130.844,196.693 132.501,196.693 C134.158,196.693 135.501,198.036 135.501,199.693 Z" fill="rgba(255,42,0,1)" stroke="rgba(22,22,22,1)" stroke-width="0.5"/>
<path d="M130.106,144.329 C130.106,145.986 128.763,147.329 127.106,147.329 C125.449,147.329 124.106,145.986 124.106,144.329 C124.106,142.672 125.449,141.329 127.106,141.329 C128.763,141.329 130.106,142.672 130.106,144.329 Z" fill="rgba(255,42,0,1)" stroke="rgba(22,22,22,1)" stroke-width="0.5"/>
<path d="M100.673,165.762 C100.673,167.418 99.33,168.762 97.673,168.762 C96.016,168.762 94.673,167.418 94.673,165.762 C94.673,164.105 96.016,162.762 97.673,162.762 C99.33,162.762 100.673,164.105 100.673,165.762 Z" fill="rgba(255,42,0,1)" stroke="rgba(22,22,22,1)" stroke-width="0.5"/>
<path d="M129.223,190.557 C129.223,192.214 127.88,193.557 126.223,193.557 C124.566,193.557 123.223,192.214 123.223,190.557 C123.223,188.9 124.566,187.557 126.223,187.557 C127.88,187.557 129.223,188.9 129.223,190.557 Z" fill="rgba(255,42,0,1)" stroke="rgba(22,22,22,1)" stroke-width="0.5"/>
<path d="M110.098,141.987 C110.098,143.643 108.754,144.987 107.098,144.987 C105.441,144.987 104.098,143.643 104.098,141.987 C104.098,140.33 105.441,138.987 107.098,138.987 C108.754,138.987 110.098,140.33 110.098,141.987 Z" fill="rgba(255,42,0,1)" stroke="rgba(22,22,22,1)" stroke-width="0.5"/>
<path d="M107.001,115.611 C107.001,117.268 105.658,118.611 104.001,118.611 C102.344,118.611 101.001,117.268 101.001,115.611 C101.001,113.954 102.344,112.611 104.001,112.611 C105.658,112.611 107.001,113.954 107.001,115.611 Z" fill="rgba(255,42,0,1)" stroke="rgba(22,22,22,1)" stroke-width="0.5"/>
<path d="M117.435,123.583 C117.435,125.24 116.091,126.583 114.435,126.583 C112.778,126.583 111.435,125.24 111.435,123.583 C111.435,121.926 112.778,120.583 114.435,120.583 C116.091,120.583 117.435,121.926 117.435,123.583 Z" fill="rgba(255,42,0,1)" stroke="rgba(22,22,22,1)" stroke-width="0.5"/>
<path d="M131.13,135.639 C131.13,137.296 129.787,138.639 128.13,138.639 C126.473,138.639 125.13,137.296 125.13,135.639 C125.13,133.982 126.473,132.639 128.13,132.639 C129.787,132.639 131.13,133.982 131.13,135.639 Z" fill="rgba(255,42,0,1)" stroke="rgba(22,22,22,1)" stroke-width="0.5"/>
<path d="M107.097,126.718 C107.097,128.375 105.753,129.718 104.097,129.718 C102.44,129.718 101.097,128.375 101.097,126.718 C101.097,125.062 102.44,123.718 104.097,123.718 C105.753,123.718 107.097,125.062 107.097,126.718 Z" fill="rgba(255,42,0,1)" stroke="rgba(22,22,22,1)" stroke-width="0.5"/>
<path d="M98.46,141.643 C98.46,143.3 97.116,144.643 95.46,144.643 C93.803,144.643 92.46,143.3 92.46,141.643 C92.46,139.986 93.803,138.643 95.46,138.643 C97.116,138.643 98.46,139.986 98.46,141.643 Z" fill="rgba(255,42,0,1)" stroke="rgba(22,22,22,1)" stroke-width="0.5"/>
<path d="M92.038,124.33 C92.038,125.987 90.695,127.33 89.038,127.33 C87.381,127.33 86.038,125.987 86.038,124.33 C86.038,122.673 87.381,121.33 89.038,121.33 C90.695,121.33 92.038,122.673 92.038,124.33 Z" fill="rgba(255,42,0,1)" stroke="rgba(22,22,22,1)" stroke-width="0.5"/>
<path d="M117.056,135.676 C117.056,137.333 115.713,138.676 114.056,138.676 C112.399,138.676 111.056,137.333 111.056,135.676 C111.056,134.019 112.399,132.676 114.056,132.676 C115.713,132.676 117.056,134.019 117.056,135.676 Z" fill="rgba(255,42,0,1)" stroke="rgba(22,22,22,1)" stroke-width="0.5"/>
<path d="M113.983,187.32 C113.983,188.977 112.639,190.32 110.983,190.32 C109.326,190.32 107.983,188.977 107.983,187.32 C107.983,185.663 109.326,184.32 110.983,184.32 C112.639,184.32 113.983,185.663 113.983,187.32 Z" fill="rgba(255,42,0,1)" stroke="rgba(22,22,22,1)" stroke-width="0.5"/>
<path d="M138.254,208.942 C138.254,210.599 136.91,211.942 135.254,211.942 C133.597,211.942 132.254,210.599 132.254,208.942 C132.254,207.286 133.597,205.942 135.254,205.942 C136.91,205.942 138.254,207.286 138.254,208.942 Z" fill="rgba(255,42,0,1)" stroke="rgba(22,22,22,1)" stroke-width="0.5"/>
<path d="M118.312,172.231 C118.312,173.888 116.968,175.231 115.312,175.231 C113.655,175.231 112.312,173.888 112.312,172.231 C112.312,170.574 113.655,169.231 115.312,169.231 C116.968,169.231 118.312,170.574 118.312,172.231 Z" fill="rgba(255,42,0,1)" stroke="rgba(22,22,22,1)" stroke-width="0.5"/>
<path d="M124.273,204.141 C124.273,205.798 122.93,207.141 121.273,207.141 C119.616,207.141 118.273,205.798 118.273,204.141 C118.273,202.485 119.616,201.141 121.273,201.141 C122.93,201.141 124.273,202.485 124.273,204.141 Z" fill="rgba(255,42,0,1)" stroke="rgba(22,22,22,1)" stroke-width="0.5"/>
<path d="M99.029,113.006 C99.029,114.663 97.686,116.006 96.029,116.006 C94.372,116.006 93.029,114.663 93.029,113.006 C93.029,111.349 94.372,110.006 96.029,110.006 C97.686,110.006 99.029,111.349 99.029,113.006 Z" fill="rgba(255,42,0,1)" stroke="rgba(22,22,22,1)" stroke-width="0.5"/>
<path d="M83.624,116.18 C83.624,117.836 82.281,119.18 80.624,119.18 C78.967,119.18 77.624,117.836 77.624,116.18 C77.624,114.523 78.967,113.18 80.624,113.18 C82.281,113.18 83.624,114.523 83.624,116.18 Z" fill="rgba(255,42,0,1)" stroke="rgba(22,22,22,1)" stroke-width="0.5"/>
<path d="M122.708,183.22 C122.708,184.877 121.365,186.22 119.708,186.22 C118.051,186.22 116.708,184.877 116.708,183.22 C116.708,181.563 118.051,180.22 119.708,180.22 C121.365,180.22 122.708,181.563 122.708,183.22 Z" fill="rgba(255,42,0,1)" stroke="rgba(22,22,22,1)" stroke-width="0.5"/>
<path d="M99.724,150.621 C99.724,152.278 98.38,153.621 96.724,153.621 C95.067,153.621 93.724,152.278 93.724,150.621 C93.724,148.965 95.067,147.621 96.724,147.621 C98.38,147.621 99.724,148.965 99.724,150.621 Z" fill="rgba(255,42,0,1)" stroke="rgba(22,22,22,1)" stroke-width="0.5"/>
<path d="M100.514,180.205 C100.514,181.862 99.171,183.205 97.514,183.205 C95.857,183.205 94.514,181.862 94.514,180.205 C94.514,178.548 95.857,177.205 97.514,177.205 C99.171,177.205 100.514,178.548 100.514,180.205 Z" fill="rgba(255,42,0,1)" stroke="rgba(22,22,22,1)" stroke-width="0.5"/>
<path d="M105.558,173.374 C105.558,175.03 104.215,176.374 102.558,176.374 C100.901,176.374 99.558,175.03 99.558,173.374 C99.558,171.717 100.901,170.374 102.558,170.374 C104.215,170.374 105.558,171.717 105.558,173.374 Z" fill="rgba(255,42,0,1)" stroke="rgba(22,22,22,1)" stroke-width="0.5"/>
<path d="M93.536,187.979 C93.536,189.635 92.193,190.979 90.536,190.979 C88.88,190.979 87.536,189.635 87.536,187.979 C87.536,186.322 88.88,184.979 90.536,184.979 C92.193,184.979 93.536,186.322 93.536,187.979 Z" fill="rgba(255,42,0,1)" stroke="rgba(22,22,22,1)" stroke-width="0.5"/>
<path d="M111.58,179.593 C111.58,181.25 110.237,182.593 108.58,182.593 C106.924,182.593 105.58,181.25 105.58,179.593 C105.58,177.937 106.924,176.593 108.58,176.593 C110.237,176.593 111.58,177.937 111.58,179.593 Z" fill="rgba(255,42,0,1)" stroke="rgba(22,22,22,1)" stroke-width="0.5"/>
<path d="M104.814,192.222 C104.814,193.879 103.471,195.222 101.814,195.222 C100.157,195.222 98.814,193.879 98.814,192.222 C98.814,190.565 100.157,189.222 101.814,189.222 C103.471,189.222 104.814,190.565 104.814,192.222 Z" fill="rgba(255,42,0,1)" stroke="rgba(22,22,22,1)" stroke-width="0.5"/>
<path d="M118.948,153.732 C118.948,155.389 117.605,156.732 115.948,156.732 C114.291,156.732 112.948,155.389 112.948,153.732 C112.948,152.075 114.291,150.732 115.948,150.732 C117.605,150.732 118.948,152.075 118.948,153.732 Z" fill="rgba(255,42,0,1)" stroke="rgba(22,22,22,1)" stroke-width="0.5"/>
<path d="M121.67,194.105 C121.67,195.762 120.327,197.105 118.67,197.105 C117.013,197.105 115.67,195.762 115.67,194.105 C115.67,192.449 117.013,191.105 118.67,191.105 C120.327,191.105 121.67,192.449 121.67,194.105 Z" fill="rgba(255,42,0,1)" stroke="rgba(22,22,22,1)" stroke-width="0.5"/>
<path d="M111.655,198.005 C111.655,199.662 110.312,201.005 108.655,201.005 C106.998,201.005 105.655,199.662 105.655,198.005 C105.655,196.348 106.998,195.005 108.655,195.005 C110.312,195.005 111.655,196.348 111.655,198.005 Z" fill="rgba(255,42,0,1)" stroke="rgba(22,22,22,1)" stroke-width="0.5"/>
<path d="M118.135,210.743 C118.135,212.4 116.792,213.743 115.135,213.743 C113.479,213.743 112.135,212.4 112.135,210.743 C112.135,209.086 113.479,207.743 115.135,207.743 C116.792,207.743 118.135,209.086 118.135,210.743 Z" fill="rgba(255,42,0,1)" stroke="rgba(22,22,22,1)" stroke-width="0.5"/>
<path d="M93.117,169.938 C93.117,171.595 91.774,172.938 90.117,172.938 C88.461,172.938 87.117,171.595 87.117,169.938 C87.117,168.281 88.461,166.938 90.117,166.938 C91.774,166.938 93.117,168.281 93.117,169.938 Z" fill="rgba(255,42,0,1)" stroke="rgba(22,22,22,1)" stroke-width="0.5"/>
<path d="M91.771,149.386 C91.771,151.043 90.428,152.386 88.771,152.386 C87.114,152.386 85.771,151.043 85.771,149.386 C85.771,147.729 87.114,146.386 88.771,146.386 C90.428,146.386 91.771,147.729 91.771,149.386 Z" fill="rgba(255,42,0,1)" stroke="rgba(22,22,22,1)" stroke-width="0.5"/>
<path d="M99.563,201.893 C99.563,203.55 98.22,204.893 96.563,204.893 C94.906,204.893 93.563,203.55 93.563,201.893 C93.563,200.236 94.906,198.893 96.563,198.893 C98.22,198.893 99.563,200.236 99.563,201.893 Z" fill="rgba(255,42,0,1)" stroke="rgba(22,22,22,1)" stroke-width="0.5"/>
<path d="M95.185,132.249 C95.185,133.906 93.842,135.249 92.185,135.249 C90.528,135.249 89.185,133.906 89.185,132.249 C89.185,130.592 90.528,129.249 92.185,129.249 C93.842,129.249 95.185,130.592 95.185,132.249 Z" fill="rgba(255,42,0,1)" stroke="rgba(22,22,22,1)" stroke-width="0.5"/>
<path d="M106.345,209.741 C106.345,211.398 105.001,212.741 103.345,212.741 C101.688,212.741 100.345,211.398 100.345,209.741 C100.345,208.084 101.688,206.741 103.345,206.741 C105.001,206.741 106.345,208.084 106.345,209.741 Z" fill="rgba(255,42,0,1)" stroke="rgba(22,22,22,1)" stroke-width="0.5"/>
<path d="M81.128,182.757 C81.128,184.413 79.785,185.757 78.128,185.757 C76.471,185.757 75.128,184.413 75.128,182.757 C75.128,181.1 76.471,179.757 78.128,179.757 C79.785,179.757 81.128,181.1 81.128,182.757 Z" fill="rgba(255,42,0,1)" stroke="rgba(22,22,22,1)" stroke-width="0.5"/>
<path d="M84.012,191.512 C84.012,193.169 82.669,194.512 81.012,194.512 C79.355,194.512 78.012,193.169 78.012,191.512 C78.012,189.855 79.355,188.512 81.012,188.512 C82.669,188.512 84.012,189.855 84.012,191.512 Z" fill="rgba(255,42,0,1)" stroke="rgba(22,22,22,1)" stroke-width="0.5"/>
<path d="M77.119,120.956 C77.119,122.613 75.776,123.956 74.119,123.956 C72.462,123.956 71.119,122.613 71.119,120.956 C71.119,119.299 72.462,117.956 74.119,117.956 C75.776,117.956 77.119,119.299 77.119,120.956 Z" fill="rgba(255,42,0,1)" stroke="rgba(22,22,22,1)" stroke-width="0.5"/>
<path d="M90.869,199.72 C90.869,201.377 89.526,202.72 87.869,202.72 C86.213,202.72 84.869,201.377 84.869,199.72 C84.869,198.063 86.213,196.72 87.869,196.72 C89.526,196.72 90.869,198.063 90.869,199.72 Z" fill="rgba(255,42,0,1)" stroke="rgba(22,22,22,1)" stroke-width="0.5"/>
<path d="M85.139,137.535 C85.139,139.192 83.796,140.535 82.139,140.535 C80.482,140.535 79.139,139.192 79.139,137.535 C79.139,135.878 80.482,134.535 82.139,134.535 C83.796,134.535 85.139,135.878 85.139,137.535 Z" fill="rgba(255,42,0,1)" stroke="rgba(22,22,22,1)" stroke-width="0.5"/>
<path d="M89.93,179.13 C89.93,180.786 88.587,182.13 86.93,182.13 C85.273,182.13 83.93,180.786 83.93,179.13 C83.93,177.473 85.273,176.13 86.93,176.13 C88.587,176.13 89.93,177.473 89.93,179.13 Z" fill="rgba(255,42,0,1)" stroke="rgba(22,22,22,1)" stroke-width="0.5"/>
<path d="M149.542,111.272 C149.542,112.929 148.198,114.272 146.542,114.272 C144.885,114.272 143.542,112.929 143.542,111.272 C143.542,109.615 144.885,108.272 146.542,108.272 C148.198,108.272 149.542,109.615 149.542,111.272 Z" fill="rgba(255,42,0,1)" stroke="rgba(22,22,22,1)" stroke-width="0.5"/>
<path d="M87.35,159.458 C87.35,161.115 86.007,162.458 84.35,162.458 C82.693,162.458 81.35,161.115 81.35,159.458 C81.35,157.801 82.693,156.458 84.35,156.458 C86.007,156.458 87.35,157.801 87.35,159.458 Z" fill="rgba(255,42,0,1)" stroke="rgba(22,22,22,1)" stroke-width="0.5"/>
<path d="M71.982,113.047 C71.982,114.704 70.639,116.047 68.982,116.047 C67.325,116.047 65.982,114.704 65.982,113.047 C65.982,111.39 67.325,110.047 68.982,110.047 C70.639,110.047 71.982,111.39 71.982,113.047 Z" fill="rgba(255,42,0,1)" stroke="rgba(22,22,22,1)" stroke-width="0.5"/>
<path d="M219.755,187.665 C219.755,189.322 218.412,190.665 216.755,190.665 C215.098,190.665 213.755,189.322 213.755,187.665 C213.755,186.009 215.098,184.665 216.755,184.665 C218.412,184.665 219.755,186.009 219.755,187.665 Z" fill="rgba(255,42,0,1)" stroke="rgba(22,22,22,1)" stroke-width="0.5"/>
<path d="M104.566,135.551 C104.566,137.208 103.223,138.551 101.566,138.551 C99.909,138.551 98.566,137.208 98.566,135.551 C98.566,133.894 99.909,132.551 101.566,132.551 C103.223,132.551 104.566,133.894 104.566,135.551 Z" fill="rgba(255,42,0,1)" stroke="rgba(22,22,22,1)" stroke-width="0.5"/>
<path d="M75.637,142.966 C75.637,144.623 74.294,145.966 72.637,145.966 C70.98,145.966 69.637,144.623 69.637,142.966 C69.637,141.309 70.98,139.966 72.637,139.966 C74.294,139.966 75.637,141.309 75.637,142.966 Z" fill="rgba(255,42,0,1)" stroke="rgba(22,22,22,1)" stroke-width="0.5"/>
<path d="M84.191,167.279 C84.191,168.935 82.848,170.279 81.191,170.279 C79.534,170.279 78.191,168.935 78.191,167.279 C78.191,165.622 79.534,164.279 81.191,164.279 C82.848,164.279 84.191,165.622 84.191,167.279 Z" fill="rgba(255,42,0,1)" stroke="rgba(22,22,22,1)" stroke-width="0.5"/>
<path d="M84.45,128.705 C84.45,130.362 83.107,131.705 81.45,131.705 C79.793,131.705 78.45,130.362 78.45,128.705 C78.45,127.048 79.793,125.705 81.45,125.705 C83.107,125.705 84.45,127.048 84.45,128.705 Z" fill="rgba(255,42,0,1)" stroke="rgba(22,22,22,1)" stroke-width="0.5"/>
<path d="M66.292,125.044 C66.292,126.701 64.949,128.044 63.292,128.044 C61.635,128.044 60.292,126.701 60.292,125.044 C60.292,123.387 61.635,122.044 63.292,122.044 C64.949,122.044 66.292,123.387 66.292,125.044 Z" fill="rgba(255,42,0,1)" stroke="rgba(22,22,22,1)" stroke-width="0.5"/>
<path d="M75.45,166.292 C75.45,167.949 74.107,169.292 72.45,169.292 C70.793,169.292 69.45,167.949 69.45,166.292 C69.45,164.635 70.793,163.292 72.45,163.292 C74.107,163.292 75.45,164.635 75.45,166.292 Z" fill="rgba(255,42,0,1)" stroke="rgba(22,22,22,1)" stroke-width="0.5"/>
<path d="M76.13,153.912 C76.13,155.569 74.787,156.912 73.13,156.912 C71.473,156.912 70.13,155.569 70.13,153.912 C70.13,152.256 71.473,150.912 73.13,150.912 C74.787,150.912 76.13,152.256 76.13,153.912 Z" fill="rgba(255,42,0,1)" stroke="rgba(22,22,22,1)" stroke-width="0.5"/>
<path d="M92.608,209.597 C92.608,211.254 91.265,212.597 89.608,212.597 C87.951,212.597 86.608,211.254 86.608,209.597 C86.608,207.94 87.951,206.597 89.608,206.597 C91.265,206.597 92.608,207.94 92.608,209.597 Z" fill="rgba(255,42,0,1)" stroke="rgba(22,22,22,1)" stroke-width="0.5"/>
<path d="M65.104,149.644 C65.104,151.301 63.76,152.644 62.104,152.644 C60.447,152.644 59.104,151.301 59.104,149.644 C59.104,147.987 60.447,146.644 62.104,146.644 C63.76,146.644 65.104,147.987 65.104,149.644 Z" fill="rgba(255,42,0,1)" stroke="rgba(22,22,22,1)" stroke-width="0.5"/>
<path d="M100.267,121.307 C100.267,122.964 98.924,124.307 97.267,124.307 C95.611,124.307 94.267,122.964 94.267,121.307 C94.267,119.65 95.611,118.307 97.267,118.307 C98.924,118.307 100.267,119.65 100.267,121.307 Z" fill="rgba(255,42,0,1)" stroke="rgba(22,22,22,1)" stroke-width="0.5"/>
<path d="M69.521,160.487 C69.521,162.144 68.178,163.487 66.521,163.487 C64.864,163.487 63.521,162.144 63.521,160.487 C63.521,158.83 64.864,157.487 66.521,157.487 C68.178,157.487 69.521,158.83 69.521,160.487 Z" fill="rgba(255,42,0,1)" stroke="rgba(22,22,22,1)" stroke-width="0.5"/>
<path d="M79.112,174.428 C79.112,176.085 77.769,177.428 76.112,177.428 C74.455,177.428 73.112,176.085 73.112,174.428 C73.112,172.772 74.455,171.428 76.112,171.428 C77.769,171.428 79.112,172.772 79.112,174.428 Z" fill="rgba(255,42,0,1)" stroke="rgba(22,22,22,1)" stroke-width="0.5"/>
<path d="M81.026,201.376 C81.026,203.033 79.683,204.376 78.026,204.376 C76.37,204.376 75.026,203.033 75.026,201.376 C75.026,199.719 76.37,198.376 78.026,198.376 C79.683,198.376 81.026,199.719 81.026,201.376 Z" fill="rgba(255,42,0,1)" stroke="rgba(22,22,22,1)" stroke-width="0.5"/>
<path d="M57.36,155.672 C57.36,157.329 56.017,158.672 54.36,158.672 C52.703,158.672 51.36,157.329 51.36,155.672 C51.36,154.015 52.703,152.672 54.36,152.672 C56.017,152.672 57.36,154.015 57.36,155.672 Z" fill="rgba(255,42,0,1)" stroke="rgba(22,22,22,1)" stroke-width="0.5"/>
<path d="M61.637,163.309 C61.637,164.966 60.293,166.309 58.637,166.309 C56.98,166.309 55.637,164.966 55.637,163.309 C55.637,161.653 56.98,160.309 58.637,160.309 C60.293,160.309 61.637,161.653 61.637,163.309 Z" fill="rgba(255,42,0,1)" stroke="rgba(22,22,22,1)" stroke-width="0.5"/>
<path d="M58.385,143.575 C58.385,145.231 57.042,146.575 55.385,146.575 C53.728,146.575 52.385,145.231 52.385,143.575 C52.385,141.918 53.728,140.575 55.385,140.575 C57.042,140.575 58.385,141.918 58.385,143.575 Z" fill="rgba(255,42,0,1)" stroke="rgba(22,22,22,1)" stroke-width="0.5"/>
<path d="M58.634,114.309 C58.634,115.966 57.291,117.309 55.634,117.309 C53.977,117.309 52.634,115.966 52.634,114.309 C52.634,112.652 53.977,111.309 55.634,111.309 C57.291,111.309 58.634,112.652 58.634,114.309 Z" fill="rgba(255,42,0,1)" stroke="rgba(22,22,22,1)" stroke-width="0.5"/>
<path d="M70.199,185.688 C70.199,187.345 68.856,188.688 67.199,188.688 C65.542,188.688 64.199,187.345 64.199,185.688 C64.199,184.031 65.542,182.688 67.199,182.688 C68.856,182.688 70.199,184.031 70.199,185.688 Z" fill="rgba(255,42,0,1)" stroke="rgba(22,22,22,1)" stroke-width="0.5"/>
<path d="M70.023,174.498 C70.023,176.155 68.68,177.498 67.023,177.498 C65.366,177.498 64.023,176.155 64.023,174.498 C64.023,172.841 65.366,171.498 67.023,171.498 C68.68,171.498 70.023,172.841 70.023,174.498 Z" fill="rgba(255,42,0,1)" stroke="rgba(22,22,22,1)" stroke-width="0.5"/>
<path d="M55.649,128.719 C55.649,130.376 54.305,131.719 52.649,131.719 C50.992,131.719 49.649,130.376 49.649,128.719 C49.649,127.062 50.992,125.719 52.649,125.719 C54.305,125.719 55.649,127.062 55.649,128.719 Z" fill="rgba(255,42,0,1)" stroke="rgba(22,22,22,1)" stroke-width="0.5"/>
<path d="M72.522,133.827 C72.522,135.484 71.179,136.827 69.522,136.827 C67.865,136.827 66.522,135.484 66.522,133.827 C66.522,132.17 67.865,130.827 69.522,130.827 C71.179,130.827 72.522,132.17 72.522,133.827 Z" fill="rgba(255,42,0,1)" stroke="rgba(22,22,22,1)" stroke-width="0.5"/>
<path d="M60.839,135.728 C60.839,137.384 59.496,138.728 57.839,138.728 C56.182,138.728 54.839,137.384 54.839,135.728 C54.839,134.071 56.182,132.728 57.839,132.728 C59.496,132.728 60.839,134.071 60.839,135.728 Z" fill="rgba(255,42,0,1)" stroke="rgba(22,22,22,1)" stroke-width="0.5"/>
<path d="M48.747,157.966 C48.747,159.622 47.404,160.966 45.747,160.966 C44.09,160.966 42.747,159.622 42.747,157.966 C42.747,156.309 44.09,154.966 45.747,154.966 C47.404,154.966 48.747,156.309 48.747,157.966 Z" fill="rgba(255,42,0,1)" stroke="rgba(22,22,22,1)" stroke-width="0.5"/>
<path d="M48.699,149.881 C48.699,151.538 47.356,152.881 45.699,152.881 C44.042,152.881 42.699,151.538 42.699,149.881 C42.699,148.224 44.042,146.881 45.699,146.881 C47.356,146.881 48.699,148.224 48.699,149.881 Z" fill="rgba(255,42,0,1)" stroke="rgba(22,22,22,1)" stroke-width="0.5"/>
<path d="M51.479,139.103 C51.479,140.76 50.136,142.103 48.479,142.103 C46.822,142.103 45.479,140.76 45.479,139.103 C45.479,137.446 46.822,136.103 48.479,136.103 C50.136,136.103 51.479,137.446 51.479,139.103 Z" fill="rgba(255,42,0,1)" stroke="rgba(22,22,22,1)" stroke-width="0.5"/>
<path d="M90.998,112.252 C90.998,113.909 89.655,115.252 87.998,115.252 C86.341,115.252 84.998,113.909 84.998,112.252 C84.998,110.595 86.341,109.252 87.998,109.252 C89.655,109.252 90.998,110.595 90.998,112.252 Z" fill="rgba(255,42,0,1)" stroke="rgba(22,22,22,1)" stroke-width="0.5"/>
<path d="M63.515,196.289 C63.515,197.945 62.172,199.289 60.515,199.289 C58.858,199.289 57.515,197.945 57.515,196.289 C57.515,194.632 58.858,193.289 60.515,193.289 C62.172,193.289 63.515,194.632 63.515,196.289 Z" fill="rgba(255,42,0,1)" stroke="rgba(22,22,22,1)" stroke-width="0.5"/>
<path d="M83.139,147.168 C83.139,148.825 81.796,150.168 80.139,150.168 C78.482,150.168 77.139,148.825 77.139,147.168 C77.139,145.511 78.482,144.168 80.139,144.168 C81.796,144.168 83.139,145.511 83.139,147.168 Z" fill="rgba(255,42,0,1)" stroke="rgba(22,22,22,1)" stroke-width="0.5"/>
<path d="M42.782,136.587 C42.782,138.244 41.439,139.587 39.782,139.587 C38.125,139.587 36.782,138.244 36.782,136.587 C36.782,134.931 38.125,133.587 39.782,133.587 C41.439,133.587 42.782,134.931 42.782,136.587 Z" fill="rgba(255,42,0,1)" stroke="rgba(22,22,22,1)" stroke-width="0.5"/>
<path d="M60.728,186.568 C60.728,188.225 59.385,189.568 57.728,189.568 C56.071,189.568 54.728,188.225 54.728,186.568 C54.728,184.911 56.071,183.568 57.728,183.568 C59.385,183.568 60.728,184.911 60.728,186.568 Z" fill="rgba(255,42,0,1)" stroke="rgba(22,22,22,1)" stroke-width="0.5"/>
<path d="M47.244,169.547 C47.244,171.204 45.901,172.547 44.244,172.547 C42.587,172.547 41.244,171.204 41.244,169.547 C41.244,167.89 42.587,166.547 44.244,166.547 C45.901,166.547 47.244,167.89 47.244,169.547 Z" fill="rgba(255,42,0,1)" stroke="rgba(22,22,22,1)" stroke-width="0.5"/>
<path d="M72.561,206.981 C72.561,208.638 71.218,209.981 69.561,209.981 C67.904,209.981 66.561,208.638 66.561,206.981 C66.561,205.324 67.904,203.981 69.561,203.981 C71.218,203.981 72.561,205.324 72.561,206.981 Z" fill="rgba(255,42,0,1)" stroke="rgba(22,22,22,1)" stroke-width="0.5"/>
<path d="M54.406,205.995 C54.406,207.652 53.063,208.995 51.406,208.995 C49.749,208.995 48.406,207.652 48.406,205.995 C48.406,204.338 49.749,202.995 51.406,202.995 C53.063,202.995 54.406,204.338 54.406,205.995 Z" fill="rgba(255,42,0,1)" stroke="rgba(22,22,22,1)" stroke-width="0.5"/>
<path d="M72.165,197.906 C72.165,199.563 70.822,200.906 69.165,200.906 C67.508,200.906 66.165,199.563 66.165,197.906 C66.165,196.249 67.508,194.906 69.165,194.906 C70.822,194.906 72.165,196.249 72.165,197.906 Z" fill="rgba(255,42,0,1)" stroke="rgba(22,22,22,1)" stroke-width="0.5"/>
<path d="M50.722,191.928 C50.722,193.585 49.378,194.928 47.722,194.928 C46.065,194.928 44.722,193.585 44.722,191.928 C44.722,190.271 46.065,188.928 47.722,188.928 C49.378,188.928 50.722,190.271 50.722,191.928 Z" fill="rgba(255,42,0,1)" stroke="rgba(22,22,22,1)" stroke-width="0.5"/>
<path d="M44.586,127.103 C44.586,128.76 43.243,130.103 41.586,130.103 C39.93,130.103 38.586,128.76 38.586,127.103 C38.586,125.446 39.93,124.103 41.586,124.103 C43.243,124.103 44.586,125.446 44.586,127.103 Z" fill="rgba(255,42,0,1)" stroke="rgba(22,22,22,1)" stroke-width="0.5"/>
<path d="M57.756,175.204 C57.756,176.861 56.413,178.204 54.756,178.204 C53.099,178.204 51.756,176.861 51.756,175.204 C51.756,173.547 53.099,172.204 54.756,172.204 C56.413,172.204 57.756,173.547 57.756,175.204 Z" fill="rgba(255,42,0,1)" stroke="rgba(22,22,22,1)" stroke-width="0.5"/>
<path d="M39.314,160.963 C39.314,162.619 37.971,163.963 36.314,163.963 C34.657,163.963 33.314,162.619 33.314,160.963 C33.314,159.306 34.657,157.963 36.314,157.963 C37.971,157.963 39.314,159.306 39.314,160.963 Z" fill="rgba(255,42,0,1)" stroke="rgba(22,22,22,1)" stroke-width="0.5"/>
<path d="M49.023,179.664 C49.023,181.321 47.68,182.664 46.023,182.664 C44.366,182.664 43.023,181.321 43.023,179.664 C43.023,178.007 44.366,176.664 46.023,176.664 C47.68,176.664 49.023,178.007 49.023,179.664 Z" fill="rgba(255,42,0,1)" stroke="rgba(22,22,22,1)" stroke-width="0.5"/>
<path d="M50.888,121.859 C50.888,123.516 49.545,124.859 47.888,124.859 C46.231,124.859 44.888,123.516 44.888,121.859 C44.888,120.202 46.231,118.859 47.888,118.859 C49.545,118.859 50.888,120.202 50.888,121.859 Z" fill="rgba(255,42,0,1)" stroke="rgba(22,22,22,1)" stroke-width="0.5"/>
<path d="M41.581,184.891 C41.581,186.548 40.238,187.891 38.581,187.891 C36.924,187.891 35.581,186.548 35.581,184.891 C35.581,183.234 36.924,181.891 38.581,181.891 C40.238,181.891 41.581,183.234 41.581,184.891 Z" fill="rgba(255,42,0,1)" stroke="rgba(22,22,22,1)" stroke-width="0.5"/>
<path d="M44.242,117.132 C44.242,118.789 42.899,120.132 41.242,120.132 C39.585,120.132 38.242,118.789 38.242,117.132 C38.242,115.476 39.585,114.132 41.242,114.132 C42.899,114.132 44.242,115.476 44.242,117.132 Z" fill="rgba(255,42,0,1)" stroke="rgba(22,22,22,1)" stroke-width="0.5"/>
<path d="M41.852,196.59 C41.852,198.247 40.508,199.59 38.852,199.59 C37.195,199.59 35.852,198.247 35.852,196.59 C35.852,194.933 37.195,193.59 38.852,193.59 C40.508,193.59 41.852,194.933 41.852,196.59 Z" fill="rgba(255,42,0,1)" stroke="rgba(22,22,22,1)" stroke-width="0.5"/>
<path d="M45.403,204.53 C45.403,206.186 44.06,207.53 42.403,207.53 C40.746,207.53 39.403,206.186 39.403,204.53 C39.403,202.873 40.746,201.53 42.403,201.53 C44.06,201.53 45.403,202.873 45.403,204.53 Z" fill="rgba(255,42,0,1)" stroke="rgba(22,22,22,1)" stroke-width="0.5"/>
<path d="M36.677,205.976 C36.677,207.633 35.334,208.976 33.677,208.976 C32.02,208.976 30.677,207.633 30.677,205.976 C30.677,204.319 32.02,202.976 33.677,202.976 C35.334,202.976 36.677,204.319 36.677,205.976 Z" fill="rgba(255,42,0,1)" stroke="rgba(22,22,22,1)" stroke-width="0.5"/>
<path d="M38.215,176.108 C38.215,177.765 36.871,179.108 35.215,179.108 C33.558,179.108 32.215,177.765 32.215,176.108 C32.215,174.451 33.558,173.108 35.215,173.108 C36.871,173.108 38.215,174.451 38.215,176.108 Z" fill="rgba(255,42,0,1)" stroke="rgba(22,22,22,1)" stroke-width="0.5"/>
<path d="M37.451,152.358 C37.451,154.015 36.107,155.358 34.451,155.358 C32.794,155.358 31.451,154.015 31.451,152.358 C31.451,150.701 32.794,149.358 34.451,149.358 C36.107,149.358 37.451,150.701 37.451,152.358 Z" fill="rgba(255,42,0,1)" stroke="rgba(22,22,22,1)" stroke-width="0.5"/>
<path d="M63.879,206.033 C63.879,207.69 62.536,209.033 60.879,209.033 C59.222,209.033 57.879,207.69 57.879,206.033 C57.879,204.377 59.222,203.033 60.879,203.033 C62.536,203.033 63.879,204.377 63.879,206.033 Z" fill="rgba(255,42,0,1)" stroke="rgba(22,22,22,1)" stroke-width="0.5"/>
<path d="M83.129,209.688 C83.129,211.345 81.785,212.688 80.129,212.688 C78.472,212.688 77.129,211.345 77.129,209.688 C77.129,208.031 78.472,206.688 80.129,206.688 C81.785,206.688 83.129,208.031 83.129,209.688 Z" fill="rgba(255,42,0,1)" stroke="rgba(22,22,22,1)" stroke-width="0.5"/>
<path d="M36.568,142.431 C36.568,144.088 35.224,145.431 33.568,145.431 C31.911,145.431 30.568,144.088 30.568,142.431 C30.568,140.774 31.911,139.431 33.568,139.431 C35.224,139.431 36.568,140.774 36.568,142.431 Z" fill="rgba(255,42,0,1)" stroke="rgba(22,22,22,1)" stroke-width="0.5"/>
<path d="M130.102,210.681 C130.102,212.338 128.759,213.681 127.102,213.681 C125.445,213.681 124.102,212.338 124.102,210.681 C124.102,209.024 125.445,207.681 127.102,207.681 C128.759,207.681 130.102,209.024 130.102,210.681 Z" fill="rgba(255,42,0,1)" stroke="rgba(22,22,22,1)" stroke-width="0.5"/>
</svg>