<svg xmlns="http://www.w3.org/2000/svg" viewBox="-285.15 -118.35 570.3 236.7">
<path d="M-227.47,-65.177 L-232.22,-84.229 L-176.67,-74.703 L-188.572,-84.229 L-183.822,-65.177 L-239.372,-74.703 Z" fill="rgba(226,226,226,1)"/>
<path d="M-176.325,-59.176 L-157.272,-59.176 L-153.54,-6 L-146.389,-15.527 L-165.442,-15.527 L-169.174,-68.703 Z" fill="rgba(0,170,60,1)"/>
<path d="M-157.699,15.527 L-138.646,15.527 L-134.915,68.703 L-127.764,59.176 L-146.816,59.176 L-150.548,6 Z" fill="rgba(0,170,60,1)"/>
<path d="M-190.219,84.229 L-194.969,65.177 L-139.419,74.703 L-151.321,65.177 L-146.571,84.229 L-202.121,74.703 Z" fill="rgba(226,226,226,1)"/>
<path d="M-232.402,15.527 L-213.349,15.527 L-209.617,68.703 L-202.466,59.176 L-221.519,59.176 L-225.251,6 Z" fill="rgba(226,226,226,1)"/>
<path d="M-251.027,-59.176 L-231.975,-59.176 L-228.243,-6 L-221.092,-15.527 L-240.145,-15.527 L-243.876,-68.703 Z" fill="rgba(226,226,226,1)"/>
<path d="M-208.845,9.526 L-213.595,-9.526 L-158.044,0 L-169.946,-9.526 L-165.196,9.526 L-220.747,0 Z" fill="rgba(226,226,226,1)"/>
<path d="M-101.206,-65.177 L-105.957,-84.229 L-50.406,-74.703 L-62.308,-84.229 L-57.558,-65.177 L-113.109,-74.703 Z" fill="rgba(0,170,60,1)"/>
<path d="M-50.061,-59.176 L-31.008,-59.176 L-27.276,-6 L-20.125,-15.527 L-39.178,-15.527 L-42.91,-68.703 Z" fill="rgba(0,170,60,1)"/>
<path d="M-31.435,15.527 L-12.383,15.527 L-8.651,68.703 L-1.5,59.176 L-20.553,59.176 L-24.284,6 Z" fill="rgba(226,226,226,1)"/>
<path d="M-63.955,84.229 L-68.706,65.177 L-13.155,74.703 L-25.057,65.177 L-20.307,84.229 L-75.858,74.703 Z" fill="rgba(0,170,60,1)"/>
<path d="M-106.138,15.527 L-87.086,15.527 L-83.354,68.703 L-76.203,59.176 L-95.255,59.176 L-98.987,6 Z" fill="rgba(0,170,60,1)"/>
<path d="M-124.764,-59.176 L-105.711,-59.176 L-101.979,-6 L-94.828,-15.527 L-113.881,-15.527 L-117.613,-68.703 Z" fill="rgba(226,226,226,1)"/>
<path d="M-82.581,9.526 L-87.331,-9.526 L-31.78,0 L-43.683,-9.526 L-38.932,9.526 L-94.483,0 Z" fill="rgba(0,170,60,1)"/>
<path d="M-5.232,74.703 C-5.232,79.964 -9.497,84.229 -14.758,84.229 C-20.019,84.229 -24.284,79.964 -24.284,74.703 C-24.284,69.442 -20.019,65.177 -14.758,65.177 C-9.497,65.177 -5.232,69.442 -5.232,74.703 Z" fill="rgba(0,170,60,1)"/>
<path d="M25.057,-65.177 L20.307,-84.229 L75.858,-74.703 L63.955,-84.229 L68.706,-65.177 L13.155,-74.703 Z" fill="rgba(0,170,60,1)"/>
<path d="M76.203,-59.176 L95.255,-59.176 L98.987,-6 L106.138,-15.527 L87.086,-15.527 L83.354,-68.703 Z" fill="rgba(0,170,60,1)"/>
<path d="M94.828,15.527 L113.881,15.527 L117.613,68.703 L124.764,59.176 L105.711,59.176 L101.979,6 Z" fill="rgba(0,170,60,1)"/>
<path d="M62.308,84.229 L57.558,65.177 L113.109,74.703 L101.206,65.177 L105.957,84.229 L50.406,74.703 Z" fill="rgba(0,170,60,1)"/>
<path d="M20.125,15.527 L39.178,15.527 L42.91,68.703 L50.061,59.176 L31.008,59.176 L27.276,6 Z" fill="rgba(226,226,226,1)"/>
<path d="M1.5,-59.176 L20.553,-59.176 L24.284,-6 L31.435,-15.527 L12.383,-15.527 L8.651,-68.703 Z" fill="rgba(226,226,226,1)"/>
<path d="M43.683,9.526 L38.932,-9.526 L94.483,0 L82.581,-9.526 L87.331,9.526 L31.78,0 Z" fill="rgba(0,170,60,1)"/>
<path d="M151.321,-65.177 L146.571,-84.229 L202.121,-74.703 L190.219,-84.229 L194.969,-65.177 L139.419,-74.703 Z" fill="rgba(226,226,226,1)"/>
<path d="M202.466,-59.176 L221.519,-59.176 L225.251,-6 L232.402,-15.527 L213.349,-15.527 L209.617,-68.703 Z" fill="rgba(0,170,60,1)"/>
<path d="M221.092,15.527 L240.145,15.527 L243.876,68.703 L251.027,59.176 L231.975,59.176 L228.243,6 Z" fill="rgba(0,170,60,1)"/>
<path d="M188.572,84.229 L183.822,65.177 L239.372,74.703 L227.47,65.177 L232.22,84.229 L176.67,74.703 Z" fill="rgba(226,226,226,1)"/>
<path d="M146.389,15.527 L165.442,15.527 L169.174,68.703 L176.325,59.176 L157.272,59.176 L153.54,6 Z" fill="rgba(226,226,226,1)"/>
<path d="M127.764,-59.176 L146.816,-59.176 L150.548,-6 L157.699,-15.527 L138.646,-15.527 L134.915,-68.703 Z" fill="rgba(0,170,60,1)"/>
<path d="M169.946,9.526 L165.196,-9.526 L220.747,0 L208.845,-9.526 L213.595,9.526 L158.044,0 Z" fill="rgba(0,170,60,1)"/>
</svg>