<svg xmlns="http://www.w3.org/2000/svg" viewBox="-261.6 -118.6 523.2 332.66">
<path d="M94.758,151.68 C67.042,182.462 -5.334,162.479 -66.898,107.046 C-128.462,51.614 -155.901,-18.277 -128.185,-49.059 C-100.469,-79.841 -28.093,-59.858 33.472,-4.425 C95.036,51.007 122.475,120.898 94.758,151.68 Z" fill="rgba(0,0,0,0)" stroke="rgba(0,0,0,1)" stroke-width="1"/>
<path d="M151,-12 C151,29.421 117.421,63 76,63 C34.579,63 1,29.421 1,-12 C1,-53.421 34.579,-87 76,-87 C117.421,-87 151,-53.421 151,-12 Z" fill="rgba(0,0,0,0)" stroke="rgba(0,0,0,1)" stroke-width="1"/>
<path d="M-230,100 L89.38,156.563 L150.35,-2.607 L230,100" fill="rgba(0,0,0,0)" stroke="rgba(0,97,250,1)" stroke-width="8"/>
</svg>