<svg xmlns="http://www.w3.org/2000/svg" viewBox="-256 -110.12 512 380.24">
<path d="M-225,60.237 L-224,72.739 L-223,85.081 L-222,97.215 L-221,109.094 L-220,120.674 L-219,131.911 L-218,142.764 L-217,153.192 L-216,163.158 L-215,172.627 L-214,181.565 L-213,189.942 L-212,197.728 L-211,204.9 L-210,211.433 L-209,217.307 L-208,222.506 L-207,227.014 L-206,230.821 L-205,233.916 L-204,236.295 L-203,237.954 L-202,238.895 L-201,239.118 L-200,238.632 L-199,237.443 L-198,235.563 L-197,233.007 L-196,229.79 L-195,225.932 L-194,221.454 L-193,216.38 L-192,210.735 L-191,204.549 L-190,197.849 L-189,190.669 L-188,183.041 L-187,175 L-186,166.582 L-185,157.823 L-184,148.764 L-183,139.441 L-182,129.896 L-181,120.168 L-180,110.297 L-179,100.326 L-178,90.293 L-177,80.241 L-176,70.209 L-175,60.237 L-174,50.364 L-173,40.628 L-172,31.068 L-171,21.719 L-170,12.617 L-169,3.796 L-168,-4.713 L-167,-12.878 L-166,-20.67 L-165,-28.062 L-164,-35.028 L-163,-41.546 L-162,-47.592 L-161,-53.149 L-160,-58.2 L-159,-62.728 L-158,-66.721 L-157,-70.169 L-156,-73.064 L-155,-75.401 L-154,-77.174 L-153,-78.384 L-152,-79.031 L-151,-79.118 L-150,-78.652 L-149,-77.64 L-148,-76.091 L-147,-74.018 L-146,-71.434 L-145,-68.356 L-144,-64.8 L-143,-60.786 L-142,-56.335 L-141,-51.47 L-140,-46.214 L-139,-40.593 L-138,-34.633 L-137,-28.362 L-136,-21.808 L-135,-15 L-134,-7.969 L-133,-0.745 L-132,6.641 L-131,14.158 L-130,21.774 L-129,29.457 L-128,37.175 L-127,44.899 L-126,52.596 L-125,60.237 L-124,67.79 L-123,75.228 L-122,82.52 L-121,89.641 L-120,96.563 L-119,103.261 L-118,109.711 L-117,115.889 L-116,121.774 L-115,127.346 L-114,132.586 L-113,137.476 L-112,142.003 L-111,146.15 L-110,149.908 L-109,153.264 L-108,156.21 L-107,158.739 L-106,160.846 L-105,162.528 L-104,163.783 L-103,164.61 L-102,165.013 L-101,164.993 L-100,164.558 L-99,163.712 L-98,162.465 L-97,160.827 L-96,158.808 L-95,156.422 L-94,153.683 L-93,150.607 L-92,147.209 L-91,143.507 L-90,139.52 L-89,135.268 L-88,130.771 L-87,126.05 L-86,121.128 L-85,116.025 L-84,110.766 L-83,105.373 L-82,99.87 L-81,94.281 L-80,88.628 L-79,82.936 L-78,77.227 L-77,71.526 L-76,65.855 L-75,60.237 L-74,54.692 L-73,49.244 L-72,43.912 L-71,38.716 L-70,33.676 L-69,28.81 L-68,24.135 L-67,19.667 L-66,15.422 L-65,11.414 L-64,7.656 L-63,4.158 L-62,0.933 L-61,-2.01 L-60,-4.665 L-59,-7.023 L-58,-9.079 L-57,-10.831 L-56,-12.273 L-55,-13.406 L-54,-14.228 L-53,-14.741 L-52,-14.948 L-51,-14.851 L-50,-14.455 L-49,-13.766 L-48,-12.792 L-47,-11.54 L-46,-10.019 L-45,-8.239 L-44,-6.212 L-43,-3.949 L-42,-1.463 L-41,1.233 L-40,4.125 L-39,7.198 L-38,10.437 L-37,13.827 L-36,17.351 L-35,20.993 L-34,24.737 L-33,28.565 L-32,32.461 L-31,36.409 L-30,40.391 L-29,44.39 L-28,48.391 L-27,52.376 L-26,56.33 L-25,60.237 L-24,64.082 L-23,67.85 L-22,71.527 L-21,75.1 L-20,78.556 L-19,81.883 L-18,85.068 L-17,88.102 L-16,90.974 L-15,93.675 L-14,96.197 L-13,98.533 L-12,100.677 L-11,102.621 L-10,104.363 L-9,105.898 L-8,107.223 L-7,108.337 L-6,109.238 L-5,109.926 L-4,110.403 L-3,110.669 L-2,110.728 L-1,110.582 L0,110.237 L1,109.695 L2,108.964 L3,108.05 L4,106.959 L5,105.699 L6,104.279 L7,102.707 L8,100.992 L9,99.143 L10,97.172 L11,95.087 L12,92.901 L13,90.623 L14,88.265 L15,85.838 L16,83.353 L17,80.822 L18,78.256 L19,75.665 L20,73.063 L21,70.458 L22,67.863 L23,65.288 L24,62.742 L25,60.237 L26,57.781 L27,55.384 L28,53.054 L29,50.801 L30,48.631 L31,46.553 L32,44.573 L33,42.696 L34,40.93 L35,39.28 L36,37.748 L37,36.341 L38,35.06 L39,33.909 L40,32.89 L41,32.004 L42,31.252 L43,30.635 L44,30.152 L45,29.803 L46,29.585 L47,29.498 L48,29.538 L49,29.703 L50,29.99 L51,30.393 L52,30.91 L53,31.535 L54,32.264 L55,33.09 L56,34.009 L57,35.014 L58,36.099 L59,37.258 L60,38.483 L61,39.769 L62,41.108 L63,42.493 L64,43.918 L65,45.375 L66,46.858 L67,48.359 L68,49.871 L69,51.388 L70,52.904 L71,54.411 L72,55.904 L73,57.377 L74,58.823 L75,60.237 L76,61.613 L77,62.948 L78,64.236 L79,65.472 L80,66.653 L81,67.776 L82,68.836 L83,69.831 L84,70.758 L85,71.615 L86,72.4 L87,73.112 L88,73.75 L89,74.312 L90,74.799 L91,75.21 L92,75.546 L93,75.808 L94,75.995 L95,76.111 L96,76.156 L97,76.132 L98,76.041 L99,75.886 L100,75.669 L101,75.393 L102,75.061 L103,74.676 L104,74.242 L105,73.763 L106,73.241 L107,72.68 L108,72.084 L109,71.458 L110,70.804 L111,70.127 L112,69.43 L113,68.717 L114,67.993 L115,67.261 L116,66.524 L117,65.786 L118,65.051 L119,64.322 L120,63.601 L121,62.893 L122,62.2 L123,61.524 L124,60.869 L125,60.237 L126,59.629 L127,59.048 L128,58.495 L129,57.973 L130,57.482 L131,57.024 L132,56.599 L133,56.209 L134,55.854 L135,55.534 L136,55.25 L137,55.001 L138,54.787 L139,54.608 L140,54.464 L141,54.353 L142,54.274 L143,54.228 L144,54.212 L145,54.225 L146,54.266 L147,54.334 L148,54.427 L149,54.543 L150,54.681 L151,54.839 L152,55.015 L153,55.207 L154,55.414 L155,55.634 L156,55.865 L157,56.104 L158,56.351 L159,56.604 L160,56.861 L161,57.12 L162,57.379 L163,57.638 L164,57.894 L165,58.147 L166,58.394 L167,58.636 L168,58.87 L169,59.096 L170,59.313 L171,59.52 L172,59.717 L173,59.902 L174,60.075 L175,60.237 L176,60.385 L177,60.522 L178,60.645 L179,60.756 L180,60.855 L181,60.94 L182,61.014 L183,61.076 L184,61.126 L185,61.165 L186,61.194 L187,61.213 L188,61.222 L189,61.223 L190,61.215 L191,61.201 L192,61.179 L193,61.152 L194,61.119 L195,61.082 L196,61.041 L197,60.997 L198,60.951 L199,60.903 L200,60.854 L201,60.804 L202,60.755 L203,60.706 L204,60.658 L205,60.612 L206,60.568 L207,60.526 L208,60.487 L209,60.45 L210,60.416 L211,60.386 L212,60.358 L213,60.334 L214,60.313 L215,60.295 L216,60.279 L217,60.267 L218,60.257 L219,60.25 L220,60.244 L221,60.241 L222,60.238 L223,60.237 L224,60.237 L225,60.237" fill="rgba(0,0,0,0)" stroke="rgba(247,0,0,1)" stroke-width="3"/>
</svg>