<svg xmlns="http://www.w3.org/2000/svg" viewBox="-284.42 -161.92 568.84 443.84">
<path d="M-250.375,-127.875 L-207.958,-127.875 L-207.958,-85.458 L-250.375,-85.458 Z" fill="rgba(255,207,50,0.9999999999999999)"/>
<path d="M-208.708,-127.875 L-166.292,-127.875 L-166.292,-85.458 L-208.708,-85.458 Z" fill="rgba(254,175,27,0.9999999999999999)"/>
<path d="M-167.042,-127.875 L-124.625,-127.875 L-124.625,-85.458 L-167.042,-85.458 Z" fill="rgba(246,160,14,0.9999999999999999)"/>
<path d="M-125.375,-127.875 L-82.958,-127.875 L-82.958,-85.458 L-125.375,-85.458 Z" fill="rgba(234,139,0,0.9999999999999999)"/>
<path d="M-83.708,-127.875 L-41.292,-127.875 L-41.292,-85.458 L-83.708,-85.458 Z" fill="rgba(211,98,0,0.9999999999999999)"/>
<path d="M-42.042,-127.875 L0.375,-127.875 L0.375,-85.458 L-42.042,-85.458 Z" fill="rgba(181,45,0,0.9999999999999999)"/>
<path d="M-0.375,-127.875 L42.042,-127.875 L42.042,-85.458 L-0.375,-85.458 Z" fill="rgba(154,0,0,0.9999999999999999)"/>
<path d="M41.292,-127.875 L83.708,-127.875 L83.708,-85.458 L41.292,-85.458 Z" fill="rgba(147,0,0,0.9999999999999999)"/>
<path d="M82.958,-127.875 L125.375,-127.875 L125.375,-85.458 L82.958,-85.458 Z" fill="rgba(148,0,0,0.9999999999999999)"/>
<path d="M124.625,-127.875 L167.042,-127.875 L167.042,-85.458 L124.625,-85.458 Z" fill="rgba(154,0,0,0.9999999999999999)"/>
<path d="M166.292,-127.875 L208.708,-127.875 L208.708,-85.458 L166.292,-85.458 Z" fill="rgba(181,45,0,0.9999999999999999)"/>
<path d="M207.958,-127.875 L250.375,-127.875 L250.375,-85.458 L207.958,-85.458 Z" fill="rgba(211,97,0,0.9999999999999999)"/>
<path d="M-250.375,-86.208 L-207.958,-86.208 L-207.958,-43.792 L-250.375,-43.792 Z" fill="rgba(248,165,18,0.9999999999999999)"/>
<path d="M-208.708,-86.208 L-166.292,-86.208 L-166.292,-43.792 L-208.708,-43.792 Z" fill="rgba(226,124,0,0.9999999999999999)"/>
<path d="M-167.042,-86.208 L-124.625,-86.208 L-124.625,-43.792 L-167.042,-43.792 Z" fill="rgba(213,102,0,0.9999999999999999)"/>
<path d="M-125.375,-86.208 L-82.958,-86.208 L-82.958,-43.792 L-125.375,-43.792 Z" fill="rgba(204,86,0,0.9999999999999999)"/>
<path d="M-83.708,-86.208 L-41.292,-86.208 L-41.292,-43.792 L-83.708,-43.792 Z" fill="rgba(193,67,0,0.9999999999999999)"/>
<path d="M-42.042,-86.208 L0.375,-86.208 L0.375,-43.792 L-42.042,-43.792 Z" fill="rgba(158,0,0,0.9999999999999999)"/>
<path d="M-0.375,-86.208 L42.042,-86.208 L42.042,-43.792 L-0.375,-43.792 Z" fill="rgba(161,0,0,0.9999999999999999)"/>
<path d="M41.292,-86.208 L83.708,-86.208 L83.708,-43.792 L41.292,-43.792 Z" fill="rgba(186,54,0,0.9999999999999999)"/>
<path d="M82.958,-86.208 L125.375,-86.208 L125.375,-43.792 L82.958,-43.792 Z" fill="rgba(186,54,0,0.9999999999999999)"/>
<path d="M124.625,-86.208 L167.042,-86.208 L167.042,-43.792 L124.625,-43.792 Z" fill="rgba(161,0,0,0.9999999999999999)"/>
<path d="M166.292,-86.208 L208.708,-86.208 L208.708,-43.792 L166.292,-43.792 Z" fill="rgba(158,0,0,0.9999999999999999)"/>
<path d="M207.958,-86.208 L250.375,-86.208 L250.375,-43.792 L207.958,-43.792 Z" fill="rgba(195,70,0,0.9999999999999999)"/>
<path d="M-250.375,-44.542 L-207.958,-44.542 L-207.958,-2.125 L-250.375,-2.125 Z" fill="rgba(233,136,0,0.9999999999999999)"/>
<path d="M-208.708,-44.542 L-166.292,-44.542 L-166.292,-2.125 L-208.708,-2.125 Z" fill="rgba(201,81,0,0.9999999999999999)"/>
<path d="M-167.042,-44.542 L-124.625,-44.542 L-124.625,-2.125 L-167.042,-2.125 Z" fill="rgba(176,36,0,0.9999999999999999)"/>
<path d="M-125.375,-44.542 L-82.958,-44.542 L-82.958,-2.125 L-125.375,-2.125 Z" fill="rgba(181,46,0,0.9999999999999999)"/>
<path d="M-83.708,-44.542 L-41.292,-44.542 L-41.292,-2.125 L-83.708,-2.125 Z" fill="rgba(153,0,0,0.9999999999999999)"/>
<path d="M-42.042,-44.542 L0.375,-44.542 L0.375,-2.125 L-42.042,-2.125 Z" fill="rgba(148,0,0,0.9999999999999999)"/>
<path d="M-0.375,-44.542 L42.042,-44.542 L42.042,-2.125 L-0.375,-2.125 Z" fill="rgba(178,39,0,0.9999999999999999)"/>
<path d="M41.292,-44.542 L83.708,-44.542 L83.708,-2.125 L41.292,-2.125 Z" fill="rgba(214,103,0,0.9999999999999999)"/>
<path d="M82.958,-44.542 L125.375,-44.542 L125.375,-2.125 L82.958,-2.125 Z" fill="rgba(214,104,0,0.9999999999999999)"/>
<path d="M124.625,-44.542 L167.042,-44.542 L167.042,-2.125 L124.625,-2.125 Z" fill="rgba(178,40,0,0.9999999999999999)"/>
<path d="M166.292,-44.542 L208.708,-44.542 L208.708,-2.125 L166.292,-2.125 Z" fill="rgba(146,0,0,0.9999999999999999)"/>
<path d="M207.958,-44.542 L250.375,-44.542 L250.375,-2.125 L207.958,-2.125 Z" fill="rgba(187,57,0,0.9999999999999999)"/>
<path d="M-250.375,-2.875 L-207.958,-2.875 L-207.958,39.542 L-250.375,39.542 Z" fill="rgba(208,93,0,0.9999999999999999)"/>
<path d="M-208.708,-2.875 L-166.292,-2.875 L-166.292,39.542 L-208.708,39.542 Z" fill="rgba(192,66,0,0.9999999999999999)"/>
<path d="M-167.042,-2.875 L-124.625,-2.875 L-124.625,39.542 L-167.042,39.542 Z" fill="rgba(153,0,0,0.9999999999999999)"/>
<path d="M-125.375,-2.875 L-82.958,-2.875 L-82.958,39.542 L-125.375,39.542 Z" fill="rgba(154,0,0,0.9999999999999999)"/>
<path d="M-83.708,-2.875 L-41.292,-2.875 L-41.292,39.542 L-83.708,39.542 Z" fill="rgba(150,0,0,0.9999999999999999)"/>
<path d="M-42.042,-2.875 L0.375,-2.875 L0.375,39.542 L-42.042,39.542 Z" fill="rgba(152,0,0,0.9999999999999999)"/>
<path d="M-0.375,-2.875 L42.042,-2.875 L42.042,39.542 L-0.375,39.542 Z" fill="rgba(172,24,0,0.9999999999999999)"/>
<path d="M41.292,-2.875 L83.708,-2.875 L83.708,39.542 L41.292,39.542 Z" fill="rgba(201,81,0,0.9999999999999999)"/>
<path d="M82.958,-2.875 L125.375,-2.875 L125.375,39.542 L82.958,39.542 Z" fill="rgba(201,81,0,0.9999999999999999)"/>
<path d="M124.625,-2.875 L167.042,-2.875 L167.042,39.542 L124.625,39.542 Z" fill="rgba(171,23,0,0.9999999999999999)"/>
<path d="M166.292,-2.875 L208.708,-2.875 L208.708,39.542 L166.292,39.542 Z" fill="rgba(151,0,0,0.9999999999999999)"/>
<path d="M207.958,-2.875 L250.375,-2.875 L250.375,39.542 L207.958,39.542 Z" fill="rgba(190,62,0,0.9999999999999999)"/>
<path d="M-250.375,38.792 L-207.958,38.792 L-207.958,81.208 L-250.375,81.208 Z" fill="rgba(188,59,0,0.9999999999999999)"/>
<path d="M-208.708,38.792 L-166.292,38.792 L-166.292,81.208 L-208.708,81.208 Z" fill="rgba(153,0,0,0.9999999999999999)"/>
<path d="M-167.042,38.792 L-124.625,38.792 L-124.625,81.208 L-167.042,81.208 Z" fill="rgba(154,0,0,0.9999999999999999)"/>
<path d="M-125.375,38.792 L-82.958,38.792 L-82.958,81.208 L-125.375,81.208 Z" fill="rgba(157,0,0,0.9999999999999999)"/>
<path d="M-83.708,38.792 L-41.292,38.792 L-41.292,81.208 L-83.708,81.208 Z" fill="rgba(163,0,0,0.9999999999999999)"/>
<path d="M-42.042,38.792 L0.375,38.792 L0.375,81.208 L-42.042,81.208 Z" fill="rgba(152,0,0,0.9999999999999999)"/>
<path d="M-0.375,38.792 L42.042,38.792 L42.042,81.208 L-0.375,81.208 Z" fill="rgba(146,0,0,0.9999999999999999)"/>
<path d="M41.292,38.792 L83.708,38.792 L83.708,81.208 L41.292,81.208 Z" fill="rgba(165,0,0,0.9999999999999999)"/>
<path d="M82.958,38.792 L125.375,38.792 L125.375,81.208 L82.958,81.208 Z" fill="rgba(165,0,0,0.9999999999999999)"/>
<path d="M124.625,38.792 L167.042,38.792 L167.042,81.208 L124.625,81.208 Z" fill="rgba(146,0,0,0.9999999999999999)"/>
<path d="M166.292,38.792 L208.708,38.792 L208.708,81.208 L166.292,81.208 Z" fill="rgba(169,17,0,0.9999999999999999)"/>
<path d="M207.958,38.792 L250.375,38.792 L250.375,81.208 L207.958,81.208 Z" fill="rgba(203,84,0,0.9999999999999999)"/>
<path d="M-250.375,80.458 L-207.958,80.458 L-207.958,122.875 L-250.375,122.875 Z" fill="rgba(196,72,0,0.9999999999999999)"/>
<path d="M-208.708,80.458 L-166.292,80.458 L-166.292,122.875 L-208.708,122.875 Z" fill="rgba(170,20,0,0.9999999999999999)"/>
<path d="M-167.042,80.458 L-124.625,80.458 L-124.625,122.875 L-167.042,122.875 Z" fill="rgba(146,0,0,0.9999999999999999)"/>
<path d="M-125.375,80.458 L-82.958,80.458 L-82.958,122.875 L-125.375,122.875 Z" fill="rgba(166,3,0,0.9999999999999999)"/>
<path d="M-83.708,80.458 L-41.292,80.458 L-41.292,122.875 L-83.708,122.875 Z" fill="rgba(196,73,0,0.9999999999999999)"/>
<path d="M-42.042,80.458 L0.375,80.458 L0.375,122.875 L-42.042,122.875 Z" fill="rgba(165,0,0,0.9999999999999999)"/>
<path d="M-0.375,80.458 L42.042,80.458 L42.042,122.875 L-0.375,122.875 Z" fill="rgba(149,0,0,0.9999999999999999)"/>
<path d="M41.292,80.458 L83.708,80.458 L83.708,122.875 L41.292,122.875 Z" fill="rgba(160,0,0,0.9999999999999999)"/>
<path d="M82.958,80.458 L125.375,80.458 L125.375,122.875 L82.958,122.875 Z" fill="rgba(159,0,0,0.9999999999999999)"/>
<path d="M124.625,80.458 L167.042,80.458 L167.042,122.875 L124.625,122.875 Z" fill="rgba(173,28,0,0.9999999999999999)"/>
<path d="M166.292,80.458 L208.708,80.458 L208.708,122.875 L166.292,122.875 Z" fill="rgba(196,72,0,0.9999999999999999)"/>
<path d="M207.958,80.458 L250.375,80.458 L250.375,122.875 L207.958,122.875 Z" fill="rgba(222,116,0,0.9999999999999999)"/>
<path d="M-250.375,122.125 L-207.958,122.125 L-207.958,164.542 L-250.375,164.542 Z" fill="rgba(188,59,0,0.9999999999999999)"/>
<path d="M-208.708,122.125 L-166.292,122.125 L-166.292,164.542 L-208.708,164.542 Z" fill="rgba(149,0,0,0.9999999999999999)"/>
<path d="M-167.042,122.125 L-124.625,122.125 L-124.625,164.542 L-167.042,164.542 Z" fill="rgba(147,0,0,0.9999999999999999)"/>
<path d="M-125.375,122.125 L-82.958,122.125 L-82.958,164.542 L-125.375,164.542 Z" fill="rgba(155,0,0,0.9999999999999999)"/>
<path d="M-83.708,122.125 L-41.292,122.125 L-41.292,164.542 L-83.708,164.542 Z" fill="rgba(173,27,0,0.9999999999999999)"/>
<path d="M-42.042,122.125 L0.375,122.125 L0.375,164.542 L-42.042,164.542 Z" fill="rgba(151,0,0,0.9999999999999999)"/>
<path d="M-0.375,122.125 L42.042,122.125 L42.042,164.542 L-0.375,164.542 Z" fill="rgba(147,0,0,0.9999999999999999)"/>
<path d="M41.292,122.125 L83.708,122.125 L83.708,164.542 L41.292,164.542 Z" fill="rgba(153,0,0,0.9999999999999999)"/>
<path d="M82.958,122.125 L125.375,122.125 L125.375,164.542 L82.958,164.542 Z" fill="rgba(192,66,0,0.9999999999999999)"/>
<path d="M124.625,122.125 L167.042,122.125 L167.042,164.542 L124.625,164.542 Z" fill="rgba(208,92,0,0.9999999999999999)"/>
<path d="M166.292,122.125 L208.708,122.125 L208.708,164.542 L166.292,164.542 Z" fill="rgba(224,120,0,0.9999999999999999)"/>
<path d="M207.958,122.125 L250.375,122.125 L250.375,164.542 L207.958,164.542 Z" fill="rgba(244,157,11,0.9999999999999999)"/>
<path d="M-250.375,163.792 L-207.958,163.792 L-207.958,206.208 L-250.375,206.208 Z" fill="rgba(200,79,0,0.9999999999999999)"/>
<path d="M-208.708,163.792 L-166.292,163.792 L-166.292,206.208 L-208.708,206.208 Z" fill="rgba(179,42,0,0.9999999999999999)"/>
<path d="M-167.042,163.792 L-124.625,163.792 L-124.625,206.208 L-167.042,206.208 Z" fill="rgba(158,0,0,0.9999999999999999)"/>
<path d="M-125.375,163.792 L-82.958,163.792 L-82.958,206.208 L-125.375,206.208 Z" fill="rgba(144,0,0,0.9999999999999999)"/>
<path d="M-83.708,163.792 L-41.292,163.792 L-41.292,206.208 L-83.708,206.208 Z" fill="rgba(154,0,0,0.9999999999999999)"/>
<path d="M-42.042,163.792 L0.375,163.792 L0.375,206.208 L-42.042,206.208 Z" fill="rgba(144,0,0,0.9999999999999999)"/>
<path d="M-0.375,163.792 L42.042,163.792 L42.042,206.208 L-0.375,206.208 Z" fill="rgba(161,0,0,0.9999999999999999)"/>
<path d="M41.292,163.792 L83.708,163.792 L83.708,206.208 L41.292,206.208 Z" fill="rgba(181,46,0,0.9999999999999999)"/>
<path d="M82.958,163.792 L125.375,163.792 L125.375,206.208 L82.958,206.208 Z" fill="rgba(204,86,0,0.9999999999999999)"/>
<path d="M124.625,163.792 L167.042,163.792 L167.042,206.208 L124.625,206.208 Z" fill="rgba(234,138,0,0.9999999999999999)"/>
<path d="M166.292,163.792 L208.708,163.792 L208.708,206.208 L166.292,206.208 Z" fill="rgba(251,171,23,0.9999999999999999)"/>
<path d="M207.958,163.792 L250.375,163.792 L250.375,206.208 L207.958,206.208 Z" fill="rgba(255,203,47,0.9999999999999999)"/>
<path d="M-250.375,205.458 L-207.958,205.458 L-207.958,247.875 L-250.375,247.875 Z" fill="rgba(227,125,0,0.9999999999999999)"/>
<path d="M-208.708,205.458 L-166.292,205.458 L-166.292,247.875 L-208.708,247.875 Z" fill="rgba(195,72,0,0.9999999999999999)"/>
<path d="M-167.042,205.458 L-124.625,205.458 L-124.625,247.875 L-167.042,247.875 Z" fill="rgba(164,0,0,0.9999999999999999)"/>
<path d="M-125.375,205.458 L-82.958,205.458 L-82.958,247.875 L-125.375,247.875 Z" fill="rgba(175,33,0,0.9999999999999999)"/>
<path d="M-83.708,205.458 L-41.292,205.458 L-41.292,247.875 L-83.708,247.875 Z" fill="rgba(142,0,0,0.9999999999999999)"/>
<path d="M-42.042,205.458 L0.375,205.458 L0.375,247.875 L-42.042,247.875 Z" fill="rgba(173,28,0,0.9999999999999999)"/>
<path d="M-0.375,205.458 L42.042,205.458 L42.042,247.875 L-0.375,247.875 Z" fill="rgba(162,0,0,0.9999999999999999)"/>
<path d="M41.292,205.458 L83.708,205.458 L83.708,247.875 L41.292,247.875 Z" fill="rgba(196,72,0,0.9999999999999999)"/>
<path d="M82.958,205.458 L125.375,205.458 L125.375,247.875 L82.958,247.875 Z" fill="rgba(230,130,0,0.9999999999999999)"/>
<path d="M124.625,205.458 L167.042,205.458 L167.042,247.875 L124.625,247.875 Z" fill="rgba(251,170,22,0.9999999999999999)"/>
<path d="M166.292,205.458 L208.708,205.458 L208.708,247.875 L166.292,247.875 Z" fill="rgba(255,218,58,0.9999999999999999)"/>
<path d="M207.958,205.458 L250.375,205.458 L250.375,247.875 L207.958,247.875 Z" fill="rgba(255,253,85,0.9999999999999999)"/>
<text x="-236.69271435416667" y="-166.66666666666666" text-anchor="start" font-family="Verdana, Helvetica, Arial, sans-serif" font-size="10.416675" fill="rgba(13,13,13,1)" transform="matrix(1 0 0 1 0 64.16667)">-83</text>
<text x="-195.0260476875" y="-166.66666666666666" text-anchor="start" font-family="Verdana, Helvetica, Arial, sans-serif" font-size="10.416675" fill="rgba(255,250,222,1)" transform="matrix(1 0 0 1 0 64.16667)">-70</text>
<text x="-153.35938102083333" y="-166.66666666666666" text-anchor="start" font-family="Verdana, Helvetica, Arial, sans-serif" font-size="10.416675" fill="rgba(255,250,222,1)" transform="matrix(1 0 0 1 0 64.16667)">-65</text>
<text x="-111.69271435416665" y="-166.66666666666666" text-anchor="start" font-family="Verdana, Helvetica, Arial, sans-serif" font-size="10.416675" fill="rgba(255,250,222,1)" transform="matrix(1 0 0 1 0 64.16667)">-56</text>
<text x="-70.0260476875" y="-166.66666666666666" text-anchor="start" font-family="Verdana, Helvetica, Arial, sans-serif" font-size="10.416675" fill="rgba(255,250,222,1)" transform="matrix(1 0 0 1 0 64.16667)">-40</text>
<text x="-28.359381020833343" y="-166.66666666666666" text-anchor="start" font-family="Verdana, Helvetica, Arial, sans-serif" font-size="10.416675" fill="rgba(255,250,222,1)" transform="matrix(1 0 0 1 0 64.16667)">-22</text>
<text x="16.20312129583334" y="-166.66666666666666" text-anchor="start" font-family="Verdana, Helvetica, Arial, sans-serif" font-size="10.416675" fill="rgba(255,250,222,1)" transform="matrix(1 0 0 1 0 64.16667)">-7</text>
<text x="57.86978796249997" y="-166.66666666666666" text-anchor="start" font-family="Verdana, Helvetica, Arial, sans-serif" font-size="10.416675" fill="rgba(255,250,222,1)" transform="matrix(1 0 0 1 0 64.16667)">-3</text>
<text x="99.53645462916666" y="-166.66666666666666" text-anchor="start" font-family="Verdana, Helvetica, Arial, sans-serif" font-size="10.416675" fill="rgba(255,250,222,1)" transform="matrix(1 0 0 1 0 64.16667)">-4</text>
<text x="141.20312129583334" y="-166.66666666666666" text-anchor="start" font-family="Verdana, Helvetica, Arial, sans-serif" font-size="10.416675" fill="rgba(255,250,222,1)" transform="matrix(1 0 0 1 0 64.16667)">-7</text>
<text x="179.97395231249996" y="-166.66666666666666" text-anchor="start" font-family="Verdana, Helvetica, Arial, sans-serif" font-size="10.416675" fill="rgba(255,250,222,1)" transform="matrix(1 0 0 1 0 64.16667)">-22</text>
<text x="221.64061897916665" y="-166.66666666666666" text-anchor="start" font-family="Verdana, Helvetica, Arial, sans-serif" font-size="10.416675" fill="rgba(255,250,222,1)" transform="matrix(1 0 0 1 0 64.16667)">-40</text>
<text x="-236.69271435416667" y="-125" text-anchor="start" font-family="Verdana, Helvetica, Arial, sans-serif" font-size="10.416675" fill="rgba(255,250,222,1)" transform="matrix(1 0 0 1 0 64.16667)">-66</text>
<text x="-195.0260476875" y="-125" text-anchor="start" font-family="Verdana, Helvetica, Arial, sans-serif" font-size="10.416675" fill="rgba(255,250,222,1)" transform="matrix(1 0 0 1 0 64.16667)">-50</text>
<text x="-153.35938102083333" y="-125" text-anchor="start" font-family="Verdana, Helvetica, Arial, sans-serif" font-size="10.416675" fill="rgba(255,250,222,1)" transform="matrix(1 0 0 1 0 64.16667)">-42</text>
<text x="-111.69271435416665" y="-125" text-anchor="start" font-family="Verdana, Helvetica, Arial, sans-serif" font-size="10.416675" fill="rgba(255,250,222,1)" transform="matrix(1 0 0 1 0 64.16667)">-36</text>
<text x="-70.0260476875" y="-125" text-anchor="start" font-family="Verdana, Helvetica, Arial, sans-serif" font-size="10.416675" fill="rgba(255,250,222,1)" transform="matrix(1 0 0 1 0 64.16667)">-29</text>
<text x="-25.463545370833344" y="-125" text-anchor="start" font-family="Verdana, Helvetica, Arial, sans-serif" font-size="10.416675" fill="rgba(255,250,222,1)" transform="matrix(1 0 0 1 0 64.16667)">-9</text>
<text x="13.307285645833343" y="-125" text-anchor="start" font-family="Verdana, Helvetica, Arial, sans-serif" font-size="10.416675" fill="rgba(255,250,222,1)" transform="matrix(1 0 0 1 0 64.16667)">-11</text>
<text x="54.973952312499975" y="-125" text-anchor="start" font-family="Verdana, Helvetica, Arial, sans-serif" font-size="10.416675" fill="rgba(255,250,222,1)" transform="matrix(1 0 0 1 0 64.16667)">-25</text>
<text x="96.64061897916666" y="-125" text-anchor="start" font-family="Verdana, Helvetica, Arial, sans-serif" font-size="10.416675" fill="rgba(255,250,222,1)" transform="matrix(1 0 0 1 0 64.16667)">-25</text>
<text x="138.30728564583333" y="-125" text-anchor="start" font-family="Verdana, Helvetica, Arial, sans-serif" font-size="10.416675" fill="rgba(255,250,222,1)" transform="matrix(1 0 0 1 0 64.16667)">-11</text>
<text x="182.86978796249997" y="-125" text-anchor="start" font-family="Verdana, Helvetica, Arial, sans-serif" font-size="10.416675" fill="rgba(255,250,222,1)" transform="matrix(1 0 0 1 0 64.16667)">-9</text>
<text x="221.64061897916665" y="-125" text-anchor="start" font-family="Verdana, Helvetica, Arial, sans-serif" font-size="10.416675" fill="rgba(255,250,222,1)" transform="matrix(1 0 0 1 0 64.16667)">-30</text>
<text x="-236.69271435416667" y="-83.33333333333333" text-anchor="start" font-family="Verdana, Helvetica, Arial, sans-serif" font-size="10.416675" fill="rgba(255,250,222,1)" transform="matrix(1 0 0 1 0 64.16667)">-55</text>
<text x="-195.0260476875" y="-83.33333333333333" text-anchor="start" font-family="Verdana, Helvetica, Arial, sans-serif" font-size="10.416675" fill="rgba(255,250,222,1)" transform="matrix(1 0 0 1 0 64.16667)">-34</text>
<text x="-153.35938102083333" y="-83.33333333333333" text-anchor="start" font-family="Verdana, Helvetica, Arial, sans-serif" font-size="10.416675" fill="rgba(255,250,222,1)" transform="matrix(1 0 0 1 0 64.16667)">-19</text>
<text x="-111.69271435416665" y="-83.33333333333333" text-anchor="start" font-family="Verdana, Helvetica, Arial, sans-serif" font-size="10.416675" fill="rgba(255,250,222,1)" transform="matrix(1 0 0 1 0 64.16667)">-22</text>
<text x="-67.1302120375" y="-83.33333333333333" text-anchor="start" font-family="Verdana, Helvetica, Arial, sans-serif" font-size="10.416675" fill="rgba(255,250,222,1)" transform="matrix(1 0 0 1 0 64.16667)">-6</text>
<text x="-25.463545370833344" y="-83.33333333333333" text-anchor="start" font-family="Verdana, Helvetica, Arial, sans-serif" font-size="10.416675" fill="rgba(255,250,222,1)" transform="matrix(1 0 0 1 0 64.16667)">-3</text>
<text x="13.307285645833343" y="-83.33333333333333" text-anchor="start" font-family="Verdana, Helvetica, Arial, sans-serif" font-size="10.416675" fill="rgba(255,250,222,1)" transform="matrix(1 0 0 1 0 64.16667)">-20</text>
<text x="54.973952312499975" y="-83.33333333333333" text-anchor="start" font-family="Verdana, Helvetica, Arial, sans-serif" font-size="10.416675" fill="rgba(255,250,222,1)" transform="matrix(1 0 0 1 0 64.16667)">-42</text>
<text x="96.64061897916666" y="-83.33333333333333" text-anchor="start" font-family="Verdana, Helvetica, Arial, sans-serif" font-size="10.416675" fill="rgba(255,250,222,1)" transform="matrix(1 0 0 1 0 64.16667)">-43</text>
<text x="138.30728564583333" y="-83.33333333333333" text-anchor="start" font-family="Verdana, Helvetica, Arial, sans-serif" font-size="10.416675" fill="rgba(255,250,222,1)" transform="matrix(1 0 0 1 0 64.16667)">-20</text>
<text x="182.86978796249997" y="-83.33333333333333" text-anchor="start" font-family="Verdana, Helvetica, Arial, sans-serif" font-size="10.416675" fill="rgba(255,250,222,1)" transform="matrix(1 0 0 1 0 64.16667)">-3</text>
<text x="221.64061897916665" y="-83.33333333333333" text-anchor="start" font-family="Verdana, Helvetica, Arial, sans-serif" font-size="10.416675" fill="rgba(255,250,222,1)" transform="matrix(1 0 0 1 0 64.16667)">-25</text>
<text x="-236.69271435416667" y="-41.66666666666666" text-anchor="start" font-family="Verdana, Helvetica, Arial, sans-serif" font-size="10.416675" fill="rgba(255,250,222,1)" transform="matrix(1 0 0 1 0 64.16667)">-38</text>
<text x="-195.0260476875" y="-41.66666666666666" text-anchor="start" font-family="Verdana, Helvetica, Arial, sans-serif" font-size="10.416675" fill="rgba(255,250,222,1)" transform="matrix(1 0 0 1 0 64.16667)">-29</text>
<text x="-150.46354537083332" y="-41.66666666666666" text-anchor="start" font-family="Verdana, Helvetica, Arial, sans-serif" font-size="10.416675" fill="rgba(255,250,222,1)" transform="matrix(1 0 0 1 0 64.16667)">-6</text>
<text x="-108.79687870416666" y="-41.66666666666666" text-anchor="start" font-family="Verdana, Helvetica, Arial, sans-serif" font-size="10.416675" fill="rgba(255,250,222,1)" transform="matrix(1 0 0 1 0 64.16667)">-7</text>
<text x="-67.1302120375" y="-41.66666666666666" text-anchor="start" font-family="Verdana, Helvetica, Arial, sans-serif" font-size="10.416675" fill="rgba(255,250,222,1)" transform="matrix(1 0 0 1 0 64.16667)">-4</text>
<text x="-25.463545370833344" y="-41.66666666666666" text-anchor="start" font-family="Verdana, Helvetica, Arial, sans-serif" font-size="10.416675" fill="rgba(255,250,222,1)" transform="matrix(1 0 0 1 0 64.16667)">-5</text>
<text x="13.307285645833343" y="-41.66666666666666" text-anchor="start" font-family="Verdana, Helvetica, Arial, sans-serif" font-size="10.416675" fill="rgba(255,250,222,1)" transform="matrix(1 0 0 1 0 64.16667)">-17</text>
<text x="54.973952312499975" y="-41.66666666666666" text-anchor="start" font-family="Verdana, Helvetica, Arial, sans-serif" font-size="10.416675" fill="rgba(255,250,222,1)" transform="matrix(1 0 0 1 0 64.16667)">-34</text>
<text x="96.64061897916666" y="-41.66666666666666" text-anchor="start" font-family="Verdana, Helvetica, Arial, sans-serif" font-size="10.416675" fill="rgba(255,250,222,1)" transform="matrix(1 0 0 1 0 64.16667)">-34</text>
<text x="138.30728564583333" y="-41.66666666666666" text-anchor="start" font-family="Verdana, Helvetica, Arial, sans-serif" font-size="10.416675" fill="rgba(255,250,222,1)" transform="matrix(1 0 0 1 0 64.16667)">-16</text>
<text x="182.86978796249997" y="-41.66666666666666" text-anchor="start" font-family="Verdana, Helvetica, Arial, sans-serif" font-size="10.416675" fill="rgba(255,250,222,1)" transform="matrix(1 0 0 1 0 64.16667)">-5</text>
<text x="221.64061897916665" y="-41.66666666666666" text-anchor="start" font-family="Verdana, Helvetica, Arial, sans-serif" font-size="10.416675" fill="rgba(255,250,222,1)" transform="matrix(1 0 0 1 0 64.16667)">-27</text>
<text x="-236.69271435416667" y="0" text-anchor="start" font-family="Verdana, Helvetica, Arial, sans-serif" font-size="10.416675" fill="rgba(255,250,222,1)" transform="matrix(1 0 0 1 0 64.16667)">-26</text>
<text x="-192.1302120375" y="0" text-anchor="start" font-family="Verdana, Helvetica, Arial, sans-serif" font-size="10.416675" fill="rgba(255,250,222,1)" transform="matrix(1 0 0 1 0 64.16667)">-6</text>
<text x="-150.46354537083332" y="0" text-anchor="start" font-family="Verdana, Helvetica, Arial, sans-serif" font-size="10.416675" fill="rgba(255,250,222,1)" transform="matrix(1 0 0 1 0 64.16667)">-7</text>
<text x="-108.79687870416666" y="0" text-anchor="start" font-family="Verdana, Helvetica, Arial, sans-serif" font-size="10.416675" fill="rgba(255,250,222,1)" transform="matrix(1 0 0 1 0 64.16667)">-8</text>
<text x="-70.0260476875" y="0" text-anchor="start" font-family="Verdana, Helvetica, Arial, sans-serif" font-size="10.416675" fill="rgba(255,250,222,1)" transform="matrix(1 0 0 1 0 64.16667)">-12</text>
<text x="-25.463545370833344" y="0" text-anchor="start" font-family="Verdana, Helvetica, Arial, sans-serif" font-size="10.416675" fill="rgba(255,250,222,1)" transform="matrix(1 0 0 1 0 64.16667)">-6</text>
<text x="16.20312129583334" y="0" text-anchor="start" font-family="Verdana, Helvetica, Arial, sans-serif" font-size="10.416675" fill="rgba(255,250,222,1)" transform="matrix(1 0 0 1 0 64.16667)">-3</text>
<text x="54.973952312499975" y="0" text-anchor="start" font-family="Verdana, Helvetica, Arial, sans-serif" font-size="10.416675" fill="rgba(255,250,222,1)" transform="matrix(1 0 0 1 0 64.16667)">-13</text>
<text x="96.64061897916666" y="0" text-anchor="start" font-family="Verdana, Helvetica, Arial, sans-serif" font-size="10.416675" fill="rgba(255,250,222,1)" transform="matrix(1 0 0 1 0 64.16667)">-13</text>
<text x="141.20312129583334" y="0" text-anchor="start" font-family="Verdana, Helvetica, Arial, sans-serif" font-size="10.416675" fill="rgba(255,250,222,1)" transform="matrix(1 0 0 1 0 64.16667)">-2</text>
<text x="179.97395231249996" y="0" text-anchor="start" font-family="Verdana, Helvetica, Arial, sans-serif" font-size="10.416675" fill="rgba(255,250,222,1)" transform="matrix(1 0 0 1 0 64.16667)">-15</text>
<text x="221.64061897916665" y="0" text-anchor="start" font-family="Verdana, Helvetica, Arial, sans-serif" font-size="10.416675" fill="rgba(255,250,222,1)" transform="matrix(1 0 0 1 0 64.16667)">-35</text>
<text x="-236.69271435416667" y="41.66666666666666" text-anchor="start" font-family="Verdana, Helvetica, Arial, sans-serif" font-size="10.416675" fill="rgba(255,250,222,1)" transform="matrix(1 0 0 1 0 64.16667)">-31</text>
<text x="-195.0260476875" y="41.66666666666666" text-anchor="start" font-family="Verdana, Helvetica, Arial, sans-serif" font-size="10.416675" fill="rgba(255,250,222,1)" transform="matrix(1 0 0 1 0 64.16667)">-16</text>
<text x="-150.46354537083332" y="41.66666666666666" text-anchor="start" font-family="Verdana, Helvetica, Arial, sans-serif" font-size="10.416675" fill="rgba(255,250,222,1)" transform="matrix(1 0 0 1 0 64.16667)">-3</text>
<text x="-111.69271435416665" y="41.66666666666666" text-anchor="start" font-family="Verdana, Helvetica, Arial, sans-serif" font-size="10.416675" fill="rgba(255,250,222,1)" transform="matrix(1 0 0 1 0 64.16667)">-14</text>
<text x="-70.0260476875" y="41.66666666666666" text-anchor="start" font-family="Verdana, Helvetica, Arial, sans-serif" font-size="10.416675" fill="rgba(255,250,222,1)" transform="matrix(1 0 0 1 0 64.16667)">-31</text>
<text x="-28.359381020833343" y="41.66666666666666" text-anchor="start" font-family="Verdana, Helvetica, Arial, sans-serif" font-size="10.416675" fill="rgba(255,250,222,1)" transform="matrix(1 0 0 1 0 64.16667)">-13</text>
<text x="16.20312129583334" y="41.66666666666666" text-anchor="start" font-family="Verdana, Helvetica, Arial, sans-serif" font-size="10.416675" fill="rgba(255,250,222,1)" transform="matrix(1 0 0 1 0 64.16667)">-4</text>
<text x="54.973952312499975" y="41.66666666666666" text-anchor="start" font-family="Verdana, Helvetica, Arial, sans-serif" font-size="10.416675" fill="rgba(255,250,222,1)" transform="matrix(1 0 0 1 0 64.16667)">-10</text>
<text x="96.64061897916666" y="41.66666666666666" text-anchor="start" font-family="Verdana, Helvetica, Arial, sans-serif" font-size="10.416675" fill="rgba(255,250,222,1)" transform="matrix(1 0 0 1 0 64.16667)">-10</text>
<text x="138.30728564583333" y="41.66666666666666" text-anchor="start" font-family="Verdana, Helvetica, Arial, sans-serif" font-size="10.416675" fill="rgba(255,250,222,1)" transform="matrix(1 0 0 1 0 64.16667)">-17</text>
<text x="179.97395231249996" y="41.66666666666666" text-anchor="start" font-family="Verdana, Helvetica, Arial, sans-serif" font-size="10.416675" fill="rgba(255,250,222,1)" transform="matrix(1 0 0 1 0 64.16667)">-31</text>
<text x="221.64061897916665" y="41.66666666666666" text-anchor="start" font-family="Verdana, Helvetica, Arial, sans-serif" font-size="10.416675" fill="rgba(255,250,222,1)" transform="matrix(1 0 0 1 0 64.16667)">-47</text>
<text x="-236.69271435416667" y="83.33333333333334" text-anchor="start" font-family="Verdana, Helvetica, Arial, sans-serif" font-size="10.416675" fill="rgba(255,250,222,1)" transform="matrix(1 0 0 1 0 64.16667)">-26</text>
<text x="-192.1302120375" y="83.33333333333334" text-anchor="start" font-family="Verdana, Helvetica, Arial, sans-serif" font-size="10.416675" fill="rgba(255,250,222,1)" transform="matrix(1 0 0 1 0 64.16667)">-4</text>
<text x="-150.46354537083332" y="83.33333333333334" text-anchor="start" font-family="Verdana, Helvetica, Arial, sans-serif" font-size="10.416675" fill="rgba(255,250,222,1)" transform="matrix(1 0 0 1 0 64.16667)">-3</text>
<text x="-108.79687870416666" y="83.33333333333334" text-anchor="start" font-family="Verdana, Helvetica, Arial, sans-serif" font-size="10.416675" fill="rgba(255,250,222,1)" transform="matrix(1 0 0 1 0 64.16667)">-7</text>
<text x="-70.0260476875" y="83.33333333333334" text-anchor="start" font-family="Verdana, Helvetica, Arial, sans-serif" font-size="10.416675" fill="rgba(255,250,222,1)" transform="matrix(1 0 0 1 0 64.16667)">-17</text>
<text x="-25.463545370833344" y="83.33333333333334" text-anchor="start" font-family="Verdana, Helvetica, Arial, sans-serif" font-size="10.416675" fill="rgba(255,250,222,1)" transform="matrix(1 0 0 1 0 64.16667)">-5</text>
<text x="16.20312129583334" y="83.33333333333334" text-anchor="start" font-family="Verdana, Helvetica, Arial, sans-serif" font-size="10.416675" fill="rgba(255,250,222,1)" transform="matrix(1 0 0 1 0 64.16667)">-3</text>
<text x="57.86978796249997" y="83.33333333333334" text-anchor="start" font-family="Verdana, Helvetica, Arial, sans-serif" font-size="10.416675" fill="rgba(255,250,222,1)" transform="matrix(1 0 0 1 0 64.16667)">-6</text>
<text x="96.64061897916666" y="83.33333333333334" text-anchor="start" font-family="Verdana, Helvetica, Arial, sans-serif" font-size="10.416675" fill="rgba(255,250,222,1)" transform="matrix(1 0 0 1 0 64.16667)">-29</text>
<text x="138.30728564583333" y="83.33333333333334" text-anchor="start" font-family="Verdana, Helvetica, Arial, sans-serif" font-size="10.416675" fill="rgba(255,250,222,1)" transform="matrix(1 0 0 1 0 64.16667)">-38</text>
<text x="179.97395231249996" y="83.33333333333334" text-anchor="start" font-family="Verdana, Helvetica, Arial, sans-serif" font-size="10.416675" fill="rgba(255,250,222,1)" transform="matrix(1 0 0 1 0 64.16667)">-49</text>
<text x="221.64061897916665" y="83.33333333333334" text-anchor="start" font-family="Verdana, Helvetica, Arial, sans-serif" font-size="10.416675" fill="rgba(255,250,222,1)" transform="matrix(1 0 0 1 0 64.16667)">-63</text>
<text x="-236.69271435416667" y="124.99999999999997" text-anchor="start" font-family="Verdana, Helvetica, Arial, sans-serif" font-size="10.416675" fill="rgba(255,250,222,1)" transform="matrix(1 0 0 1 0 64.16667)">-33</text>
<text x="-195.0260476875" y="124.99999999999997" text-anchor="start" font-family="Verdana, Helvetica, Arial, sans-serif" font-size="10.416675" fill="rgba(255,250,222,1)" transform="matrix(1 0 0 1 0 64.16667)">-21</text>
<text x="-150.46354537083332" y="124.99999999999997" text-anchor="start" font-family="Verdana, Helvetica, Arial, sans-serif" font-size="10.416675" fill="rgba(255,250,222,1)" transform="matrix(1 0 0 1 0 64.16667)">-9</text>
<text x="-108.79687870416666" y="124.99999999999997" text-anchor="start" font-family="Verdana, Helvetica, Arial, sans-serif" font-size="10.416675" fill="rgba(255,250,222,1)" transform="matrix(1 0 0 1 0 64.16667)">-1</text>
<text x="-67.1302120375" y="124.99999999999997" text-anchor="start" font-family="Verdana, Helvetica, Arial, sans-serif" font-size="10.416675" fill="rgba(255,250,222,1)" transform="matrix(1 0 0 1 0 64.16667)">-7</text>
<text x="-25.463545370833344" y="124.99999999999997" text-anchor="start" font-family="Verdana, Helvetica, Arial, sans-serif" font-size="10.416675" fill="rgba(255,250,222,1)" transform="matrix(1 0 0 1 0 64.16667)">-1</text>
<text x="13.307285645833343" y="124.99999999999997" text-anchor="start" font-family="Verdana, Helvetica, Arial, sans-serif" font-size="10.416675" fill="rgba(255,250,222,1)" transform="matrix(1 0 0 1 0 64.16667)">-11</text>
<text x="54.973952312499975" y="124.99999999999997" text-anchor="start" font-family="Verdana, Helvetica, Arial, sans-serif" font-size="10.416675" fill="rgba(255,250,222,1)" transform="matrix(1 0 0 1 0 64.16667)">-22</text>
<text x="96.64061897916666" y="124.99999999999997" text-anchor="start" font-family="Verdana, Helvetica, Arial, sans-serif" font-size="10.416675" fill="rgba(255,250,222,1)" transform="matrix(1 0 0 1 0 64.16667)">-36</text>
<text x="138.30728564583333" y="124.99999999999997" text-anchor="start" font-family="Verdana, Helvetica, Arial, sans-serif" font-size="10.416675" fill="rgba(255,250,222,1)" transform="matrix(1 0 0 1 0 64.16667)">-56</text>
<text x="179.97395231249996" y="124.99999999999997" text-anchor="start" font-family="Verdana, Helvetica, Arial, sans-serif" font-size="10.416675" fill="rgba(255,250,222,1)" transform="matrix(1 0 0 1 0 64.16667)">-69</text>
<text x="221.64061897916665" y="124.99999999999997" text-anchor="start" font-family="Verdana, Helvetica, Arial, sans-serif" font-size="10.416675" fill="rgba(13,13,13,1)" transform="matrix(1 0 0 1 0 64.16667)">-81</text>
<text x="-236.69271435416667" y="166.66666666666666" text-anchor="start" font-family="Verdana, Helvetica, Arial, sans-serif" font-size="10.416675" fill="rgba(255,250,222,1)" transform="matrix(1 0 0 1 0 64.16667)">-51</text>
<text x="-195.0260476875" y="166.66666666666666" text-anchor="start" font-family="Verdana, Helvetica, Arial, sans-serif" font-size="10.416675" fill="rgba(255,250,222,1)" transform="matrix(1 0 0 1 0 64.16667)">-31</text>
<text x="-153.35938102083333" y="166.66666666666666" text-anchor="start" font-family="Verdana, Helvetica, Arial, sans-serif" font-size="10.416675" fill="rgba(255,250,222,1)" transform="matrix(1 0 0 1 0 64.16667)">-12</text>
<text x="-111.69271435416665" y="166.66666666666666" text-anchor="start" font-family="Verdana, Helvetica, Arial, sans-serif" font-size="10.416675" fill="rgba(255,250,222,1)" transform="matrix(1 0 0 1 0 64.16667)">-19</text>
<text x="-65.39583565" y="166.66666666666666" text-anchor="start" font-family="Verdana, Helvetica, Arial, sans-serif" font-size="10.416675" fill="rgba(255,250,222,1)" transform="matrix(1 0 0 1 0 64.16667)">0</text>
<text x="-28.359381020833343" y="166.66666666666666" text-anchor="start" font-family="Verdana, Helvetica, Arial, sans-serif" font-size="10.416675" fill="rgba(255,250,222,1)" transform="matrix(1 0 0 1 0 64.16667)">-17</text>
<text x="13.307285645833343" y="166.66666666666666" text-anchor="start" font-family="Verdana, Helvetica, Arial, sans-serif" font-size="10.416675" fill="rgba(255,250,222,1)" transform="matrix(1 0 0 1 0 64.16667)">-11</text>
<text x="54.973952312499975" y="166.66666666666666" text-anchor="start" font-family="Verdana, Helvetica, Arial, sans-serif" font-size="10.416675" fill="rgba(255,250,222,1)" transform="matrix(1 0 0 1 0 64.16667)">-31</text>
<text x="96.64061897916666" y="166.66666666666666" text-anchor="start" font-family="Verdana, Helvetica, Arial, sans-serif" font-size="10.416675" fill="rgba(255,250,222,1)" transform="matrix(1 0 0 1 0 64.16667)">-53</text>
<text x="138.30728564583333" y="166.66666666666666" text-anchor="start" font-family="Verdana, Helvetica, Arial, sans-serif" font-size="10.416675" fill="rgba(255,250,222,1)" transform="matrix(1 0 0 1 0 64.16667)">-68</text>
<text x="179.97395231249996" y="166.66666666666666" text-anchor="start" font-family="Verdana, Helvetica, Arial, sans-serif" font-size="10.416675" fill="rgba(13,13,13,1)" transform="matrix(1 0 0 1 0 64.16667)">-87</text>
<text x="218.74478332916667" y="166.66666666666666" text-anchor="start" font-family="Verdana, Helvetica, Arial, sans-serif" font-size="10.416675" fill="rgba(13,13,13,1)" transform="matrix(1 0 0 1 0 64.16667)">-100</text>
<path d="M-13.995,72.263 L-1.824,38.054 L0.519,41.911 L6.276,49.609 L12.73,56.711 L19.832,63.165 L27.53,68.922 L30.982,71.019 Z M183.441,-14 L182.925,-24.224 L181.409,-34.153 L178.945,-43.737 L175.583,-52.925 L171.372,-61.666 L166.363,-69.911 L160.606,-77.609 L154.152,-84.711 L147.05,-91.165 L139.352,-96.922 L131.107,-101.931 L122.366,-106.142 L113.178,-109.504 L103.595,-111.968 L93.665,-113.484 L83.441,-114 L73.217,-113.484 L63.288,-111.968 L53.704,-109.504 L44.517,-106.142 L35.775,-101.931 L27.53,-96.922 L19.832,-91.165 L12.73,-84.711 L6.276,-77.609 L0.519,-69.911 L-4.49,-61.666 L-8.7,-52.925 L-12.063,-43.737 L-14.527,-34.153 L-16.043,-24.224 L-16.559,-14 L-16.043,-3.776 L-14.527,6.153 L-12.063,15.737 L-9.698,22.199 L-45.245,49.559 L-64.559,-16 L-83.873,49.559 L-138.032,7.873 L-115.123,72.263 L-183.441,70.373 L-127.059,109 L-183.441,147.627 L-115.123,145.737 L-138.032,210.127 L-83.873,168.441 L-64.559,234 L-45.245,168.441 L8.914,210.127 L-13.995,145.737 L54.323,147.627 L-2.059,109 L43.616,77.708 L44.517,78.142 L53.704,81.504 L63.288,83.968 L73.217,85.484 L83.441,86 L93.665,85.484 L103.595,83.968 L113.178,81.504 L122.366,78.142 L131.107,73.931 L139.352,68.922 L147.05,63.165 L154.152,56.711 L160.606,49.609 L166.363,41.911 L171.372,33.666 L175.583,24.925 L178.945,15.737 L181.409,6.153 L182.925,-3.776 Z" fill="rgba(0,0,0,0)" stroke="rgba(253,253,253,0.8784313725490196)" stroke-width="3"/>
</svg>