<svg xmlns="http://www.w3.org/2000/svg" viewBox="-178.52 -156.02 357.05 400.04">
<text x="-85.624" y="0" text-anchor="start" font-family="Verdana-Italic, Helvetica, Arial, sans-serif" font-size="44" fill="rgba(57,57,57,1)" transform="matrix(1 0 0 1 -43.434 -99.34)">1.75</text>
<text x="-85.624" y="0" text-anchor="start" font-family="Verdana-Italic, Helvetica, Arial, sans-serif" font-size="44" fill="rgba(57,57,57,1)" transform="matrix(1 0 0 1 -67.898 -37.34)">76.7</text>
<text x="-110.088" y="0" text-anchor="start" font-family="Verdana-Italic, Helvetica, Arial, sans-serif" font-size="44" fill="rgba(57,57,57,1)" transform="matrix(1 0 0 1 -43.434 24.659999999999997)">32.97</text>
<text x="-24.464000000000002" y="0" text-anchor="start" font-family="Verdana-Italic, Helvetica, Arial, sans-serif" font-size="44" fill="rgba(57,57,57,1)" transform="matrix(1 0 0 1 -104.594 86.66)">0</text>
<text x="-85.624" y="0" text-anchor="start" font-family="Verdana-Italic, Helvetica, Arial, sans-serif" font-size="44" fill="rgba(57,57,57,1)" transform="matrix(1 0 0 1 -43.434 148.66)">7.13</text>
<text x="-85.624" y="0" text-anchor="start" font-family="Verdana-Italic, Helvetica, Arial, sans-serif" font-size="44" fill="rgba(57,57,57,1)" transform="matrix(1 0 0 1 -43.434 210.66)">7.48</text>
<path d="M1.522,-112.34 L151.522,-112.34 L131.522,-126.34 L153.522,-112.34 L131.522,-98.34 L151.522,-112.34 Z" fill="none" stroke="rgba(0,0,0,1)" stroke-width="1"/>
<path d="M1.522,-51.34 L151.522,-51.34 L131.522,-65.34 L153.522,-51.34 L131.522,-37.34 L151.522,-51.34 Z" fill="none" stroke="rgba(0,0,0,1)" stroke-width="1"/>
<path d="M1.522,9.66 L151.522,9.66 L131.522,-4.34 L153.522,9.66 L131.522,23.66 L151.522,9.66 Z" fill="none" stroke="rgba(0,0,0,1)" stroke-width="1"/>
<path d="M1.522,70.66 L151.522,70.66 L131.522,56.66 L153.522,70.66 L131.522,84.66 L151.522,70.66 Z" fill="none" stroke="rgba(0,0,0,1)" stroke-width="1"/>
<path d="M1.522,131.66 L151.522,131.66 L131.522,117.66 L153.522,131.66 L131.522,145.66 L151.522,131.66 Z" fill="none" stroke="rgba(0,0,0,1)" stroke-width="1"/>
<path d="M1.522,192.66 L151.522,192.66 L131.522,178.66 L153.522,192.66 L131.522,206.66 L151.522,192.66 Z" fill="none" stroke="rgba(0,0,0,1)" stroke-width="1"/>
</svg>