<svg xmlns="http://www.w3.org/2000/svg" viewBox="-275.26 -182.09 532.35 483.33">
<path d="M-80,-35 L-50,-35 L-50,-35 L-50,-50 L-50,-50 L-50,-65 L-50,-65 L-80,-65 L-80,-65 L-110,-65 L-110,-65 L-110,-95 L-110,-95 L-110,-125 L-110,-125 L-125,-125 L-125,-125 L-140,-125 L-140,-125 L-140,-95 L-140,-95 L-140,-65 L-140,-65 L-170,-65 L-170,-65 L-200,-65 L-200,-65 L-200,-50 L-200,-50 L-200,-35 L-200,-35 L-170,-35 L-170,-35 L-140,-35 L-140,-35 L-140,-5 L-140,-5 L-140,25 L-140,25 L-125,25 L-125,25 L-110,25 L-110,25 L-110,-5 L-110,-5 L-110,-35 L-110,-35 L-80,-35 Z" fill="rgba(115,161,219,1)" stroke="rgba(0,0,0,1)" stroke-width="4"/>
<path d="M120.147,18.111 L125,50 L125,50 L129.853,18.111 L129.853,18.111 L134.706,-13.778 L134.706,-13.778 L154.853,11.412 L154.853,11.412 L175,36.603 L175,36.603 L163.258,6.56 L163.258,6.56 L151.517,-23.483 L151.517,-23.483 L181.56,-11.742 L181.56,-11.742 L211.603,0 L211.603,0 L186.412,-20.147 L186.412,-20.147 L161.222,-40.294 L161.222,-40.294 L193.111,-45.147 L193.111,-45.147 L225,-50 L225,-50 L193.111,-54.853 L193.111,-54.853 L161.222,-59.706 L161.222,-59.706 L186.412,-79.853 L186.412,-79.853 L211.603,-100 L211.603,-100 L181.56,-88.258 L181.56,-88.258 L151.517,-76.517 L151.517,-76.517 L163.258,-106.56 L163.258,-106.56 L175,-136.603 L175,-136.603 L154.853,-111.412 L154.853,-111.412 L134.706,-86.222 L134.706,-86.222 L129.853,-118.111 L129.853,-118.111 L125,-150 L125,-150 L120.147,-118.111 L120.147,-118.111 L115.294,-86.222 L115.294,-86.222 L95.147,-111.412 L95.147,-111.412 L75,-136.603 L75,-136.603 L86.742,-106.56 L86.742,-106.56 L98.483,-76.517 L98.483,-76.517 L68.44,-88.258 L68.44,-88.258 L38.397,-100 L38.397,-100 L63.588,-79.853 L63.588,-79.853 L88.778,-59.706 L88.778,-59.706 L56.889,-54.853 L56.889,-54.853 L25,-50 L25,-50 L56.889,-45.147 L56.889,-45.147 L88.778,-40.294 L88.778,-40.294 L63.588,-20.147 L63.588,-20.147 L38.397,0 L38.397,0 L68.44,-11.742 L68.44,-11.742 L98.483,-23.483 L98.483,-23.483 L86.742,6.56 L86.742,6.56 L75,36.603 L75,36.603 L95.147,11.412 L95.147,11.412 L115.294,-13.778 L115.294,-13.778 L120.147,18.111 Z" fill="rgba(115,161,219,1)" stroke="rgba(0,0,0,1)" stroke-width="4"/>
<path d="M-81.389,135.487 L-86.461,155.272 L-86.461,155.272 L-84.837,186.413 L-84.837,186.413 L-83.214,217.555 L-83.214,217.555 L-79.548,225.37 L-79.548,225.37 L-75.882,233.186 L-75.882,233.186 L-135.689,244.859 L-135.689,244.859 L-195.496,256.532 L-195.496,256.532 L-217.951,225.399 L-217.951,225.399 L-240.407,194.267 L-240.407,194.267 L-241.788,162.475 L-241.788,162.475 L-243.17,130.684 L-243.17,130.684 L-223.683,107.716 L-223.683,107.716 L-204.196,84.749 L-204.196,84.749 L-142.03,85.382 L-142.03,85.382 L-79.864,86.015 L-79.864,86.015 L-78.09,100.858 L-78.09,100.858 L-76.317,115.702 L-76.317,115.702 L-81.389,135.487 Z" fill="rgba(115,161,219,1)" stroke="rgba(0,0,0,1)" stroke-width="4"/>
<path d="M180.3,175.399 L214.403,184.738 L214.403,184.738 L191.365,186.579 L191.365,186.579 L168.328,188.42 L168.328,188.42 L160.664,186.055 L160.664,186.055 L153.001,183.689 L153.001,183.689 L186.772,205.308 L186.772,205.308 L220.544,226.927 L220.544,226.927 L218.839,233.53 L218.839,233.53 L217.135,240.133 L217.135,240.133 L214.619,243.088 L214.619,243.088 L212.103,246.043 L212.103,246.043 L187.925,230.237 L187.925,230.237 L163.746,214.431 L163.746,214.431 L187.17,241.789 L187.17,241.789 L210.593,269.147 L210.593,269.147 L136.935,262.761 L136.935,262.761 L63.276,256.376 L63.276,256.376 L57.383,249.525 L57.383,249.525 L51.49,242.675 L51.49,242.675 L49.104,243.478 L49.104,243.478 L46.719,244.281 L46.719,244.281 L51.144,219.523 L51.144,219.523 L55.569,194.766 L55.569,194.766 L77.343,179.955 L77.343,179.955 L99.117,165.144 L99.117,165.144 L102.343,127.53 L102.343,127.53 L105.569,89.916 L105.569,89.916 L110.273,93.379 L110.273,93.379 L114.976,96.843 L114.976,96.843 L128.204,91.249 L128.204,91.249 L141.431,85.656 L141.431,85.656 L160.959,90.569 L160.959,90.569 L180.488,95.483 L180.488,95.483 L186.629,91.67 L186.629,91.67 L192.769,87.858 L192.769,87.858 L191.029,102.236 L191.029,102.236 L189.289,116.613 L189.289,116.613 L167.744,141.337 L167.744,141.337 L146.198,166.061 L146.198,166.061 L180.3,175.399 Z" fill="rgba(115,161,219,1)" stroke="rgba(0,0,0,1)" stroke-width="4"/>
</svg>