<svg xmlns="http://www.w3.org/2000/svg" viewBox="-267.2 -157.2 534.4 314.4">
<path d="M-92.625,-60.59 L-92.89,-58.855 L-93.32,-57.182 L-93.907,-55.577 L-94.643,-54.05 L-95.518,-52.61 L-96.523,-51.266 L-97.65,-50.026 L-98.891,-48.898 L-100.235,-47.893 L-101.675,-47.018 L-103.202,-46.283 L-104.806,-45.695 L-106.48,-45.265 L-108.214,-45 L-110,-44.91 L-111.786,-45 L-113.52,-45.265 L-115.194,-45.695 L-116.798,-46.283 L-118.325,-47.018 L-119.765,-47.893 L-121.109,-48.898 L-122.35,-50.026 L-123.477,-51.266 L-124.482,-52.61 L-125.357,-54.05 L-126.093,-55.577 L-126.68,-57.182 L-127.11,-58.855 L-127.375,-60.59 L-127.465,-62.375 L-127.375,-64.161 L-127.11,-65.895 L-126.68,-67.569 L-126.093,-69.173 L-125.357,-70.7 L-124.482,-72.14 L-123.477,-73.485 L-122.35,-74.725 L-121.109,-75.852 L-119.765,-76.858 L-118.325,-77.732 L-116.798,-78.468 L-115.194,-79.055 L-113.52,-79.485 L-111.786,-79.75 L-110,-79.84 L-108.214,-79.75 L-106.48,-79.485 L-104.806,-79.055 L-103.202,-78.468 L-101.675,-77.732 L-100.235,-76.858 L-98.891,-75.852 L-97.65,-74.725 L-96.523,-73.485 L-95.518,-72.14 L-94.643,-70.7 L-93.907,-69.173 L-93.32,-67.569 L-92.89,-65.895 L-92.625,-64.161 L-92.535,-62.375 L-92.625,64.161 L-92.89,65.895 L-93.32,67.569 L-93.907,69.173 L-94.643,70.7 L-95.518,72.14 L-96.523,73.485 L-97.65,74.725 L-98.891,75.852 L-100.235,76.858 L-101.675,77.732 L-103.202,78.468 L-104.806,79.055 L-106.48,79.485 L-108.214,79.75 L-110,79.84 L-111.786,79.75 L-113.52,79.485 L-115.194,79.055 L-116.798,78.468 L-118.325,77.732 L-119.765,76.858 L-121.109,75.852 L-122.35,74.725 L-123.477,73.485 L-124.482,72.14 L-125.357,70.7 L-126.093,69.173 L-126.68,67.569 L-127.11,65.895 L-127.375,64.161 L-127.465,62.375 L-127.375,60.59 L-127.11,58.855 L-126.68,57.182 L-126.093,55.577 L-125.357,54.05 L-124.482,52.61 L-123.477,51.266 L-122.35,50.026 L-121.109,48.898 L-119.765,47.893 L-118.325,47.018 L-116.798,46.283 L-115.194,45.695 L-113.52,45.265 L-111.786,45 L-110,44.91 L-108.214,45 L-106.48,45.265 L-104.806,45.695 L-103.202,46.283 L-101.675,47.018 L-100.235,47.893 L-98.891,48.898 L-97.65,50.026 L-96.523,51.266 L-95.518,52.61 L-94.643,54.05 L-93.907,55.577 L-93.32,57.182 L-92.89,58.855 L-92.625,60.59 L-92.535,62.375 L-47.947,-55.998 L-48.892,-49.804 L-50.429,-43.827 L-52.527,-38.096 L-55.153,-32.644 L-58.277,-27.501 L-61.868,-22.699 L-65.894,-18.269 L-70.324,-14.243 L-75.125,-10.653 L-80.268,-7.528 L-85.721,-4.902 L-91.452,-2.804 L-97.429,-1.267 L-103.622,-0.322 L-116.378,0.322 L-122.571,1.267 L-128.548,2.804 L-134.279,4.902 L-139.732,7.528 L-144.875,10.653 L-149.676,14.243 L-154.106,18.269 L-158.132,22.699 L-161.723,27.501 L-164.847,32.644 L-167.473,38.096 L-169.571,43.827 L-171.108,49.804 L-172.053,55.998 L-172.375,62.375 L-172.053,68.753 L-171.108,74.946 L-169.571,80.924 L-167.473,86.655 L-164.847,92.107 L-161.723,97.25 L-158.132,102.052 L-154.106,106.481 L-149.676,110.507 L-144.875,114.098 L-139.732,117.222 L-134.279,119.849 L-128.548,121.946 L-122.571,123.483 L-116.378,124.428 L-110,124.75 L-116.186,124.597 L-122.33,124.14 L-128.422,123.383 L-134.451,122.331 L-140.408,120.988 L-146.282,119.358 L-152.063,117.445 L-157.74,115.254 L-163.304,112.789 L-168.744,110.054 L-174.05,107.053 L-179.212,103.791 L-184.219,100.271 L-189.062,96.499 L-193.729,92.478 L-198.212,88.212 L-202.478,83.729 L-206.499,79.062 L-210.271,74.219 L-213.791,69.212 L-217.053,64.05 L-220.054,58.744 L-222.789,53.304 L-225.254,47.74 L-227.445,42.063 L-229.358,36.282 L-230.988,30.408 L-232.331,24.451 L-233.383,18.422 L-234.14,12.33 L-234.597,6.186 L-234.75,0 L-234.597,-6.186 L-234.14,-12.33 L-233.383,-18.422 L-232.331,-24.451 L-230.988,-30.408 L-229.358,-36.282 L-227.445,-42.063 L-225.254,-47.74 L-222.789,-53.304 L-220.054,-58.744 L-217.053,-64.05 L-213.791,-69.212 L-210.271,-74.219 L-206.499,-79.062 L-202.478,-83.729 L-198.212,-88.212 L-193.729,-92.478 L-189.062,-96.499 L-184.219,-100.271 L-179.212,-103.791 L-174.05,-107.053 L-168.744,-110.054 L-163.304,-112.789 L-157.74,-115.254 L-152.063,-117.445 L-146.282,-119.358 L-140.408,-120.988 L-134.451,-122.331 L-128.422,-123.383 L-122.33,-124.14 L-116.186,-124.597 L-110,-124.75 L-103.622,-124.428 L-97.429,-123.483 L-91.452,-121.946 L-85.721,-119.849 L-80.268,-117.222 L-75.125,-114.098 L-70.324,-110.507 L-65.894,-106.481 L-61.868,-102.052 L-58.277,-97.25 L-55.153,-92.107 L-52.527,-86.655 L-50.429,-80.924 L-48.892,-74.946 L-47.947,-68.753 L-47.625,-62.375 L14.355,12.781 L12.46,25.192 L9.38,37.171 L5.177,48.656 L-0.087,59.582 L-6.348,69.889 L-13.544,79.512 L-21.612,88.388 L-30.488,96.456 L-40.111,103.652 L-50.418,109.913 L-61.344,115.177 L-72.829,119.38 L-84.808,122.46 L-97.219,124.355 L-110,125 L-122.781,124.355 L-135.192,122.46 L-147.171,119.38 L-158.656,115.177 L-169.582,109.913 L-179.889,103.652 L-189.512,96.456 L-198.388,88.388 L-206.456,79.512 L-213.652,69.889 L-219.913,59.582 L-225.177,48.656 L-229.38,37.171 L-232.46,25.192 L-234.355,12.781 L-235,0 L-234.355,-12.781 L-232.46,-25.192 L-229.38,-37.171 L-225.177,-48.656 L-219.913,-59.582 L-213.652,-69.889 L-206.456,-79.512 L-198.388,-88.388 L-189.512,-96.456 L-179.889,-103.652 L-169.582,-109.913 L-158.656,-115.177 L-147.171,-119.38 L-135.192,-122.46 L-122.781,-124.355 L-110,-125 L-97.219,-124.355 L-84.808,-122.46 L-72.829,-119.38 L-61.344,-115.177 L-50.418,-109.913 L-40.111,-103.652 L-30.488,-96.456 L-21.612,-88.388 L-13.544,-79.512 L-6.348,-69.889 L-0.087,-59.582 L5.177,-48.656 L9.38,-37.171 L12.46,-25.192 L14.355,-12.781 L15,0" fill="rgba(181,222,204,1)"/>
<path d="M-92.625,-60.59 L-92.89,-58.855 L-93.32,-57.182 L-93.907,-55.577 L-94.643,-54.05 L-95.518,-52.61 L-96.523,-51.266 L-97.65,-50.026 L-98.891,-48.898 L-100.235,-47.893 L-101.675,-47.018 L-103.202,-46.283 L-104.806,-45.695 L-106.48,-45.265 L-108.214,-45 L-110,-44.91 L-111.786,-45 L-113.52,-45.265 L-115.194,-45.695 L-116.798,-46.283 L-118.325,-47.018 L-119.765,-47.893 L-121.109,-48.898 L-122.35,-50.026 L-123.477,-51.266 L-124.482,-52.61 L-125.357,-54.05 L-126.093,-55.577 L-126.68,-57.182 L-127.11,-58.855 L-127.375,-60.59 L-127.465,-62.375 L-127.375,-64.161 L-127.11,-65.895 L-126.68,-67.569 L-126.093,-69.173 L-125.357,-70.7 L-124.482,-72.14 L-123.477,-73.485 L-122.35,-74.725 L-121.109,-75.852 L-119.765,-76.858 L-118.325,-77.732 L-116.798,-78.468 L-115.194,-79.055 L-113.52,-79.485 L-111.786,-79.75 L-110,-79.84 L-108.214,-79.75 L-106.48,-79.485 L-104.806,-79.055 L-103.202,-78.468 L-101.675,-77.732 L-100.235,-76.858 L-98.891,-75.852 L-97.65,-74.725 L-96.523,-73.485 L-95.518,-72.14 L-94.643,-70.7 L-93.907,-69.173 L-93.32,-67.569 L-92.89,-65.895 L-92.625,-64.161 L-92.535,-62.375 L-92.625,64.161 L-92.89,65.895 L-93.32,67.569 L-93.907,69.173 L-94.643,70.7 L-95.518,72.14 L-96.523,73.485 L-97.65,74.725 L-98.891,75.852 L-100.235,76.858 L-101.675,77.732 L-103.202,78.468 L-104.806,79.055 L-106.48,79.485 L-108.214,79.75 L-110,79.84 L-111.786,79.75 L-113.52,79.485 L-115.194,79.055 L-116.798,78.468 L-118.325,77.732 L-119.765,76.858 L-121.109,75.852 L-122.35,74.725 L-123.477,73.485 L-124.482,72.14 L-125.357,70.7 L-126.093,69.173 L-126.68,67.569 L-127.11,65.895 L-127.375,64.161 L-127.465,62.375 L-127.375,60.59 L-127.11,58.855 L-126.68,57.182 L-126.093,55.577 L-125.357,54.05 L-124.482,52.61 L-123.477,51.266 L-122.35,50.026 L-121.109,48.898 L-119.765,47.893 L-118.325,47.018 L-116.798,46.283 L-115.194,45.695 L-113.52,45.265 L-111.786,45 L-110,44.91 L-108.214,45 L-106.48,45.265 L-104.806,45.695 L-103.202,46.283 L-101.675,47.018 L-100.235,47.893 L-98.891,48.898 L-97.65,50.026 L-96.523,51.266 L-95.518,52.61 L-94.643,54.05 L-93.907,55.577 L-93.32,57.182 L-92.89,58.855 L-92.625,60.59 L-92.535,62.375 L-47.947,-55.998 L-48.892,-49.804 L-50.429,-43.827 L-52.527,-38.096 L-55.153,-32.644 L-58.277,-27.501 L-61.868,-22.699 L-65.894,-18.269 L-70.324,-14.243 L-75.125,-10.653 L-80.268,-7.528 L-85.721,-4.902 L-91.452,-2.804 L-97.429,-1.267 L-103.622,-0.322 L-116.378,0.322 L-122.571,1.267 L-128.548,2.804 L-134.279,4.902 L-139.732,7.528 L-144.875,10.653 L-149.676,14.243 L-154.106,18.269 L-158.132,22.699 L-161.723,27.501 L-164.847,32.644 L-167.473,38.096 L-169.571,43.827 L-171.108,49.804 L-172.053,55.998 L-172.375,62.375 L-172.053,68.753 L-171.108,74.946 L-169.571,80.924 L-167.473,86.655 L-164.847,92.107 L-161.723,97.25 L-158.132,102.052 L-154.106,106.481 L-149.676,110.507 L-144.875,114.098 L-139.732,117.222 L-134.279,119.849 L-128.548,121.946 L-122.571,123.483 L-116.378,124.428 L-110,124.75 L-116.186,124.597 L-122.33,124.14 L-128.422,123.383 L-134.451,122.331 L-140.408,120.988 L-146.282,119.358 L-152.063,117.445 L-157.74,115.254 L-163.304,112.789 L-168.744,110.054 L-174.05,107.053 L-179.212,103.791 L-184.219,100.271 L-189.062,96.499 L-193.729,92.478 L-198.212,88.212 L-202.478,83.729 L-206.499,79.062 L-210.271,74.219 L-213.791,69.212 L-217.053,64.05 L-220.054,58.744 L-222.789,53.304 L-225.254,47.74 L-227.445,42.063 L-229.358,36.282 L-230.988,30.408 L-232.331,24.451 L-233.383,18.422 L-234.14,12.33 L-234.597,6.186 L-234.75,0 L-234.597,-6.186 L-234.14,-12.33 L-233.383,-18.422 L-232.331,-24.451 L-230.988,-30.408 L-229.358,-36.282 L-227.445,-42.063 L-225.254,-47.74 L-222.789,-53.304 L-220.054,-58.744 L-217.053,-64.05 L-213.791,-69.212 L-210.271,-74.219 L-206.499,-79.062 L-202.478,-83.729 L-198.212,-88.212 L-193.729,-92.478 L-189.062,-96.499 L-184.219,-100.271 L-179.212,-103.791 L-174.05,-107.053 L-168.744,-110.054 L-163.304,-112.789 L-157.74,-115.254 L-152.063,-117.445 L-146.282,-119.358 L-140.408,-120.988 L-134.451,-122.331 L-128.422,-123.383 L-122.33,-124.14 L-116.186,-124.597 L-110,-124.75 L-103.622,-124.428 L-97.429,-123.483 L-91.452,-121.946 L-85.721,-119.849 L-80.268,-117.222 L-75.125,-114.098 L-70.324,-110.507 L-65.894,-106.481 L-61.868,-102.052 L-58.277,-97.25 L-55.153,-92.107 L-52.527,-86.655 L-50.429,-80.924 L-48.892,-74.946 L-47.947,-68.753 L-47.625,-62.375 L14.355,12.781 L12.46,25.192 L9.38,37.171 L5.177,48.656 L-0.087,59.582 L-6.348,69.889 L-13.544,79.512 L-21.612,88.388 L-30.488,96.456 L-40.111,103.652 L-50.418,109.913 L-61.344,115.177 L-72.829,119.38 L-84.808,122.46 L-97.219,124.355 L-110,125 L-122.781,124.355 L-135.192,122.46 L-147.171,119.38 L-158.656,115.177 L-169.582,109.913 L-179.889,103.652 L-189.512,96.456 L-198.388,88.388 L-206.456,79.512 L-213.652,69.889 L-219.913,59.582 L-225.177,48.656 L-229.38,37.171 L-232.46,25.192 L-234.355,12.781 L-235,0 L-234.355,-12.781 L-232.46,-25.192 L-229.38,-37.171 L-225.177,-48.656 L-219.913,-59.582 L-213.652,-69.889 L-206.456,-79.512 L-198.388,-88.388 L-189.512,-96.456 L-179.889,-103.652 L-169.582,-109.913 L-158.656,-115.177 L-147.171,-119.38 L-135.192,-122.46 L-122.781,-124.355 L-110,-125 L-97.219,-124.355 L-84.808,-122.46 L-72.829,-119.38 L-61.344,-115.177 L-50.418,-109.913 L-40.111,-103.652 L-30.488,-96.456 L-21.612,-88.388 L-13.544,-79.512 L-6.348,-69.889 L-0.087,-59.582 L5.177,-48.656 L9.38,-37.171 L12.46,-25.192 L14.355,-12.781 L15,0" fill="rgba(52,69,76,1)"/>
<path d="M-92.625,-60.59 L-92.89,-58.855 L-93.32,-57.182 L-93.907,-55.577 L-94.643,-54.05 L-95.518,-52.61 L-96.523,-51.266 L-97.65,-50.026 L-98.891,-48.898 L-100.235,-47.893 L-101.675,-47.018 L-103.202,-46.283 L-104.806,-45.695 L-106.48,-45.265 L-108.214,-45 L-110,-44.91 L-111.786,-45 L-113.52,-45.265 L-115.194,-45.695 L-116.798,-46.283 L-118.325,-47.018 L-119.765,-47.893 L-121.109,-48.898 L-122.35,-50.026 L-123.477,-51.266 L-124.482,-52.61 L-125.357,-54.05 L-126.093,-55.577 L-126.68,-57.182 L-127.11,-58.855 L-127.375,-60.59 L-127.465,-62.375 L-127.375,-64.161 L-127.11,-65.895 L-126.68,-67.569 L-126.093,-69.173 L-125.357,-70.7 L-124.482,-72.14 L-123.477,-73.485 L-122.35,-74.725 L-121.109,-75.852 L-119.765,-76.858 L-118.325,-77.732 L-116.798,-78.468 L-115.194,-79.055 L-113.52,-79.485 L-111.786,-79.75 L-110,-79.84 L-108.214,-79.75 L-106.48,-79.485 L-104.806,-79.055 L-103.202,-78.468 L-101.675,-77.732 L-100.235,-76.858 L-98.891,-75.852 L-97.65,-74.725 L-96.523,-73.485 L-95.518,-72.14 L-94.643,-70.7 L-93.907,-69.173 L-93.32,-67.569 L-92.89,-65.895 L-92.625,-64.161 L-92.535,-62.375 L-92.625,64.161 L-92.89,65.895 L-93.32,67.569 L-93.907,69.173 L-94.643,70.7 L-95.518,72.14 L-96.523,73.485 L-97.65,74.725 L-98.891,75.852 L-100.235,76.858 L-101.675,77.732 L-103.202,78.468 L-104.806,79.055 L-106.48,79.485 L-108.214,79.75 L-110,79.84 L-111.786,79.75 L-113.52,79.485 L-115.194,79.055 L-116.798,78.468 L-118.325,77.732 L-119.765,76.858 L-121.109,75.852 L-122.35,74.725 L-123.477,73.485 L-124.482,72.14 L-125.357,70.7 L-126.093,69.173 L-126.68,67.569 L-127.11,65.895 L-127.375,64.161 L-127.465,62.375 L-127.375,60.59 L-127.11,58.855 L-126.68,57.182 L-126.093,55.577 L-125.357,54.05 L-124.482,52.61 L-123.477,51.266 L-122.35,50.026 L-121.109,48.898 L-119.765,47.893 L-118.325,47.018 L-116.798,46.283 L-115.194,45.695 L-113.52,45.265 L-111.786,45 L-110,44.91 L-108.214,45 L-106.48,45.265 L-104.806,45.695 L-103.202,46.283 L-101.675,47.018 L-100.235,47.893 L-98.891,48.898 L-97.65,50.026 L-96.523,51.266 L-95.518,52.61 L-94.643,54.05 L-93.907,55.577 L-93.32,57.182 L-92.89,58.855 L-92.625,60.59 L-92.535,62.375 L-47.947,-55.998 L-48.892,-49.804 L-50.429,-43.827 L-52.527,-38.096 L-55.153,-32.644 L-58.277,-27.501 L-61.868,-22.699 L-65.894,-18.269 L-70.324,-14.243 L-75.125,-10.653 L-80.268,-7.528 L-85.721,-4.902 L-91.452,-2.804 L-97.429,-1.267 L-103.622,-0.322 L-116.378,0.322 L-122.571,1.267 L-128.548,2.804 L-134.279,4.902 L-139.732,7.528 L-144.875,10.653 L-149.676,14.243 L-154.106,18.269 L-158.132,22.699 L-161.723,27.501 L-164.847,32.644 L-167.473,38.096 L-169.571,43.827 L-171.108,49.804 L-172.053,55.998 L-172.375,62.375 L-172.053,68.753 L-171.108,74.946 L-169.571,80.924 L-167.473,86.655 L-164.847,92.107 L-161.723,97.25 L-158.132,102.052 L-154.106,106.481 L-149.676,110.507 L-144.875,114.098 L-139.732,117.222 L-134.279,119.849 L-128.548,121.946 L-122.571,123.483 L-116.378,124.428 L-110,124.75 L-116.186,124.597 L-122.33,124.14 L-128.422,123.383 L-134.451,122.331 L-140.408,120.988 L-146.282,119.358 L-152.063,117.445 L-157.74,115.254 L-163.304,112.789 L-168.744,110.054 L-174.05,107.053 L-179.212,103.791 L-184.219,100.271 L-189.062,96.499 L-193.729,92.478 L-198.212,88.212 L-202.478,83.729 L-206.499,79.062 L-210.271,74.219 L-213.791,69.212 L-217.053,64.05 L-220.054,58.744 L-222.789,53.304 L-225.254,47.74 L-227.445,42.063 L-229.358,36.282 L-230.988,30.408 L-232.331,24.451 L-233.383,18.422 L-234.14,12.33 L-234.597,6.186 L-234.75,0 L-234.597,-6.186 L-234.14,-12.33 L-233.383,-18.422 L-232.331,-24.451 L-230.988,-30.408 L-229.358,-36.282 L-227.445,-42.063 L-225.254,-47.74 L-222.789,-53.304 L-220.054,-58.744 L-217.053,-64.05 L-213.791,-69.212 L-210.271,-74.219 L-206.499,-79.062 L-202.478,-83.729 L-198.212,-88.212 L-193.729,-92.478 L-189.062,-96.499 L-184.219,-100.271 L-179.212,-103.791 L-174.05,-107.053 L-168.744,-110.054 L-163.304,-112.789 L-157.74,-115.254 L-152.063,-117.445 L-146.282,-119.358 L-140.408,-120.988 L-134.451,-122.331 L-128.422,-123.383 L-122.33,-124.14 L-116.186,-124.597 L-110,-124.75 L-103.622,-124.428 L-97.429,-123.483 L-91.452,-121.946 L-85.721,-119.849 L-80.268,-117.222 L-75.125,-114.098 L-70.324,-110.507 L-65.894,-106.481 L-61.868,-102.052 L-58.277,-97.25 L-55.153,-92.107 L-52.527,-86.655 L-50.429,-80.924 L-48.892,-74.946 L-47.947,-68.753 L-47.625,-62.375 L14.355,12.781 L12.46,25.192 L9.38,37.171 L5.177,48.656 L-0.087,59.582 L-6.348,69.889 L-13.544,79.512 L-21.612,88.388 L-30.488,96.456 L-40.111,103.652 L-50.418,109.913 L-61.344,115.177 L-72.829,119.38 L-84.808,122.46 L-97.219,124.355 L-110,125 L-122.781,124.355 L-135.192,122.46 L-147.171,119.38 L-158.656,115.177 L-169.582,109.913 L-179.889,103.652 L-189.512,96.456 L-198.388,88.388 L-206.456,79.512 L-213.652,69.889 L-219.913,59.582 L-225.177,48.656 L-229.38,37.171 L-232.46,25.192 L-234.355,12.781 L-235,0 L-234.355,-12.781 L-232.46,-25.192 L-229.38,-37.171 L-225.177,-48.656 L-219.913,-59.582 L-213.652,-69.889 L-206.456,-79.512 L-198.388,-88.388 L-189.512,-96.456 L-179.889,-103.652 L-169.582,-109.913 L-158.656,-115.177 L-147.171,-119.38 L-135.192,-122.46 L-122.781,-124.355 L-110,-125 L-97.219,-124.355 L-84.808,-122.46 L-72.829,-119.38 L-61.344,-115.177 L-50.418,-109.913 L-40.111,-103.652 L-30.488,-96.456 L-21.612,-88.388 L-13.544,-79.512 L-6.348,-69.889 L-0.087,-59.582 L5.177,-48.656 L9.38,-37.171 L12.46,-25.192 L14.355,-12.781 L15,0" fill="rgba(174,82,36,1)"/>
<path d="M-92.625,-60.59 L-92.89,-58.855 L-93.32,-57.182 L-93.907,-55.577 L-94.643,-54.05 L-95.518,-52.61 L-96.523,-51.266 L-97.65,-50.026 L-98.891,-48.898 L-100.235,-47.893 L-101.675,-47.018 L-103.202,-46.283 L-104.806,-45.695 L-106.48,-45.265 L-108.214,-45 L-110,-44.91 L-111.786,-45 L-113.52,-45.265 L-115.194,-45.695 L-116.798,-46.283 L-118.325,-47.018 L-119.765,-47.893 L-121.109,-48.898 L-122.35,-50.026 L-123.477,-51.266 L-124.482,-52.61 L-125.357,-54.05 L-126.093,-55.577 L-126.68,-57.182 L-127.11,-58.855 L-127.375,-60.59 L-127.465,-62.375 L-127.375,-64.161 L-127.11,-65.895 L-126.68,-67.569 L-126.093,-69.173 L-125.357,-70.7 L-124.482,-72.14 L-123.477,-73.485 L-122.35,-74.725 L-121.109,-75.852 L-119.765,-76.858 L-118.325,-77.732 L-116.798,-78.468 L-115.194,-79.055 L-113.52,-79.485 L-111.786,-79.75 L-110,-79.84 L-108.214,-79.75 L-106.48,-79.485 L-104.806,-79.055 L-103.202,-78.468 L-101.675,-77.732 L-100.235,-76.858 L-98.891,-75.852 L-97.65,-74.725 L-96.523,-73.485 L-95.518,-72.14 L-94.643,-70.7 L-93.907,-69.173 L-93.32,-67.569 L-92.89,-65.895 L-92.625,-64.161 L-92.535,-62.375 L-92.625,64.161 L-92.89,65.895 L-93.32,67.569 L-93.907,69.173 L-94.643,70.7 L-95.518,72.14 L-96.523,73.485 L-97.65,74.725 L-98.891,75.852 L-100.235,76.858 L-101.675,77.732 L-103.202,78.468 L-104.806,79.055 L-106.48,79.485 L-108.214,79.75 L-110,79.84 L-111.786,79.75 L-113.52,79.485 L-115.194,79.055 L-116.798,78.468 L-118.325,77.732 L-119.765,76.858 L-121.109,75.852 L-122.35,74.725 L-123.477,73.485 L-124.482,72.14 L-125.357,70.7 L-126.093,69.173 L-126.68,67.569 L-127.11,65.895 L-127.375,64.161 L-127.465,62.375 L-127.375,60.59 L-127.11,58.855 L-126.68,57.182 L-126.093,55.577 L-125.357,54.05 L-124.482,52.61 L-123.477,51.266 L-122.35,50.026 L-121.109,48.898 L-119.765,47.893 L-118.325,47.018 L-116.798,46.283 L-115.194,45.695 L-113.52,45.265 L-111.786,45 L-110,44.91 L-108.214,45 L-106.48,45.265 L-104.806,45.695 L-103.202,46.283 L-101.675,47.018 L-100.235,47.893 L-98.891,48.898 L-97.65,50.026 L-96.523,51.266 L-95.518,52.61 L-94.643,54.05 L-93.907,55.577 L-93.32,57.182 L-92.89,58.855 L-92.625,60.59 L-92.535,62.375 L-47.947,-55.998 L-48.892,-49.804 L-50.429,-43.827 L-52.527,-38.096 L-55.153,-32.644 L-58.277,-27.501 L-61.868,-22.699 L-65.894,-18.269 L-70.324,-14.243 L-75.125,-10.653 L-80.268,-7.528 L-85.721,-4.902 L-91.452,-2.804 L-97.429,-1.267 L-103.622,-0.322 L-116.378,0.322 L-122.571,1.267 L-128.548,2.804 L-134.279,4.902 L-139.732,7.528 L-144.875,10.653 L-149.676,14.243 L-154.106,18.269 L-158.132,22.699 L-161.723,27.501 L-164.847,32.644 L-167.473,38.096 L-169.571,43.827 L-171.108,49.804 L-172.053,55.998 L-172.375,62.375 L-172.053,68.753 L-171.108,74.946 L-169.571,80.924 L-167.473,86.655 L-164.847,92.107 L-161.723,97.25 L-158.132,102.052 L-154.106,106.481 L-149.676,110.507 L-144.875,114.098 L-139.732,117.222 L-134.279,119.849 L-128.548,121.946 L-122.571,123.483 L-116.378,124.428 L-110,124.75 L-116.186,124.597 L-122.33,124.14 L-128.422,123.383 L-134.451,122.331 L-140.408,120.988 L-146.282,119.358 L-152.063,117.445 L-157.74,115.254 L-163.304,112.789 L-168.744,110.054 L-174.05,107.053 L-179.212,103.791 L-184.219,100.271 L-189.062,96.499 L-193.729,92.478 L-198.212,88.212 L-202.478,83.729 L-206.499,79.062 L-210.271,74.219 L-213.791,69.212 L-217.053,64.05 L-220.054,58.744 L-222.789,53.304 L-225.254,47.74 L-227.445,42.063 L-229.358,36.282 L-230.988,30.408 L-232.331,24.451 L-233.383,18.422 L-234.14,12.33 L-234.597,6.186 L-234.75,0 L-234.597,-6.186 L-234.14,-12.33 L-233.383,-18.422 L-232.331,-24.451 L-230.988,-30.408 L-229.358,-36.282 L-227.445,-42.063 L-225.254,-47.74 L-222.789,-53.304 L-220.054,-58.744 L-217.053,-64.05 L-213.791,-69.212 L-210.271,-74.219 L-206.499,-79.062 L-202.478,-83.729 L-198.212,-88.212 L-193.729,-92.478 L-189.062,-96.499 L-184.219,-100.271 L-179.212,-103.791 L-174.05,-107.053 L-168.744,-110.054 L-163.304,-112.789 L-157.74,-115.254 L-152.063,-117.445 L-146.282,-119.358 L-140.408,-120.988 L-134.451,-122.331 L-128.422,-123.383 L-122.33,-124.14 L-116.186,-124.597 L-110,-124.75 L-103.622,-124.428 L-97.429,-123.483 L-91.452,-121.946 L-85.721,-119.849 L-80.268,-117.222 L-75.125,-114.098 L-70.324,-110.507 L-65.894,-106.481 L-61.868,-102.052 L-58.277,-97.25 L-55.153,-92.107 L-52.527,-86.655 L-50.429,-80.924 L-48.892,-74.946 L-47.947,-68.753 L-47.625,-62.375 L14.355,12.781 L12.46,25.192 L9.38,37.171 L5.177,48.656 L-0.087,59.582 L-6.348,69.889 L-13.544,79.512 L-21.612,88.388 L-30.488,96.456 L-40.111,103.652 L-50.418,109.913 L-61.344,115.177 L-72.829,119.38 L-84.808,122.46 L-97.219,124.355 L-110,125 L-122.781,124.355 L-135.192,122.46 L-147.171,119.38 L-158.656,115.177 L-169.582,109.913 L-179.889,103.652 L-189.512,96.456 L-198.388,88.388 L-206.456,79.512 L-213.652,69.889 L-219.913,59.582 L-225.177,48.656 L-229.38,37.171 L-232.46,25.192 L-234.355,12.781 L-235,0 L-234.355,-12.781 L-232.46,-25.192 L-229.38,-37.171 L-225.177,-48.656 L-219.913,-59.582 L-213.652,-69.889 L-206.456,-79.512 L-198.388,-88.388 L-189.512,-96.456 L-179.889,-103.652 L-169.582,-109.913 L-158.656,-115.177 L-147.171,-119.38 L-135.192,-122.46 L-122.781,-124.355 L-110,-125 L-97.219,-124.355 L-84.808,-122.46 L-72.829,-119.38 L-61.344,-115.177 L-50.418,-109.913 L-40.111,-103.652 L-30.488,-96.456 L-21.612,-88.388 L-13.544,-79.512 L-6.348,-69.889 L-0.087,-59.582 L5.177,-48.656 L9.38,-37.171 L12.46,-25.192 L14.355,-12.781 L15,0" fill="rgba(238,180,128,1)"/>
<path d="M63.357,-62.5 L63.357,-102.5 L35,-102.5 L35,-62.5 Z" fill="rgba(52,69,76,1)"/>
<path d="M92.214,-62.5 L92.214,-102.5 L62.357,-102.5 L62.357,-62.5 Z" fill="rgba(111,79,64,1)"/>
<path d="M121.071,-62.5 L121.071,-102.5 L91.214,-102.5 L91.214,-62.5 Z" fill="rgba(170,82,39,1)"/>
<path d="M149.929,-62.5 L149.929,-102.5 L120.071,-102.5 L120.071,-62.5 Z" fill="rgba(205,128,80,1)"/>
<path d="M178.786,-62.5 L178.786,-102.5 L148.929,-102.5 L148.929,-62.5 Z" fill="rgba(235,176,125,1)"/>
<path d="M207.643,-62.5 L207.643,-102.5 L177.786,-102.5 L177.786,-62.5 Z" fill="rgba(215,201,165,1)"/>
<path d="M235,-62.5 L235,-102.5 L206.643,-102.5 L206.643,-62.5 Z" fill="rgba(181,222,204,1)"/>
<path d="M63.357,-7.5 L63.357,-47.5 L35,-47.5 L35,-7.5 Z" fill="rgba(174,82,36,1)"/>
<path d="M92.214,-7.5 L92.214,-47.5 L62.357,-47.5 L62.357,-7.5 Z" fill="rgba(205,128,80,1)"/>
<path d="M121.071,-7.5 L121.071,-47.5 L91.214,-47.5 L91.214,-7.5 Z" fill="rgba(237,178,126,1)"/>
<path d="M149.929,-7.5 L149.929,-47.5 L120.071,-47.5 L120.071,-7.5 Z" fill="rgba(215,201,165,1)"/>
<path d="M178.786,-7.5 L178.786,-47.5 L148.929,-47.5 L148.929,-7.5 Z" fill="rgba(183,221,202,1)"/>
<path d="M207.643,-7.5 L207.643,-47.5 L177.786,-47.5 L177.786,-7.5 Z" fill="rgba(114,144,139,1)"/>
<path d="M235,-7.5 L235,-47.5 L206.643,-47.5 L206.643,-7.5 Z" fill="rgba(52,69,76,1)"/>
<path d="M63.357,47.5 L63.357,7.5 L35,7.5 L35,47.5 Z" fill="rgba(181,222,204,1)"/>
<path d="M92.214,47.5 L92.214,7.5 L62.357,7.5 L62.357,47.5 Z" fill="rgba(118,148,143,1)"/>
<path d="M121.071,47.5 L121.071,7.5 L91.214,7.5 L91.214,47.5 Z" fill="rgba(58,75,82,1)"/>
<path d="M149.929,47.5 L149.929,7.5 L120.071,7.5 L120.071,47.5 Z" fill="rgba(133,117,100,1)"/>
<path d="M178.786,47.5 L178.786,7.5 L148.929,7.5 L148.929,47.5 Z" fill="rgba(228,173,124,1)"/>
<path d="M207.643,47.5 L207.643,7.5 L177.786,7.5 L177.786,47.5 Z" fill="rgba(210,135,87,1)"/>
<path d="M235,47.5 L235,7.5 L206.643,7.5 L206.643,47.5 Z" fill="rgba(174,82,36,1)"/>
<path d="M63.357,102.5 L63.357,62.5 L35,62.5 L35,102.5 Z" fill="rgba(52,69,76,1)"/>
<path d="M92.214,102.5 L92.214,62.5 L62.357,62.5 L62.357,102.5 Z" fill="rgba(111,79,65,1)"/>
<path d="M121.071,102.5 L121.071,62.5 L91.214,62.5 L91.214,102.5 Z" fill="rgba(171,82,39,1)"/>
<path d="M149.929,102.5 L149.929,62.5 L120.071,62.5 L120.071,102.5 Z" fill="rgba(185,149,117,1)"/>
<path d="M178.786,102.5 L178.786,62.5 L148.929,62.5 L148.929,102.5 Z" fill="rgba(181,217,198,1)"/>
<path d="M207.643,102.5 L207.643,62.5 L177.786,62.5 L177.786,102.5 Z" fill="rgba(211,203,170,1)"/>
<path d="M235,102.5 L235,62.5 L206.643,62.5 L206.643,102.5 Z" fill="rgba(238,180,128,1)"/>
<text x="-30.012" y="0" text-anchor="start" font-family="Verdana-Bold, Helvetica, Arial, sans-serif" font-size="24" fill="rgba(254,255,229,1)" transform="matrix(1 0 0 1 135 -74.5)">Luma</text>
<text x="-22.008000000000003" y="55" text-anchor="start" font-family="Verdana-Bold, Helvetica, Arial, sans-serif" font-size="24" fill="rgba(254,255,229,1)" transform="matrix(1 0 0 1 135 -74.5)">Hue</text>
<text x="-54.696" y="110" text-anchor="start" font-family="Verdana-Bold, Helvetica, Arial, sans-serif" font-size="24" fill="rgba(254,255,229,1)" transform="matrix(1 0 0 1 135 -74.5)">Saturation</text>
<text x="-56.688" y="165" text-anchor="start" font-family="Verdana-Bold, Helvetica, Arial, sans-serif" font-size="24" fill="rgba(254,255,229,1)" transform="matrix(1 0 0 1 135 -74.5)">Brightness</text>
</svg>