<svg xmlns="http://www.w3.org/2000/svg" viewBox="-206.56 -158.56 413.13 413.13">
<path d="M0,48.2 L0.428,48.137 L0.464,47.923 L0.548,47.422 L0.153,46.954 L-0.355,46.952 L-1.551,46.949 L-2.486,48.046 L-2.295,49.226 L-1.845,52.001 L1.058,53.752 L3.723,52.856 L9.989,50.749 L12.942,43.342 L9.843,37.502 L2.554,23.767 L-15.763,19.752 L-28.128,29.179 L-57.21,51.35 L-59.513,95.392 L-32.904,120.477 L29.678,179.47 L132.758,167.954 L180.777,96.604" fill="rgba(0,0,0,0)" stroke="rgba(0,0,234,1)" stroke-width="2"/>
<path d="M-0.1,48.173 L0.303,48.332 L0.44,48.166 L0.764,47.774 L0.656,47.17 L0.216,46.915 L-0.817,46.315 L-2.176,46.797 L-2.6,47.914 L-3.598,50.542 L-1.959,53.51 L0.796,54.067 L7.277,55.375 L13.537,50.437 L13.773,43.83 L14.329,28.291 L0.473,15.655 L-14.949,17.637 L-51.22,22.297 L-75.236,59.286 L-64.734,94.315 L-40.034,176.696 L54.995,218.262 L132.256,180.481" fill="rgba(0,0,0,0)" stroke="rgba(0,0,234,1)" stroke-width="2"/>
<path d="M-0.173,48.1 L0.096,48.439 L0.298,48.364 L0.774,48.186 L0.983,47.609 L0.73,47.168 L0.135,46.132 L-1.283,45.87 L-2.209,46.625 L-4.387,48.403 L-4.452,51.792 L-2.344,53.652 L2.614,58.026 L10.505,56.879 L14.013,51.275 L22.263,38.096 L16.582,20.225 L2.235,14.23 L-31.506,0.13 L-70.8,20.156 L-79.218,55.743 L-99.018,139.437 L-37.504,222.949 L48.296,228.86" fill="rgba(0,0,0,0)" stroke="rgba(0,0,234,1)" stroke-width="2"/>
<path d="M-0.2,48 L-0.137,48.428 L0.077,48.464 L0.578,48.548 L1.046,48.153 L1.048,47.645 L1.051,46.449 L-0.046,45.514 L-1.226,45.705 L-4.001,46.155 L-5.752,49.058 L-4.856,51.723 L-2.749,57.989 L4.658,60.942 L10.498,57.843 L24.233,50.554 L28.248,32.237 L18.821,19.872 L-3.35,-9.21 L-47.392,-11.513 L-72.477,15.096 L-131.47,77.678 L-119.954,180.758 L-48.604,228.777" fill="rgba(0,0,0,0)" stroke="rgba(0,0,234,1)" stroke-width="2"/>
<path d="M-0.173,47.9 L-0.332,48.303 L-0.166,48.44 L0.226,48.764 L0.83,48.656 L1.085,48.216 L1.685,47.183 L1.203,45.824 L0.086,45.4 L-2.542,44.402 L-5.51,46.041 L-6.067,48.796 L-7.375,55.277 L-2.437,61.537 L4.17,61.773 L19.709,62.329 L32.345,48.473 L30.363,33.051 L25.703,-3.22 L-11.286,-27.236 L-46.315,-16.734 L-128.696,7.966 L-170.262,102.995 L-132.481,180.256" fill="rgba(0,0,0,0)" stroke="rgba(0,0,234,1)" stroke-width="2"/>
<path d="M-0.1,47.827 L-0.439,48.096 L-0.364,48.298 L-0.186,48.774 L0.391,48.983 L0.832,48.73 L1.868,48.135 L2.13,46.717 L1.375,45.791 L-0.403,43.613 L-3.792,43.548 L-5.652,45.656 L-10.026,50.614 L-8.879,58.505 L-3.275,62.013 L9.904,70.263 L27.775,64.582 L33.77,50.235 L47.87,16.494 L27.844,-22.8 L-7.743,-31.218 L-91.437,-51.018 L-174.949,10.496 L-180.86,96.296" fill="rgba(0,0,0,0)" stroke="rgba(0,0,234,1)" stroke-width="2"/>
<path d="M0,47.8 L-0.428,47.863 L-0.464,48.077 L-0.548,48.578 L-0.153,49.046 L0.355,49.048 L1.551,49.051 L2.486,47.954 L2.295,46.774 L1.845,43.999 L-1.058,42.248 L-3.723,43.144 L-9.989,45.251 L-12.942,52.658 L-9.843,58.498 L-2.554,72.233 L15.763,76.248 L28.128,66.821 L57.21,44.65 L59.513,0.608 L32.904,-24.477 L-29.678,-83.47 L-132.758,-71.954 L-180.777,-0.604" fill="rgba(0,0,0,0)" stroke="rgba(0,0,234,1)" stroke-width="2"/>
<path d="M0.1,47.827 L-0.303,47.668 L-0.44,47.834 L-0.764,48.226 L-0.656,48.83 L-0.216,49.085 L0.817,49.685 L2.176,49.203 L2.6,48.086 L3.598,45.458 L1.959,42.49 L-0.796,41.933 L-7.277,40.625 L-13.537,45.563 L-13.773,52.17 L-14.329,67.709 L-0.473,80.345 L14.949,78.363 L51.22,73.703 L75.236,36.714 L64.734,1.685 L40.034,-80.696 L-54.995,-122.262 L-132.256,-84.481" fill="rgba(0,0,0,0)" stroke="rgba(0,0,234,1)" stroke-width="2"/>
<path d="M0.173,47.9 L-0.096,47.561 L-0.298,47.636 L-0.774,47.814 L-0.983,48.391 L-0.73,48.832 L-0.135,49.868 L1.283,50.13 L2.209,49.375 L4.387,47.597 L4.452,44.208 L2.344,42.348 L-2.614,37.974 L-10.505,39.121 L-14.013,44.725 L-22.263,57.904 L-16.582,75.775 L-2.235,81.77 L31.506,95.87 L70.8,75.844 L79.218,40.257 L99.018,-43.437 L37.504,-126.949 L-48.296,-132.86" fill="rgba(0,0,0,0)" stroke="rgba(0,0,234,1)" stroke-width="2"/>
<path d="M0.2,48 L0.137,47.572 L-0.077,47.536 L-0.578,47.452 L-1.046,47.847 L-1.048,48.355 L-1.051,49.551 L0.046,50.486 L1.226,50.295 L4.001,49.845 L5.752,46.942 L4.856,44.277 L2.749,38.011 L-4.658,35.058 L-10.498,38.157 L-24.233,45.446 L-28.248,63.763 L-18.821,76.128 L3.35,105.21 L47.392,107.513 L72.477,80.904 L131.47,18.322 L119.954,-84.758 L48.604,-132.777" fill="rgba(0,0,0,0)" stroke="rgba(0,0,234,1)" stroke-width="2"/>
<path d="M0.173,48.1 L0.332,47.697 L0.166,47.56 L-0.226,47.236 L-0.83,47.344 L-1.085,47.784 L-1.685,48.817 L-1.203,50.176 L-0.086,50.6 L2.542,51.598 L5.51,49.959 L6.067,47.204 L7.375,40.723 L2.437,34.463 L-4.17,34.227 L-19.709,33.671 L-32.345,47.527 L-30.363,62.949 L-25.703,99.22 L11.286,123.236 L46.315,112.734 L128.696,88.034 L170.262,-6.995 L132.481,-84.256" fill="rgba(0,0,0,0)" stroke="rgba(0,0,234,1)" stroke-width="2"/>
<path d="M0.1,48.173 L0.439,47.904 L0.364,47.702 L0.186,47.226 L-0.391,47.017 L-0.832,47.27 L-1.868,47.865 L-2.13,49.283 L-1.375,50.209 L0.403,52.387 L3.792,52.452 L5.652,50.344 L10.026,45.386 L8.879,37.495 L3.275,33.987 L-9.904,25.737 L-27.775,31.418 L-33.77,45.765 L-47.87,79.506 L-27.844,118.8 L7.743,127.218 L91.437,147.018 L174.949,85.504 L180.86,-0.296" fill="rgba(0,0,0,0)" stroke="rgba(0,0,234,1)" stroke-width="2"/>
<path d="M0.2,48 L0.137,48.428 L-0.077,48.464 L-0.578,48.548 L-1.046,48.153 L-1.048,47.645 L-1.051,46.449 L0.046,45.514 L1.226,45.705 L4.001,46.155 L5.752,49.058 L4.856,51.723 L2.749,57.989 L-4.658,60.942 L-10.498,57.843 L-24.233,50.554 L-28.248,32.237 L-18.821,19.872 L3.35,-9.21 L47.392,-11.513 L72.477,15.096 L131.47,77.678 L119.954,180.758 L48.604,228.777" fill="rgba(0,0,0,0)" stroke="rgba(0,0,234,1)" stroke-width="2"/>
<path d="M0.173,48.1 L-0.096,48.439 L-0.298,48.364 L-0.774,48.186 L-0.983,47.609 L-0.73,47.168 L-0.135,46.132 L1.283,45.87 L2.209,46.625 L4.387,48.403 L4.452,51.792 L2.344,53.652 L-2.614,58.026 L-10.505,56.879 L-14.013,51.275 L-22.263,38.096 L-16.582,20.225 L-2.235,14.23 L31.506,0.13 L70.8,20.156 L79.218,55.743 L99.018,139.437 L37.504,222.949 L-48.296,228.86" fill="rgba(0,0,0,0)" stroke="rgba(0,0,234,1)" stroke-width="2"/>
<path d="M0.1,48.173 L-0.303,48.332 L-0.44,48.166 L-0.764,47.774 L-0.656,47.17 L-0.216,46.915 L0.817,46.315 L2.176,46.797 L2.6,47.914 L3.598,50.542 L1.959,53.51 L-0.796,54.067 L-7.277,55.375 L-13.537,50.437 L-13.773,43.83 L-14.329,28.291 L-0.473,15.655 L14.949,17.637 L51.22,22.297 L75.236,59.286 L64.734,94.315 L40.034,176.696 L-54.995,218.262 L-132.256,180.481" fill="rgba(0,0,0,0)" stroke="rgba(0,0,234,1)" stroke-width="2"/>
<path d="M0,48.2 L-0.428,48.137 L-0.464,47.923 L-0.548,47.422 L-0.153,46.954 L0.355,46.952 L1.551,46.949 L2.486,48.046 L2.295,49.226 L1.845,52.001 L-1.058,53.752 L-3.723,52.856 L-9.989,50.749 L-12.942,43.342 L-9.843,37.502 L-2.554,23.767 L15.763,19.752 L28.128,29.179 L57.21,51.35 L59.513,95.392 L32.904,120.477 L-29.678,179.47 L-132.758,167.954 L-180.777,96.604" fill="rgba(0,0,0,0)" stroke="rgba(0,0,234,1)" stroke-width="2"/>
<path d="M-0.1,48.173 L-0.439,47.904 L-0.364,47.702 L-0.186,47.226 L0.391,47.017 L0.832,47.27 L1.868,47.865 L2.13,49.283 L1.375,50.209 L-0.403,52.387 L-3.792,52.452 L-5.652,50.344 L-10.026,45.386 L-8.879,37.495 L-3.275,33.987 L9.904,25.737 L27.775,31.418 L33.77,45.765 L47.87,79.506 L27.844,118.8 L-7.743,127.218 L-91.437,147.018 L-174.949,85.504 L-180.86,-0.296" fill="rgba(0,0,0,0)" stroke="rgba(0,0,234,1)" stroke-width="2"/>
<path d="M-0.173,48.1 L-0.332,47.697 L-0.166,47.56 L0.226,47.236 L0.83,47.344 L1.085,47.784 L1.685,48.817 L1.203,50.176 L0.086,50.6 L-2.542,51.598 L-5.51,49.959 L-6.067,47.204 L-7.375,40.723 L-2.437,34.463 L4.17,34.227 L19.709,33.671 L32.345,47.527 L30.363,62.949 L25.703,99.22 L-11.286,123.236 L-46.315,112.734 L-128.696,88.034 L-170.262,-6.995 L-132.481,-84.256" fill="rgba(0,0,0,0)" stroke="rgba(0,0,234,1)" stroke-width="2"/>
<path d="M-0.2,48 L-0.137,47.572 L0.077,47.536 L0.578,47.452 L1.046,47.847 L1.048,48.355 L1.051,49.551 L-0.046,50.486 L-1.226,50.295 L-4.001,49.845 L-5.752,46.942 L-4.856,44.277 L-2.749,38.011 L4.658,35.058 L10.498,38.157 L24.233,45.446 L28.248,63.763 L18.821,76.128 L-3.35,105.21 L-47.392,107.513 L-72.477,80.904 L-131.47,18.322 L-119.954,-84.758 L-48.604,-132.777" fill="rgba(0,0,0,0)" stroke="rgba(0,0,234,1)" stroke-width="2"/>
<path d="M-0.173,47.9 L0.096,47.561 L0.298,47.636 L0.774,47.814 L0.983,48.391 L0.73,48.832 L0.135,49.868 L-1.283,50.13 L-2.209,49.375 L-4.387,47.597 L-4.452,44.208 L-2.344,42.348 L2.614,37.974 L10.505,39.121 L14.013,44.725 L22.263,57.904 L16.582,75.775 L2.235,81.77 L-31.506,95.87 L-70.8,75.844 L-79.218,40.257 L-99.018,-43.437 L-37.504,-126.949 L48.296,-132.86" fill="rgba(0,0,0,0)" stroke="rgba(0,0,234,1)" stroke-width="2"/>
<path d="M-0.1,47.827 L0.303,47.668 L0.44,47.834 L0.764,48.226 L0.656,48.83 L0.216,49.085 L-0.817,49.685 L-2.176,49.203 L-2.6,48.086 L-3.598,45.458 L-1.959,42.49 L0.796,41.933 L7.277,40.625 L13.537,45.563 L13.773,52.17 L14.329,67.709 L0.473,80.345 L-14.949,78.363 L-51.22,73.703 L-75.236,36.714 L-64.734,1.685 L-40.034,-80.696 L54.995,-122.262 L132.256,-84.481" fill="rgba(0,0,0,0)" stroke="rgba(0,0,234,1)" stroke-width="2"/>
<path d="M0,47.8 L0.428,47.863 L0.464,48.077 L0.548,48.578 L0.153,49.046 L-0.355,49.048 L-1.551,49.051 L-2.486,47.954 L-2.295,46.774 L-1.845,43.999 L1.058,42.248 L3.723,43.144 L9.989,45.251 L12.942,52.658 L9.843,58.498 L2.554,72.233 L-15.763,76.248 L-28.128,66.821 L-57.21,44.65 L-59.513,0.608 L-32.904,-24.477 L29.678,-83.47 L132.758,-71.954 L180.777,-0.604" fill="rgba(0,0,0,0)" stroke="rgba(0,0,234,1)" stroke-width="2"/>
<path d="M0.1,47.827 L0.439,48.096 L0.364,48.298 L0.186,48.774 L-0.391,48.983 L-0.832,48.73 L-1.868,48.135 L-2.13,46.717 L-1.375,45.791 L0.403,43.613 L3.792,43.548 L5.652,45.656 L10.026,50.614 L8.879,58.505 L3.275,62.013 L-9.904,70.263 L-27.775,64.582 L-33.77,50.235 L-47.87,16.494 L-27.844,-22.8 L7.743,-31.218 L91.437,-51.018 L174.949,10.496 L180.86,96.296" fill="rgba(0,0,0,0)" stroke="rgba(0,0,234,1)" stroke-width="2"/>
<path d="M0.173,47.9 L0.332,48.303 L0.166,48.44 L-0.226,48.764 L-0.83,48.656 L-1.085,48.216 L-1.685,47.183 L-1.203,45.824 L-0.086,45.4 L2.542,44.402 L5.51,46.041 L6.067,48.796 L7.375,55.277 L2.437,61.537 L-4.17,61.773 L-19.709,62.329 L-32.345,48.473 L-30.363,33.051 L-25.703,-3.22 L11.286,-27.236 L46.315,-16.734 L128.696,7.966 L170.262,102.995 L132.481,180.256" fill="rgba(0,0,0,0)" stroke="rgba(0,0,234,1)" stroke-width="2"/>
</svg>