<svg xmlns="http://www.w3.org/2000/svg" viewBox="-430.81 -63.76 861.61 375.39">
<text x="-30" y="0" text-anchor="start" font-family="Verdana, Helvetica, Arial, sans-serif" font-size="120" fill="rgba(0,0,195,0.5019607843137255)" transform="matrix(1 0 0 1 -351.0779999999999 227.7)">s</text>
<text x="-36.66" y="0" text-anchor="start" font-family="Verdana, Helvetica, Arial, sans-serif" font-size="120" fill="rgba(0,0,195,0.5019607843137255)" transform="matrix(1 0 0 1 -274.4179999999999 227.7)">T</text>
<text x="-33.36" y="0" text-anchor="start" font-family="Verdana, Helvetica, Arial, sans-serif" font-size="120" fill="rgba(0,0,195,0.5019607843137255)" transform="matrix(1 0 0 1 -194.3979999999999 227.7)">a</text>
<text x="-30" y="0" text-anchor="start" font-family="Verdana, Helvetica, Arial, sans-serif" font-size="120" fill="rgba(0,0,195,0.5019607843137255)" transform="matrix(1 0 0 1 -121.03799999999995 227.7)">c</text>
<text x="-30" y="0" text-anchor="start" font-family="Verdana, Helvetica, Arial, sans-serif" font-size="120" fill="rgba(0,0,195,0.5019607843137255)" transform="matrix(1 0 0 1 -51.03800000000001 227.7)">k</text>
<text x="-54.99" y="0" text-anchor="start" font-family="Verdana, Helvetica, Arial, sans-serif" font-size="180" fill="rgba(0,0,195,0.5019607843137255)" transform="matrix(1 0 0 1 43.952 227.7)">T</text>
<text x="-15.984" y="0" text-anchor="start" font-family="Verdana, Helvetica, Arial, sans-serif" font-size="144" fill="rgba(0,0,195,0.5019607843137255)" transform="matrix(1 0 0 1 124.92599999999999 227.7)">i</text>
<text x="-40.032000000000004" y="0" text-anchor="start" font-family="Verdana, Helvetica, Arial, sans-serif" font-size="144" fill="rgba(0,0,195,0.5019607843137255)" transform="matrix(1 0 0 1 190.94199999999995 227.7)">g</text>
<text x="-40.032000000000004" y="0" text-anchor="start" font-family="Verdana, Helvetica, Arial, sans-serif" font-size="144" fill="rgba(0,0,195,0.5019607843137255)" transform="matrix(1 0 0 1 281.00600000000003 227.7)">h</text>
<text x="-25.020000000000003" y="0" text-anchor="start" font-family="Verdana, Helvetica, Arial, sans-serif" font-size="180" fill="rgba(0,0,195,0.5019607843137255)" transform="matrix(1 0 0 1 356.05799999999994 227.7)">t</text>
<path d="M-247.014,96.1 L-235.258,87.559 L-223.502,96.1 L-227.993,82.28 L-216.237,73.739 L-230.768,73.739 L-235.258,59.92 L-239.748,73.739 L-254.279,73.739 L-242.523,82.28 Z" fill="rgba(0,0,0,1)"/>
<path d="M-214.237,88.835 L-200.417,84.344 L-191.876,96.1 L-191.876,81.569 L-178.057,77.079 L-191.876,72.589 L-191.876,58.058 L-200.417,69.813 L-214.237,65.323 L-205.696,77.079 Z" fill="rgba(0,0,0,1)"/>
<path d="M-186.057,82.28 L-171.526,82.28 L-167.035,96.1 L-162.545,82.28 L-148.014,82.28 L-159.77,73.739 L-155.28,59.92 L-167.035,68.461 L-178.791,59.92 L-174.301,73.739 Z" fill="rgba(0,0,0,1)"/>
<path d="M-150.014,77.079 L-136.195,81.569 L-136.195,96.1 L-127.654,84.344 L-113.834,88.835 L-122.375,77.079 L-113.834,65.323 L-127.654,69.813 L-136.195,58.058 L-136.195,72.589 Z" fill="rgba(0,0,0,1)"/>
<path d="M-111.834,73.739 L-100.078,82.28 L-104.568,96.1 L-92.813,87.559 L-81.057,96.1 L-85.547,82.28 L-73.792,73.739 L-88.322,73.739 L-92.813,59.92 L-97.303,73.739 Z" fill="rgba(0,0,0,1)"/>
<path d="M-72.792,65.323 L-64.251,77.079 L-72.792,88.835 L-58.972,84.344 L-50.431,96.1 L-50.431,81.569 L-36.611,77.079 L-50.431,72.589 L-50.431,58.058 L-58.972,69.813 Z" fill="rgba(0,0,0,1)"/>
<path d="M-32.346,59.92 L-27.856,73.739 L-39.611,82.28 L-25.08,82.28 L-20.59,96.1 L-16.1,82.28 L-1.569,82.28 L-13.325,73.739 L-8.834,59.92 L-20.59,68.461 Z" fill="rgba(0,0,0,1)"/>
<path d="M10.251,58.058 L10.251,72.589 L-3.569,77.079 L10.251,81.569 L10.251,96.1 L18.792,84.344 L32.611,88.835 L24.07,77.079 L32.611,65.323 L18.792,69.813 Z" fill="rgba(0,0,0,1)"/>
<path d="M53.632,59.92 L49.142,73.739 L34.611,73.739 L46.367,82.28 L41.877,96.1 L53.632,87.559 L65.388,96.1 L60.898,82.28 L72.654,73.739 L58.123,73.739 Z" fill="rgba(0,0,0,1)"/>
<path d="M97.014,58.058 L88.473,69.813 L74.654,65.323 L83.195,77.079 L74.654,88.835 L88.473,84.344 L97.014,96.1 L97.014,81.569 L110.834,77.079 L97.014,72.589 Z" fill="rgba(0,0,0,1)"/>
<path d="M139.611,59.92 L127.855,68.461 L116.099,59.92 L120.59,73.739 L108.834,82.28 L123.365,82.28 L127.855,96.1 L132.345,82.28 L146.876,82.28 L135.12,73.739 Z" fill="rgba(0,0,0,1)"/>
<path d="M181.057,65.323 L167.237,69.813 L158.696,58.058 L158.696,72.589 L144.876,77.079 L158.696,81.569 L158.696,96.1 L167.237,84.344 L181.057,88.835 L172.515,77.079 Z" fill="rgba(0,0,0,1)"/>
<path d="M216.099,73.739 L201.568,73.739 L197.078,59.92 L192.587,73.739 L178.057,73.739 L189.812,82.28 L185.322,96.1 L197.078,87.559 L208.833,96.1 L204.343,82.28 Z" fill="rgba(0,0,0,1)"/>
<path d="M254.279,77.079 L240.459,72.589 L240.459,58.058 L231.918,69.813 L218.099,65.323 L226.64,77.079 L218.099,88.835 L231.918,84.344 L240.459,96.1 L240.459,81.569 Z" fill="rgba(0,0,0,1)"/>
<path d="M-227.924,66.058 L-216.168,57.517 L-204.412,66.058 L-208.902,52.238 L-197.147,43.697 L-211.678,43.697 L-216.168,29.877 L-220.658,43.697 L-235.189,43.697 L-223.433,52.238 Z" fill="rgba(0,0,0,1)"/>
<path d="M-195.147,54.792 L-181.327,50.302 L-172.786,62.058 L-172.786,47.527 L-158.966,43.037 L-172.786,38.546 L-172.786,24.015 L-181.327,35.771 L-195.147,31.281 L-186.606,43.037 Z" fill="rgba(0,0,0,1)"/>
<path d="M-166.966,56.238 L-152.435,56.238 L-147.945,70.058 L-143.455,56.238 L-128.924,56.238 L-140.68,47.697 L-136.189,33.877 L-147.945,42.418 L-159.701,33.877 L-155.211,47.697 Z" fill="rgba(0,0,0,1)"/>
<path d="M-130.924,45.037 L-117.104,49.527 L-117.104,64.058 L-108.563,52.302 L-94.744,56.792 L-103.285,45.037 L-94.744,33.281 L-108.563,37.771 L-117.104,26.015 L-117.104,40.546 Z" fill="rgba(0,0,0,1)"/>
<path d="M-92.744,49.697 L-80.988,58.238 L-85.478,72.058 L-73.723,63.517 L-61.967,72.058 L-66.457,58.238 L-54.701,49.697 L-69.232,49.697 L-73.723,35.877 L-78.213,49.697 Z" fill="rgba(0,0,0,1)"/>
<path d="M-53.701,27.281 L-45.16,39.037 L-53.701,50.792 L-39.882,46.302 L-31.341,58.058 L-31.341,43.527 L-17.521,39.037 L-31.341,34.546 L-31.341,20.015 L-39.882,31.771 Z" fill="rgba(0,0,0,1)"/>
<path d="M-13.256,33.877 L-8.765,47.697 L-20.521,56.238 L-5.99,56.238 L-1.5,70.058 L2.99,56.238 L17.521,56.238 L5.765,47.697 L10.256,33.877 L-1.5,42.418 Z" fill="rgba(0,0,0,1)"/>
<path d="M29.341,26.015 L29.341,40.546 L15.521,45.037 L29.341,49.527 L29.341,64.058 L37.882,52.302 L51.701,56.792 L43.16,45.037 L51.701,33.281 L37.882,37.771 Z" fill="rgba(0,0,0,1)"/>
<path d="M72.723,29.877 L68.232,43.697 L53.701,43.697 L65.457,52.238 L60.967,66.058 L72.723,57.517 L84.478,66.058 L79.988,52.238 L91.744,43.697 L77.213,43.697 Z" fill="rgba(0,0,0,1)"/>
<path d="M116.104,20.015 L107.563,31.771 L93.744,27.281 L102.285,39.037 L93.744,50.792 L107.563,46.302 L116.104,58.058 L116.104,43.527 L129.924,39.037 L116.104,34.546 Z" fill="rgba(0,0,0,1)"/>
<path d="M158.701,33.877 L146.945,42.418 L135.189,33.877 L139.68,47.697 L127.924,56.238 L142.455,56.238 L146.945,70.058 L151.435,56.238 L165.966,56.238 L154.211,47.697 Z" fill="rgba(0,0,0,1)"/>
<path d="M200.147,33.281 L186.327,37.771 L177.786,26.015 L177.786,40.546 L163.966,45.037 L177.786,49.527 L177.786,64.058 L186.327,52.302 L200.147,56.792 L191.606,45.037 Z" fill="rgba(0,0,0,1)"/>
<path d="M235.189,43.697 L220.658,43.697 L216.168,29.877 L211.678,43.697 L197.147,43.697 L208.902,52.238 L204.412,66.058 L216.168,57.517 L227.924,66.058 L223.433,52.238 Z" fill="rgba(0,0,0,1)"/>
<path d="M-129.068,33.015 L-117.313,24.474 L-105.557,33.015 L-110.047,19.196 L-98.292,10.655 L-112.822,10.655 L-117.313,-3.165 L-121.803,10.655 L-136.334,10.655 L-124.578,19.196 Z" fill="rgba(0,0,0,1)"/>
<path d="M-85.292,34.75 L-71.472,30.26 L-62.931,42.015 L-62.931,27.485 L-49.111,22.994 L-62.931,18.504 L-62.931,3.973 L-71.472,15.729 L-85.292,11.239 L-76.751,22.994 Z" fill="rgba(0,0,0,1)"/>
<path d="M-46.111,10.196 L-31.58,10.196 L-27.09,24.015 L-22.6,10.196 L-8.069,10.196 L-19.825,1.655 L-15.334,-12.165 L-27.09,-3.624 L-38.846,-12.165 L-34.356,1.655 Z" fill="rgba(0,0,0,1)"/>
<path d="M0.931,16.994 L14.751,21.485 L14.751,36.015 L23.292,24.26 L37.111,28.75 L28.57,16.994 L37.111,5.239 L23.292,9.729 L14.751,-2.027 L14.751,12.504 Z" fill="rgba(0,0,0,1)"/>
<path d="M50.111,10.655 L61.867,19.196 L57.377,33.015 L69.132,24.474 L80.888,33.015 L76.398,19.196 L88.154,10.655 L73.623,10.655 L69.132,-3.165 L64.642,10.655 Z" fill="rgba(0,0,0,1)"/>
<path d="M100.154,-6.761 L108.695,4.994 L100.154,16.75 L113.973,12.26 L122.514,24.015 L122.514,9.485 L136.334,4.994 L122.514,0.504 L122.514,-14.027 L113.973,-2.271 Z" fill="rgba(0,0,0,1)"/>
</svg>