<svg xmlns="http://www.w3.org/2000/svg" viewBox="-248.18 -141.5 496.36 344.84">
<text x="-20.016000000000002" y="0" text-anchor="start" font-family="Verdana, Helvetica, Arial, sans-serif" font-size="72" fill="rgba(74,87,137,1)" transform="matrix(1 0 0 1 -198 -59.5)">a</text>
<text x="-20.016000000000002" y="0" text-anchor="start" font-family="Verdana, Helvetica, Arial, sans-serif" font-size="72" fill="rgba(74,87,137,1)" transform="matrix(1 0 0 1 -132 -59.5)">b</text>
<text x="-18" y="0" text-anchor="start" font-family="Verdana, Helvetica, Arial, sans-serif" font-size="72" fill="rgba(74,87,137,1)" transform="matrix(1 0 0 1 -66 -59.5)">c</text>
<text x="-20.016000000000002" y="0" text-anchor="start" font-family="Verdana, Helvetica, Arial, sans-serif" font-size="72" fill="rgba(74,87,137,1)" transform="matrix(1 0 0 1 0 -59.5)">d</text>
<text x="-20.016000000000002" y="0" text-anchor="start" font-family="Verdana, Helvetica, Arial, sans-serif" font-size="72" fill="rgba(74,87,137,1)" transform="matrix(1 0 0 1 66 -59.5)">e</text>
<text x="-10.008000000000001" y="0" text-anchor="start" font-family="Verdana, Helvetica, Arial, sans-serif" font-size="72" fill="rgba(74,87,137,1)" transform="matrix(1 0 0 1 132 -59.5)">f</text>
<text x="-20.016000000000002" y="0" text-anchor="start" font-family="Verdana, Helvetica, Arial, sans-serif" font-size="72" fill="rgba(74,87,137,1)" transform="matrix(1 0 0 1 198 -59.5)">g</text>
<text x="-20.016000000000002" y="0" text-anchor="start" font-family="Verdana, Helvetica, Arial, sans-serif" font-size="72" fill="rgba(74,87,137,1)" transform="matrix(1 0 0 1 -198 13.5)">h</text>
<text x="-7.992" y="0" text-anchor="start" font-family="Verdana, Helvetica, Arial, sans-serif" font-size="72" fill="rgba(74,87,137,1)" transform="matrix(1 0 0 1 -132 13.5)">i</text>
<text x="-7.992" y="0" text-anchor="start" font-family="Verdana, Helvetica, Arial, sans-serif" font-size="72" fill="rgba(74,87,137,1)" transform="matrix(1 0 0 1 -66 13.5)">j</text>
<text x="-18" y="0" text-anchor="start" font-family="Verdana, Helvetica, Arial, sans-serif" font-size="72" fill="rgba(74,87,137,1)" transform="matrix(1 0 0 1 0 13.5)">k</text>
<text x="-7.992" y="0" text-anchor="start" font-family="Verdana, Helvetica, Arial, sans-serif" font-size="72" fill="rgba(74,87,137,1)" transform="matrix(1 0 0 1 66 13.5)">l</text>
<text x="-29.988" y="0" text-anchor="start" font-family="Verdana, Helvetica, Arial, sans-serif" font-size="72" fill="rgba(74,87,137,1)" transform="matrix(1 0 0 1 132 13.5)">m</text>
<text x="-20.016000000000002" y="0" text-anchor="start" font-family="Verdana, Helvetica, Arial, sans-serif" font-size="72" fill="rgba(74,87,137,1)" transform="matrix(1 0 0 1 198 13.5)">n</text>
<text x="-20.016000000000002" y="0" text-anchor="start" font-family="Verdana, Helvetica, Arial, sans-serif" font-size="72" fill="rgba(74,87,137,1)" transform="matrix(1 0 0 1 -198 86.5)">o</text>
<text x="-20.016000000000002" y="0" text-anchor="start" font-family="Verdana, Helvetica, Arial, sans-serif" font-size="72" fill="rgba(74,87,137,1)" transform="matrix(1 0 0 1 -132 86.5)">p</text>
<text x="-20.016000000000002" y="0" text-anchor="start" font-family="Verdana, Helvetica, Arial, sans-serif" font-size="72" fill="rgba(74,87,137,1)" transform="matrix(1 0 0 1 -66 86.5)">q</text>
<text x="-11.988000000000001" y="0" text-anchor="start" font-family="Verdana, Helvetica, Arial, sans-serif" font-size="72" fill="rgba(74,87,137,1)" transform="matrix(1 0 0 1 0 86.5)">r</text>
<text x="-18" y="0" text-anchor="start" font-family="Verdana, Helvetica, Arial, sans-serif" font-size="72" fill="rgba(74,87,137,1)" transform="matrix(1 0 0 1 66 86.5)">s</text>
<text x="-10.008000000000001" y="0" text-anchor="start" font-family="Verdana, Helvetica, Arial, sans-serif" font-size="72" fill="rgba(74,87,137,1)" transform="matrix(1 0 0 1 132 86.5)">t</text>
<text x="-20.016000000000002" y="0" text-anchor="start" font-family="Verdana, Helvetica, Arial, sans-serif" font-size="72" fill="rgba(74,87,137,1)" transform="matrix(1 0 0 1 198 86.5)">u</text>
<text x="-18" y="0" text-anchor="start" font-family="Verdana, Helvetica, Arial, sans-serif" font-size="72" fill="rgba(74,87,137,1)" transform="matrix(1 0 0 1 -198 159.5)">v</text>
<text x="-25.991999999999997" y="0" text-anchor="start" font-family="Verdana, Helvetica, Arial, sans-serif" font-size="72" fill="rgba(74,87,137,1)" transform="matrix(1 0 0 1 -132 159.5)">w</text>
<text x="-18" y="0" text-anchor="start" font-family="Verdana, Helvetica, Arial, sans-serif" font-size="72" fill="rgba(74,87,137,1)" transform="matrix(1 0 0 1 -66 159.5)">x</text>
<text x="-18" y="0" text-anchor="start" font-family="Verdana, Helvetica, Arial, sans-serif" font-size="72" fill="rgba(74,87,137,1)" transform="matrix(1 0 0 1 0 159.5)">y</text>
<text x="-18" y="0" text-anchor="start" font-family="Verdana, Helvetica, Arial, sans-serif" font-size="72" fill="rgba(74,87,137,1)" transform="matrix(1 0 0 1 66 159.5)">z</text>
</svg>