<svg xmlns="http://www.w3.org/2000/svg" viewBox="-1078.01 -177.55 2156.01 475.09">
<text x="0" y="0" text-anchor="start" font-family="Verdana, Helvetica, Arial, sans-serif" font-size="21" fill="rgba(128,128,128,1)" transform="matrix(1 0 0 1 -958.9335 -43.35499999999999)">***Four*** score and *seven years* ago, our **fathers** brought forth ~onto this continent~ a new nation, **conceived in ~liberty~** and dedicated to the *~proposition~* that all men are created ***~equal.~***</text>
<text x="0" y="0" text-anchor="start" font-family="Verdana-BoldItalic, Helvetica, Arial, sans-serif" font-size="24" fill="rgba(40,40,40,1)" transform="matrix(1 0 0 1 -958.9335 18.915000000000006)">Four</text>
<text x="0" y="0" text-anchor="start" font-family="Verdana, Helvetica, Arial, sans-serif" font-size="24" fill="rgba(40,40,40,1)" transform="matrix(1 0 0 1 -896.5895 18.915000000000006)">score</text>
<text x="0" y="0" text-anchor="start" font-family="Verdana, Helvetica, Arial, sans-serif" font-size="24" fill="rgba(40,40,40,1)" transform="matrix(1 0 0 1 -824.9095 18.915000000000006)">and</text>
<text x="0" y="0" text-anchor="start" font-family="Verdana-Italic, Helvetica, Arial, sans-serif" font-size="24" fill="rgba(40,40,40,1)" transform="matrix(1 0 0 1 -771.8775 18.915000000000006)">seven</text>
<text x="0" y="0" text-anchor="start" font-family="Verdana-Italic, Helvetica, Arial, sans-serif" font-size="24" fill="rgba(40,40,40,1)" transform="matrix(1 0 0 1 -694.8455 18.915000000000006)">years</text>
<text x="0" y="0" text-anchor="start" font-family="Verdana, Helvetica, Arial, sans-serif" font-size="24" fill="rgba(40,40,40,1)" transform="matrix(1 0 0 1 -958.9335 49.915000000000006)">ago,</text>
<text x="0" y="0" text-anchor="start" font-family="Verdana, Helvetica, Arial, sans-serif" font-size="24" fill="rgba(40,40,40,1)" transform="matrix(1 0 0 1 -899.2294999999999 49.915000000000006)">our</text>
<text x="0" y="0" text-anchor="start" font-family="Verdana-Bold, Helvetica, Arial, sans-serif" font-size="24" fill="rgba(40,40,40,1)" transform="matrix(1 0 0 1 -851.5495 49.915000000000006)">fathers</text>
<text x="0" y="0" text-anchor="start" font-family="Verdana, Helvetica, Arial, sans-serif" font-size="24" fill="rgba(40,40,40,1)" transform="matrix(1 0 0 1 -765.1814999999999 49.915000000000006)">brought</text>
<text x="0" y="0" text-anchor="start" font-family="Verdana, Helvetica, Arial, sans-serif" font-size="24" fill="rgba(40,40,40,1)" transform="matrix(1 0 0 1 -670.7974999999999 49.915000000000006)">forth</text>
<text x="0" y="0" text-anchor="start" font-family="Verdana, Helvetica, Arial, sans-serif" font-size="24" fill="rgba(255,0,0,1)" transform="matrix(1 0 0 1 -958.9335 80.915)">onto</text>
<text x="0" y="0" text-anchor="start" font-family="Verdana, Helvetica, Arial, sans-serif" font-size="24" fill="rgba(255,0,0,1)" transform="matrix(1 0 0 1 -899.2294999999999 80.915)">this</text>
<text x="0" y="0" text-anchor="start" font-family="Verdana, Helvetica, Arial, sans-serif" font-size="24" fill="rgba(255,0,0,1)" transform="matrix(1 0 0 1 -848.8855 80.915)">continent</text>
<text x="0" y="0" text-anchor="start" font-family="Verdana, Helvetica, Arial, sans-serif" font-size="24" fill="rgba(40,40,40,1)" transform="matrix(1 0 0 1 -738.4935 80.915)">a</text>
<text x="0" y="0" text-anchor="start" font-family="Verdana, Helvetica, Arial, sans-serif" font-size="24" fill="rgba(40,40,40,1)" transform="matrix(1 0 0 1 -712.1495 80.915)">new</text>
<text x="0" y="0" text-anchor="start" font-family="Verdana, Helvetica, Arial, sans-serif" font-size="24" fill="rgba(40,40,40,1)" transform="matrix(1 0 0 1 -958.9335 111.91499999999999)">nation,</text>
<text x="0" y="0" text-anchor="start" font-family="Verdana-Bold, Helvetica, Arial, sans-serif" font-size="24" fill="rgba(40,40,40,1)" transform="matrix(1 0 0 1 -873.8855 111.91499999999999)">conceived</text>
<text x="0" y="0" text-anchor="start" font-family="Verdana-Bold, Helvetica, Arial, sans-serif" font-size="24" fill="rgba(40,40,40,1)" transform="matrix(1 0 0 1 -752.8375 111.91499999999999)">in</text>
<text x="0" y="0" text-anchor="start" font-family="Verdana-Bold, Helvetica, Arial, sans-serif" font-size="24" fill="rgba(255,0,0,1)" transform="matrix(1 0 0 1 -721.1655 111.91499999999999)">liberty</text>
<text x="0" y="0" text-anchor="start" font-family="Verdana, Helvetica, Arial, sans-serif" font-size="24" fill="rgba(40,40,40,1)" transform="matrix(1 0 0 1 -644.1575 111.91499999999999)">and</text>
<text x="0" y="0" text-anchor="start" font-family="Verdana, Helvetica, Arial, sans-serif" font-size="24" fill="rgba(40,40,40,1)" transform="matrix(1 0 0 1 -958.9335 142.915)">dedicated</text>
<text x="0" y="0" text-anchor="start" font-family="Verdana, Helvetica, Arial, sans-serif" font-size="24" fill="rgba(40,40,40,1)" transform="matrix(1 0 0 1 -841.8695 142.915)">to</text>
<text x="0" y="0" text-anchor="start" font-family="Verdana, Helvetica, Arial, sans-serif" font-size="24" fill="rgba(40,40,40,1)" transform="matrix(1 0 0 1 -808.8534999999999 142.915)">the</text>
<text x="0" y="0" text-anchor="start" font-family="Verdana-Italic, Helvetica, Arial, sans-serif" font-size="24" fill="rgba(255,0,0,1)" transform="matrix(1 0 0 1 -762.4935 142.915)">proposition</text>
<text x="0" y="0" text-anchor="start" font-family="Verdana, Helvetica, Arial, sans-serif" font-size="24" fill="rgba(40,40,40,1)" transform="matrix(1 0 0 1 -958.9335 173.915)">that</text>
<text x="0" y="0" text-anchor="start" font-family="Verdana, Helvetica, Arial, sans-serif" font-size="24" fill="rgba(40,40,40,1)" transform="matrix(1 0 0 1 -905.9014999999999 173.915)">all</text>
<text x="0" y="0" text-anchor="start" font-family="Verdana, Helvetica, Arial, sans-serif" font-size="24" fill="rgba(40,40,40,1)" transform="matrix(1 0 0 1 -868.9014999999999 173.915)">men</text>
<text x="0" y="0" text-anchor="start" font-family="Verdana, Helvetica, Arial, sans-serif" font-size="24" fill="rgba(40,40,40,1)" transform="matrix(1 0 0 1 -809.2215 173.915)">are</text>
<text x="0" y="0" text-anchor="start" font-family="Verdana, Helvetica, Arial, sans-serif" font-size="24" fill="rgba(40,40,40,1)" transform="matrix(1 0 0 1 -761.5415 173.915)">created</text>
<text x="0" y="0" text-anchor="start" font-family="Verdana-BoldItalic, Helvetica, Arial, sans-serif" font-size="24" fill="rgba(255,0,0,1)" transform="matrix(1 0 0 1 -668.5015 173.915)">equal.</text>
</svg>