<svg xmlns="http://www.w3.org/2000/svg" viewBox="-249.32 -139.78 498.65 410.57">
<path d="M-219.038,-29.5 L-58.338,-29.5 L-58.338,160.5 L-219.038,160.5 Z" fill="rgba(0,0,0,0)" stroke="rgba(0,0,0,1)" stroke-width="2"/>
<path d="M-219.038,-29.5 L-58.338,-29.5 L-58.338,-19.5 L-219.038,-19.5 Z" fill="rgba(246,246,246,1)"/>
<path d="M-219.038,-19.5 L-58.338,-19.5 L-58.338,-9.5 L-219.038,-9.5 Z" fill="rgba(255,255,255,1)"/>
<path d="M-219.038,-9.5 L-58.338,-9.5 L-58.338,0.5 L-219.038,0.5 Z" fill="rgba(243,246,250,1)"/>
<path d="M-219.038,0.5 L-58.338,0.5 L-58.338,10.5 L-219.038,10.5 Z" fill="rgba(255,255,255,1)"/>
<path d="M-219.038,10.5 L-58.338,10.5 L-58.338,20.5 L-219.038,20.5 Z" fill="rgba(243,246,250,1)"/>
<path d="M-219.038,20.5 L-58.338,20.5 L-58.338,30.5 L-219.038,30.5 Z" fill="rgba(255,255,255,1)"/>
<path d="M-219.038,30.5 L-58.338,30.5 L-58.338,40.5 L-219.038,40.5 Z" fill="rgba(243,246,250,1)"/>
<path d="M-219.038,40.5 L-58.338,40.5 L-58.338,50.5 L-219.038,50.5 Z" fill="rgba(255,255,255,1)"/>
<path d="M-219.038,50.5 L-58.338,50.5 L-58.338,60.5 L-219.038,60.5 Z" fill="rgba(243,246,250,1)"/>
<path d="M-219.038,60.5 L-58.338,60.5 L-58.338,70.5 L-219.038,70.5 Z" fill="rgba(255,255,255,1)"/>
<path d="M-219.038,70.5 L-58.338,70.5 L-58.338,80.5 L-219.038,80.5 Z" fill="rgba(243,246,250,1)"/>
<path d="M-219.038,80.5 L-58.338,80.5 L-58.338,90.5 L-219.038,90.5 Z" fill="rgba(255,255,255,1)"/>
<path d="M-219.038,90.5 L-58.338,90.5 L-58.338,100.5 L-219.038,100.5 Z" fill="rgba(243,246,250,1)"/>
<path d="M-219.038,100.5 L-58.338,100.5 L-58.338,110.5 L-219.038,110.5 Z" fill="rgba(255,255,255,1)"/>
<path d="M-219.038,110.5 L-58.338,110.5 L-58.338,120.5 L-219.038,120.5 Z" fill="rgba(243,246,250,1)"/>
<path d="M-219.038,120.5 L-58.338,120.5 L-58.338,130.5 L-219.038,130.5 Z" fill="rgba(255,255,255,1)"/>
<path d="M-219.038,130.5 L-58.338,130.5 L-58.338,140.5 L-219.038,140.5 Z" fill="rgba(243,246,250,1)"/>
<path d="M-219.038,140.5 L-58.338,140.5 L-58.338,150.5 L-219.038,150.5 Z" fill="rgba(255,255,255,1)"/>
<path d="M-219.038,150.5 L-58.338,150.5 L-58.338,160.5 L-219.038,160.5 Z" fill="rgba(243,246,250,1)"/>
<text x="0" y="0" text-anchor="start" font-family="Verdana-Bold, Helvetica, Arial, sans-serif" font-size="12" fill="rgba(0,0,0,1)" transform="matrix(0.5 0 0 0.5 -209.038 -22.909999999999997)">country</text>
<text x="0" y="0" text-anchor="start" font-family="Verdana, Helvetica, Arial, sans-serif" font-size="12" fill="rgba(0,0,0,1)" transform="matrix(0.5 0 0 0.5 -209.038 -12.909999999999997)">India</text>
<text x="0" y="0" text-anchor="start" font-family="Verdana, Helvetica, Arial, sans-serif" font-size="12" fill="rgba(0,0,0,1)" transform="matrix(0.5 0 0 0.5 -209.038 -2.9099999999999966)">India</text>
<text x="0" y="0" text-anchor="start" font-family="Verdana, Helvetica, Arial, sans-serif" font-size="12" fill="rgba(0,0,0,1)" transform="matrix(0.5 0 0 0.5 -209.038 7.090000000000003)">India</text>
<text x="0" y="0" text-anchor="start" font-family="Verdana, Helvetica, Arial, sans-serif" font-size="12" fill="rgba(0,0,0,1)" transform="matrix(0.5 0 0 0.5 -209.038 17.090000000000003)">India</text>
<text x="0" y="0" text-anchor="start" font-family="Verdana, Helvetica, Arial, sans-serif" font-size="12" fill="rgba(0,0,0,1)" transform="matrix(0.5 0 0 0.5 -209.038 27.090000000000003)">India</text>
<text x="0" y="0" text-anchor="start" font-family="Verdana, Helvetica, Arial, sans-serif" font-size="12" fill="rgba(0,0,0,1)" transform="matrix(0.5 0 0 0.5 -209.038 37.09)">India</text>
<text x="0" y="0" text-anchor="start" font-family="Verdana, Helvetica, Arial, sans-serif" font-size="12" fill="rgba(0,0,0,1)" transform="matrix(0.5 0 0 0.5 -209.038 47.09)">India</text>
<text x="0" y="0" text-anchor="start" font-family="Verdana, Helvetica, Arial, sans-serif" font-size="12" fill="rgba(0,0,0,1)" transform="matrix(0.5 0 0 0.5 -209.038 57.09)">India</text>
<text x="0" y="0" text-anchor="start" font-family="Verdana, Helvetica, Arial, sans-serif" font-size="12" fill="rgba(0,0,0,1)" transform="matrix(0.5 0 0 0.5 -209.038 67.09)">India</text>
<text x="0" y="0" text-anchor="start" font-family="Verdana, Helvetica, Arial, sans-serif" font-size="12" fill="rgba(0,0,0,1)" transform="matrix(0.5 0 0 0.5 -209.038 77.09)">Brazil</text>
<text x="0" y="0" text-anchor="start" font-family="Verdana, Helvetica, Arial, sans-serif" font-size="12" fill="rgba(0,0,0,1)" transform="matrix(0.5 0 0 0.5 -209.038 87.09)">Brazil</text>
<text x="0" y="0" text-anchor="start" font-family="Verdana, Helvetica, Arial, sans-serif" font-size="12" fill="rgba(0,0,0,1)" transform="matrix(0.5 0 0 0.5 -209.038 97.09)">Brazil</text>
<text x="0" y="0" text-anchor="start" font-family="Verdana, Helvetica, Arial, sans-serif" font-size="12" fill="rgba(0,0,0,1)" transform="matrix(0.5 0 0 0.5 -209.038 107.09)">Brazil</text>
<text x="0" y="0" text-anchor="start" font-family="Verdana, Helvetica, Arial, sans-serif" font-size="12" fill="rgba(0,0,0,1)" transform="matrix(0.5 0 0 0.5 -209.038 117.09)">Brazil</text>
<text x="0" y="0" text-anchor="start" font-family="Verdana, Helvetica, Arial, sans-serif" font-size="12" fill="rgba(0,0,0,1)" transform="matrix(0.5 0 0 0.5 -209.038 127.09)">Brazil</text>
<text x="0" y="0" text-anchor="start" font-family="Verdana, Helvetica, Arial, sans-serif" font-size="12" fill="rgba(0,0,0,1)" transform="matrix(0.5 0 0 0.5 -209.038 137.09)">Brazil</text>
<text x="0" y="0" text-anchor="start" font-family="Verdana, Helvetica, Arial, sans-serif" font-size="12" fill="rgba(0,0,0,1)" transform="matrix(0.5 0 0 0.5 -209.038 147.09)">Brazil</text>
<text x="0" y="0" text-anchor="start" font-family="Verdana, Helvetica, Arial, sans-serif" font-size="12" fill="rgba(0,0,0,1)" transform="matrix(0.5 0 0 0.5 -209.038 157.09)">Brazil</text>
<text x="0" y="0" text-anchor="start" font-family="Verdana-Bold, Helvetica, Arial, sans-serif" font-size="12" fill="rgba(0,0,0,1)" transform="matrix(0.5 0 0 0.5 -169.364 -22.909999999999997)">month</text>
<text x="0" y="0" text-anchor="start" font-family="Verdana, Helvetica, Arial, sans-serif" font-size="12" fill="rgba(0,0,0,1)" transform="matrix(0.5 0 0 0.5 -169.364 -12.909999999999997)">January</text>
<text x="0" y="0" text-anchor="start" font-family="Verdana, Helvetica, Arial, sans-serif" font-size="12" fill="rgba(0,0,0,1)" transform="matrix(0.5 0 0 0.5 -169.364 -2.9099999999999966)">January</text>
<text x="0" y="0" text-anchor="start" font-family="Verdana, Helvetica, Arial, sans-serif" font-size="12" fill="rgba(0,0,0,1)" transform="matrix(0.5 0 0 0.5 -169.364 7.090000000000003)">January</text>
<text x="0" y="0" text-anchor="start" font-family="Verdana, Helvetica, Arial, sans-serif" font-size="12" fill="rgba(0,0,0,1)" transform="matrix(0.5 0 0 0.5 -169.364 17.090000000000003)">February</text>
<text x="0" y="0" text-anchor="start" font-family="Verdana, Helvetica, Arial, sans-serif" font-size="12" fill="rgba(0,0,0,1)" transform="matrix(0.5 0 0 0.5 -169.364 27.090000000000003)">February</text>
<text x="0" y="0" text-anchor="start" font-family="Verdana, Helvetica, Arial, sans-serif" font-size="12" fill="rgba(0,0,0,1)" transform="matrix(0.5 0 0 0.5 -169.364 37.09)">February</text>
<text x="0" y="0" text-anchor="start" font-family="Verdana, Helvetica, Arial, sans-serif" font-size="12" fill="rgba(0,0,0,1)" transform="matrix(0.5 0 0 0.5 -169.364 47.09)">March</text>
<text x="0" y="0" text-anchor="start" font-family="Verdana, Helvetica, Arial, sans-serif" font-size="12" fill="rgba(0,0,0,1)" transform="matrix(0.5 0 0 0.5 -169.364 57.09)">March</text>
<text x="0" y="0" text-anchor="start" font-family="Verdana, Helvetica, Arial, sans-serif" font-size="12" fill="rgba(0,0,0,1)" transform="matrix(0.5 0 0 0.5 -169.364 67.09)">March</text>
<text x="0" y="0" text-anchor="start" font-family="Verdana, Helvetica, Arial, sans-serif" font-size="12" fill="rgba(0,0,0,1)" transform="matrix(0.5 0 0 0.5 -169.364 77.09)">January</text>
<text x="0" y="0" text-anchor="start" font-family="Verdana, Helvetica, Arial, sans-serif" font-size="12" fill="rgba(0,0,0,1)" transform="matrix(0.5 0 0 0.5 -169.364 87.09)">January</text>
<text x="0" y="0" text-anchor="start" font-family="Verdana, Helvetica, Arial, sans-serif" font-size="12" fill="rgba(0,0,0,1)" transform="matrix(0.5 0 0 0.5 -169.364 97.09)">January</text>
<text x="0" y="0" text-anchor="start" font-family="Verdana, Helvetica, Arial, sans-serif" font-size="12" fill="rgba(0,0,0,1)" transform="matrix(0.5 0 0 0.5 -169.364 107.09)">February</text>
<text x="0" y="0" text-anchor="start" font-family="Verdana, Helvetica, Arial, sans-serif" font-size="12" fill="rgba(0,0,0,1)" transform="matrix(0.5 0 0 0.5 -169.364 117.09)">February</text>
<text x="0" y="0" text-anchor="start" font-family="Verdana, Helvetica, Arial, sans-serif" font-size="12" fill="rgba(0,0,0,1)" transform="matrix(0.5 0 0 0.5 -169.364 127.09)">February</text>
<text x="0" y="0" text-anchor="start" font-family="Verdana, Helvetica, Arial, sans-serif" font-size="12" fill="rgba(0,0,0,1)" transform="matrix(0.5 0 0 0.5 -169.364 137.09)">March</text>
<text x="0" y="0" text-anchor="start" font-family="Verdana, Helvetica, Arial, sans-serif" font-size="12" fill="rgba(0,0,0,1)" transform="matrix(0.5 0 0 0.5 -169.364 147.09)">March</text>
<text x="0" y="0" text-anchor="start" font-family="Verdana, Helvetica, Arial, sans-serif" font-size="12" fill="rgba(0,0,0,1)" transform="matrix(0.5 0 0 0.5 -169.364 157.09)">March</text>
<text x="0" y="0" text-anchor="start" font-family="Verdana-Bold, Helvetica, Arial, sans-serif" font-size="12" fill="rgba(0,0,0,1)" transform="matrix(0.5 0 0 0.5 -125.358 -22.909999999999997)">fruit</text>
<text x="0" y="0" text-anchor="start" font-family="Verdana, Helvetica, Arial, sans-serif" font-size="12" fill="rgba(0,0,0,1)" transform="matrix(0.5 0 0 0.5 -125.358 -12.909999999999997)">apples</text>
<text x="0" y="0" text-anchor="start" font-family="Verdana, Helvetica, Arial, sans-serif" font-size="12" fill="rgba(0,0,0,1)" transform="matrix(0.5 0 0 0.5 -125.358 -2.9099999999999966)">oranges</text>
<text x="0" y="0" text-anchor="start" font-family="Verdana, Helvetica, Arial, sans-serif" font-size="12" fill="rgba(0,0,0,1)" transform="matrix(0.5 0 0 0.5 -125.358 7.090000000000003)">bananas</text>
<text x="0" y="0" text-anchor="start" font-family="Verdana, Helvetica, Arial, sans-serif" font-size="12" fill="rgba(0,0,0,1)" transform="matrix(0.5 0 0 0.5 -125.358 17.090000000000003)">apples</text>
<text x="0" y="0" text-anchor="start" font-family="Verdana, Helvetica, Arial, sans-serif" font-size="12" fill="rgba(0,0,0,1)" transform="matrix(0.5 0 0 0.5 -125.358 27.090000000000003)">oranges</text>
<text x="0" y="0" text-anchor="start" font-family="Verdana, Helvetica, Arial, sans-serif" font-size="12" fill="rgba(0,0,0,1)" transform="matrix(0.5 0 0 0.5 -125.358 37.09)">bananas</text>
<text x="0" y="0" text-anchor="start" font-family="Verdana, Helvetica, Arial, sans-serif" font-size="12" fill="rgba(0,0,0,1)" transform="matrix(0.5 0 0 0.5 -125.358 47.09)">apples</text>
<text x="0" y="0" text-anchor="start" font-family="Verdana, Helvetica, Arial, sans-serif" font-size="12" fill="rgba(0,0,0,1)" transform="matrix(0.5 0 0 0.5 -125.358 57.09)">oranges</text>
<text x="0" y="0" text-anchor="start" font-family="Verdana, Helvetica, Arial, sans-serif" font-size="12" fill="rgba(0,0,0,1)" transform="matrix(0.5 0 0 0.5 -125.358 67.09)">bananas</text>
<text x="0" y="0" text-anchor="start" font-family="Verdana, Helvetica, Arial, sans-serif" font-size="12" fill="rgba(0,0,0,1)" transform="matrix(0.5 0 0 0.5 -125.358 77.09)">apples</text>
<text x="0" y="0" text-anchor="start" font-family="Verdana, Helvetica, Arial, sans-serif" font-size="12" fill="rgba(0,0,0,1)" transform="matrix(0.5 0 0 0.5 -125.358 87.09)">oranges</text>
<text x="0" y="0" text-anchor="start" font-family="Verdana, Helvetica, Arial, sans-serif" font-size="12" fill="rgba(0,0,0,1)" transform="matrix(0.5 0 0 0.5 -125.358 97.09)">bananas</text>
<text x="0" y="0" text-anchor="start" font-family="Verdana, Helvetica, Arial, sans-serif" font-size="12" fill="rgba(0,0,0,1)" transform="matrix(0.5 0 0 0.5 -125.358 107.09)">apples</text>
<text x="0" y="0" text-anchor="start" font-family="Verdana, Helvetica, Arial, sans-serif" font-size="12" fill="rgba(0,0,0,1)" transform="matrix(0.5 0 0 0.5 -125.358 117.09)">oranges</text>
<text x="0" y="0" text-anchor="start" font-family="Verdana, Helvetica, Arial, sans-serif" font-size="12" fill="rgba(0,0,0,1)" transform="matrix(0.5 0 0 0.5 -125.358 127.09)">bananas</text>
<text x="0" y="0" text-anchor="start" font-family="Verdana, Helvetica, Arial, sans-serif" font-size="12" fill="rgba(0,0,0,1)" transform="matrix(0.5 0 0 0.5 -125.358 137.09)">apples</text>
<text x="0" y="0" text-anchor="start" font-family="Verdana, Helvetica, Arial, sans-serif" font-size="12" fill="rgba(0,0,0,1)" transform="matrix(0.5 0 0 0.5 -125.358 147.09)">oranges</text>
<text x="0" y="0" text-anchor="start" font-family="Verdana, Helvetica, Arial, sans-serif" font-size="12" fill="rgba(0,0,0,1)" transform="matrix(0.5 0 0 0.5 -125.358 157.09)">bananas</text>
<text x="0" y="0" text-anchor="start" font-family="Verdana-Bold, Helvetica, Arial, sans-serif" font-size="12" fill="rgba(0,0,0,1)" transform="matrix(0.5 0 0 0.5 -82.34200000000001 -22.909999999999997)">sales</text>
<text x="0" y="0" text-anchor="start" font-family="Verdana, Helvetica, Arial, sans-serif" font-size="12" fill="rgba(0,0,0,1)" transform="matrix(0.5 0 0 0.5 -82.34200000000001 -12.909999999999997)">650</text>
<text x="0" y="0" text-anchor="start" font-family="Verdana, Helvetica, Arial, sans-serif" font-size="12" fill="rgba(0,0,0,1)" transform="matrix(0.5 0 0 0.5 -82.34200000000001 -2.9099999999999966)">358</text>
<text x="0" y="0" text-anchor="start" font-family="Verdana, Helvetica, Arial, sans-serif" font-size="12" fill="rgba(0,0,0,1)" transform="matrix(0.5 0 0 0.5 -82.34200000000001 7.090000000000003)">122</text>
<text x="0" y="0" text-anchor="start" font-family="Verdana, Helvetica, Arial, sans-serif" font-size="12" fill="rgba(0,0,0,1)" transform="matrix(0.5 0 0 0.5 -82.34200000000001 17.090000000000003)">494</text>
<text x="0" y="0" text-anchor="start" font-family="Verdana, Helvetica, Arial, sans-serif" font-size="12" fill="rgba(0,0,0,1)" transform="matrix(0.5 0 0 0.5 -82.34200000000001 27.090000000000003)">409</text>
<text x="0" y="0" text-anchor="start" font-family="Verdana, Helvetica, Arial, sans-serif" font-size="12" fill="rgba(0,0,0,1)" transform="matrix(0.5 0 0 0.5 -82.34200000000001 37.09)">133</text>
<text x="0" y="0" text-anchor="start" font-family="Verdana, Helvetica, Arial, sans-serif" font-size="12" fill="rgba(0,0,0,1)" transform="matrix(0.5 0 0 0.5 -82.34200000000001 47.09)">347</text>
<text x="0" y="0" text-anchor="start" font-family="Verdana, Helvetica, Arial, sans-serif" font-size="12" fill="rgba(0,0,0,1)" transform="matrix(0.5 0 0 0.5 -82.34200000000001 57.09)">262</text>
<text x="0" y="0" text-anchor="start" font-family="Verdana, Helvetica, Arial, sans-serif" font-size="12" fill="rgba(0,0,0,1)" transform="matrix(0.5 0 0 0.5 -82.34200000000001 67.09)">134</text>
<text x="0" y="0" text-anchor="start" font-family="Verdana, Helvetica, Arial, sans-serif" font-size="12" fill="rgba(0,0,0,1)" transform="matrix(0.5 0 0 0.5 -82.34200000000001 77.09)">230</text>
<text x="0" y="0" text-anchor="start" font-family="Verdana, Helvetica, Arial, sans-serif" font-size="12" fill="rgba(0,0,0,1)" transform="matrix(0.5 0 0 0.5 -82.34200000000001 87.09)">234</text>
<text x="0" y="0" text-anchor="start" font-family="Verdana, Helvetica, Arial, sans-serif" font-size="12" fill="rgba(0,0,0,1)" transform="matrix(0.5 0 0 0.5 -82.34200000000001 97.09)">116</text>
<text x="0" y="0" text-anchor="start" font-family="Verdana, Helvetica, Arial, sans-serif" font-size="12" fill="rgba(0,0,0,1)" transform="matrix(0.5 0 0 0.5 -82.34200000000001 107.09)">32</text>
<text x="0" y="0" text-anchor="start" font-family="Verdana, Helvetica, Arial, sans-serif" font-size="12" fill="rgba(0,0,0,1)" transform="matrix(0.5 0 0 0.5 -82.34200000000001 117.09)">159</text>
<text x="0" y="0" text-anchor="start" font-family="Verdana, Helvetica, Arial, sans-serif" font-size="12" fill="rgba(0,0,0,1)" transform="matrix(0.5 0 0 0.5 -82.34200000000001 127.09)">55</text>
<text x="0" y="0" text-anchor="start" font-family="Verdana, Helvetica, Arial, sans-serif" font-size="12" fill="rgba(0,0,0,1)" transform="matrix(0.5 0 0 0.5 -82.34200000000001 137.09)">171</text>
<text x="0" y="0" text-anchor="start" font-family="Verdana, Helvetica, Arial, sans-serif" font-size="12" fill="rgba(0,0,0,1)" transform="matrix(0.5 0 0 0.5 -82.34200000000001 147.09)">61</text>
<text x="0" y="0" text-anchor="start" font-family="Verdana, Helvetica, Arial, sans-serif" font-size="12" fill="rgba(0,0,0,1)" transform="matrix(0.5 0 0 0.5 -82.34200000000001 157.09)">31</text>
<path d="M-33.338,58 L4.162,58 L4.162,45.5 L27.662,65.5 L4.162,85.5 L4.162,73 L-33.338,73 Z" fill="rgba(255,255,255,1)" stroke="rgba(0,0,0,1)" stroke-width="1"/>
<path d="M52.662,-109.5 L129.682,-109.5 L129.682,-69.5 L52.662,-69.5 Z" fill="rgba(0,0,0,0)" stroke="rgba(0,0,0,1)" stroke-width="2"/>
<path d="M52.662,-109.5 L129.682,-109.5 L129.682,-99.5 L52.662,-99.5 Z" fill="rgba(246,246,246,1)"/>
<path d="M52.662,-99.5 L129.682,-99.5 L129.682,-89.5 L52.662,-89.5 Z" fill="rgba(255,255,255,1)"/>
<path d="M52.662,-89.5 L129.682,-89.5 L129.682,-79.5 L52.662,-79.5 Z" fill="rgba(243,246,250,1)"/>
<path d="M52.662,-79.5 L129.682,-79.5 L129.682,-69.5 L52.662,-69.5 Z" fill="rgba(255,255,255,1)"/>
<text x="0" y="0" text-anchor="start" font-family="Verdana-Bold, Helvetica, Arial, sans-serif" font-size="12" fill="rgba(0,0,0,1)" transform="matrix(0.5 0 0 0.5 62.66199999999998 -102.91)">fruit</text>
<text x="0" y="0" text-anchor="start" font-family="Verdana, Helvetica, Arial, sans-serif" font-size="12" fill="rgba(0,0,0,1)" transform="matrix(0.5 0 0 0.5 62.66199999999998 -92.91)">apples</text>
<text x="0" y="0" text-anchor="start" font-family="Verdana, Helvetica, Arial, sans-serif" font-size="12" fill="rgba(0,0,0,1)" transform="matrix(0.5 0 0 0.5 62.66199999999998 -82.91)">oranges</text>
<text x="0" y="0" text-anchor="start" font-family="Verdana, Helvetica, Arial, sans-serif" font-size="12" fill="rgba(0,0,0,1)" transform="matrix(0.5 0 0 0.5 62.66199999999998 -72.91)">bananas</text>
<text x="0" y="0" text-anchor="start" font-family="Verdana-Bold, Helvetica, Arial, sans-serif" font-size="12" fill="rgba(0,0,0,1)" transform="matrix(0.5 0 0 0.5 105.67799999999997 -102.91)">sales</text>
<text x="0" y="0" text-anchor="start" font-family="Verdana, Helvetica, Arial, sans-serif" font-size="12" fill="rgba(0,0,0,1)" transform="matrix(0.5 0 0 0.5 105.67799999999997 -92.91)">0</text>
<text x="0" y="0" text-anchor="start" font-family="Verdana, Helvetica, Arial, sans-serif" font-size="12" fill="rgba(0,0,0,1)" transform="matrix(0.5 0 0 0.5 105.67799999999997 -82.91)">0</text>
<text x="0" y="0" text-anchor="start" font-family="Verdana, Helvetica, Arial, sans-serif" font-size="12" fill="rgba(0,0,0,1)" transform="matrix(0.5 0 0 0.5 105.67799999999997 -72.91)">0</text>
<path d="M52.662,-54.5 L214.352,-54.5 L214.352,-24.5 L52.662,-24.5 Z" fill="rgba(0,0,0,0)" stroke="rgba(0,0,0,1)" stroke-width="2"/>
<path d="M52.662,-54.5 L214.352,-54.5 L214.352,-44.5 L52.662,-44.5 Z" fill="rgba(246,246,246,1)"/>
<path d="M52.662,-44.5 L214.352,-44.5 L214.352,-34.5 L52.662,-34.5 Z" fill="rgba(255,255,255,1)"/>
<path d="M52.662,-34.5 L214.352,-34.5 L214.352,-24.5 L52.662,-24.5 Z" fill="rgba(243,246,250,1)"/>
<text x="0" y="0" text-anchor="start" font-family="Verdana-Bold, Helvetica, Arial, sans-serif" font-size="12" fill="rgba(0,0,0,1)" transform="matrix(0.5 0 0 0.5 62.66199999999998 -47.91)">country</text>
<text x="0" y="0" text-anchor="start" font-family="Verdana, Helvetica, Arial, sans-serif" font-size="12" fill="rgba(0,0,0,1)" transform="matrix(0.5 0 0 0.5 62.66199999999998 -37.91)">India</text>
<text x="0" y="0" text-anchor="start" font-family="Verdana, Helvetica, Arial, sans-serif" font-size="12" fill="rgba(0,0,0,1)" transform="matrix(0.5 0 0 0.5 62.66199999999998 -27.909999999999997)">Brazil</text>
<text x="0" y="0" text-anchor="start" font-family="Verdana-Bold, Helvetica, Arial, sans-serif" font-size="12" fill="rgba(0,0,0,1)" transform="matrix(0.5 0 0 0.5 102.33599999999998 -47.91)">January</text>
<text x="0" y="0" text-anchor="start" font-family="Verdana, Helvetica, Arial, sans-serif" font-size="12" fill="rgba(0,0,0,1)" transform="matrix(0.5 0 0 0.5 102.33599999999998 -37.91)">0</text>
<text x="0" y="0" text-anchor="start" font-family="Verdana, Helvetica, Arial, sans-serif" font-size="12" fill="rgba(0,0,0,1)" transform="matrix(0.5 0 0 0.5 102.33599999999998 -27.909999999999997)">0</text>
<text x="0" y="0" text-anchor="start" font-family="Verdana-Bold, Helvetica, Arial, sans-serif" font-size="12" fill="rgba(0,0,0,1)" transform="matrix(0.5 0 0 0.5 143.67799999999997 -47.91)">February</text>
<text x="0" y="0" text-anchor="start" font-family="Verdana, Helvetica, Arial, sans-serif" font-size="12" fill="rgba(0,0,0,1)" transform="matrix(0.5 0 0 0.5 143.67799999999997 -37.91)">0</text>
<text x="0" y="0" text-anchor="start" font-family="Verdana, Helvetica, Arial, sans-serif" font-size="12" fill="rgba(0,0,0,1)" transform="matrix(0.5 0 0 0.5 143.67799999999997 -27.909999999999997)">0</text>
<text x="0" y="0" text-anchor="start" font-family="Verdana-Bold, Helvetica, Arial, sans-serif" font-size="12" fill="rgba(0,0,0,1)" transform="matrix(0.5 0 0 0.5 187.68399999999994 -47.91)">March</text>
<text x="0" y="0" text-anchor="start" font-family="Verdana, Helvetica, Arial, sans-serif" font-size="12" fill="rgba(0,0,0,1)" transform="matrix(0.5 0 0 0.5 187.68399999999994 -37.91)">0</text>
<text x="0" y="0" text-anchor="start" font-family="Verdana, Helvetica, Arial, sans-serif" font-size="12" fill="rgba(0,0,0,1)" transform="matrix(0.5 0 0 0.5 187.68399999999994 -27.909999999999997)">0</text>
<path d="M52.662,-9.5 L214.706,-9.5 L214.706,20.5 L52.662,20.5 Z" fill="rgba(0,0,0,0)" stroke="rgba(0,0,0,1)" stroke-width="2"/>
<path d="M52.662,-9.5 L214.706,-9.5 L214.706,0.5 L52.662,0.5 Z" fill="rgba(246,246,246,1)"/>
<path d="M52.662,0.5 L214.706,0.5 L214.706,10.5 L52.662,10.5 Z" fill="rgba(255,255,255,1)"/>
<path d="M52.662,10.5 L214.706,10.5 L214.706,20.5 L52.662,20.5 Z" fill="rgba(243,246,250,1)"/>
<text x="0" y="0" text-anchor="start" font-family="Verdana-Bold, Helvetica, Arial, sans-serif" font-size="12" fill="rgba(0,0,0,1)" transform="matrix(0.5 0 0 0.5 62.66199999999998 -2.9099999999999966)">country</text>
<text x="0" y="0" text-anchor="start" font-family="Verdana, Helvetica, Arial, sans-serif" font-size="12" fill="rgba(0,0,0,1)" transform="matrix(0.5 0 0 0.5 62.66199999999998 7.090000000000003)">India</text>
<text x="0" y="0" text-anchor="start" font-family="Verdana, Helvetica, Arial, sans-serif" font-size="12" fill="rgba(0,0,0,1)" transform="matrix(0.5 0 0 0.5 62.66199999999998 17.090000000000003)">Brazil</text>
<text x="0" y="0" text-anchor="start" font-family="Verdana-Bold, Helvetica, Arial, sans-serif" font-size="12" fill="rgba(0,0,0,1)" transform="matrix(0.5 0 0 0.5 102.33599999999998 -2.9099999999999966)">apples</text>
<text x="0" y="0" text-anchor="start" font-family="Verdana, Helvetica, Arial, sans-serif" font-size="12" fill="rgba(0,0,0,1)" transform="matrix(0.5 0 0 0.5 102.33599999999998 7.090000000000003)">0</text>
<text x="0" y="0" text-anchor="start" font-family="Verdana, Helvetica, Arial, sans-serif" font-size="12" fill="rgba(0,0,0,1)" transform="matrix(0.5 0 0 0.5 102.33599999999998 17.090000000000003)">0</text>
<text x="0" y="0" text-anchor="start" font-family="Verdana-Bold, Helvetica, Arial, sans-serif" font-size="12" fill="rgba(0,0,0,1)" transform="matrix(0.5 0 0 0.5 140.01199999999997 -2.9099999999999966)">oranges</text>
<text x="0" y="0" text-anchor="start" font-family="Verdana, Helvetica, Arial, sans-serif" font-size="12" fill="rgba(0,0,0,1)" transform="matrix(0.5 0 0 0.5 140.01199999999997 7.090000000000003)">0</text>
<text x="0" y="0" text-anchor="start" font-family="Verdana, Helvetica, Arial, sans-serif" font-size="12" fill="rgba(0,0,0,1)" transform="matrix(0.5 0 0 0.5 140.01199999999997 17.090000000000003)">0</text>
<text x="0" y="0" text-anchor="start" font-family="Verdana-Bold, Helvetica, Arial, sans-serif" font-size="12" fill="rgba(0,0,0,1)" transform="matrix(0.5 0 0 0.5 181.68999999999997 -2.9099999999999966)">bananas</text>
<text x="0" y="0" text-anchor="start" font-family="Verdana, Helvetica, Arial, sans-serif" font-size="12" fill="rgba(0,0,0,1)" transform="matrix(0.5 0 0 0.5 181.68999999999997 7.090000000000003)">0</text>
<text x="0" y="0" text-anchor="start" font-family="Verdana, Helvetica, Arial, sans-serif" font-size="12" fill="rgba(0,0,0,1)" transform="matrix(0.5 0 0 0.5 181.68999999999997 17.090000000000003)">0</text>
<path d="M52.662,35.5 L164.676,35.5 L164.676,75.5 L52.662,75.5 Z" fill="rgba(0,0,0,0)" stroke="rgba(0,0,0,1)" stroke-width="2"/>
<path d="M52.662,35.5 L164.676,35.5 L164.676,45.5 L52.662,45.5 Z" fill="rgba(246,246,246,1)"/>
<path d="M52.662,45.5 L164.676,45.5 L164.676,55.5 L52.662,55.5 Z" fill="rgba(255,255,255,1)"/>
<path d="M52.662,55.5 L164.676,55.5 L164.676,65.5 L52.662,65.5 Z" fill="rgba(243,246,250,1)"/>
<path d="M52.662,65.5 L164.676,65.5 L164.676,75.5 L52.662,75.5 Z" fill="rgba(255,255,255,1)"/>
<text x="0" y="0" text-anchor="start" font-family="Verdana-Bold, Helvetica, Arial, sans-serif" font-size="12" fill="rgba(0,0,0,1)" transform="matrix(0.5 0 0 0.5 62.66199999999998 42.09)">month</text>
<text x="0" y="0" text-anchor="start" font-family="Verdana, Helvetica, Arial, sans-serif" font-size="12" fill="rgba(0,0,0,1)" transform="matrix(0.5 0 0 0.5 62.66199999999998 52.09)">January</text>
<text x="0" y="0" text-anchor="start" font-family="Verdana, Helvetica, Arial, sans-serif" font-size="12" fill="rgba(0,0,0,1)" transform="matrix(0.5 0 0 0.5 62.66199999999998 62.09)">February</text>
<text x="0" y="0" text-anchor="start" font-family="Verdana, Helvetica, Arial, sans-serif" font-size="12" fill="rgba(0,0,0,1)" transform="matrix(0.5 0 0 0.5 62.66199999999998 72.09)">March</text>
<text x="0" y="0" text-anchor="start" font-family="Verdana-Bold, Helvetica, Arial, sans-serif" font-size="12" fill="rgba(0,0,0,1)" transform="matrix(0.5 0 0 0.5 106.66799999999998 42.09)">India</text>
<text x="0" y="0" text-anchor="start" font-family="Verdana, Helvetica, Arial, sans-serif" font-size="12" fill="rgba(0,0,0,1)" transform="matrix(0.5 0 0 0.5 106.66799999999998 52.09)">0</text>
<text x="0" y="0" text-anchor="start" font-family="Verdana, Helvetica, Arial, sans-serif" font-size="12" fill="rgba(0,0,0,1)" transform="matrix(0.5 0 0 0.5 106.66799999999998 62.09)">0</text>
<text x="0" y="0" text-anchor="start" font-family="Verdana, Helvetica, Arial, sans-serif" font-size="12" fill="rgba(0,0,0,1)" transform="matrix(0.5 0 0 0.5 106.66799999999998 72.09)">0</text>
<text x="0" y="0" text-anchor="start" font-family="Verdana-Bold, Helvetica, Arial, sans-serif" font-size="12" fill="rgba(0,0,0,1)" transform="matrix(0.5 0 0 0.5 139.67600000000002 42.09)">Brazil</text>
<text x="0" y="0" text-anchor="start" font-family="Verdana, Helvetica, Arial, sans-serif" font-size="12" fill="rgba(0,0,0,1)" transform="matrix(0.5 0 0 0.5 139.67600000000002 52.09)">0</text>
<text x="0" y="0" text-anchor="start" font-family="Verdana, Helvetica, Arial, sans-serif" font-size="12" fill="rgba(0,0,0,1)" transform="matrix(0.5 0 0 0.5 139.67600000000002 62.09)">0</text>
<text x="0" y="0" text-anchor="start" font-family="Verdana, Helvetica, Arial, sans-serif" font-size="12" fill="rgba(0,0,0,1)" transform="matrix(0.5 0 0 0.5 139.67600000000002 72.09)">0</text>
<path d="M52.662,90.5 L219.038,90.5 L219.038,130.5 L52.662,130.5 Z" fill="rgba(0,0,0,0)" stroke="rgba(0,0,0,1)" stroke-width="2"/>
<path d="M52.662,90.5 L219.038,90.5 L219.038,100.5 L52.662,100.5 Z" fill="rgba(246,246,246,1)"/>
<path d="M52.662,100.5 L219.038,100.5 L219.038,110.5 L52.662,110.5 Z" fill="rgba(255,255,255,1)"/>
<path d="M52.662,110.5 L219.038,110.5 L219.038,120.5 L52.662,120.5 Z" fill="rgba(243,246,250,1)"/>
<path d="M52.662,120.5 L219.038,120.5 L219.038,130.5 L52.662,130.5 Z" fill="rgba(255,255,255,1)"/>
<text x="0" y="0" text-anchor="start" font-family="Verdana-Bold, Helvetica, Arial, sans-serif" font-size="12" fill="rgba(0,0,0,1)" transform="matrix(0.5 0 0 0.5 62.66199999999998 97.09)">month</text>
<text x="0" y="0" text-anchor="start" font-family="Verdana, Helvetica, Arial, sans-serif" font-size="12" fill="rgba(0,0,0,1)" transform="matrix(0.5 0 0 0.5 62.66199999999998 107.09)">January</text>
<text x="0" y="0" text-anchor="start" font-family="Verdana, Helvetica, Arial, sans-serif" font-size="12" fill="rgba(0,0,0,1)" transform="matrix(0.5 0 0 0.5 62.66199999999998 117.09)">February</text>
<text x="0" y="0" text-anchor="start" font-family="Verdana, Helvetica, Arial, sans-serif" font-size="12" fill="rgba(0,0,0,1)" transform="matrix(0.5 0 0 0.5 62.66199999999998 127.09)">March</text>
<text x="0" y="0" text-anchor="start" font-family="Verdana-Bold, Helvetica, Arial, sans-serif" font-size="12" fill="rgba(0,0,0,1)" transform="matrix(0.5 0 0 0.5 106.66799999999998 97.09)">apples</text>
<text x="0" y="0" text-anchor="start" font-family="Verdana, Helvetica, Arial, sans-serif" font-size="12" fill="rgba(0,0,0,1)" transform="matrix(0.5 0 0 0.5 106.66799999999998 107.09)">0</text>
<text x="0" y="0" text-anchor="start" font-family="Verdana, Helvetica, Arial, sans-serif" font-size="12" fill="rgba(0,0,0,1)" transform="matrix(0.5 0 0 0.5 106.66799999999998 117.09)">0</text>
<text x="0" y="0" text-anchor="start" font-family="Verdana, Helvetica, Arial, sans-serif" font-size="12" fill="rgba(0,0,0,1)" transform="matrix(0.5 0 0 0.5 106.66799999999998 127.09)">0</text>
<text x="0" y="0" text-anchor="start" font-family="Verdana-Bold, Helvetica, Arial, sans-serif" font-size="12" fill="rgba(0,0,0,1)" transform="matrix(0.5 0 0 0.5 144.34399999999997 97.09)">oranges</text>
<text x="0" y="0" text-anchor="start" font-family="Verdana, Helvetica, Arial, sans-serif" font-size="12" fill="rgba(0,0,0,1)" transform="matrix(0.5 0 0 0.5 144.34399999999997 107.09)">0</text>
<text x="0" y="0" text-anchor="start" font-family="Verdana, Helvetica, Arial, sans-serif" font-size="12" fill="rgba(0,0,0,1)" transform="matrix(0.5 0 0 0.5 144.34399999999997 117.09)">0</text>
<text x="0" y="0" text-anchor="start" font-family="Verdana, Helvetica, Arial, sans-serif" font-size="12" fill="rgba(0,0,0,1)" transform="matrix(0.5 0 0 0.5 144.34399999999997 127.09)">0</text>
<text x="0" y="0" text-anchor="start" font-family="Verdana-Bold, Helvetica, Arial, sans-serif" font-size="12" fill="rgba(0,0,0,1)" transform="matrix(0.5 0 0 0.5 186.02200000000002 97.09)">bananas</text>
<text x="0" y="0" text-anchor="start" font-family="Verdana, Helvetica, Arial, sans-serif" font-size="12" fill="rgba(0,0,0,1)" transform="matrix(0.5 0 0 0.5 186.02200000000002 107.09)">0</text>
<text x="0" y="0" text-anchor="start" font-family="Verdana, Helvetica, Arial, sans-serif" font-size="12" fill="rgba(0,0,0,1)" transform="matrix(0.5 0 0 0.5 186.02200000000002 117.09)">0</text>
<text x="0" y="0" text-anchor="start" font-family="Verdana, Helvetica, Arial, sans-serif" font-size="12" fill="rgba(0,0,0,1)" transform="matrix(0.5 0 0 0.5 186.02200000000002 127.09)">0</text>
<path d="M52.662,145.5 L163.686,145.5 L163.686,185.5 L52.662,185.5 Z" fill="rgba(0,0,0,0)" stroke="rgba(0,0,0,1)" stroke-width="2"/>
<path d="M52.662,145.5 L163.686,145.5 L163.686,155.5 L52.662,155.5 Z" fill="rgba(246,246,246,1)"/>
<path d="M52.662,155.5 L163.686,155.5 L163.686,165.5 L52.662,165.5 Z" fill="rgba(255,255,255,1)"/>
<path d="M52.662,165.5 L163.686,165.5 L163.686,175.5 L52.662,175.5 Z" fill="rgba(243,246,250,1)"/>
<path d="M52.662,175.5 L163.686,175.5 L163.686,185.5 L52.662,185.5 Z" fill="rgba(255,255,255,1)"/>
<text x="0" y="0" text-anchor="start" font-family="Verdana-Bold, Helvetica, Arial, sans-serif" font-size="12" fill="rgba(0,0,0,1)" transform="matrix(0.5 0 0 0.5 62.66199999999998 152.09)">fruit</text>
<text x="0" y="0" text-anchor="start" font-family="Verdana, Helvetica, Arial, sans-serif" font-size="12" fill="rgba(0,0,0,1)" transform="matrix(0.5 0 0 0.5 62.66199999999998 162.09)">apples</text>
<text x="0" y="0" text-anchor="start" font-family="Verdana, Helvetica, Arial, sans-serif" font-size="12" fill="rgba(0,0,0,1)" transform="matrix(0.5 0 0 0.5 62.66199999999998 172.08999999999997)">oranges</text>
<text x="0" y="0" text-anchor="start" font-family="Verdana, Helvetica, Arial, sans-serif" font-size="12" fill="rgba(0,0,0,1)" transform="matrix(0.5 0 0 0.5 62.66199999999998 182.08999999999997)">bananas</text>
<text x="0" y="0" text-anchor="start" font-family="Verdana-Bold, Helvetica, Arial, sans-serif" font-size="12" fill="rgba(0,0,0,1)" transform="matrix(0.5 0 0 0.5 105.67799999999997 152.09)">India</text>
<text x="0" y="0" text-anchor="start" font-family="Verdana, Helvetica, Arial, sans-serif" font-size="12" fill="rgba(0,0,0,1)" transform="matrix(0.5 0 0 0.5 105.67799999999997 162.09)">0</text>
<text x="0" y="0" text-anchor="start" font-family="Verdana, Helvetica, Arial, sans-serif" font-size="12" fill="rgba(0,0,0,1)" transform="matrix(0.5 0 0 0.5 105.67799999999997 172.08999999999997)">0</text>
<text x="0" y="0" text-anchor="start" font-family="Verdana, Helvetica, Arial, sans-serif" font-size="12" fill="rgba(0,0,0,1)" transform="matrix(0.5 0 0 0.5 105.67799999999997 182.08999999999997)">0</text>
<text x="0" y="0" text-anchor="start" font-family="Verdana-Bold, Helvetica, Arial, sans-serif" font-size="12" fill="rgba(0,0,0,1)" transform="matrix(0.5 0 0 0.5 138.686 152.09)">Brazil</text>
<text x="0" y="0" text-anchor="start" font-family="Verdana, Helvetica, Arial, sans-serif" font-size="12" fill="rgba(0,0,0,1)" transform="matrix(0.5 0 0 0.5 138.686 162.09)">0</text>
<text x="0" y="0" text-anchor="start" font-family="Verdana, Helvetica, Arial, sans-serif" font-size="12" fill="rgba(0,0,0,1)" transform="matrix(0.5 0 0 0.5 138.686 172.08999999999997)">0</text>
<text x="0" y="0" text-anchor="start" font-family="Verdana, Helvetica, Arial, sans-serif" font-size="12" fill="rgba(0,0,0,1)" transform="matrix(0.5 0 0 0.5 138.686 182.08999999999997)">0</text>
<path d="M52.662,200.5 L217.694,200.5 L217.694,240.5 L52.662,240.5 Z" fill="rgba(0,0,0,0)" stroke="rgba(0,0,0,1)" stroke-width="2"/>
<path d="M52.662,200.5 L217.694,200.5 L217.694,210.5 L52.662,210.5 Z" fill="rgba(246,246,246,1)"/>
<path d="M52.662,210.5 L217.694,210.5 L217.694,220.5 L52.662,220.5 Z" fill="rgba(255,255,255,1)"/>
<path d="M52.662,220.5 L217.694,220.5 L217.694,230.5 L52.662,230.5 Z" fill="rgba(243,246,250,1)"/>
<path d="M52.662,230.5 L217.694,230.5 L217.694,240.5 L52.662,240.5 Z" fill="rgba(255,255,255,1)"/>
<text x="0" y="0" text-anchor="start" font-family="Verdana-Bold, Helvetica, Arial, sans-serif" font-size="12" fill="rgba(0,0,0,1)" transform="matrix(0.5 0 0 0.5 62.66199999999998 207.08999999999997)">fruit</text>
<text x="0" y="0" text-anchor="start" font-family="Verdana, Helvetica, Arial, sans-serif" font-size="12" fill="rgba(0,0,0,1)" transform="matrix(0.5 0 0 0.5 62.66199999999998 217.08999999999997)">apples</text>
<text x="0" y="0" text-anchor="start" font-family="Verdana, Helvetica, Arial, sans-serif" font-size="12" fill="rgba(0,0,0,1)" transform="matrix(0.5 0 0 0.5 62.66199999999998 227.08999999999997)">oranges</text>
<text x="0" y="0" text-anchor="start" font-family="Verdana, Helvetica, Arial, sans-serif" font-size="12" fill="rgba(0,0,0,1)" transform="matrix(0.5 0 0 0.5 62.66199999999998 237.08999999999997)">bananas</text>
<text x="0" y="0" text-anchor="start" font-family="Verdana-Bold, Helvetica, Arial, sans-serif" font-size="12" fill="rgba(0,0,0,1)" transform="matrix(0.5 0 0 0.5 105.67799999999997 207.08999999999997)">January</text>
<text x="0" y="0" text-anchor="start" font-family="Verdana, Helvetica, Arial, sans-serif" font-size="12" fill="rgba(0,0,0,1)" transform="matrix(0.5 0 0 0.5 105.67799999999997 217.08999999999997)">0</text>
<text x="0" y="0" text-anchor="start" font-family="Verdana, Helvetica, Arial, sans-serif" font-size="12" fill="rgba(0,0,0,1)" transform="matrix(0.5 0 0 0.5 105.67799999999997 227.08999999999997)">0</text>
<text x="0" y="0" text-anchor="start" font-family="Verdana, Helvetica, Arial, sans-serif" font-size="12" fill="rgba(0,0,0,1)" transform="matrix(0.5 0 0 0.5 105.67799999999997 237.08999999999997)">0</text>
<text x="0" y="0" text-anchor="start" font-family="Verdana-Bold, Helvetica, Arial, sans-serif" font-size="12" fill="rgba(0,0,0,1)" transform="matrix(0.5 0 0 0.5 147.01999999999995 207.08999999999997)">February</text>
<text x="0" y="0" text-anchor="start" font-family="Verdana, Helvetica, Arial, sans-serif" font-size="12" fill="rgba(0,0,0,1)" transform="matrix(0.5 0 0 0.5 147.01999999999995 217.08999999999997)">0</text>
<text x="0" y="0" text-anchor="start" font-family="Verdana, Helvetica, Arial, sans-serif" font-size="12" fill="rgba(0,0,0,1)" transform="matrix(0.5 0 0 0.5 147.01999999999995 227.08999999999997)">0</text>
<text x="0" y="0" text-anchor="start" font-family="Verdana, Helvetica, Arial, sans-serif" font-size="12" fill="rgba(0,0,0,1)" transform="matrix(0.5 0 0 0.5 147.01999999999995 237.08999999999997)">0</text>
<text x="0" y="0" text-anchor="start" font-family="Verdana-Bold, Helvetica, Arial, sans-serif" font-size="12" fill="rgba(0,0,0,1)" transform="matrix(0.5 0 0 0.5 191.02599999999998 207.08999999999997)">March</text>
<text x="0" y="0" text-anchor="start" font-family="Verdana, Helvetica, Arial, sans-serif" font-size="12" fill="rgba(0,0,0,1)" transform="matrix(0.5 0 0 0.5 191.02599999999998 217.08999999999997)">0</text>
<text x="0" y="0" text-anchor="start" font-family="Verdana, Helvetica, Arial, sans-serif" font-size="12" fill="rgba(0,0,0,1)" transform="matrix(0.5 0 0 0.5 191.02599999999998 227.08999999999997)">0</text>
<text x="0" y="0" text-anchor="start" font-family="Verdana, Helvetica, Arial, sans-serif" font-size="12" fill="rgba(0,0,0,1)" transform="matrix(0.5 0 0 0.5 191.02599999999998 237.08999999999997)">0</text>
</svg>