<svg xmlns="http://www.w3.org/2000/svg" viewBox="-218.87 -163.02 440.1 446.04">
<path d="M95,60 C95,112.467 52.467,155 0,155 C-52.467,155 -95,112.467 -95,60 C-95,7.533 -52.467,-35 0,-35 C52.467,-35 95,7.533 95,60 Z" fill="rgba(128,128,128,1)" stroke="rgba(0,0,0,1)" stroke-width="2"/>
<path d="M193.763,60 C193.763,87.273 171.654,109.381 144.381,109.381 C117.109,109.381 95,87.273 95,60 C95,32.727 117.109,10.619 144.381,10.619 C171.654,10.619 193.763,32.727 193.763,60 Z" fill="rgba(141,227,247,1)" stroke="rgba(0,0,0,1)" stroke-width="2"/>
<path d="M148.431,184.548 C130.9,205.44 99.753,208.165 78.861,190.635 C57.969,173.104 55.244,141.957 72.774,121.065 C90.305,100.173 121.452,97.448 142.344,114.978 C163.236,132.509 165.961,163.656 148.431,184.548 Z" fill="rgba(141,227,247,1)" stroke="rgba(0,0,0,1)" stroke-width="2"/>
<path d="M33.647,250.819 C6.788,255.555 -18.824,237.621 -23.56,210.763 C-28.295,183.905 -10.362,158.293 16.497,153.557 C43.355,148.821 68.967,166.755 73.703,193.613 C78.438,220.471 60.505,246.083 33.647,250.819 Z" fill="rgba(141,227,247,1)" stroke="rgba(0,0,0,1)" stroke-width="2"/>
<path d="M-96.881,227.803 C-120.5,214.167 -128.592,183.966 -114.956,160.347 C-101.32,136.729 -71.119,128.636 -47.5,142.272 C-23.881,155.909 -15.789,186.11 -29.425,209.729 C-43.061,233.347 -73.263,241.44 -96.881,227.803 Z" fill="rgba(141,227,247,1)" stroke="rgba(0,0,0,1)" stroke-width="2"/>
<path d="M-182.077,126.271 C-191.405,100.643 -178.191,72.306 -152.563,62.978 C-126.936,53.65 -98.599,66.864 -89.271,92.492 C-79.943,118.12 -93.157,146.457 -118.785,155.785 C-144.412,165.112 -172.75,151.899 -182.077,126.271 Z" fill="rgba(141,227,247,1)" stroke="rgba(0,0,0,1)" stroke-width="2"/>
<path d="M-182.077,-6.271 C-172.75,-31.899 -144.412,-45.112 -118.785,-35.785 C-93.157,-26.457 -79.943,1.88 -89.271,27.508 C-98.599,53.136 -126.936,66.35 -152.563,57.022 C-178.191,47.694 -191.405,19.357 -182.077,-6.271 Z" fill="rgba(141,227,247,1)" stroke="rgba(0,0,0,1)" stroke-width="2"/>
<path d="M-96.881,-107.803 C-73.263,-121.44 -43.061,-113.347 -29.425,-89.729 C-15.789,-66.11 -23.881,-35.909 -47.5,-22.272 C-71.119,-8.636 -101.32,-16.729 -114.956,-40.347 C-128.592,-63.966 -120.5,-94.167 -96.881,-107.803 Z" fill="rgba(141,227,247,1)" stroke="rgba(0,0,0,1)" stroke-width="2"/>
<path d="M33.647,-130.819 C60.505,-126.083 78.438,-100.471 73.703,-73.613 C68.967,-46.755 43.355,-28.821 16.497,-33.557 C-10.362,-38.293 -28.295,-63.905 -23.56,-90.763 C-18.824,-117.621 6.788,-135.555 33.647,-130.819 Z" fill="rgba(141,227,247,1)" stroke="rgba(0,0,0,1)" stroke-width="2"/>
<path d="M148.431,-64.548 C165.961,-43.656 163.236,-12.509 142.344,5.022 C121.452,22.552 90.305,19.827 72.774,-1.065 C55.244,-21.957 57.969,-53.104 78.861,-70.635 C99.753,-88.165 130.9,-85.44 148.431,-64.548 Z" fill="rgba(141,227,247,1)" stroke="rgba(0,0,0,1)" stroke-width="2"/>
</svg>