<svg xmlns="http://www.w3.org/2000/svg" viewBox="-199.86 -154.69 412.91 399.37">
<path d="M98.995,116.489 L109.587,68.995 L171.774,77.195 L174.166,121.956 L174.166,121.956 L174.166,133.574 L170.407,147.924 L135.897,176.626 L135.897,176.626 L119.838,191.66 L108.22,197.127 L98.995,218.995 L98.995,218.995 L89.769,197.127 L78.152,191.66 L62.093,176.626 L27.583,147.924 L23.824,133.574 L23.824,121.956 L26.216,77.195 L88.403,68.995 L98.995,116.489 Z" fill="rgba(255,0,0,1)"/>
<path d="M-23.824,166.034 L-23.824,154.416 L-27.583,140.066 L-62.093,111.364 L-78.152,96.33 L-89.769,90.863 L-98.995,68.995 L-108.22,90.863 L-119.838,96.33 L-135.897,111.364 L-170.407,140.066 L-174.166,154.416 L-174.166,166.034 L-171.774,210.794 L-109.587,218.995 L-98.995,171.501 L-88.403,218.995 L-26.216,210.794 Z" fill="rgba(255,0,0,1)"/>
<path d="M-38.081,-53.995 L-98.995,21.005 L-159.909,-53.995 L-98.995,-128.995 L-38.081,-53.995 L-98.995,21.005 L-159.909,-53.995 L-98.995,-128.995 L-38.081,-53.995 L-98.995,21.005 L-159.909,-53.995 L-98.995,-128.995 L-38.081,-53.995 Z" fill="rgba(255,0,0,1)"/>
<path d="M187.13,-19.679 L186.443,-15.179 L185.326,-10.836 L183.802,-6.673 L181.894,-2.711 L179.624,1.025 L177.015,4.514 L174.09,7.732 L170.872,10.657 L167.384,13.266 L163.647,15.536 L159.686,17.444 L155.522,18.968 L151.179,20.084 L146.68,20.771 L142.046,21.005 L137.413,20.771 L132.913,20.084 L128.57,18.968 L124.407,17.444 L120.445,15.536 L116.709,13.266 L113.22,10.657 L110.002,7.732 L107.077,4.514 L104.469,1.025 L102.199,-2.711 L100.29,-6.673 L98.995,-10.212 L99.223,-10.836 L100.34,-15.179 L101.027,-19.679 L101.261,-24.312 L101.027,-28.946 L100.34,-33.445 L99.223,-37.788 L99.014,-38.361 L103.628,-38.594 L108.128,-39.281 L112.471,-40.398 L116.634,-41.922 L120.596,-43.83 L124.332,-46.1 L127.821,-48.709 L131.039,-51.634 L133.964,-54.852 L136.573,-58.34 L138.843,-62.077 L140.751,-66.038 L142.065,-69.628 L142.046,-69.629 L137.413,-69.395 L132.913,-68.709 L128.57,-67.592 L124.407,-66.068 L120.445,-64.16 L116.709,-61.89 L113.22,-59.281 L110.002,-56.356 L107.077,-53.138 L104.469,-49.649 L102.199,-45.913 L100.29,-41.952 L98.995,-38.412 L99.014,-38.361 L98.995,-38.361 L98.976,-38.361 L98.995,-38.412 L97.7,-41.952 L95.791,-45.913 L93.521,-49.649 L90.913,-53.138 L87.988,-56.356 L84.77,-59.281 L81.281,-61.89 L77.544,-64.16 L73.583,-66.068 L69.42,-67.592 L65.077,-68.709 L60.577,-69.395 L55.944,-69.629 L55.925,-69.628 L57.239,-66.038 L59.147,-62.077 L61.417,-58.34 L64.026,-54.852 L66.951,-51.634 L70.169,-48.709 L73.658,-46.1 L77.394,-43.83 L81.355,-41.922 L85.519,-40.398 L89.862,-39.281 L94.362,-38.594 L98.976,-38.361 L98.766,-37.788 L97.65,-33.445 L96.963,-28.946 L96.729,-24.312 L96.963,-19.679 L97.65,-15.179 L98.766,-10.836 L98.995,-10.212 L97.7,-6.673 L95.791,-2.711 L93.521,1.025 L90.913,4.514 L87.988,7.732 L84.77,10.657 L81.281,13.266 L77.544,15.536 L73.583,17.444 L69.42,18.968 L65.077,20.084 L60.577,20.771 L55.944,21.005 L51.31,20.771 L46.811,20.084 L42.468,18.968 L38.304,17.444 L34.343,15.536 L30.606,13.266 L27.118,10.657 L23.899,7.732 L20.975,4.514 L18.366,1.025 L16.096,-2.711 L14.188,-6.673 L12.664,-10.836 L11.547,-15.179 L10.86,-19.679 L10.626,-24.312 L10.86,-28.946 L11.547,-33.445 L12.664,-37.788 L14.188,-41.952 L16.096,-45.913 L18.366,-49.649 L20.975,-53.138 L23.899,-56.356 L27.118,-59.281 L30.606,-61.89 L34.343,-64.16 L38.304,-66.068 L42.468,-67.592 L46.811,-68.709 L51.31,-69.395 L55.925,-69.628 L55.715,-70.202 L54.598,-74.545 L53.912,-79.044 L53.678,-83.678 L53.912,-88.311 L54.598,-92.811 L55.715,-97.154 L57.239,-101.317 L59.147,-105.279 L61.417,-109.015 L64.026,-112.504 L66.951,-115.722 L70.169,-118.647 L73.658,-121.255 L77.394,-123.525 L81.355,-125.434 L85.519,-126.958 L89.862,-128.074 L94.362,-128.761 L98.995,-128.995 L103.628,-128.761 L108.128,-128.074 L112.471,-126.958 L116.634,-125.434 L120.596,-123.525 L124.332,-121.255 L127.821,-118.647 L131.039,-115.722 L133.964,-112.504 L136.573,-109.015 L138.843,-105.279 L140.751,-101.317 L142.275,-97.154 L143.391,-92.811 L144.078,-88.311 L144.312,-83.678 L144.078,-79.044 L143.391,-74.545 L142.275,-70.202 L142.065,-69.628 L146.68,-69.395 L151.179,-68.709 L155.522,-67.592 L159.686,-66.068 L163.647,-64.16 L167.384,-61.89 L170.872,-59.281 L174.09,-56.356 L177.015,-53.138 L179.624,-49.649 L181.894,-45.913 L183.802,-41.952 L185.326,-37.788 L186.443,-33.445 L187.13,-28.946 L187.364,-24.312 Z" fill="rgba(0,0,0,1)"/>
<path d="M-14.788,14.823 L-14.867,15.343 L-14.996,15.845 L-15.172,16.327 L-15.393,16.785 L-15.655,17.217 L-15.957,17.62 L-16.295,17.992 L-16.667,18.33 L-17.071,18.632 L-17.503,18.895 L-17.961,19.115 L-18.442,19.291 L-18.944,19.42 L-19.464,19.5 L-20,19.527 L-20.536,19.5 L-21.056,19.42 L-21.558,19.291 L-22.039,19.115 L-22.497,18.895 L-22.929,18.632 L-23.333,18.33 L-23.705,17.992 L-24.043,17.62 L-24.345,17.217 L-24.607,16.785 L-24.828,16.327 L-25.004,15.845 L-25.133,15.343 L-25.212,14.823 L-25.24,14.287 L-25.212,13.752 L-25.133,13.231 L-25.004,12.729 L-24.828,12.248 L-24.607,11.79 L-24.345,11.358 L-24.043,10.955 L-23.705,10.583 L-23.333,10.244 L-22.929,9.943 L-22.497,9.68 L-22.039,9.46 L-21.558,9.283 L-21.056,9.154 L-20.536,9.075 L-20,9.048 L-19.464,9.075 L-18.944,9.154 L-18.442,9.283 L-17.961,9.46 L-17.503,9.68 L-17.071,9.943 L-16.667,10.244 L-16.295,10.583 L-15.957,10.955 L-15.655,11.358 L-15.393,11.79 L-15.172,12.248 L-14.996,12.729 L-14.867,13.231 L-14.788,13.752 L-14.76,14.287 Z M-14.788,52.248 L-14.867,52.769 L-14.996,53.271 L-15.172,53.752 L-15.393,54.21 L-15.655,54.642 L-15.957,55.045 L-16.295,55.417 L-16.667,55.756 L-17.071,56.057 L-17.503,56.32 L-17.961,56.54 L-18.442,56.717 L-18.944,56.846 L-19.464,56.925 L-20,56.952 L-20.536,56.925 L-21.056,56.846 L-21.558,56.717 L-22.039,56.54 L-22.497,56.32 L-22.929,56.057 L-23.333,55.756 L-23.705,55.417 L-24.043,55.045 L-24.345,54.642 L-24.607,54.21 L-24.828,53.752 L-25.004,53.271 L-25.133,52.769 L-25.212,52.248 L-25.24,51.713 L-25.212,51.177 L-25.133,50.657 L-25.004,50.155 L-24.828,49.673 L-24.607,49.215 L-24.345,48.783 L-24.043,48.38 L-23.705,48.008 L-23.333,47.67 L-22.929,47.368 L-22.497,47.105 L-22.039,46.885 L-21.558,46.709 L-21.056,46.58 L-20.536,46.5 L-20,46.473 L-19.464,46.5 L-18.944,46.58 L-18.442,46.709 L-17.961,46.885 L-17.503,47.105 L-17.071,47.368 L-16.667,47.67 L-16.295,48.008 L-15.957,48.38 L-15.655,48.783 L-15.393,49.215 L-15.172,49.673 L-14.996,50.155 L-14.867,50.657 L-14.788,51.177 L-14.76,51.713 Z M-1.384,16.201 L-1.668,18.059 L-2.129,19.852 L-2.758,21.571 L-3.546,23.207 L-4.483,24.75 L-5.56,26.19 L-6.768,27.519 L-8.097,28.727 L-9.538,29.804 L-11.08,30.741 L-12.716,31.529 L-14.435,32.159 L-16.229,32.62 L-18.087,32.903 L-21.913,33.097 L-23.771,33.38 L-25.565,33.841 L-27.284,34.471 L-28.92,35.259 L-30.462,36.196 L-31.903,37.273 L-33.232,38.481 L-34.44,39.81 L-35.517,41.25 L-36.454,42.793 L-37.242,44.429 L-37.871,46.148 L-38.332,47.941 L-38.616,49.799 L-38.713,51.713 L-38.616,53.626 L-38.332,55.484 L-37.871,57.277 L-37.242,58.996 L-36.454,60.632 L-35.517,62.175 L-34.44,63.616 L-33.232,64.944 L-31.903,66.152 L-30.462,67.229 L-28.92,68.167 L-27.284,68.955 L-25.565,69.584 L-23.771,70.045 L-21.913,70.329 L-20,70.425 L-21.856,70.379 L-23.699,70.242 L-25.527,70.015 L-27.335,69.699 L-29.122,69.296 L-30.885,68.807 L-32.619,68.234 L-34.322,67.576 L-35.991,66.837 L-37.623,66.016 L-39.215,65.116 L-40.763,64.137 L-42.266,63.081 L-43.718,61.95 L-45.119,60.743 L-46.464,59.464 L-47.743,58.119 L-48.95,56.718 L-50.081,55.266 L-51.137,53.763 L-52.116,52.215 L-53.016,50.623 L-53.837,48.991 L-54.576,47.322 L-55.234,45.619 L-55.807,43.885 L-56.296,42.122 L-56.699,40.335 L-57.015,38.527 L-57.242,36.699 L-57.379,34.856 L-57.425,33 L-57.379,31.144 L-57.242,29.301 L-57.015,27.473 L-56.699,25.665 L-56.296,23.878 L-55.807,22.115 L-55.234,20.381 L-54.576,18.678 L-53.837,17.009 L-53.016,15.377 L-52.116,13.785 L-51.137,12.237 L-50.081,10.734 L-48.95,9.282 L-47.743,7.881 L-46.464,6.536 L-45.119,5.257 L-43.718,4.05 L-42.266,2.919 L-40.763,1.863 L-39.215,0.884 L-37.623,-0.016 L-35.991,-0.837 L-34.322,-1.576 L-32.619,-2.234 L-30.885,-2.807 L-29.122,-3.296 L-27.335,-3.699 L-25.527,-4.015 L-23.699,-4.242 L-21.856,-4.379 L-20,-4.425 L-18.087,-4.329 L-16.229,-4.045 L-14.435,-3.584 L-12.716,-2.955 L-11.08,-2.167 L-9.538,-1.229 L-8.097,-0.152 L-6.768,1.056 L-5.56,2.384 L-4.483,3.825 L-3.546,5.368 L-2.758,7.004 L-2.129,8.723 L-1.668,10.516 L-1.384,12.374 L-1.287,14.287 Z M17.306,36.834 L16.738,40.558 L15.814,44.151 L14.553,47.597 L12.974,50.875 L11.096,53.967 L8.937,56.853 L6.517,59.517 L3.853,61.937 L0.967,64.096 L-2.125,65.974 L-5.403,67.553 L-8.849,68.814 L-12.442,69.738 L-16.166,70.306 L-20,70.5 L-23.834,70.306 L-27.558,69.738 L-31.151,68.814 L-34.597,67.553 L-37.875,65.974 L-40.967,64.096 L-43.853,61.937 L-46.517,59.517 L-48.937,56.853 L-51.096,53.967 L-52.974,50.875 L-54.553,47.597 L-55.814,44.151 L-56.738,40.558 L-57.306,36.834 L-57.5,33 L-57.306,29.166 L-56.738,25.442 L-55.814,21.849 L-54.553,18.403 L-52.974,15.125 L-51.096,12.033 L-48.937,9.147 L-46.517,6.483 L-43.853,4.063 L-40.967,1.904 L-37.875,0.026 L-34.597,-1.553 L-31.151,-2.814 L-27.558,-3.738 L-23.834,-4.306 L-20,-4.5 L-16.166,-4.306 L-12.442,-3.738 L-8.849,-2.814 L-5.403,-1.553 L-2.125,0.026 L0.967,1.904 L3.853,4.063 L6.517,6.483 L8.937,9.147 L11.096,12.033 L12.974,15.125 L14.553,18.403 L15.814,21.849 L16.738,25.442 L17.306,29.166 L17.5,33 Z" fill="rgba(0,0,255,1)" stroke="rgba(0,0,255,1)" stroke-width="1"/>
<path d="M75,162.434 L81.699,137.434 L100,119.132 L118.301,137.434 L125,162.434 L100,169.132 L75,162.434 Z" fill="rgba(0,0,255,1)" stroke="rgba(255,255,255,1)" stroke-width="1"/>
</svg>