<svg xmlns="http://www.w3.org/2000/svg" viewBox="-255.53 -179.86 511.93 457.5">
<path d="M93.589,-129.055 L90.181,-121.03 L96.759,-115.309 L88.074,-116.071 L84.666,-108.046 L82.706,-116.541 L74.021,-117.303 L81.495,-121.792 L79.536,-130.287 L86.115,-124.566 Z" fill="rgba(173,189,202,0.2980392156862745)"/>
<path d="M-149.452,-81.794 L-142.568,-76.112 L-135.037,-80.904 L-138.313,-72.601 L-131.429,-66.919 L-140.338,-67.469 L-143.614,-59.166 L-145.844,-67.809 L-154.753,-68.359 L-147.222,-73.151 Z" fill="rgba(173,189,202,0.2980392156862745)"/>
<path d="M-191.466,-32.088 L-195.29,-23.794 L-188.583,-17.594 L-197.654,-18.667 L-201.478,-10.373 L-203.26,-19.331 L-212.33,-20.405 L-204.361,-24.868 L-206.142,-33.826 L-199.436,-27.626 Z" fill="rgba(173,189,202,0.2980392156862745)"/>
<path d="M-130.724,167.175 L-138.153,172.838 L-135.062,181.653 L-142.744,176.338 L-150.172,182.002 L-147.492,173.053 L-155.173,167.739 L-145.835,167.523 L-143.154,158.575 L-140.063,167.39 Z" fill="rgba(173,189,202,0.2980392156862745)"/>
<path d="M212.695,216.596 L204.687,221.798 L207.16,231.021 L199.738,225.013 L191.73,230.215 L195.151,221.3 L187.729,215.292 L197.265,215.79 L200.686,206.875 L203.159,216.098 Z" fill="rgba(173,189,202,0.2980392156862745)"/>
<path d="M33.15,-58.805 L27.152,-66.5 L17.98,-63.173 L23.445,-71.255 L17.447,-78.95 L26.822,-76.25 L32.287,-84.333 L32.617,-74.582 L41.992,-71.882 L32.821,-68.556 Z" fill="rgba(173,189,202,0.2980392156862745)"/>
<path d="M129.849,21.369 L139.813,21.451 L142.97,12 L145.971,21.502 L155.935,21.584 L147.826,27.374 L150.827,36.875 L142.814,30.952 L134.705,36.743 L137.862,27.292 Z" fill="rgba(173,189,202,0.2980392156862745)"/>
<path d="M-129.484,29.857 L-139.655,29.997 L-142.665,39.713 L-145.941,30.083 L-156.111,30.223 L-147.965,24.132 L-151.241,14.502 L-142.93,20.367 L-134.784,14.276 L-137.794,23.992 Z" fill="rgba(173,189,202,0.2980392156862745)"/>
<path d="M90.682,-36.251 L90.257,-25.881 L99.988,-22.272 L89.994,-19.472 L89.568,-9.101 L83.817,-17.741 L73.822,-14.941 L80.262,-23.081 L74.511,-31.721 L84.242,-28.111 Z" fill="rgba(173,189,202,0.2980392156862745)"/>
<path d="M-91.365,184.86 L-90.476,174.31 L-100.234,170.204 L-89.926,167.79 L-89.037,157.241 L-83.556,166.298 L-73.248,163.884 L-80.168,171.896 L-74.687,180.954 L-84.445,176.848 Z" fill="rgba(173,189,202,0.2980392156862745)"/>
<path d="M-79.462,87.763 L-86.808,79.854 L-96.6,84.396 L-91.348,74.966 L-98.694,67.057 L-88.102,69.138 L-82.85,59.707 L-81.556,70.424 L-70.964,72.505 L-80.756,77.047 Z" fill="rgba(173,189,202,0.2980392156862745)"/>
<path d="M-40.376,-110.516 L-34.349,-119.719 L-41.24,-128.296 L-30.623,-125.408 L-24.596,-134.612 L-24.062,-123.623 L-13.446,-120.734 L-23.733,-116.831 L-23.199,-105.842 L-30.09,-114.419 Z" fill="rgba(173,189,202,0.2980392156862745)"/>
<path d="M30.778,138.127 L25.825,128.071 L14.731,129.674 L22.764,121.856 L17.811,111.801 L27.729,117.025 L35.762,109.206 L33.858,120.253 L43.776,125.477 L32.682,127.08 Z" fill="rgba(173,189,202,0.2980392156862745)"/>
<path d="M-13.477,-67.06 L-24.888,-66.69 L-28.062,-55.723 L-31.94,-66.461 L-43.351,-66.09 L-34.337,-73.097 L-38.216,-83.835 L-28.766,-77.428 L-19.752,-84.435 L-22.926,-73.468 Z" fill="rgba(173,189,202,0.2980392156862745)"/>
<path d="M-139.7,89.971 L-145.403,79.842 L-156.799,82.135 L-148.928,73.581 L-154.631,63.452 L-144.063,68.294 L-136.192,59.74 L-137.532,71.287 L-126.964,76.13 L-138.36,78.424 Z" fill="rgba(173,189,202,0.2980392156862745)"/>
<path d="M189.546,183.916 L193.966,172.94 L184.893,165.345 L196.698,166.157 L201.118,155.181 L203.993,166.659 L215.797,167.471 L205.77,173.752 L208.646,185.23 L199.573,177.634 Z" fill="rgba(173,189,202,0.2980392156862745)"/>
<path d="M-126.298,122.228 L-137.599,126.381 L-137.141,138.412 L-144.583,128.947 L-155.884,133.1 L-149.182,123.098 L-156.624,113.633 L-145.04,116.916 L-138.338,106.914 L-137.881,118.945 Z" fill="rgba(173,189,202,0.2980392156862745)"/>
<path d="M135.548,156.238 L144.009,165.094 L155.045,159.783 L149.238,170.566 L157.699,179.421 L145.649,177.231 L139.842,188.014 L138.202,175.877 L126.152,173.686 L137.188,168.376 Z" fill="rgba(173,189,202,0.2980392156862745)"/>
<path d="M190.47,108.608 L200.254,116.314 L210.607,109.39 L206.301,121.077 L216.086,128.783 L203.64,128.3 L199.335,139.987 L195.948,128.001 L183.503,127.518 L193.856,120.593 Z" fill="rgba(173,189,202,0.2980392156862745)"/>
<path d="M159.604,-76.257 L149.116,-69.161 L152.624,-56.994 L142.634,-64.775 L132.147,-57.679 L136.461,-69.584 L126.471,-77.366 L139.127,-76.942 L143.44,-88.847 L146.948,-76.68 Z" fill="rgba(173,189,202,0.2980392156862745)"/>
<path d="M96.352,-85.593 L92.182,-73.417 L102.473,-65.688 L89.604,-65.892 L85.434,-53.717 L81.651,-66.018 L68.782,-66.222 L79.313,-73.621 L75.53,-85.923 L85.821,-78.194 Z" fill="rgba(173,189,202,0.2980392156862745)"/>
<path d="M71.758,85.653 L78.849,74.665 L70.59,64.525 L83.232,67.874 L90.323,56.886 L91.045,69.944 L103.687,73.292 L91.491,78.014 L92.213,91.072 L83.954,80.932 Z" fill="rgba(173,189,202,0.2980392156862745)"/>
<path d="M202.382,7.584 L204.807,20.647 L217.979,22.377 L206.305,28.72 L208.729,41.782 L199.09,32.639 L187.416,38.981 L193.133,26.989 L183.494,17.846 L196.666,19.577 Z" fill="rgba(173,189,202,0.2980392156862745)"/>
<path d="M200.229,55.716 L204.24,68.599 L217.732,68.765 L206.719,76.561 L210.73,89.444 L199.912,81.379 L188.899,89.174 L193.227,76.394 L182.41,68.329 L195.902,68.496 Z" fill="rgba(173,189,202,0.2980392156862745)"/>
<path d="M93.862,202.994 L92.05,216.574 L104.406,222.494 L90.93,224.967 L89.118,238.547 L82.602,226.496 L69.127,228.969 L78.575,219.047 L72.059,206.996 L84.414,212.916 Z" fill="rgba(173,189,202,0.2980392156862745)"/>
<path d="M38.341,9.252 L35.286,22.821 L47.247,29.919 L33.398,31.207 L30.343,44.775 L24.84,32.002 L10.991,33.29 L21.438,24.108 L15.934,11.335 L27.895,18.434 Z" fill="rgba(173,189,202,0.2980392156862745)"/>
<path d="M-183.575,181.805 L-197.254,178.323 L-204.793,190.257 L-205.708,176.171 L-219.388,172.688 L-206.274,167.465 L-207.189,153.379 L-198.169,164.237 L-185.055,159.014 L-192.595,170.948 Z" fill="rgba(173,189,202,0.2980392156862745)"/>
<path d="M-79.93,238.847 L-88.158,227.123 L-101.851,231.325 L-93.243,219.877 L-101.472,208.153 L-87.924,212.801 L-79.316,201.353 L-79.551,215.674 L-66.003,220.323 L-79.695,224.525 Z" fill="rgba(173,189,202,0.2980392156862745)"/>
<path d="M-204.933,200.618 L-197.173,212.903 L-183.091,209.319 L-192.377,220.496 L-184.617,232.781 L-198.116,227.403 L-207.402,238.58 L-206.459,224.08 L-219.958,218.702 L-205.876,215.118 Z" fill="rgba(173,189,202,0.2980392156862745)"/>
<path d="M-48.852,73.817 L-34.733,69.588 L-34.393,54.853 L-26.007,66.974 L-11.889,62.744 L-20.825,74.465 L-12.44,86.585 L-26.348,81.708 L-35.284,93.429 L-34.944,78.694 Z" fill="rgba(173,189,202,0.2980392156862745)"/>
<path d="M-209.28,141.216 L-206.99,126.447 L-220.328,119.704 L-205.574,117.319 L-203.283,102.549 L-196.455,115.845 L-181.701,113.459 L-192.235,124.061 L-185.407,137.357 L-198.746,130.614 Z" fill="rgba(173,189,202,0.2980392156862745)"/>
<path d="M-102.55,13.403 L-88.153,18.13 L-79.208,5.898 L-79.255,21.052 L-64.857,25.779 L-79.284,30.417 L-79.331,45.57 L-88.2,33.283 L-102.626,37.921 L-93.681,25.69 Z" fill="rgba(173,189,202,0.2980392156862745)"/>
<path d="M-84.866,101.731 L-80.709,116.519 L-65.36,117.135 L-78.14,125.659 L-73.983,140.447 L-86.038,130.926 L-98.818,139.45 L-93.489,125.043 L-105.544,115.522 L-90.195,116.139 Z" fill="rgba(173,189,202,0.2980392156862745)"/>
<path d="M71.753,9.458 L85.05,17.556 L96.861,7.413 L93.268,22.561 L106.564,30.66 L91.047,31.924 L87.454,47.072 L81.457,32.705 L65.939,33.969 L77.75,23.825 Z" fill="rgba(173,189,202,0.2980392156862745)"/>
<path d="M82.387,149.971 L89.504,164.051 L105.094,161.633 L93.902,172.753 L101.019,186.832 L86.985,179.625 L75.794,190.744 L78.312,175.17 L64.278,167.962 L79.868,165.545 Z" fill="rgba(173,189,202,0.2980392156862745)"/>
<path d="M155.756,140.679 L142.842,131.26 L129.893,140.632 L134.86,125.439 L121.946,116.021 L137.93,116.05 L142.897,100.857 L147.809,116.068 L163.793,116.097 L150.844,125.468 Z" fill="rgba(173,189,202,0.2980392156862745)"/>
<path d="M155.964,238.024 L142.861,228.512 L129.766,238.035 L134.763,222.634 L121.659,213.122 L137.851,213.115 L142.848,197.714 L147.858,213.111 L164.049,213.104 L150.954,222.627 Z" fill="rgba(173,189,202,0.2980392156862745)"/>
<path d="M-46.697,-36.308 L-31.153,-31.083 L-21.38,-44.252 L-21.546,-27.854 L-6.001,-22.629 L-21.648,-17.719 L-21.814,-1.321 L-31.318,-14.685 L-46.965,-9.775 L-37.193,-22.944 Z" fill="rgba(173,189,202,0.2980392156862745)"/>
<path d="M138.119,96.646 L136.373,80.132 L120.127,76.689 L135.294,69.925 L133.548,53.41 L144.667,65.745 L159.834,58.981 L151.539,73.368 L162.659,85.702 L146.413,82.259 Z" fill="rgba(173,189,202,0.2980392156862745)"/>
<path d="M-165.603,-27.127 L-148.927,-29.283 L-145.825,-45.809 L-138.621,-30.616 L-121.946,-32.772 L-134.169,-21.226 L-126.965,-6.033 L-141.723,-14.09 L-153.947,-2.544 L-150.845,-19.07 Z" fill="rgba(173,189,202,0.2980392156862745)"/>
<path d="M-208.432,3.856 L-197.698,17.067 L-181.817,10.94 L-191.064,25.231 L-180.33,38.442 L-196.779,34.064 L-206.027,48.354 L-206.945,31.357 L-223.394,26.979 L-207.513,20.853 Z" fill="rgba(173,189,202,0.2980392156862745)"/>
<path d="M67.619,138.184 L76.681,123.531 L65.545,110.384 L82.282,114.474 L91.345,99.821 L92.626,117.003 L109.363,121.093 L93.418,127.622 L94.7,144.803 L83.564,131.656 Z" fill="rgba(173,189,202,0.2980392156862745)"/>
<path d="M203.59,-46.587 L206.437,-29.384 L223.678,-26.776 L208.197,-18.752 L211.044,-1.549 L198.629,-13.793 L183.147,-5.769 L190.956,-21.36 L178.541,-33.605 L195.782,-30.996 Z" fill="rgba(173,189,202,0.2980392156862745)"/>
<path d="M13.544,-139.078 L28.211,-129.269 L42.072,-140.188 L37.276,-123.207 L51.943,-113.399 L34.312,-112.713 L29.516,-95.733 L23.415,-112.289 L5.784,-111.603 L19.644,-122.521 Z" fill="rgba(173,189,202,0.2980392156862745)"/>
<path d="M-4.012,26.483 L-21.155,31.466 L-21.713,49.309 L-31.749,34.545 L-48.892,39.528 L-37.952,25.421 L-47.989,10.657 L-31.191,16.702 L-20.251,2.594 L-20.81,20.438 Z" fill="rgba(173,189,202,0.2980392156862745)"/>
<path d="M-67.257,-6.207 L-83.749,-13.568 L-95.846,-0.158 L-93.941,-18.118 L-110.433,-25.479 L-92.764,-29.217 L-90.86,-47.176 L-81.844,-31.527 L-64.176,-35.266 L-76.273,-21.856 Z" fill="rgba(173,189,202,0.2980392156862745)"/>
<path d="M225.009,-74.022 L208.31,-66.615 L210.195,-48.445 L197.99,-62.037 L181.292,-54.631 L190.448,-70.438 L178.243,-84.03 L196.106,-80.207 L205.262,-96.015 L207.146,-77.845 Z" fill="rgba(173,189,202,0.2980392156862745)"/>
<path d="M-184.079,-51.601 L-199.532,-61.727 L-213.937,-50.159 L-209.082,-67.985 L-224.535,-78.111 L-206.081,-79.002 L-201.226,-96.828 L-194.677,-79.553 L-176.223,-80.444 L-190.629,-68.876 Z" fill="rgba(173,189,202,0.2980392156862745)"/>
<path d="M-185.969,-98.451 L-200.502,-110.191 L-216.159,-99.997 L-209.484,-117.447 L-224.017,-129.187 L-205.359,-128.231 L-198.685,-145.681 L-193.828,-127.64 L-175.17,-126.685 L-190.826,-116.491 Z" fill="rgba(173,189,202,0.2980392156862745)"/>
<path d="M-109.231,-60.341 L-95.471,-73.282 L-103.527,-90.368 L-86.966,-81.28 L-73.206,-94.222 L-76.732,-75.664 L-60.171,-66.576 L-78.911,-64.194 L-82.436,-45.636 L-90.492,-62.722 Z" fill="rgba(173,189,202,0.2980392156862745)"/>
<path d="M214.269,-97.925 L199.453,-109.975 L183.415,-99.607 L190.296,-117.422 L175.48,-129.472 L194.55,-128.432 L201.431,-146.247 L206.335,-127.789 L225.404,-126.749 L209.366,-116.382 Z" fill="rgba(173,189,202,0.2980392156862745)"/>
<path d="M51.728,61.254 L38.653,75.458 L48.121,92.281 L30.572,84.236 L17.498,98.44 L19.727,79.263 L2.178,71.218 L21.104,67.412 L23.333,48.236 L32.801,65.06 Z" fill="rgba(173,189,202,0.2980392156862745)"/>
<path d="M25.009,-49.477 L33.447,-31.883 L52.788,-34.471 L38.662,-21.009 L47.1,-3.415 L29.932,-12.689 L15.807,0.773 L19.322,-18.421 L2.154,-27.695 L21.494,-30.283 Z" fill="rgba(173,189,202,0.2980392156862745)"/>
<path d="M-188.506,98.875 L-201.969,84.465 L-219.833,92.816 L-210.289,75.559 L-223.752,61.149 L-204.39,64.894 L-194.846,47.637 L-192.424,67.208 L-173.063,70.952 L-190.927,79.303 Z" fill="rgba(173,189,202,0.2980392156862745)"/>
<path d="M-13.613,194.419 L-29.111,181.891 L-45.815,192.759 L-38.689,174.149 L-54.187,161.621 L-34.285,162.647 L-27.159,144.036 L-21.985,163.281 L-2.084,164.307 L-18.787,175.175 Z" fill="rgba(173,189,202,0.2980392156862745)"/>
<path d="M1.787,164.31 L21.893,163.215 L27.065,143.755 L34.319,162.539 L54.425,161.444 L38.802,174.148 L46.056,192.931 L29.147,181.999 L13.524,194.702 L18.696,175.242 Z" fill="rgba(173,189,202,0.2980392156862745)"/>
<path d="M-14.574,244.25 L-29.691,230.636 L-47.31,240.806 L-39.033,222.222 L-54.149,208.608 L-33.918,210.737 L-25.641,192.154 L-21.414,212.053 L-1.183,214.182 L-18.802,224.351 Z" fill="rgba(173,189,202,0.2980392156862745)"/>
<path d="M136.04,4.595 L134.587,-15.905 L114.642,-20.858 L133.689,-28.574 L132.237,-49.073 L145.461,-33.343 L164.508,-41.059 L153.634,-23.621 L166.859,-7.89 L146.914,-12.843 Z" fill="rgba(173,189,202,0.2980392156862745)"/>
<path d="M-120.702,238.041 L-140.062,230.549 L-153.169,246.646 L-152.026,225.919 L-171.385,218.426 L-151.319,213.109 L-150.176,192.382 L-138.918,209.822 L-118.852,204.505 L-131.96,220.601 Z" fill="rgba(173,189,202,0.2980392156862745)"/>
<path d="M167.71,-105.334 L147.244,-109.888 L136.589,-91.832 L134.596,-112.703 L114.131,-117.257 L133.364,-125.602 L131.371,-146.473 L145.251,-130.759 L164.485,-139.104 L153.83,-121.048 Z" fill="rgba(173,189,202,0.2980392156862745)"/>
<path d="M-45.358,99.035 L-28.41,111.727 L-11.102,99.531 L-17.936,119.571 L-0.988,132.263 L-22.16,131.957 L-28.993,151.997 L-35.244,131.767 L-56.415,131.461 L-39.107,119.264 Z" fill="rgba(173,189,202,0.2980392156862745)"/>
<path d="M-116.874,-106.182 L-137.93,-109.897 L-147.97,-91.019 L-150.944,-112.192 L-172,-115.907 L-152.782,-125.278 L-155.756,-146.451 L-140.904,-131.07 L-121.686,-140.441 L-131.726,-121.563 Z" fill="rgba(173,189,202,0.2980392156862745)"/>
<path d="M-63.034,-100.803 L-83.016,-108.976 L-96.964,-92.497 L-95.365,-114.027 L-115.347,-122.2 L-94.377,-127.333 L-92.779,-148.862 L-81.417,-130.505 L-60.448,-135.638 L-74.396,-119.16 Z" fill="rgba(173,189,202,0.2980392156862745)"/>
<path d="M55.394,206.563 L39.877,221.87 L49.639,241.358 L30.287,231.33 L14.77,246.637 L18.326,225.132 L-1.026,215.105 L20.524,211.842 L24.081,190.338 L33.843,209.826 Z" fill="rgba(173,189,202,0.2980392156862745)"/>
<path d="M86.214,-110.514 L86.214,-43.972 L90.214,-45.972 L85.714,-35.972 L81.214,-45.972 L85.214,-43.972 L85.214,-110.514 Z" fill="rgba(0,53,255,0.6549019607843137)"/>
<path d="M74.626,-15.196 L-125.004,112.068 L-121.167,114.366 L-132.018,115.947 L-126.005,106.777 L-125.541,111.225 L74.089,-16.039 Z" fill="rgba(0,53,255,0.6549019607843137)"/>
<path d="M-135.777,125.323 L64.424,210.409 L64.148,205.945 L71.591,213.998 L60.628,214.228 L64.033,211.329 L-136.168,126.243 Z" fill="rgba(0,53,255,0.6549019607843137)"/>
<path d="M75.917,215.023 L-65.708,134.769 L-65.94,139.235 L-72.421,130.39 L-61.503,131.405 L-65.215,133.899 L76.41,214.153 Z" fill="rgba(0,53,255,0.6549019607843137)"/>
<path d="M-89.765,113.898 L-134.146,0.726 L-137.139,4.049 L-136.601,-6.904 L-128.761,0.763 L-133.215,0.361 L-88.834,113.533 Z" fill="rgba(0,53,255,0.6549019607843137)"/>
<path d="M-150.544,-28.735 L-177.257,-51.441 L-178.323,-47.097 L-183.028,-57.003 L-172.495,-53.955 L-176.609,-52.202 L-149.897,-29.497 Z" fill="rgba(0,53,255,0.6549019607843137)"/>
<path d="M-185.563,-56.819 L11.662,152.732 L13.204,148.534 L16.78,158.901 L6.65,154.703 L10.933,153.418 L-186.291,-56.133 Z" fill="rgba(0,53,255,0.6549019607843137)"/>
<path d="M29.071,182.467 L29.071,185.302 L33.071,183.302 L28.571,193.302 L24.071,183.302 L28.071,185.302 L28.071,182.467 Z" fill="rgba(0,53,255,0.6549019607843137)"/>
<path d="M93.589,-129.055 L90.181,-121.03 L96.759,-115.309 L88.074,-116.071 L84.666,-108.046 L82.706,-116.541 L74.021,-117.303 L81.495,-121.792 L79.536,-130.287 L86.115,-124.566 Z" fill="rgba(255,181,0,1)" stroke="rgba(0,0,0,1)" stroke-width="1"/>
<path d="M90.682,-36.251 L90.257,-25.881 L99.988,-22.272 L89.994,-19.472 L89.568,-9.101 L83.817,-17.741 L73.822,-14.941 L80.262,-23.081 L74.511,-31.721 L84.242,-28.111 Z" fill="rgba(255,181,0,1)" stroke="rgba(0,0,0,1)" stroke-width="1"/>
<path d="M-126.298,122.228 L-137.599,126.381 L-137.141,138.412 L-144.583,128.947 L-155.884,133.1 L-149.182,123.098 L-156.624,113.633 L-145.04,116.916 L-138.338,106.914 L-137.881,118.945 Z" fill="rgba(255,181,0,1)" stroke="rgba(0,0,0,1)" stroke-width="1"/>
<path d="M93.862,202.994 L92.05,216.574 L104.406,222.494 L90.93,224.967 L89.118,238.547 L82.602,226.496 L69.127,228.969 L78.575,219.047 L72.059,206.996 L84.414,212.916 Z" fill="rgba(255,181,0,1)" stroke="rgba(0,0,0,1)" stroke-width="1"/>
<path d="M-84.866,101.731 L-80.709,116.519 L-65.36,117.135 L-78.14,125.659 L-73.983,140.447 L-86.038,130.926 L-98.818,139.45 L-93.489,125.043 L-105.544,115.522 L-90.195,116.139 Z" fill="rgba(255,181,0,1)" stroke="rgba(0,0,0,1)" stroke-width="1"/>
<path d="M-165.603,-27.127 L-148.927,-29.283 L-145.825,-45.809 L-138.621,-30.616 L-121.946,-32.772 L-134.169,-21.226 L-126.965,-6.033 L-141.723,-14.09 L-153.947,-2.544 L-150.845,-19.07 Z" fill="rgba(255,181,0,1)" stroke="rgba(0,0,0,1)" stroke-width="1"/>
<path d="M-184.079,-51.601 L-199.532,-61.727 L-213.937,-50.159 L-209.082,-67.985 L-224.535,-78.111 L-206.081,-79.002 L-201.226,-96.828 L-194.677,-79.553 L-176.223,-80.444 L-190.629,-68.876 Z" fill="rgba(255,181,0,1)" stroke="rgba(0,0,0,1)" stroke-width="1"/>
<path d="M1.787,164.31 L21.893,163.215 L27.065,143.755 L34.319,162.539 L54.425,161.444 L38.802,174.148 L46.056,192.931 L29.147,181.999 L13.524,194.702 L18.696,175.242 Z" fill="rgba(255,181,0,1)" stroke="rgba(0,0,0,1)" stroke-width="1"/>
<path d="M55.394,206.563 L39.877,221.87 L49.639,241.358 L30.287,231.33 L14.77,246.637 L18.326,225.132 L-1.026,215.105 L20.524,211.842 L24.081,190.338 L33.843,209.826 Z" fill="rgba(255,181,0,1)" stroke="rgba(0,0,0,1)" stroke-width="1"/>
<text x="-1.6680000000000001" y="0" text-anchor="start" font-family="Verdana-Bold, Helvetica, Arial, sans-serif" font-size="6" fill="rgba(0,108,183,1)" transform="matrix(1 0 0 1 85.7142857142857 -118.41)">1</text>
<text x="-1.9484871395381913" y="0" text-anchor="start" font-family="Verdana-Bold, Helvetica, Arial, sans-serif" font-size="7.008946545101407" fill="rgba(0,108,183,1)" transform="matrix(1 0 0 1 85.71428571428575 -20.99977202269102)">2</text>
<text x="-2.1969155750829192" y="0" text-anchor="start" font-family="Verdana-Bold, Helvetica, Arial, sans-serif" font-size="7.902574011089636" fill="rgba(0,108,183,1)" transform="matrix(1 0 0 1 -142.8571428571429 124.95132497008159)">3</text>
<text x="-2.428632150301618" y="0" text-anchor="start" font-family="Verdana-Bold, Helvetica, Arial, sans-serif" font-size="8.736086871588554" fill="rgba(0,108,183,1)" transform="matrix(1 0 0 1 85.7142857142858 222.31506302097097)">4</text>
<text x="-2.6093135014983435" y="0" text-anchor="start" font-family="Verdana-Bold, Helvetica, Arial, sans-serif" font-size="9.386019789562386" fill="rgba(0,108,183,1)" transform="matrix(1 0 0 1 -85.7142857142857 125.34443810137685)">5</text>
<text x="-2.8692550772263994" y="0" text-anchor="start" font-family="Verdana-Bold, Helvetica, Arial, sans-serif" font-size="10.32106142887194" fill="rgba(0,108,183,1)" transform="matrix(1 0 0 1 -142.85714285714286 -20.122061578491795)">6</text>
<text x="-3.0637202934925116" y="0" text-anchor="start" font-family="Verdana-Bold, Helvetica, Arial, sans-serif" font-size="11.020576595296804" fill="rgba(0,108,183,1)" transform="matrix(1 0 0 1 -199.99999999999997 -68.50811863081783)">7</text>
<text x="-3.3082162305521132" y="0" text-anchor="start" font-family="Verdana-Bold, Helvetica, Arial, sans-serif" font-size="11.900058383280982" fill="rgba(0,108,183,1)" transform="matrix(1 0 0 1 28.571428571428584 174.5820869001409)">8</text>
<text x="-3.6140000000000003" y="0" text-anchor="start" font-family="Verdana-Bold, Helvetica, Arial, sans-serif" font-size="13" fill="rgba(0,108,183,1)" transform="matrix(1 0 0 1 28.571428571428566 223.44500000000002)">9</text>
</svg>