<svg xmlns="http://www.w3.org/2000/svg" viewBox="-227.2 -170.1 454.39 470.93">
<path d="M175,60 C175,156.65 96.65,235 0,235 C-96.65,235 -175,156.65 -175,60 C-175,-36.65 -96.65,-115 0,-115 C96.65,-115 175,-36.65 175,60 Z" fill="rgba(0,0,215,0.10196078431372549)" stroke="rgba(0,0,0,1)" stroke-width="2"/>
<text x="-8.55399999999999" y="-181" text-anchor="start" font-family="Verdana, Helvetica, Arial, sans-serif" font-size="28" fill="rgba(0,0,0,1)" transform="matrix(0.212020538188094 -0.977265210363303 0.977265210363303 0.212020538188094 0 60)">T</text>
<text x="-7.78399999999999" y="-181" text-anchor="start" font-family="Verdana, Helvetica, Arial, sans-serif" font-size="28" fill="rgba(0,0,0,1)" transform="matrix(0.32390980722502355 -0.946087964611879 0.946087964611879 0.32390980722502355 0 60)">e</text>
<text x="-6.999999999999989" y="-181" text-anchor="start" font-family="Verdana, Helvetica, Arial, sans-serif" font-size="28" fill="rgba(0,0,0,1)" transform="matrix(0.4234011663285286 -0.9059423007850123 0.9059423007850123 0.4234011663285286 0 60)">x</text>
<text x="-3.8919999999999892" y="-181" text-anchor="start" font-family="Verdana, Helvetica, Arial, sans-serif" font-size="28" fill="rgba(0,0,0,1)" transform="matrix(0.49886914625599393 -0.8666773187950725 0.8666773187950725 0.49886914625599393 0 60)">t</text>
<text x="-10.10799999999999" y="-181" text-anchor="start" font-family="Verdana, Helvetica, Arial, sans-serif" font-size="28" fill="rgba(0,0,0,1)" transform="matrix(0.6568090298231806 -0.7540569596142803 0.7540569596142803 0.6568090298231806 0 60)">C</text>
<text x="-7.78399999999999" y="-181" text-anchor="start" font-family="Verdana, Helvetica, Arial, sans-serif" font-size="28" fill="rgba(0,0,0,1)" transform="matrix(0.7457609590164216 -0.6662136234023643 0.6662136234023643 0.7457609590164216 0 60)">e</text>
<text x="-7.78399999999999" y="-181" text-anchor="start" font-family="Verdana, Helvetica, Arial, sans-serif" font-size="28" fill="rgba(0,0,0,1)" transform="matrix(0.8154426292854746 -0.5788379033408162 0.5788379033408162 0.8154426292854746 0 60)">n</text>
<text x="-3.8919999999999892" y="-181" text-anchor="start" font-family="Verdana, Helvetica, Arial, sans-serif" font-size="28" fill="rgba(0,0,0,1)" transform="matrix(0.8639545653995028 -0.5035697656982161 0.5035697656982161 0.8639545653995028 0 60)">t</text>
<text x="-7.78399999999999" y="-181" text-anchor="start" font-family="Verdana, Helvetica, Arial, sans-serif" font-size="28" fill="rgba(0,0,0,1)" transform="matrix(0.9055387086168688 -0.42426365292880514 0.42426365292880514 0.9055387086168688 0 60)">e</text>
<text x="-4.661999999999989" y="-181" text-anchor="start" font-family="Verdana, Helvetica, Arial, sans-serif" font-size="28" fill="rgba(0,0,0,1)" transform="matrix(0.9413553496399203 -0.3374168130136723 0.3374168130136723 0.9413553496399203 0 60)">r</text>
<text x="-7.78399999999999" y="-181" text-anchor="start" font-family="Verdana, Helvetica, Arial, sans-serif" font-size="28" fill="rgba(0,0,0,1)" transform="matrix(0.9688643363692674 -0.24759220042590005 0.24759220042590005 0.9688643363692674 0 60)">e</text>
<text x="-7.78399999999999" y="-181" text-anchor="start" font-family="Verdana, Helvetica, Arial, sans-serif" font-size="28" fill="rgba(0,0,0,1)" transform="matrix(0.9904411507051003 -0.1379359524922957 0.1379359524922957 0.9904411507051003 0 60)">d</text>
<text x="-9.33799999999999" y="-181" text-anchor="start" font-family="Verdana, Helvetica, Arial, sans-serif" font-size="28" fill="rgba(0,0,0,1)" transform="matrix(0.9972818064288883 0.07368173834766187 -0.07368173834766187 0.9972818064288883 0 60)">A</text>
<text x="-7.78399999999999" y="-181" text-anchor="start" font-family="Verdana, Helvetica, Arial, sans-serif" font-size="28" fill="rgba(0,0,0,1)" transform="matrix(0.9811549208613787 0.19322272451629924 -0.19322272451629924 0.9811549208613787 0 60)">b</text>
<text x="-7.78399999999999" y="-181" text-anchor="start" font-family="Verdana, Helvetica, Arial, sans-serif" font-size="28" fill="rgba(0,0,0,1)" transform="matrix(0.9534669646859096 0.30149750787135593 -0.30149750787135593 0.9534669646859096 0 60)">o</text>
<text x="-6.999999999999989" y="-181" text-anchor="start" font-family="Verdana, Helvetica, Arial, sans-serif" font-size="28" fill="rgba(0,0,0,1)" transform="matrix(0.9156798893989317 0.4019083728293804 -0.4019083728293804 0.9156798893989317 0 60)">v</text>
<text x="-7.78399999999999" y="-181" text-anchor="start" font-family="Verdana, Helvetica, Arial, sans-serif" font-size="28" fill="rgba(0,0,0,1)" transform="matrix(0.8673531509984579 0.49769319008104407 -0.49769319008104407 0.8673531509984579 0 60)">e</text>
<text x="-7.78399999999999" y="-181" text-anchor="start" font-family="Verdana, Helvetica, Arial, sans-serif" font-size="28" fill="rgba(0,0,0,1)" transform="matrix(0.7490410484012321 0.6625235903799827 -0.6625235903799827 0.7490410484012321 0 60)">a</text>
<text x="-10.10799999999999" y="-181" text-anchor="start" font-family="Verdana, Helvetica, Arial, sans-serif" font-size="28" fill="rgba(0,0,0,1)" transform="matrix(0.5892156644236678 0.807975804586855 -0.807975804586855 0.5892156644236678 0 60)">C</text>
<text x="-3.107999999999989" y="-181" text-anchor="start" font-family="Verdana, Helvetica, Arial, sans-serif" font-size="28" fill="rgba(0,0,0,1)" transform="matrix(0.507008529408444 0.8619410369086083 -0.8619410369086083 0.507008529408444 0 60)">i</text>
<text x="-4.661999999999989" y="-181" text-anchor="start" font-family="Verdana, Helvetica, Arial, sans-serif" font-size="28" fill="rgba(0,0,0,1)" transform="matrix(0.44793423388776993 0.8940665087740266 -0.8940665087740266 0.44793423388776993 0 60)">r</text>
<text x="-6.999999999999989" y="-181" text-anchor="start" font-family="Verdana, Helvetica, Arial, sans-serif" font-size="28" fill="rgba(0,0,0,1)" transform="matrix(0.3662318904865337 0.9305236173201944 -0.9305236173201944 0.3662318904865337 0 60)">c</text>
<text x="-3.107999999999989" y="-181" text-anchor="start" font-family="Verdana, Helvetica, Arial, sans-serif" font-size="28" fill="rgba(0,0,0,1)" transform="matrix(0.29010751646579486 0.9569940589627757 -0.9569940589627757 0.29010751646579486 0 60)">l</text>
<text x="-7.78399999999999" y="-181" text-anchor="start" font-family="Verdana, Helvetica, Arial, sans-serif" font-size="28" fill="rgba(0,0,0,1)" transform="matrix(0.20771853278154306 0.9781886378092332 -0.9781886378092332 0.20771853278154306 0 60)">e</text>
<text x="-10.891999999999987" y="206.48" text-anchor="start" font-family="Verdana, Helvetica, Arial, sans-serif" font-size="28" fill="rgba(0,0,0,1)" transform="matrix(0.7115642691169277 0.7026210151398067 -0.7026210151398067 0.7115642691169277 0 60)">O</text>
<text x="-4.6619999999999875" y="206.48" text-anchor="start" font-family="Verdana, Helvetica, Arial, sans-serif" font-size="28" fill="rgba(0,0,0,1)" transform="matrix(0.7854724819349299 0.6188965827365516 -0.6188965827365516 0.7854724819349299 0 60)">r</text>
<text x="-9.337999999999989" y="206.48" text-anchor="start" font-family="Verdana, Helvetica, Arial, sans-serif" font-size="28" fill="rgba(0,0,0,1)" transform="matrix(0.8901821893997403 0.45560472964564896 -0.45560472964564896 0.8901821893997403 0 60)">B</text>
<text x="-7.783999999999988" y="206.48" text-anchor="start" font-family="Verdana, Helvetica, Arial, sans-serif" font-size="28" fill="rgba(0,0,0,1)" transform="matrix(0.9385628308724194 0.3451084068879664 -0.3451084068879664 0.9385628308724194 0 60)">e</text>
<text x="-3.1079999999999877" y="206.48" text-anchor="start" font-family="Verdana, Helvetica, Arial, sans-serif" font-size="28" fill="rgba(0,0,0,1)" transform="matrix(0.9644988763250918 0.26408695077120975 -0.26408695077120975 0.9644988763250918 0 60)">l</text>
<text x="-7.783999999999988" y="206.48" text-anchor="start" font-family="Verdana, Helvetica, Arial, sans-serif" font-size="28" fill="rgba(0,0,0,1)" transform="matrix(0.9834546941005483 0.18115425650974087 -0.18115425650974087 0.9834546941005483 0 60)">o</text>
<text x="-10.107999999999988" y="206.48" text-anchor="start" font-family="Verdana, Helvetica, Arial, sans-serif" font-size="28" fill="rgba(0,0,0,1)" transform="matrix(0.9983723568961035 0.057031894460200586 -0.057031894460200586 0.9983723568961035 0 60)">w</text>
<text x="-7.783999999999988" y="206.48" text-anchor="start" font-family="Verdana, Helvetica, Arial, sans-serif" font-size="28" fill="rgba(0,0,0,1)" transform="matrix(0.9873127175895942 -0.15878790157266492 0.15878790157266492 0.9873127175895942 0 60)">a</text>
<text x="-10.107999999999988" y="206.48" text-anchor="start" font-family="Verdana, Helvetica, Arial, sans-serif" font-size="28" fill="rgba(0,0,0,1)" transform="matrix(0.9301450807337965 -0.36719222321111217 0.36719222321111217 0.9301450807337965 0 60)">C</text>
<text x="-3.1079999999999877" y="206.48" text-anchor="start" font-family="Verdana, Helvetica, Arial, sans-serif" font-size="28" fill="rgba(0,0,0,1)" transform="matrix(0.8895826259579646 -0.4567742895498084 0.4567742895498084 0.8895826259579646 0 60)">i</text>
<text x="-4.6619999999999875" y="206.48" text-anchor="start" font-family="Verdana, Helvetica, Arial, sans-serif" font-size="28" fill="rgba(0,0,0,1)" transform="matrix(0.8568731830050608 -0.5155272526712585 0.5155272526712585 0.8568731830050608 0 60)">r</text>
<text x="-6.999999999999988" y="206.48" text-anchor="start" font-family="Verdana, Helvetica, Arial, sans-serif" font-size="28" fill="rgba(0,0,0,1)" transform="matrix(0.8073671595264071 -0.5900493790508223 0.5900493790508223 0.8073671595264071 0 60)">c</text>
<text x="-3.1079999999999877" y="206.48" text-anchor="start" font-family="Verdana, Helvetica, Arial, sans-serif" font-size="28" fill="rgba(0,0,0,1)" transform="matrix(0.7572284039397578 -0.6531501697671425 0.6531501697671425 0.7572284039397578 0 60)">l</text>
<text x="-7.783999999999988" y="206.48" text-anchor="start" font-family="Verdana, Helvetica, Arial, sans-serif" font-size="28" fill="rgba(0,0,0,1)" transform="matrix(0.6989741588726834 -0.7151469256231371 0.7151469256231371 0.6989741588726834 0 60)">e</text>
</svg>