<svg xmlns="http://www.w3.org/2000/svg" viewBox="-268.28 -86.85 536.56 333.7">
<path d="M-230.15,-53.703 L-230.15,-36.264 M-235.963,-53.703 L-224.338,-53.703" fill="rgba(0,0,0,0)" stroke="rgba(0,0,215,1)" stroke-width="2"/>
<path d="M-220.338,-53.703 L-220.338,-36.264 M-220.338,-44.568 L-217.846,-47.059 L-216.186,-47.89 L-213.694,-47.89 L-212.034,-47.059 L-211.203,-44.568 L-211.203,-36.264" fill="rgba(0,0,0,0)" stroke="rgba(0,0,215,1)" stroke-width="2"/>
<path d="M-208.203,-53.703 L-207.373,-52.872 L-206.542,-53.703 L-207.373,-54.533 L-208.203,-53.703 M-207.373,-47.89 L-207.373,-36.264" fill="rgba(0,0,0,0)" stroke="rgba(0,0,215,1)" stroke-width="2"/>
<path d="M-193.408,-45.399 L-194.238,-47.059 L-196.73,-47.89 L-199.221,-47.89 L-201.712,-47.059 L-202.542,-45.399 L-201.712,-43.738 L-200.051,-42.907 L-195.899,-42.077 L-194.238,-41.247 L-193.408,-39.586 L-193.408,-38.755 L-194.238,-37.095 L-196.73,-36.264 L-199.221,-36.264 L-201.712,-37.095 L-202.542,-38.755" fill="rgba(0,0,0,0)" stroke="rgba(0,0,215,1)" stroke-width="2"/>
<path d="M-183.408,-53.703 L-183.408,-36.264" fill="rgba(0,0,0,0)" stroke="rgba(0,0,215,1)" stroke-width="2"/>
<path d="M-169.443,-47.89 L-169.443,-36.264 M-169.443,-45.399 L-171.104,-47.059 L-172.765,-47.89 L-175.256,-47.89 L-176.917,-47.059 L-178.578,-45.399 L-179.408,-42.907 L-179.408,-41.247 L-178.578,-38.755 L-176.917,-37.095 L-175.256,-36.264 L-172.765,-36.264 L-171.104,-37.095 L-169.443,-38.755" fill="rgba(0,0,0,0)" stroke="rgba(0,0,215,1)" stroke-width="2"/>
<path d="M-165.443,-53.703 L-165.443,-36.264 M-165.443,-45.399 L-163.782,-47.059 L-162.122,-47.89 L-159.63,-47.89 L-157.97,-47.059 L-156.309,-45.399 L-155.478,-42.907 L-155.478,-41.247 L-156.309,-38.755 L-157.97,-37.095 L-159.63,-36.264 L-162.122,-36.264 L-163.782,-37.095 L-165.443,-38.755" fill="rgba(0,0,0,0)" stroke="rgba(0,0,215,1)" stroke-width="2"/>
<path d="M-151.478,-42.907 L-141.514,-42.907 L-141.514,-44.568 L-142.344,-46.229 L-143.174,-47.059 L-144.835,-47.89 L-147.326,-47.89 L-148.987,-47.059 L-150.648,-45.399 L-151.478,-42.907 L-151.478,-41.247 L-150.648,-38.755 L-148.987,-37.095 L-147.326,-36.264 L-144.835,-36.264 L-143.174,-37.095 L-141.514,-38.755" fill="rgba(0,0,0,0)" stroke="rgba(0,0,215,1)" stroke-width="2"/>
<path d="M-137.514,-53.703 L-137.514,-36.264" fill="rgba(0,0,0,0)" stroke="rgba(0,0,215,1)" stroke-width="2"/>
<path d="M-127.514,-47.89 L-127.514,-39.586 L-126.683,-37.095 L-125.022,-36.264 L-122.531,-36.264 L-120.87,-37.095 L-118.379,-39.586 M-118.379,-47.89 L-118.379,-36.264" fill="rgba(0,0,0,0)" stroke="rgba(0,0,215,1)" stroke-width="2"/>
<path d="M-105.245,-45.399 L-106.075,-47.059 L-108.566,-47.89 L-111.058,-47.89 L-113.549,-47.059 L-114.379,-45.399 L-113.549,-43.738 L-111.888,-42.907 L-107.736,-42.077 L-106.075,-41.247 L-105.245,-39.586 L-105.245,-38.755 L-106.075,-37.095 L-108.566,-36.264 L-111.058,-36.264 L-113.549,-37.095 L-114.379,-38.755" fill="rgba(0,0,0,0)" stroke="rgba(0,0,215,1)" stroke-width="2"/>
<path d="M-101.245,-42.907 L-91.28,-42.907 L-91.28,-44.568 L-92.11,-46.229 L-92.941,-47.059 L-94.602,-47.89 L-97.093,-47.89 L-98.754,-47.059 L-100.414,-45.399 L-101.245,-42.907 L-101.245,-41.247 L-100.414,-38.755 L-98.754,-37.095 L-97.093,-36.264 L-94.602,-36.264 L-92.941,-37.095 L-91.28,-38.755" fill="rgba(0,0,0,0)" stroke="rgba(0,0,215,1)" stroke-width="2"/>
<path d="M-78.146,-45.399 L-78.976,-47.059 L-81.467,-47.89 L-83.958,-47.89 L-86.45,-47.059 L-87.28,-45.399 L-86.45,-43.738 L-84.789,-42.907 L-80.637,-42.077 L-78.976,-41.247 L-78.146,-39.586 L-78.146,-38.755 L-78.976,-37.095 L-81.467,-36.264 L-83.958,-36.264 L-86.45,-37.095 L-87.28,-38.755" fill="rgba(0,0,0,0)" stroke="rgba(0,0,215,1)" stroke-width="2"/>
<path d="M-65.654,-53.703 L-65.654,-39.586 L-64.824,-37.095 L-63.163,-36.264 L-61.502,-36.264 M-68.146,-47.89 L-62.333,-47.89" fill="rgba(0,0,0,0)" stroke="rgba(0,0,215,1)" stroke-width="2"/>
<path d="M-57.502,-53.703 L-57.502,-36.264 M-57.502,-44.568 L-55.011,-47.059 L-53.35,-47.89 L-50.859,-47.89 L-49.198,-47.059 L-48.368,-44.568 L-48.368,-36.264" fill="rgba(0,0,0,0)" stroke="rgba(0,0,215,1)" stroke-width="2"/>
<path d="M-44.368,-42.907 L-34.403,-42.907 L-34.403,-44.568 L-35.234,-46.229 L-36.064,-47.059 L-37.725,-47.89 L-40.216,-47.89 L-41.877,-47.059 L-43.538,-45.399 L-44.368,-42.907 L-44.368,-41.247 L-43.538,-38.755 L-41.877,-37.095 L-40.216,-36.264 L-37.725,-36.264 L-36.064,-37.095 L-34.403,-38.755" fill="rgba(0,0,0,0)" stroke="rgba(0,0,215,1)" stroke-width="2"/>
<path d="M-24.403,-53.703 L-24.403,-36.264 M-12.778,-53.703 L-12.778,-36.264 M-24.403,-45.399 L-12.778,-45.399" fill="rgba(0,0,0,0)" stroke="rgba(0,0,215,1)" stroke-width="2"/>
<path d="M-8.778,-42.907 L1.187,-42.907 L1.187,-44.568 L0.357,-46.229 L-0.474,-47.059 L-2.134,-47.89 L-4.626,-47.89 L-6.286,-47.059 L-7.947,-45.399 L-8.778,-42.907 L-8.778,-41.247 L-7.947,-38.755 L-6.286,-37.095 L-4.626,-36.264 L-2.134,-36.264 L-0.474,-37.095 L1.187,-38.755" fill="rgba(0,0,0,0)" stroke="rgba(0,0,215,1)" stroke-width="2"/>
<path d="M5.187,-47.89 L5.187,-36.264 M5.187,-42.907 L6.018,-45.399 L7.678,-47.059 L9.339,-47.89 L11.83,-47.89" fill="rgba(0,0,0,0)" stroke="rgba(0,0,215,1)" stroke-width="2"/>
<path d="M21.965,-45.399 L21.134,-47.059 L18.643,-47.89 L16.152,-47.89 L13.661,-47.059 L12.83,-45.399 L13.661,-43.738 L15.322,-42.907 L19.474,-42.077 L21.134,-41.247 L21.965,-39.586 L21.965,-38.755 L21.134,-37.095 L18.643,-36.264 L16.152,-36.264 L13.661,-37.095 L12.83,-38.755" fill="rgba(0,0,0,0)" stroke="rgba(0,0,215,1)" stroke-width="2"/>
<path d="M25.965,-53.703 L25.965,-36.264 M25.965,-44.568 L28.456,-47.059 L30.117,-47.89 L32.608,-47.89 L34.269,-47.059 L35.099,-44.568 L35.099,-36.264" fill="rgba(0,0,0,0)" stroke="rgba(0,0,215,1)" stroke-width="2"/>
<path d="M39.099,-42.907 L49.064,-42.907 L49.064,-44.568 L48.234,-46.229 L47.403,-47.059 L45.742,-47.89 L43.251,-47.89 L41.59,-47.059 L39.93,-45.399 L39.099,-42.907 L39.099,-41.247 L39.93,-38.755 L41.59,-37.095 L43.251,-36.264 L45.742,-36.264 L47.403,-37.095 L49.064,-38.755" fill="rgba(0,0,0,0)" stroke="rgba(0,0,215,1)" stroke-width="2"/>
<path d="M51.894,-47.89 L56.877,-36.264 M61.859,-47.89 L56.877,-36.264 L55.216,-32.943 L53.555,-31.282 L51.894,-30.451 L51.064,-30.451" fill="rgba(0,0,0,0)" stroke="rgba(0,0,215,1)" stroke-width="2"/>
<path d="M78.502,-53.703 L76.842,-53.703 L75.181,-52.872 L74.35,-50.381 L74.35,-36.264 M71.859,-47.89 L77.672,-47.89" fill="rgba(0,0,0,0)" stroke="rgba(0,0,215,1)" stroke-width="2"/>
<path d="M81.654,-47.89 L79.994,-47.059 L78.333,-45.399 L77.502,-42.907 L77.502,-41.247 L78.333,-38.755 L79.994,-37.095 L81.654,-36.264 L84.146,-36.264 L85.806,-37.095 L87.467,-38.755 L88.298,-41.247 L88.298,-42.907 L87.467,-45.399 L85.806,-47.059 L84.146,-47.89 L81.654,-47.89" fill="rgba(0,0,0,0)" stroke="rgba(0,0,215,1)" stroke-width="2"/>
<path d="M92.298,-47.89 L92.298,-36.264 M92.298,-44.568 L94.789,-47.059 L96.45,-47.89 L98.941,-47.89 L100.602,-47.059 L101.432,-44.568 L101.432,-36.264" fill="rgba(0,0,0,0)" stroke="rgba(0,0,215,1)" stroke-width="2"/>
<path d="M105.923,-53.703 L105.923,-39.586 L106.754,-37.095 L108.414,-36.264 L110.075,-36.264 M103.432,-47.89 L109.245,-47.89" fill="rgba(0,0,0,0)" stroke="rgba(0,0,215,1)" stroke-width="2"/>
<path d="M126.718,-53.703 L125.058,-53.703 L123.397,-52.872 L122.566,-50.381 L122.566,-36.264 M120.075,-47.89 L125.888,-47.89" fill="rgba(0,0,0,0)" stroke="rgba(0,0,215,1)" stroke-width="2"/>
<path d="M129.87,-47.89 L128.21,-47.059 L126.549,-45.399 L125.718,-42.907 L125.718,-41.247 L126.549,-38.755 L128.21,-37.095 L129.87,-36.264 L132.362,-36.264 L134.022,-37.095 L135.683,-38.755 L136.514,-41.247 L136.514,-42.907 L135.683,-45.399 L134.022,-47.059 L132.362,-47.89 L129.87,-47.89" fill="rgba(0,0,0,0)" stroke="rgba(0,0,215,1)" stroke-width="2"/>
<path d="M140.514,-47.89 L140.514,-36.264 M140.514,-42.907 L141.344,-45.399 L143.005,-47.059 L144.666,-47.89 L147.157,-47.89" fill="rgba(0,0,0,0)" stroke="rgba(0,0,215,1)" stroke-width="2"/>
<path d="M157.157,-47.89 L157.157,-30.451 M157.157,-45.399 L158.818,-47.059 L160.478,-47.89 L162.97,-47.89 L164.63,-47.059 L166.291,-45.399 L167.122,-42.907 L167.122,-41.247 L166.291,-38.755 L164.63,-37.095 L162.97,-36.264 L160.478,-36.264 L158.818,-37.095 L157.157,-38.755" fill="rgba(0,0,0,0)" stroke="rgba(0,0,215,1)" stroke-width="2"/>
<path d="M171.122,-53.703 L171.122,-36.264" fill="rgba(0,0,0,0)" stroke="rgba(0,0,215,1)" stroke-width="2"/>
<path d="M179.274,-47.89 L177.613,-47.059 L175.952,-45.399 L175.122,-42.907 L175.122,-41.247 L175.952,-38.755 L177.613,-37.095 L179.274,-36.264 L181.765,-36.264 L183.426,-37.095 L185.086,-38.755 L185.917,-41.247 L185.917,-42.907 L185.086,-45.399 L183.426,-47.059 L181.765,-47.89 L179.274,-47.89" fill="rgba(0,0,0,0)" stroke="rgba(0,0,215,1)" stroke-width="2"/>
<path d="M190.408,-53.703 L190.408,-39.586 L191.238,-37.095 L192.899,-36.264 L194.56,-36.264 M187.917,-47.89 L193.73,-47.89" fill="rgba(0,0,0,0)" stroke="rgba(0,0,215,1)" stroke-width="2"/>
<path d="M201.051,-53.703 L201.051,-39.586 L201.882,-37.095 L203.542,-36.264 L205.203,-36.264 M198.56,-47.89 L204.373,-47.89" fill="rgba(0,0,0,0)" stroke="rgba(0,0,215,1)" stroke-width="2"/>
<path d="M208.203,-53.703 L209.034,-52.872 L209.864,-53.703 L209.034,-54.533 L208.203,-53.703 M209.034,-47.89 L209.034,-36.264" fill="rgba(0,0,0,0)" stroke="rgba(0,0,215,1)" stroke-width="2"/>
<path d="M212.864,-47.89 L212.864,-36.264 M212.864,-44.568 L215.355,-47.059 L217.016,-47.89 L219.507,-47.89 L221.168,-47.059 L221.998,-44.568 L221.998,-36.264" fill="rgba(0,0,0,0)" stroke="rgba(0,0,215,1)" stroke-width="2"/>
<path d="M235.963,-47.89 L235.963,-34.603 L235.133,-32.112 L234.302,-31.282 L232.642,-30.451 L230.15,-30.451 L228.49,-31.282 M235.963,-45.399 L234.302,-47.059 L232.642,-47.89 L230.15,-47.89 L228.49,-47.059 L226.829,-45.399 L225.998,-42.907 L225.998,-41.247 L226.829,-38.755 L228.49,-37.095 L230.15,-36.264 L232.642,-36.264 L234.302,-37.095 L235.963,-38.755" fill="rgba(0,0,0,0)" stroke="rgba(0,0,215,1)" stroke-width="2"/>
<path d="M-230.649,8.199 L-230.649,-7.827 M-235.963,-7.827 L-225.417,-7.827" fill="rgba(0,0,0,0)" stroke="rgba(0,0,215,1)" stroke-width="2"/>
<path d="M-221.417,-9.953 L-221.417,7.901 M-213.445,7.817 L-213.445,-2.147 C-213.445,-4.223 -214.442,-5.469 -216.269,-5.469 C-218.428,-5.469 -220.005,-3.808 -221.417,-2.147" fill="rgba(0,0,0,0)" stroke="rgba(0,0,215,1)" stroke-width="2"/>
<path d="M-209.445,8.316 L-209.445,-4.971 M-209.445,-7.877 L-209.445,-10.451" fill="rgba(0,0,0,0)" stroke="rgba(0,0,215,1)" stroke-width="2"/>
<path d="M-205.445,5.193 C-204.864,6.937 -203.203,8.017 -201.127,8.017 C-199.217,8.017 -197.141,7.02 -197.141,4.778 C-197.141,0.377 -204.947,1.872 -204.947,-2.28 C-204.947,-4.356 -202.954,-5.27 -201.21,-5.27 C-199.549,-5.27 -198.221,-4.439 -197.64,-3.028" fill="rgba(0,0,0,0)" stroke="rgba(0,0,215,1)" stroke-width="2"/>
<path d="M-184.318,7.734 C-184.484,7.817 -184.733,7.817 -185.065,7.817 C-186.394,7.817 -187.141,6.987 -187.141,5.243 L-187.141,-10.036" fill="rgba(0,0,0,0)" stroke="rgba(0,0,215,1)" stroke-width="2"/>
<path d="M-174.014,0.676 L-175.509,0.676 C-180.325,0.676 -182.318,1.922 -182.318,4.662 C-182.318,6.406 -181.238,8.067 -178.996,8.067 C-176.92,8.067 -175.343,6.738 -174.014,4.994 M-173.931,8.067 C-174.014,7.153 -174.014,5.741 -174.014,4.745 L-174.014,-0.985 C-174.014,-3.31 -174.927,-5.22 -177.751,-5.22 C-179.744,-5.22 -180.989,-4.306 -181.737,-2.479" fill="rgba(0,0,0,0)" stroke="rgba(0,0,215,1)" stroke-width="2"/>
<path d="M-169.931,-9.953 L-169.931,7.901 M-169.931,4.579 C-168.934,6.572 -167.357,7.817 -165.281,7.817 C-162.042,7.817 -160.713,4.662 -160.713,1.174 C-160.713,-2.812 -162.291,-5.386 -165.198,-5.386 C-166.941,-5.386 -168.519,-4.472 -169.848,-2.147" fill="rgba(0,0,0,0)" stroke="rgba(0,0,215,1)" stroke-width="2"/>
<path d="M-156.63,0.759 L-147.496,0.759 C-147.496,-1.898 -148.409,-5.22 -151.814,-5.22 C-154.804,-5.22 -156.713,-2.729 -156.713,1.506 C-156.713,5.326 -155.219,8.067 -151.731,8.067 C-149.489,8.067 -148.243,6.821 -147.662,5.409" fill="rgba(0,0,0,0)" stroke="rgba(0,0,215,1)" stroke-width="2"/>
<path d="M-140.673,7.734 C-140.839,7.817 -141.088,7.817 -141.42,7.817 C-142.749,7.817 -143.496,6.987 -143.496,5.243 L-143.496,-10.036" fill="rgba(0,0,0,0)" stroke="rgba(0,0,215,1)" stroke-width="2"/>
<path d="M-122.784,4.695 C-123.78,6.356 -125.441,8.017 -127.6,8.017 C-129.427,8.017 -130.673,6.771 -130.673,4.446 L-130.673,-5.27 M-122.784,-5.187 L-122.784,8.1" fill="rgba(0,0,0,0)" stroke="rgba(0,0,215,1)" stroke-width="2"/>
<path d="M-118.784,5.193 C-118.203,6.937 -116.542,8.017 -114.466,8.017 C-112.556,8.017 -110.48,7.02 -110.48,4.778 C-110.48,0.377 -118.286,1.872 -118.286,-2.28 C-118.286,-4.356 -116.293,-5.27 -114.549,-5.27 C-112.888,-5.27 -111.559,-4.439 -110.978,-3.028" fill="rgba(0,0,0,0)" stroke="rgba(0,0,215,1)" stroke-width="2"/>
<path d="M-106.397,0.759 L-97.262,0.759 C-97.262,-1.898 -98.176,-5.22 -101.58,-5.22 C-104.57,-5.22 -106.48,-2.729 -106.48,1.506 C-106.48,5.326 -104.985,8.067 -101.497,8.067 C-99.255,8.067 -98.01,6.821 -97.428,5.409" fill="rgba(0,0,0,0)" stroke="rgba(0,0,215,1)" stroke-width="2"/>
<path d="M-93.262,5.193 C-92.681,6.937 -91.02,8.017 -88.944,8.017 C-87.034,8.017 -84.958,7.02 -84.958,4.778 C-84.958,0.377 -92.764,1.872 -92.764,-2.28 C-92.764,-4.356 -90.771,-5.27 -89.027,-5.27 C-87.367,-5.27 -86.038,-4.439 -85.457,-3.028" fill="rgba(0,0,0,0)" stroke="rgba(0,0,215,1)" stroke-width="2"/>
<path d="M-68.315,7.435 C-68.73,7.851 -69.395,8.1 -70.225,8.1 C-71.72,8.1 -72.55,7.269 -72.55,5.276 L-72.55,-7.678 M-74.958,-3.941 L-68.647,-3.941" fill="rgba(0,0,0,0)" stroke="rgba(0,0,215,1)" stroke-width="2"/>
<path d="M-64.315,-9.953 L-64.315,7.901 M-56.343,7.817 L-56.343,-2.147 C-56.343,-4.223 -57.34,-5.469 -59.167,-5.469 C-61.326,-5.469 -62.904,-3.808 -64.315,-2.147" fill="rgba(0,0,0,0)" stroke="rgba(0,0,215,1)" stroke-width="2"/>
<path d="M-52.26,0.759 L-43.126,0.759 C-43.126,-1.898 -44.039,-5.22 -47.444,-5.22 C-50.433,-5.22 -52.343,-2.729 -52.343,1.506 C-52.343,5.326 -50.849,8.067 -47.361,8.067 C-45.119,8.067 -43.873,6.821 -43.292,5.409" fill="rgba(0,0,0,0)" stroke="rgba(0,0,215,1)" stroke-width="2"/>
<path d="M-33.043,8.199 L-33.043,-7.827 M-23.992,8.199 L-28.227,-0.021 M-33.043,-0.021 L-28.642,-0.021 C-26.317,-0.021 -24.324,-1.433 -24.324,-3.924 C-24.324,-6 -25.735,-7.827 -28.974,-7.827 L-33.126,-7.827" fill="rgba(0,0,0,0)" stroke="rgba(0,0,215,1)" stroke-width="2"/>
<path d="M-20.908,0.759 L-11.774,0.759 C-11.774,-1.898 -12.688,-5.22 -16.092,-5.22 C-19.082,-5.22 -20.992,-2.729 -20.992,1.506 C-20.992,5.326 -19.497,8.067 -16.009,8.067 C-13.767,8.067 -12.521,6.821 -11.94,5.409" fill="rgba(0,0,0,0)" stroke="rgba(0,0,215,1)" stroke-width="2"/>
<path d="M-4.951,7.734 C-5.117,7.817 -5.366,7.817 -5.698,7.817 C-7.027,7.817 -7.774,6.987 -7.774,5.243 L-7.774,-10.036" fill="rgba(0,0,0,0)" stroke="rgba(0,0,215,1)" stroke-width="2"/>
<path d="M-0.951,8.316 L-0.951,-4.971 M-0.951,-7.877 L-0.951,-10.451" fill="rgba(0,0,0,0)" stroke="rgba(0,0,215,1)" stroke-width="2"/>
<path d="M3.132,0.759 L12.267,0.759 C12.267,-1.898 11.353,-5.22 7.949,-5.22 C4.959,-5.22 3.049,-2.729 3.049,1.506 C3.049,5.326 4.544,8.067 8.032,8.067 C10.274,8.067 11.519,6.821 12.101,5.409" fill="rgba(0,0,0,0)" stroke="rgba(0,0,215,1)" stroke-width="2"/>
<path d="M17.675,7.817 L17.675,-6.964 C17.675,-8.791 18.588,-9.953 20.249,-9.953 C20.913,-9.953 21.495,-9.787 21.91,-9.455 M15.267,-4.14 L21.163,-4.14" fill="rgba(0,0,0,0)" stroke="rgba(0,0,215,1)" stroke-width="2"/>
<path d="M34.318,7.817 L34.318,-6.964 C34.318,-8.791 35.232,-9.953 36.892,-9.953 C37.557,-9.953 38.138,-9.787 38.553,-9.455 M31.91,-4.14 L37.806,-4.14" fill="rgba(0,0,0,0)" stroke="rgba(0,0,215,1)" stroke-width="2"/>
<path d="M45.452,-5.22 C41.55,-5.22 40.553,-1.151 40.553,1.506 C40.553,4.745 42.048,8.067 45.452,8.067 C48.857,8.067 50.352,4.745 50.352,1.506 C50.435,-1.151 49.438,-5.22 45.452,-5.22" fill="rgba(0,0,0,0)" stroke="rgba(0,0,215,1)" stroke-width="2"/>
<path d="M53.435,-5.22 L53.435,8.067 M61.407,8.067 L61.407,-1.898 C61.407,-3.974 60.41,-5.22 58.583,-5.22 C56.424,-5.22 54.847,-3.559 53.435,-1.898" fill="rgba(0,0,0,0)" stroke="rgba(0,0,215,1)" stroke-width="2"/>
<path d="M72.05,7.435 C71.635,7.851 70.97,8.1 70.14,8.1 C68.645,8.1 67.815,7.269 67.815,5.276 L67.815,-7.678 M65.407,-3.941 L71.718,-3.941" fill="rgba(0,0,0,0)" stroke="rgba(0,0,215,1)" stroke-width="2"/>
<path d="M84.458,7.817 L84.458,-6.964 C84.458,-8.791 85.372,-9.953 87.032,-9.953 C87.697,-9.953 88.278,-9.787 88.693,-9.455 M82.05,-4.14 L87.946,-4.14" fill="rgba(0,0,0,0)" stroke="rgba(0,0,215,1)" stroke-width="2"/>
<path d="M95.592,-5.22 C91.69,-5.22 90.693,-1.151 90.693,1.506 C90.693,4.745 92.188,8.067 95.592,8.067 C98.997,8.067 100.492,4.745 100.492,1.506 C100.575,-1.151 99.578,-5.22 95.592,-5.22" fill="rgba(0,0,0,0)" stroke="rgba(0,0,215,1)" stroke-width="2"/>
<path d="M103.575,-5.187 L103.575,8.1 M103.575,-1.865 C105.236,-3.858 106.813,-5.187 108.308,-5.187" fill="rgba(0,0,0,0)" stroke="rgba(0,0,215,1)" stroke-width="2"/>
<path d="M118.308,-4.971 L118.308,12.883 M118.308,4.994 C119.305,6.987 120.882,8.233 122.958,8.233 C126.197,8.233 127.526,5.077 127.526,1.589 C127.526,-2.396 125.948,-4.971 123.041,-4.971 C121.298,-4.971 119.72,-4.057 118.391,-1.732" fill="rgba(0,0,0,0)" stroke="rgba(0,0,215,1)" stroke-width="2"/>
<path d="M134.349,7.734 C134.183,7.817 133.934,7.817 133.602,7.817 C132.273,7.817 131.526,6.987 131.526,5.243 L131.526,-10.036" fill="rgba(0,0,0,0)" stroke="rgba(0,0,215,1)" stroke-width="2"/>
<path d="M140.248,-5.22 C136.345,-5.22 135.349,-1.151 135.349,1.506 C135.349,4.745 136.844,8.067 140.248,8.067 C143.653,8.067 145.148,4.745 145.148,1.506 C145.231,-1.151 144.234,-5.22 140.248,-5.22" fill="rgba(0,0,0,0)" stroke="rgba(0,0,215,1)" stroke-width="2"/>
<path d="M153.874,7.435 C153.459,7.851 152.794,8.1 151.964,8.1 C150.469,8.1 149.639,7.269 149.639,5.276 L149.639,-7.678 M147.231,-3.941 L153.542,-3.941" fill="rgba(0,0,0,0)" stroke="rgba(0,0,215,1)" stroke-width="2"/>
<path d="M163.517,7.435 C163.102,7.851 162.438,8.1 161.607,8.1 C160.112,8.1 159.282,7.269 159.282,5.276 L159.282,-7.678 M156.874,-3.941 L163.185,-3.941" fill="rgba(0,0,0,0)" stroke="rgba(0,0,215,1)" stroke-width="2"/>
<path d="M167.517,8.316 L167.517,-4.971 M167.517,-7.877 L167.517,-10.451" fill="rgba(0,0,0,0)" stroke="rgba(0,0,215,1)" stroke-width="2"/>
<path d="M171.517,-5.22 L171.517,8.067 M179.489,8.067 L179.489,-1.898 C179.489,-3.974 178.492,-5.22 176.666,-5.22 C174.507,-5.22 172.929,-3.559 171.517,-1.898" fill="rgba(0,0,0,0)" stroke="rgba(0,0,215,1)" stroke-width="2"/>
<path d="M192.706,-1.815 C191.378,-4.14 189.8,-5.054 188.056,-5.054 C185.15,-5.054 183.489,-2.479 183.489,1.34 C183.489,4.745 184.818,7.734 188.056,7.734 C190.049,7.734 191.627,6.572 192.706,4.662 M184.402,10.807 C185.233,12.136 186.561,12.8 188.388,12.8 C191.129,12.8 192.706,11.305 192.706,8.316 L192.706,-4.971" fill="rgba(0,0,0,0)" stroke="rgba(0,0,215,1)" stroke-width="2"/>
<path d="M-166.763,32.883 L-235.963,214.533 M-166.763,32.883 L-97.563,214.533 M-210.013,153.983 L-123.513,153.983" fill="rgba(0,0,0,0)" stroke="rgba(0,0,215,1)" stroke-width="2"/>
<path d="M-75.563,32.883 L-75.563,214.533 M-75.563,119.383 L-58.263,102.083 L-40.963,93.433 L-15.013,93.433 L2.287,102.083 L19.587,119.383 L28.237,145.333 L28.237,162.633 L19.587,188.583 L2.287,205.883 L-15.013,214.533 L-40.963,214.533 L-58.263,205.883 L-75.563,188.583" fill="rgba(0,0,0,0)" stroke="rgba(0,0,215,1)" stroke-width="2"/>
<path d="M154.037,119.383 L136.737,102.083 L119.437,93.433 L93.487,93.433 L76.187,102.083 L58.887,119.383 L50.237,145.333 L50.237,162.633 L58.887,188.583 L76.187,205.883 L93.487,214.533 L119.437,214.533 L136.737,205.883 L154.037,188.583" fill="rgba(0,0,0,0)" stroke="rgba(0,0,215,1)" stroke-width="2"/>
</svg>