<svg xmlns="http://www.w3.org/2000/svg" viewBox="-172 -123 344 344">
<path d="M150,49 C150,131.843 82.843,199 0,199 C-82.843,199 -150,131.843 -150,49 C-150,-33.843 -82.843,-101 0,-101 C82.843,-101 150,-33.843 150,49 Z" fill="rgba(0,0,0,1)"/>
<path d="M145,49 C145,49.828 144.328,50.5 143.5,50.5 C142.672,50.5 142,49.828 142,49 C142,48.172 142.672,47.5 143.5,47.5 C144.328,47.5 145,48.172 145,49 Z" fill="rgba(255,255,255,1)"/>
<path d="M144.209,64.001 C144.209,64.829 143.537,65.501 142.709,65.501 C141.881,65.501 141.209,64.829 141.209,64.001 C141.209,63.172 141.881,62.501 142.709,62.501 C143.537,62.501 144.209,63.172 144.209,64.001 Z" fill="rgba(255,255,255,1)"/>
<path d="M141.85,78.833 C141.85,79.662 141.178,80.333 140.35,80.333 C139.521,80.333 138.85,79.662 138.85,78.833 C138.85,78.005 139.521,77.333 140.35,77.333 C141.178,77.333 141.85,78.005 141.85,78.833 Z" fill="rgba(255,255,255,1)"/>
<path d="M137.941,93.331 C137.941,94.16 137.27,94.831 136.441,94.831 C135.613,94.831 134.941,94.16 134.941,93.331 C134.941,92.503 135.613,91.831 136.441,91.831 C137.27,91.831 137.941,92.503 137.941,93.331 Z" fill="rgba(255,255,255,1)"/>
<path d="M132.529,107.335 C132.529,108.163 131.858,108.835 131.029,108.835 C130.201,108.835 129.529,108.163 129.529,107.335 C129.529,106.506 130.201,105.835 131.029,105.835 C131.858,105.835 132.529,106.506 132.529,107.335 Z" fill="rgba(255,255,255,1)"/>
<path d="M125.681,120.691 C125.681,121.52 125.01,122.191 124.181,122.191 C123.353,122.191 122.681,121.52 122.681,120.691 C122.681,119.863 123.353,119.191 124.181,119.191 C125.01,119.191 125.681,119.863 125.681,120.691 Z" fill="rgba(255,255,255,1)"/>
<path d="M117.48,133.26 C117.48,134.089 116.809,134.76 115.98,134.76 C115.152,134.76 114.48,134.089 114.48,133.26 C114.48,132.432 115.152,131.76 115.98,131.76 C116.809,131.76 117.48,132.432 117.48,133.26 Z" fill="rgba(255,255,255,1)"/>
<path d="M108.022,144.911 C108.022,145.739 107.35,146.411 106.522,146.411 C105.694,146.411 105.022,145.739 105.022,144.911 C105.022,144.083 105.694,143.411 106.522,143.411 C107.35,143.411 108.022,144.083 108.022,144.911 Z" fill="rgba(255,255,255,1)"/>
<path d="M97.411,155.522 C97.411,156.35 96.739,157.022 95.911,157.022 C95.083,157.022 94.411,156.35 94.411,155.522 C94.411,154.694 95.083,154.022 95.911,154.022 C96.739,154.022 97.411,154.694 97.411,155.522 Z" fill="rgba(255,255,255,1)"/>
<path d="M85.76,164.98 C85.76,165.809 85.089,166.48 84.26,166.48 C83.432,166.48 82.76,165.809 82.76,164.98 C82.76,164.152 83.432,163.48 84.26,163.48 C85.089,163.48 85.76,164.152 85.76,164.98 Z" fill="rgba(255,255,255,1)"/>
<path d="M73.191,173.181 C73.191,174.01 72.52,174.681 71.691,174.681 C70.863,174.681 70.191,174.01 70.191,173.181 C70.191,172.353 70.863,171.681 71.691,171.681 C72.52,171.681 73.191,172.353 73.191,173.181 Z" fill="rgba(255,255,255,1)"/>
<path d="M59.835,180.029 C59.835,180.858 59.163,181.529 58.335,181.529 C57.506,181.529 56.835,180.858 56.835,180.029 C56.835,179.201 57.506,178.529 58.335,178.529 C59.163,178.529 59.835,179.201 59.835,180.029 Z" fill="rgba(255,255,255,1)"/>
<path d="M45.831,185.441 C45.831,186.27 45.16,186.941 44.331,186.941 C43.503,186.941 42.831,186.27 42.831,185.441 C42.831,184.613 43.503,183.941 44.331,183.941 C45.16,183.941 45.831,184.613 45.831,185.441 Z" fill="rgba(255,255,255,1)"/>
<path d="M31.333,189.35 C31.333,190.178 30.662,190.85 29.833,190.85 C29.005,190.85 28.333,190.178 28.333,189.35 C28.333,188.521 29.005,187.85 29.833,187.85 C30.662,187.85 31.333,188.521 31.333,189.35 Z" fill="rgba(255,255,255,1)"/>
<path d="M16.501,191.709 C16.501,192.537 15.829,193.209 15.001,193.209 C14.172,193.209 13.501,192.537 13.501,191.709 C13.501,190.881 14.172,190.209 15.001,190.209 C15.829,190.209 16.501,190.881 16.501,191.709 Z" fill="rgba(255,255,255,1)"/>
<path d="M1.5,192.5 C1.5,193.328 0.828,194 0,194 C-0.828,194 -1.5,193.328 -1.5,192.5 C-1.5,191.672 -0.828,191 0,191 C0.828,191 1.5,191.672 1.5,192.5 Z" fill="rgba(255,255,255,1)"/>
<path d="M-13.501,191.709 C-13.501,192.537 -14.172,193.209 -15.001,193.209 C-15.829,193.209 -16.501,192.537 -16.501,191.709 C-16.501,190.881 -15.829,190.209 -15.001,190.209 C-14.172,190.209 -13.501,190.881 -13.501,191.709 Z" fill="rgba(255,255,255,1)"/>
<path d="M-28.333,189.35 C-28.333,190.178 -29.005,190.85 -29.833,190.85 C-30.662,190.85 -31.333,190.178 -31.333,189.35 C-31.333,188.521 -30.662,187.85 -29.833,187.85 C-29.005,187.85 -28.333,188.521 -28.333,189.35 Z" fill="rgba(255,255,255,1)"/>
<path d="M-42.831,185.441 C-42.831,186.27 -43.503,186.941 -44.331,186.941 C-45.16,186.941 -45.831,186.27 -45.831,185.441 C-45.831,184.613 -45.16,183.941 -44.331,183.941 C-43.503,183.941 -42.831,184.613 -42.831,185.441 Z" fill="rgba(255,255,255,1)"/>
<path d="M-56.835,180.029 C-56.835,180.858 -57.506,181.529 -58.335,181.529 C-59.163,181.529 -59.835,180.858 -59.835,180.029 C-59.835,179.201 -59.163,178.529 -58.335,178.529 C-57.506,178.529 -56.835,179.201 -56.835,180.029 Z" fill="rgba(255,255,255,1)"/>
<path d="M-70.191,173.181 C-70.191,174.01 -70.863,174.681 -71.691,174.681 C-72.52,174.681 -73.191,174.01 -73.191,173.181 C-73.191,172.353 -72.52,171.681 -71.691,171.681 C-70.863,171.681 -70.191,172.353 -70.191,173.181 Z" fill="rgba(255,255,255,1)"/>
<path d="M-82.76,164.98 C-82.76,165.809 -83.432,166.48 -84.26,166.48 C-85.089,166.48 -85.76,165.809 -85.76,164.98 C-85.76,164.152 -85.089,163.48 -84.26,163.48 C-83.432,163.48 -82.76,164.152 -82.76,164.98 Z" fill="rgba(255,255,255,1)"/>
<path d="M-94.411,155.522 C-94.411,156.35 -95.083,157.022 -95.911,157.022 C-96.739,157.022 -97.411,156.35 -97.411,155.522 C-97.411,154.694 -96.739,154.022 -95.911,154.022 C-95.083,154.022 -94.411,154.694 -94.411,155.522 Z" fill="rgba(255,255,255,1)"/>
<path d="M-105.022,144.911 C-105.022,145.739 -105.694,146.411 -106.522,146.411 C-107.35,146.411 -108.022,145.739 -108.022,144.911 C-108.022,144.083 -107.35,143.411 -106.522,143.411 C-105.694,143.411 -105.022,144.083 -105.022,144.911 Z" fill="rgba(255,255,255,1)"/>
<path d="M-114.48,133.26 C-114.48,134.089 -115.152,134.76 -115.98,134.76 C-116.809,134.76 -117.48,134.089 -117.48,133.26 C-117.48,132.432 -116.809,131.76 -115.98,131.76 C-115.152,131.76 -114.48,132.432 -114.48,133.26 Z" fill="rgba(255,255,255,1)"/>
<path d="M-122.681,120.691 C-122.681,121.52 -123.353,122.191 -124.181,122.191 C-125.01,122.191 -125.681,121.52 -125.681,120.691 C-125.681,119.863 -125.01,119.191 -124.181,119.191 C-123.353,119.191 -122.681,119.863 -122.681,120.691 Z" fill="rgba(255,255,255,1)"/>
<path d="M-129.529,107.335 C-129.529,108.163 -130.201,108.835 -131.029,108.835 C-131.858,108.835 -132.529,108.163 -132.529,107.335 C-132.529,106.506 -131.858,105.835 -131.029,105.835 C-130.201,105.835 -129.529,106.506 -129.529,107.335 Z" fill="rgba(255,255,255,1)"/>
<path d="M-134.941,93.331 C-134.941,94.16 -135.613,94.831 -136.441,94.831 C-137.27,94.831 -137.941,94.16 -137.941,93.331 C-137.941,92.503 -137.27,91.831 -136.441,91.831 C-135.613,91.831 -134.941,92.503 -134.941,93.331 Z" fill="rgba(255,255,255,1)"/>
<path d="M-138.85,78.833 C-138.85,79.662 -139.521,80.333 -140.35,80.333 C-141.178,80.333 -141.85,79.662 -141.85,78.833 C-141.85,78.005 -141.178,77.333 -140.35,77.333 C-139.521,77.333 -138.85,78.005 -138.85,78.833 Z" fill="rgba(255,255,255,1)"/>
<path d="M-141.209,64.001 C-141.209,64.829 -141.881,65.501 -142.709,65.501 C-143.537,65.501 -144.209,64.829 -144.209,64.001 C-144.209,63.172 -143.537,62.501 -142.709,62.501 C-141.881,62.501 -141.209,63.172 -141.209,64.001 Z" fill="rgba(255,255,255,1)"/>
<path d="M-142,49 C-142,49.828 -142.672,50.5 -143.5,50.5 C-144.328,50.5 -145,49.828 -145,49 C-145,48.172 -144.328,47.5 -143.5,47.5 C-142.672,47.5 -142,48.172 -142,49 Z" fill="rgba(255,255,255,1)"/>
<path d="M-141.209,33.999 C-141.209,34.828 -141.881,35.499 -142.709,35.499 C-143.537,35.499 -144.209,34.828 -144.209,33.999 C-144.209,33.171 -143.537,32.499 -142.709,32.499 C-141.881,32.499 -141.209,33.171 -141.209,33.999 Z" fill="rgba(255,255,255,1)"/>
<path d="M-138.85,19.167 C-138.85,19.995 -139.521,20.667 -140.35,20.667 C-141.178,20.667 -141.85,19.995 -141.85,19.167 C-141.85,18.338 -141.178,17.667 -140.35,17.667 C-139.521,17.667 -138.85,18.338 -138.85,19.167 Z" fill="rgba(255,255,255,1)"/>
<path d="M-134.941,4.669 C-134.941,5.497 -135.613,6.169 -136.441,6.169 C-137.27,6.169 -137.941,5.497 -137.941,4.669 C-137.941,3.84 -137.27,3.169 -136.441,3.169 C-135.613,3.169 -134.941,3.84 -134.941,4.669 Z" fill="rgba(255,255,255,1)"/>
<path d="M-129.529,-9.335 C-129.529,-8.506 -130.201,-7.835 -131.029,-7.835 C-131.858,-7.835 -132.529,-8.506 -132.529,-9.335 C-132.529,-10.163 -131.858,-10.835 -131.029,-10.835 C-130.201,-10.835 -129.529,-10.163 -129.529,-9.335 Z" fill="rgba(255,255,255,1)"/>
<path d="M-122.681,-22.691 C-122.681,-21.863 -123.353,-21.191 -124.181,-21.191 C-125.01,-21.191 -125.681,-21.863 -125.681,-22.691 C-125.681,-23.52 -125.01,-24.191 -124.181,-24.191 C-123.353,-24.191 -122.681,-23.52 -122.681,-22.691 Z" fill="rgba(255,255,255,1)"/>
<path d="M-114.48,-35.26 C-114.48,-34.432 -115.152,-33.76 -115.98,-33.76 C-116.809,-33.76 -117.48,-34.432 -117.48,-35.26 C-117.48,-36.089 -116.809,-36.76 -115.98,-36.76 C-115.152,-36.76 -114.48,-36.089 -114.48,-35.26 Z" fill="rgba(255,255,255,1)"/>
<path d="M-105.022,-46.911 C-105.022,-46.083 -105.694,-45.411 -106.522,-45.411 C-107.35,-45.411 -108.022,-46.083 -108.022,-46.911 C-108.022,-47.739 -107.35,-48.411 -106.522,-48.411 C-105.694,-48.411 -105.022,-47.739 -105.022,-46.911 Z" fill="rgba(255,255,255,1)"/>
<path d="M-94.411,-57.522 C-94.411,-56.694 -95.083,-56.022 -95.911,-56.022 C-96.739,-56.022 -97.411,-56.694 -97.411,-57.522 C-97.411,-58.35 -96.739,-59.022 -95.911,-59.022 C-95.083,-59.022 -94.411,-58.35 -94.411,-57.522 Z" fill="rgba(255,255,255,1)"/>
<path d="M-82.76,-66.98 C-82.76,-66.152 -83.432,-65.48 -84.26,-65.48 C-85.089,-65.48 -85.76,-66.152 -85.76,-66.98 C-85.76,-67.809 -85.089,-68.48 -84.26,-68.48 C-83.432,-68.48 -82.76,-67.809 -82.76,-66.98 Z" fill="rgba(255,255,255,1)"/>
<path d="M-70.191,-75.181 C-70.191,-74.353 -70.863,-73.681 -71.691,-73.681 C-72.52,-73.681 -73.191,-74.353 -73.191,-75.181 C-73.191,-76.01 -72.52,-76.681 -71.691,-76.681 C-70.863,-76.681 -70.191,-76.01 -70.191,-75.181 Z" fill="rgba(255,255,255,1)"/>
<path d="M-56.835,-82.029 C-56.835,-81.201 -57.506,-80.529 -58.335,-80.529 C-59.163,-80.529 -59.835,-81.201 -59.835,-82.029 C-59.835,-82.858 -59.163,-83.529 -58.335,-83.529 C-57.506,-83.529 -56.835,-82.858 -56.835,-82.029 Z" fill="rgba(255,255,255,1)"/>
<path d="M-42.831,-87.441 C-42.831,-86.613 -43.503,-85.941 -44.331,-85.941 C-45.16,-85.941 -45.831,-86.613 -45.831,-87.441 C-45.831,-88.27 -45.16,-88.941 -44.331,-88.941 C-43.503,-88.941 -42.831,-88.27 -42.831,-87.441 Z" fill="rgba(255,255,255,1)"/>
<path d="M-28.333,-91.35 C-28.333,-90.521 -29.005,-89.85 -29.833,-89.85 C-30.662,-89.85 -31.333,-90.521 -31.333,-91.35 C-31.333,-92.178 -30.662,-92.85 -29.833,-92.85 C-29.005,-92.85 -28.333,-92.178 -28.333,-91.35 Z" fill="rgba(255,255,255,1)"/>
<path d="M-13.501,-93.709 C-13.501,-92.881 -14.172,-92.209 -15.001,-92.209 C-15.829,-92.209 -16.501,-92.881 -16.501,-93.709 C-16.501,-94.537 -15.829,-95.209 -15.001,-95.209 C-14.172,-95.209 -13.501,-94.537 -13.501,-93.709 Z" fill="rgba(255,255,255,1)"/>
<path d="M1.5,-94.5 C1.5,-93.672 0.828,-93 0,-93 C-0.828,-93 -1.5,-93.672 -1.5,-94.5 C-1.5,-95.328 -0.828,-96 0,-96 C0.828,-96 1.5,-95.328 1.5,-94.5 Z" fill="rgba(255,255,255,1)"/>
<path d="M16.501,-93.709 C16.501,-92.881 15.829,-92.209 15.001,-92.209 C14.172,-92.209 13.501,-92.881 13.501,-93.709 C13.501,-94.537 14.172,-95.209 15.001,-95.209 C15.829,-95.209 16.501,-94.537 16.501,-93.709 Z" fill="rgba(255,255,255,1)"/>
<path d="M31.333,-91.35 C31.333,-90.521 30.662,-89.85 29.833,-89.85 C29.005,-89.85 28.333,-90.521 28.333,-91.35 C28.333,-92.178 29.005,-92.85 29.833,-92.85 C30.662,-92.85 31.333,-92.178 31.333,-91.35 Z" fill="rgba(255,255,255,1)"/>
<path d="M45.831,-87.441 C45.831,-86.613 45.16,-85.941 44.331,-85.941 C43.503,-85.941 42.831,-86.613 42.831,-87.441 C42.831,-88.27 43.503,-88.941 44.331,-88.941 C45.16,-88.941 45.831,-88.27 45.831,-87.441 Z" fill="rgba(255,255,255,1)"/>
<path d="M59.835,-82.029 C59.835,-81.201 59.163,-80.529 58.335,-80.529 C57.506,-80.529 56.835,-81.201 56.835,-82.029 C56.835,-82.858 57.506,-83.529 58.335,-83.529 C59.163,-83.529 59.835,-82.858 59.835,-82.029 Z" fill="rgba(255,255,255,1)"/>
<path d="M73.191,-75.181 C73.191,-74.353 72.52,-73.681 71.691,-73.681 C70.863,-73.681 70.191,-74.353 70.191,-75.181 C70.191,-76.01 70.863,-76.681 71.691,-76.681 C72.52,-76.681 73.191,-76.01 73.191,-75.181 Z" fill="rgba(255,255,255,1)"/>
<path d="M85.76,-66.98 C85.76,-66.152 85.089,-65.48 84.26,-65.48 C83.432,-65.48 82.76,-66.152 82.76,-66.98 C82.76,-67.809 83.432,-68.48 84.26,-68.48 C85.089,-68.48 85.76,-67.809 85.76,-66.98 Z" fill="rgba(255,255,255,1)"/>
<path d="M97.411,-57.522 C97.411,-56.694 96.739,-56.022 95.911,-56.022 C95.083,-56.022 94.411,-56.694 94.411,-57.522 C94.411,-58.35 95.083,-59.022 95.911,-59.022 C96.739,-59.022 97.411,-58.35 97.411,-57.522 Z" fill="rgba(255,255,255,1)"/>
<path d="M108.022,-46.911 C108.022,-46.083 107.35,-45.411 106.522,-45.411 C105.694,-45.411 105.022,-46.083 105.022,-46.911 C105.022,-47.739 105.694,-48.411 106.522,-48.411 C107.35,-48.411 108.022,-47.739 108.022,-46.911 Z" fill="rgba(255,255,255,1)"/>
<path d="M117.48,-35.26 C117.48,-34.432 116.809,-33.76 115.98,-33.76 C115.152,-33.76 114.48,-34.432 114.48,-35.26 C114.48,-36.089 115.152,-36.76 115.98,-36.76 C116.809,-36.76 117.48,-36.089 117.48,-35.26 Z" fill="rgba(255,255,255,1)"/>
<path d="M125.681,-22.691 C125.681,-21.863 125.01,-21.191 124.181,-21.191 C123.353,-21.191 122.681,-21.863 122.681,-22.691 C122.681,-23.52 123.353,-24.191 124.181,-24.191 C125.01,-24.191 125.681,-23.52 125.681,-22.691 Z" fill="rgba(255,255,255,1)"/>
<path d="M132.529,-9.335 C132.529,-8.506 131.858,-7.835 131.029,-7.835 C130.201,-7.835 129.529,-8.506 129.529,-9.335 C129.529,-10.163 130.201,-10.835 131.029,-10.835 C131.858,-10.835 132.529,-10.163 132.529,-9.335 Z" fill="rgba(255,255,255,1)"/>
<path d="M137.941,4.669 C137.941,5.497 137.27,6.169 136.441,6.169 C135.613,6.169 134.941,5.497 134.941,4.669 C134.941,3.84 135.613,3.169 136.441,3.169 C137.27,3.169 137.941,3.84 137.941,4.669 Z" fill="rgba(255,255,255,1)"/>
<path d="M141.85,19.167 C141.85,19.995 141.178,20.667 140.35,20.667 C139.521,20.667 138.85,19.995 138.85,19.167 C138.85,18.338 139.521,17.667 140.35,17.667 C141.178,17.667 141.85,18.338 141.85,19.167 Z" fill="rgba(255,255,255,1)"/>
<path d="M144.209,33.999 C144.209,34.828 143.537,35.499 142.709,35.499 C141.881,35.499 141.209,34.828 141.209,33.999 C141.209,33.171 141.881,32.499 142.709,32.499 C143.537,32.499 144.209,33.171 144.209,33.999 Z" fill="rgba(255,255,255,1)"/>
<path d="M143.5,49 L130,49" fill="rgba(0,0,0,1)" stroke="rgba(255,255,255,1)" stroke-width="3"/>
<path d="M124.181,120.691 L112.499,113.947" fill="rgba(0,0,0,1)" stroke="rgba(255,255,255,1)" stroke-width="3"/>
<path d="M71.691,173.181 L64.947,161.499" fill="rgba(0,0,0,1)" stroke="rgba(255,255,255,1)" stroke-width="3"/>
<path d="M0,192.5 L0,179" fill="rgba(0,0,0,1)" stroke="rgba(255,255,255,1)" stroke-width="3"/>
<path d="M-71.691,173.181 L-64.947,161.499" fill="rgba(0,0,0,1)" stroke="rgba(255,255,255,1)" stroke-width="3"/>
<path d="M-124.181,120.691 L-112.499,113.947" fill="rgba(0,0,0,1)" stroke="rgba(255,255,255,1)" stroke-width="3"/>
<path d="M-143.5,49 L-130,49" fill="rgba(0,0,0,1)" stroke="rgba(255,255,255,1)" stroke-width="3"/>
<path d="M-124.181,-22.691 L-112.499,-15.947" fill="rgba(0,0,0,1)" stroke="rgba(255,255,255,1)" stroke-width="3"/>
<path d="M-71.691,-75.181 L-64.947,-63.499" fill="rgba(0,0,0,1)" stroke="rgba(255,255,255,1)" stroke-width="3"/>
<path d="M0,-94.5 L0,-81" fill="rgba(0,0,0,1)" stroke="rgba(255,255,255,1)" stroke-width="3"/>
<path d="M71.691,-75.181 L64.947,-63.499" fill="rgba(0,0,0,1)" stroke="rgba(255,255,255,1)" stroke-width="3"/>
<path d="M124.181,-22.691 L112.499,-15.947" fill="rgba(0,0,0,1)" stroke="rgba(255,255,255,1)" stroke-width="3"/>
<path d="M4,49 C4,51.209 2.209,53 0,53 C-2.209,53 -4,51.209 -4,49 C-4,46.791 -2.209,45 0,45 C2.209,45 4,46.791 4,49 Z" fill="rgba(255,255,255,1)"/>
<path d="M2.5,49 C2.5,50.381 1.381,51.5 0,51.5 C-1.381,51.5 -2.5,50.381 -2.5,49 C-2.5,47.619 -1.381,46.5 0,46.5 C1.381,46.5 2.5,47.619 2.5,49 Z" fill="rgba(0,0,0,1)"/>
<text x="-23.330000000000002" y="-84" text-anchor="start" font-family="HelveticaNeue, Helvetica, Arial, sans-serif" font-size="20" fill="rgba(0,133,249,0.8941176470588236)" transform="matrix(1 0 0 1 0 49)">WED</text>
<text x="-26.12" y="97" text-anchor="start" font-family="HelveticaNeue, Helvetica, Arial, sans-serif" font-size="20" fill="rgba(0,133,249,0.8941176470588236)" transform="matrix(1 0 0 1 0 49)">JUL 8</text>
<path d="M-3.317,47.131 L-8.784,39.981 L-6.401,38.159 L-0.934,45.308 Z" fill="rgba(255,255,255,1)"/>
<path d="M-13.597,38.625 L-85.267,-55.115 C-86.944,-57.309 -86.703,-60.311 -84.729,-61.821 L-84.729,-61.821 C-82.755,-63.33 -79.795,-62.776 -78.117,-60.582 L-6.447,33.159 C-4.77,35.353 -5.01,38.355 -6.985,39.864 L-6.985,39.864 C-8.959,41.374 -11.919,40.819 -13.597,38.625 Z" fill="rgba(255,255,255,1)" stroke="rgba(195,195,195,1)" stroke-width="0.2"/>
<path d="M-0.219,52.802 L-4.235,60.856 L-6.92,59.517 L-2.904,51.463 Z" fill="rgba(255,255,255,1)"/>
<path d="M-3.335,65.774 L-25.645,110.521 C-26.877,112.992 -29.679,114.097 -31.903,112.988 L-31.903,112.988 C-34.127,111.879 -34.932,108.977 -33.699,106.505 L-11.389,61.759 C-10.157,59.287 -7.355,58.183 -5.131,59.292 L-5.131,59.292 C-2.907,60.401 -2.103,63.303 -3.335,65.774 Z" fill="rgba(255,255,255,1)" stroke="rgba(195,195,195,1)" stroke-width="0.2"/>
<path d="M0,49 L-144.207,33.858" fill="rgba(0,0,0,1)" stroke="rgba(255,181,0,1)" stroke-width="1.5"/>
<path d="M0,49 L14.918,50.566" fill="rgba(0,0,0,1)" stroke="rgba(255,181,0,1)" stroke-width="1.5"/>
</svg>