<svg xmlns="http://www.w3.org/2000/svg" viewBox="-271.95 -77.71 543.89 255.42">
<path d="M-239.238,15 L-33.188,15 L-33.188,85 L-239.238,85 Z" fill="rgba(0,0,0,0)" stroke="rgba(0,0,0,1)" stroke-width="2"/>
<path d="M-239.238,15 L-33.188,15 L-33.188,25 L-239.238,25 Z" fill="rgba(246,246,246,1)"/>
<path d="M-239.238,25 L-33.188,25 L-33.188,35 L-239.238,35 Z" fill="rgba(255,255,255,1)"/>
<path d="M-239.238,35 L-33.188,35 L-33.188,45 L-239.238,45 Z" fill="rgba(243,246,250,1)"/>
<path d="M-239.238,45 L-33.188,45 L-33.188,55 L-239.238,55 Z" fill="rgba(255,255,255,1)"/>
<path d="M-239.238,55 L-33.188,55 L-33.188,65 L-239.238,65 Z" fill="rgba(243,246,250,1)"/>
<path d="M-239.238,65 L-33.188,65 L-33.188,75 L-239.238,75 Z" fill="rgba(255,255,255,1)"/>
<path d="M-239.238,75 L-33.188,75 L-33.188,85 L-239.238,85 Z" fill="rgba(243,246,250,1)"/>
<text x="0" y="0" text-anchor="start" font-family="Verdana-Bold, Helvetica, Arial, sans-serif" font-size="12" fill="rgba(0,0,0,1)" transform="matrix(0.5 0 0 0.5 -229.2375 21.589999999999996)">country</text>
<text x="0" y="0" text-anchor="start" font-family="Verdana, Helvetica, Arial, sans-serif" font-size="12" fill="rgba(0,0,0,1)" transform="matrix(0.5 0 0 0.5 -229.2375 31.589999999999996)">India</text>
<text x="0" y="0" text-anchor="start" font-family="Verdana, Helvetica, Arial, sans-serif" font-size="12" fill="rgba(0,0,0,1)" transform="matrix(0.5 0 0 0.5 -229.2375 41.589999999999996)">India</text>
<text x="0" y="0" text-anchor="start" font-family="Verdana, Helvetica, Arial, sans-serif" font-size="12" fill="rgba(0,0,0,1)" transform="matrix(0.5 0 0 0.5 -229.2375 51.589999999999996)">India</text>
<text x="0" y="0" text-anchor="start" font-family="Verdana, Helvetica, Arial, sans-serif" font-size="12" fill="rgba(0,0,0,1)" transform="matrix(0.5 0 0 0.5 -229.2375 61.589999999999996)">Brazil</text>
<text x="0" y="0" text-anchor="start" font-family="Verdana, Helvetica, Arial, sans-serif" font-size="12" fill="rgba(0,0,0,1)" transform="matrix(0.5 0 0 0.5 -229.2375 71.59)">Brazil</text>
<text x="0" y="0" text-anchor="start" font-family="Verdana, Helvetica, Arial, sans-serif" font-size="12" fill="rgba(0,0,0,1)" transform="matrix(0.5 0 0 0.5 -229.2375 81.59)">Brazil</text>
<text x="0" y="0" text-anchor="start" font-family="Verdana-Bold, Helvetica, Arial, sans-serif" font-size="12" fill="rgba(0,0,0,1)" transform="matrix(0.5 0 0 0.5 -189.56350000000003 21.589999999999996)">month</text>
<text x="0" y="0" text-anchor="start" font-family="Verdana, Helvetica, Arial, sans-serif" font-size="12" fill="rgba(0,0,0,1)" transform="matrix(0.5 0 0 0.5 -189.56350000000003 31.589999999999996)">January</text>
<text x="0" y="0" text-anchor="start" font-family="Verdana, Helvetica, Arial, sans-serif" font-size="12" fill="rgba(0,0,0,1)" transform="matrix(0.5 0 0 0.5 -189.56350000000003 41.589999999999996)">February</text>
<text x="0" y="0" text-anchor="start" font-family="Verdana, Helvetica, Arial, sans-serif" font-size="12" fill="rgba(0,0,0,1)" transform="matrix(0.5 0 0 0.5 -189.56350000000003 51.589999999999996)">March</text>
<text x="0" y="0" text-anchor="start" font-family="Verdana, Helvetica, Arial, sans-serif" font-size="12" fill="rgba(0,0,0,1)" transform="matrix(0.5 0 0 0.5 -189.56350000000003 61.589999999999996)">January</text>
<text x="0" y="0" text-anchor="start" font-family="Verdana, Helvetica, Arial, sans-serif" font-size="12" fill="rgba(0,0,0,1)" transform="matrix(0.5 0 0 0.5 -189.56350000000003 71.59)">February</text>
<text x="0" y="0" text-anchor="start" font-family="Verdana, Helvetica, Arial, sans-serif" font-size="12" fill="rgba(0,0,0,1)" transform="matrix(0.5 0 0 0.5 -189.56350000000003 81.59)">March</text>
<text x="0" y="0" text-anchor="start" font-family="Verdana-Bold, Helvetica, Arial, sans-serif" font-size="12" fill="rgba(0,0,0,1)" transform="matrix(0.5 0 0 0.5 -145.5575 21.589999999999996)">apples</text>
<text x="0" y="0" text-anchor="start" font-family="Verdana, Helvetica, Arial, sans-serif" font-size="12" fill="rgba(0,0,0,1)" transform="matrix(0.5 0 0 0.5 -145.5575 31.589999999999996)">650</text>
<text x="0" y="0" text-anchor="start" font-family="Verdana, Helvetica, Arial, sans-serif" font-size="12" fill="rgba(0,0,0,1)" transform="matrix(0.5 0 0 0.5 -145.5575 41.589999999999996)">494</text>
<text x="0" y="0" text-anchor="start" font-family="Verdana, Helvetica, Arial, sans-serif" font-size="12" fill="rgba(0,0,0,1)" transform="matrix(0.5 0 0 0.5 -145.5575 51.589999999999996)">347</text>
<text x="0" y="0" text-anchor="start" font-family="Verdana, Helvetica, Arial, sans-serif" font-size="12" fill="rgba(0,0,0,1)" transform="matrix(0.5 0 0 0.5 -145.5575 61.589999999999996)">230</text>
<text x="0" y="0" text-anchor="start" font-family="Verdana, Helvetica, Arial, sans-serif" font-size="12" fill="rgba(0,0,0,1)" transform="matrix(0.5 0 0 0.5 -145.5575 71.59)">32</text>
<text x="0" y="0" text-anchor="start" font-family="Verdana, Helvetica, Arial, sans-serif" font-size="12" fill="rgba(0,0,0,1)" transform="matrix(0.5 0 0 0.5 -145.5575 81.59)">171</text>
<text x="0" y="0" text-anchor="start" font-family="Verdana-Bold, Helvetica, Arial, sans-serif" font-size="12" fill="rgba(0,0,0,1)" transform="matrix(0.5 0 0 0.5 -107.88150000000002 21.589999999999996)">oranges</text>
<text x="0" y="0" text-anchor="start" font-family="Verdana, Helvetica, Arial, sans-serif" font-size="12" fill="rgba(0,0,0,1)" transform="matrix(0.5 0 0 0.5 -107.88150000000002 31.589999999999996)">358</text>
<text x="0" y="0" text-anchor="start" font-family="Verdana, Helvetica, Arial, sans-serif" font-size="12" fill="rgba(0,0,0,1)" transform="matrix(0.5 0 0 0.5 -107.88150000000002 41.589999999999996)">409</text>
<text x="0" y="0" text-anchor="start" font-family="Verdana, Helvetica, Arial, sans-serif" font-size="12" fill="rgba(0,0,0,1)" transform="matrix(0.5 0 0 0.5 -107.88150000000002 51.589999999999996)">262</text>
<text x="0" y="0" text-anchor="start" font-family="Verdana, Helvetica, Arial, sans-serif" font-size="12" fill="rgba(0,0,0,1)" transform="matrix(0.5 0 0 0.5 -107.88150000000002 61.589999999999996)">234</text>
<text x="0" y="0" text-anchor="start" font-family="Verdana, Helvetica, Arial, sans-serif" font-size="12" fill="rgba(0,0,0,1)" transform="matrix(0.5 0 0 0.5 -107.88150000000002 71.59)">159</text>
<text x="0" y="0" text-anchor="start" font-family="Verdana, Helvetica, Arial, sans-serif" font-size="12" fill="rgba(0,0,0,1)" transform="matrix(0.5 0 0 0.5 -107.88150000000002 81.59)">61</text>
<text x="0" y="0" text-anchor="start" font-family="Verdana-Bold, Helvetica, Arial, sans-serif" font-size="12" fill="rgba(0,0,0,1)" transform="matrix(0.5 0 0 0.5 -66.20350000000003 21.589999999999996)">bananas</text>
<text x="0" y="0" text-anchor="start" font-family="Verdana, Helvetica, Arial, sans-serif" font-size="12" fill="rgba(0,0,0,1)" transform="matrix(0.5 0 0 0.5 -66.20350000000003 31.589999999999996)">122</text>
<text x="0" y="0" text-anchor="start" font-family="Verdana, Helvetica, Arial, sans-serif" font-size="12" fill="rgba(0,0,0,1)" transform="matrix(0.5 0 0 0.5 -66.20350000000003 41.589999999999996)">133</text>
<text x="0" y="0" text-anchor="start" font-family="Verdana, Helvetica, Arial, sans-serif" font-size="12" fill="rgba(0,0,0,1)" transform="matrix(0.5 0 0 0.5 -66.20350000000003 51.589999999999996)">134</text>
<text x="0" y="0" text-anchor="start" font-family="Verdana, Helvetica, Arial, sans-serif" font-size="12" fill="rgba(0,0,0,1)" transform="matrix(0.5 0 0 0.5 -66.20350000000003 61.589999999999996)">116</text>
<text x="0" y="0" text-anchor="start" font-family="Verdana, Helvetica, Arial, sans-serif" font-size="12" fill="rgba(0,0,0,1)" transform="matrix(0.5 0 0 0.5 -66.20350000000003 71.59)">55</text>
<text x="0" y="0" text-anchor="start" font-family="Verdana, Helvetica, Arial, sans-serif" font-size="12" fill="rgba(0,0,0,1)" transform="matrix(0.5 0 0 0.5 -66.20350000000003 81.59)">31</text>
<path d="M-153.963,15 L-22.463,15 L-22.463,85 L-153.963,85 Z" fill="rgba(0,202,255,0.22745098039215686)"/>
<path d="M-2.463,42.5 L35.037,42.5 L35.037,30 L58.537,50 L35.037,70 L35.037,57.5 L-2.463,57.5 Z" fill="rgba(255,255,255,1)" stroke="rgba(0,0,0,1)" stroke-width="1"/>
<path d="M78.537,-45 L239.238,-45 L239.238,145 L78.537,145 Z" fill="rgba(0,0,0,0)" stroke="rgba(0,0,0,1)" stroke-width="2"/>
<path d="M78.537,-45 L239.238,-45 L239.238,-35 L78.537,-35 Z" fill="rgba(246,246,246,1)"/>
<path d="M78.537,-35 L239.238,-35 L239.238,-25 L78.537,-25 Z" fill="rgba(255,255,255,1)"/>
<path d="M78.537,-25 L239.238,-25 L239.238,-15 L78.537,-15 Z" fill="rgba(243,246,250,1)"/>
<path d="M78.537,-15 L239.238,-15 L239.238,-5 L78.537,-5 Z" fill="rgba(255,255,255,1)"/>
<path d="M78.537,-5 L239.238,-5 L239.238,5 L78.537,5 Z" fill="rgba(243,246,250,1)"/>
<path d="M78.537,5 L239.238,5 L239.238,15 L78.537,15 Z" fill="rgba(255,255,255,1)"/>
<path d="M78.537,15 L239.238,15 L239.238,25 L78.537,25 Z" fill="rgba(243,246,250,1)"/>
<path d="M78.537,25 L239.238,25 L239.238,35 L78.537,35 Z" fill="rgba(255,255,255,1)"/>
<path d="M78.537,35 L239.238,35 L239.238,45 L78.537,45 Z" fill="rgba(243,246,250,1)"/>
<path d="M78.537,45 L239.238,45 L239.238,55 L78.537,55 Z" fill="rgba(255,255,255,1)"/>
<path d="M78.537,55 L239.238,55 L239.238,65 L78.537,65 Z" fill="rgba(243,246,250,1)"/>
<path d="M78.537,65 L239.238,65 L239.238,75 L78.537,75 Z" fill="rgba(255,255,255,1)"/>
<path d="M78.537,75 L239.238,75 L239.238,85 L78.537,85 Z" fill="rgba(243,246,250,1)"/>
<path d="M78.537,85 L239.238,85 L239.238,95 L78.537,95 Z" fill="rgba(255,255,255,1)"/>
<path d="M78.537,95 L239.238,95 L239.238,105 L78.537,105 Z" fill="rgba(243,246,250,1)"/>
<path d="M78.537,105 L239.238,105 L239.238,115 L78.537,115 Z" fill="rgba(255,255,255,1)"/>
<path d="M78.537,115 L239.238,115 L239.238,125 L78.537,125 Z" fill="rgba(243,246,250,1)"/>
<path d="M78.537,125 L239.238,125 L239.238,135 L78.537,135 Z" fill="rgba(255,255,255,1)"/>
<path d="M78.537,135 L239.238,135 L239.238,145 L78.537,145 Z" fill="rgba(243,246,250,1)"/>
<text x="0" y="0" text-anchor="start" font-family="Verdana-Bold, Helvetica, Arial, sans-serif" font-size="12" fill="rgba(0,0,0,1)" transform="matrix(0.5 0 0 0.5 88.5375 -38.41)">country</text>
<text x="0" y="0" text-anchor="start" font-family="Verdana, Helvetica, Arial, sans-serif" font-size="12" fill="rgba(0,0,0,1)" transform="matrix(0.5 0 0 0.5 88.5375 -28.409999999999997)">India</text>
<text x="0" y="0" text-anchor="start" font-family="Verdana, Helvetica, Arial, sans-serif" font-size="12" fill="rgba(0,0,0,1)" transform="matrix(0.5 0 0 0.5 88.5375 -18.409999999999997)">India</text>
<text x="0" y="0" text-anchor="start" font-family="Verdana, Helvetica, Arial, sans-serif" font-size="12" fill="rgba(0,0,0,1)" transform="matrix(0.5 0 0 0.5 88.5375 -8.409999999999997)">India</text>
<text x="0" y="0" text-anchor="start" font-family="Verdana, Helvetica, Arial, sans-serif" font-size="12" fill="rgba(0,0,0,1)" transform="matrix(0.5 0 0 0.5 88.5375 1.5900000000000034)">India</text>
<text x="0" y="0" text-anchor="start" font-family="Verdana, Helvetica, Arial, sans-serif" font-size="12" fill="rgba(0,0,0,1)" transform="matrix(0.5 0 0 0.5 88.5375 11.590000000000003)">India</text>
<text x="0" y="0" text-anchor="start" font-family="Verdana, Helvetica, Arial, sans-serif" font-size="12" fill="rgba(0,0,0,1)" transform="matrix(0.5 0 0 0.5 88.5375 21.590000000000003)">India</text>
<text x="0" y="0" text-anchor="start" font-family="Verdana, Helvetica, Arial, sans-serif" font-size="12" fill="rgba(0,0,0,1)" transform="matrix(0.5 0 0 0.5 88.5375 31.590000000000003)">India</text>
<text x="0" y="0" text-anchor="start" font-family="Verdana, Helvetica, Arial, sans-serif" font-size="12" fill="rgba(0,0,0,1)" transform="matrix(0.5 0 0 0.5 88.5375 41.59)">India</text>
<text x="0" y="0" text-anchor="start" font-family="Verdana, Helvetica, Arial, sans-serif" font-size="12" fill="rgba(0,0,0,1)" transform="matrix(0.5 0 0 0.5 88.5375 51.59)">India</text>
<text x="0" y="0" text-anchor="start" font-family="Verdana, Helvetica, Arial, sans-serif" font-size="12" fill="rgba(0,0,0,1)" transform="matrix(0.5 0 0 0.5 88.5375 61.59)">Brazil</text>
<text x="0" y="0" text-anchor="start" font-family="Verdana, Helvetica, Arial, sans-serif" font-size="12" fill="rgba(0,0,0,1)" transform="matrix(0.5 0 0 0.5 88.5375 71.59)">Brazil</text>
<text x="0" y="0" text-anchor="start" font-family="Verdana, Helvetica, Arial, sans-serif" font-size="12" fill="rgba(0,0,0,1)" transform="matrix(0.5 0 0 0.5 88.5375 81.59)">Brazil</text>
<text x="0" y="0" text-anchor="start" font-family="Verdana, Helvetica, Arial, sans-serif" font-size="12" fill="rgba(0,0,0,1)" transform="matrix(0.5 0 0 0.5 88.5375 91.59)">Brazil</text>
<text x="0" y="0" text-anchor="start" font-family="Verdana, Helvetica, Arial, sans-serif" font-size="12" fill="rgba(0,0,0,1)" transform="matrix(0.5 0 0 0.5 88.5375 101.59)">Brazil</text>
<text x="0" y="0" text-anchor="start" font-family="Verdana, Helvetica, Arial, sans-serif" font-size="12" fill="rgba(0,0,0,1)" transform="matrix(0.5 0 0 0.5 88.5375 111.59)">Brazil</text>
<text x="0" y="0" text-anchor="start" font-family="Verdana, Helvetica, Arial, sans-serif" font-size="12" fill="rgba(0,0,0,1)" transform="matrix(0.5 0 0 0.5 88.5375 121.59)">Brazil</text>
<text x="0" y="0" text-anchor="start" font-family="Verdana, Helvetica, Arial, sans-serif" font-size="12" fill="rgba(0,0,0,1)" transform="matrix(0.5 0 0 0.5 88.5375 131.59)">Brazil</text>
<text x="0" y="0" text-anchor="start" font-family="Verdana, Helvetica, Arial, sans-serif" font-size="12" fill="rgba(0,0,0,1)" transform="matrix(0.5 0 0 0.5 88.5375 141.59)">Brazil</text>
<text x="0" y="0" text-anchor="start" font-family="Verdana-Bold, Helvetica, Arial, sans-serif" font-size="12" fill="rgba(0,0,0,1)" transform="matrix(0.5 0 0 0.5 128.2115 -38.41)">month</text>
<text x="0" y="0" text-anchor="start" font-family="Verdana, Helvetica, Arial, sans-serif" font-size="12" fill="rgba(0,0,0,1)" transform="matrix(0.5 0 0 0.5 128.2115 -28.409999999999997)">January</text>
<text x="0" y="0" text-anchor="start" font-family="Verdana, Helvetica, Arial, sans-serif" font-size="12" fill="rgba(0,0,0,1)" transform="matrix(0.5 0 0 0.5 128.2115 -18.409999999999997)">January</text>
<text x="0" y="0" text-anchor="start" font-family="Verdana, Helvetica, Arial, sans-serif" font-size="12" fill="rgba(0,0,0,1)" transform="matrix(0.5 0 0 0.5 128.2115 -8.409999999999997)">January</text>
<text x="0" y="0" text-anchor="start" font-family="Verdana, Helvetica, Arial, sans-serif" font-size="12" fill="rgba(0,0,0,1)" transform="matrix(0.5 0 0 0.5 128.2115 1.5900000000000034)">February</text>
<text x="0" y="0" text-anchor="start" font-family="Verdana, Helvetica, Arial, sans-serif" font-size="12" fill="rgba(0,0,0,1)" transform="matrix(0.5 0 0 0.5 128.2115 11.590000000000003)">February</text>
<text x="0" y="0" text-anchor="start" font-family="Verdana, Helvetica, Arial, sans-serif" font-size="12" fill="rgba(0,0,0,1)" transform="matrix(0.5 0 0 0.5 128.2115 21.590000000000003)">February</text>
<text x="0" y="0" text-anchor="start" font-family="Verdana, Helvetica, Arial, sans-serif" font-size="12" fill="rgba(0,0,0,1)" transform="matrix(0.5 0 0 0.5 128.2115 31.590000000000003)">March</text>
<text x="0" y="0" text-anchor="start" font-family="Verdana, Helvetica, Arial, sans-serif" font-size="12" fill="rgba(0,0,0,1)" transform="matrix(0.5 0 0 0.5 128.2115 41.59)">March</text>
<text x="0" y="0" text-anchor="start" font-family="Verdana, Helvetica, Arial, sans-serif" font-size="12" fill="rgba(0,0,0,1)" transform="matrix(0.5 0 0 0.5 128.2115 51.59)">March</text>
<text x="0" y="0" text-anchor="start" font-family="Verdana, Helvetica, Arial, sans-serif" font-size="12" fill="rgba(0,0,0,1)" transform="matrix(0.5 0 0 0.5 128.2115 61.59)">January</text>
<text x="0" y="0" text-anchor="start" font-family="Verdana, Helvetica, Arial, sans-serif" font-size="12" fill="rgba(0,0,0,1)" transform="matrix(0.5 0 0 0.5 128.2115 71.59)">January</text>
<text x="0" y="0" text-anchor="start" font-family="Verdana, Helvetica, Arial, sans-serif" font-size="12" fill="rgba(0,0,0,1)" transform="matrix(0.5 0 0 0.5 128.2115 81.59)">January</text>
<text x="0" y="0" text-anchor="start" font-family="Verdana, Helvetica, Arial, sans-serif" font-size="12" fill="rgba(0,0,0,1)" transform="matrix(0.5 0 0 0.5 128.2115 91.59)">February</text>
<text x="0" y="0" text-anchor="start" font-family="Verdana, Helvetica, Arial, sans-serif" font-size="12" fill="rgba(0,0,0,1)" transform="matrix(0.5 0 0 0.5 128.2115 101.59)">February</text>
<text x="0" y="0" text-anchor="start" font-family="Verdana, Helvetica, Arial, sans-serif" font-size="12" fill="rgba(0,0,0,1)" transform="matrix(0.5 0 0 0.5 128.2115 111.59)">February</text>
<text x="0" y="0" text-anchor="start" font-family="Verdana, Helvetica, Arial, sans-serif" font-size="12" fill="rgba(0,0,0,1)" transform="matrix(0.5 0 0 0.5 128.2115 121.59)">March</text>
<text x="0" y="0" text-anchor="start" font-family="Verdana, Helvetica, Arial, sans-serif" font-size="12" fill="rgba(0,0,0,1)" transform="matrix(0.5 0 0 0.5 128.2115 131.59)">March</text>
<text x="0" y="0" text-anchor="start" font-family="Verdana, Helvetica, Arial, sans-serif" font-size="12" fill="rgba(0,0,0,1)" transform="matrix(0.5 0 0 0.5 128.2115 141.59)">March</text>
<text x="0" y="0" text-anchor="start" font-family="Verdana-Bold, Helvetica, Arial, sans-serif" font-size="12" fill="rgba(0,0,0,1)" transform="matrix(0.5 0 0 0.5 172.21750000000003 -38.41)">fruit</text>
<text x="0" y="0" text-anchor="start" font-family="Verdana, Helvetica, Arial, sans-serif" font-size="12" fill="rgba(0,0,0,1)" transform="matrix(0.5 0 0 0.5 172.21750000000003 -28.409999999999997)">apples</text>
<text x="0" y="0" text-anchor="start" font-family="Verdana, Helvetica, Arial, sans-serif" font-size="12" fill="rgba(0,0,0,1)" transform="matrix(0.5 0 0 0.5 172.21750000000003 -18.409999999999997)">oranges</text>
<text x="0" y="0" text-anchor="start" font-family="Verdana, Helvetica, Arial, sans-serif" font-size="12" fill="rgba(0,0,0,1)" transform="matrix(0.5 0 0 0.5 172.21750000000003 -8.409999999999997)">bananas</text>
<text x="0" y="0" text-anchor="start" font-family="Verdana, Helvetica, Arial, sans-serif" font-size="12" fill="rgba(0,0,0,1)" transform="matrix(0.5 0 0 0.5 172.21750000000003 1.5900000000000034)">apples</text>
<text x="0" y="0" text-anchor="start" font-family="Verdana, Helvetica, Arial, sans-serif" font-size="12" fill="rgba(0,0,0,1)" transform="matrix(0.5 0 0 0.5 172.21750000000003 11.590000000000003)">oranges</text>
<text x="0" y="0" text-anchor="start" font-family="Verdana, Helvetica, Arial, sans-serif" font-size="12" fill="rgba(0,0,0,1)" transform="matrix(0.5 0 0 0.5 172.21750000000003 21.590000000000003)">bananas</text>
<text x="0" y="0" text-anchor="start" font-family="Verdana, Helvetica, Arial, sans-serif" font-size="12" fill="rgba(0,0,0,1)" transform="matrix(0.5 0 0 0.5 172.21750000000003 31.590000000000003)">apples</text>
<text x="0" y="0" text-anchor="start" font-family="Verdana, Helvetica, Arial, sans-serif" font-size="12" fill="rgba(0,0,0,1)" transform="matrix(0.5 0 0 0.5 172.21750000000003 41.59)">oranges</text>
<text x="0" y="0" text-anchor="start" font-family="Verdana, Helvetica, Arial, sans-serif" font-size="12" fill="rgba(0,0,0,1)" transform="matrix(0.5 0 0 0.5 172.21750000000003 51.59)">bananas</text>
<text x="0" y="0" text-anchor="start" font-family="Verdana, Helvetica, Arial, sans-serif" font-size="12" fill="rgba(0,0,0,1)" transform="matrix(0.5 0 0 0.5 172.21750000000003 61.59)">apples</text>
<text x="0" y="0" text-anchor="start" font-family="Verdana, Helvetica, Arial, sans-serif" font-size="12" fill="rgba(0,0,0,1)" transform="matrix(0.5 0 0 0.5 172.21750000000003 71.59)">oranges</text>
<text x="0" y="0" text-anchor="start" font-family="Verdana, Helvetica, Arial, sans-serif" font-size="12" fill="rgba(0,0,0,1)" transform="matrix(0.5 0 0 0.5 172.21750000000003 81.59)">bananas</text>
<text x="0" y="0" text-anchor="start" font-family="Verdana, Helvetica, Arial, sans-serif" font-size="12" fill="rgba(0,0,0,1)" transform="matrix(0.5 0 0 0.5 172.21750000000003 91.59)">apples</text>
<text x="0" y="0" text-anchor="start" font-family="Verdana, Helvetica, Arial, sans-serif" font-size="12" fill="rgba(0,0,0,1)" transform="matrix(0.5 0 0 0.5 172.21750000000003 101.59)">oranges</text>
<text x="0" y="0" text-anchor="start" font-family="Verdana, Helvetica, Arial, sans-serif" font-size="12" fill="rgba(0,0,0,1)" transform="matrix(0.5 0 0 0.5 172.21750000000003 111.59)">bananas</text>
<text x="0" y="0" text-anchor="start" font-family="Verdana, Helvetica, Arial, sans-serif" font-size="12" fill="rgba(0,0,0,1)" transform="matrix(0.5 0 0 0.5 172.21750000000003 121.59)">apples</text>
<text x="0" y="0" text-anchor="start" font-family="Verdana, Helvetica, Arial, sans-serif" font-size="12" fill="rgba(0,0,0,1)" transform="matrix(0.5 0 0 0.5 172.21750000000003 131.59)">oranges</text>
<text x="0" y="0" text-anchor="start" font-family="Verdana, Helvetica, Arial, sans-serif" font-size="12" fill="rgba(0,0,0,1)" transform="matrix(0.5 0 0 0.5 172.21750000000003 141.59)">bananas</text>
<text x="0" y="0" text-anchor="start" font-family="Verdana-Bold, Helvetica, Arial, sans-serif" font-size="12" fill="rgba(0,0,0,1)" transform="matrix(0.5 0 0 0.5 215.2335 -38.41)">sales</text>
<text x="0" y="0" text-anchor="start" font-family="Verdana, Helvetica, Arial, sans-serif" font-size="12" fill="rgba(0,0,0,1)" transform="matrix(0.5 0 0 0.5 215.2335 -28.409999999999997)">650</text>
<text x="0" y="0" text-anchor="start" font-family="Verdana, Helvetica, Arial, sans-serif" font-size="12" fill="rgba(0,0,0,1)" transform="matrix(0.5 0 0 0.5 215.2335 -18.409999999999997)">358</text>
<text x="0" y="0" text-anchor="start" font-family="Verdana, Helvetica, Arial, sans-serif" font-size="12" fill="rgba(0,0,0,1)" transform="matrix(0.5 0 0 0.5 215.2335 -8.409999999999997)">122</text>
<text x="0" y="0" text-anchor="start" font-family="Verdana, Helvetica, Arial, sans-serif" font-size="12" fill="rgba(0,0,0,1)" transform="matrix(0.5 0 0 0.5 215.2335 1.5900000000000034)">494</text>
<text x="0" y="0" text-anchor="start" font-family="Verdana, Helvetica, Arial, sans-serif" font-size="12" fill="rgba(0,0,0,1)" transform="matrix(0.5 0 0 0.5 215.2335 11.590000000000003)">409</text>
<text x="0" y="0" text-anchor="start" font-family="Verdana, Helvetica, Arial, sans-serif" font-size="12" fill="rgba(0,0,0,1)" transform="matrix(0.5 0 0 0.5 215.2335 21.590000000000003)">133</text>
<text x="0" y="0" text-anchor="start" font-family="Verdana, Helvetica, Arial, sans-serif" font-size="12" fill="rgba(0,0,0,1)" transform="matrix(0.5 0 0 0.5 215.2335 31.590000000000003)">347</text>
<text x="0" y="0" text-anchor="start" font-family="Verdana, Helvetica, Arial, sans-serif" font-size="12" fill="rgba(0,0,0,1)" transform="matrix(0.5 0 0 0.5 215.2335 41.59)">262</text>
<text x="0" y="0" text-anchor="start" font-family="Verdana, Helvetica, Arial, sans-serif" font-size="12" fill="rgba(0,0,0,1)" transform="matrix(0.5 0 0 0.5 215.2335 51.59)">134</text>
<text x="0" y="0" text-anchor="start" font-family="Verdana, Helvetica, Arial, sans-serif" font-size="12" fill="rgba(0,0,0,1)" transform="matrix(0.5 0 0 0.5 215.2335 61.59)">230</text>
<text x="0" y="0" text-anchor="start" font-family="Verdana, Helvetica, Arial, sans-serif" font-size="12" fill="rgba(0,0,0,1)" transform="matrix(0.5 0 0 0.5 215.2335 71.59)">234</text>
<text x="0" y="0" text-anchor="start" font-family="Verdana, Helvetica, Arial, sans-serif" font-size="12" fill="rgba(0,0,0,1)" transform="matrix(0.5 0 0 0.5 215.2335 81.59)">116</text>
<text x="0" y="0" text-anchor="start" font-family="Verdana, Helvetica, Arial, sans-serif" font-size="12" fill="rgba(0,0,0,1)" transform="matrix(0.5 0 0 0.5 215.2335 91.59)">32</text>
<text x="0" y="0" text-anchor="start" font-family="Verdana, Helvetica, Arial, sans-serif" font-size="12" fill="rgba(0,0,0,1)" transform="matrix(0.5 0 0 0.5 215.2335 101.59)">159</text>
<text x="0" y="0" text-anchor="start" font-family="Verdana, Helvetica, Arial, sans-serif" font-size="12" fill="rgba(0,0,0,1)" transform="matrix(0.5 0 0 0.5 215.2335 111.59)">55</text>
<text x="0" y="0" text-anchor="start" font-family="Verdana, Helvetica, Arial, sans-serif" font-size="12" fill="rgba(0,0,0,1)" transform="matrix(0.5 0 0 0.5 215.2335 121.59)">171</text>
<text x="0" y="0" text-anchor="start" font-family="Verdana, Helvetica, Arial, sans-serif" font-size="12" fill="rgba(0,0,0,1)" transform="matrix(0.5 0 0 0.5 215.2335 131.59)">61</text>
<text x="0" y="0" text-anchor="start" font-family="Verdana, Helvetica, Arial, sans-serif" font-size="12" fill="rgba(0,0,0,1)" transform="matrix(0.5 0 0 0.5 215.2335 141.59)">31</text>
<path d="M161.387,-45 L209.387,-45 L209.387,145 L161.387,145 Z" fill="rgba(0,202,255,0.22745098039215686)"/>
</svg>