<svg xmlns="http://www.w3.org/2000/svg" viewBox="-261.6 -131.1 523.2 382.2">
<path d="M-230,-99.5 L-93.72,-99.5 L-93.72,65.781 L-230,65.781 Z" fill="rgba(224,242,255,1)" stroke="rgba(0,0,0,1)" stroke-width="1"/>
<path d="M-230,65.781 L-93.72,65.781 L-93.72,219.5 L-230,219.5 Z" fill="rgba(204,229,249,1)" stroke="rgba(0,0,0,1)" stroke-width="1"/>
<path d="M-93.72,-99.5 L21.015,-99.5 L21.015,62.673 L-93.72,62.673 Z" fill="rgba(184,216,244,1)" stroke="rgba(0,0,0,1)" stroke-width="1"/>
<path d="M-93.72,62.673 L21.015,62.673 L21.015,219.5 L-93.72,219.5 Z" fill="rgba(166,202,238,1)" stroke="rgba(0,0,0,1)" stroke-width="1"/>
<path d="M21.015,-99.5 L132.369,-99.5 L132.369,56.678 L21.015,56.678 Z" fill="rgba(148,188,232,1)" stroke="rgba(0,0,0,1)" stroke-width="1"/>
<path d="M132.369,-99.5 L230,-99.5 L230,56.678 L132.369,56.678 Z" fill="rgba(130,174,227,1)" stroke="rgba(0,0,0,1)" stroke-width="1"/>
<path d="M21.015,56.678 L103.333,56.678 L103.333,219.5 L21.015,219.5 Z" fill="rgba(114,160,221,1)" stroke="rgba(0,0,0,1)" stroke-width="1"/>
<path d="M103.333,56.678 L230,56.678 L230,157.01 L103.333,157.01 Z" fill="rgba(98,146,215,1)" stroke="rgba(0,0,0,1)" stroke-width="1"/>
<path d="M103.333,157.01 L214.513,157.01 L214.513,219.5 L103.333,219.5 Z" fill="rgba(82,131,209,1)" stroke="rgba(0,0,0,1)" stroke-width="1"/>
<path d="M214.513,157.01 L230,157.01 L230,219.5 L214.513,219.5 Z" fill="rgba(68,117,204,1)" stroke="rgba(0,0,0,1)" stroke-width="1"/>
</svg>