<svg xmlns="http://www.w3.org/2000/svg" viewBox="-211.2 -151.2 422.4 422.4">
<path d="M-185,60 L-184.045,41.085 L-181.241,22.716 L-176.683,4.987 L-170.462,-12.01 L-162.671,-28.182 L-153.405,-43.435 L-142.755,-57.677 L-130.815,-70.815 L-117.677,-82.755 L-103.435,-93.405 L-88.182,-102.671 L-72.01,-110.462 L-55.013,-116.683 L-37.284,-121.241 L-18.915,-124.045 L0,-125 L18.915,-124.045 L37.284,-121.241 L55.013,-116.683 L72.01,-110.462 L88.182,-102.671 L103.435,-93.405 L117.677,-82.755 L130.815,-70.815 L142.755,-57.677 L153.405,-43.435 L162.671,-28.182 L170.462,-12.01 L176.683,4.987 L181.241,22.716 L184.045,41.085 L185,60 Z" fill="rgba(80,80,238,1)"/>
<path d="M185,60 L-185,60 L-184.045,78.915 L-181.241,97.284 L-176.683,115.013 L-170.462,132.01 L-162.671,148.182 L-153.405,163.435 L-142.755,177.677 L-130.815,190.815 L-117.677,202.755 L-103.435,213.405 L-88.182,222.671 L-72.01,230.462 L-55.013,236.683 L-37.284,241.241 L-18.915,244.045 L0,245 L18.915,244.045 L37.284,241.241 L55.013,236.683 L72.01,230.462 L88.182,222.671 L103.435,213.405 L117.677,202.755 L130.815,190.815 L142.755,177.677 L153.405,163.435 L162.671,148.182 L170.462,132.01 L176.683,115.013 L181.241,97.284 L184.045,78.915 Z" fill="rgba(238,153,35,1)"/>
<path d="M130,60 C130,131.797 71.797,190 0,190 C-71.797,190 -130,131.797 -130,60 C-130,-11.797 -71.797,-70 0,-70 C71.797,-70 130,-11.797 130,60 Z" fill="rgba(255,255,255,1)"/>
<text x="0" y="0" text-anchor="start" font-family="Verdana-Bold, Helvetica, Arial, sans-serif" font-size="18" fill="rgba(255,255,255,1)" transform="matrix(0.4912041272224391 -0.871044491056365 0.871044491056365 0.4912041272224391 -134.11240160302168 -5.41869570635933)">t</text>
<text x="0" y="0" text-anchor="start" font-family="Verdana-Bold, Helvetica, Arial, sans-serif" font-size="18" fill="rgba(255,255,255,1)" transform="matrix(0.5336895113036826 -0.8456804984889011 0.8456804984889011 0.5336895113036826 -132.1881860340558 -9.63504315879591)">e</text>
<text x="0" y="0" text-anchor="start" font-family="Verdana-Bold, Helvetica, Arial, sans-serif" font-size="18" fill="rgba(255,255,255,1)" transform="matrix(0.5747311098946069 -0.8183423191545903 0.8183423191545903 0.5747311098946069 -127.29282166038637 -17.921550709222373)">x</text>
<text x="0" y="0" text-anchor="start" font-family="Verdana-Bold, Helvetica, Arial, sans-serif" font-size="18" fill="rgba(255,255,255,1)" transform="matrix(0.6142531786441296 -0.7891090118136929 0.7891090118136929 0.6142531786441296 -122.52242619171957 -25.09495493213248)">t</text>
<text x="0" y="0" text-anchor="start" font-family="Verdana-Bold, Helvetica, Arial, sans-serif" font-size="18" fill="rgba(255,255,255,1)" transform="matrix(0.6142531786441296 -0.7891090118136929 0.7891090118136929 0.6142531786441296 -119.4487032857843 -29.04365642724825)"> </text>
<text x="0" y="0" text-anchor="start" font-family="Verdana-Bold, Helvetica, Arial, sans-serif" font-size="18" fill="rgba(255,255,255,1)" transform="matrix(0.6884759773143693 -0.7252591458651343 0.7252591458651343 0.6884759773143693 -117.30964005385373 -32.77535381721427)">a</text>
<text x="0" y="0" text-anchor="start" font-family="Verdana-Bold, Helvetica, Arial, sans-serif" font-size="18" fill="rgba(255,255,255,1)" transform="matrix(0.7230597559906538 -0.6907854871570017 0.6907854871570017 0.7230597559906538 -110.94769312597302 -40.00880440502027)">b</text>
<text x="0" y="0" text-anchor="start" font-family="Verdana-Bold, Helvetica, Arial, sans-serif" font-size="18" fill="rgba(255,255,255,1)" transform="matrix(0.7558864342498804 -0.6547027558495544 0.6547027558495544 0.7558864342498804 -104.1626950561865 -46.83843453421794)">o</text>
<text x="0" y="0" text-anchor="start" font-family="Verdana-Bold, Helvetica, Arial, sans-serif" font-size="18" fill="rgba(255,255,255,1)" transform="matrix(0.7869039533580008 -0.6170754963450983 0.6170754963450983 0.7869039533580008 -96.97968608409171 -53.24068016803872)">v</text>
<text x="0" y="0" text-anchor="start" font-family="Verdana-Bold, Helvetica, Arial, sans-serif" font-size="18" fill="rgba(255,255,255,1)" transform="matrix(0.8433015021974919 -0.5374407654723016 0.5374407654723016 0.8433015021974919 -90.81480019979449 -58.754580349546856)">e</text>
<text x="0" y="0" text-anchor="start" font-family="Verdana-Bold, Helvetica, Arial, sans-serif" font-size="18" fill="rgba(255,255,255,1)" transform="matrix(0.8433015021974919 -0.5374407654723016 0.5374407654723016 0.8433015021974919 -82.37503876580192 -64.13328753039367)"> </text>
<text x="0" y="0" text-anchor="start" font-family="Verdana-Bold, Helvetica, Arial, sans-serif" font-size="18" fill="rgba(255,255,255,1)" transform="matrix(0.8918158886237814 -0.4523985198894611 0.4523985198894611 0.8918158886237814 -79.09120707687329 -66.90136342782698)">h</text>
<text x="0" y="0" text-anchor="start" font-family="Verdana-Bold, Helvetica, Arial, sans-serif" font-size="18" fill="rgba(255,255,255,1)" transform="matrix(0.9129709315383864 -0.4080246048535933 0.4080246048535933 0.9129709315383864 -70.66832522792403 -71.56894988312467)">o</text>
<text x="0" y="0" text-anchor="start" font-family="Verdana-Bold, Helvetica, Arial, sans-serif" font-size="18" fill="rgba(255,255,255,1)" transform="matrix(0.9319757253231328 -0.3625206854903877 0.3625206854903877 0.9319757253231328 -61.984402169790016 -75.71365842655922)">r</text>
<text x="0" y="0" text-anchor="start" font-family="Verdana-Bold, Helvetica, Arial, sans-serif" font-size="18" fill="rgba(255,255,255,1)" transform="matrix(0.9319757253231328 -0.3625206854903877 0.3625206854903877 0.9319757253231328 -56.39813967220314 -77.8866074153886)">i</text>
<text x="0" y="0" text-anchor="start" font-family="Verdana-Bold, Helvetica, Arial, sans-serif" font-size="18" fill="rgba(255,255,255,1)" transform="matrix(0.9487671164533893 -0.3159761996364929 0.3159761996364929 0.9487671164533893 -53.08745659969579 -79.31493498265422)">z</text>
<text x="0" y="0" text-anchor="start" font-family="Verdana-Bold, Helvetica, Arial, sans-serif" font-size="18" fill="rgba(255,255,255,1)" transform="matrix(0.97536188768969 -0.22061094270775516 0.22061094270775516 0.97536188768969 -45.4386643909605 -82.43758996474267)">o</text>
<text x="0" y="0" text-anchor="start" font-family="Verdana-Bold, Helvetica, Arial, sans-serif" font-size="18" fill="rgba(255,255,255,1)" transform="matrix(0.9850516683714836 -0.172259138040792 0.172259138040792 0.9850516683714836 -36.129663500105366 -84.89532082803834)">n</text>
<text x="0" y="0" text-anchor="start" font-family="Verdana-Bold, Helvetica, Arial, sans-serif" font-size="18" fill="rgba(255,255,255,1)" transform="matrix(0.9923269213335336 -0.1236417453642219 0.1236417453642219 0.9923269213335336 -26.692858606961657 -86.77929465840256)"> </text>
<text x="0" y="0" text-anchor="start" font-family="Verdana-Bold, Helvetica, Arial, sans-serif" font-size="18" fill="rgba(255,255,255,1)" transform="matrix(0.9923269213335336 -0.1236417453642219 0.1236417453642219 0.9923269213335336 -21.727254692608568 -87.39799795220515)">f</text>
<text x="0" y="0" text-anchor="start" font-family="Verdana-Bold, Helvetica, Arial, sans-serif" font-size="18" fill="rgba(255,255,255,1)" transform="matrix(0.9971940274311574 -0.07486034768572788 0.07486034768572788 0.9971940274311574 -17.162526552236244 -88.08425118097279)">l</text>
<text x="0" y="0" text-anchor="start" font-family="Verdana-Bold, Helvetica, Arial, sans-serif" font-size="18" fill="rgba(255,255,255,1)" transform="matrix(0.9996616924018259 -0.026009627915778554 0.026009627915778554 0.9996616924018259 -13.583034520385763 -88.6504916541538)">o</text>
<text x="0" y="0" text-anchor="start" font-family="Verdana-Bold, Helvetica, Arial, sans-serif" font-size="18" fill="rgba(255,255,255,1)" transform="matrix(0.9974371817877502 0.07154766514227172 -0.07154766514227172 0.9974371817877502 -4.333370978110873 -89.64688717444764)">w</text>
<text x="0" y="0" text-anchor="start" font-family="Verdana-Bold, Helvetica, Arial, sans-serif" font-size="18" fill="rgba(255,255,255,1)" transform="matrix(0.9927633895316192 0.12008685359226642 -0.12008685359226642 0.9927633895316192 8.268402693166706 -89.03893709966692)">s</text>
<text x="0" y="0" text-anchor="start" font-family="Verdana-Bold, Helvetica, Arial, sans-serif" font-size="18" fill="rgba(255,255,255,1)" transform="matrix(0.9857260471575101 0.16835723909363162 -0.16835723909363162 0.9857260471575101 16.84891743750105 -88.23262625030284)"> </text>
<text x="0" y="0" text-anchor="start" font-family="Verdana-Bold, Helvetica, Arial, sans-serif" font-size="18" fill="rgba(255,255,255,1)" transform="matrix(0.9763322205402022 0.2162762010370949 -0.2162762010370949 0.9763322205402022 21.465575114444086 -87.8093170155974)">c</text>
<text x="0" y="0" text-anchor="start" font-family="Verdana-Bold, Helvetica, Arial, sans-serif" font-size="18" fill="rgba(255,255,255,1)" transform="matrix(0.9763322205402022 0.2162762010370949 -0.2162762010370949 0.9763322205402022 30.252565099305883 -85.86283120626356)">l</text>
<text x="0" y="0" text-anchor="start" font-family="Verdana-Bold, Helvetica, Arial, sans-serif" font-size="18" fill="rgba(255,255,255,1)" transform="matrix(0.9505031236283783 0.310715001203186 -0.310715001203186 0.9505031236283783 33.55462215885801 -85.74120726456854)">o</text>
<text x="0" y="0" text-anchor="start" font-family="Verdana-Bold, Helvetica, Arial, sans-serif" font-size="18" fill="rgba(255,255,255,1)" transform="matrix(0.9340849016999294 0.3570509717340553 -0.3570509717340553 0.9340849016999294 42.81533846313691 -83.09810999671475)">c</text>
<text x="0" y="0" text-anchor="start" font-family="Verdana-Bold, Helvetica, Arial, sans-serif" font-size="18" fill="rgba(255,255,255,1)" transform="matrix(0.9153471903078881 0.4026655202465873 -0.4026655202465873 0.9153471903078881 50.96885388425073 -80.30639358141227)">k</text>
<text x="0" y="0" text-anchor="start" font-family="Verdana-Bold, Helvetica, Arial, sans-serif" font-size="18" fill="rgba(255,255,255,1)" transform="matrix(0.8710444910563651 0.49120412722243906 -0.49120412722243906 0.8710444910563651 58.888649223803 -77.79486078406308)">w</text>
<text x="0" y="0" text-anchor="start" font-family="Verdana-Bold, Helvetica, Arial, sans-serif" font-size="18" fill="rgba(255,255,255,1)" transform="matrix(0.8710444910563651 0.49120412722243906 -0.49120412722243906 0.8710444910563651 70.20874342957151 -71.41117194668024)">i</text>
<text x="0" y="0" text-anchor="start" font-family="Verdana-Bold, Helvetica, Arial, sans-serif" font-size="18" fill="rgba(255,255,255,1)" transform="matrix(0.8456804984889011 0.5336895113036827 -0.5336895113036827 0.8456804984889011 73.43316327573946 -69.79127978789518)">s</text>
<text x="0" y="0" text-anchor="start" font-family="Verdana-Bold, Helvetica, Arial, sans-serif" font-size="18" fill="rgba(255,255,255,1)" transform="matrix(0.789109011813693 0.6142531786441295 -0.6142531786441295 0.789109011813693 80.74159820711151 -65.91113822780424)">e</text>
<text x="0" y="0" text-anchor="start" font-family="Verdana-Bold, Helvetica, Arial, sans-serif" font-size="18" fill="rgba(255,255,255,1)" transform="matrix(0.2490238490469195 0.9684973529162881 -0.9684973529162881 0.2490238490469195 -161.970194335243 92.46314557036902)">t</text>
<text x="0" y="0" text-anchor="start" font-family="Verdana-Bold, Helvetica, Arial, sans-serif" font-size="18" fill="rgba(255,255,255,1)" transform="matrix(0.2966262631070904 0.9549936439762954 -0.9549936439762954 0.2966262631070904 -160.98675650025146 97.79548672837956)">e</text>
<text x="0" y="0" text-anchor="start" font-family="Verdana-Bold, Helvetica, Arial, sans-serif" font-size="18" fill="rgba(255,255,255,1)" transform="matrix(0.34334504460840937 0.9392093378703437 -0.9392093378703437 0.34334504460840937 -158.15035469636985 107.81415241771896)">x</text>
<text x="0" y="0" text-anchor="start" font-family="Verdana-Bold, Helvetica, Arial, sans-serif" font-size="18" fill="rgba(255,255,255,1)" transform="matrix(0.38908656821309934 0.9212011954161551 -0.9212011954161551 0.38908656821309934 -155.11098986341315 116.70966239667568)">t</text>
<text x="0" y="0" text-anchor="start" font-family="Verdana-Bold, Helvetica, Arial, sans-serif" font-size="18" fill="rgba(255,255,255,1)" transform="matrix(0.38908656821309934 0.9212011954161551 -0.9212011954161551 0.38908656821309934 -153.16400067607478 121.3193531785382)"> </text>
<text x="0" y="0" text-anchor="start" font-family="Verdana-Bold, Helvetica, Arial, sans-serif" font-size="18" fill="rgba(255,255,255,1)" transform="matrix(0.4773058476828704 0.8787372347680145 -0.8787372347680145 0.4773058476828704 -151.38423524099997 126.88903483802036)">b</text>
<text x="0" y="0" text-anchor="start" font-family="Verdana-Bold, Helvetica, Arial, sans-serif" font-size="18" fill="rgba(255,255,255,1)" transform="matrix(0.5196336521049891 0.8543891780681864 -0.8543891780681864 0.5196336521049891 -146.72165226461462 136.19984947358893)">e</text>
<text x="0" y="0" text-anchor="start" font-family="Verdana-Bold, Helvetica, Arial, sans-serif" font-size="18" fill="rgba(255,255,255,1)" transform="matrix(0.5196336521049891 0.8543891780681864 -0.8543891780681864 0.5196336521049891 -141.5211586743479 144.75057636769534)">l</text>
<text x="0" y="0" text-anchor="start" font-family="Verdana-Bold, Helvetica, Arial, sans-serif" font-size="18" fill="rgba(255,255,255,1)" transform="matrix(0.600379960637259 0.7997148884853923 -0.7997148884853923 0.600379960637259 -139.38895066100005 149.0801012748439)">o</text>
<text x="0" y="0" text-anchor="start" font-family="Verdana-Bold, Helvetica, Arial, sans-serif" font-size="18" fill="rgba(255,255,255,1)" transform="matrix(0.6386646695448479 0.7694851784636076 -0.7694851784636076 0.6386646695448479 -133.37857045755842 157.57947767431705)">w</text>
<text x="0" y="0" text-anchor="start" font-family="Verdana-Bold, Helvetica, Arial, sans-serif" font-size="18" fill="rgba(255,255,255,1)" transform="matrix(0.6754667946022131 0.7373904050025412 -0.7373904050025412 0.6754667946022131 -124.85622386746309 167.90420911127632)"> </text>
<text x="0" y="0" text-anchor="start" font-family="Verdana-Bold, Helvetica, Arial, sans-serif" font-size="18" fill="rgba(255,255,255,1)" transform="matrix(0.710715966928847 0.7034790788306317 -0.7034790788306317 0.710715966928847 -121.33197199790771 171.99835567128073)">h</text>
<text x="0" y="0" text-anchor="start" font-family="Verdana-Bold, Helvetica, Arial, sans-serif" font-size="18" fill="rgba(255,255,255,1)" transform="matrix(0.776257662817578 0.6304157682965991 -0.6304157682965991 0.776257662817578 -113.96449815312475 179.94474259155183)">o</text>
<text x="0" y="0" text-anchor="start" font-family="Verdana-Bold, Helvetica, Arial, sans-serif" font-size="18" fill="rgba(255,255,255,1)" transform="matrix(0.776257662817578 0.6304157682965991 -0.6304157682965991 0.776257662817578 -106.19571146364652 186.25394360066412)">r</text>
<text x="0" y="0" text-anchor="start" font-family="Verdana-Bold, Helvetica, Arial, sans-serif" font-size="18" fill="rgba(255,255,255,1)" transform="matrix(0.8063921649155639 0.5913811599660493 -0.5913811599660493 0.8063921649155639 -101.25188489164267 190.30137276654483)">i</text>
<text x="0" y="0" text-anchor="start" font-family="Verdana-Bold, Helvetica, Arial, sans-serif" font-size="18" fill="rgba(255,255,255,1)" transform="matrix(0.8346580026510965 0.550768570826697 -0.550768570826697 0.8346580026510965 -97.83087148894836 193.07202746710425)">z</text>
<text x="0" y="0" text-anchor="start" font-family="Verdana-Bold, Helvetica, Arial, sans-serif" font-size="18" fill="rgba(255,255,255,1)" transform="matrix(0.860917498146579 0.5087445934700782 -0.5087445934700782 0.860917498146579 -90.06819029102112 198.37574137986593)">o</text>
<text x="0" y="0" text-anchor="start" font-family="Verdana-Bold, Helvetica, Arial, sans-serif" font-size="18" fill="rgba(255,255,255,1)" transform="matrix(0.9069029010912488 0.42133968243244835 -0.42133968243244835 0.9069029010912488 -80.96999481394069 204.26811310694598)">n</text>
<text x="0" y="0" text-anchor="start" font-family="Verdana-Bold, Helvetica, Arial, sans-serif" font-size="18" fill="rgba(255,255,255,1)" transform="matrix(0.9069029010912488 0.42133968243244835 -0.42133968243244835 0.9069029010912488 -71.89371057981938 208.48488064872998)"> </text>
<text x="0" y="0" text-anchor="start" font-family="Verdana-Bold, Helvetica, Arial, sans-serif" font-size="18" fill="rgba(255,255,255,1)" transform="matrix(0.9265133629680027 0.3762618612638307 -0.3762618612638307 0.9265133629680027 -67.02436624192882 210.81777554827804)">f</text>
<text x="0" y="0" text-anchor="start" font-family="Verdana-Bold, Helvetica, Arial, sans-serif" font-size="18" fill="rgba(255,255,255,1)" transform="matrix(0.9265133629680027 0.3762618612638307 -0.3762618612638307 0.9265133629680027 -62.38809337363692 212.70058990204228)">l</text>
<text x="0" y="0" text-anchor="start" font-family="Verdana-Bold, Helvetica, Arial, sans-serif" font-size="18" fill="rgba(255,255,255,1)" transform="matrix(0.9588672591821301 0.2838548559890243 -0.2838548559890243 0.9588672591821301 -58.068536236900556 214.83942571239416)">o</text>
<text x="0" y="0" text-anchor="start" font-family="Verdana-Bold, Helvetica, Arial, sans-serif" font-size="18" fill="rgba(255,255,255,1)" transform="matrix(0.971580860720585 0.2367079024482437 -0.2367079024482437 0.971580860720585 -48.16559559945499 218.04368638610327)">w</text>
<text x="0" y="0" text-anchor="start" font-family="Verdana-Bold, Helvetica, Arial, sans-serif" font-size="18" fill="rgba(255,255,255,1)" transform="matrix(0.9900165621189829 0.1409510792087453 -0.1409510792087453 0.9900165621189829 -34.83854233631457 221.6566861750277)">s</text>
<text x="0" y="0" text-anchor="start" font-family="Verdana-Bold, Helvetica, Arial, sans-serif" font-size="18" fill="rgba(255,255,255,1)" transform="matrix(0.9900165621189829 0.1409510792087453 -0.1409510792087453 0.9900165621189829 -25.928393277243636 222.92524588790639)"> </text>
<text x="0" y="0" text-anchor="start" font-family="Verdana-Bold, Helvetica, Arial, sans-serif" font-size="18" fill="rgba(255,255,255,1)" transform="matrix(0.9957123064535848 0.09250406897473466 -0.09250406897473466 0.9957123064535848 -20.59549901316013 223.75034177736143)">c</text>
<text x="0" y="0" text-anchor="start" font-family="Verdana-Bold, Helvetica, Arial, sans-serif" font-size="18" fill="rgba(255,255,255,1)" transform="matrix(0.9999869067769472 -0.005117252648938728 0.005117252648938728 0.9999869067769472 -10.861207683603844 225.01126361221762)">o</text>
<text x="0" y="0" text-anchor="start" font-family="Verdana-Bold, Helvetica, Arial, sans-serif" font-size="18" fill="rgba(255,255,255,1)" transform="matrix(0.998534474991519 -0.05411933345313325 0.05411933345313325 0.998534474991519 -0.4532708643757051 225.22006206071177)">u</text>
<text x="0" y="0" text-anchor="start" font-family="Verdana-Bold, Helvetica, Arial, sans-serif" font-size="18" fill="rgba(255,255,255,1)" transform="matrix(0.9946683220557827 -0.10312579259687539 0.10312579259687539 0.9946683220557827 9.944632294010987 224.80618764142648)">n</text>
<text x="0" y="0" text-anchor="start" font-family="Verdana-Bold, Helvetica, Arial, sans-serif" font-size="18" fill="rgba(255,255,255,1)" transform="matrix(0.988374996585455 -0.15203573962954142 0.15203573962954142 0.988374996585455 20.296565811618024 223.77049235031768)">t</text>
<text x="0" y="0" text-anchor="start" font-family="Verdana-Bold, Helvetica, Arial, sans-serif" font-size="18" fill="rgba(255,255,255,1)" transform="matrix(0.9796445249421907 -0.20074014235022744 0.20074014235022744 0.9796445249421907 25.664377914822893 223.12032271154854)">e</text>
<text x="0" y="0" text-anchor="start" font-family="Verdana-Bold, Helvetica, Arial, sans-serif" font-size="18" fill="rgba(255,255,255,1)" transform="matrix(0.9684973529162881 -0.24902384904691932 0.24902384904691932 0.9684973529162881 35.871481296859365 221.09382964627508)">r</text>
<text x="0" y="0" text-anchor="start" font-family="Verdana-Bold, Helvetica, Arial, sans-serif" font-size="18" fill="rgba(255,255,255,1)" transform="matrix(0.9549936439762954 -0.29662626310709045 0.29662626310709045 0.9549936439762954 42.10174391210645 219.64920940300743)">-</text>
<text x="0" y="0" text-anchor="start" font-family="Verdana-Bold, Helvetica, Arial, sans-serif" font-size="18" fill="rgba(255,255,255,1)" transform="matrix(0.9392093378703437 -0.3433450446084093 0.3433450446084093 0.9392093378703437 48.279248728714656 217.9803302862547)">c</text>
<text x="0" y="0" text-anchor="start" font-family="Verdana-Bold, Helvetica, Arial, sans-serif" font-size="18" fill="rgba(255,255,255,1)" transform="matrix(0.921201195416155 -0.38908656821309956 0.38908656821309956 0.921201195416155 57.165841078463814 214.91831425826618)">l</text>
<text x="0" y="0" text-anchor="start" font-family="Verdana-Bold, Helvetica, Arial, sans-serif" font-size="18" fill="rgba(255,255,255,1)" transform="matrix(0.9010255341003627 -0.43376605088360276 0.43376605088360276 0.9010255341003627 61.355115934813945 213.5358898976421)">o</text>
<text x="0" y="0" text-anchor="start" font-family="Verdana-Bold, Helvetica, Arial, sans-serif" font-size="18" fill="rgba(255,255,255,1)" transform="matrix(0.8787372347680145 -0.4773058476828704 0.4773058476828704 0.8787372347680145 70.83561936355134 209.24055929570108)">c</text>
<text x="0" y="0" text-anchor="start" font-family="Verdana-Bold, Helvetica, Arial, sans-serif" font-size="18" fill="rgba(255,255,255,1)" transform="matrix(0.8543891780681864 -0.5196336521049892 0.5196336521049892 0.8543891780681864 79.17585771934652 204.91166441231744)">k</text>
<text x="0" y="0" text-anchor="start" font-family="Verdana-Bold, Helvetica, Arial, sans-serif" font-size="18" fill="rgba(255,255,255,1)" transform="matrix(0.7997148884853921 -0.6003799606372592 0.6003799606372592 0.7997148884853921 87.8638947420594 200.30200860301596)">w</text>
<text x="0" y="0" text-anchor="start" font-family="Verdana-Bold, Helvetica, Arial, sans-serif" font-size="18" fill="rgba(255,255,255,1)" transform="matrix(0.7997148884853921 -0.6003799606372592 0.6003799606372592 0.7997148884853921 98.25698943281552 192.49947063457418)">i</text>
<text x="0" y="0" text-anchor="start" font-family="Verdana-Bold, Helvetica, Arial, sans-serif" font-size="18" fill="rgba(255,255,255,1)" transform="matrix(0.7373904050025385 -0.675466794602216 0.675466794602216 0.7373904050025385 102.34959454825788 189.94438024796273)">s</text>
<text x="0" y="0" text-anchor="start" font-family="Verdana-Bold, Helvetica, Arial, sans-serif" font-size="18" fill="rgba(255,255,255,1)" transform="matrix(0.7034790788306339 -0.7107159669288449 0.7107159669288449 0.7034790788306339 109.51029075058561 183.84563234560835)">e</text>
</svg>