<svg xmlns="http://www.w3.org/2000/svg" viewBox="-217.04 -166.83 434.07 415.45">
<path d="M117.557,221.803 L0,136.393 L-117.557,221.803 L-72.654,83.607 L-190.211,-1.803 L-44.903,-1.803 L0,-140 L44.903,-1.803 L190.211,-1.803 L72.654,83.607 Z" fill="rgba(0,0,0,0)" stroke="rgba(0,0,0,1)" stroke-width="2"/>
<path d="M12,60 C12,66.627 6.627,72 0,72 C-6.627,72 -12,66.627 -12,60 C-12,53.373 -6.627,48 0,48 C6.627,48 12,53.373 12,60 Z" fill="rgba(0,225,34,0.5843137254901961)"/>
<text x="-7.007999999999999" y="8" text-anchor="start" font-family="Verdana, Helvetica, Arial, sans-serif" font-size="24" fill="rgba(255,255,250,1)" transform="matrix(1 0 0 1 0 60)">+</text>
<path d="M4,40.902 C4,43.111 2.209,44.902 0,44.902 C-2.209,44.902 -4,43.111 -4,40.902 C-4,38.693 -2.209,36.902 0,36.902 C2.209,36.902 4,38.693 4,40.902 Z" fill="rgba(0,0,0,1)"/>
</svg>