<svg xmlns="http://www.w3.org/2000/svg" viewBox="-184.73 -124.73 369.46 369.46">
<text x="70" y="0" text-anchor="start" font-family="Verdana, Helvetica, Arial, sans-serif" font-size="12" fill="rgba(0,0,0,1)" transform="matrix(1 0 0 1 0 60)">here is some text</text>
<text x="70" y="0" text-anchor="start" font-family="Verdana, Helvetica, Arial, sans-serif" font-size="12" fill="rgba(0,0,0,1)" transform="matrix(-0.8660254037844388 -0.49999999999999983 0.49999999999999983 -0.8660254037844388 203.550565622798 170.17607843193093)">here is some text</text>
<text x="70" y="0" text-anchor="start" font-family="Verdana, Helvetica, Arial, sans-serif" font-size="12" fill="rgba(0,0,0,1)" transform="matrix(-0.5000000000000002 -0.8660254037844385 0.8660254037844385 -0.5000000000000002 121.19192156806908 257.190565622798)">here is some text</text>
<text x="70" y="0" text-anchor="start" font-family="Verdana, Helvetica, Arial, sans-serif" font-size="12" fill="rgba(0,0,0,1)" transform="matrix(-1.8369701987210297e-16 -1 1 -1.8369701987210297e-16 6.36000000000003 291.368)">here is some text</text>
<text x="70" y="0" text-anchor="start" font-family="Verdana, Helvetica, Arial, sans-serif" font-size="12" fill="rgba(0,0,0,1)" transform="matrix(0.49999999999999967 -0.8660254037844388 0.8660254037844388 0.49999999999999967 -110.17607843193089 263.550565622798)">here is some text</text>
<text x="70" y="0" text-anchor="start" font-family="Verdana, Helvetica, Arial, sans-serif" font-size="12" fill="rgba(0,0,0,1)" transform="matrix(0.8660254037844386 -0.5 0.5 0.8660254037844386 -197.19056562279798 181.191921568069)">here is some text</text>
<text x="70" y="0" text-anchor="start" font-family="Verdana, Helvetica, Arial, sans-serif" font-size="12" fill="rgba(0,0,0,1)" transform="matrix(1 -2.4492935982947064e-16 2.4492935982947064e-16 1 -231.368 66.36000000000004)">here is some text</text>
<text x="70" y="0" text-anchor="start" font-family="Verdana, Helvetica, Arial, sans-serif" font-size="12" fill="rgba(0,0,0,1)" transform="matrix(-0.8660254037844386 -0.5000000000000001 0.5000000000000001 -0.8660254037844386 0 60)">here is some text</text>
<text x="70" y="0" text-anchor="start" font-family="Verdana, Helvetica, Arial, sans-serif" font-size="12" fill="rgba(0,0,0,1)" transform="matrix(-0.5000000000000004 -0.8660254037844385 0.8660254037844385 -0.5000000000000004 0 60)">here is some text</text>
<text x="70" y="0" text-anchor="start" font-family="Verdana, Helvetica, Arial, sans-serif" font-size="12" fill="rgba(0,0,0,1)" transform="matrix(-1.8369701987210297e-16 -1 1 -1.8369701987210297e-16 0 60)">here is some text</text>
<text x="70" y="0" text-anchor="start" font-family="Verdana, Helvetica, Arial, sans-serif" font-size="12" fill="rgba(0,0,0,1)" transform="matrix(0.5000000000000001 -0.8660254037844386 0.8660254037844386 0.5000000000000001 0 60)">here is some text</text>
<text x="70" y="0" text-anchor="start" font-family="Verdana, Helvetica, Arial, sans-serif" font-size="12" fill="rgba(0,0,0,1)" transform="matrix(0.8660254037844384 -0.5000000000000004 0.5000000000000004 0.8660254037844384 0 60)">here is some text</text>
</svg>