<svg xmlns="http://www.w3.org/2000/svg" viewBox="-240.05 -141.92 435.85 393.78">
<path d="M168.875,177.5 L-168.875,177.5 L0,-115 Z" fill="rgba(0,0,0,0)" stroke="rgba(0,0,0,1)" stroke-width="2"/>
<path d="M-191.304,139.329 L-180.65,144.395 L-173.663,152.473 L-162.957,147.423 L-152.983,140.526 L-143.445,138.991 L-145.045,147.267 L-152.473,156.646 L-147.299,164.797 L-140.457,174.999 L-137.011,185.959 L-127.608,192.511 L-126.407,200.84 L-138.133,200.076 L-144.943,209.483 L-156.266,213.497 L-158.961,224.934 L-166.577,221.351 L-170.095,210.445 L-179.57,203.947 L-187.328,194.423 L-193.611,187.093 L-204.751,191.456 L-213.134,190.569 L-208.879,181.896 L-199.369,174.372 L-191.411,165.609 L-197.096,156.566 L-198.827,144.897 Z" fill="rgba(81,191,81,0.5019607843137255)" stroke="rgba(0,70,0,1)" stroke-width="0.5"/>
</svg>