<svg xmlns="http://www.w3.org/2000/svg" viewBox="-264.33 -283.73 528.66 667.47">
<path d="M219,-166.463 L174,-88.521 L84,-88.521 L39,-166.463 L84,-244.406 L174,-244.406 Z" fill="rgba(0,0,0,0)" stroke="rgba(0,0,0,1)" stroke-width="2"/>
<path d="M225,42.669 L152.188,95.57 L62.188,95.57 L-10.623,42.669 L-38.435,-42.926 L-10.623,-128.521" fill="rgba(0,0,0,0)" stroke="rgba(0,0,0,1)" stroke-width="2"/>
<path d="M225,157.273 L144.809,198.132 L54.809,198.132 L-25.381,157.273 L-78.282,84.462 L-92.361,-4.43" fill="rgba(0,0,0,0)" stroke="rgba(0,0,0,1)" stroke-width="2"/>
<path d="M225,243.844 L139.405,271.656 L49.405,271.656 L-36.19,243.844 L-109.002,190.944 L-161.902,118.132" fill="rgba(0,0,0,0)" stroke="rgba(0,0,0,1)" stroke-width="2"/>
<path d="M225,300.327 L136.108,314.406 L46.108,314.406 L-42.784,300.327 L-128.379,272.515 L-208.57,231.656" fill="rgba(0,0,0,0)" stroke="rgba(0,0,0,1)" stroke-width="2"/>
<path d="M225,344.406 L135,344.406 L45,344.406 L-45,344.406 L-135,344.406 L-225,344.406" fill="rgba(0,0,0,0)" stroke="rgba(0,0,0,1)" stroke-width="2"/>
</svg>