<svg xmlns="http://www.w3.org/2000/svg" viewBox="-250.4 -150.4 500.8 410.8">
<path d="M-213.622,-116.394 L-205.926,-55 L-195,-55 L-184.074,-55 L-175.926,-120 L-165,-120 L-154.074,-120 L-145.926,-55 L-135,-55 L-124.074,-55 L-115.926,-120 L-105,-120 L-94.074,-120 L-85.926,-55 L-75,-55 L-64.074,-55 L-55.926,-120 L-45,-120 L-34.074,-120 L-25.926,-55 L-15,-55 L-4.074,-55 L4.074,-120 L15,-120 L25.926,-120 L34.074,-55 L45,-55 L55.926,-55 L64.074,-120 L75,-120 L85.926,-120 L94.074,-55 L105,-55 L115.926,-55 L124.074,-120 L135,-120 L145.926,-120 L154.074,-55 L165,-55 L175.926,-55 L184.074,-120 L195,-120 L205.926,-120 L213.622,-58.606" fill="none" stroke="rgba(0,0,0,1)" stroke-width="1"/>
<path d="M-220,-25 L-210,-25 L-210,40 L-180,40 L-180,-25 L-150,-25 L-150,40 L-120,40 L-120,-25 L-90,-25 L-90,40 L-60,40 L-60,-25 L-30,-25 L-30,40 L0,40 L0,-25 L30,-25 L30,40 L60,40 L60,-25 L90,-25 L90,40 L120,40 L120,-25 L150,-25 L150,40 L180,40 L180,-25 L210,-25 L210,40 L220,40" fill="none" stroke="rgba(0,0,0,1)" stroke-width="1"/>
<path d="M-220,113.333 L-195,135 L-165,70 L-135,135 L-105,70 L-75,135 L-45,70 L-15,135 L15,70 L45,135 L75,70 L105,135 L135,70 L165,135 L195,70 L220,113.333" fill="none" stroke="rgba(0,0,0,1)" stroke-width="1"/>
<path d="M-220,186.667 L-210,165 L-210,230 L-150,165 L-150,230 L-90,165 L-90,230 L-30,165 L-30,230 L30,165 L30,230 L90,165 L90,230 L150,165 L150,230 L210,165 L210,230 L220,208.333" fill="none" stroke="rgba(0,0,0,1)" stroke-width="1"/>
</svg>