<svg xmlns="http://www.w3.org/2000/svg" viewBox="-243.26 -149.63 486.51 124.27">
<path d="M-213.622,-116.394 L-205.926,-55 L-195,-55 L-184.074,-55 L-175.926,-120 L-165,-120 L-154.074,-120 L-145.926,-55 L-135,-55 L-124.074,-55 L-115.926,-120 L-105,-120 L-94.074,-120 L-85.926,-55 L-75,-55 L-64.074,-55 L-55.926,-120 L-45,-120 L-34.074,-120 L-25.926,-55 L-15,-55 L-4.074,-55 L4.074,-120 L15,-120 L25.926,-120 L34.074,-55 L45,-55 L55.926,-55 L64.074,-120 L75,-120 L85.926,-120 L94.074,-55 L105,-55 L115.926,-55 L124.074,-120 L135,-120 L145.926,-120 L154.074,-55 L165,-55 L175.926,-55 L184.074,-120 L195,-120 L205.926,-120 L213.622,-58.606" fill="none" stroke="rgba(0,0,0,1)" stroke-width="1"/>
</svg>