<svg xmlns="http://www.w3.org/2000/svg" viewBox="-256 -167 512 454">
<path d="M-225,-136 L-207,-136 L-207,-118 L-225,-118 Z" fill="rgba(241,233,205,1)" stroke="rgba(0,0,0,1)" stroke-width="1"/>
<path d="M-225,-114 L-207,-114 L-207,-96 L-225,-96 Z" fill="rgba(242,231,207,1)" stroke="rgba(0,0,0,1)" stroke-width="1"/>
<path d="M-225,-92 L-207,-92 L-207,-74 L-225,-74 Z" fill="rgba(236,230,208,1)" stroke="rgba(0,0,0,1)" stroke-width="1"/>
<path d="M-225,-70 L-207,-70 L-207,-52 L-225,-52 Z" fill="rgba(242,234,204,1)" stroke="rgba(0,0,0,1)" stroke-width="1"/>
<path d="M-225,-48 L-207,-48 L-207,-30 L-225,-30 Z" fill="rgba(243,233,202,1)" stroke="rgba(0,0,0,1)" stroke-width="1"/>
<path d="M-225,-26 L-207,-26 L-207,-8 L-225,-8 Z" fill="rgba(242,235,205,1)" stroke="rgba(0,0,0,1)" stroke-width="1"/>
<path d="M-225,-4 L-207,-4 L-207,14 L-225,14 Z" fill="rgba(230,225,201,1)" stroke="rgba(0,0,0,1)" stroke-width="1"/>
<path d="M-225,18 L-207,18 L-207,36 L-225,36 Z" fill="rgba(226,221,198,1)" stroke="rgba(0,0,0,1)" stroke-width="1"/>
<path d="M-177,-136 L-159,-136 L-159,-118 L-177,-118 Z" fill="rgba(203,200,183,1)" stroke="rgba(0,0,0,1)" stroke-width="1"/>
<path d="M-177,-114 L-159,-114 L-159,-96 L-177,-96 Z" fill="rgba(191,187,176,1)" stroke="rgba(0,0,0,1)" stroke-width="1"/>
<path d="M-177,-92 L-159,-92 L-159,-74 L-177,-74 Z" fill="rgba(190,190,179,1)" stroke="rgba(0,0,0,1)" stroke-width="1"/>
<path d="M-177,-70 L-159,-70 L-159,-52 L-177,-52 Z" fill="rgba(183,181,172,1)" stroke="rgba(0,0,0,1)" stroke-width="1"/>
<path d="M-177,-48 L-159,-48 L-159,-30 L-177,-30 Z" fill="rgba(186,177,145,1)" stroke="rgba(0,0,0,1)" stroke-width="1"/>
<path d="M-177,-26 L-159,-26 L-159,-8 L-177,-8 Z" fill="rgba(156,157,154,1)" stroke="rgba(0,0,0,1)" stroke-width="1"/>
<path d="M-177,-4 L-159,-4 L-159,14 L-177,14 Z" fill="rgba(138,141,132,1)" stroke="rgba(0,0,0,1)" stroke-width="1"/>
<path d="M-177,18 L-159,18 L-159,36 L-177,36 Z" fill="rgba(91,92,97,1)" stroke="rgba(0,0,0,1)" stroke-width="1"/>
<path d="M-129,-136 L-111,-136 L-111,-118 L-129,-118 Z" fill="rgba(85,81,82,1)" stroke="rgba(0,0,0,1)" stroke-width="1"/>
<path d="M-129,-114 L-111,-114 L-111,-96 L-129,-96 Z" fill="rgba(65,63,68,1)" stroke="rgba(0,0,0,1)" stroke-width="1"/>
<path d="M-129,-92 L-111,-92 L-111,-74 L-129,-74 Z" fill="rgba(69,68,69,1)" stroke="rgba(0,0,0,1)" stroke-width="1"/>
<path d="M-129,-70 L-111,-70 L-111,-52 L-129,-52 Z" fill="rgba(66,57,55,1)" stroke="rgba(0,0,0,1)" stroke-width="1"/>
<path d="M-129,-48 L-111,-48 L-111,-30 L-129,-30 Z" fill="rgba(67,54,53,1)" stroke="rgba(0,0,0,1)" stroke-width="1"/>
<path d="M-129,-26 L-111,-26 L-111,-8 L-129,-8 Z" fill="rgba(37,32,36,1)" stroke="rgba(0,0,0,1)" stroke-width="1"/>
<path d="M-129,-4 L-111,-4 L-111,14 L-129,14 Z" fill="rgba(36,31,32,1)" stroke="rgba(0,0,0,1)" stroke-width="1"/>
<path d="M-81,-136 L-63,-136 L-63,-118 L-81,-118 Z" fill="rgba(40,31,63,1)" stroke="rgba(0,0,0,1)" stroke-width="1"/>
<path d="M-81,-114 L-63,-114 L-63,-96 L-81,-96 Z" fill="rgba(28,25,73,1)" stroke="rgba(0,0,0,1)" stroke-width="1"/>
<path d="M-81,-92 L-63,-92 L-63,-74 L-81,-74 Z" fill="rgba(79,99,141,1)" stroke="rgba(0,0,0,1)" stroke-width="1"/>
<path d="M-81,-70 L-63,-70 L-63,-52 L-81,-52 Z" fill="rgba(56,56,103,1)" stroke="rgba(0,0,0,1)" stroke-width="1"/>
<path d="M-81,-48 L-63,-48 L-63,-30 L-81,-30 Z" fill="rgba(92,107,143,1)" stroke="rgba(0,0,0,1)" stroke-width="1"/>
<path d="M-81,-26 L-63,-26 L-63,-8 L-81,-8 Z" fill="rgba(101,122,187,1)" stroke="rgba(0,0,0,1)" stroke-width="1"/>
<path d="M-81,-4 L-63,-4 L-63,14 L-81,14 Z" fill="rgba(111,136,175,1)" stroke="rgba(0,0,0,1)" stroke-width="1"/>
<path d="M-81,18 L-63,18 L-63,36 L-81,36 Z" fill="rgba(121,148,181,1)" stroke="rgba(0,0,0,1)" stroke-width="1"/>
<path d="M-81,40 L-63,40 L-63,58 L-81,58 Z" fill="rgba(111,181,168,1)" stroke="rgba(0,0,0,1)" stroke-width="1"/>
<path d="M-81,62 L-63,62 L-63,80 L-81,80 Z" fill="rgba(113,155,162,1)" stroke="rgba(0,0,0,1)" stroke-width="1"/>
<path d="M-81,84 L-63,84 L-63,102 L-81,102 Z" fill="rgba(138,161,166,1)" stroke="rgba(0,0,0,1)" stroke-width="1"/>
<path d="M-33,-136 L-15,-136 L-15,-118 L-33,-118 Z" fill="rgba(208,213,211,1)" stroke="rgba(0,0,0,1)" stroke-width="1"/>
<path d="M-33,-114 L-15,-114 L-15,-96 L-33,-96 Z" fill="rgba(133,144,174,1)" stroke="rgba(0,0,0,1)" stroke-width="1"/>
<path d="M-33,-92 L-15,-92 L-15,-74 L-33,-74 Z" fill="rgba(58,47,82,1)" stroke="rgba(0,0,0,1)" stroke-width="1"/>
<path d="M-33,-70 L-15,-70 L-15,-52 L-33,-52 Z" fill="rgba(57,51,74,1)" stroke="rgba(0,0,0,1)" stroke-width="1"/>
<path d="M-33,-48 L-15,-48 L-15,-30 L-33,-30 Z" fill="rgba(108,109,148,1)" stroke="rgba(0,0,0,1)" stroke-width="1"/>
<path d="M-33,-26 L-15,-26 L-15,-8 L-33,-8 Z" fill="rgba(88,76,119,1)" stroke="rgba(0,0,0,1)" stroke-width="1"/>
<path d="M-33,-4 L-15,-4 L-15,14 L-33,14 Z" fill="rgba(83,53,82,1)" stroke="rgba(0,0,0,1)" stroke-width="1"/>
<path d="M-33,18 L-15,18 L-15,36 L-33,36 Z" fill="rgba(70,55,89,1)" stroke="rgba(0,0,0,1)" stroke-width="1"/>
<path d="M-33,40 L-15,40 L-15,58 L-33,58 Z" fill="rgba(191,186,192,1)" stroke="rgba(0,0,0,1)" stroke-width="1"/>
<path d="M-33,62 L-15,62 L-15,80 L-33,80 Z" fill="rgba(119,116,127,1)" stroke="rgba(0,0,0,1)" stroke-width="1"/>
<path d="M-33,84 L-15,84 L-15,102 L-33,102 Z" fill="rgba(74,71,92,1)" stroke="rgba(0,0,0,1)" stroke-width="1"/>
<path d="M15,-136 L33,-136 L33,-118 L15,-118 Z" fill="rgba(184,191,175,1)" stroke="rgba(0,0,0,1)" stroke-width="1"/>
<path d="M15,-114 L33,-114 L33,-96 L15,-96 Z" fill="rgba(178,181,153,1)" stroke="rgba(0,0,0,1)" stroke-width="1"/>
<path d="M15,-92 L33,-92 L33,-74 L15,-74 Z" fill="rgba(151,156,132,1)" stroke="rgba(0,0,0,1)" stroke-width="1"/>
<path d="M15,-70 L33,-70 L33,-52 L15,-52 Z" fill="rgba(93,97,97,1)" stroke="rgba(0,0,0,1)" stroke-width="1"/>
<path d="M15,-48 L33,-48 L33,-30 L15,-30 Z" fill="rgba(97,172,134,1)" stroke="rgba(0,0,0,1)" stroke-width="1"/>
<path d="M15,-26 L33,-26 L33,-8 L15,-8 Z" fill="rgba(164,182,167,1)" stroke="rgba(0,0,0,1)" stroke-width="1"/>
<path d="M15,-4 L33,-4 L33,14 L15,14 Z" fill="rgba(173,186,152,1)" stroke="rgba(0,0,0,1)" stroke-width="1"/>
<path d="M15,18 L33,18 L33,36 L15,36 Z" fill="rgba(147,183,120,1)" stroke="rgba(0,0,0,1)" stroke-width="1"/>
<path d="M15,40 L33,40 L33,58 L15,58 Z" fill="rgba(125,140,85,1)" stroke="rgba(0,0,0,1)" stroke-width="1"/>
<path d="M15,62 L33,62 L33,80 L15,80 Z" fill="rgba(51,67,30,1)" stroke="rgba(0,0,0,1)" stroke-width="1"/>
<path d="M15,84 L33,84 L33,102 L15,102 Z" fill="rgba(124,134,53,1)" stroke="rgba(0,0,0,1)" stroke-width="1"/>
<path d="M15,106 L33,106 L33,124 L15,124 Z" fill="rgba(142,152,73,1)" stroke="rgba(0,0,0,1)" stroke-width="1"/>
<path d="M15,128 L33,128 L33,146 L15,146 Z" fill="rgba(194,193,144,1)" stroke="rgba(0,0,0,1)" stroke-width="1"/>
<path d="M15,150 L33,150 L33,168 L15,168 Z" fill="rgba(103,118,91,1)" stroke="rgba(0,0,0,1)" stroke-width="1"/>
<path d="M15,172 L33,172 L33,190 L15,190 Z" fill="rgba(171,146,75,1)" stroke="rgba(0,0,0,1)" stroke-width="1"/>
<path d="M15,194 L33,194 L33,212 L15,212 Z" fill="rgba(200,199,111,1)" stroke="rgba(0,0,0,1)" stroke-width="1"/>
<path d="M63,-136 L81,-136 L81,-118 L63,-118 Z" fill="rgba(204,192,80,1)" stroke="rgba(0,0,0,1)" stroke-width="1"/>
<path d="M63,-114 L81,-114 L81,-96 L63,-96 Z" fill="rgba(235,221,153,1)" stroke="rgba(0,0,0,1)" stroke-width="1"/>
<path d="M63,-92 L81,-92 L81,-74 L63,-74 Z" fill="rgba(171,150,73,1)" stroke="rgba(0,0,0,1)" stroke-width="1"/>
<path d="M63,-70 L81,-70 L81,-52 L63,-52 Z" fill="rgba(219,195,100,1)" stroke="rgba(0,0,0,1)" stroke-width="1"/>
<path d="M63,-48 L81,-48 L81,-30 L63,-30 Z" fill="rgba(230,208,88,1)" stroke="rgba(0,0,0,1)" stroke-width="1"/>
<path d="M63,-26 L81,-26 L81,-8 L63,-8 Z" fill="rgba(234,214,101,1)" stroke="rgba(0,0,0,1)" stroke-width="1"/>
<path d="M63,-4 L81,-4 L81,14 L63,14 Z" fill="rgba(208,155,44,1)" stroke="rgba(0,0,0,1)" stroke-width="1"/>
<path d="M63,18 L81,18 L81,36 L63,36 Z" fill="rgba(163,102,41,1)" stroke="rgba(0,0,0,1)" stroke-width="1"/>
<path d="M63,40 L81,40 L81,58 L63,58 Z" fill="rgba(167,125,53,1)" stroke="rgba(0,0,0,1)" stroke-width="1"/>
<path d="M63,62 L81,62 L81,80 L63,80 Z" fill="rgba(240,214,150,1)" stroke="rgba(0,0,0,1)" stroke-width="1"/>
<path d="M63,84 L81,84 L81,102 L63,102 Z" fill="rgba(215,196,133,1)" stroke="rgba(0,0,0,1)" stroke-width="1"/>
<path d="M63,106 L81,106 L81,124 L63,124 Z" fill="rgba(241,210,140,1)" stroke="rgba(0,0,0,1)" stroke-width="1"/>
<path d="M63,128 L81,128 L81,146 L63,146 Z" fill="rgba(239,204,131,1)" stroke="rgba(0,0,0,1)" stroke-width="1"/>
<path d="M63,150 L81,150 L81,168 L63,168 Z" fill="rgba(243,218,167,1)" stroke="rgba(0,0,0,1)" stroke-width="1"/>
<path d="M111,-136 L129,-136 L129,-118 L111,-118 Z" fill="rgba(223,168,55,1)" stroke="rgba(0,0,0,1)" stroke-width="1"/>
<path d="M111,-114 L129,-114 L129,-96 L111,-96 Z" fill="rgba(235,188,113,1)" stroke="rgba(0,0,0,1)" stroke-width="1"/>
<path d="M111,-92 L129,-92 L129,-74 L111,-74 Z" fill="rgba(209,124,63,1)" stroke="rgba(0,0,0,1)" stroke-width="1"/>
<path d="M111,-70 L129,-70 L129,-52 L111,-52 Z" fill="rgba(146,70,47,1)" stroke="rgba(0,0,0,1)" stroke-width="1"/>
<path d="M111,-48 L129,-48 L129,-30 L111,-30 Z" fill="rgba(190,114,73,1)" stroke="rgba(0,0,0,1)" stroke-width="1"/>
<path d="M111,-26 L129,-26 L129,-8 L111,-8 Z" fill="rgba(187,96,60,1)" stroke="rgba(0,0,0,1)" stroke-width="1"/>
<path d="M159,-136 L177,-136 L177,-118 L159,-118 Z" fill="rgba(199,107,74,1)" stroke="rgba(0,0,0,1)" stroke-width="1"/>
<path d="M159,-114 L177,-114 L177,-96 L159,-96 Z" fill="rgba(167,85,54,1)" stroke="rgba(0,0,0,1)" stroke-width="1"/>
<path d="M159,-92 L177,-92 L177,-74 L159,-74 Z" fill="rgba(182,62,54,1)" stroke="rgba(0,0,0,1)" stroke-width="1"/>
<path d="M159,-70 L177,-70 L177,-52 L159,-52 Z" fill="rgba(181,73,58,1)" stroke="rgba(0,0,0,1)" stroke-width="1"/>
<path d="M159,-48 L177,-48 L177,-30 L159,-30 Z" fill="rgba(205,109,87,1)" stroke="rgba(0,0,0,1)" stroke-width="1"/>
<path d="M159,-26 L177,-26 L177,-8 L159,-8 Z" fill="rgba(113,21,24,1)" stroke="rgba(0,0,0,1)" stroke-width="1"/>
<path d="M159,-4 L177,-4 L177,14 L159,14 Z" fill="rgba(233,196,157,1)" stroke="rgba(0,0,0,1)" stroke-width="1"/>
<path d="M159,18 L177,18 L177,36 L159,36 Z" fill="rgba(238,218,195,1)" stroke="rgba(0,0,0,1)" stroke-width="1"/>
<path d="M159,40 L177,40 L177,58 L159,58 Z" fill="rgba(238,207,191,1)" stroke="rgba(0,0,0,1)" stroke-width="1"/>
<path d="M159,62 L177,62 L177,80 L159,80 Z" fill="rgba(206,83,107,1)" stroke="rgba(0,0,0,1)" stroke-width="1"/>
<path d="M159,84 L177,84 L177,102 L159,102 Z" fill="rgba(183,74,112,1)" stroke="rgba(0,0,0,1)" stroke-width="1"/>
<path d="M159,106 L177,106 L177,124 L159,124 Z" fill="rgba(183,117,124,1)" stroke="rgba(0,0,0,1)" stroke-width="1"/>
<path d="M159,128 L177,128 L177,146 L159,146 Z" fill="rgba(97,39,65,1)" stroke="rgba(0,0,0,1)" stroke-width="1"/>
<path d="M159,150 L177,150 L177,168 L159,168 Z" fill="rgba(122,72,72,1)" stroke="rgba(0,0,0,1)" stroke-width="1"/>
<path d="M159,172 L177,172 L177,190 L159,190 Z" fill="rgba(63,48,51,1)" stroke="rgba(0,0,0,1)" stroke-width="1"/>
<path d="M159,194 L177,194 L177,212 L159,212 Z" fill="rgba(141,116,111,1)" stroke="rgba(0,0,0,1)" stroke-width="1"/>
<path d="M159,216 L177,216 L177,234 L159,234 Z" fill="rgba(77,54,53,1)" stroke="rgba(0,0,0,1)" stroke-width="1"/>
<path d="M159,238 L177,238 L177,256 L159,256 Z" fill="rgba(110,59,49,1)" stroke="rgba(0,0,0,1)" stroke-width="1"/>
<path d="M207,-136 L225,-136 L225,-118 L207,-118 Z" fill="rgba(134,71,53,1)" stroke="rgba(0,0,0,1)" stroke-width="1"/>
<path d="M207,-114 L225,-114 L225,-96 L207,-96 Z" fill="rgba(85,61,58,1)" stroke="rgba(0,0,0,1)" stroke-width="1"/>
<path d="M207,-92 L225,-92 L225,-74 L207,-74 Z" fill="rgba(97,57,54,1)" stroke="rgba(0,0,0,1)" stroke-width="1"/>
<path d="M207,-70 L225,-70 L225,-52 L207,-52 Z" fill="rgba(122,75,58,1)" stroke="rgba(0,0,0,1)" stroke-width="1"/>
<path d="M207,-48 L225,-48 L225,-30 L207,-30 Z" fill="rgba(148,105,67,1)" stroke="rgba(0,0,0,1)" stroke-width="1"/>
<path d="M207,-26 L225,-26 L225,-8 L207,-8 Z" fill="rgba(195,158,109,1)" stroke="rgba(0,0,0,1)" stroke-width="1"/>
<path d="M207,-4 L225,-4 L225,14 L207,14 Z" fill="rgba(81,62,50,1)" stroke="rgba(0,0,0,1)" stroke-width="1"/>
<path d="M207,18 L225,18 L225,36 L207,36 Z" fill="rgba(139,120,89,1)" stroke="rgba(0,0,0,1)" stroke-width="1"/>
<path d="M207,40 L225,40 L225,58 L207,58 Z" fill="rgba(155,133,107,1)" stroke="rgba(0,0,0,1)" stroke-width="1"/>
<path d="M207,62 L225,62 L225,80 L207,80 Z" fill="rgba(118,96,81,1)" stroke="rgba(0,0,0,1)" stroke-width="1"/>
<path d="M207,84 L225,84 L225,102 L207,102 Z" fill="rgba(69,59,50,1)" stroke="rgba(0,0,0,1)" stroke-width="1"/>
</svg>