<svg xmlns="http://www.w3.org/2000/svg" viewBox="-296.98 -95.96 593.97 331.92">
<text x="-4" y="0" text-anchor="start" font-family="Verdana, Helvetica, Arial, sans-serif" font-size="16" fill="rgba(0,0,0,1)" transform="matrix(0.21411528796759105 0.9768083964926568 -0.9768083964926568 0.21411528796759105 -110.44792831339838 76.44948846141354)">J</text>
<text x="-4.504161616161616" y="0" text-anchor="start" font-family="Verdana, Helvetica, Arial, sans-serif" font-size="16.2020202020202" fill="rgba(0,0,0,1)" transform="matrix(-0.25921951700349677 0.965818431178694 -0.965818431178694 -0.25921951700349677 -107.65931861166624 87.7106477691988)">a</text>
<text x="-4.560323232323233" y="0" text-anchor="start" font-family="Verdana, Helvetica, Arial, sans-serif" font-size="16.404040404040405" fill="rgba(0,0,0,1)" transform="matrix(-0.688038591553628 0.725674098017078 -0.725674098017078 -0.688038591553628 -114.57488106947567 97.70486297097919)">n</text>
<text x="-4.616484848484848" y="0" text-anchor="start" font-family="Verdana, Helvetica, Arial, sans-serif" font-size="16.606060606060606" fill="rgba(0,0,0,1)" transform="matrix(-0.930245904280633 0.36693672147811435 -0.36693672147811435 -0.930245904280633 -121.52590835884439 107.75033114905192)">u</text>
<text x="-4.672646464646466" y="0" text-anchor="start" font-family="Verdana, Helvetica, Arial, sans-serif" font-size="16.80808080808081" fill="rgba(0,0,0,1)" transform="matrix(-0.9999662560971775 0.008215026901597993 -0.008215026901597993 -0.9999662560971775 -131.75346059934947 112.20528961624488)">a</text>
<text x="-2.8321818181818186" y="0" text-anchor="start" font-family="Verdana, Helvetica, Arial, sans-serif" font-size="17.01010101010101" fill="rgba(0,0,0,1)" transform="matrix(-0.9505373337759797 -0.3106103299925034 0.3106103299925034 -0.9505373337759797 -142.41833743505214 113.03232246702193)">r</text>
<text x="-4.303030303030303" y="0" text-anchor="start" font-family="Verdana, Helvetica, Arial, sans-serif" font-size="17.21212121212121" fill="rgba(0,0,0,1)" transform="matrix(-0.821216568520625 -0.570616638021719 0.570616638021719 -0.821216568520625 -150.46331280888026 107.73537285992707)">y</text>
<text x="-2.420565656565657" y="0" text-anchor="start" font-family="Verdana, Helvetica, Arial, sans-serif" font-size="17.414141414141415" fill="rgba(0,0,0,1)" transform="matrix(-0.6079536830110676 -0.7939724927938488 0.7939724927938488 -0.6079536830110676 -157.47341892814234 100.67438232240617)"> </text>
<text x="-5.381737373737374" y="0" text-anchor="start" font-family="Verdana, Helvetica, Arial, sans-serif" font-size="17.616161616161616" fill="rgba(0,0,0,1)" transform="matrix(-0.1524848073974404 -0.9883058147724142 0.9883058147724142 -0.1524848073974404 -170.8778517655463 87.17265042056344)">F</text>
<text x="-4.953454545454546" y="0" text-anchor="start" font-family="Verdana, Helvetica, Arial, sans-serif" font-size="17.81818181818182" fill="rgba(0,0,0,1)" transform="matrix(0.15793692875840193 -0.9874492020019883 0.9874492020019883 0.15793692875840193 -171.47000461331325 74.86385055874825)">e</text>
<text x="-5.0096161616161625" y="0" text-anchor="start" font-family="Verdana, Helvetica, Arial, sans-serif" font-size="18.02020202020202" fill="rgba(0,0,0,1)" transform="matrix(0.44280027200060235 -0.8966202758783635 0.8966202758783635 0.44280027200060235 -170.29784226936647 62.266078003029406)">b</text>
<text x="-3.0340000000000003" y="0" text-anchor="start" font-family="Verdana, Helvetica, Arial, sans-serif" font-size="18.22222222222222" fill="rgba(0,0,0,1)" transform="matrix(0.6431090387159477 -0.7657746171830518 0.7657746171830518 0.6431090387159477 -163.57374388518468 54.66644727950431)">r</text>
<text x="-5.121939393939395" y="0" text-anchor="start" font-family="Verdana, Helvetica, Arial, sans-serif" font-size="18.424242424242426" fill="rgba(0,0,0,1)" transform="matrix(0.824359170485303 -0.5660670967621975 0.5660670967621975 0.824359170485303 -154.56697669926692 48.32360298758171)">u</text>
<text x="-5.1781010101010105" y="0" text-anchor="start" font-family="Verdana, Helvetica, Arial, sans-serif" font-size="18.626262626262626" fill="rgba(0,0,0,1)" transform="matrix(0.9579054613435043 -0.28708383292740164 0.28708383292740164 0.9579054613435043 -144.06962882940414 40.931045631287546)">a</text>
<text x="-3.134909090909091" y="0" text-anchor="start" font-family="Verdana, Helvetica, Arial, sans-serif" font-size="18.828282828282827" fill="rgba(0,0,0,1)" transform="matrix(0.9979358048804678 -0.0642193844378226 0.0642193844378226 0.9979358048804678 -135.00882553503 34.550147438891514)">r</text>
<text x="-4.757575757575758" y="0" text-anchor="start" font-family="Verdana, Helvetica, Arial, sans-serif" font-size="19.03030303030303" fill="rgba(0,0,0,1)" transform="matrix(0.9913143149521689 0.13151398773861317 -0.13151398773861317 0.9913143149521689 -125.54255143436639 32.43797623224724)">y</text>
<text x="-2.6732929292929293" y="0" text-anchor="start" font-family="Verdana, Helvetica, Arial, sans-serif" font-size="19.232323232323232" fill="rgba(0,0,0,1)" transform="matrix(0.9423937011963105 0.33450577266396914 -0.33450577266396914 0.9423937011963105 -115.62611484115052 35.02222118332111)"> </text>
<text x="-8.09440404040404" y="0" text-anchor="start" font-family="Verdana, Helvetica, Arial, sans-serif" font-size="19.434343434343432" fill="rgba(0,0,0,1)" transform="matrix(0.7461503507617342 0.6657774808884279 -0.6657774808884279 0.7461503507617342 -97.55561099466783 42.563596972965044)">M</text>
<text x="-5.458909090909091" y="0" text-anchor="start" font-family="Verdana, Helvetica, Arial, sans-serif" font-size="19.636363636363637" fill="rgba(0,0,0,1)" transform="matrix(0.513772688752396 0.8579263513216817 -0.8579263513216817 0.513772688752396 -90.78078444065032 56.48620158364156)">a</text>
<text x="-3.3030909090909093" y="0" text-anchor="start" font-family="Verdana, Helvetica, Arial, sans-serif" font-size="19.838383838383837" fill="rgba(0,0,0,1)" transform="matrix(0.30022548915144964 0.9538682590713315 -0.9538682590713315 0.30022548915144964 -85.83811010350159 66.64364251098925)">r</text>
<text x="-5.01010101010101" y="0" text-anchor="start" font-family="Verdana, Helvetica, Arial, sans-serif" font-size="20.04040404040404" fill="rgba(0,0,0,1)" transform="matrix(0.09297649612858536 0.9956683037877881 -0.9956683037877881 0.09297649612858536 -81.08094146557804 76.41986002505153)">c</text>
<text x="-5.62739393939394" y="0" text-anchor="start" font-family="Verdana, Helvetica, Arial, sans-serif" font-size="20.242424242424242" fill="rgba(0,0,0,1)" transform="matrix(-0.11939161318314169 0.9928472403655696 -0.9928472403655696 -0.11939161318314169 -75.45773484390378 87.97582855258267)">h</text>
<text x="-2.8417777777777777" y="0" text-anchor="start" font-family="Verdana, Helvetica, Arial, sans-serif" font-size="20.444444444444443" fill="rgba(0,0,0,1)" transform="matrix(-0.28818223324536324 0.957575584714708 -0.957575584714708 -0.28818223324536324 -76.35111686713716 97.92555998748499)"> </text>
<text x="-6.88559595959596" y="0" text-anchor="start" font-family="Verdana, Helvetica, Arial, sans-serif" font-size="20.646464646464647" fill="rgba(0,0,0,1)" transform="matrix(-0.5810555494231744 0.8138639004677213 -0.8138639004677213 -0.5810555494231744 -84.01397095209043 115.4409706327878)">A</text>
<text x="-5.795878787878788" y="0" text-anchor="start" font-family="Verdana, Helvetica, Arial, sans-serif" font-size="20.848484848484848" fill="rgba(0,0,0,1)" transform="matrix(-0.7482785157914495 0.6633847019678291 -0.6633847019678291 -0.7482785157914495 -91.23721003987356 127.16420010585226)">p</text>
<text x="-3.5049090909090914" y="0" text-anchor="start" font-family="Verdana, Helvetica, Arial, sans-serif" font-size="21.050505050505052" fill="rgba(0,0,0,1)" transform="matrix(-0.8566958565076733 0.5158218776308194 -0.5158218776308194 -0.8566958565076733 -102.28632090659897 130.53899797600485)">r</text>
<text x="-2.3590303030303033" y="0" text-anchor="start" font-family="Verdana, Helvetica, Arial, sans-serif" font-size="21.252525252525253" fill="rgba(0,0,0,1)" transform="matrix(-0.9234086572996495 0.3838182533752903 -0.3838182533752903 -0.9234086572996495 -110.4534059192424 133.0335209687127)">i</text>
<text x="-2.3814545454545453" y="0" text-anchor="start" font-family="Verdana, Helvetica, Arial, sans-serif" font-size="21.454545454545453" fill="rgba(0,0,0,1)" transform="matrix(-0.9665144320525623 0.2566122612700199 -0.2566122612700199 -0.9665144320525623 -117.65585850712534 135.23341034865024)">l</text>
<text x="-3.0102626262626266" y="0" text-anchor="start" font-family="Verdana, Helvetica, Arial, sans-serif" font-size="21.656565656565657" fill="rgba(0,0,0,1)" transform="matrix(-0.9931362042391109 0.11696358334768639 -0.11696358334768639 -0.9931362042391109 -125.3645794464526 137.58793238408282)"> </text>
<text x="-3.0383434343434343" y="0" text-anchor="start" font-family="Verdana, Helvetica, Arial, sans-serif" font-size="21.858585858585858" fill="rgba(0,0,0,1)" transform="matrix(-0.9915005034917797 -0.13010284999010366 0.13010284999010366 -0.9915005034917797 -139.99716808044482 142.0572539025709)"> </text>
<text x="-9.188242424242425" y="0" text-anchor="start" font-family="Verdana, Helvetica, Arial, sans-serif" font-size="22.060606060606062" fill="rgba(0,0,0,1)" transform="matrix(-0.9166506324513696 -0.3996894019441898 0.3996894019441898 -0.9166506324513696 -158.95904539016328 142.98437113294898)">M</text>
<text x="-6.189010101010101" y="0" text-anchor="start" font-family="Verdana, Helvetica, Arial, sans-serif" font-size="22.262626262626263" fill="rgba(0,0,0,1)" transform="matrix(-0.7906166543371961 -0.6123114451687626 0.6123114451687626 -0.7906166543371961 -172.96942771754703 134.06442790023067)">a</text>
<text x="-5.616161616161616" y="0" text-anchor="start" font-family="Verdana, Helvetica, Arial, sans-serif" font-size="22.464646464646464" fill="rgba(0,0,0,1)" transform="matrix(-0.6573706708756749 -0.7535673832328899 0.7535673832328899 -0.6573706708756749 -184.33895707856075 126.82582768839016)">y</text>
<text x="-3.1506666666666665" y="0" text-anchor="start" font-family="Verdana, Helvetica, Arial, sans-serif" font-size="22.666666666666664" fill="rgba(0,0,0,1)" transform="matrix(-0.544120601942362 -0.8390070145963511 0.8390070145963511 -0.544120601942362 -191.06972159794992 119.47852348774761)"> </text>
<text x="-3.178747474747475" y="0" text-anchor="start" font-family="Verdana, Helvetica, Arial, sans-serif" font-size="22.86868686868687" fill="rgba(0,0,0,1)" transform="matrix(-0.3576560072928105 -0.9338534041525817 0.9338534041525817 -0.3576560072928105 -193.20447466224397 104.6129739817767)"> </text>
<text x="-5.767676767676768" y="0" text-anchor="start" font-family="Verdana, Helvetica, Arial, sans-serif" font-size="23.070707070707073" fill="rgba(0,0,0,1)" transform="matrix(-0.10054279562487947 -0.994932734534317 0.994932734534317 -0.10054279562487947 -195.6466768036825 87.6064745208432)">J</text>
<text x="-6.469818181818183" y="0" text-anchor="start" font-family="Verdana, Helvetica, Arial, sans-serif" font-size="23.272727272727273" fill="rgba(0,0,0,1)" transform="matrix(0.10826260244937462 -0.9941223309587652 0.9941223309587652 0.10826260244937462 -197.59590325596503 74.03285665870571)">u</text>
<text x="-6.525979797979798" y="0" text-anchor="start" font-family="Verdana, Helvetica, Arial, sans-serif" font-size="23.474747474747474" fill="rgba(0,0,0,1)" transform="matrix(0.30083363665485297 -0.9536766344296246 0.9536766344296246 0.30083363665485297 -199.63356530428297 59.843409381474146)">n</text>
<text x="-6.5821414141414145" y="0" text-anchor="start" font-family="Verdana, Helvetica, Arial, sans-serif" font-size="23.676767676767675" fill="rgba(0,0,0,1)" transform="matrix(0.4556066928845322 -0.890181184590429 0.890181184590429 0.4556066928845322 -201.32826872073667 45.69666405281298)">e</text>
<text x="-3.3191515151515154" y="0" text-anchor="start" font-family="Verdana, Helvetica, Arial, sans-serif" font-size="23.87878787878788" fill="rgba(0,0,0,1)" transform="matrix(0.582364948563101 -0.8129274670504724 0.8129274670504724 0.582364948563101 -193.6944698865432 36.98483579897777)"> </text>
<text x="-3.347232323232324" y="0" text-anchor="start" font-family="Verdana, Helvetica, Arial, sans-serif" font-size="24.080808080808083" fill="rgba(0,0,0,1)" transform="matrix(0.7280095150046857 -0.6855670252153631 0.6855670252153631 0.7280095150046857 -184.01989611802014 25.944038558826698)"> </text>
<text x="-6.070707070707071" y="0" text-anchor="start" font-family="Verdana, Helvetica, Arial, sans-serif" font-size="24.282828282828284" fill="rgba(0,0,0,1)" transform="matrix(0.8572557175651997 -0.5148908959204606 0.5148908959204606 0.8572557175651997 -172.84303268239574 13.188801384959348)">J</text>
<text x="-6.80678787878788" y="0" text-anchor="start" font-family="Verdana, Helvetica, Arial, sans-serif" font-size="24.484848484848484" fill="rgba(0,0,0,1)" transform="matrix(0.9291721124847848 -0.369647379783169 0.369647379783169 0.9291721124847848 -160.72768521333933 8.984612661696303)">u</text>
<text x="-2.740242424242424" y="0" text-anchor="start" font-family="Verdana, Helvetica, Arial, sans-serif" font-size="24.686868686868685" fill="rgba(0,0,0,1)" transform="matrix(0.9715149193546724 -0.23697839874402996 0.23697839874402996 0.9715149193546724 -149.59203901893437 9.089672758054022)">l</text>
<text x="-6.222222222222222" y="0" text-anchor="start" font-family="Verdana, Helvetica, Arial, sans-serif" font-size="24.88888888888889" fill="rgba(0,0,0,1)" transform="matrix(0.9953191749501108 -0.09664233014901215 0.09664233014901215 0.9953191749501108 -138.99798104275126 9.189623199399406)">y</text>
<text x="-3.487636363636364" y="0" text-anchor="start" font-family="Verdana, Helvetica, Arial, sans-serif" font-size="25.09090909090909" fill="rgba(0,0,0,1)" transform="matrix(0.9982834166285652 0.058568080764170166 -0.058568080764170166 0.9982834166285652 -127.79125752206048 9.295353880168506)"> </text>
<text x="-3.515717171717172" y="0" text-anchor="start" font-family="Verdana, Helvetica, Arial, sans-serif" font-size="25.292929292929294" fill="rgba(0,0,0,1)" transform="matrix(0.968136000629843 0.25042500730648437 -0.25042500730648437 0.968136000629843 -113.4503390333124 9.430654360444493)"> </text>
<text x="-8.502565656565658" y="0" text-anchor="start" font-family="Verdana, Helvetica, Arial, sans-serif" font-size="25.494949494949495" fill="rgba(0,0,0,1)" transform="matrix(0.8876042918550214 0.4606067966069822 -0.4606067966069822 0.8876042918550214 -94.86860762777349 9.605965110972818)">A</text>
<text x="-7.143757575757576" y="0" text-anchor="start" font-family="Verdana, Helvetica, Arial, sans-serif" font-size="25.696969696969695" fill="rgba(0,0,0,1)" transform="matrix(0.7972431926365421 0.6036582574558997 -0.6036582574558997 0.7972431926365421 -79.75627688897833 12.166878406215872)">u</text>
<text x="-7.199919191919193" y="0" text-anchor="start" font-family="Verdana, Helvetica, Arial, sans-serif" font-size="25.8989898989899" fill="rgba(0,0,0,1)" transform="matrix(0.6800069543387633 0.733205661496772 -0.733205661496772 0.6800069543387633 -70.03946481593619 23.702836644713464)">g</text>
<text x="-7.256080808080809" y="0" text-anchor="start" font-family="Verdana, Helvetica, Arial, sans-serif" font-size="26.101010101010104" fill="rgba(0,0,0,1)" transform="matrix(0.5389244473958276 0.8423541060617571 -0.8423541060617571 0.5389244473958276 -60.282500254037416 35.28646457478685)">u</text>
<text x="-6.575757575757576" y="0" text-anchor="start" font-family="Verdana, Helvetica, Arial, sans-serif" font-size="26.303030303030305" fill="rgba(0,0,0,1)" transform="matrix(0.3937632772060177 0.9192118806477518 -0.9192118806477518 0.3937632772060177 -50.89656273523808 46.42960313011734)">s</text>
<text x="-3.6842020202020205" y="0" text-anchor="start" font-family="Verdana, Helvetica, Arial, sans-serif" font-size="26.505050505050505" fill="rgba(0,0,0,1)" transform="matrix(0.2825194066040246 0.9592615831420072 -0.9592615831420072 0.2825194066040246 -46.997805443223 56.13840566875042)">t</text>
<text x="-3.7122828282828286" y="0" text-anchor="start" font-family="Verdana, Helvetica, Arial, sans-serif" font-size="26.707070707070706" fill="rgba(0,0,0,1)" transform="matrix(0.1906007201134938 0.9816676451285423 -0.9816676451285423 0.1906007201134938 -48.421762766478494 64.9463262227854)"> </text>
<text x="-3.7403636363636363" y="0" text-anchor="start" font-family="Verdana, Helvetica, Arial, sans-serif" font-size="26.909090909090907" fill="rgba(0,0,0,1)" transform="matrix(0.030914011416635852 0.9995220477298798 -0.9995220477298798 0.030914011416635852 -50.63863608929725 78.65884680669338)"> </text>
<text x="-9.041555555555556" y="0" text-anchor="start" font-family="Verdana, Helvetica, Arial, sans-serif" font-size="27.11111111111111" fill="rgba(0,0,0,1)" transform="matrix(-0.19569425748363947 0.9806649568471013 -0.9806649568471013 -0.19569425748363947 -53.575831322650274 96.82693502433598)">S</text>
<text x="-7.593050505050506" y="0" text-anchor="start" font-family="Verdana, Helvetica, Arial, sans-serif" font-size="27.313131313131315" fill="rgba(0,0,0,1)" transform="matrix(-0.39182195278061727 0.9200410628440362 -0.9200410628440362 -0.39182195278061727 -56.260739673796834 113.43449696846658)">e</text>
<text x="-7.649212121212122" y="0" text-anchor="start" font-family="Verdana, Helvetica, Arial, sans-serif" font-size="27.515151515151516" fill="rgba(0,0,0,1)" transform="matrix(-0.5451591055630429 0.8383326008343603 -0.8383326008343603 -0.5451591055630429 -58.74748608398545 128.81632369969014)">p</text>
<text x="-3.852686868686869" y="0" text-anchor="start" font-family="Verdana, Helvetica, Arial, sans-serif" font-size="27.717171717171716" fill="rgba(0,0,0,1)" transform="matrix(-0.6425529623243631 0.7662412744091678 -0.7662412744091678 -0.6425529623243631 -60.711318111602125 140.9636515712669)">t</text>
<text x="-7.761535353535353" y="0" text-anchor="start" font-family="Verdana, Helvetica, Arial, sans-serif" font-size="27.919191919191917" fill="rgba(0,0,0,1)" transform="matrix(-0.7275886243749641 0.6860136978808422 -0.6860136978808422 -0.7275886243749641 -66.6010345439774 150.54678305654812)">e</text>
<text x="-11.712484848484848" y="0" text-anchor="start" font-family="Verdana, Helvetica, Arial, sans-serif" font-size="28.12121212121212" fill="rgba(0,0,0,1)" transform="matrix(-0.8505128404879522 0.525954283341352 -0.525954283341352 -0.8505128404879522 -82.92419409272105 160.54882044641505)">m</text>
<text x="-7.873858585858586" y="0" text-anchor="start" font-family="Verdana, Helvetica, Arial, sans-serif" font-size="28.32323232323232" fill="rgba(0,0,0,1)" transform="matrix(-0.939130739412954 0.34355997189672466 -0.34355997189672466 -0.939130739412954 -99.30049709016873 170.58342155407064)">b</text>
<text x="-7.930020202020203" y="0" text-anchor="start" font-family="Verdana, Helvetica, Arial, sans-serif" font-size="28.525252525252526" fill="rgba(0,0,0,1)" transform="matrix(-0.981318890404261 0.19238824115769124 -0.19238824115769124 -0.981318890404261 -112.85195708617502 178.88709641325403)">e</text>
<text x="-4.783090909090909" y="0" text-anchor="start" font-family="Verdana, Helvetica, Arial, sans-serif" font-size="28.727272727272727" fill="rgba(0,0,0,1)" transform="matrix(-0.9974937014785991 0.07075532142901736 -0.07075532142901736 -0.9974937014785991 -125.30596633967365 175.6647336336399)">r</text>
<text x="-4.021171717171717" y="0" text-anchor="start" font-family="Verdana, Helvetica, Arial, sans-serif" font-size="28.92929292929293" fill="rgba(0,0,0,1)" transform="matrix(-0.99960005763705 -0.0282794054394062 0.0282794054394062 -0.99960005763705 -134.59727595245576 172.68595740049938)"> </text>
<text x="-4.049252525252526" y="0" text-anchor="start" font-family="Verdana, Helvetica, Arial, sans-serif" font-size="29.13131313131313" fill="rgba(0,0,0,1)" transform="matrix(-0.9851822271297688 -0.17151087238897914 0.17151087238897914 -0.9851822271297688 -147.2341745748667 168.6345916785716)"> </text>
<text x="-4.077333333333334" y="0" text-anchor="start" font-family="Verdana, Helvetica, Arial, sans-serif" font-size="29.333333333333332" fill="rgba(0,0,0,1)" transform="matrix(-0.9486808979786773 -0.31623496614127056 0.31623496614127056 -0.9486808979786773 -159.81739039368446 164.60043656162156)"> </text>
<text x="-11.489252525252526" y="0" text-anchor="start" font-family="Verdana, Helvetica, Arial, sans-serif" font-size="29.535353535353536" fill="rgba(0,0,0,1)" transform="matrix(-0.8576912361396933 -0.5141650935732266 0.5141650935732266 -0.8576912361396933 -178.44042176704681 158.6299280374318)">O</text>
<text x="-7.434343434343434" y="0" text-anchor="start" font-family="Verdana, Helvetica, Arial, sans-serif" font-size="29.737373737373737" fill="rgba(0,0,0,1)" transform="matrix(-0.7469848274489868 -0.6648410844412426 0.6648410844412426 -0.7469848274489868 -195.94931823404107 153.01660905033765)">c</text>
<text x="-4.161575757575759" y="0" text-anchor="start" font-family="Verdana, Helvetica, Arial, sans-serif" font-size="29.93939393939394" fill="rgba(0,0,0,1)" transform="matrix(-0.6708368261081733 -0.7416049842989949 0.7416049842989949 -0.6708368261081733 -207.3777202518426 149.3526850469259)">t</text>
<text x="-8.379313131313133" y="0" text-anchor="start" font-family="Verdana, Helvetica, Arial, sans-serif" font-size="30.141414141414142" fill="rgba(0,0,0,1)" transform="matrix(-0.5860949823770202 -0.8102423536402429 0.8102423536402429 -0.5860949823770202 -216.99632592124652 142.65219357990793)">o</text>
<text x="-8.435474747474748" y="0" text-anchor="start" font-family="Verdana, Helvetica, Arial, sans-serif" font-size="30.343434343434343" fill="rgba(0,0,0,1)" transform="matrix(-0.45207453148070154 -0.8919801668123032 0.8919801668123032 -0.45207453148070154 -223.40692914828742 127.49824485305471)">b</text>
<text x="-8.491636363636365" y="0" text-anchor="start" font-family="Verdana, Helvetica, Arial, sans-serif" font-size="30.545454545454547" fill="rgba(0,0,0,1)" transform="matrix(-0.30304938327332764 -0.9529748534445469 0.9529748534445469 -0.30304938327332764 -229.84181517000695 112.28689431665701)">e</text>
<text x="-5.119454545454546" y="0" text-anchor="start" font-family="Verdana, Helvetica, Arial, sans-serif" font-size="30.747474747474747" fill="rgba(0,0,0,1)" transform="matrix(-0.17728817847684364 -0.9841589819599081 0.9841589819599081 -0.17728817847684364 -235.14343817030309 99.75445075866169)">r</text>
<text x="-4.301979797979798" y="0" text-anchor="start" font-family="Verdana, Helvetica, Arial, sans-serif" font-size="30.949494949494948" fill="rgba(0,0,0,1)" transform="matrix(-0.08771612999436415 -0.9961455117294922 0.9961455117294922 -0.08771612999436415 -239.01682358292027 90.59820104809651)"> </text>
<text x="-4.330060606060607" y="0" text-anchor="start" font-family="Verdana, Helvetica, Arial, sans-serif" font-size="31.151515151515152" fill="rgba(0,0,0,1)" transform="matrix(0.019836741154467447 -0.9998032324914591 0.9998032324914591 0.019836741154467447 -238.01069453303745 79.07236052003512)"> </text>
<text x="-4.358141414141414" y="0" text-anchor="start" font-family="Verdana, Helvetica, Arial, sans-serif" font-size="31.353535353535353" fill="rgba(0,0,0,1)" transform="matrix(0.13270240770764066 -0.9911559266778336 0.9911559266778336 0.13270240770764066 -232.3997133399589 67.73446954931597)"> </text>
<text x="-4.386222222222223" y="0" text-anchor="start" font-family="Verdana, Helvetica, Arial, sans-serif" font-size="31.555555555555557" fill="rgba(0,0,0,1)" transform="matrix(0.252389200791194 -0.9676258012909651 0.9676258012909651 0.252389200791194 -226.81373658860866 56.447104079279)"> </text>
<text x="-11.464484848484847" y="0" text-anchor="start" font-family="Verdana, Helvetica, Arial, sans-serif" font-size="31.757575757575758" fill="rgba(0,0,0,1)" transform="matrix(0.43192360882689157 -0.9019101929449264 0.9019101929449264 0.43192360882689157 -218.54277977835227 39.73430406956035)">N</text>
<text x="-8.884767676767677" y="0" text-anchor="start" font-family="Verdana, Helvetica, Arial, sans-serif" font-size="31.95959595959596" fill="rgba(0,0,0,1)" transform="matrix(0.6011861947214775 -0.7991089783479532 0.7991089783479532 0.6011861947214775 -210.01030135675447 22.49305753438655)">o</text>
<text x="-8.040404040404042" y="0" text-anchor="start" font-family="Verdana, Helvetica, Arial, sans-serif" font-size="32.161616161616166" fill="rgba(0,0,0,1)" transform="matrix(0.7189420860663739 -0.6950699798455768 0.6950699798455768 0.7189420860663739 -202.8095191217519 7.942717571554283)">v</text>
<text x="-8.99709090909091" y="0" text-anchor="start" font-family="Verdana, Helvetica, Arial, sans-serif" font-size="32.36363636363636" fill="rgba(0,0,0,1)" transform="matrix(0.8100947186931522 -0.5862990250251681 0.5862990250251681 0.8100947186931522 -195.58109222446615 -6.663482882714916)">e</text>
<text x="-13.56359595959596" y="0" text-anchor="start" font-family="Verdana, Helvetica, Arial, sans-serif" font-size="32.56565656565657" fill="rgba(0,0,0,1)" transform="matrix(0.8966423580916593 -0.4427555552173555 0.4427555552173555 0.8966423580916593 -182.28708555957382 -20.645946036649576)">m</text>
<text x="-9.109414141414142" y="0" text-anchor="start" font-family="Verdana, Helvetica, Arial, sans-serif" font-size="32.76767676767677" fill="rgba(0,0,0,1)" transform="matrix(0.9633108887923898 -0.2683880242000673 0.2683880242000673 0.9633108887923898 -161.8389471554805 -25.893757708594492)">b</text>
<text x="-9.165575757575759" y="0" text-anchor="start" font-family="Verdana, Helvetica, Arial, sans-serif" font-size="32.96969696969697" fill="rgba(0,0,0,1)" transform="matrix(0.9931435232025773 -0.11690142138045963 0.11690142138045963 0.9931435232025773 -145.11650517194275 -30.185406390269264)">e</text>
<text x="-5.523090909090909" y="0" text-anchor="start" font-family="Verdana, Helvetica, Arial, sans-serif" font-size="33.17171717171717" fill="rgba(0,0,0,1)" transform="matrix(0.9999876902645406 0.004961785907240323 -0.004961785907240323 0.9999876902645406 -131.43840597321105 -33.69575472646575)">r</text>
<text x="-4.638949494949495" y="0" text-anchor="start" font-family="Verdana, Helvetica, Arial, sans-serif" font-size="33.37373737373737" fill="rgba(0,0,0,1)" transform="matrix(0.9960882892767056 0.0883635669595005 -0.0883635669595005 0.9960882892767056 -121.59395753051317 -36.222234664175275)"> </text>
<text x="-4.6670303030303035" y="0" text-anchor="start" font-family="Verdana, Helvetica, Arial, sans-serif" font-size="33.57575757575758" fill="rgba(0,0,0,1)" transform="matrix(0.9835773116995525 0.18048731786438976 -0.18048731786438976 0.9835773116995525 -111.39874541522676 -31.138019776499178)"> </text>
<text x="-4.695111111111111" y="0" text-anchor="start" font-family="Verdana, Helvetica, Arial, sans-serif" font-size="33.77777777777778" fill="rgba(0,0,0,1)" transform="matrix(0.9607965097446388 0.27725451639697424 -0.27725451639697424 0.9607965097446388 -101.57307763012807 -24.29483897641417)"> </text>
<text x="-4.72319191919192" y="0" text-anchor="start" font-family="Verdana, Helvetica, Arial, sans-serif" font-size="33.97979797979798" fill="rgba(0,0,0,1)" transform="matrix(0.9260262858223152 0.37745902819528365 -0.37745902819528365 0.9260262858223152 -91.79367018645239 -17.48387663589395)"> </text>
<text x="-4.7512727272727275" y="0" text-anchor="start" font-family="Verdana, Helvetica, Arial, sans-serif" font-size="34.18181818181818" fill="rgba(0,0,0,1)" transform="matrix(0.8785734660470793 0.47760722854456633 -0.47760722854456633 0.8785734660470793 -82.06052308419952 -10.705132754938376)"> </text>
<text x="-12.412565656565654" y="0" text-anchor="start" font-family="Verdana, Helvetica, Arial, sans-serif" font-size="34.38383838383838" fill="rgba(0,0,0,1)" transform="matrix(0.7809612797357519 0.6245794421476716 -0.6245794421476716 0.7809612797357519 -66.94531568839898 -0.1780012354793854)">D</text>
<text x="-9.614868686868688" y="0" text-anchor="start" font-family="Verdana, Helvetica, Arial, sans-serif" font-size="34.58585858585859" fill="rgba(0,0,0,1)" transform="matrix(0.6496449588369999 0.7602377440364775 -0.7602377440364775 0.6496449588369999 -50.339605838577796 11.387205048862498)">e</text>
<text x="-8.696969696969697" y="0" text-anchor="start" font-family="Verdana, Helvetica, Arial, sans-serif" font-size="34.78787878787879" fill="rgba(0,0,0,1)" transform="matrix(0.5321068520101941 0.8466772100652062 -0.8466772100652062 0.5321068520101941 -36.4049566092645 21.09212548252222)">c</text>
<text x="-9.72719191919192" y="0" text-anchor="start" font-family="Verdana, Helvetica, Arial, sans-serif" font-size="34.98989898989899" fill="rgba(0,0,0,1)" transform="matrix(0.41743886626974813 0.9087050087500493 -0.9087050087500493 0.41743886626974813 -22.41916240620371 30.832666324893538)">e</text>
<text x="-14.657434343434343" y="0" text-anchor="start" font-family="Verdana, Helvetica, Arial, sans-serif" font-size="35.19191919191919" fill="rgba(0,0,0,1)" transform="matrix(0.2595462198999328 0.9657306869597009 -0.9657306869597009 0.2595462198999328 -14.601139983382154 49.621577849975395)">m</text>
<text x="-9.839515151515151" y="0" text-anchor="start" font-family="Verdana, Helvetica, Arial, sans-serif" font-size="35.39393939393939" fill="rgba(0,0,0,1)" transform="matrix(0.07858533534187169 0.9969073904175881 -0.9969073904175881 0.07858533534187169 -12.32217968225686 71.7407566521444)">b</text>
<text x="-9.89567676767677" y="0" text-anchor="start" font-family="Verdana, Helvetica, Arial, sans-serif" font-size="35.5959595959596" fill="rgba(0,0,0,1)" transform="matrix(-0.07013110170017339 0.9975377830309586 -0.9975377830309586 -0.07013110170017339 -10.469741106051885 89.72019230395495)">e</text>
<text x="-5.9603636363636365" y="0" text-anchor="start" font-family="Verdana, Helvetica, Arial, sans-serif" font-size="35.7979797979798" fill="rgba(0,0,0,1)" transform="matrix(-0.18486468983446805 0.9827639830866849 -0.9827639830866849 -0.18486468983446805 -8.965432336817713 104.32074266191056)">r</text>
<text x="-9" y="0" text-anchor="start" font-family="Verdana, Helvetica, Arial, sans-serif" font-size="36" fill="rgba(0,0,0,1)" transform="matrix(0.5240627097603947 -0.8516796793622543 0.8516796793622543 0.5240627097603947 44.0542462234537 23.834492684160992)">J</text>
<text x="-9.948851063829789" y="0" text-anchor="start" font-family="Verdana, Helvetica, Arial, sans-serif" font-size="35.787234042553195" fill="rgba(0,0,0,1)" transform="matrix(0.6651681772374479 -0.7466935756993033 0.7466935756993033 0.6651681772374479 54.41257746976807 8.285060395425901)">a</text>
<text x="-9.889702127659575" y="0" text-anchor="start" font-family="Verdana, Helvetica, Arial, sans-serif" font-size="35.57446808510638" fill="rgba(0,0,0,1)" transform="matrix(0.7841016055992226 -0.6206324774749716 0.6206324774749716 0.7841016055992226 65.13731666076535 -7.81440600502269)">n</text>
<text x="-9.830553191489363" y="0" text-anchor="start" font-family="Verdana, Helvetica, Arial, sans-serif" font-size="35.361702127659576" fill="rgba(0,0,0,1)" transform="matrix(0.8705981414432684 -0.491994792772776 0.491994792772776 0.8705981414432684 75.79248472302535 -23.809435548816822)">u</text>
<text x="-9.77140425531915" y="0" text-anchor="start" font-family="Verdana, Helvetica, Arial, sans-serif" font-size="35.148936170212764" fill="rgba(0,0,0,1)" transform="matrix(0.935045438079712 -0.3545278955545242 0.3545278955545242 0.935045438079712 92.9597928816593 -29.043397088918596)">a</text>
<text x="-5.816872340425532" y="0" text-anchor="start" font-family="Verdana, Helvetica, Arial, sans-serif" font-size="34.93617021276596" fill="rgba(0,0,0,1)" transform="matrix(0.9747817338417711 -0.2231604162221215 0.2231604162221215 0.9747817338417711 108.76781102915038 -31.004009893894064)">r</text>
<text x="-8.680851063829786" y="0" text-anchor="start" font-family="Verdana, Helvetica, Arial, sans-serif" font-size="34.723404255319146" fill="rgba(0,0,0,1)" transform="matrix(0.9958058764119978 -0.09149129195356802 0.09149129195356802 0.9958058764119978 123.69855861786135 -32.85581792176691)">y</text>
<text x="-4.796978723404256" y="0" text-anchor="start" font-family="Verdana, Helvetica, Arial, sans-serif" font-size="34.51063829787234" fill="rgba(0,0,0,1)" transform="matrix(0.9994383312769946 0.03351152002306976 -0.03351152002306976 0.9994383312769946 137.80674151240288 -34.60560614821601)"> </text>
<text x="-4.76740425531915" y="0" text-anchor="start" font-family="Verdana, Helvetica, Arial, sans-serif" font-size="34.297872340425535" fill="rgba(0,0,0,1)" transform="matrix(0.98314828133875 0.1828098927866379 -0.1828098927866379 0.98314828133875 154.77245221853423 -32.58342124369405)"> </text>
<text x="-10.413" y="0" text-anchor="start" font-family="Verdana, Helvetica, Arial, sans-serif" font-size="34.08510638297872" fill="rgba(0,0,0,1)" transform="matrix(0.93164548819473 0.36336852412723253 -0.36336852412723253 0.93164548819473 171.61815705152893 -17.295672991402057)">F</text>
<text x="-9.416510638297874" y="0" text-anchor="start" font-family="Verdana, Helvetica, Arial, sans-serif" font-size="33.87234042553192" fill="rgba(0,0,0,1)" transform="matrix(0.8504299423601771 0.5260883130590014 -0.5260883130590014 0.8504299423601771 185.7413182666574 -4.478676889195299)">e</text>
<text x="-9.35736170212766" y="0" text-anchor="start" font-family="Verdana, Helvetica, Arial, sans-serif" font-size="33.659574468085104" fill="rgba(0,0,0,1)" transform="matrix(0.7383038694880886 0.6744682322384914 -0.6744682322384914 0.7383038694880886 199.23003630173352 7.7625518163260665)">b</text>
<text x="-5.568893617021277" y="0" text-anchor="start" font-family="Verdana, Helvetica, Arial, sans-serif" font-size="33.4468085106383" fill="rgba(0,0,0,1)" transform="matrix(0.6248663604729967 0.780731728283942 -0.780731728283942 0.6248663604729967 210.47133939629967 17.96421529322835)">r</text>
<text x="-9.239063829787234" y="0" text-anchor="start" font-family="Verdana, Helvetica, Arial, sans-serif" font-size="33.234042553191486" fill="rgba(0,0,0,1)" transform="matrix(0.5037060979467325 0.8638750875510167 -0.8638750875510167 0.5037060979467325 221.61971620119823 28.08154666669286)">u</text>
<text x="-9.179914893617022" y="0" text-anchor="start" font-family="Verdana, Helvetica, Arial, sans-serif" font-size="33.02127659574468" fill="rgba(0,0,0,1)" transform="matrix(0.361570237600785 0.9323448735748547 -0.9323448735748547 0.361570237600785 234.82965536727133 40.0697790619008)">a</text>
<text x="-5.462617021276596" y="0" text-anchor="start" font-family="Verdana, Helvetica, Arial, sans-serif" font-size="32.808510638297875" fill="rgba(0,0,0,1)" transform="matrix(0.23948192620786554 0.9709008224426274 -0.9709008224426274 0.23948192620786554 237.34897973184468 53.68143867693391)">r</text>
<text x="-8.148936170212766" y="0" text-anchor="start" font-family="Verdana, Helvetica, Arial, sans-serif" font-size="32.59574468085106" fill="rgba(0,0,0,1)" transform="matrix(0.11075200722946996 0.993848073346547 -0.993848073346547 0.11075200722946996 236.9824354232667 67.6984693991389)">y</text>
<text x="-4.501234042553192" y="0" text-anchor="start" font-family="Verdana, Helvetica, Arial, sans-serif" font-size="32.38297872340426" fill="rgba(0,0,0,1)" transform="matrix(-0.017115104007343306 0.999853525880075 -0.999853525880075 -0.017115104007343306 236.63636526268434 80.93254767944467)"> </text>
<text x="-4.471659574468085" y="0" text-anchor="start" font-family="Verdana, Helvetica, Arial, sans-serif" font-size="32.170212765957444" fill="rgba(0,0,0,1)" transform="matrix(-0.18055021544990038 0.9835657678574395 -0.9835657678574395 -0.18055021544990038 236.19172413141496 97.93608109001129)"> </text>
<text x="-13.31027659574468" y="0" text-anchor="start" font-family="Verdana, Helvetica, Arial, sans-serif" font-size="31.95744680851064" fill="rgba(0,0,0,1)" transform="matrix(-0.3806183295154633 0.9247322246125406 -0.9247322246125406 -0.3806183295154633 226.45414604375665 117.232945007917)">M</text>
<text x="-8.825021276595745" y="0" text-anchor="start" font-family="Verdana, Helvetica, Arial, sans-serif" font-size="31.74468085106383" fill="rgba(0,0,0,1)" transform="matrix(-0.5547434628548926 0.8320214482931089 -0.8320214482931089 -0.5547434628548926 210.53394290735434 130.2094793434734)">a</text>
<text x="-5.250063829787234" y="0" text-anchor="start" font-family="Verdana, Helvetica, Arial, sans-serif" font-size="31.53191489361702" fill="rgba(0,0,0,1)" transform="matrix(-0.6754482093342464 0.7374074291103664 -0.7374074291103664 -0.6754482093342464 199.51360388511466 139.19214159258604)">r</text>
<text x="-7.829787234042553" y="0" text-anchor="start" font-family="Verdana, Helvetica, Arial, sans-serif" font-size="31.319148936170212" fill="rgba(0,0,0,1)" transform="matrix(-0.7789843822230271 0.6270433256582904 -0.6270433256582904 -0.7789843822230271 189.12083036987912 147.6632761130839)">c</text>
<text x="-8.647574468085107" y="0" text-anchor="start" font-family="Verdana, Helvetica, Arial, sans-serif" font-size="31.106382978723403" fill="rgba(0,0,0,1)" transform="matrix(-0.8787022291410727 0.47737028866751835 -0.47737028866751835 -0.8787022291410727 176.69926376293995 157.78807692091914)">h</text>
<text x="-4.294212765957448" y="0" text-anchor="start" font-family="Verdana, Helvetica, Arial, sans-serif" font-size="30.893617021276597" fill="rgba(0,0,0,1)" transform="matrix(-0.9369133438375831 0.34956170576749224 -0.34956170576749224 -0.9369133438375831 166.44144462286778 166.14921032723282)"> </text>
<text x="-10.232063829787235" y="0" text-anchor="start" font-family="Verdana, Helvetica, Arial, sans-serif" font-size="30.680851063829788" fill="rgba(0,0,0,1)" transform="matrix(-0.9871893586756202 0.1595530323046782 -0.1595530323046782 -0.9871893586756202 149.689451140668 176.30141255718337)">A</text>
<text x="-8.47012765957447" y="0" text-anchor="start" font-family="Verdana, Helvetica, Arial, sans-serif" font-size="30.46808510638298" fill="rgba(0,0,0,1)" transform="matrix(-0.9998386341381648 -0.017964010819668735 0.017964010819668735 -0.9998386341381648 132.30225701123828 173.20188590821778)">p</text>
<text x="-5.0375106382978725" y="0" text-anchor="start" font-family="Verdana, Helvetica, Arial, sans-serif" font-size="30.25531914893617" fill="rgba(0,0,0,1)" transform="matrix(-0.9867749145305009 -0.1620964776092393 0.1620964776092393 -0.9867749145305009 118.93737626982929 170.8193966054655)">r</text>
<text x="-3.3347234042553193" y="0" text-anchor="start" font-family="Verdana, Helvetica, Arial, sans-serif" font-size="30.04255319148936" fill="rgba(0,0,0,1)" transform="matrix(-0.965022350124459 -0.2621676253092019 0.2621676253092019 -0.965022350124459 109.5493800974626 169.14584628446312)">i</text>
<text x="-3.3111063829787235" y="0" text-anchor="start" font-family="Verdana, Helvetica, Arial, sans-serif" font-size="29.829787234042552" fill="rgba(0,0,0,1)" transform="matrix(-0.9388512513978918 -0.34432299915720493 0.34432299915720493 -0.9388512513978918 101.52001609729348 167.71449240944975)">l</text>
<text x="-4.116765957446809" y="0" text-anchor="start" font-family="Verdana, Helvetica, Arial, sans-serif" font-size="29.617021276595743" fill="rgba(0,0,0,1)" transform="matrix(-0.9047037114082339 -0.426041306171323 0.426041306171323 -0.9047037114082339 93.2209755896236 165.75245728078642)"> </text>
<text x="-4.087191489361703" y="0" text-anchor="start" font-family="Verdana, Helvetica, Arial, sans-serif" font-size="29.404255319148938" fill="rgba(0,0,0,1)" transform="matrix(-0.8351195799545041 -0.5500684386297877 0.5500684386297877 -0.8351195799545041 85.54044852946694 152.7345839056826)"> </text>
<text x="-12.158255319148935" y="0" text-anchor="start" font-family="Verdana, Helvetica, Arial, sans-serif" font-size="29.19148936170213" fill="rgba(0,0,0,1)" transform="matrix(-0.6816979923560906 -0.731633683763723 0.731633683763723 -0.6816979923560906 74.72263181185288 134.3992578112638)">M</text>
<text x="-8.05608510638298" y="0" text-anchor="start" font-family="Verdana, Helvetica, Arial, sans-serif" font-size="28.97872340425532" fill="rgba(0,0,0,1)" transform="matrix(-0.49542718910956507 -0.8686494691709628 0.8686494691709628 -0.49542718910956507 65.26669992465256 118.37221656955656)">a</text>
<text x="-7.191489361702128" y="0" text-anchor="start" font-family="Verdana, Helvetica, Arial, sans-serif" font-size="28.76595744680851" fill="rgba(0,0,0,1)" transform="matrix(-0.3288844477057975 -0.9443701710967223 0.9443701710967223 -0.3288844477057975 57.79661883022659 105.71103211862776)">y</text>
<text x="-3.9688936170212767" y="0" text-anchor="start" font-family="Verdana, Helvetica, Arial, sans-serif" font-size="28.5531914893617" fill="rgba(0,0,0,1)" transform="matrix(-0.19891380162013267 -0.9800169894063196 0.9800169894063196 -0.19891380162013267 51.96369769798132 95.82470164784017)"> </text>
<text x="-3.9393191489361707" y="0" text-anchor="start" font-family="Verdana, Helvetica, Arial, sans-serif" font-size="28.340425531914896" fill="rgba(0,0,0,1)" transform="matrix(-0.0475196336106712 -0.9988703041043454 0.9988703041043454 -0.0475196336106712 44.81200732078264 83.41809019218724)"> </text>
<text x="-7.031914893617021" y="0" text-anchor="start" font-family="Verdana, Helvetica, Arial, sans-serif" font-size="28.127659574468083" fill="rgba(0,0,0,1)" transform="matrix(0.13647415337527735 -0.9906436319184115 0.9906436319184115 0.13647415337527735 50.178780843774334 67.62919691893477)">J</text>
<text x="-7.760340425531916" y="0" text-anchor="start" font-family="Verdana, Helvetica, Arial, sans-serif" font-size="27.914893617021278" fill="rgba(0,0,0,1)" transform="matrix(0.30091235853369536 -0.9536517983423975 0.9536517983423975 0.30091235853369536 54.752745749126575 54.172723785343095)">u</text>
<text x="-7.701191489361703" y="0" text-anchor="start" font-family="Verdana, Helvetica, Arial, sans-serif" font-size="27.70212765957447" fill="rgba(0,0,0,1)" transform="matrix(0.4630211559316357 -0.8863472283251818 0.8863472283251818 0.4630211559316357 59.484062961847414 40.25332469135837)">n</text>
<text x="-7.64204255319149" y="0" text-anchor="start" font-family="Verdana, Helvetica, Arial, sans-serif" font-size="27.48936170212766" fill="rgba(0,0,0,1)" transform="matrix(0.5971376897001419 -0.8021387532961969 0.8021387532961969 0.5971376897001419 67.853555905027 29.940228732491335)">e</text>
<text x="-3.7914468085106385" y="0" text-anchor="start" font-family="Verdana, Helvetica, Arial, sans-serif" font-size="27.27659574468085" fill="rgba(0,0,0,1)" transform="matrix(0.6942711806795567 -0.7197135038873553 0.7197135038873553 0.6942711806795567 78.52224487163019 25.667016513355108)"> </text>
<text x="-3.761872340425532" y="0" text-anchor="start" font-family="Verdana, Helvetica, Arial, sans-serif" font-size="27.06382978723404" fill="rgba(0,0,0,1)" transform="matrix(0.8063871558393879 -0.5913879901530489 0.5913879901530489 0.8063871558393879 91.0651434076076 20.64311269020427)"> </text>
<text x="-6.712765957446809" y="0" text-anchor="start" font-family="Verdana, Helvetica, Arial, sans-serif" font-size="26.851063829787236" fill="rgba(0,0,0,1)" transform="matrix(0.9151103806097725 -0.40320341181621633 0.40320341181621633 0.9151103806097725 105.63125511839084 14.808835700532072)">J</text>
<text x="-7.405446808510638" y="0" text-anchor="start" font-family="Verdana, Helvetica, Arial, sans-serif" font-size="26.638297872340424" fill="rgba(0,0,0,1)" transform="matrix(0.9749160088164202 -0.22257307957940886 0.22257307957940886 0.9749160088164202 118.15181081797988 9.793881025843973)">u</text>
<text x="-2.9332340425531918" y="0" text-anchor="start" font-family="Verdana, Helvetica, Arial, sans-serif" font-size="26.425531914893618" fill="rgba(0,0,0,1)" transform="matrix(0.996568290550227 -0.08277464750633727 0.08277464750633727 0.996568290550227 127.9043510395431 5.887620924639549)">l</text>
<text x="-6.553191489361702" y="0" text-anchor="start" font-family="Verdana, Helvetica, Arial, sans-serif" font-size="26.21276595744681" fill="rgba(0,0,0,1)" transform="matrix(0.9992318523853284 0.03918807444344727 -0.03918807444344727 0.9992318523853284 137.00885655272683 2.2409231598140877)">y</text>
<text x="-3.6140000000000003" y="0" text-anchor="start" font-family="Verdana, Helvetica, Arial, sans-serif" font-size="26" fill="rgba(0,0,0,1)" transform="matrix(0.9871009735299904 0.16009893208933423 -0.16009893208933423 0.9871009735299904 146.34786521351683 2.9922376520924416)"> </text>
<text x="-8.600042553191491" y="0" text-anchor="start" font-family="Verdana, Helvetica, Arial, sans-serif" font-size="25.787234042553195" fill="rgba(0,0,0,1)" transform="matrix(0.9302475277094433 0.36693260578813186 -0.36693260578813186 0.9302475277094433 161.02580629438694 10.638447731586723)">A</text>
<text x="-7.109702127659575" y="0" text-anchor="start" font-family="Verdana, Helvetica, Arial, sans-serif" font-size="25.574468085106382" fill="rgba(0,0,0,1)" transform="matrix(0.8398425893479259 0.542830014937799 -0.542830014937799 0.8398425893479259 173.94158772261608 17.366692353700728)">u</text>
<text x="-7.050553191489363" y="0" text-anchor="start" font-family="Verdana, Helvetica, Arial, sans-serif" font-size="25.361702127659576" fill="rgba(0,0,0,1)" transform="matrix(0.7346579310029056 0.6784377085735507 -0.6784377085735507 0.7346579310029056 184.46168731537438 24.52313555901557)">g</text>
<text x="-6.99140425531915" y="0" text-anchor="start" font-family="Verdana, Helvetica, Arial, sans-serif" font-size="25.148936170212767" fill="rgba(0,0,0,1)" transform="matrix(0.6160486367125613 0.7877081167568319 -0.7877081167568319 0.6160486367125613 187.4335323044593 37.37980866679635)">u</text>
<text x="-6.23404255319149" y="0" text-anchor="start" font-family="Verdana, Helvetica, Arial, sans-serif" font-size="24.93617021276596" fill="rgba(0,0,0,1)" transform="matrix(0.4655000876706133 0.8850478339494715 -0.8850478339494715 0.4655000876706133 190.25443963375335 49.58350150181313)">s</text>
<text x="-3.436553191489362" y="0" text-anchor="start" font-family="Verdana, Helvetica, Arial, sans-serif" font-size="24.72340425531915" fill="rgba(0,0,0,1)" transform="matrix(0.32551335389152064 0.9455374431709691 -0.9455374431709691 0.32551335389152064 192.44328242861792 59.05278284093167)">t</text>
<text x="-3.4069787234042557" y="0" text-anchor="start" font-family="Verdana, Helvetica, Arial, sans-serif" font-size="24.51063829787234" fill="rgba(0,0,0,1)" transform="matrix(0.20872536078621984 0.9779742960654244 -0.9779742960654244 0.20872536078621984 194.1279330288292 66.34084872165322)"> </text>
<text x="-3.3774042553191492" y="0" text-anchor="start" font-family="Verdana, Helvetica, Arial, sans-serif" font-size="24.29787234042553" fill="rgba(0,0,0,1)" transform="matrix(0.024152793364763097 0.9997082787356915 -0.9997082787356915 0.024152793364763097 196.74424311916067 77.65942142767346)"> </text>
<text x="-8.032382978723405" y="0" text-anchor="start" font-family="Verdana, Helvetica, Arial, sans-serif" font-size="24.085106382978722" fill="rgba(0,0,0,1)" transform="matrix(-0.19596517968163416 0.9806108546984094 -0.9806108546984094 -0.19596517968163416 200.1508077085469 92.39676052414013)">S</text>
<text x="-6.636510638297873" y="0" text-anchor="start" font-family="Verdana, Helvetica, Arial, sans-serif" font-size="23.872340425531913" fill="rgba(0,0,0,1)" transform="matrix(-0.3756297892629262 0.9267697995825552 -0.9267697995825552 -0.3756297892629262 194.70145892827014 103.7818667858118)">e</text>
<text x="-6.57736170212766" y="0" text-anchor="start" font-family="Verdana, Helvetica, Arial, sans-serif" font-size="23.659574468085104" fill="rgba(0,0,0,1)" transform="matrix(-0.5428920883525783 0.8398024651096092 -0.8398024651096092 -0.5428920883525783 187.39718131480393 113.6996532111139)">p</text>
<text x="-3.259106382978724" y="0" text-anchor="start" font-family="Verdana, Helvetica, Arial, sans-serif" font-size="23.4468085106383" fill="rgba(0,0,0,1)" transform="matrix(-0.6635596355503046 0.7481233922745277 -0.7481233922745277 -0.6635596355503046 181.67510410647554 121.46911963400349)">t</text>
<text x="-6.459063829787235" y="0" text-anchor="start" font-family="Verdana, Helvetica, Arial, sans-serif" font-size="23.23404255319149" fill="rgba(0,0,0,1)" transform="matrix(-0.7648846998800257 0.6441672111256851 -0.6441672111256851 -0.7648846998800257 175.9500293832402 128.99696574969067)">e</text>
<text x="-9.588361702127658" y="0" text-anchor="start" font-family="Verdana, Helvetica, Arial, sans-serif" font-size="23.02127659574468" fill="rgba(0,0,0,1)" transform="matrix(-0.8790939864307055 0.4766484690223715 -0.4766484690223715 -0.8790939864307055 161.55783440322546 130.01653198981506)">m</text>
<text x="-6.34076595744681" y="0" text-anchor="start" font-family="Verdana, Helvetica, Arial, sans-serif" font-size="22.808510638297875" fill="rgba(0,0,0,1)" transform="matrix(-0.9686464184169318 0.24844338608232328 -0.24844338608232328 -0.9686464184169318 147.29081356494896 131.0272306924145)">b</text>
<text x="-6.281617021276596" y="0" text-anchor="start" font-family="Verdana, Helvetica, Arial, sans-serif" font-size="22.595744680851062" fill="rgba(0,0,0,1)" transform="matrix(-0.9995165603871141 0.03109092330427677 -0.03109092330427677 -0.9995165603871141 135.63021307984616 131.85328638514926)">e</text>
<text x="-3.726765957446809" y="0" text-anchor="start" font-family="Verdana, Helvetica, Arial, sans-serif" font-size="22.382978723404257" fill="rgba(0,0,0,1)" transform="matrix(-0.9890689991784855 -0.1474534328663429 0.1474534328663429 -0.9890689991784855 126.03693970970984 132.53288930006653)">r</text>
<text x="-3.0816595744680852" y="0" text-anchor="start" font-family="Verdana, Helvetica, Arial, sans-serif" font-size="22.170212765957444" fill="rgba(0,0,0,1)" transform="matrix(-0.9632220693159596 -0.26870661544271834 0.26870661544271834 -0.9632220693159596 118.96698497087071 133.03373626475383)"> </text>
<text x="-3.0520851063829793" y="0" text-anchor="start" font-family="Verdana, Helvetica, Arial, sans-serif" font-size="21.95744680851064" fill="rgba(0,0,0,1)" transform="matrix(-0.9076788566972609 -0.41966545378998416 0.41966545378998416 -0.9076788566972609 109.93180792180613 131.2135914808046)"> </text>
<text x="-8.45868085106383" y="0" text-anchor="start" font-family="Verdana, Helvetica, Arial, sans-serif" font-size="21.74468085106383" fill="rgba(0,0,0,1)" transform="matrix(-0.777486128158383 -0.6289000878687221 0.6289000878687221 -0.777486128158383 100.02385759820946 121.16861495440183)">O</text>
<text x="-5.382978723404255" y="0" text-anchor="start" font-family="Verdana, Helvetica, Arial, sans-serif" font-size="21.53191489361702" fill="rgba(0,0,0,1)" transform="matrix(-0.6125393508344278 -0.7904400949340423 0.7904400949340423 -0.6125393508344278 91.26344963720496 112.28705121458101)">c</text>
<text x="-2.96336170212766" y="0" text-anchor="start" font-family="Verdana, Helvetica, Arial, sans-serif" font-size="21.319148936170212" fill="rgba(0,0,0,1)" transform="matrix(-0.49688625994380087 -0.8678156743681584 0.8678156743681584 -0.49688625994380087 87.58318864047678 105.74764616424689)">t</text>
<text x="-5.867574468085106" y="0" text-anchor="start" font-family="Verdana, Helvetica, Arial, sans-serif" font-size="21.106382978723403" fill="rgba(0,0,0,1)" transform="matrix(-0.36873868992402015 -0.9295330970724589 0.9295330970724589 -0.36873868992402015 88.34678617883165 97.28247241634419)">o</text>
<text x="-5.808425531914895" y="0" text-anchor="start" font-family="Verdana, Helvetica, Arial, sans-serif" font-size="20.893617021276597" fill="rgba(0,0,0,1)" transform="matrix(-0.16475934278716745 -0.9863337969289812 0.9863337969289812 -0.16475934278716745 89.30680741577498 86.63976318248469)">b</text>
<text x="-5.749276595744681" y="0" text-anchor="start" font-family="Verdana, Helvetica, Arial, sans-serif" font-size="20.680851063829788" fill="rgba(0,0,0,1)" transform="matrix(0.0696465440873102 -0.9975717312036736 0.9975717312036736 0.0696465440873102 90.2555548468503 76.12203434821969)">e</text>
<text x="-3.4079361702127664" y="0" text-anchor="start" font-family="Verdana, Helvetica, Arial, sans-serif" font-size="20.46808510638298" fill="rgba(0,0,0,1)" transform="matrix(0.2622184578618254 -0.9650085390070733 0.9650085390070733 0.2622184578618254 91.03307314946154 67.50253625769571)">r</text>
<text x="-2.8154893617021277" y="0" text-anchor="start" font-family="Verdana, Helvetica, Arial, sans-serif" font-size="20.25531914893617" fill="rgba(0,0,0,1)" transform="matrix(0.39048348427188 -0.92060993287651 0.92060993287651 0.39048348427188 91.60198428867719 61.19563845004522)"> </text>
<text x="-2.7859148936170213" y="0" text-anchor="start" font-family="Verdana, Helvetica, Arial, sans-serif" font-size="20.04255319148936" fill="rgba(0,0,0,1)" transform="matrix(0.541106136805128 -0.8409543083377539 0.8409543083377539 0.541106136805128 94.22768188142157 53.589688205284745)"> </text>
<text x="-7.1585531914893625" y="0" text-anchor="start" font-family="Verdana, Helvetica, Arial, sans-serif" font-size="19.829787234042556" fill="rgba(0,0,0,1)" transform="matrix(0.7352154594251981 -0.6778334811900301 0.6778334811900301 0.7352154594251981 104.01199151624171 46.65796117539081)">N</text>
<text x="-5.453531914893617" y="0" text-anchor="start" font-family="Verdana, Helvetica, Arial, sans-serif" font-size="19.617021276595743" fill="rgba(0,0,0,1)" transform="matrix(0.8821108899541109 -0.4710418005064586 0.4710418005064586 0.8821108899541109 113.16483603693469 40.17359772692454)">o</text>
<text x="-4.851063829787234" y="0" text-anchor="start" font-family="Verdana, Helvetica, Arial, sans-serif" font-size="19.404255319148938" fill="rgba(0,0,0,1)" transform="matrix(0.9548673480543542 -0.29703256996438054 0.29703256996438054 0.9548673480543542 121.72645034802012 39.746807174611874)">v</text>
<text x="-5.335234042553191" y="0" text-anchor="start" font-family="Verdana, Helvetica, Arial, sans-serif" font-size="19.191489361702125" fill="rgba(0,0,0,1)" transform="matrix(0.996026950195573 -0.08905231318784228 0.08905231318784228 0.996026950195573 130.67774112293222 42.11063784573288)">e</text>
<text x="-7.90463829787234" y="0" text-anchor="start" font-family="Verdana, Helvetica, Arial, sans-serif" font-size="18.97872340425532" fill="rgba(0,0,0,1)" transform="matrix(0.9741460591872411 0.22591913458131052 -0.22591913458131052 0.9741460591872411 141.90021995836548 45.074237213050296)">m</text>
<text x="-5.216936170212766" y="0" text-anchor="start" font-family="Verdana, Helvetica, Arial, sans-serif" font-size="18.76595744680851" fill="rgba(0,0,0,1)" transform="matrix(0.8537496159632437 0.5206837747065044 -0.5206837747065044 0.8537496159632437 153.0013701872787 48.00579647703644)">b</text>
<text x="-5.157787234042553" y="0" text-anchor="start" font-family="Verdana, Helvetica, Arial, sans-serif" font-size="18.5531914893617" fill="rgba(0,0,0,1)" transform="matrix(0.7106190235573466 0.7035770059903914 -0.7035770059903914 0.7106190235573466 159.4425705357373 53.46982916636337)">e</text>
<text x="-3.0536808510638296" y="0" text-anchor="start" font-family="Verdana, Helvetica, Arial, sans-serif" font-size="18.340425531914892" fill="rgba(0,0,0,1)" transform="matrix(0.5489292527654293 0.8358688147421146 -0.8358688147421146 0.5489292527654293 162.71571815366562 60.31191176952872)">r</text>
<text x="-2.519744680851064" y="0" text-anchor="start" font-family="Verdana, Helvetica, Arial, sans-serif" font-size="18.127659574468087" fill="rgba(0,0,0,1)" transform="matrix(0.40829791139399746 0.9128487364023129 -0.9128487364023129 0.40829791139399746 165.0863879308153 65.26748369400921)"> </text>
<text x="-2.4901702127659577" y="0" text-anchor="start" font-family="Verdana, Helvetica, Arial, sans-serif" font-size="17.914893617021278" fill="rgba(0,0,0,1)" transform="matrix(0.2219125762471719 0.9750665661909156 -0.9750665661909156 0.2219125762471719 166.36834607507313 71.80698958531018)"> </text>
<text x="-6.390468085106383" y="0" text-anchor="start" font-family="Verdana, Helvetica, Arial, sans-serif" font-size="17.70212765957447" fill="rgba(0,0,0,1)" transform="matrix(-0.06479782420427958 0.9978984126545103 -0.9978984126545103 -0.06479782420427958 162.02128862483121 80.99560142226115)">D</text>
<text x="-4.86204255319149" y="0" text-anchor="start" font-family="Verdana, Helvetica, Arial, sans-serif" font-size="17.48936170212766" fill="rgba(0,0,0,1)" transform="matrix(-0.40966564271231504 0.9122357486862186 -0.9122357486862186 -0.40966564271231504 157.81990682734948 89.87629070639804)">e</text>
<text x="-4.319148936170213" y="0" text-anchor="start" font-family="Verdana, Helvetica, Arial, sans-serif" font-size="17.27659574468085" fill="rgba(0,0,0,1)" transform="matrix(-0.6647272663725332 0.7470861137385029 -0.7470861137385029 -0.6647272663725332 154.32377634324075 97.26625191982045)">c</text>
<text x="-4.743744680851064" y="0" text-anchor="start" font-family="Verdana, Helvetica, Arial, sans-serif" font-size="17.06382978723404" fill="rgba(0,0,0,1)" transform="matrix(-0.8441245133839532 0.5361471867913737 -0.5361471867913737 -0.8441245133839532 147.62150368068055 100.6347687590224)">e</text>
<text x="-7.018468085106382" y="0" text-anchor="start" font-family="Verdana, Helvetica, Arial, sans-serif" font-size="16.851063829787233" fill="rgba(0,0,0,1)" transform="matrix(-0.9874443644022981 0.15796717130512133 -0.15796717130512133 -0.9874443644022981 137.84325431440507 103.25187327401467)">m</text>
<text x="-4.625446808510638" y="0" text-anchor="start" font-family="Verdana, Helvetica, Arial, sans-serif" font-size="16.638297872340424" fill="rgba(0,0,0,1)" transform="matrix(-0.9759990474716355 -0.21777479040159883 0.21777479040159883 -0.9759990474716355 129.84865397422527 97.74300486791351)">b</text>
<text x="-4.566297872340426" y="0" text-anchor="start" font-family="Verdana, Helvetica, Arial, sans-serif" font-size="16.425531914893618" fill="rgba(0,0,0,1)" transform="matrix(-0.7921543880397294 -0.6103207562498607 0.6103207562498607 -0.7921543880397294 123.52182131577788 92.7645943034805)">e</text>
<text x="-2.6994255319148937" y="0" text-anchor="start" font-family="Verdana, Helvetica, Arial, sans-serif" font-size="16.21276595744681" fill="rgba(0,0,0,1)" transform="matrix(-0.5286708711108121 -0.8488269022827535 0.8488269022827535 -0.5286708711108121 119.83901634256513 87.99011469783876)">r</text>
</svg>